<svg width="369" height="229" viewBox="0 0 369 229" fill="none" xmlns="http://www.w3.org/2000/svg">
<path d="M367.611 4.28027C367.305 3.45399 367.305 3.45401 367.305 3.45409L367.303 3.45451L367.299 3.45631L367.279 3.46369L367.198 3.49334C367.126 3.51961 367.019 3.55874 366.878 3.60989C366.596 3.71219 366.179 3.86252 365.639 4.05402C364.558 4.43703 362.987 4.98468 361.027 5.64209C357.106 6.95706 351.631 8.71033 345.416 10.4633C332.961 13.9765 317.626 17.4613 305.869 17.4613C293.848 17.4613 286.56 19.6981 280.037 21.9201C279.598 22.0695 279.164 22.2187 278.731 22.3669C272.771 24.4119 267.313 26.2847 259.031 26.2847C256.454 26.2847 253.994 27.6224 251.655 29.7483C249.31 31.8808 246.99 34.8935 244.681 38.4473C240.727 44.5322 236.715 52.3488 232.602 60.3615C231.913 61.7041 231.221 63.0523 230.526 64.3988C225.666 73.8155 220.652 83.1589 215.365 90.1468C210.038 97.1873 204.638 101.559 199.063 101.559C192.745 101.559 187.402 104.381 182.678 108.496C177.966 112.601 173.8 118.053 169.835 123.424C169.414 123.994 168.995 124.563 168.578 125.129C165.044 129.934 161.645 134.554 158.074 138.108C154.083 142.079 150.016 144.573 145.483 144.573C135.241 144.573 128.969 151.982 123.71 158.987C123.214 159.648 122.727 160.305 122.247 160.952C120.143 163.792 118.166 166.461 116.068 168.561C113.507 171.126 110.902 172.697 107.87 172.697C104.01 172.697 101.164 175.51 98.9308 179.244C96.6807 183.005 94.8797 187.987 93.1986 192.868C92.999 193.448 92.801 194.026 92.6042 194.601C91.128 198.913 89.7156 203.039 88.1211 206.219C87.2191 208.018 86.2889 209.45 85.304 210.423C84.3297 211.385 83.3534 211.851 82.3221 211.851C79.8084 211.851 77.3687 211.207 74.9073 210.325C73.7218 209.9 72.5455 209.425 71.3549 208.945L71.2189 208.89C69.9881 208.393 68.7416 207.892 67.4884 207.453C64.9835 206.576 62.3887 205.924 59.6822 206.033C56.9554 206.144 54.1721 207.025 51.2881 209.122C48.6091 211.069 47.1431 211.157 46.2854 210.833C45.338 210.474 44.7067 209.5 43.958 208.246L43.9175 208.178C43.586 207.622 43.2188 207.006 42.7976 206.519C42.3511 206.003 41.7476 205.517 40.9209 205.43C40.1037 205.343 39.2811 205.67 38.4401 206.284C37.5957 206.901 36.6359 207.878 35.5067 209.282C33.396 211.907 31.3293 212.986 29.3099 213.151C27.2543 213.319 25.0713 212.555 22.7149 211.122C20.3626 209.692 17.937 207.658 15.4106 205.421C14.8004 204.881 14.184 204.329 13.5624 203.772C11.6587 202.067 9.70566 200.317 7.73034 198.735L0.698664 189.585L-0.881136 187.529V190.122V229V229.881H0H367.611H368.492V229V4.28027V3.01429L367.305 3.45399L367.611 4.28027Z" fill="url(#paint0_linear_4197_1424)" stroke="url(#paint1_linear_4197_1424)" stroke-width="1.76227"/>
<line x1="255.827" y1="30.7505" x2="255.827" y2="187.365" stroke="url(#paint2_linear_4197_1424)" stroke-width="3.52455"/>
<g filter="url(#filter0_di_4197_1424)">
<ellipse cx="254.773" cy="29.0953" rx="7.80641" ry="6.06605" fill="#F06400"/>
<path d="M261.698 29.0953C261.698 31.765 258.818 34.2803 254.773 34.2803C250.729 34.2803 247.848 31.765 247.848 29.0953C247.848 26.4257 250.729 23.9104 254.773 23.9104C258.818 23.9104 261.698 26.4257 261.698 29.0953Z" stroke="#FF9900" stroke-width="1.76227"/>
</g>
<g filter="url(#filter1_b_4197_1424)">
<path d="M21.4023 56.9993C21.4023 42.0672 33.5072 29.9624 48.4393 29.9624H164.51C179.442 29.9624 191.547 42.0672 191.547 56.9993V62.8507C191.547 77.7828 179.442 89.8876 164.51 89.8876H48.4392C33.5072 89.8876 21.4023 77.7828 21.4023 62.8507V56.9993Z" fill="#FF9A35" fill-opacity="0.2"/>
<path d="M21.9625 56.9993C21.9625 42.3766 33.8165 30.5225 48.4393 30.5225H164.51C179.133 30.5225 190.987 42.3766 190.987 56.9993V62.8507C190.987 77.4735 179.133 89.3275 164.51 89.3275H48.4392C33.8165 89.3275 21.9625 77.4735 21.9625 62.8507V56.9993Z" stroke="#FF9A35" stroke-width="1.12022"/>
<path d="M88.9644 50.131H75.6096V56.0379C76.1803 55.4102 76.9793 54.8965 78.0066 54.497C79.0339 54.0975 80.1468 53.8978 81.3453 53.8978C83.4855 53.8978 85.2547 54.3829 86.653 55.3531C88.0798 56.3233 89.1213 57.5789 89.7777 59.1198C90.434 60.6607 90.7621 62.3301 90.7621 64.1279C90.7621 67.4665 89.8205 70.1204 87.9371 72.0893C86.0537 74.0298 83.3999 75 79.9756 75C77.6927 75 75.7095 74.6148 74.0259 73.8443C72.3423 73.0453 71.0439 71.9467 70.1307 70.5484C69.2176 69.1502 68.7182 67.5379 68.6326 65.7116H75.7808C75.952 66.5962 76.3658 67.3381 77.0221 67.9374C77.6785 68.5081 78.5773 68.7935 79.7188 68.7935C81.06 68.7935 82.0587 68.3654 82.715 67.5093C83.3714 66.6533 83.6995 65.5118 83.6995 64.085C83.6995 62.6868 83.3571 61.6167 82.6722 60.8748C81.9874 60.1328 80.9886 59.7619 79.676 59.7619C78.7058 59.7619 77.9068 60.0044 77.279 60.4895C76.6512 60.9461 76.2374 61.5596 76.0377 62.3301H68.975V43.7105H88.9644V50.131ZM94.8024 58.9486C94.8024 54.0404 95.7441 50.1738 97.6275 47.3488C99.5394 44.5237 102.607 43.1112 106.83 43.1112C111.054 43.1112 114.107 44.5237 115.99 47.3488C117.902 50.1738 118.858 54.0404 118.858 58.9486C118.858 63.9138 117.902 67.809 115.99 70.634C114.107 73.4591 111.054 74.8716 106.83 74.8716C102.607 74.8716 99.5394 73.4591 97.6275 70.634C95.7441 67.809 94.8024 63.9138 94.8024 58.9486ZM111.667 58.9486C111.667 56.0665 111.353 53.855 110.725 52.314C110.098 50.7445 108.799 49.9598 106.83 49.9598C104.861 49.9598 103.563 50.7445 102.935 52.314C102.307 53.855 101.993 56.0665 101.993 58.9486C101.993 60.889 102.108 62.5013 102.336 63.7854C102.564 65.041 103.021 66.0683 103.706 66.8673C104.419 67.6378 105.461 68.023 106.83 68.023C108.2 68.023 109.227 67.6378 109.912 66.8673C110.626 66.0683 111.096 65.041 111.325 63.7854C111.553 62.5013 111.667 60.889 111.667 58.9486ZM137.578 75L132.998 68.3654L129.146 75H121.227L129.103 62.8009L121.013 51.1155H129.231L133.811 57.7073L137.664 51.1155H145.582L137.578 63.1434L145.796 75H137.578Z" fill="white"/>
</g>
<defs>
<filter id="filter0_di_4197_1424" x="114.001" y="-109.937" width="281.546" height="278.065" filterUnits="userSpaceOnUse" color-interpolation-filters="sRGB">
<feFlood flood-opacity="0" result="BackgroundImageFix"/>
<feColorMatrix in="SourceAlpha" type="matrix" values="0 0 0 0 0 0 0 0 0 0 0 0 0 0 0 0 0 0 127 0" result="hardAlpha"/>
<feMorphology radius="30.49" operator="dilate" in="SourceAlpha" result="effect1_dropShadow_4197_1424"/>
<feOffset/>
<feGaussianBlur stdDeviation="51.2381"/>
<feComposite in2="hardAlpha" operator="out"/>
<feColorMatrix type="matrix" values="0 0 0 0 1 0 0 0 0 0.416667 0 0 0 0 0 0 0 0 1 0"/>
<feBlend mode="plus-lighter" in2="BackgroundImageFix" result="effect1_dropShadow_4197_1424"/>
<feBlend mode="normal" in="SourceGraphic" in2="effect1_dropShadow_4197_1424" result="shape"/>
<feColorMatrix in="SourceAlpha" type="matrix" values="0 0 0 0 0 0 0 0 0 0 0 0 0 0 0 0 0 0 127 0" result="hardAlpha"/>
<feMorphology radius="4.40568" operator="erode" in="SourceAlpha" result="effect2_innerShadow_4197_1424"/>
<feOffset dx="0.881136" dy="2.64341"/>
<feGaussianBlur stdDeviation="16.1248"/>
<feComposite in2="hardAlpha" operator="arithmetic" k2="-1" k3="1"/>
<feColorMatrix type="matrix" values="0 0 0 0 0.956863 0 0 0 0 0.564706 0 0 0 0 0.145098 0 0 0 1 0"/>
<feBlend mode="plus-lighter" in2="shape" result="effect2_innerShadow_4197_1424"/>
</filter>
<filter id="filter1_b_4197_1424" x="3.51573" y="12.0758" width="205.918" height="95.6985" filterUnits="userSpaceOnUse" color-interpolation-filters="sRGB">
<feFlood flood-opacity="0" result="BackgroundImageFix"/>
<feGaussianBlur in="BackgroundImageFix" stdDeviation="8.94331"/>
<feComposite in2="SourceAlpha" operator="in" result="effect1_backgroundBlur_4197_1424"/>
<feBlend mode="normal" in="SourceGraphic" in2="effect1_backgroundBlur_4197_1424" result="shape"/>
</filter>
<linearGradient id="paint0_linear_4197_1424" x1="91.9027" y1="42.0552" x2="287.749" y2="294.09" gradientUnits="userSpaceOnUse">
<stop stop-color="#FF6A00"/>
<stop offset="0.841" stop-opacity="0"/>
</linearGradient>
<linearGradient id="paint1_linear_4197_1424" x1="217.16" y1="98.5798" x2="258.495" y2="146.842" gradientUnits="userSpaceOnUse">
<stop stop-color="#FFA600"/>
<stop offset="1" stop-color="#994D00" stop-opacity="0"/>
</linearGradient>
<linearGradient id="paint2_linear_4197_1424" x1="253.477" y1="30.7505" x2="251.206" y2="30.8703" gradientUnits="userSpaceOnUse">
<stop stop-color="#FFF700"/>
<stop offset="1" stop-opacity="0"/>
</linearGradient>
</defs>
</svg>
