<svg width="408" height="173" viewBox="0 0 408 173" fill="none" xmlns="http://www.w3.org/2000/svg">
<path d="M125.418 71.6313C71.6094 71.6313 88.0941 20 33.2487 20" stroke="url(#paint0_linear_4189_1387)" stroke-width="5.59858"/>
<path d="M279.25 85C209.065 85 260.787 85 189.25 85" stroke="url(#paint1_linear_4189_1387)" stroke-width="5.59858"/>
<g filter="url(#filter0_di_4189_1387)">
<path d="M16.3319 4.37674C17.8075 3.52481 19.6255 3.52481 21.1011 4.37674L31.3264 10.2803C32.802 11.1323 33.711 12.7067 33.711 14.4105V26.2177C33.711 27.9216 32.802 29.496 31.3264 30.3479L21.1011 36.2515C19.6255 37.1035 17.8075 37.1035 16.3319 36.2515L6.10658 30.3479C4.63099 29.496 3.722 27.9216 3.722 26.2177V14.4105C3.722 12.7067 4.631 11.1323 6.10658 10.2803L16.3319 4.37674Z" fill="url(#paint2_linear_4189_1387)"/>
</g>
<g filter="url(#filter1_di_4189_1387)">
<path d="M25.7271 25.8735C25.7271 26.0165 25.6703 26.1537 25.5692 26.2549C25.468 26.356 25.3308 26.4129 25.1878 26.4129H12.2425C12.0995 26.4129 11.9623 26.356 11.8611 26.2549C11.76 26.1537 11.7031 26.0165 11.7031 25.8735V15.0858C11.7031 14.9427 11.76 14.8055 11.8611 14.7044C11.9623 14.6032 12.0995 14.5464 12.2425 14.5464C12.3856 14.5464 12.5228 14.6032 12.6239 14.7044C12.7251 14.8055 12.7819 14.9427 12.7819 15.0858V22.414L16.176 19.0192C16.2261 18.9691 16.2856 18.9293 16.351 18.9022C16.4165 18.875 16.4867 18.861 16.5576 18.861C16.6285 18.861 16.6987 18.875 16.7641 18.9022C16.8296 18.9293 16.8891 18.9691 16.9392 19.0192L18.7151 20.7958L22.2677 17.2433H20.8727C20.7296 17.2433 20.5924 17.1865 20.4913 17.0853C20.3901 16.9842 20.3333 16.847 20.3333 16.7039C20.3333 16.5609 20.3901 16.4237 20.4913 16.3225C20.5924 16.2214 20.7296 16.1645 20.8727 16.1645H23.5696C23.7127 16.1645 23.8498 16.2214 23.951 16.3225C24.0522 16.4237 24.109 16.5609 24.109 16.7039V19.4009C24.109 19.5439 24.0522 19.6811 23.951 19.7823C23.8498 19.8834 23.7127 19.9402 23.5696 19.9402C23.4265 19.9402 23.2894 19.8834 23.1882 19.7823C23.087 19.6811 23.0302 19.5439 23.0302 19.4009V18.0059L19.0967 21.94C19.0467 21.9902 18.9872 22.0299 18.9217 22.0571C18.8562 22.0842 18.786 22.0982 18.7151 22.0982C18.6442 22.0982 18.5741 22.0842 18.5086 22.0571C18.4431 22.0299 18.3836 21.9902 18.3335 21.94L16.5576 20.1634L12.7819 23.9391V25.3341H25.1878C25.3308 25.3341 25.468 25.3909 25.5692 25.4921C25.6703 25.5932 25.7271 25.7304 25.7271 25.8735Z" fill="white"/>
</g>
<path d="M125.289 82.3731C71.4805 82.3731 92.4501 64.374 33.976 64.374" stroke="#FF6A00" stroke-width="5.59858"/>
<path d="M125.289 82.3731C71.4805 82.3731 92.4501 64.374 33.976 64.374" stroke="url(#paint3_linear_4189_1387)" stroke-width="5.59858"/>
<path d="M124.902 101.802C71.0938 101.802 99.605 154.366 33.2515 154.366" stroke="#FF6A00" stroke-width="5.59858"/>
<path d="M124.902 101.802C71.0938 101.802 99.605 154.366 33.2515 154.366" stroke="url(#paint4_linear_4189_1387)" stroke-width="5.59858"/>
<path d="M125.225 92.2422C71.416 92.2422 87.4732 110.925 33.6646 110.925" stroke="#FF6A00" stroke-width="5.59858"/>
<path d="M125.225 92.2422C71.416 92.2422 87.4732 110.925 33.6646 110.925" stroke="url(#paint5_linear_4189_1387)" stroke-width="5.59858"/>
<g filter="url(#filter2_di_4189_1387)">
<path d="M16.3319 49.3728C17.8075 48.5209 19.6255 48.5209 21.1011 49.3728L31.3264 55.2764C32.802 56.1284 33.711 57.7028 33.711 59.4066V71.2138C33.711 72.9177 32.802 74.4921 31.3264 75.344L21.1011 81.2476C19.6255 82.0996 17.8075 82.0996 16.3319 81.2476L6.10658 75.344C4.63099 74.4921 3.722 72.9177 3.722 71.2138V59.4066C3.722 57.7028 4.631 56.1284 6.10658 55.2764L16.3319 49.3728Z" fill="url(#paint6_linear_4189_1387)"/>
</g>
<path d="M20.8561 62.7721H16.7377C16.5557 62.7721 16.3811 62.8444 16.2524 62.9731C16.1237 63.1018 16.0514 63.2764 16.0514 63.4584V67.5768C16.0514 67.7588 16.1237 67.9334 16.2524 68.0621C16.3811 68.1908 16.5557 68.2632 16.7377 68.2632H20.8561C21.0381 68.2632 21.2127 68.1908 21.3414 68.0621C21.4701 67.9334 21.5424 67.7588 21.5424 67.5768V63.4584C21.5424 63.2764 21.4701 63.1018 21.3414 62.9731C21.2127 62.8444 21.0381 62.7721 20.8561 62.7721ZM20.1697 66.8904H17.4241V64.1448H20.1697V66.8904ZM27.7199 66.8904H26.3472V64.1448H27.7199C27.902 64.1448 28.0765 64.0725 28.2053 63.9438C28.334 63.8151 28.4063 63.6405 28.4063 63.4584C28.4063 63.2764 28.334 63.1018 28.2053 62.9731C28.0765 62.8444 27.902 62.7721 27.7199 62.7721H26.3472V59.3401C26.3472 58.9761 26.2025 58.6269 25.9451 58.3694C25.6876 58.112 25.3385 57.9674 24.9744 57.9674H21.5424V56.5946C21.5424 56.4125 21.4701 56.238 21.3414 56.1092C21.2127 55.9805 21.0381 55.9082 20.8561 55.9082C20.674 55.9082 20.4994 55.9805 20.3707 56.1092C20.242 56.238 20.1697 56.4125 20.1697 56.5946V57.9674H17.4241V56.5946C17.4241 56.4125 17.3518 56.238 17.2231 56.1092C17.0944 55.9805 16.9198 55.9082 16.7377 55.9082C16.5557 55.9082 16.3811 55.9805 16.2524 56.1092C16.1237 56.238 16.0514 56.4125 16.0514 56.5946V57.9674H12.6194C12.2553 57.9674 11.9062 58.112 11.6487 58.3694C11.3913 58.6269 11.2467 58.9761 11.2467 59.3401V62.7721H9.87389C9.69185 62.7721 9.51726 62.8444 9.38854 62.9731C9.25982 63.1018 9.1875 63.2764 9.1875 63.4584C9.1875 63.6405 9.25982 63.8151 9.38854 63.9438C9.51726 64.0725 9.69185 64.1448 9.87389 64.1448H11.2467V66.8904H9.87389C9.69185 66.8904 9.51726 66.9627 9.38854 67.0914C9.25982 67.2201 9.1875 67.3947 9.1875 67.5768C9.1875 67.7588 9.25982 67.9334 9.38854 68.0621C9.51726 68.1908 9.69185 68.2632 9.87389 68.2632H11.2467V71.6951C11.2467 72.0592 11.3913 72.4083 11.6487 72.6658C11.9062 72.9232 12.2553 73.0679 12.6194 73.0679H16.0514V74.4406C16.0514 74.6227 16.1237 74.7973 16.2524 74.926C16.3811 75.0547 16.5557 75.127 16.7377 75.127C16.9198 75.127 17.0944 75.0547 17.2231 74.926C17.3518 74.7973 17.4241 74.6227 17.4241 74.4406V73.0679H20.1697V74.4406C20.1697 74.6227 20.242 74.7973 20.3707 74.926C20.4994 75.0547 20.674 75.127 20.8561 75.127C21.0381 75.127 21.2127 75.0547 21.3414 74.926C21.4701 74.7973 21.5424 74.6227 21.5424 74.4406V73.0679H24.9744C25.3385 73.0679 25.6876 72.9232 25.9451 72.6658C26.2025 72.4083 26.3472 72.0592 26.3472 71.6951V68.2632H27.7199C27.902 68.2632 28.0765 68.1908 28.2053 68.0621C28.334 67.9334 28.4063 67.7588 28.4063 67.5768C28.4063 67.3947 28.334 67.2201 28.2053 67.0914C28.0765 66.9627 27.902 66.8904 27.7199 66.8904ZM24.9744 71.6951H12.6194V59.3401H24.9744V67.5656C24.9744 67.5656 24.9744 67.5733 24.9744 67.5768C24.9744 67.5802 24.9744 67.5845 24.9744 67.5879V71.6951Z" fill="white"/>
<g filter="url(#filter3_di_4189_1387)">
<path d="M16.5116 95.179C17.9872 94.3271 19.8052 94.3271 21.2807 95.179L31.5061 101.083C32.9817 101.935 33.8906 103.509 33.8906 105.213V117.02C33.8906 118.724 32.9816 120.298 31.5061 121.15L21.2807 127.054C19.8052 127.906 17.9872 127.906 16.5116 127.054L6.28627 121.15C4.81068 120.298 3.90169 118.724 3.90169 117.02V105.213C3.90169 103.509 4.81068 101.935 6.28627 101.083L16.5116 95.179Z" fill="url(#paint7_linear_4189_1387)"/>
</g>
<path d="M26.2997 109.782H19.0676V107.982H19.6702C19.9899 107.982 20.2965 107.855 20.5226 107.63C20.7486 107.405 20.8756 107.1 20.8756 106.782V104.382C20.8756 104.063 20.7486 103.758 20.5226 103.533C20.2965 103.308 19.9899 103.182 19.6702 103.182H17.2595C16.9398 103.182 16.6332 103.308 16.4072 103.533C16.1811 103.758 16.0541 104.063 16.0541 104.382V106.782C16.0541 107.1 16.1811 107.405 16.4072 107.63C16.6332 107.855 16.9398 107.982 17.2595 107.982H17.8622V109.782H10.63C10.4702 109.782 10.3169 109.845 10.2039 109.957C10.0908 110.07 10.0273 110.223 10.0273 110.382C10.0273 110.541 10.0908 110.693 10.2039 110.806C10.3169 110.918 10.4702 110.982 10.63 110.982H13.0407V113.382H12.4381C12.1184 113.382 11.8118 113.508 11.5857 113.733C11.3597 113.958 11.2327 114.263 11.2327 114.582V116.982C11.2327 117.3 11.3597 117.605 11.5857 117.83C11.8118 118.055 12.1184 118.182 12.4381 118.182H14.8488C15.1685 118.182 15.4751 118.055 15.7011 117.83C15.9272 117.605 16.0541 117.3 16.0541 116.982V114.582C16.0541 114.263 15.9272 113.958 15.7011 113.733C15.4751 113.508 15.1685 113.382 14.8488 113.382H14.2461V110.982H22.6836V113.382H22.081C21.7613 113.382 21.4547 113.508 21.2286 113.733C21.0026 113.958 20.8756 114.263 20.8756 114.582V116.982C20.8756 117.3 21.0026 117.605 21.2286 117.83C21.4547 118.055 21.7613 118.182 22.081 118.182H24.4917C24.8114 118.182 25.1179 118.055 25.344 117.83C25.57 117.605 25.697 117.3 25.697 116.982V114.582C25.697 114.263 25.57 113.958 25.344 113.733C25.1179 113.508 24.8114 113.382 24.4917 113.382H23.889V110.982H26.2997C26.4596 110.982 26.6129 110.918 26.7259 110.806C26.8389 110.693 26.9024 110.541 26.9024 110.382C26.9024 110.223 26.8389 110.07 26.7259 109.957C26.6129 109.845 26.4596 109.782 26.2997 109.782ZM17.2595 104.382H19.6702V106.782H17.2595V104.382ZM14.8488 116.982H12.4381V114.582H14.8488V116.982ZM24.4917 116.982H22.081V114.582H24.4917V116.982Z" fill="white"/>
<g filter="url(#filter4_di_4189_1387)">
<path d="M16.1796 137.332C17.6551 136.48 19.4731 136.48 20.9487 137.332L31.174 143.236C32.6496 144.088 33.5586 145.662 33.5586 147.366V159.173C33.5586 160.877 32.6496 162.452 31.174 163.304L20.9487 169.207C19.4731 170.059 17.6551 170.059 16.1796 169.207L5.95423 163.304C4.47865 162.452 3.56965 160.877 3.56965 159.173V147.366C3.56965 145.662 4.47865 144.088 5.95424 143.236L16.1796 137.332Z" fill="url(#paint8_linear_4189_1387)"/>
</g>
<path d="M27.3804 160.788L23.3226 156.731C24.4987 155.319 25.0852 153.508 24.96 151.674C24.8348 149.841 24.0076 148.126 22.6505 146.887C21.2934 145.648 19.5109 144.98 17.6737 145.022C15.8365 145.064 14.0862 145.812 12.7868 147.111C11.4873 148.411 10.7389 150.161 10.6972 151.998C10.6554 153.836 11.3235 155.618 12.5626 156.975C13.8016 158.332 15.5162 159.16 17.3496 159.285C19.1829 159.41 20.994 158.823 22.406 157.647L26.463 161.705C26.5232 161.765 26.5947 161.813 26.6734 161.846C26.7521 161.878 26.8365 161.895 26.9217 161.895C27.0069 161.895 27.0912 161.878 27.1699 161.846C27.2486 161.813 27.3201 161.765 27.3804 161.705C27.4406 161.645 27.4884 161.573 27.521 161.495C27.5536 161.416 27.5704 161.332 27.5704 161.246C27.5704 161.161 27.5536 161.077 27.521 160.998C27.4884 160.919 27.4406 160.848 27.3804 160.788ZM12.0099 152.17C12.0099 151.016 12.3521 149.887 12.9933 148.928C13.6344 147.968 14.5458 147.22 15.612 146.779C16.6782 146.337 17.8514 146.222 18.9833 146.447C20.1152 146.672 21.1549 147.228 21.9709 148.044C22.787 148.86 23.3427 149.899 23.5679 151.031C23.793 152.163 23.6775 153.336 23.2358 154.403C22.7942 155.469 22.0463 156.38 21.0867 157.021C20.1271 157.662 18.999 158.005 17.8449 158.005C16.2979 158.003 14.8147 157.388 13.7208 156.294C12.6269 155.2 12.0116 153.717 12.0099 152.17Z" fill="white"/>
<g filter="url(#filter5_di_4189_1387)">
<path d="M154.67 50.6087C156.145 49.7567 157.963 49.7567 159.439 50.6087L187.409 66.7573C188.885 67.6092 189.794 69.1837 189.794 70.8875L189.794 103.185C189.794 104.889 188.885 106.463 187.409 107.315L159.439 123.464C157.963 124.316 156.145 124.316 154.67 123.464L126.699 107.315C125.224 106.463 124.315 104.889 124.315 103.185L124.315 70.8875C124.315 69.1837 125.224 67.6092 126.699 66.7573L154.67 50.6087Z" fill="url(#paint9_linear_4189_1387)"/>
</g>
<path d="M156.495 62.63C156.5 62.798 156.505 62.9661 156.509 63.1341C156.494 64.2456 156.477 65.3583 156.459 66.4721C156.43 68.518 156.401 70.5638 156.37 72.6097C156.358 73.5675 156.344 74.5259 156.33 75.4849C156.307 77.4285 156.283 79.3716 156.258 81.3142C156.257 81.4247 156.231 81.5338 156.181 81.6342C154.896 84.3103 153.614 86.9869 152.335 89.6639C152.272 89.777 152.179 89.8729 152.065 89.9422L144.346 95.3904L136.349 101.03C136.277 101.085 136.197 101.13 136.111 101.164C142.921 88.3269 149.715 75.4821 156.495 62.63Z" fill="white"/>
<path d="M157.011 62.6149C157.779 63.8711 158.551 65.1256 159.315 66.3835C166.059 77.4798 172.752 88.6022 179.394 99.7507C179.437 99.8136 179.464 99.8841 179.476 99.9577C179.399 99.9126 179.318 99.8726 179.243 99.8258L166.426 91.8502C165.323 91.1619 164.217 90.4748 163.106 89.789C162.914 89.6744 162.758 89.5146 162.652 89.3257C161.188 86.7759 159.801 84.1833 158.379 81.6154C158.326 81.5259 158.294 81.4267 158.284 81.3244C158.204 80.1335 158.117 78.9427 158.033 77.7502C157.889 75.7189 157.746 73.6875 157.604 71.6561C157.541 70.7482 157.476 69.8404 157.414 68.9308C157.275 66.9094 157.137 64.8881 157 62.8667C156.998 62.7841 156.956 62.6992 157.026 62.6196L157.011 62.6149Z" fill="white"/>
<path d="M145.869 101.35C145.916 101.277 145.981 101.216 146.06 101.174L157.279 92.9719L157.366 92.9098C157.566 92.7744 157.505 92.7351 157.758 92.8989L164.326 97.1556L169.471 100.499C169.551 100.55 169.627 100.606 169.744 100.686L145.869 101.35Z" fill="white"/>
<path d="M337.75 15C299.374 15 268.25 46.1239 268.25 84.5C268.25 122.876 299.374 154 337.75 154C376.126 154 407.25 122.876 407.25 84.5C407.25 46.1239 376.126 15 337.75 15ZM343.34 141.611C343.038 141.611 342.736 141.611 342.283 141.762V108.976C350.139 108.825 357.24 108.674 363.737 108.221C357.996 125.898 347.268 137.683 343.34 141.611ZM332.16 141.611C328.08 137.532 317.504 125.747 311.763 108.221C318.109 108.674 325.361 108.976 333.217 108.976V141.762C332.915 141.762 332.613 141.611 332.16 141.611ZM280.337 84.5C280.337 80.7228 280.79 76.9457 281.395 73.3196C284.718 72.7152 291.064 71.8087 299.978 70.9022C299.223 75.2837 298.77 79.8163 298.77 84.6511C298.77 89.4859 299.223 94.0185 299.827 98.2489C291.064 97.3424 284.567 96.4359 281.243 95.8315C280.79 92.0544 280.337 88.2772 280.337 84.5ZM307.986 84.5C307.986 79.363 308.59 74.5283 309.497 69.9957C316.447 69.5424 324.303 69.0891 333.217 69.0891V99.9109C324.454 99.7598 316.447 99.4576 309.346 98.8533C308.59 94.4717 307.986 89.637 307.986 84.5ZM343.189 27.3891C347.268 31.4685 357.693 43.5554 363.586 60.7794C357.24 60.3261 350.139 60.0239 342.283 60.0239V27.238C342.585 27.238 342.887 27.3891 343.189 27.3891ZM333.217 27.238V60.0239C325.361 60.175 318.26 60.3261 311.914 60.7794C317.655 43.5554 328.232 31.4685 332.16 27.3891C332.613 27.3891 332.915 27.238 333.217 27.238ZM342.283 99.9109V69.0891C351.046 69.2402 359.053 69.5424 366.003 69.9957C366.91 74.5283 367.514 79.363 367.514 84.5C367.514 89.637 367.061 94.4717 366.154 99.0043C359.204 99.4576 351.197 99.7598 342.283 99.9109ZM375.371 70.9022C384.285 71.8087 390.63 72.7152 393.954 73.3196C394.71 76.9457 395.163 80.7228 395.163 84.5C395.163 88.2772 394.71 92.0544 394.105 95.6804C390.782 96.2848 384.436 97.1913 375.522 98.0978C376.277 93.7163 376.579 89.1837 376.579 84.3489C376.579 79.8163 376.126 75.1326 375.371 70.9022ZM391.235 63.65C387.004 63.0457 380.961 62.2902 373.255 61.5348C369.629 48.5413 363.284 38.1163 357.996 30.713C373.255 36.4543 385.342 48.5413 391.235 63.65ZM317.504 30.713C312.065 37.9652 305.871 48.3902 302.245 61.3837C294.69 61.988 288.647 62.8946 284.265 63.4989C290.158 48.5413 302.396 36.4543 317.504 30.713ZM284.265 105.35C288.496 105.954 294.539 106.71 302.093 107.465C305.72 120.459 311.763 130.884 317.202 138.136C302.093 132.243 290.158 120.308 284.265 105.35ZM358.298 138.136C363.737 130.884 369.78 120.61 373.407 107.616C380.961 107.012 387.004 106.105 391.235 105.501C385.342 120.308 373.407 132.243 358.298 138.136Z" fill="url(#paint10_linear_4189_1387)"/>
<defs>
<filter id="filter0_di_4189_1387" x="0.945887" y="0.961024" width="35.5418" height="38.7064" filterUnits="userSpaceOnUse" color-interpolation-filters="sRGB">
<feFlood flood-opacity="0" result="BackgroundImageFix"/>
<feColorMatrix in="SourceAlpha" type="matrix" values="0 0 0 0 0 0 0 0 0 0 0 0 0 0 0 0 0 0 127 0" result="hardAlpha"/>
<feOffset/>
<feGaussianBlur stdDeviation="1.38838"/>
<feComposite in2="hardAlpha" operator="out"/>
<feColorMatrix type="matrix" values="0 0 0 0 0 0 0 0 0 0 0 0 0 0 0 0 0 0 0.25 0"/>
<feBlend mode="normal" in2="BackgroundImageFix" result="effect1_dropShadow_4189_1387"/>
<feBlend mode="normal" in="SourceGraphic" in2="effect1_dropShadow_4189_1387" result="shape"/>
<feColorMatrix in="SourceAlpha" type="matrix" values="0 0 0 0 0 0 0 0 0 0 0 0 0 0 0 0 0 0 127 0" result="hardAlpha"/>
<feOffset/>
<feGaussianBlur stdDeviation="3.93097"/>
<feComposite in2="hardAlpha" operator="arithmetic" k2="-1" k3="1"/>
<feColorMatrix type="matrix" values="0 0 0 0 1 0 0 0 0 1 0 0 0 0 1 0 0 0 0.25 0"/>
<feBlend mode="normal" in2="shape" result="effect2_innerShadow_4189_1387"/>
</filter>
<filter id="filter1_di_4189_1387" x="1.73495" y="4.57772" width="33.9617" height="31.8035" filterUnits="userSpaceOnUse" color-interpolation-filters="sRGB">
<feFlood flood-opacity="0" result="BackgroundImageFix"/>
<feColorMatrix in="SourceAlpha" type="matrix" values="0 0 0 0 0 0 0 0 0 0 0 0 0 0 0 0 0 0 127 0" result="hardAlpha"/>
<feOffset/>
<feGaussianBlur stdDeviation="1.38838"/>
<feComposite in2="hardAlpha" operator="out"/>
<feColorMatrix type="matrix" values="0 0 0 0 0 0 0 0 0 0 0 0 0 0 0 0 0 0 0.25 0"/>
<feBlend mode="normal" in2="BackgroundImageFix" result="effect1_dropShadow_4189_1387"/>
<feBlend mode="normal" in="SourceGraphic" in2="effect1_dropShadow_4189_1387" result="shape"/>
<feColorMatrix in="SourceAlpha" type="matrix" values="0 0 0 0 0 0 0 0 0 0 0 0 0 0 0 0 0 0 127 0" result="hardAlpha"/>
<feOffset/>
<feGaussianBlur stdDeviation="3.93097"/>
<feComposite in2="hardAlpha" operator="arithmetic" k2="-1" k3="1"/>
<feColorMatrix type="matrix" values="0 0 0 0 1 0 0 0 0 1 0 0 0 0 1 0 0 0 0.25 0"/>
<feBlend mode="normal" in2="shape" result="effect2_innerShadow_4189_1387"/>
</filter>
<filter id="filter2_di_4189_1387" x="0.945887" y="45.9571" width="35.5418" height="38.7064" filterUnits="userSpaceOnUse" color-interpolation-filters="sRGB">
<feFlood flood-opacity="0" result="BackgroundImageFix"/>
<feColorMatrix in="SourceAlpha" type="matrix" values="0 0 0 0 0 0 0 0 0 0 0 0 0 0 0 0 0 0 127 0" result="hardAlpha"/>
<feOffset/>
<feGaussianBlur stdDeviation="1.38838"/>
<feComposite in2="hardAlpha" operator="out"/>
<feColorMatrix type="matrix" values="0 0 0 0 0 0 0 0 0 0 0 0 0 0 0 0 0 0 0.25 0"/>
<feBlend mode="normal" in2="BackgroundImageFix" result="effect1_dropShadow_4189_1387"/>
<feBlend mode="normal" in="SourceGraphic" in2="effect1_dropShadow_4189_1387" result="shape"/>
<feColorMatrix in="SourceAlpha" type="matrix" values="0 0 0 0 0 0 0 0 0 0 0 0 0 0 0 0 0 0 127 0" result="hardAlpha"/>
<feOffset/>
<feGaussianBlur stdDeviation="3.93097"/>
<feComposite in2="hardAlpha" operator="arithmetic" k2="-1" k3="1"/>
<feColorMatrix type="matrix" values="0 0 0 0 1 0 0 0 0 1 0 0 0 0 1 0 0 0 0.25 0"/>
<feBlend mode="normal" in2="shape" result="effect2_innerShadow_4189_1387"/>
</filter>
<filter id="filter3_di_4189_1387" x="1.12557" y="91.7633" width="35.5418" height="38.7064" filterUnits="userSpaceOnUse" color-interpolation-filters="sRGB">
<feFlood flood-opacity="0" result="BackgroundImageFix"/>
<feColorMatrix in="SourceAlpha" type="matrix" values="0 0 0 0 0 0 0 0 0 0 0 0 0 0 0 0 0 0 127 0" result="hardAlpha"/>
<feOffset/>
<feGaussianBlur stdDeviation="1.38838"/>
<feComposite in2="hardAlpha" operator="out"/>
<feColorMatrix type="matrix" values="0 0 0 0 0 0 0 0 0 0 0 0 0 0 0 0 0 0 0.25 0"/>
<feBlend mode="normal" in2="BackgroundImageFix" result="effect1_dropShadow_4189_1387"/>
<feBlend mode="normal" in="SourceGraphic" in2="effect1_dropShadow_4189_1387" result="shape"/>
<feColorMatrix in="SourceAlpha" type="matrix" values="0 0 0 0 0 0 0 0 0 0 0 0 0 0 0 0 0 0 127 0" result="hardAlpha"/>
<feOffset/>
<feGaussianBlur stdDeviation="3.93097"/>
<feComposite in2="hardAlpha" operator="arithmetic" k2="-1" k3="1"/>
<feColorMatrix type="matrix" values="0 0 0 0 1 0 0 0 0 1 0 0 0 0 1 0 0 0 0.25 0"/>
<feBlend mode="normal" in2="shape" result="effect2_innerShadow_4189_1387"/>
</filter>
<filter id="filter4_di_4189_1387" x="0.793543" y="133.917" width="35.5418" height="38.7064" filterUnits="userSpaceOnUse" color-interpolation-filters="sRGB">
<feFlood flood-opacity="0" result="BackgroundImageFix"/>
<feColorMatrix in="SourceAlpha" type="matrix" values="0 0 0 0 0 0 0 0 0 0 0 0 0 0 0 0 0 0 127 0" result="hardAlpha"/>
<feOffset/>
<feGaussianBlur stdDeviation="1.38838"/>
<feComposite in2="hardAlpha" operator="out"/>
<feColorMatrix type="matrix" values="0 0 0 0 0 0 0 0 0 0 0 0 0 0 0 0 0 0 0.25 0"/>
<feBlend mode="normal" in2="BackgroundImageFix" result="effect1_dropShadow_4189_1387"/>
<feBlend mode="normal" in="SourceGraphic" in2="effect1_dropShadow_4189_1387" result="shape"/>
<feColorMatrix in="SourceAlpha" type="matrix" values="0 0 0 0 0 0 0 0 0 0 0 0 0 0 0 0 0 0 127 0" result="hardAlpha"/>
<feOffset/>
<feGaussianBlur stdDeviation="3.93097"/>
<feComposite in2="hardAlpha" operator="arithmetic" k2="-1" k3="1"/>
<feColorMatrix type="matrix" values="0 0 0 0 1 0 0 0 0 1 0 0 0 0 1 0 0 0 0.25 0"/>
<feBlend mode="normal" in2="shape" result="effect2_innerShadow_4189_1387"/>
</filter>
<filter id="filter5_di_4189_1387" x="121.538" y="47.193" width="71.0321" height="79.6864" filterUnits="userSpaceOnUse" color-interpolation-filters="sRGB">
<feFlood flood-opacity="0" result="BackgroundImageFix"/>
<feColorMatrix in="SourceAlpha" type="matrix" values="0 0 0 0 0 0 0 0 0 0 0 0 0 0 0 0 0 0 127 0" result="hardAlpha"/>
<feOffset/>
<feGaussianBlur stdDeviation="1.38838"/>
<feComposite in2="hardAlpha" operator="out"/>
<feColorMatrix type="matrix" values="0 0 0 0 0 0 0 0 0 0 0 0 0 0 0 0 0 0 0.25 0"/>
<feBlend mode="normal" in2="BackgroundImageFix" result="effect1_dropShadow_4189_1387"/>
<feBlend mode="normal" in="SourceGraphic" in2="effect1_dropShadow_4189_1387" result="shape"/>
<feColorMatrix in="SourceAlpha" type="matrix" values="0 0 0 0 0 0 0 0 0 0 0 0 0 0 0 0 0 0 127 0" result="hardAlpha"/>
<feOffset/>
<feGaussianBlur stdDeviation="3.93097"/>
<feComposite in2="hardAlpha" operator="arithmetic" k2="-1" k3="1"/>
<feColorMatrix type="matrix" values="0 0 0 0 1 0 0 0 0 1 0 0 0 0 1 0 0 0 0.25 0"/>
<feBlend mode="normal" in2="shape" result="effect2_innerShadow_4189_1387"/>
</filter>
<linearGradient id="paint0_linear_4189_1387" x1="33.2323" y1="16.5415" x2="129.248" y2="71.7423" gradientUnits="userSpaceOnUse">
<stop stop-color="#FF6A00"/>
<stop offset="1"/>
</linearGradient>
<linearGradient id="paint1_linear_4189_1387" x1="213.359" y1="131.459" x2="320.015" y2="51.4783" gradientUnits="userSpaceOnUse">
<stop stop-color="#FF6A00"/>
<stop offset="1"/>
</linearGradient>
<linearGradient id="paint2_linear_4189_1387" x1="-0.780777" y1="16.407" x2="38.2909" y2="16.407" gradientUnits="userSpaceOnUse">
<stop stop-color="#FF5900"/>
<stop offset="1"/>
</linearGradient>
<linearGradient id="paint3_linear_4189_1387" x1="33.9598" y1="63.1683" x2="68.4512" y2="119.522" gradientUnits="userSpaceOnUse">
<stop stop-color="#FF6A00"/>
<stop offset="1"/>
</linearGradient>
<linearGradient id="paint4_linear_4189_1387" x1="25.8751" y1="154.376" x2="123.792" y2="99.8589" gradientUnits="userSpaceOnUse">
<stop stop-color="#FF6A00"/>
<stop offset="1"/>
</linearGradient>
<linearGradient id="paint5_linear_4189_1387" x1="29.3864" y1="106.201" x2="79.9648" y2="144.187" gradientUnits="userSpaceOnUse">
<stop stop-color="#FF6A00"/>
<stop offset="1"/>
</linearGradient>
<linearGradient id="paint6_linear_4189_1387" x1="-0.780777" y1="61.4031" x2="38.2909" y2="61.4031" gradientUnits="userSpaceOnUse">
<stop stop-color="#FF5900"/>
<stop offset="1"/>
</linearGradient>
<linearGradient id="paint7_linear_4189_1387" x1="-0.601089" y1="107.209" x2="38.4706" y2="107.209" gradientUnits="userSpaceOnUse">
<stop stop-color="#FF5900"/>
<stop offset="1"/>
</linearGradient>
<linearGradient id="paint8_linear_4189_1387" x1="-0.933121" y1="149.363" x2="38.1386" y2="149.363" gradientUnits="userSpaceOnUse">
<stop stop-color="#FF5900"/>
<stop offset="1"/>
</linearGradient>
<linearGradient id="paint9_linear_4189_1387" x1="157.138" y1="35.8499" x2="157.138" y2="121.16" gradientUnits="userSpaceOnUse">
<stop stop-color="#FF6A00"/>
<stop offset="1"/>
</linearGradient>
<linearGradient id="paint10_linear_4189_1387" x1="337.905" y1="-9.60177" x2="337.905" y2="147.235" gradientUnits="userSpaceOnUse">
<stop offset="0.315" stop-color="#FF6A00"/>
<stop offset="0.795" stop-color="#803500" stop-opacity="0.9"/>
<stop offset="0.91" stop-color="#401B00" stop-opacity="0.85"/>
<stop offset="1" stop-color="#3C2323" stop-opacity="0.8"/>
</linearGradient>
</defs>
</svg>
