<svg width="635" height="573" viewBox="0 0 635 573" fill="none" xmlns="http://www.w3.org/2000/svg">
<path d="M587 571.754H2.76562L4.25391 570.088L62.749 504.628C56.8259 498.079 50.6356 490.255 46.6416 482.725C44.5762 478.831 43.0723 474.967 42.5166 471.368C41.9597 467.761 42.3481 464.355 44.1514 461.47L44.4717 460.978C47.8871 455.926 54.5805 451.977 62.7158 448.66C71.1593 445.218 81.3743 442.376 91.624 439.72C101.901 437.056 112.202 434.582 120.921 431.865C129.684 429.135 136.629 426.219 140.316 422.77L140.697 422.421C144.631 418.897 148.491 417.853 152.297 418.425C156.138 419.002 159.79 421.21 163.277 423.755C165.029 425.033 166.779 426.428 168.505 427.775C170.24 429.13 171.959 430.444 173.688 431.598C177.161 433.916 180.551 435.5 184 435.5C185.533 435.5 186.966 434.801 188.369 433.406C189.785 432 191.109 429.942 192.386 427.382C194.942 422.255 197.165 415.402 199.554 408.426C201.924 401.503 204.454 394.467 207.609 389.161C210.745 383.888 214.692 380 220 380C225.121 380 229.327 382.589 233.124 386.258C236.902 389.909 240.42 394.779 244.102 399.513C251.555 409.096 259.784 418.254 273 418.254C279.378 418.254 285.148 413.725 290.829 406.451C296.485 399.21 301.832 389.54 307.445 379.756C313.033 370.017 318.877 360.177 325.48 352.775C332.082 345.375 339.582 340.254 348.5 340.254C352.398 340.254 356.274 338.299 360.163 334.658C364.05 331.02 367.859 325.78 371.599 319.419C379.078 306.697 386.162 289.704 393.01 272.632C399.842 255.598 406.442 238.477 412.928 225.631C416.17 219.209 419.414 213.793 422.683 209.97C425.923 206.179 429.358 203.754 433 203.754C445.509 203.754 453.449 199.849 462.599 195.838C471.783 191.812 482.054 187.754 499 187.754C515.56 187.754 537.167 181.436 554.722 175.063C563.48 171.884 571.195 168.705 576.721 166.32C579.483 165.128 581.698 164.134 583.221 163.439C583.982 163.092 584.57 162.819 584.968 162.634C585.167 162.541 585.318 162.471 585.419 162.423C585.469 162.399 585.507 162.381 585.532 162.369C585.545 162.363 585.554 162.358 585.561 162.355C585.563 162.354 585.566 162.353 585.567 162.353L585.569 162.352L587 161.67V571.754Z" fill="url(#paint0_linear_5_2365)" stroke="url(#paint1_linear_5_2365)" stroke-width="2"/>
<line x1="428" y1="211.254" x2="428" y2="495.254" stroke="url(#paint2_linear_5_2365)" stroke-width="4"/>
<g filter="url(#filter0_di_5_2365)">
<circle cx="427" cy="208.254" r="11" fill="white"/>
<circle cx="427" cy="208.254" r="10" stroke="white" stroke-width="2"/>
</g>
<path d="M176.685 105.636H358.883C375.478 105.636 388.932 119.089 388.932 135.685V203.277C388.932 219.873 375.478 233.326 358.883 233.326H176.685C160.089 233.326 146.636 219.873 146.636 203.277V135.685C146.636 119.089 160.089 105.636 176.685 105.636Z" fill="#786047" fill-opacity="0.2"/>
<path d="M176.685 105.636H358.883C375.478 105.636 388.932 119.089 388.932 135.685V203.277C388.932 219.873 375.478 233.326 358.883 233.326H176.685C160.089 233.326 146.636 219.873 146.636 203.277V135.685C146.636 119.089 160.089 105.636 176.685 105.636Z" stroke="white" stroke-width="1.27134"/>
<path d="M245.862 140.496H219.678V152.078C220.797 150.847 222.364 149.84 224.378 149.057C226.392 148.273 228.574 147.882 230.924 147.882C235.12 147.882 238.589 148.833 241.331 150.735C244.128 152.637 246.17 155.099 247.457 158.12C248.744 161.142 249.387 164.415 249.387 167.939C249.387 174.486 247.541 179.689 243.848 183.549C240.156 187.354 234.952 189.256 228.238 189.256C223.762 189.256 219.874 188.501 216.573 186.99C213.272 185.424 210.726 183.27 208.936 180.528C207.146 177.787 206.166 174.625 205.999 171.045H220.014C220.35 172.779 221.161 174.234 222.448 175.409C223.734 176.528 225.497 177.087 227.735 177.087C230.364 177.087 232.323 176.248 233.61 174.569C234.896 172.891 235.54 170.653 235.54 167.856C235.54 165.114 234.868 163.016 233.526 161.561C232.183 160.107 230.225 159.379 227.651 159.379C225.749 159.379 224.182 159.855 222.951 160.806C221.72 161.701 220.909 162.904 220.517 164.415H206.67V127.908H245.862V140.496ZM257.309 157.785C257.309 148.161 259.155 140.58 262.848 135.041C266.596 129.502 272.611 126.733 280.891 126.733C289.172 126.733 295.158 129.502 298.851 135.041C302.6 140.58 304.474 148.161 304.474 157.785C304.474 167.52 302.6 175.157 298.851 180.696C295.158 186.235 289.172 189.004 280.891 189.004C272.611 189.004 266.596 186.235 262.848 180.696C259.155 175.157 257.309 167.52 257.309 157.785ZM290.375 157.785C290.375 152.134 289.759 147.798 288.528 144.776C287.298 141.699 284.752 140.161 280.891 140.161C277.031 140.161 274.485 141.699 273.254 144.776C272.023 147.798 271.408 152.134 271.408 157.785C271.408 161.589 271.632 164.75 272.079 167.268C272.527 169.73 273.422 171.744 274.765 173.311C276.164 174.821 278.206 175.577 280.891 175.577C283.577 175.577 285.591 174.821 286.934 173.311C288.333 171.744 289.256 169.73 289.703 167.268C290.151 164.75 290.375 161.589 290.375 157.785ZM341.178 189.256L332.198 176.248L324.645 189.256H309.119L324.561 165.338L308.699 142.427H324.812L333.792 155.351L341.345 142.427H356.871L341.178 166.009L357.291 189.256H341.178Z" fill="white"/>
<path d="M181.917 216.836C181.423 216.836 180.981 216.745 180.591 216.563C180.209 216.381 179.906 216.116 179.681 215.77C179.464 215.423 179.356 214.994 179.356 214.483V214.028H180.63V214.405C180.63 214.881 180.76 215.228 181.02 215.445C181.288 215.661 181.618 215.77 182.008 215.77C182.389 215.77 182.714 215.661 182.983 215.445C183.251 215.219 183.386 214.873 183.386 214.405V207.788H184.751V214.483C184.751 215.003 184.629 215.436 184.387 215.783C184.153 216.129 183.836 216.394 183.438 216.576C183.039 216.749 182.588 216.836 182.086 216.836H181.917ZM188.62 216.836C187.909 216.836 187.337 216.636 186.904 216.238C186.479 215.839 186.267 215.237 186.267 214.431V210.063H187.58V214.184C187.58 214.738 187.705 215.15 187.957 215.419C188.217 215.687 188.576 215.822 189.036 215.822C189.339 215.822 189.608 215.748 189.842 215.601C190.084 215.445 190.271 215.237 190.401 214.977C190.539 214.717 190.609 214.426 190.609 214.106V210.063H191.909V215.51C191.909 215.648 191.939 215.748 192 215.809C192.06 215.869 192.151 215.9 192.273 215.9C192.359 215.9 192.446 215.891 192.533 215.874C192.619 215.856 192.71 215.813 192.806 215.744V216.589C192.693 216.667 192.55 216.727 192.377 216.771C192.212 216.814 192.043 216.836 191.87 216.836C191.558 216.836 191.319 216.792 191.155 216.706C190.999 216.61 190.89 216.48 190.83 216.316C190.778 216.151 190.743 215.965 190.726 215.757C190.596 215.991 190.431 216.19 190.232 216.355C190.032 216.511 189.798 216.628 189.53 216.706C189.261 216.792 188.958 216.836 188.62 216.836ZM193.555 216.706V210.063H194.608L194.738 211.012C194.937 210.639 195.219 210.366 195.583 210.193C195.947 210.019 196.35 209.933 196.792 209.933C197.52 209.933 198.1 210.136 198.534 210.544C198.967 210.951 199.184 211.553 199.184 212.351V216.706H197.884V212.728C197.884 212.104 197.754 211.649 197.494 211.363C197.242 211.077 196.887 210.934 196.428 210.934C196.107 210.934 195.83 211.016 195.596 211.181C195.362 211.337 195.18 211.558 195.05 211.844C194.92 212.121 194.855 212.442 194.855 212.806V216.706H193.555ZM209.027 216.706C209.027 215.926 209.123 215.176 209.313 214.457C209.504 213.729 209.755 213.04 210.067 212.39C210.388 211.731 210.735 211.12 211.107 210.557C211.489 209.985 211.866 209.465 212.238 208.997H207.597V207.788H213.889V208.438C213.369 209.079 212.893 209.729 212.459 210.388C212.026 211.046 211.658 211.718 211.354 212.403C211.06 213.087 210.839 213.789 210.691 214.509C210.544 215.219 210.492 215.952 210.535 216.706H209.027ZM216.978 218.591V218.422C217.212 218.153 217.39 217.876 217.511 217.59C217.633 217.304 217.693 217.009 217.693 216.706H217.03V214.938H218.512V216.459C218.512 216.84 218.447 217.213 218.317 217.577C218.196 217.949 218.01 218.287 217.758 218.591H216.978ZM221.796 216.706V216.316C221.796 215.778 221.896 215.319 222.095 214.938C222.295 214.548 222.607 214.21 223.031 213.924L225.644 212.208C225.922 212.017 226.16 211.774 226.359 211.48C226.567 211.176 226.671 210.821 226.671 210.414C226.671 209.911 226.524 209.508 226.229 209.205C225.935 208.901 225.501 208.75 224.929 208.75C224.583 208.75 224.271 208.828 223.993 208.984C223.725 209.131 223.508 209.339 223.343 209.608C223.187 209.868 223.109 210.167 223.109 210.505C223.109 210.574 223.109 210.639 223.109 210.7C223.109 210.752 223.114 210.804 223.122 210.856H221.887C221.879 210.795 221.874 210.752 221.874 210.726C221.874 210.691 221.874 210.656 221.874 210.622C221.874 210.041 222.004 209.53 222.264 209.088C222.524 208.637 222.884 208.286 223.343 208.035C223.811 207.783 224.344 207.658 224.942 207.658H225.085C225.683 207.658 226.199 207.775 226.632 208.009C227.074 208.234 227.412 208.55 227.646 208.958C227.889 209.365 228.01 209.837 228.01 210.375C228.01 210.825 227.932 211.22 227.776 211.558C227.629 211.887 227.425 212.177 227.165 212.429C226.914 212.68 226.628 212.914 226.307 213.131L224.11 214.561C223.92 214.691 223.772 214.816 223.668 214.938C223.564 215.05 223.491 215.159 223.447 215.263C223.404 215.367 223.374 215.466 223.356 215.562H228.049V216.706H221.796ZM231.931 216.836C231.376 216.836 230.874 216.71 230.423 216.459C229.972 216.199 229.617 215.843 229.357 215.393C229.097 214.942 228.967 214.422 228.967 213.833V210.661C228.967 210.071 229.097 209.551 229.357 209.101C229.626 208.65 229.985 208.299 230.436 208.048C230.895 207.788 231.407 207.658 231.97 207.658H232.204C232.776 207.658 233.283 207.788 233.725 208.048C234.167 208.299 234.514 208.65 234.765 209.101C235.025 209.551 235.155 210.071 235.155 210.661V213.833C235.155 214.422 235.025 214.942 234.765 215.393C234.505 215.843 234.15 216.199 233.699 216.459C233.248 216.71 232.741 216.836 232.178 216.836H231.931ZM232.061 215.796C232.399 215.796 232.702 215.718 232.971 215.562C233.24 215.397 233.448 215.18 233.595 214.912C233.751 214.643 233.829 214.34 233.829 214.002V210.492C233.829 210.145 233.751 209.837 233.595 209.569C233.448 209.3 233.24 209.088 232.971 208.932C232.702 208.776 232.399 208.698 232.061 208.698C231.723 208.698 231.42 208.776 231.151 208.932C230.891 209.088 230.683 209.3 230.527 209.569C230.371 209.837 230.293 210.145 230.293 210.492V214.002C230.293 214.34 230.371 214.643 230.527 214.912C230.683 215.18 230.891 215.397 231.151 215.562C231.42 215.718 231.723 215.796 232.061 215.796ZM236.086 216.706V216.316C236.086 215.778 236.186 215.319 236.385 214.938C236.584 214.548 236.896 214.21 237.321 213.924L239.934 212.208C240.211 212.017 240.45 211.774 240.649 211.48C240.857 211.176 240.961 210.821 240.961 210.414C240.961 209.911 240.814 209.508 240.519 209.205C240.224 208.901 239.791 208.75 239.219 208.75C238.872 208.75 238.56 208.828 238.283 208.984C238.014 209.131 237.798 209.339 237.633 209.608C237.477 209.868 237.399 210.167 237.399 210.505C237.399 210.574 237.399 210.639 237.399 210.7C237.399 210.752 237.403 210.804 237.412 210.856H236.177C236.168 210.795 236.164 210.752 236.164 210.726C236.164 210.691 236.164 210.656 236.164 210.622C236.164 210.041 236.294 209.53 236.554 209.088C236.814 208.637 237.174 208.286 237.633 208.035C238.101 207.783 238.634 207.658 239.232 207.658H239.375C239.973 207.658 240.489 207.775 240.922 208.009C241.364 208.234 241.702 208.55 241.936 208.958C242.179 209.365 242.3 209.837 242.3 210.375C242.3 210.825 242.222 211.22 242.066 211.558C241.919 211.887 241.715 212.177 241.455 212.429C241.204 212.68 240.918 212.914 240.597 213.131L238.4 214.561C238.209 214.691 238.062 214.816 237.958 214.938C237.854 215.05 237.78 215.159 237.737 215.263C237.694 215.367 237.663 215.466 237.646 215.562H242.339V216.706H236.086ZM246.143 216.836C245.528 216.836 244.986 216.727 244.518 216.511C244.059 216.294 243.699 215.995 243.439 215.614C243.179 215.232 243.049 214.799 243.049 214.314V214.08H244.271C244.271 214.678 244.444 215.111 244.791 215.38C245.138 215.648 245.606 215.783 246.195 215.783C246.767 215.783 247.235 215.653 247.599 215.393C247.963 215.124 248.145 214.725 248.145 214.197C248.145 213.833 248.058 213.534 247.885 213.3C247.72 213.066 247.499 212.897 247.222 212.793C246.945 212.68 246.641 212.624 246.312 212.624H245.194V211.675H246.195C246.516 211.675 246.806 211.618 247.066 211.506C247.335 211.393 247.547 211.228 247.703 211.012C247.868 210.786 247.95 210.509 247.95 210.18C247.95 209.85 247.872 209.577 247.716 209.361C247.56 209.144 247.348 208.984 247.079 208.88C246.819 208.776 246.524 208.724 246.195 208.724C245.649 208.724 245.22 208.858 244.908 209.127C244.605 209.395 244.453 209.785 244.453 210.297H243.27V210.076C243.27 209.582 243.396 209.157 243.647 208.802C243.907 208.438 244.258 208.156 244.7 207.957C245.142 207.757 245.64 207.658 246.195 207.658H246.364C246.91 207.658 247.4 207.757 247.833 207.957C248.266 208.147 248.609 208.425 248.86 208.789C249.12 209.144 249.25 209.569 249.25 210.063C249.25 210.409 249.189 210.708 249.068 210.96C248.947 211.211 248.782 211.423 248.574 211.597C248.366 211.77 248.128 211.922 247.859 212.052V212.117C248.327 212.264 248.708 212.52 249.003 212.884C249.306 213.248 249.458 213.724 249.458 214.314C249.458 214.816 249.324 215.258 249.055 215.64C248.795 216.012 248.431 216.307 247.963 216.524C247.495 216.732 246.962 216.836 246.364 216.836H246.143ZM252.703 218.591V218.422C252.937 218.153 253.115 217.876 253.236 217.59C253.357 217.304 253.418 217.009 253.418 216.706H252.755V214.938H254.237V216.459C254.237 216.84 254.172 217.213 254.042 217.577C253.921 217.949 253.734 218.287 253.483 218.591H252.703ZM264.978 216.706V215.627H267.331V209.296H264.978V208.503C265.264 208.477 265.58 208.429 265.927 208.36C266.273 208.282 266.637 208.186 267.019 208.074C267.409 207.952 267.79 207.814 268.163 207.658H268.644V215.627H270.971V216.706H264.978ZM271.811 216.706V216.316C271.811 215.778 271.91 215.319 272.11 214.938C272.309 214.548 272.621 214.21 273.046 213.924L275.659 212.208C275.936 212.017 276.174 211.774 276.374 211.48C276.582 211.176 276.686 210.821 276.686 210.414C276.686 209.911 276.538 209.508 276.244 209.205C275.949 208.901 275.516 208.75 274.944 208.75C274.597 208.75 274.285 208.828 274.008 208.984C273.739 209.131 273.522 209.339 273.358 209.608C273.202 209.868 273.124 210.167 273.124 210.505C273.124 210.574 273.124 210.639 273.124 210.7C273.124 210.752 273.128 210.804 273.137 210.856H271.902C271.893 210.795 271.889 210.752 271.889 210.726C271.889 210.691 271.889 210.656 271.889 210.622C271.889 210.041 272.019 209.53 272.279 209.088C272.539 208.637 272.898 208.286 273.358 208.035C273.826 207.783 274.359 207.658 274.957 207.658H275.1C275.698 207.658 276.213 207.775 276.647 208.009C277.089 208.234 277.427 208.55 277.661 208.958C277.903 209.365 278.025 209.837 278.025 210.375C278.025 210.825 277.947 211.22 277.791 211.558C277.643 211.887 277.44 212.177 277.18 212.429C276.928 212.68 276.642 212.914 276.322 213.131L274.125 214.561C273.934 214.691 273.787 214.816 273.683 214.938C273.579 215.05 273.505 215.159 273.462 215.263C273.418 215.367 273.388 215.466 273.371 215.562H278.064V216.706H271.811ZM281.231 216.706V215.094H282.921V216.706H281.231ZM281.231 211.662V210.05H282.921V211.662H281.231ZM289.247 216.836C288.614 216.836 288.064 216.71 287.596 216.459C287.128 216.199 286.768 215.852 286.517 215.419C286.265 214.977 286.14 214.47 286.14 213.898H287.375C287.375 214.244 287.448 214.561 287.596 214.847C287.752 215.124 287.964 215.345 288.233 215.51C288.51 215.674 288.835 215.757 289.208 215.757C289.598 215.757 289.927 215.67 290.196 215.497C290.473 215.323 290.681 215.089 290.82 214.795C290.967 214.5 291.041 214.184 291.041 213.846C291.041 213.482 290.958 213.157 290.794 212.871C290.638 212.576 290.421 212.346 290.144 212.182C289.866 212.017 289.554 211.935 289.208 211.935C288.87 211.935 288.549 212.021 288.246 212.195C287.951 212.368 287.721 212.589 287.557 212.858L286.452 212.702L286.829 207.788H291.873V208.997H287.908L287.713 211.597C287.938 211.389 288.207 211.22 288.519 211.09C288.831 210.96 289.169 210.895 289.533 210.895C290.096 210.895 290.586 211.02 291.002 211.272C291.426 211.514 291.756 211.861 291.99 212.312C292.232 212.754 292.354 213.274 292.354 213.872C292.354 214.435 292.224 214.938 291.964 215.38C291.704 215.822 291.34 216.177 290.872 216.446C290.412 216.706 289.871 216.836 289.247 216.836ZM296.157 216.836C295.542 216.836 295 216.727 294.532 216.511C294.073 216.294 293.713 215.995 293.453 215.614C293.193 215.232 293.063 214.799 293.063 214.314V214.08H294.285C294.285 214.678 294.459 215.111 294.805 215.38C295.152 215.648 295.62 215.783 296.209 215.783C296.781 215.783 297.249 215.653 297.613 215.393C297.977 215.124 298.159 214.725 298.159 214.197C298.159 213.833 298.073 213.534 297.899 213.3C297.735 213.066 297.514 212.897 297.236 212.793C296.959 212.68 296.656 212.624 296.326 212.624H295.208V211.675H296.209C296.53 211.675 296.82 211.618 297.08 211.506C297.349 211.393 297.561 211.228 297.717 211.012C297.882 210.786 297.964 210.509 297.964 210.18C297.964 209.85 297.886 209.577 297.73 209.361C297.574 209.144 297.362 208.984 297.093 208.88C296.833 208.776 296.539 208.724 296.209 208.724C295.663 208.724 295.234 208.858 294.922 209.127C294.619 209.395 294.467 209.785 294.467 210.297H293.284V210.076C293.284 209.582 293.41 209.157 293.661 208.802C293.921 208.438 294.272 208.156 294.714 207.957C295.156 207.757 295.655 207.658 296.209 207.658H296.378C296.924 207.658 297.414 207.757 297.847 207.957C298.281 208.147 298.623 208.425 298.874 208.789C299.134 209.144 299.264 209.569 299.264 210.063C299.264 210.409 299.204 210.708 299.082 210.96C298.961 211.211 298.796 211.423 298.588 211.597C298.38 211.77 298.142 211.922 297.873 212.052V212.117C298.341 212.264 298.723 212.52 299.017 212.884C299.321 213.248 299.472 213.724 299.472 214.314C299.472 214.816 299.338 215.258 299.069 215.64C298.809 216.012 298.445 216.307 297.977 216.524C297.509 216.732 296.976 216.836 296.378 216.836H296.157ZM302.665 216.706V215.094H304.355V216.706H302.665ZM302.665 211.662V210.05H304.355V211.662H302.665ZM310.447 216.836C309.832 216.836 309.29 216.727 308.822 216.511C308.363 216.294 308.003 215.995 307.743 215.614C307.483 215.232 307.353 214.799 307.353 214.314V214.08H308.575C308.575 214.678 308.749 215.111 309.095 215.38C309.442 215.648 309.91 215.783 310.499 215.783C311.071 215.783 311.539 215.653 311.903 215.393C312.267 215.124 312.449 214.725 312.449 214.197C312.449 213.833 312.363 213.534 312.189 213.3C312.025 213.066 311.804 212.897 311.526 212.793C311.249 212.68 310.946 212.624 310.616 212.624H309.498V211.675H310.499C310.82 211.675 311.11 211.618 311.37 211.506C311.639 211.393 311.851 211.228 312.007 211.012C312.172 210.786 312.254 210.509 312.254 210.18C312.254 209.85 312.176 209.577 312.02 209.361C311.864 209.144 311.652 208.984 311.383 208.88C311.123 208.776 310.829 208.724 310.499 208.724C309.953 208.724 309.524 208.858 309.212 209.127C308.909 209.395 308.757 209.785 308.757 210.297H307.574V210.076C307.574 209.582 307.7 209.157 307.951 208.802C308.211 208.438 308.562 208.156 309.004 207.957C309.446 207.757 309.945 207.658 310.499 207.658H310.668C311.214 207.658 311.704 207.757 312.137 207.957C312.571 208.147 312.913 208.425 313.164 208.789C313.424 209.144 313.554 209.569 313.554 210.063C313.554 210.409 313.494 210.708 313.372 210.96C313.251 211.211 313.086 211.423 312.878 211.597C312.67 211.77 312.432 211.922 312.163 212.052V212.117C312.631 212.264 313.013 212.52 313.307 212.884C313.611 213.248 313.762 213.724 313.762 214.314C313.762 214.816 313.628 215.258 313.359 215.64C313.099 216.012 312.735 216.307 312.267 216.524C311.799 216.732 311.266 216.836 310.668 216.836H310.447ZM314.992 216.706V215.627H317.345V209.296H314.992V208.503C315.278 208.477 315.595 208.429 315.941 208.36C316.288 208.282 316.652 208.186 317.033 208.074C317.423 207.952 317.805 207.814 318.177 207.658H318.658V215.627H320.985V216.706H314.992ZM331.193 216.836C330.508 216.836 329.98 216.675 329.607 216.355C329.243 216.034 329.061 215.562 329.061 214.938C329.061 214.418 329.2 214.002 329.477 213.69C329.763 213.369 330.218 213.135 330.842 212.988C331.475 212.84 332.307 212.767 333.338 212.767V212.039C333.338 211.623 333.23 211.319 333.013 211.129C332.805 210.938 332.45 210.843 331.947 210.843C331.488 210.843 331.132 210.938 330.881 211.129C330.63 211.319 330.504 211.588 330.504 211.935V212.091H329.308C329.291 211.952 329.278 211.861 329.269 211.818C329.269 211.774 329.269 211.757 329.269 211.766C329.269 211.774 329.269 211.787 329.269 211.805C329.278 211.822 329.282 211.822 329.282 211.805C329.282 211.233 329.525 210.778 330.01 210.44C330.504 210.102 331.163 209.933 331.986 209.933C332.861 209.933 333.52 210.102 333.962 210.44C334.413 210.778 334.638 211.293 334.638 211.987V215.51C334.638 215.648 334.673 215.748 334.742 215.809C334.811 215.869 334.902 215.9 335.015 215.9C335.214 215.9 335.388 215.848 335.535 215.744V216.589C335.422 216.667 335.284 216.727 335.119 216.771C334.954 216.814 334.781 216.836 334.599 216.836C334.339 216.836 334.127 216.801 333.962 216.732C333.797 216.671 333.676 216.563 333.598 216.407C333.52 216.251 333.468 216.034 333.442 215.757C333.295 216.025 333.104 216.242 332.87 216.407C332.636 216.563 332.376 216.671 332.09 216.732C331.804 216.801 331.505 216.836 331.193 216.836ZM331.596 215.913C331.995 215.913 332.32 215.826 332.571 215.653C332.831 215.479 333.022 215.245 333.143 214.951C333.273 214.656 333.338 214.327 333.338 213.963V213.56C332.593 213.56 331.999 213.603 331.557 213.69C331.124 213.768 330.812 213.902 330.621 214.093C330.439 214.275 330.348 214.535 330.348 214.873C330.348 215.219 330.448 215.479 330.647 215.653C330.855 215.826 331.171 215.913 331.596 215.913ZM338.39 216.706V215.094H340.08V216.706H338.39ZM343.169 216.706V210.063H343.936L344.066 210.804C344.196 210.518 344.378 210.301 344.612 210.154C344.855 210.006 345.115 209.933 345.392 209.933C345.687 209.933 345.947 210.011 346.172 210.167C346.406 210.323 346.579 210.552 346.692 210.856C346.848 210.552 347.039 210.323 347.264 210.167C347.498 210.011 347.784 209.933 348.122 209.933C348.599 209.933 348.963 210.084 349.214 210.388C349.474 210.691 349.604 211.124 349.604 211.688V216.706H348.486V211.922C348.486 211.272 348.243 210.947 347.758 210.947C347.524 210.947 347.329 211.038 347.173 211.22C347.017 211.402 346.939 211.636 346.939 211.922V216.706H345.834V211.922C345.834 211.272 345.583 210.947 345.08 210.947C344.846 210.947 344.651 211.038 344.495 211.22C344.348 211.402 344.274 211.636 344.274 211.922V216.706H343.169ZM352.68 216.706V215.094H354.37V216.706H352.68Z" fill="#999999"/>
<defs>
<filter id="filter0_di_5_2365" x="219.7" y="0.953903" width="414.6" height="414.6" filterUnits="userSpaceOnUse" color-interpolation-filters="sRGB">
<feFlood flood-opacity="0" result="BackgroundImageFix"/>
<feColorMatrix in="SourceAlpha" type="matrix" values="0 0 0 0 0 0 0 0 0 0 0 0 0 0 0 0 0 0 127 0" result="hardAlpha"/>
<feMorphology radius="80" operator="dilate" in="SourceAlpha" result="effect1_dropShadow_5_2365"/>
<feOffset/>
<feGaussianBlur stdDeviation="58.15"/>
<feComposite in2="hardAlpha" operator="out"/>
<feColorMatrix type="matrix" values="0 0 0 0 1 0 0 0 0 0.416667 0 0 0 0 0 0 0 0 1 0"/>
<feBlend mode="plus-lighter" in2="BackgroundImageFix" result="effect1_dropShadow_5_2365"/>
<feBlend mode="normal" in="SourceGraphic" in2="effect1_dropShadow_5_2365" result="shape"/>
<feColorMatrix in="SourceAlpha" type="matrix" values="0 0 0 0 0 0 0 0 0 0 0 0 0 0 0 0 0 0 127 0" result="hardAlpha"/>
<feMorphology radius="5" operator="erode" in="SourceAlpha" result="effect2_innerShadow_5_2365"/>
<feOffset dx="1" dy="3"/>
<feGaussianBlur stdDeviation="18.3"/>
<feComposite in2="hardAlpha" operator="arithmetic" k2="-1" k3="1"/>
<feColorMatrix type="matrix" values="0 0 0 0 0.956863 0 0 0 0 0.564706 0 0 0 0 0.145098 0 0 0 1 0"/>
<feBlend mode="plus-lighter" in2="shape" result="effect2_innerShadow_5_2365"/>
</filter>
<linearGradient id="paint0_linear_5_2365" x1="197.501" y1="231.754" x2="564.001" y2="598.254" gradientUnits="userSpaceOnUse">
<stop stop-color="#050505"/>
<stop offset="0.841" stop-opacity="0"/>
</linearGradient>
<linearGradient id="paint1_linear_5_2365" x1="374.001" y1="334.254" x2="449.501" y2="402.754" gradientUnits="userSpaceOnUse">
<stop stop-color="#FFFFFE"/>
<stop offset="1" stop-color="#994D00" stop-opacity="0"/>
</linearGradient>
<linearGradient id="paint2_linear_5_2365" x1="425.412" y1="211.254" x2="423.137" y2="211.32" gradientUnits="userSpaceOnUse">
<stop stop-color="white"/>
<stop offset="1" stop-opacity="0"/>
</linearGradient>
</defs>
</svg>
