<svg width="407" height="173" viewBox="0 0 407 173" fill="none" xmlns="http://www.w3.org/2000/svg">
<path d="M125.168 71.6313C71.3594 71.6313 87.8441 20 32.9987 20" stroke="url(#paint0_linear_0_10760)" stroke-width="5.59858"/>
<path d="M279 85C208.815 85 260.537 85 189 85" stroke="url(#paint1_linear_0_10760)" stroke-width="5.59858"/>
<g filter="url(#filter0_di_0_10760)">
<path d="M16.0819 4.37674C17.5575 3.52481 19.3755 3.52481 20.8511 4.37674L31.0764 10.2803C32.552 11.1323 33.461 12.7067 33.461 14.4105V26.2177C33.461 27.9216 32.552 29.496 31.0764 30.3479L20.8511 36.2515C19.3755 37.1035 17.5575 37.1035 16.0819 36.2515L5.85658 30.3479C4.38099 29.496 3.472 27.9216 3.472 26.2177V14.4105C3.472 12.7067 4.381 11.1323 5.85658 10.2803L16.0819 4.37674Z" fill="url(#paint2_linear_0_10760)"/>
</g>
<g filter="url(#filter1_di_0_10760)">
<path d="M25.4771 25.8735C25.4771 26.0165 25.4203 26.1537 25.3192 26.2549C25.218 26.356 25.0808 26.4129 24.9378 26.4129H11.9925C11.8495 26.4129 11.7123 26.356 11.6111 26.2549C11.51 26.1537 11.4531 26.0165 11.4531 25.8735V15.0858C11.4531 14.9427 11.51 14.8055 11.6111 14.7044C11.7123 14.6032 11.8495 14.5464 11.9925 14.5464C12.1356 14.5464 12.2728 14.6032 12.3739 14.7044C12.4751 14.8055 12.5319 14.9427 12.5319 15.0858V22.414L15.926 19.0192C15.9761 18.9691 16.0356 18.9293 16.101 18.9022C16.1665 18.875 16.2367 18.861 16.3076 18.861C16.3785 18.861 16.4487 18.875 16.5141 18.9022C16.5796 18.9293 16.6391 18.9691 16.6892 19.0192L18.4651 20.7958L22.0177 17.2433H20.6227C20.4796 17.2433 20.3424 17.1865 20.2413 17.0853C20.1401 16.9842 20.0833 16.847 20.0833 16.7039C20.0833 16.5609 20.1401 16.4237 20.2413 16.3225C20.3424 16.2214 20.4796 16.1645 20.6227 16.1645H23.3196C23.4627 16.1645 23.5998 16.2214 23.701 16.3225C23.8022 16.4237 23.859 16.5609 23.859 16.7039V19.4009C23.859 19.5439 23.8022 19.6811 23.701 19.7823C23.5998 19.8834 23.4627 19.9402 23.3196 19.9402C23.1765 19.9402 23.0394 19.8834 22.9382 19.7823C22.837 19.6811 22.7802 19.5439 22.7802 19.4009V18.0059L18.8467 21.94C18.7967 21.9902 18.7372 22.0299 18.6717 22.0571C18.6062 22.0842 18.536 22.0982 18.4651 22.0982C18.3942 22.0982 18.3241 22.0842 18.2586 22.0571C18.1931 22.0299 18.1336 21.9902 18.0835 21.94L16.3076 20.1634L12.5319 23.9391V25.3341H24.9378C25.0808 25.3341 25.218 25.3909 25.3192 25.4921C25.4203 25.5932 25.4771 25.7304 25.4771 25.8735Z" fill="white"/>
</g>
<path d="M125.039 82.3731C71.2305 82.3731 92.2001 64.374 33.726 64.374" stroke="white" stroke-width="5.59858"/>
<path d="M125.039 82.3731C71.2305 82.3731 92.2001 64.374 33.726 64.374" stroke="url(#paint3_linear_0_10760)" stroke-width="5.59858"/>
<path d="M124.652 101.802C70.8438 101.802 99.355 154.366 33.0015 154.366" stroke="white" stroke-width="5.59858"/>
<path d="M124.652 101.802C70.8438 101.802 99.355 154.366 33.0015 154.366" stroke="url(#paint4_linear_0_10760)" stroke-width="5.59858"/>
<path d="M124.975 92.2422C71.166 92.2422 87.2232 110.925 33.4146 110.925" stroke="white" stroke-width="5.59858"/>
<path d="M124.975 92.2422C71.166 92.2422 87.2232 110.925 33.4146 110.925" stroke="url(#paint5_linear_0_10760)" stroke-width="5.59858"/>
<g filter="url(#filter2_di_0_10760)">
<path d="M16.0819 49.3728C17.5575 48.5209 19.3755 48.5209 20.8511 49.3728L31.0764 55.2764C32.552 56.1284 33.461 57.7028 33.461 59.4066V71.2138C33.461 72.9177 32.552 74.4921 31.0764 75.344L20.8511 81.2476C19.3755 82.0996 17.5575 82.0996 16.0819 81.2476L5.85658 75.344C4.38099 74.4921 3.472 72.9177 3.472 71.2138V59.4066C3.472 57.7028 4.381 56.1284 5.85658 55.2764L16.0819 49.3728Z" fill="url(#paint6_linear_0_10760)"/>
</g>
<path d="M20.6061 62.7721H16.4877C16.3057 62.7721 16.1311 62.8444 16.0024 62.9731C15.8737 63.1018 15.8014 63.2764 15.8014 63.4584V67.5768C15.8014 67.7588 15.8737 67.9334 16.0024 68.0621C16.1311 68.1908 16.3057 68.2632 16.4877 68.2632H20.6061C20.7881 68.2632 20.9627 68.1908 21.0914 68.0621C21.2201 67.9334 21.2924 67.7588 21.2924 67.5768V63.4584C21.2924 63.2764 21.2201 63.1018 21.0914 62.9731C20.9627 62.8444 20.7881 62.7721 20.6061 62.7721ZM19.9197 66.8904H17.1741V64.1448H19.9197V66.8904ZM27.4699 66.8904H26.0972V64.1448H27.4699C27.652 64.1448 27.8265 64.0725 27.9553 63.9438C28.084 63.8151 28.1563 63.6405 28.1563 63.4584C28.1563 63.2764 28.084 63.1018 27.9553 62.9731C27.8265 62.8444 27.652 62.7721 27.4699 62.7721H26.0972V59.3401C26.0972 58.9761 25.9525 58.6269 25.6951 58.3694C25.4376 58.112 25.0885 57.9674 24.7244 57.9674H21.2924V56.5946C21.2924 56.4125 21.2201 56.238 21.0914 56.1092C20.9627 55.9805 20.7881 55.9082 20.6061 55.9082C20.424 55.9082 20.2494 55.9805 20.1207 56.1092C19.992 56.238 19.9197 56.4125 19.9197 56.5946V57.9674H17.1741V56.5946C17.1741 56.4125 17.1018 56.238 16.9731 56.1092C16.8444 55.9805 16.6698 55.9082 16.4877 55.9082C16.3057 55.9082 16.1311 55.9805 16.0024 56.1092C15.8737 56.238 15.8014 56.4125 15.8014 56.5946V57.9674H12.3694C12.0053 57.9674 11.6562 58.112 11.3987 58.3694C11.1413 58.6269 10.9967 58.9761 10.9967 59.3401V62.7721H9.62389C9.44185 62.7721 9.26726 62.8444 9.13854 62.9731C9.00982 63.1018 8.9375 63.2764 8.9375 63.4584C8.9375 63.6405 9.00982 63.8151 9.13854 63.9438C9.26726 64.0725 9.44185 64.1448 9.62389 64.1448H10.9967V66.8904H9.62389C9.44185 66.8904 9.26726 66.9627 9.13854 67.0914C9.00982 67.2201 8.9375 67.3947 8.9375 67.5768C8.9375 67.7588 9.00982 67.9334 9.13854 68.0621C9.26726 68.1908 9.44185 68.2632 9.62389 68.2632H10.9967V71.6951C10.9967 72.0592 11.1413 72.4083 11.3987 72.6658C11.6562 72.9232 12.0053 73.0679 12.3694 73.0679H15.8014V74.4406C15.8014 74.6227 15.8737 74.7973 16.0024 74.926C16.1311 75.0547 16.3057 75.127 16.4877 75.127C16.6698 75.127 16.8444 75.0547 16.9731 74.926C17.1018 74.7973 17.1741 74.6227 17.1741 74.4406V73.0679H19.9197V74.4406C19.9197 74.6227 19.992 74.7973 20.1207 74.926C20.2494 75.0547 20.424 75.127 20.6061 75.127C20.7881 75.127 20.9627 75.0547 21.0914 74.926C21.2201 74.7973 21.2924 74.6227 21.2924 74.4406V73.0679H24.7244C25.0885 73.0679 25.4376 72.9232 25.6951 72.6658C25.9525 72.4083 26.0972 72.0592 26.0972 71.6951V68.2632H27.4699C27.652 68.2632 27.8265 68.1908 27.9553 68.0621C28.084 67.9334 28.1563 67.7588 28.1563 67.5768C28.1563 67.3947 28.084 67.2201 27.9553 67.0914C27.8265 66.9627 27.652 66.8904 27.4699 66.8904ZM24.7244 71.6951H12.3694V59.3401H24.7244V67.5656C24.7244 67.5656 24.7244 67.5733 24.7244 67.5768C24.7244 67.5802 24.7244 67.5845 24.7244 67.5879V71.6951Z" fill="white"/>
<g filter="url(#filter3_di_0_10760)">
<path d="M16.2616 95.179C17.7372 94.3271 19.5552 94.3271 21.0307 95.179L31.2561 101.083C32.7317 101.935 33.6406 103.509 33.6406 105.213V117.02C33.6406 118.724 32.7316 120.298 31.2561 121.15L21.0307 127.054C19.5552 127.906 17.7372 127.906 16.2616 127.054L6.03627 121.15C4.56068 120.298 3.65169 118.724 3.65169 117.02V105.213C3.65169 103.509 4.56068 101.935 6.03627 101.083L16.2616 95.179Z" fill="url(#paint7_linear_0_10760)"/>
</g>
<path d="M26.0497 109.782H18.8176V107.982H19.4202C19.7399 107.982 20.0465 107.855 20.2726 107.63C20.4986 107.405 20.6256 107.1 20.6256 106.782V104.382C20.6256 104.063 20.4986 103.758 20.2726 103.533C20.0465 103.308 19.7399 103.182 19.4202 103.182H17.0095C16.6898 103.182 16.3832 103.308 16.1572 103.533C15.9311 103.758 15.8041 104.063 15.8041 104.382V106.782C15.8041 107.1 15.9311 107.405 16.1572 107.63C16.3832 107.855 16.6898 107.982 17.0095 107.982H17.6122V109.782H10.38C10.2202 109.782 10.0669 109.845 9.95386 109.957C9.84084 110.07 9.77734 110.223 9.77734 110.382C9.77734 110.541 9.84084 110.693 9.95386 110.806C10.0669 110.918 10.2202 110.982 10.38 110.982H12.7907V113.382H12.1881C11.8684 113.382 11.5618 113.508 11.3357 113.733C11.1097 113.958 10.9827 114.263 10.9827 114.582V116.982C10.9827 117.3 11.1097 117.605 11.3357 117.83C11.5618 118.055 11.8684 118.182 12.1881 118.182H14.5988C14.9185 118.182 15.2251 118.055 15.4511 117.83C15.6772 117.605 15.8041 117.3 15.8041 116.982V114.582C15.8041 114.263 15.6772 113.958 15.4511 113.733C15.2251 113.508 14.9185 113.382 14.5988 113.382H13.9961V110.982H22.4336V113.382H21.831C21.5113 113.382 21.2047 113.508 20.9786 113.733C20.7526 113.958 20.6256 114.263 20.6256 114.582V116.982C20.6256 117.3 20.7526 117.605 20.9786 117.83C21.2047 118.055 21.5113 118.182 21.831 118.182H24.2417C24.5614 118.182 24.8679 118.055 25.094 117.83C25.32 117.605 25.447 117.3 25.447 116.982V114.582C25.447 114.263 25.32 113.958 25.094 113.733C24.8679 113.508 24.5614 113.382 24.2417 113.382H23.639V110.982H26.0497C26.2096 110.982 26.3629 110.918 26.4759 110.806C26.5889 110.693 26.6524 110.541 26.6524 110.382C26.6524 110.223 26.5889 110.07 26.4759 109.957C26.3629 109.845 26.2096 109.782 26.0497 109.782ZM17.0095 104.382H19.4202V106.782H17.0095V104.382ZM14.5988 116.982H12.1881V114.582H14.5988V116.982ZM24.2417 116.982H21.831V114.582H24.2417V116.982Z" fill="white"/>
<g filter="url(#filter4_di_0_10760)">
<path d="M15.9296 137.332C17.4051 136.48 19.2231 136.48 20.6987 137.332L30.924 143.236C32.3996 144.088 33.3086 145.662 33.3086 147.366V159.173C33.3086 160.877 32.3996 162.452 30.924 163.304L20.6987 169.207C19.2231 170.059 17.4051 170.059 15.9296 169.207L5.70423 163.304C4.22865 162.452 3.31965 160.877 3.31965 159.173V147.366C3.31965 145.662 4.22865 144.088 5.70424 143.236L15.9296 137.332Z" fill="url(#paint8_linear_0_10760)"/>
</g>
<path d="M27.1304 160.788L23.0726 156.731C24.2487 155.319 24.8352 153.508 24.71 151.674C24.5848 149.841 23.7576 148.126 22.4005 146.887C21.0434 145.648 19.2609 144.98 17.4237 145.022C15.5865 145.064 13.8362 145.812 12.5368 147.111C11.2373 148.411 10.4889 150.161 10.4472 151.998C10.4054 153.836 11.0735 155.618 12.3126 156.975C13.5516 158.332 15.2662 159.16 17.0996 159.285C18.9329 159.41 20.744 158.823 22.156 157.647L26.213 161.705C26.2732 161.765 26.3447 161.813 26.4234 161.846C26.5021 161.878 26.5865 161.895 26.6717 161.895C26.7569 161.895 26.8412 161.878 26.9199 161.846C26.9986 161.813 27.0701 161.765 27.1304 161.705C27.1906 161.645 27.2384 161.573 27.271 161.495C27.3036 161.416 27.3204 161.332 27.3204 161.246C27.3204 161.161 27.3036 161.077 27.271 160.998C27.2384 160.919 27.1906 160.848 27.1304 160.788ZM11.7599 152.17C11.7599 151.016 12.1021 149.887 12.7433 148.928C13.3844 147.968 14.2958 147.22 15.362 146.779C16.4282 146.337 17.6014 146.222 18.7333 146.447C19.8652 146.672 20.9049 147.228 21.7209 148.044C22.537 148.86 23.0927 149.899 23.3179 151.031C23.543 152.163 23.4275 153.336 22.9858 154.403C22.5442 155.469 21.7963 156.38 20.8367 157.021C19.8771 157.662 18.749 158.005 17.5949 158.005C16.0479 158.003 14.5647 157.388 13.4708 156.294C12.3769 155.2 11.7616 153.717 11.7599 152.17Z" fill="white"/>
<g filter="url(#filter5_di_0_10760)">
<path d="M154.42 50.6087C155.895 49.7567 157.713 49.7567 159.189 50.6087L187.159 66.7573C188.635 67.6092 189.544 69.1837 189.544 70.8875L189.544 103.185C189.544 104.889 188.635 106.463 187.159 107.315L159.189 123.464C157.713 124.316 155.895 124.316 154.42 123.464L126.449 107.315C124.974 106.463 124.065 104.889 124.065 103.185L124.065 70.8875C124.065 69.1837 124.974 67.6092 126.449 66.7573L154.42 50.6087Z" fill="url(#paint9_linear_0_10760)"/>
</g>
<path d="M156.245 62.63C156.25 62.798 156.255 62.9661 156.259 63.1341C156.244 64.2456 156.227 65.3583 156.209 66.4721C156.18 68.518 156.151 70.5638 156.12 72.6097C156.108 73.5675 156.094 74.5259 156.08 75.4849C156.057 77.4285 156.033 79.3716 156.008 81.3142C156.007 81.4247 155.981 81.5338 155.931 81.6342C154.646 84.3103 153.364 86.9869 152.085 89.6639C152.022 89.777 151.929 89.8729 151.815 89.9422L144.096 95.3904L136.099 101.03C136.027 101.085 135.947 101.13 135.861 101.164C142.671 88.3269 149.465 75.4821 156.245 62.63Z" fill="white"/>
<path d="M156.761 62.6149C157.529 63.8711 158.301 65.1256 159.065 66.3835C165.809 77.4798 172.502 88.6022 179.144 99.7507C179.187 99.8136 179.214 99.8841 179.226 99.9577C179.149 99.9126 179.068 99.8726 178.993 99.8258L166.176 91.8502C165.073 91.1619 163.967 90.4748 162.856 89.789C162.664 89.6744 162.508 89.5146 162.402 89.3257C160.938 86.7759 159.551 84.1833 158.129 81.6154C158.076 81.5259 158.044 81.4267 158.034 81.3244C157.954 80.1335 157.867 78.9427 157.783 77.7502C157.639 75.7189 157.496 73.6875 157.354 71.6561C157.291 70.7482 157.226 69.8404 157.164 68.9308C157.025 66.9094 156.887 64.8881 156.75 62.8667C156.748 62.7841 156.706 62.6992 156.776 62.6196L156.761 62.6149Z" fill="white"/>
<path d="M145.619 101.35C145.666 101.277 145.731 101.216 145.81 101.174L157.029 92.9719L157.116 92.9098C157.316 92.7744 157.255 92.7351 157.508 92.8989L164.076 97.1556L169.221 100.499C169.301 100.55 169.377 100.606 169.494 100.686L145.619 101.35Z" fill="white"/>
<path d="M337.5 15C299.124 15 268 46.1239 268 84.5C268 122.876 299.124 154 337.5 154C375.876 154 407 122.876 407 84.5C407 46.1239 375.876 15 337.5 15ZM343.09 141.611C342.788 141.611 342.486 141.611 342.033 141.762V108.976C349.889 108.825 356.99 108.674 363.487 108.221C357.746 125.898 347.018 137.683 343.09 141.611ZM331.91 141.611C327.83 137.532 317.254 125.747 311.513 108.221C317.859 108.674 325.111 108.976 332.967 108.976V141.762C332.665 141.762 332.363 141.611 331.91 141.611ZM280.087 84.5C280.087 80.7228 280.54 76.9457 281.145 73.3196C284.468 72.7152 290.814 71.8087 299.728 70.9022C298.973 75.2837 298.52 79.8163 298.52 84.6511C298.52 89.4859 298.973 94.0185 299.577 98.2489C290.814 97.3424 284.317 96.4359 280.993 95.8315C280.54 92.0544 280.087 88.2772 280.087 84.5ZM307.736 84.5C307.736 79.363 308.34 74.5283 309.247 69.9957C316.197 69.5424 324.053 69.0891 332.967 69.0891V99.9109C324.204 99.7598 316.197 99.4576 309.096 98.8533C308.34 94.4717 307.736 89.637 307.736 84.5ZM342.939 27.3891C347.018 31.4685 357.443 43.5554 363.336 60.7794C356.99 60.3261 349.889 60.0239 342.033 60.0239V27.238C342.335 27.238 342.637 27.3891 342.939 27.3891ZM332.967 27.238V60.0239C325.111 60.175 318.01 60.3261 311.664 60.7794C317.405 43.5554 327.982 31.4685 331.91 27.3891C332.363 27.3891 332.665 27.238 332.967 27.238ZM342.033 99.9109V69.0891C350.796 69.2402 358.803 69.5424 365.753 69.9957C366.66 74.5283 367.264 79.363 367.264 84.5C367.264 89.637 366.811 94.4717 365.904 99.0043C358.954 99.4576 350.947 99.7598 342.033 99.9109ZM375.121 70.9022C384.035 71.8087 390.38 72.7152 393.704 73.3196C394.46 76.9457 394.913 80.7228 394.913 84.5C394.913 88.2772 394.46 92.0544 393.855 95.6804C390.532 96.2848 384.186 97.1913 375.272 98.0978C376.027 93.7163 376.329 89.1837 376.329 84.3489C376.329 79.8163 375.876 75.1326 375.121 70.9022ZM390.985 63.65C386.754 63.0457 380.711 62.2902 373.005 61.5348C369.379 48.5413 363.034 38.1163 357.746 30.713C373.005 36.4543 385.092 48.5413 390.985 63.65ZM317.254 30.713C311.815 37.9652 305.621 48.3902 301.995 61.3837C294.44 61.988 288.397 62.8946 284.015 63.4989C289.908 48.5413 302.146 36.4543 317.254 30.713ZM284.015 105.35C288.246 105.954 294.289 106.71 301.843 107.465C305.47 120.459 311.513 130.884 316.952 138.136C301.843 132.243 289.908 120.308 284.015 105.35ZM358.048 138.136C363.487 130.884 369.53 120.61 373.157 107.616C380.711 107.012 386.754 106.105 390.985 105.501C385.092 120.308 373.157 132.243 358.048 138.136Z" fill="url(#paint10_linear_0_10760)"/>
<defs>
<filter id="filter0_di_0_10760" x="0.695887" y="0.961024" width="35.5418" height="38.7064" filterUnits="userSpaceOnUse" color-interpolation-filters="sRGB">
<feFlood flood-opacity="0" result="BackgroundImageFix"/>
<feColorMatrix in="SourceAlpha" type="matrix" values="0 0 0 0 0 0 0 0 0 0 0 0 0 0 0 0 0 0 127 0" result="hardAlpha"/>
<feOffset/>
<feGaussianBlur stdDeviation="1.38838"/>
<feComposite in2="hardAlpha" operator="out"/>
<feColorMatrix type="matrix" values="0 0 0 0 0 0 0 0 0 0 0 0 0 0 0 0 0 0 0.25 0"/>
<feBlend mode="normal" in2="BackgroundImageFix" result="effect1_dropShadow_0_10760"/>
<feBlend mode="normal" in="SourceGraphic" in2="effect1_dropShadow_0_10760" result="shape"/>
<feColorMatrix in="SourceAlpha" type="matrix" values="0 0 0 0 0 0 0 0 0 0 0 0 0 0 0 0 0 0 127 0" result="hardAlpha"/>
<feOffset/>
<feGaussianBlur stdDeviation="3.93097"/>
<feComposite in2="hardAlpha" operator="arithmetic" k2="-1" k3="1"/>
<feColorMatrix type="matrix" values="0 0 0 0 1 0 0 0 0 1 0 0 0 0 1 0 0 0 0.25 0"/>
<feBlend mode="normal" in2="shape" result="effect2_innerShadow_0_10760"/>
</filter>
<filter id="filter1_di_0_10760" x="1.48495" y="4.57772" width="33.9617" height="31.8035" filterUnits="userSpaceOnUse" color-interpolation-filters="sRGB">
<feFlood flood-opacity="0" result="BackgroundImageFix"/>
<feColorMatrix in="SourceAlpha" type="matrix" values="0 0 0 0 0 0 0 0 0 0 0 0 0 0 0 0 0 0 127 0" result="hardAlpha"/>
<feOffset/>
<feGaussianBlur stdDeviation="1.38838"/>
<feComposite in2="hardAlpha" operator="out"/>
<feColorMatrix type="matrix" values="0 0 0 0 0 0 0 0 0 0 0 0 0 0 0 0 0 0 0.25 0"/>
<feBlend mode="normal" in2="BackgroundImageFix" result="effect1_dropShadow_0_10760"/>
<feBlend mode="normal" in="SourceGraphic" in2="effect1_dropShadow_0_10760" result="shape"/>
<feColorMatrix in="SourceAlpha" type="matrix" values="0 0 0 0 0 0 0 0 0 0 0 0 0 0 0 0 0 0 127 0" result="hardAlpha"/>
<feOffset/>
<feGaussianBlur stdDeviation="3.93097"/>
<feComposite in2="hardAlpha" operator="arithmetic" k2="-1" k3="1"/>
<feColorMatrix type="matrix" values="0 0 0 0 1 0 0 0 0 1 0 0 0 0 1 0 0 0 0.25 0"/>
<feBlend mode="normal" in2="shape" result="effect2_innerShadow_0_10760"/>
</filter>
<filter id="filter2_di_0_10760" x="0.695887" y="45.9571" width="35.5418" height="38.7064" filterUnits="userSpaceOnUse" color-interpolation-filters="sRGB">
<feFlood flood-opacity="0" result="BackgroundImageFix"/>
<feColorMatrix in="SourceAlpha" type="matrix" values="0 0 0 0 0 0 0 0 0 0 0 0 0 0 0 0 0 0 127 0" result="hardAlpha"/>
<feOffset/>
<feGaussianBlur stdDeviation="1.38838"/>
<feComposite in2="hardAlpha" operator="out"/>
<feColorMatrix type="matrix" values="0 0 0 0 0 0 0 0 0 0 0 0 0 0 0 0 0 0 0.25 0"/>
<feBlend mode="normal" in2="BackgroundImageFix" result="effect1_dropShadow_0_10760"/>
<feBlend mode="normal" in="SourceGraphic" in2="effect1_dropShadow_0_10760" result="shape"/>
<feColorMatrix in="SourceAlpha" type="matrix" values="0 0 0 0 0 0 0 0 0 0 0 0 0 0 0 0 0 0 127 0" result="hardAlpha"/>
<feOffset/>
<feGaussianBlur stdDeviation="3.93097"/>
<feComposite in2="hardAlpha" operator="arithmetic" k2="-1" k3="1"/>
<feColorMatrix type="matrix" values="0 0 0 0 1 0 0 0 0 1 0 0 0 0 1 0 0 0 0.25 0"/>
<feBlend mode="normal" in2="shape" result="effect2_innerShadow_0_10760"/>
</filter>
<filter id="filter3_di_0_10760" x="0.875575" y="91.7633" width="35.5418" height="38.7064" filterUnits="userSpaceOnUse" color-interpolation-filters="sRGB">
<feFlood flood-opacity="0" result="BackgroundImageFix"/>
<feColorMatrix in="SourceAlpha" type="matrix" values="0 0 0 0 0 0 0 0 0 0 0 0 0 0 0 0 0 0 127 0" result="hardAlpha"/>
<feOffset/>
<feGaussianBlur stdDeviation="1.38838"/>
<feComposite in2="hardAlpha" operator="out"/>
<feColorMatrix type="matrix" values="0 0 0 0 0 0 0 0 0 0 0 0 0 0 0 0 0 0 0.25 0"/>
<feBlend mode="normal" in2="BackgroundImageFix" result="effect1_dropShadow_0_10760"/>
<feBlend mode="normal" in="SourceGraphic" in2="effect1_dropShadow_0_10760" result="shape"/>
<feColorMatrix in="SourceAlpha" type="matrix" values="0 0 0 0 0 0 0 0 0 0 0 0 0 0 0 0 0 0 127 0" result="hardAlpha"/>
<feOffset/>
<feGaussianBlur stdDeviation="3.93097"/>
<feComposite in2="hardAlpha" operator="arithmetic" k2="-1" k3="1"/>
<feColorMatrix type="matrix" values="0 0 0 0 1 0 0 0 0 1 0 0 0 0 1 0 0 0 0.25 0"/>
<feBlend mode="normal" in2="shape" result="effect2_innerShadow_0_10760"/>
</filter>
<filter id="filter4_di_0_10760" x="0.543543" y="133.917" width="35.5418" height="38.7064" filterUnits="userSpaceOnUse" color-interpolation-filters="sRGB">
<feFlood flood-opacity="0" result="BackgroundImageFix"/>
<feColorMatrix in="SourceAlpha" type="matrix" values="0 0 0 0 0 0 0 0 0 0 0 0 0 0 0 0 0 0 127 0" result="hardAlpha"/>
<feOffset/>
<feGaussianBlur stdDeviation="1.38838"/>
<feComposite in2="hardAlpha" operator="out"/>
<feColorMatrix type="matrix" values="0 0 0 0 0 0 0 0 0 0 0 0 0 0 0 0 0 0 0.25 0"/>
<feBlend mode="normal" in2="BackgroundImageFix" result="effect1_dropShadow_0_10760"/>
<feBlend mode="normal" in="SourceGraphic" in2="effect1_dropShadow_0_10760" result="shape"/>
<feColorMatrix in="SourceAlpha" type="matrix" values="0 0 0 0 0 0 0 0 0 0 0 0 0 0 0 0 0 0 127 0" result="hardAlpha"/>
<feOffset/>
<feGaussianBlur stdDeviation="3.93097"/>
<feComposite in2="hardAlpha" operator="arithmetic" k2="-1" k3="1"/>
<feColorMatrix type="matrix" values="0 0 0 0 1 0 0 0 0 1 0 0 0 0 1 0 0 0 0.25 0"/>
<feBlend mode="normal" in2="shape" result="effect2_innerShadow_0_10760"/>
</filter>
<filter id="filter5_di_0_10760" x="121.288" y="47.193" width="71.0321" height="79.6864" filterUnits="userSpaceOnUse" color-interpolation-filters="sRGB">
<feFlood flood-opacity="0" result="BackgroundImageFix"/>
<feColorMatrix in="SourceAlpha" type="matrix" values="0 0 0 0 0 0 0 0 0 0 0 0 0 0 0 0 0 0 127 0" result="hardAlpha"/>
<feOffset/>
<feGaussianBlur stdDeviation="1.38838"/>
<feComposite in2="hardAlpha" operator="out"/>
<feColorMatrix type="matrix" values="0 0 0 0 0 0 0 0 0 0 0 0 0 0 0 0 0 0 0.25 0"/>
<feBlend mode="normal" in2="BackgroundImageFix" result="effect1_dropShadow_0_10760"/>
<feBlend mode="normal" in="SourceGraphic" in2="effect1_dropShadow_0_10760" result="shape"/>
<feColorMatrix in="SourceAlpha" type="matrix" values="0 0 0 0 0 0 0 0 0 0 0 0 0 0 0 0 0 0 127 0" result="hardAlpha"/>
<feOffset/>
<feGaussianBlur stdDeviation="3.93097"/>
<feComposite in2="hardAlpha" operator="arithmetic" k2="-1" k3="1"/>
<feColorMatrix type="matrix" values="0 0 0 0 1 0 0 0 0 1 0 0 0 0 1 0 0 0 0.25 0"/>
<feBlend mode="normal" in2="shape" result="effect2_innerShadow_0_10760"/>
</filter>
<linearGradient id="paint0_linear_0_10760" x1="32.9823" y1="16.5415" x2="128.998" y2="71.7423" gradientUnits="userSpaceOnUse">
<stop stop-color="#888888"/>
<stop offset="1"/>
</linearGradient>
<linearGradient id="paint1_linear_0_10760" x1="213.109" y1="131.459" x2="319.765" y2="51.4783" gradientUnits="userSpaceOnUse">
<stop stop-color="#AFAFAF"/>
<stop offset="1"/>
</linearGradient>
<linearGradient id="paint2_linear_0_10760" x1="-1.03078" y1="16.407" x2="38.0409" y2="16.407" gradientUnits="userSpaceOnUse">
<stop stop-color="#414141"/>
<stop offset="1"/>
</linearGradient>
<linearGradient id="paint3_linear_0_10760" x1="33.7098" y1="63.1683" x2="68.2012" y2="119.522" gradientUnits="userSpaceOnUse">
<stop stop-color="#888888"/>
<stop offset="1"/>
</linearGradient>
<linearGradient id="paint4_linear_0_10760" x1="25.6251" y1="154.376" x2="123.542" y2="99.8589" gradientUnits="userSpaceOnUse">
<stop stop-color="#848484"/>
<stop offset="1"/>
</linearGradient>
<linearGradient id="paint5_linear_0_10760" x1="29.1364" y1="106.201" x2="79.7148" y2="144.187" gradientUnits="userSpaceOnUse">
<stop stop-color="#636363"/>
<stop offset="1"/>
</linearGradient>
<linearGradient id="paint6_linear_0_10760" x1="-1.03078" y1="61.4031" x2="38.0409" y2="61.4031" gradientUnits="userSpaceOnUse">
<stop stop-color="#414141"/>
<stop offset="1"/>
</linearGradient>
<linearGradient id="paint7_linear_0_10760" x1="-0.851089" y1="107.209" x2="38.2206" y2="107.209" gradientUnits="userSpaceOnUse">
<stop stop-color="#414141"/>
<stop offset="1"/>
</linearGradient>
<linearGradient id="paint8_linear_0_10760" x1="-1.18312" y1="149.363" x2="37.8886" y2="149.363" gradientUnits="userSpaceOnUse">
<stop stop-color="#414141"/>
<stop offset="1"/>
</linearGradient>
<linearGradient id="paint9_linear_0_10760" x1="156.888" y1="35.8499" x2="156.888" y2="121.16" gradientUnits="userSpaceOnUse">
<stop stop-color="#787878"/>
<stop offset="1"/>
</linearGradient>
<linearGradient id="paint10_linear_0_10760" x1="337.655" y1="-9.60177" x2="337.655" y2="147.235" gradientUnits="userSpaceOnUse">
<stop offset="0.315" stop-color="white"/>
<stop offset="0.795" stop-color="#A5A5A5" stop-opacity="0.9"/>
<stop offset="1" stop-color="#432626" stop-opacity="0.8"/>
</linearGradient>
</defs>
</svg>
