<svg width="543" height="234" viewBox="0 0 543 234" fill="none" xmlns="http://www.w3.org/2000/svg">
<path d="M42.821 196.612V202.348H42.1263V197.34H42.0927L40.6921 198.27V197.564L42.1263 196.612H42.821ZM49.1654 199.172V199.788H46.6556V199.172H49.1654ZM54.5525 196.612V202.348H53.8579V197.34H53.8242L52.4237 198.27V197.564L53.8579 196.612H54.5525ZM58.0735 202.427C57.6514 202.427 57.292 202.312 56.995 202.082C56.6981 201.85 56.4712 201.515 56.3144 201.076C56.1575 200.636 56.0791 200.104 56.0791 199.48C56.0791 198.86 56.1575 198.33 56.3144 197.892C56.4731 197.451 56.7009 197.115 56.9978 196.883C57.2966 196.65 57.6552 196.533 58.0735 196.533C58.4918 196.533 58.8494 196.65 59.1463 196.883C59.445 197.115 59.6729 197.451 59.8297 197.892C59.9885 198.33 60.0678 198.86 60.0678 199.48C60.0678 200.104 59.9894 200.636 59.8325 201.076C59.6757 201.515 59.4488 201.85 59.1519 202.082C58.855 202.312 58.4955 202.427 58.0735 202.427ZM58.0735 201.81C58.4918 201.81 58.8167 201.609 59.0482 201.205C59.2798 200.802 59.3956 200.227 59.3956 199.48C59.3956 198.983 59.3423 198.56 59.2359 198.211C59.1313 197.862 58.9801 197.596 58.7821 197.413C58.5861 197.23 58.3498 197.138 58.0735 197.138C57.6589 197.138 57.3349 197.343 57.1015 197.752C56.8681 198.159 56.7514 198.735 56.7514 199.48C56.7514 199.977 56.8036 200.399 56.9082 200.746C57.0128 201.093 57.1631 201.358 57.3592 201.539C57.5571 201.72 57.7952 201.81 58.0735 201.81ZM63.6868 202.348H62.9585L65.0649 196.612H65.782L67.8884 202.348H67.1601L65.4459 197.519H65.401L63.6868 202.348ZM63.9557 200.107H66.8912V200.724H63.9557V200.107ZM71.4037 200.589V198.046H72.0648V202.348H71.4037V201.62H71.3589C71.2581 201.838 71.1012 202.024 70.8883 202.177C70.6755 202.329 70.4066 202.404 70.0816 202.404C69.8127 202.404 69.5737 202.345 69.3646 202.228C69.1554 202.108 68.9911 201.929 68.8716 201.69C68.7521 201.449 68.6923 201.146 68.6923 200.78V198.046H69.3534V200.735C69.3534 201.048 69.4411 201.299 69.6167 201.485C69.7941 201.672 70.02 201.766 70.2945 201.766C70.4588 201.766 70.626 201.724 70.7959 201.639C70.9677 201.555 71.1115 201.427 71.2273 201.253C71.3449 201.079 71.4037 200.858 71.4037 200.589ZM75.0122 204.051C74.6929 204.051 74.4184 204.01 74.1887 203.928C73.959 203.848 73.7676 203.741 73.6145 203.609C73.4632 203.478 73.3428 203.338 73.2531 203.188L73.7797 202.819C73.8395 202.897 73.9151 202.987 74.0066 203.088C74.0981 203.19 74.2232 203.279 74.382 203.354C74.5426 203.43 74.7526 203.469 75.0122 203.469C75.3595 203.469 75.6462 203.385 75.8721 203.216C76.0981 203.048 76.2111 202.785 76.2111 202.427V201.553H76.155C76.1065 201.631 76.0374 201.728 75.9478 201.844C75.86 201.958 75.733 202.06 75.5668 202.149C75.4025 202.237 75.1803 202.281 74.9002 202.281C74.5528 202.281 74.241 202.199 73.9646 202.034C73.6901 201.87 73.4726 201.631 73.312 201.317C73.1532 201.004 73.0739 200.623 73.0739 200.175C73.0739 199.734 73.1514 199.35 73.3064 199.023C73.4613 198.695 73.677 198.441 73.9534 198.261C74.2298 198.08 74.5491 197.99 74.9114 197.99C75.1915 197.99 75.4137 198.036 75.578 198.13C75.7442 198.221 75.8712 198.326 75.959 198.443C76.0486 198.559 76.1177 198.654 76.1662 198.729H76.2335V198.046H76.8721V202.471C76.8721 202.841 76.7881 203.142 76.62 203.373C76.4538 203.607 76.2297 203.778 75.9478 203.886C75.6677 203.996 75.3558 204.051 75.0122 204.051ZM74.9898 201.687C75.255 201.687 75.479 201.626 75.6621 201.505C75.8451 201.384 75.9842 201.209 76.0794 200.981C76.1746 200.753 76.2223 200.481 76.2223 200.163C76.2223 199.853 76.1756 199.58 76.0822 199.343C75.9888 199.105 75.8507 198.92 75.6677 198.785C75.4847 198.651 75.2587 198.584 74.9898 198.584C74.7097 198.584 74.4763 198.654 74.2895 198.796C74.1047 198.938 73.9655 199.129 73.8722 199.368C73.7807 199.607 73.7349 199.872 73.7349 200.163C73.7349 200.462 73.7816 200.726 73.875 200.956C73.9702 201.184 74.1103 201.363 74.2951 201.494C74.4819 201.623 74.7134 201.687 74.9898 201.687Z" fill="white"/>
<path d="M105.042 196.612V202.348H104.348V197.34H104.314L102.914 198.27V197.564L104.348 196.612H105.042ZM108.709 196.612V202.348H108.014V197.34H107.981L106.58 198.27V197.564L108.014 196.612H108.709ZM115.053 199.172V199.788H112.544V199.172H115.053ZM118.424 202.348V201.844L120.317 199.771C120.54 199.528 120.723 199.317 120.866 199.138C121.01 198.957 121.117 198.787 121.186 198.628C121.257 198.468 121.292 198.3 121.292 198.124C121.292 197.922 121.244 197.748 121.146 197.6C121.051 197.453 120.92 197.339 120.754 197.259C120.588 197.178 120.401 197.138 120.194 197.138C119.974 197.138 119.781 197.184 119.617 197.275C119.455 197.365 119.329 197.491 119.239 197.654C119.151 197.816 119.107 198.006 119.107 198.225H118.446C118.446 197.889 118.524 197.594 118.679 197.34C118.834 197.086 119.045 196.888 119.312 196.746C119.581 196.604 119.882 196.533 120.216 196.533C120.553 196.533 120.85 196.604 121.11 196.746C121.37 196.888 121.573 197.079 121.721 197.32C121.868 197.561 121.942 197.829 121.942 198.124C121.942 198.335 121.904 198.541 121.827 198.743C121.752 198.943 121.622 199.166 121.435 199.413C121.25 199.657 120.993 199.956 120.665 200.309L119.376 201.687V201.732H122.043V202.348H118.424ZM125.071 202.427C124.649 202.427 124.289 202.312 123.992 202.082C123.695 201.85 123.469 201.515 123.312 201.076C123.155 200.636 123.076 200.104 123.076 199.48C123.076 198.86 123.155 198.33 123.312 197.892C123.47 197.451 123.698 197.115 123.995 196.883C124.294 196.65 124.652 196.533 125.071 196.533C125.489 196.533 125.847 196.65 126.144 196.883C126.442 197.115 126.67 197.451 126.827 197.892C126.986 198.33 127.065 198.86 127.065 199.48C127.065 200.104 126.987 200.636 126.83 201.076C126.673 201.515 126.446 201.85 126.149 202.082C125.852 202.312 125.493 202.427 125.071 202.427ZM125.071 201.81C125.489 201.81 125.814 201.609 126.046 201.205C126.277 200.802 126.393 200.227 126.393 199.48C126.393 198.983 126.34 198.56 126.233 198.211C126.129 197.862 125.977 197.596 125.779 197.413C125.583 197.23 125.347 197.138 125.071 197.138C124.656 197.138 124.332 197.343 124.099 197.752C123.865 198.159 123.749 198.735 123.749 199.48C123.749 199.977 123.801 200.399 123.905 200.746C124.01 201.093 124.16 201.358 124.356 201.539C124.554 201.72 124.793 201.81 125.071 201.81ZM130.684 202.348H129.956L132.062 196.612H132.779L134.886 202.348H134.157L132.443 197.519H132.398L130.684 202.348ZM130.953 200.107H133.888V200.724H130.953V200.107ZM138.401 200.589V198.046H139.062V202.348H138.401V201.62H138.356C138.255 201.838 138.099 202.024 137.886 202.177C137.673 202.329 137.404 202.404 137.079 202.404C136.81 202.404 136.571 202.345 136.362 202.228C136.153 202.108 135.988 201.929 135.869 201.69C135.749 201.449 135.69 201.146 135.69 200.78V198.046H136.351V200.735C136.351 201.048 136.438 201.299 136.614 201.485C136.791 201.672 137.017 201.766 137.292 201.766C137.456 201.766 137.623 201.724 137.793 201.639C137.965 201.555 138.109 201.427 138.225 201.253C138.342 201.079 138.401 200.858 138.401 200.589ZM142.009 204.051C141.69 204.051 141.416 204.01 141.186 203.928C140.956 203.848 140.765 203.741 140.612 203.609C140.46 203.478 140.34 203.338 140.25 203.188L140.777 202.819C140.837 202.897 140.912 202.987 141.004 203.088C141.095 203.19 141.221 203.279 141.379 203.354C141.54 203.43 141.75 203.469 142.009 203.469C142.357 203.469 142.643 203.385 142.869 203.216C143.095 203.048 143.208 202.785 143.208 202.427V201.553H143.152C143.104 201.631 143.035 201.728 142.945 201.844C142.857 201.958 142.73 202.06 142.564 202.149C142.4 202.237 142.178 202.281 141.897 202.281C141.55 202.281 141.238 202.199 140.962 202.034C140.687 201.87 140.47 201.631 140.309 201.317C140.151 201.004 140.071 200.623 140.071 200.175C140.071 199.734 140.149 199.35 140.304 199.023C140.459 198.695 140.674 198.441 140.951 198.261C141.227 198.08 141.546 197.99 141.909 197.99C142.189 197.99 142.411 198.036 142.575 198.13C142.742 198.221 142.868 198.326 142.956 198.443C143.046 198.559 143.115 198.654 143.164 198.729H143.231V198.046H143.869V202.471C143.869 202.841 143.785 203.142 143.617 203.373C143.451 203.607 143.227 203.778 142.945 203.886C142.665 203.996 142.353 204.051 142.009 204.051ZM141.987 201.687C142.252 201.687 142.476 201.626 142.659 201.505C142.842 201.384 142.981 201.209 143.077 200.981C143.172 200.753 143.22 200.481 143.22 200.163C143.22 199.853 143.173 199.58 143.079 199.343C142.986 199.105 142.848 198.92 142.665 198.785C142.482 198.651 142.256 198.584 141.987 198.584C141.707 198.584 141.474 198.654 141.287 198.796C141.102 198.938 140.963 199.129 140.869 199.368C140.778 199.607 140.732 199.872 140.732 200.163C140.732 200.462 140.779 200.726 140.872 200.956C140.967 201.184 141.108 201.363 141.292 201.494C141.479 201.623 141.711 201.687 141.987 201.687Z" fill="white"/>
<path d="M233.851 196.612V202.348H233.157V197.34H233.123L231.723 198.27V197.564L233.157 196.612H233.851ZM240.196 199.172V199.788H237.686V199.172H240.196ZM245.583 196.612V202.348H244.888V197.34H244.855L243.454 198.27V197.564L244.888 196.612H245.583ZM249.104 202.427C248.682 202.427 248.322 202.312 248.025 202.082C247.729 201.85 247.502 201.515 247.345 201.076C247.188 200.636 247.11 200.104 247.11 199.48C247.11 198.86 247.188 198.33 247.345 197.892C247.504 197.451 247.731 197.115 248.028 196.883C248.327 196.65 248.686 196.533 249.104 196.533C249.522 196.533 249.88 196.65 250.177 196.883C250.475 197.115 250.703 197.451 250.86 197.892C251.019 198.33 251.098 198.86 251.098 199.48C251.098 200.104 251.02 200.636 250.863 201.076C250.706 201.515 250.479 201.85 250.182 202.082C249.885 202.312 249.526 202.427 249.104 202.427ZM249.104 201.81C249.522 201.81 249.847 201.609 250.079 201.205C250.31 200.802 250.426 200.227 250.426 199.48C250.426 198.983 250.373 198.56 250.266 198.211C250.162 197.862 250.011 197.596 249.813 197.413C249.617 197.23 249.38 197.138 249.104 197.138C248.689 197.138 248.365 197.343 248.132 197.752C247.899 198.159 247.782 198.735 247.782 199.48C247.782 199.977 247.834 200.399 247.939 200.746C248.043 201.093 248.194 201.358 248.39 201.539C248.588 201.72 248.826 201.81 249.104 201.81ZM259.031 196.612V202.348H258.359L255.233 197.844H255.177V202.348H254.482V196.612H255.154L258.291 201.127H258.347V196.612H259.031ZM262.079 202.438C261.691 202.438 261.35 202.345 261.057 202.16C260.765 201.976 260.538 201.717 260.373 201.385C260.211 201.052 260.13 200.664 260.13 200.219C260.13 199.771 260.211 199.38 260.373 199.046C260.538 198.711 260.765 198.452 261.057 198.267C261.35 198.082 261.691 197.99 262.079 197.99C262.468 197.99 262.807 198.082 263.099 198.267C263.392 198.452 263.62 198.711 263.782 199.046C263.947 199.38 264.029 199.771 264.029 200.219C264.029 200.664 263.947 201.052 263.782 201.385C263.62 201.717 263.392 201.976 263.099 202.16C262.807 202.345 262.468 202.438 262.079 202.438ZM262.079 201.844C262.374 201.844 262.617 201.768 262.807 201.617C262.998 201.466 263.139 201.267 263.23 201.02C263.322 200.774 263.368 200.507 263.368 200.219C263.368 199.932 263.322 199.664 263.23 199.415C263.139 199.167 262.998 198.966 262.807 198.813C262.617 198.66 262.374 198.584 262.079 198.584C261.784 198.584 261.541 198.66 261.351 198.813C261.16 198.966 261.019 199.167 260.928 199.415C260.836 199.664 260.791 199.932 260.791 200.219C260.791 200.507 260.836 200.774 260.928 201.02C261.019 201.267 261.16 201.466 261.351 201.617C261.541 201.768 261.784 201.844 262.079 201.844ZM268.402 198.046L266.811 202.348H266.139L264.548 198.046H265.265L266.452 201.474H266.497L267.685 198.046H268.402Z" fill="white"/>
<path d="M167.205 202.348V201.721L169.146 199.71C169.353 199.491 169.524 199.3 169.658 199.135C169.795 198.969 169.896 198.811 169.964 198.662C170.031 198.513 170.065 198.354 170.065 198.186C170.065 197.995 170.02 197.831 169.93 197.693C169.84 197.553 169.718 197.445 169.563 197.371C169.408 197.294 169.234 197.256 169.039 197.256C168.834 197.256 168.655 197.298 168.502 197.382C168.348 197.466 168.231 197.584 168.149 197.738C168.066 197.891 168.025 198.07 168.025 198.275H167.199C167.199 197.926 167.279 197.621 167.44 197.359C167.601 197.098 167.821 196.895 168.101 196.752C168.381 196.606 168.7 196.533 169.056 196.533C169.417 196.533 169.734 196.605 170.009 196.749C170.285 196.891 170.501 197.085 170.656 197.331C170.811 197.576 170.888 197.852 170.888 198.161C170.888 198.373 170.848 198.582 170.768 198.785C170.689 198.989 170.552 199.216 170.356 199.466C170.16 199.714 169.887 200.016 169.538 200.371L168.398 201.564V201.606H170.981V202.348H167.205ZM174.219 196.612V202.348H173.35V197.48H173.317L171.944 198.376V197.547L173.375 196.612H174.219ZM180.404 199.116V199.844H177.861V199.116H180.404ZM185.594 202.427C185.209 202.427 184.865 202.36 184.563 202.228C184.262 202.095 184.024 201.911 183.849 201.676C183.675 201.439 183.582 201.164 183.568 200.852H184.448C184.459 201.022 184.516 201.17 184.619 201.295C184.723 201.418 184.86 201.513 185.028 201.581C185.196 201.648 185.383 201.681 185.588 201.681C185.814 201.681 186.014 201.642 186.187 201.564C186.363 201.485 186.5 201.376 186.599 201.236C186.698 201.094 186.748 200.931 186.748 200.746C186.748 200.554 186.698 200.385 186.599 200.239C186.502 200.091 186.359 199.976 186.171 199.892C185.984 199.808 185.758 199.766 185.493 199.766H185.008V199.06H185.493C185.706 199.06 185.892 199.021 186.053 198.945C186.216 198.868 186.342 198.762 186.434 198.626C186.525 198.487 186.571 198.326 186.571 198.141C186.571 197.964 186.531 197.809 186.451 197.679C186.372 197.546 186.26 197.443 186.115 197.368C185.971 197.293 185.801 197.256 185.605 197.256C185.418 197.256 185.244 197.29 185.081 197.359C184.92 197.427 184.79 197.524 184.689 197.651C184.588 197.776 184.534 197.926 184.526 198.102H183.689C183.698 197.792 183.79 197.519 183.963 197.284C184.139 197.049 184.371 196.865 184.658 196.732C184.946 196.599 185.265 196.533 185.616 196.533C185.984 196.533 186.301 196.605 186.568 196.749C186.837 196.891 187.045 197.08 187.19 197.317C187.338 197.555 187.411 197.814 187.409 198.096C187.411 198.417 187.321 198.69 187.14 198.914C186.961 199.138 186.722 199.288 186.423 199.365V199.41C186.804 199.468 187.099 199.619 187.308 199.864C187.519 200.108 187.624 200.412 187.622 200.774C187.624 201.09 187.536 201.372 187.358 201.623C187.183 201.873 186.943 202.07 186.638 202.214C186.334 202.356 185.986 202.427 185.594 202.427ZM190.678 202.443C190.235 202.442 189.857 202.325 189.543 202.093C189.229 201.862 188.989 201.525 188.823 201.082C188.657 200.639 188.574 200.106 188.574 199.483C188.574 198.861 188.657 198.33 188.823 197.889C188.991 197.448 189.232 197.112 189.546 196.88C189.862 196.649 190.239 196.533 190.678 196.533C191.116 196.533 191.493 196.65 191.806 196.883C192.12 197.115 192.36 197.451 192.526 197.892C192.694 198.33 192.778 198.861 192.778 199.483C192.778 200.108 192.695 200.642 192.529 201.085C192.363 201.526 192.123 201.863 191.809 202.096C191.496 202.328 191.118 202.443 190.678 202.443ZM190.678 201.695C191.066 201.695 191.369 201.506 191.588 201.127C191.808 200.748 191.918 200.2 191.918 199.483C191.918 199.006 191.868 198.604 191.767 198.275C191.668 197.945 191.525 197.695 191.339 197.525C191.154 197.353 190.933 197.267 190.678 197.267C190.291 197.267 189.988 197.457 189.767 197.838C189.547 198.219 189.436 198.767 189.434 199.483C189.434 199.961 189.483 200.365 189.582 200.696C189.683 201.024 189.826 201.273 190.011 201.443C190.196 201.611 190.418 201.695 190.678 201.695ZM196.423 202.348H195.504L197.568 196.612H198.568L200.633 202.348H199.714L198.092 197.654H198.047L196.423 202.348ZM196.577 200.102H199.557V200.83H196.577V200.102ZM204.119 200.564V198.046H204.96V202.348H204.136V201.603H204.091C203.992 201.833 203.834 202.024 203.615 202.177C203.398 202.329 203.129 202.404 202.806 202.404C202.529 202.404 202.285 202.343 202.072 202.222C201.861 202.099 201.694 201.917 201.573 201.676C201.454 201.435 201.394 201.137 201.394 200.782V198.046H202.231V200.682C202.231 200.975 202.313 201.208 202.475 201.382C202.637 201.555 202.848 201.642 203.108 201.642C203.265 201.642 203.421 201.603 203.576 201.525C203.733 201.446 203.862 201.328 203.965 201.169C204.07 201.01 204.121 200.808 204.119 200.564ZM207.889 204.051C207.547 204.051 207.253 204.006 207.006 203.917C206.762 203.827 206.562 203.709 206.407 203.561C206.252 203.413 206.136 203.252 206.06 203.076L206.78 202.78C206.83 202.862 206.897 202.949 206.981 203.04C207.067 203.133 207.183 203.213 207.329 203.278C207.476 203.343 207.666 203.376 207.897 203.376C208.215 203.376 208.477 203.299 208.684 203.144C208.892 202.991 208.995 202.746 208.995 202.41V201.564H208.942C208.892 201.655 208.819 201.757 208.723 201.869C208.63 201.981 208.501 202.078 208.337 202.16C208.173 202.243 207.959 202.284 207.695 202.284C207.356 202.284 207.049 202.204 206.777 202.046C206.506 201.885 206.291 201.649 206.132 201.337C205.976 201.023 205.897 200.638 205.897 200.18C205.897 199.723 205.975 199.33 206.13 199.004C206.287 198.677 206.501 198.427 206.774 198.253C207.047 198.077 207.356 197.99 207.701 197.99C207.968 197.99 208.184 198.035 208.348 198.124C208.512 198.212 208.64 198.315 208.732 198.432C208.825 198.55 208.897 198.654 208.948 198.743H209.009V198.046H209.83V202.443C209.83 202.813 209.744 203.117 209.572 203.354C209.4 203.591 209.168 203.766 208.875 203.88C208.583 203.994 208.255 204.051 207.889 204.051ZM207.88 201.589C208.121 201.589 208.325 201.533 208.491 201.421C208.659 201.307 208.786 201.145 208.872 200.934C208.96 200.721 209.004 200.466 209.004 200.169C209.004 199.879 208.961 199.625 208.875 199.404C208.789 199.184 208.663 199.012 208.497 198.889C208.33 198.764 208.125 198.701 207.88 198.701C207.628 198.701 207.418 198.767 207.25 198.897C207.082 199.026 206.955 199.202 206.869 199.424C206.785 199.646 206.743 199.894 206.743 200.169C206.743 200.451 206.786 200.698 206.872 200.911C206.958 201.124 207.085 201.29 207.253 201.41C207.423 201.529 207.632 201.589 207.88 201.589Z" fill="#FF6A00"/>
<path d="M22.9493 187.071C22.5273 187.071 22.1678 186.956 21.8709 186.727C21.574 186.495 21.3471 186.16 21.1902 185.721C21.0334 185.28 20.955 184.748 20.955 184.124C20.955 183.504 21.0334 182.975 21.1902 182.536C21.349 182.095 21.5768 181.759 21.8737 181.528C22.1725 181.294 22.531 181.178 22.9493 181.178C23.3676 181.178 23.7252 181.294 24.0221 181.528C24.3209 181.759 24.5487 182.095 24.7056 182.536C24.8643 182.975 24.9437 183.504 24.9437 184.124C24.9437 184.748 24.8652 185.28 24.7084 185.721C24.5515 186.16 24.3246 186.495 24.0277 186.727C23.7308 186.956 23.3713 187.071 22.9493 187.071ZM22.9493 186.455C23.3676 186.455 23.6925 186.253 23.9241 185.85C24.1556 185.446 24.2714 184.871 24.2714 184.124C24.2714 183.628 24.2182 183.205 24.1118 182.856C24.0072 182.506 23.8559 182.24 23.658 182.057C23.4619 181.874 23.2257 181.783 22.9493 181.783C22.5348 181.783 22.2108 181.987 21.9773 182.396C21.7439 182.803 21.6272 183.379 21.6272 184.124C21.6272 184.621 21.6795 185.043 21.7841 185.39C21.8886 185.738 22.039 186.002 22.235 186.183C22.433 186.364 22.6711 186.455 22.9493 186.455Z" fill="white"/>
<path d="M22.8709 157.789C22.5422 157.789 22.2462 157.724 21.9829 157.593C21.7196 157.463 21.5086 157.283 21.3499 157.055C21.1912 156.828 21.1043 156.568 21.0894 156.277H21.7617C21.7878 156.536 21.9054 156.751 22.1146 156.921C22.3256 157.089 22.5777 157.173 22.8709 157.173C23.1062 157.173 23.3153 157.118 23.4983 157.008C23.6832 156.898 23.8279 156.746 23.9325 156.554C24.0389 156.36 24.0921 156.14 24.0921 155.896C24.0921 155.646 24.0371 155.422 23.9269 155.226C23.8186 155.028 23.6692 154.873 23.4787 154.759C23.2882 154.645 23.0707 154.587 22.8261 154.585C22.6505 154.583 22.4703 154.61 22.2855 154.666C22.1006 154.72 21.9484 154.79 21.8289 154.876L21.179 154.798L21.5264 151.974H24.5067V152.591H22.109L21.9073 154.282H21.9409C22.0586 154.189 22.2061 154.112 22.3835 154.05C22.5609 153.988 22.7458 153.958 22.9381 153.958C23.2892 153.958 23.602 154.042 23.8765 154.21C24.1528 154.376 24.3695 154.604 24.5263 154.893C24.685 155.183 24.7644 155.513 24.7644 155.885C24.7644 156.251 24.6822 156.577 24.5179 156.865C24.3554 157.151 24.1314 157.377 23.8457 157.543C23.5599 157.707 23.235 157.789 22.8709 157.789ZM27.7482 157.789C27.3262 157.789 26.9667 157.675 26.6698 157.445C26.3729 157.213 26.146 156.878 25.9892 156.439C25.8323 155.999 25.7539 155.466 25.7539 154.843C25.7539 154.223 25.8323 153.693 25.9892 153.254C26.1479 152.814 26.3757 152.478 26.6726 152.246C26.9714 152.013 27.3299 151.896 27.7482 151.896C28.1665 151.896 28.5241 152.013 28.821 152.246C29.1198 152.478 29.3476 152.814 29.5045 153.254C29.6632 153.693 29.7426 154.223 29.7426 154.843C29.7426 155.466 29.6642 155.999 29.5073 156.439C29.3505 156.878 29.1236 157.213 28.8267 157.445C28.5297 157.675 28.1703 157.789 27.7482 157.789ZM27.7482 157.173C28.1665 157.173 28.4915 156.971 28.723 156.568C28.9546 156.165 29.0703 155.59 29.0703 154.843C29.0703 154.346 29.0171 153.923 28.9107 153.574C28.8061 153.225 28.6549 152.958 28.4569 152.775C28.2608 152.592 28.0246 152.501 27.7482 152.501C27.3337 152.501 27.0097 152.705 26.7763 153.114C26.5428 153.521 26.4261 154.098 26.4261 154.843C26.4261 155.339 26.4784 155.761 26.583 156.109C26.6876 156.456 26.8379 156.72 27.034 156.901C27.2319 157.083 27.47 157.173 27.7482 157.173Z" fill="white"/>
<path d="M23.095 122.693V128.429H22.4003V123.421H22.3667L20.9662 124.351V123.645L22.4003 122.693H23.095ZM26.6159 128.508C26.1939 128.508 25.8344 128.393 25.5375 128.163C25.2406 127.932 25.0137 127.596 24.8568 127.158C24.7 126.717 24.6215 126.185 24.6215 125.561C24.6215 124.941 24.7 124.412 24.8568 123.973C25.0156 123.532 25.2434 123.196 25.5403 122.964C25.8391 122.731 26.1976 122.614 26.6159 122.614C27.0342 122.614 27.3918 122.731 27.6887 122.964C27.9875 123.196 28.2153 123.532 28.3722 123.973C28.5309 124.412 28.6103 124.941 28.6103 125.561C28.6103 126.185 28.5318 126.717 28.375 127.158C28.2181 127.596 27.9912 127.932 27.6943 128.163C27.3974 128.393 27.0379 128.508 26.6159 128.508ZM26.6159 127.891C27.0342 127.891 27.3591 127.69 27.5907 127.286C27.8222 126.883 27.938 126.308 27.938 125.561C27.938 125.064 27.8848 124.641 27.7784 124.292C27.6738 123.943 27.5225 123.677 27.3246 123.494C27.1285 123.311 26.8923 123.219 26.6159 123.219C26.2014 123.219 25.8774 123.424 25.6439 123.833C25.4105 124.24 25.2938 124.816 25.2938 125.561C25.2938 126.058 25.3461 126.48 25.4507 126.827C25.5552 127.174 25.7056 127.439 25.9016 127.62C26.0996 127.801 26.3377 127.891 26.6159 127.891ZM31.5458 128.508C31.1238 128.508 30.7643 128.393 30.4674 128.163C30.1705 127.932 29.9436 127.596 29.7867 127.158C29.6299 126.717 29.5514 126.185 29.5514 125.561C29.5514 124.941 29.6299 124.412 29.7867 123.973C29.9454 123.532 30.1733 123.196 30.4702 122.964C30.769 122.731 31.1275 122.614 31.5458 122.614C31.9641 122.614 32.3217 122.731 32.6186 122.964C32.9174 123.196 33.1452 123.532 33.3021 123.973C33.4608 124.412 33.5401 124.941 33.5401 125.561C33.5401 126.185 33.4617 126.717 33.3049 127.158C33.148 127.596 32.9211 127.932 32.6242 128.163C32.3273 128.393 31.9678 128.508 31.5458 128.508ZM31.5458 127.891C31.9641 127.891 32.289 127.69 32.5206 127.286C32.7521 126.883 32.8679 126.308 32.8679 125.561C32.8679 125.064 32.8147 124.641 32.7082 124.292C32.6037 123.943 32.4524 123.677 32.2545 123.494C32.0584 123.311 31.8222 123.219 31.5458 123.219C31.1312 123.219 30.8072 123.424 30.5738 123.833C30.3404 124.24 30.2237 124.816 30.2237 125.561C30.2237 126.058 30.276 126.48 30.3805 126.827C30.4851 127.174 30.6354 127.439 30.8315 127.62C31.0295 127.801 31.2675 127.891 31.5458 127.891Z" fill="white"/>
<line x1="40.0632" y1="126.256" x2="267.331" y2="126.256" stroke="#E5E5EF" stroke-width="0.845122" stroke-linecap="round" stroke-dasharray="2.25 3.94"/>
<line x1="40.0632" y1="156.225" x2="267.331" y2="156.225" stroke="#E5E5EF" stroke-width="0.845122" stroke-linecap="round" stroke-dasharray="2.25 3.94"/>
<line x1="40.0632" y1="187.037" x2="267.331" y2="187.037" stroke="#E5E5EF" stroke-width="0.845122" stroke-linecap="round"/>
<path d="M268.299 123.364C181.483 163.757 79.6867 182.654 39.6406 187.053L268.299 187.073V123.364Z" fill="#E5EAFC" fill-opacity="0.15"/>
<path d="M268.546 148.672C205.477 171.287 89.8005 183.696 39.8457 187.073C158.673 179.994 241.824 173.061 268.546 170.48V148.672Z" fill="#FFBE8F" fill-opacity="0.15"/>
<mask id="mask0_0_10671" style="mask-type:alpha" maskUnits="userSpaceOnUse" x="39" y="154" width="148" height="34">
<rect x="39.6406" y="154.068" width="146.651" height="33.0045" fill="#D9D9D9"/>
</mask>
<g mask="url(#mask0_0_10671)">
<path d="M268.299 123.364C181.483 163.757 79.6867 182.654 39.6406 187.053L268.299 187.073V123.364Z" fill="#C6C6C6"/>
<path d="M268.546 148.672C205.477 171.287 89.8005 183.696 39.8457 187.073C158.673 179.994 241.824 173.061 268.546 170.48V148.672Z" fill="#6F6F6F"/>
</g>
<line x1="186.346" y1="154.069" x2="186.346" y2="187.037" stroke="#FF6A00" stroke-width="0.845122" stroke-linecap="round" stroke-dasharray="2.25 3.94"/>
<circle cx="186.29" cy="153.647" r="3.66219" fill="#FF6A00" stroke="white" stroke-width="1.12683"/>
<path d="M204.305 121.292C206.794 121.292 208.812 123.31 208.812 125.799V137.216C208.812 139.706 206.794 141.723 204.305 141.723H190.423L187.022 144.642C186.6 145.004 185.977 145.004 185.555 144.642L182.154 141.723H168.272C165.783 141.723 163.766 139.705 163.766 137.216V125.799C163.766 123.31 165.784 121.293 168.272 121.292H204.305Z" fill="#FF6A00"/>
<path d="M171.358 134.693V126.498H171.883V134.693H171.358ZM173.125 128.956C173.087 128.632 172.931 128.38 172.658 128.201C172.384 128.022 172.049 127.932 171.652 127.932C171.362 127.932 171.108 127.979 170.89 128.073C170.675 128.167 170.506 128.296 170.385 128.46C170.265 128.625 170.205 128.811 170.205 129.02C170.205 129.195 170.247 129.346 170.33 129.472C170.416 129.596 170.524 129.699 170.657 129.782C170.789 129.863 170.928 129.931 171.073 129.984C171.218 130.035 171.351 130.077 171.473 130.109L172.139 130.288C172.31 130.333 172.5 130.395 172.709 130.474C172.92 130.553 173.122 130.661 173.314 130.797C173.508 130.932 173.668 131.104 173.794 131.316C173.92 131.527 173.983 131.786 173.983 132.094C173.983 132.448 173.89 132.768 173.704 133.054C173.521 133.34 173.252 133.567 172.898 133.736C172.546 133.904 172.118 133.989 171.614 133.989C171.144 133.989 170.738 133.913 170.394 133.761C170.053 133.61 169.784 133.399 169.588 133.128C169.393 132.857 169.283 132.542 169.258 132.183H170.077C170.099 132.431 170.182 132.636 170.327 132.798C170.474 132.958 170.66 133.077 170.884 133.156C171.11 133.233 171.354 133.272 171.614 133.272C171.917 133.272 172.189 133.223 172.43 133.124C172.671 133.024 172.862 132.885 173.003 132.708C173.144 132.529 173.215 132.32 173.215 132.081C173.215 131.863 173.154 131.686 173.032 131.549C172.91 131.413 172.75 131.302 172.552 131.217C172.353 131.131 172.139 131.056 171.908 130.992L171.102 130.762C170.59 130.615 170.184 130.404 169.885 130.131C169.587 129.858 169.437 129.501 169.437 129.059C169.437 128.692 169.536 128.372 169.735 128.099C169.935 127.823 170.204 127.61 170.542 127.458C170.881 127.305 171.26 127.228 171.678 127.228C172.101 127.228 172.476 127.304 172.805 127.455C173.133 127.604 173.394 127.809 173.586 128.07C173.78 128.33 173.883 128.626 173.893 128.956H173.125ZM175.173 133.874V133.297L177.337 130.928C177.591 130.651 177.8 130.41 177.964 130.205C178.129 129.998 178.25 129.804 178.329 129.622C178.41 129.439 178.451 129.247 178.451 129.046C178.451 128.816 178.395 128.616 178.284 128.447C178.176 128.279 178.026 128.149 177.836 128.057C177.646 127.965 177.433 127.919 177.196 127.919C176.944 127.919 176.724 127.972 176.537 128.076C176.351 128.179 176.207 128.323 176.104 128.508C176.004 128.694 175.954 128.912 175.954 129.161H175.199C175.199 128.777 175.287 128.44 175.464 128.15C175.641 127.86 175.883 127.633 176.188 127.471C176.495 127.309 176.84 127.228 177.222 127.228C177.606 127.228 177.946 127.309 178.243 127.471C178.54 127.633 178.772 127.852 178.941 128.127C179.109 128.403 179.194 128.709 179.194 129.046C179.194 129.287 179.15 129.523 179.062 129.754C178.977 129.982 178.828 130.237 178.614 130.519C178.403 130.798 178.109 131.14 177.734 131.543L176.261 133.118V133.169H179.309V133.874H175.173ZM182.846 133.963C182.424 133.963 182.047 133.891 181.716 133.745C181.388 133.6 181.126 133.399 180.932 133.14C180.74 132.88 180.635 132.578 180.618 132.235H181.425C181.442 132.446 181.515 132.628 181.643 132.782C181.771 132.933 181.938 133.051 182.145 133.134C182.352 133.217 182.582 133.259 182.833 133.259C183.115 133.259 183.365 133.21 183.583 133.112C183.8 133.013 183.971 132.877 184.095 132.702C184.218 132.527 184.28 132.324 184.28 132.094C184.28 131.852 184.221 131.64 184.101 131.457C183.982 131.271 183.807 131.126 183.576 131.021C183.346 130.917 183.064 130.864 182.731 130.864H182.206V130.16H182.731C182.991 130.16 183.22 130.113 183.416 130.019C183.615 129.925 183.769 129.793 183.88 129.622C183.993 129.452 184.05 129.251 184.05 129.02C184.05 128.799 184.001 128.605 183.903 128.441C183.804 128.277 183.666 128.149 183.486 128.057C183.309 127.965 183.1 127.919 182.859 127.919C182.633 127.919 182.419 127.961 182.219 128.044C182.02 128.125 181.858 128.244 181.732 128.399C181.606 128.553 181.538 128.739 181.527 128.956H180.759C180.772 128.613 180.875 128.312 181.07 128.054C181.264 127.793 181.518 127.591 181.831 127.445C182.147 127.3 182.494 127.228 182.872 127.228C183.277 127.228 183.625 127.31 183.915 127.474C184.206 127.636 184.429 127.851 184.584 128.118C184.74 128.385 184.818 128.673 184.818 128.982C184.818 129.351 184.721 129.666 184.527 129.926C184.335 130.187 184.073 130.367 183.743 130.467V130.519C184.157 130.587 184.48 130.763 184.713 131.047C184.945 131.329 185.061 131.677 185.061 132.094C185.061 132.45 184.964 132.77 184.77 133.054C184.578 133.336 184.316 133.558 183.983 133.72C183.65 133.882 183.271 133.963 182.846 133.963ZM187.308 132.977L187.257 133.323C187.22 133.566 187.165 133.827 187.09 134.104C187.018 134.381 186.942 134.643 186.863 134.888C186.784 135.134 186.719 135.329 186.668 135.474H186.091C186.119 135.338 186.155 135.157 186.2 134.933C186.245 134.709 186.29 134.458 186.335 134.181C186.382 133.906 186.42 133.624 186.45 133.336L186.488 132.977H187.308ZM190.592 133.963C190.153 133.963 189.764 133.885 189.427 133.729C189.092 133.572 188.831 133.355 188.643 133.08C188.455 132.802 188.362 132.486 188.364 132.132C188.362 131.855 188.417 131.599 188.528 131.364C188.639 131.127 188.79 130.929 188.982 130.772C189.176 130.611 189.393 130.51 189.632 130.467V130.429C189.318 130.348 189.069 130.172 188.883 129.901C188.697 129.628 188.605 129.317 188.608 128.969C188.605 128.636 188.69 128.339 188.861 128.076C189.031 127.814 189.266 127.607 189.565 127.455C189.866 127.304 190.208 127.228 190.592 127.228C190.972 127.228 191.312 127.304 191.61 127.455C191.909 127.607 192.144 127.814 192.315 128.076C192.487 128.339 192.575 128.636 192.577 128.969C192.575 129.317 192.48 129.628 192.292 129.901C192.107 130.172 191.86 130.348 191.553 130.429V130.467C191.79 130.51 192.003 130.611 192.193 130.772C192.383 130.929 192.534 131.127 192.648 131.364C192.761 131.599 192.818 131.855 192.82 132.132C192.818 132.486 192.722 132.802 192.532 133.08C192.345 133.355 192.083 133.572 191.748 133.729C191.415 133.885 191.03 133.963 190.592 133.963ZM190.592 133.259C190.889 133.259 191.145 133.211 191.361 133.115C191.576 133.019 191.743 132.883 191.86 132.708C191.977 132.533 192.037 132.328 192.039 132.094C192.037 131.846 191.973 131.627 191.847 131.437C191.721 131.247 191.55 131.098 191.332 130.989C191.116 130.88 190.87 130.826 190.592 130.826C190.313 130.826 190.063 130.88 189.843 130.989C189.626 131.098 189.454 131.247 189.328 131.437C189.204 131.627 189.143 131.846 189.145 132.094C189.143 132.328 189.2 132.533 189.315 132.708C189.432 132.883 189.6 133.019 189.818 133.115C190.035 133.211 190.294 133.259 190.592 133.259ZM190.592 130.147C190.827 130.147 191.035 130.1 191.217 130.006C191.4 129.913 191.544 129.781 191.649 129.613C191.753 129.444 191.807 129.247 191.809 129.02C191.807 128.799 191.754 128.605 191.652 128.441C191.55 128.275 191.408 128.147 191.226 128.057C191.045 127.965 190.834 127.919 190.592 127.919C190.347 127.919 190.132 127.965 189.949 128.057C189.765 128.147 189.623 128.275 189.523 128.441C189.423 128.605 189.374 128.799 189.376 129.02C189.374 129.247 189.424 129.444 189.526 129.613C189.631 129.781 189.775 129.913 189.959 130.006C190.142 130.1 190.353 130.147 190.592 130.147ZM193.894 132.529V131.876L196.775 127.317H197.249V128.329H196.928L194.752 131.774V131.825H198.631V132.529H193.894ZM196.98 133.874V132.331V132.026V127.317H197.735V133.874H196.98ZM201.918 127.228C202.187 127.23 202.456 127.281 202.725 127.381C202.994 127.482 203.239 127.648 203.461 127.881C203.683 128.111 203.861 128.426 203.996 128.825C204.13 129.224 204.198 129.725 204.198 130.327C204.198 130.909 204.142 131.427 204.031 131.879C203.922 132.329 203.764 132.709 203.557 133.019C203.352 133.328 203.103 133.563 202.808 133.723C202.516 133.883 202.185 133.963 201.816 133.963C201.449 133.963 201.121 133.891 200.833 133.745C200.547 133.598 200.312 133.394 200.129 133.134C199.947 132.872 199.831 132.567 199.78 132.222H200.561C200.631 132.523 200.771 132.771 200.98 132.968C201.192 133.162 201.47 133.259 201.816 133.259C202.322 133.259 202.721 133.038 203.013 132.596C203.308 132.154 203.455 131.53 203.455 130.724H203.404C203.284 130.903 203.142 131.058 202.978 131.188C202.814 131.318 202.631 131.418 202.43 131.489C202.23 131.559 202.016 131.594 201.79 131.594C201.415 131.594 201.07 131.501 200.756 131.316C200.445 131.128 200.195 130.871 200.007 130.544C199.821 130.216 199.729 129.84 199.729 129.417C199.729 129.016 199.818 128.649 199.998 128.316C200.179 127.981 200.433 127.714 200.759 127.516C201.088 127.317 201.474 127.221 201.918 127.228ZM201.918 127.932C201.649 127.932 201.407 127.999 201.192 128.134C200.978 128.266 200.809 128.445 200.683 128.672C200.559 128.896 200.497 129.144 200.497 129.417C200.497 129.691 200.557 129.939 200.676 130.163C200.798 130.385 200.963 130.562 201.172 130.695C201.384 130.825 201.624 130.89 201.893 130.89C202.095 130.89 202.284 130.851 202.459 130.772C202.634 130.69 202.787 130.581 202.917 130.442C203.049 130.301 203.153 130.142 203.228 129.965C203.302 129.786 203.34 129.599 203.34 129.405C203.34 129.149 203.278 128.908 203.154 128.684C203.032 128.46 202.864 128.279 202.648 128.14C202.435 128.001 202.191 127.932 201.918 127.932Z" fill="white"/>
<g style="mix-blend-mode:multiply" opacity="0.33" filter="url(#filter0_d_0_10671)">
<path d="M345.393 125.832L326.369 145.567V186.09H519.067V148.766C515.16 144.927 506.64 136.42 503.811 133.106C500.275 128.964 493.708 130.884 489.161 130.783C484.615 130.682 482.594 126.842 482.796 120.781C482.998 114.719 481.887 114.921 478.654 112.496C476.068 110.556 471.582 114.247 469.662 116.335C463.028 123.003 448.85 137.269 445.212 140.987C441.575 144.705 437.904 142.536 436.524 140.987C430.866 135.497 418.358 123.326 413.589 118.558C408.821 113.789 404.396 116.571 402.779 118.558C401.028 120.242 396.98 124.054 394.798 125.832C392.07 128.055 385.402 126.539 381.663 125.832C377.925 125.125 376.208 124.519 372.065 128.459C367.923 132.399 365.145 132.753 358.224 125.832C352.688 120.295 347.363 123.525 345.393 125.832Z" fill="url(#paint0_linear_0_10671)" shape-rendering="crispEdges"/>
</g>
<g filter="url(#filter1_dd_0_10671)">
<path d="M327.211 145.567L346.069 125.832C348.022 123.525 353.3 120.295 358.788 125.832C365.648 132.753 368.402 132.399 372.508 128.459C376.614 124.519 378.317 125.125 382.023 125.832C385.728 126.539 392.338 128.055 395.042 125.832C397.205 124.054 401.218 120.242 402.954 118.558C404.556 116.571 408.943 113.789 413.67 118.558C418.397 123.326 430.796 135.497 436.404 140.987C437.773 142.536 441.411 144.705 445.017 140.987C448.622 137.269 462.677 123.003 469.253 116.335C471.156 114.247 475.603 110.556 478.166 112.496C481.371 114.921 482.473 114.719 482.273 120.781C482.072 126.842 484.075 130.682 488.582 130.783C493.089 130.884 499.598 128.964 503.104 133.106C505.908 136.42 514.354 144.927 518.226 148.766" stroke="white" stroke-width="1.73778" stroke-linecap="round" stroke-linejoin="round"/>
</g>
<path d="M339.245 197.461H339.857V201.075C339.857 201.398 339.798 201.672 339.679 201.897C339.561 202.122 339.394 202.294 339.178 202.41C338.963 202.527 338.709 202.586 338.416 202.586C338.139 202.586 337.893 202.536 337.678 202.435C337.462 202.333 337.292 202.188 337.169 202.001C337.046 201.813 336.984 201.59 336.984 201.332H337.586C337.586 201.475 337.622 201.6 337.692 201.707C337.765 201.812 337.864 201.895 337.989 201.954C338.114 202.013 338.256 202.043 338.416 202.043C338.592 202.043 338.741 202.006 338.865 201.932C338.988 201.858 339.082 201.749 339.146 201.606C339.212 201.461 339.245 201.284 339.245 201.075V197.461ZM342.121 202.605C341.88 202.605 341.662 202.56 341.467 202.47C341.271 202.378 341.115 202.245 341 202.072C340.885 201.898 340.827 201.687 340.827 201.44C340.827 201.223 340.87 201.047 340.956 200.912C341.041 200.776 341.156 200.669 341.299 200.591C341.442 200.514 341.6 200.456 341.773 200.418C341.947 200.379 342.122 200.348 342.298 200.325C342.529 200.295 342.716 200.273 342.859 200.258C343.004 200.242 343.109 200.214 343.175 200.177C343.242 200.139 343.276 200.073 343.276 199.979V199.959C343.276 199.716 343.209 199.527 343.076 199.392C342.944 199.257 342.744 199.189 342.476 199.189C342.198 199.189 341.98 199.25 341.822 199.372C341.664 199.494 341.553 199.624 341.489 199.762L340.936 199.564C341.035 199.334 341.166 199.155 341.331 199.026C341.497 198.896 341.678 198.806 341.874 198.755C342.071 198.702 342.266 198.676 342.456 198.676C342.578 198.676 342.718 198.691 342.876 198.72C343.036 198.748 343.19 198.807 343.338 198.895C343.487 198.984 343.612 199.118 343.71 199.298C343.809 199.477 343.859 199.717 343.859 200.019V202.517H343.276V202.003H343.246C343.207 202.085 343.141 202.173 343.049 202.267C342.957 202.361 342.834 202.441 342.681 202.507C342.528 202.573 342.341 202.605 342.121 202.605ZM342.21 202.082C342.44 202.082 342.634 202.037 342.792 201.946C342.952 201.856 343.072 201.739 343.153 201.596C343.235 201.453 343.276 201.302 343.276 201.144V200.611C343.251 200.641 343.197 200.668 343.113 200.692C343.031 200.715 342.935 200.736 342.827 200.754C342.72 200.771 342.615 200.785 342.513 200.799C342.413 200.81 342.331 200.82 342.269 200.828C342.117 200.848 341.976 200.88 341.844 200.924C341.714 200.967 341.609 201.032 341.528 201.119C341.449 201.205 341.41 201.322 341.41 201.47C341.41 201.672 341.485 201.825 341.634 201.929C341.786 202.031 341.978 202.082 342.21 202.082ZM345.504 200.236V202.517H344.922V198.725H345.485V199.318H345.534C345.623 199.125 345.758 198.97 345.939 198.853C346.12 198.735 346.353 198.676 346.64 198.676C346.897 198.676 347.121 198.728 347.314 198.834C347.506 198.937 347.656 199.095 347.763 199.308C347.87 199.518 347.923 199.785 347.923 200.107V202.517H347.341V200.147C347.341 199.849 347.264 199.617 347.109 199.451C346.954 199.283 346.742 199.199 346.472 199.199C346.286 199.199 346.12 199.239 345.973 199.32C345.829 199.401 345.714 199.518 345.63 199.673C345.546 199.828 345.504 200.015 345.504 200.236Z" fill="white"/>
<rect x="402.408" y="193.041" width="38.3778" height="14.9511" rx="7.47555" fill="white"/>
<path d="M411.929 197.461H412.66L414.378 201.658H414.437L416.155 197.461H416.886V202.517H416.313V198.676H416.264L414.684 202.517H414.131L412.551 198.676H412.502V202.517H411.929V197.461ZM419.15 202.605C418.91 202.605 418.692 202.56 418.496 202.47C418.3 202.378 418.144 202.245 418.029 202.072C417.914 201.898 417.856 201.687 417.856 201.44C417.856 201.223 417.899 201.047 417.985 200.912C418.07 200.776 418.185 200.669 418.328 200.591C418.471 200.514 418.629 200.456 418.802 200.418C418.976 200.379 419.152 200.348 419.328 200.325C419.558 200.295 419.745 200.273 419.888 200.258C420.033 200.242 420.138 200.214 420.204 200.177C420.271 200.139 420.305 200.073 420.305 199.979V199.959C420.305 199.716 420.238 199.527 420.105 199.392C419.974 199.257 419.774 199.189 419.505 199.189C419.227 199.189 419.009 199.25 418.851 199.372C418.693 199.494 418.582 199.624 418.518 199.762L417.965 199.564C418.064 199.334 418.195 199.155 418.36 199.026C418.526 198.896 418.707 198.806 418.903 198.755C419.101 198.702 419.295 198.676 419.486 198.676C419.607 198.676 419.747 198.691 419.905 198.72C420.065 198.748 420.219 198.807 420.367 198.895C420.517 198.984 420.641 199.118 420.74 199.298C420.838 199.477 420.888 199.717 420.888 200.019V202.517H420.305V202.003H420.276C420.236 202.085 420.17 202.173 420.078 202.267C419.986 202.361 419.863 202.441 419.71 202.507C419.557 202.573 419.37 202.605 419.15 202.605ZM419.239 202.082C419.469 202.082 419.663 202.037 419.821 201.946C419.981 201.856 420.101 201.739 420.182 201.596C420.264 201.453 420.305 201.302 420.305 201.144V200.611C420.28 200.641 420.226 200.668 420.142 200.692C420.06 200.715 419.964 200.736 419.856 200.754C419.749 200.771 419.644 200.785 419.542 200.799C419.442 200.81 419.361 200.82 419.298 200.828C419.147 200.848 419.005 200.88 418.873 200.924C418.743 200.967 418.638 201.032 418.557 201.119C418.478 201.205 418.439 201.322 418.439 201.47C418.439 201.672 418.514 201.825 418.664 201.929C418.815 202.031 419.007 202.082 419.239 202.082ZM421.951 202.517V198.725H422.514V199.298H422.553C422.622 199.11 422.747 198.958 422.928 198.841C423.109 198.724 423.314 198.666 423.541 198.666C423.583 198.666 423.637 198.667 423.701 198.668C423.765 198.67 423.814 198.672 423.847 198.676V199.268C423.827 199.263 423.782 199.256 423.711 199.246C423.642 199.234 423.569 199.229 423.491 199.229C423.307 199.229 423.142 199.267 422.998 199.345C422.854 199.42 422.741 199.526 422.657 199.661C422.575 199.794 422.534 199.946 422.534 200.117V202.517H421.951ZM425.962 202.596C425.607 202.596 425.301 202.512 425.044 202.344C424.787 202.176 424.59 201.945 424.451 201.65C424.313 201.356 424.244 201.019 424.244 200.641C424.244 200.256 424.315 199.916 424.456 199.621C424.6 199.325 424.799 199.094 425.054 198.928C425.31 198.76 425.61 198.676 425.952 198.676C426.219 198.676 426.459 198.725 426.673 198.824C426.887 198.923 427.062 199.061 427.199 199.239C427.335 199.416 427.42 199.624 427.453 199.861H426.871C426.826 199.688 426.727 199.535 426.574 199.401C426.423 199.266 426.219 199.199 425.962 199.199C425.735 199.199 425.536 199.258 425.365 199.377C425.195 199.494 425.063 199.659 424.967 199.873C424.874 200.085 424.827 200.335 424.827 200.621C424.827 200.914 424.873 201.169 424.965 201.386C425.059 201.603 425.19 201.772 425.36 201.892C425.531 202.012 425.732 202.072 425.962 202.072C426.114 202.072 426.251 202.046 426.374 201.993C426.498 201.941 426.602 201.865 426.688 201.766C426.773 201.667 426.834 201.549 426.871 201.411H427.453C427.42 201.635 427.339 201.836 427.209 202.016C427.08 202.193 426.91 202.335 426.698 202.44C426.487 202.544 426.242 202.596 425.962 202.596ZM428.887 200.236V202.517H428.305V197.461H428.887V199.318H428.937C429.025 199.122 429.159 198.966 429.336 198.851C429.516 198.734 429.754 198.676 430.052 198.676C430.311 198.676 430.537 198.728 430.731 198.831C430.925 198.933 431.076 199.09 431.183 199.303C431.291 199.513 431.346 199.782 431.346 200.107V202.517H430.763V200.147C430.763 199.846 430.685 199.613 430.529 199.448C430.374 199.282 430.159 199.199 429.884 199.199C429.694 199.199 429.522 199.239 429.371 199.32C429.221 199.401 429.103 199.518 429.016 199.673C428.93 199.828 428.887 200.015 428.887 200.236Z" fill="white"/>
<path d="M374.766 202.517V197.461H377.798V198.004H375.378V199.712H377.57V200.256H375.378V202.517H374.766ZM380.078 202.596C379.713 202.596 379.398 202.515 379.133 202.354C378.87 202.191 378.666 201.964 378.523 201.672C378.382 201.379 378.311 201.039 378.311 200.65C378.311 200.262 378.382 199.92 378.523 199.624C378.666 199.326 378.866 199.094 379.121 198.928C379.377 198.76 379.677 198.676 380.019 198.676C380.217 198.676 380.412 198.709 380.604 198.774C380.797 198.84 380.972 198.947 381.13 199.095C381.288 199.242 381.414 199.436 381.508 199.678C381.601 199.92 381.648 200.218 381.648 200.571V200.818H378.726V200.315H381.056C381.056 200.101 381.013 199.91 380.927 199.742C380.844 199.574 380.723 199.442 380.567 199.345C380.412 199.248 380.23 199.199 380.019 199.199C379.787 199.199 379.586 199.257 379.417 199.372C379.249 199.485 379.12 199.633 379.029 199.816C378.939 199.999 378.894 200.195 378.894 200.404V200.739C378.894 201.026 378.943 201.268 379.042 201.468C379.142 201.665 379.281 201.816 379.459 201.919C379.636 202.021 379.843 202.072 380.078 202.072C380.231 202.072 380.37 202.051 380.493 202.008C380.618 201.964 380.726 201.898 380.816 201.811C380.907 201.722 380.977 201.612 381.026 201.48L381.589 201.638C381.53 201.829 381.43 201.997 381.29 202.141C381.15 202.285 380.978 202.396 380.772 202.477C380.566 202.556 380.335 202.596 380.078 202.596ZM382.613 202.517V197.461H383.196V199.327H383.245C383.288 199.262 383.347 199.178 383.423 199.076C383.5 198.972 383.611 198.88 383.754 198.799C383.899 198.717 384.094 198.676 384.341 198.676C384.661 198.676 384.942 198.756 385.186 198.915C385.429 199.075 385.619 199.301 385.756 199.594C385.892 199.887 385.961 200.232 385.961 200.631C385.961 201.032 385.892 201.38 385.756 201.675C385.619 201.968 385.43 202.195 385.188 202.356C384.946 202.516 384.667 202.596 384.351 202.596C384.108 202.596 383.913 202.555 383.766 202.475C383.62 202.392 383.507 202.299 383.428 202.196C383.349 202.09 383.288 202.003 383.245 201.934H383.176V202.517H382.613ZM383.186 200.621C383.186 200.907 383.228 201.16 383.312 201.379C383.396 201.596 383.519 201.766 383.68 201.89C383.841 202.011 384.039 202.072 384.272 202.072C384.516 202.072 384.719 202.008 384.882 201.88C385.046 201.75 385.17 201.575 385.252 201.356C385.336 201.136 385.378 200.891 385.378 200.621C385.378 200.354 385.337 200.114 385.255 199.9C385.174 199.684 385.051 199.514 384.887 199.389C384.724 199.262 384.519 199.199 384.272 199.199C384.035 199.199 383.836 199.259 383.675 199.379C383.514 199.498 383.392 199.664 383.31 199.878C383.227 200.09 383.186 200.338 383.186 200.621Z" fill="white"/>
<path d="M458.368 202.517H457.727L459.583 197.461H460.215L462.071 202.517H461.429L459.919 198.261H459.879L458.368 202.517ZM458.605 200.542H461.192V201.085H458.605V200.542ZM462.779 203.938V198.725H463.342V199.327H463.411C463.454 199.262 463.513 199.178 463.589 199.076C463.666 198.972 463.777 198.88 463.92 198.799C464.065 198.717 464.26 198.676 464.507 198.676C464.827 198.676 465.108 198.756 465.352 198.915C465.595 199.075 465.785 199.301 465.922 199.594C466.058 199.887 466.127 200.232 466.127 200.631C466.127 201.032 466.058 201.38 465.922 201.675C465.785 201.968 465.596 202.195 465.354 202.356C465.112 202.516 464.833 202.596 464.517 202.596C464.274 202.596 464.079 202.555 463.932 202.475C463.786 202.392 463.673 202.299 463.594 202.196C463.515 202.09 463.454 202.003 463.411 201.934H463.362V203.938H462.779ZM463.352 200.621C463.352 200.907 463.394 201.16 463.478 201.379C463.562 201.596 463.685 201.766 463.846 201.89C464.007 202.011 464.205 202.072 464.438 202.072C464.682 202.072 464.885 202.008 465.048 201.88C465.212 201.75 465.336 201.575 465.418 201.356C465.502 201.136 465.544 200.891 465.544 200.621C465.544 200.354 465.503 200.114 465.421 199.9C465.34 199.684 465.217 199.514 465.053 199.389C464.89 199.262 464.685 199.199 464.438 199.199C464.201 199.199 464.002 199.259 463.841 199.379C463.68 199.498 463.558 199.664 463.476 199.878C463.393 200.09 463.352 200.338 463.352 200.621ZM467.015 202.517V198.725H467.578V199.298H467.618C467.687 199.11 467.812 198.958 467.993 198.841C468.174 198.724 468.378 198.666 468.605 198.666C468.648 198.666 468.701 198.667 468.765 198.668C468.83 198.67 468.878 198.672 468.911 198.676V199.268C468.891 199.263 468.846 199.256 468.775 199.246C468.706 199.234 468.633 199.229 468.556 199.229C468.371 199.229 468.207 199.267 468.062 199.345C467.919 199.42 467.805 199.526 467.721 199.661C467.639 199.794 467.598 199.946 467.598 200.117V202.517H467.015Z" fill="white"/>
<path d="M495.767 197.461H496.498L498.216 201.658H498.275L499.993 197.461H500.724V202.517H500.151V198.676H500.102L498.522 202.517H497.969L496.389 198.676H496.34V202.517H495.767V197.461ZM502.988 202.605C502.748 202.605 502.53 202.56 502.334 202.47C502.138 202.378 501.983 202.245 501.867 202.072C501.752 201.898 501.695 201.687 501.695 201.44C501.695 201.223 501.737 201.047 501.823 200.912C501.909 200.776 502.023 200.669 502.166 200.591C502.309 200.514 502.467 200.456 502.64 200.418C502.814 200.379 502.99 200.348 503.166 200.325C503.396 200.295 503.583 200.273 503.726 200.258C503.871 200.242 503.976 200.214 504.042 200.177C504.11 200.139 504.143 200.073 504.143 199.979V199.959C504.143 199.716 504.077 199.527 503.943 199.392C503.812 199.257 503.612 199.189 503.344 199.189C503.065 199.189 502.847 199.25 502.689 199.372C502.531 199.494 502.42 199.624 502.356 199.762L501.803 199.564C501.902 199.334 502.034 199.155 502.198 199.026C502.364 198.896 502.545 198.806 502.741 198.755C502.939 198.702 503.133 198.676 503.324 198.676C503.446 198.676 503.585 198.691 503.743 198.72C503.903 198.748 504.057 198.807 504.205 198.895C504.355 198.984 504.479 199.118 504.578 199.298C504.676 199.477 504.726 199.717 504.726 200.019V202.517H504.143V202.003H504.114C504.074 202.085 504.008 202.173 503.916 202.267C503.824 202.361 503.701 202.441 503.548 202.507C503.395 202.573 503.209 202.605 502.988 202.605ZM503.077 202.082C503.307 202.082 503.501 202.037 503.659 201.946C503.819 201.856 503.939 201.739 504.02 201.596C504.102 201.453 504.143 201.302 504.143 201.144V200.611C504.119 200.641 504.064 200.668 503.98 200.692C503.898 200.715 503.803 200.736 503.694 200.754C503.587 200.771 503.483 200.785 503.381 200.799C503.28 200.81 503.199 200.82 503.136 200.828C502.985 200.848 502.843 200.88 502.712 200.924C502.582 200.967 502.476 201.032 502.396 201.119C502.317 201.205 502.277 201.322 502.277 201.47C502.277 201.672 502.352 201.825 502.502 201.929C502.653 202.031 502.845 202.082 503.077 202.082ZM506.029 203.938C505.93 203.938 505.842 203.93 505.764 203.914C505.687 203.899 505.634 203.884 505.604 203.869L505.752 203.356C505.894 203.392 506.019 203.405 506.127 203.395C506.236 203.385 506.332 203.337 506.416 203.25C506.502 203.164 506.58 203.025 506.651 202.833L506.759 202.536L505.357 198.725H505.989L507.036 201.746H507.075L508.122 198.725H508.754L507.144 203.07C507.072 203.265 506.982 203.427 506.875 203.556C506.768 203.686 506.644 203.782 506.502 203.845C506.363 203.907 506.205 203.938 506.029 203.938Z" fill="white"/>
<line x1="422.177" y1="126.89" x2="422.177" y2="181.963" stroke="white" stroke-width="1.30333" stroke-linecap="round"/>
<g filter="url(#filter2_d_0_10671)">
<circle cx="422.045" cy="126.239" r="4.711" fill="white"/>
<circle cx="422.045" cy="126.239" r="4.05934" stroke="white" stroke-width="1.30333"/>
</g>
<path d="M389.669 81.2682V95.1704H386.73V84.0581H386.649L383.465 86.0539V83.4472L386.906 81.2682H389.669ZM399.022 81.2682V95.1704H396.082V84.0581H396.001L392.817 86.0539V83.4472L396.259 81.2682H399.022ZM404.749 93.2697L404.675 94.0164C404.616 94.6138 404.503 95.2089 404.335 95.8017C404.172 96.3991 404 96.9399 403.819 97.4241C403.643 97.9083 403.5 98.2885 403.392 98.5645H401.518C401.586 98.2975 401.679 97.9242 401.796 97.4445C401.914 96.9693 402.025 96.4353 402.129 95.8424C402.233 95.2496 402.299 94.6455 402.326 94.03L402.36 93.2697H404.749ZM407.393 95.1704L413.156 83.7663V83.6712H406.443V81.2682H416.197V83.7052L410.428 95.1704H407.393ZM423.103 95.3605C422.143 95.3605 421.288 95.184 420.537 94.831C419.79 94.478 419.197 93.9915 418.758 93.3715C418.319 92.7516 418.091 92.0411 418.073 91.24H420.924C420.955 91.7786 421.182 92.2153 421.603 92.5502C422.023 92.8851 422.524 93.0525 423.103 93.0525C423.564 93.0525 423.972 92.9507 424.325 92.747C424.682 92.5389 424.96 92.2515 425.16 91.8849C425.363 91.5138 425.465 91.0884 425.465 90.6087C425.465 90.12 425.361 89.6901 425.153 89.319C424.949 88.9479 424.666 88.6583 424.304 88.4501C423.942 88.2419 423.528 88.1356 423.062 88.1311C422.655 88.1311 422.259 88.2148 421.874 88.3822C421.494 88.5497 421.198 88.7782 420.985 89.0678L418.371 88.5994L419.03 81.2682H427.529V83.6712H421.453L421.093 87.1536H421.175C421.419 86.8096 421.788 86.5245 422.281 86.2982C422.775 86.072 423.327 85.9588 423.938 85.9588C424.775 85.9588 425.522 86.1557 426.178 86.5494C426.834 86.9431 427.352 87.4839 427.732 88.1718C428.112 88.8551 428.3 89.6426 428.296 90.5341C428.3 91.4708 428.083 92.3035 427.644 93.0321C427.21 93.7562 426.601 94.3264 425.818 94.7428C425.04 95.1546 424.135 95.3605 423.103 95.3605ZM435.681 95.3605C434.966 95.356 434.276 95.236 433.611 95.0007C432.95 94.7654 432.357 94.383 431.832 93.8535C431.307 93.324 430.891 92.6226 430.583 91.7492C430.28 90.8757 430.129 89.8032 430.129 88.5316C430.133 87.364 430.267 86.3209 430.529 85.4022C430.796 84.479 431.176 83.6961 431.669 83.0535C432.167 82.4109 432.762 81.9221 433.455 81.5872C434.147 81.2478 434.923 81.0781 435.783 81.0781C436.711 81.0781 437.53 81.2591 438.24 81.6212C438.951 81.9787 439.521 82.4652 439.951 83.0806C440.386 83.6961 440.648 84.3862 440.738 85.151H437.84C437.727 84.6668 437.489 84.2867 437.127 84.0106C436.765 83.7346 436.317 83.5965 435.783 83.5965C434.878 83.5965 434.19 83.9903 433.72 84.7777C433.253 85.5651 433.016 86.6354 433.007 87.9885H433.102C433.31 87.5767 433.591 87.226 433.944 86.9363C434.301 86.6422 434.706 86.4182 435.159 86.2643C435.616 86.1059 436.098 86.0267 436.604 86.0267C437.428 86.0267 438.161 86.2213 438.804 86.6105C439.446 86.9952 439.953 87.5246 440.324 88.1989C440.696 88.8732 440.881 89.6448 440.881 90.5137C440.881 91.455 440.662 92.2922 440.223 93.0253C439.788 93.7585 439.179 94.3332 438.397 94.7495C437.618 95.1614 436.713 95.365 435.681 95.3605ZM435.668 93.0525C436.12 93.0525 436.525 92.9439 436.883 92.7267C437.24 92.5094 437.521 92.2153 437.725 91.8442C437.928 91.4731 438.03 91.0568 438.03 90.5952C438.03 90.1336 437.928 89.7195 437.725 89.3529C437.525 88.9864 437.249 88.6945 436.896 88.4773C436.543 88.26 436.141 88.1514 435.688 88.1514C435.349 88.1514 435.034 88.2148 434.745 88.3415C434.459 88.4682 434.208 88.6447 433.991 88.871C433.778 89.0972 433.611 89.3597 433.489 89.6584C433.367 89.9526 433.305 90.2671 433.305 90.602C433.305 91.05 433.407 91.4595 433.611 91.8306C433.819 92.2017 434.1 92.4981 434.453 92.7199C434.81 92.9416 435.215 93.0525 435.668 93.0525Z" fill="white"/>
<path d="M450.449 95.5869V95.1031L451.946 93.5523C452.106 93.3838 452.237 93.2362 452.341 93.1095C452.446 92.9814 452.525 92.8597 452.576 92.7445C452.628 92.6293 452.654 92.5069 452.654 92.3773C452.654 92.2305 452.62 92.1038 452.55 91.9972C452.481 91.8892 452.387 91.8064 452.268 91.7488C452.148 91.6898 452.013 91.6603 451.864 91.6603C451.705 91.6603 451.567 91.6927 451.449 91.7575C451.331 91.8222 451.24 91.9137 451.177 92.0318C451.113 92.1498 451.082 92.2881 451.082 92.4465H450.445C450.445 92.1772 450.507 91.9418 450.63 91.7402C450.754 91.5386 450.924 91.3824 451.14 91.2715C451.356 91.1592 451.602 91.103 451.877 91.103C452.155 91.103 452.399 91.1584 452.611 91.2693C452.824 91.3788 452.99 91.5285 453.11 91.7186C453.229 91.9072 453.289 92.1203 453.289 92.3579C453.289 92.522 453.258 92.6826 453.196 92.8395C453.136 92.9965 453.03 93.1715 452.879 93.3644C452.728 93.5559 452.517 93.7885 452.248 94.062L451.369 94.9821V95.0145H453.36V95.5869H450.449ZM455.719 95.6474C455.422 95.6474 455.157 95.5963 454.924 95.494C454.692 95.3918 454.509 95.25 454.373 95.0685C454.24 94.8857 454.168 94.674 454.157 94.4335H454.836C454.844 94.5646 454.888 94.6783 454.967 94.7748C455.048 94.8698 455.153 94.9433 455.283 94.9951C455.412 95.0469 455.556 95.0729 455.715 95.0729C455.889 95.0729 456.043 95.0426 456.177 94.9821C456.312 94.9217 456.418 94.8374 456.494 94.7294C456.571 94.62 456.609 94.494 456.609 94.3515C456.609 94.2032 456.571 94.0728 456.494 93.9605C456.42 93.8468 456.309 93.7575 456.164 93.6927C456.02 93.6279 455.846 93.5955 455.641 93.5955H455.268V93.0512H455.641C455.805 93.0512 455.949 93.0217 456.073 92.9627C456.199 92.9036 456.296 92.8216 456.367 92.7164C456.438 92.6099 456.473 92.4853 456.473 92.3428C456.473 92.206 456.442 92.0872 456.38 91.9864C456.319 91.8842 456.233 91.8042 456.121 91.7467C456.01 91.6891 455.879 91.6603 455.728 91.6603C455.584 91.6603 455.449 91.6869 455.324 91.7402C455.2 91.792 455.099 91.8669 455.021 91.9648C454.944 92.0613 454.902 92.1772 454.896 92.3125H454.25C454.258 92.0735 454.328 91.8633 454.462 91.6819C454.597 91.5004 454.776 91.3586 454.998 91.2564C455.219 91.1541 455.466 91.103 455.736 91.103C456.02 91.103 456.265 91.1584 456.471 91.2693C456.678 91.3788 456.838 91.5249 456.95 91.7078C457.064 91.8906 457.12 92.0908 457.119 92.3082C457.12 92.5559 457.051 92.7661 456.911 92.9389C456.773 93.1117 456.589 93.2276 456.358 93.2866V93.3212C456.652 93.3658 456.88 93.4825 457.041 93.6711C457.204 93.8597 457.284 94.0937 457.283 94.3731C457.284 94.6164 457.217 94.8346 457.08 95.0275C456.944 95.2205 456.759 95.3724 456.525 95.4832C456.29 95.5927 456.021 95.6474 455.719 95.6474ZM460.408 94.7575V94.5243C460.408 94.3572 460.443 94.2046 460.512 94.0664C460.582 93.9267 460.685 93.8151 460.819 93.7316C460.954 93.6466 461.117 93.6041 461.309 93.6041C461.505 93.6041 461.669 93.6459 461.801 93.7294C461.934 93.8129 462.034 93.9245 462.101 94.0642C462.171 94.2039 462.205 94.3572 462.205 94.5243V94.7575C462.205 94.9246 462.171 95.0779 462.101 95.2176C462.032 95.3558 461.931 95.4674 461.797 95.5524C461.664 95.6359 461.502 95.6776 461.309 95.6776C461.114 95.6776 460.95 95.6359 460.816 95.5524C460.682 95.4674 460.581 95.3558 460.512 95.2176C460.443 95.0779 460.408 94.9246 460.408 94.7575ZM460.911 94.5243V94.7575C460.911 94.8814 460.941 94.9937 461 95.0945C461.059 95.1953 461.162 95.2457 461.309 95.2457C461.454 95.2457 461.556 95.1953 461.613 95.0945C461.671 94.9937 461.7 94.8814 461.7 94.7575V94.5243C461.7 94.4004 461.672 94.2881 461.616 94.1873C461.561 94.0865 461.459 94.0361 461.309 94.0361C461.165 94.0361 461.063 94.0865 461.002 94.1873C460.942 94.2881 460.911 94.4004 460.911 94.5243ZM458.183 92.2261V91.9929C458.183 91.8258 458.218 91.6725 458.287 91.5328C458.358 91.3932 458.46 91.2816 458.594 91.198C458.729 91.1145 458.893 91.0728 459.084 91.0728C459.28 91.0728 459.444 91.1145 459.577 91.198C459.709 91.2816 459.809 91.3932 459.877 91.5328C459.944 91.6725 459.978 91.8258 459.978 91.9929V92.2261C459.978 92.3932 459.944 92.5465 459.875 92.6862C459.807 92.8244 459.706 92.936 459.572 93.021C459.44 93.1045 459.277 93.1463 459.084 93.1463C458.888 93.1463 458.723 93.1045 458.59 93.021C458.457 92.936 458.356 92.8244 458.287 92.6862C458.218 92.5465 458.183 92.3932 458.183 92.2261ZM458.689 91.9929V92.2261C458.689 92.35 458.718 92.4623 458.775 92.5631C458.834 92.6639 458.937 92.7143 459.084 92.7143C459.228 92.7143 459.329 92.6639 459.387 92.5631C459.446 92.4623 459.475 92.35 459.475 92.2261V91.9929C459.475 91.869 459.447 91.7567 459.391 91.6559C459.335 91.5551 459.232 91.5047 459.084 91.5047C458.94 91.5047 458.838 91.5551 458.777 91.6559C458.718 91.7567 458.689 91.869 458.689 91.9929ZM458.389 95.5869L461.43 91.1635H461.946L458.905 95.5869H458.389Z" fill="white"/>
<path d="M446.096 91.7071C446.428 91.2435 447.117 91.2435 447.448 91.7071L448.806 93.6046C449.199 94.1548 448.806 94.9196 448.129 94.9196H445.415C444.738 94.9196 444.345 94.1548 444.739 93.6046L446.096 91.7071Z" fill="#04CE00"/>
<defs>
<filter id="filter0_d_0_10671" x="302.643" y="111.95" width="240.149" height="121.592" filterUnits="userSpaceOnUse" color-interpolation-filters="sRGB">
<feFlood flood-opacity="0" result="BackgroundImageFix"/>
<feColorMatrix in="SourceAlpha" type="matrix" values="0 0 0 0 0 0 0 0 0 0 0 0 0 0 0 0 0 0 127 0" result="hardAlpha"/>
<feOffset dy="23.7257"/>
<feGaussianBlur stdDeviation="11.8629"/>
<feComposite in2="hardAlpha" operator="out"/>
<feColorMatrix type="matrix" values="0 0 0 0 1 0 0 0 0 0.428333 0 0 0 0 0.183333 0 0 0 1 0"/>
<feBlend mode="normal" in2="BackgroundImageFix" result="effect1_dropShadow_0_10671"/>
<feBlend mode="normal" in="SourceGraphic" in2="effect1_dropShadow_0_10671" result="shape"/>
</filter>
<filter id="filter1_dd_0_10671" x="302.616" y="93.2848" width="240.205" height="86.0076" filterUnits="userSpaceOnUse" color-interpolation-filters="sRGB">
<feFlood flood-opacity="0" result="BackgroundImageFix"/>
<feColorMatrix in="SourceAlpha" type="matrix" values="0 0 0 0 0 0 0 0 0 0 0 0 0 0 0 0 0 0 127 0" result="hardAlpha"/>
<feOffset dy="5.93143"/>
<feGaussianBlur stdDeviation="11.8629"/>
<feComposite in2="hardAlpha" operator="out"/>
<feColorMatrix type="matrix" values="0 0 0 0 1 0 0 0 0 0.428333 0 0 0 0 0.183333 0 0 0 1 0"/>
<feBlend mode="normal" in2="BackgroundImageFix" result="effect1_dropShadow_0_10671"/>
<feColorMatrix in="SourceAlpha" type="matrix" values="0 0 0 0 0 0 0 0 0 0 0 0 0 0 0 0 0 0 127 0" result="hardAlpha"/>
<feOffset dy="4.74514"/>
<feGaussianBlur stdDeviation="5.93143"/>
<feComposite in2="hardAlpha" operator="out"/>
<feColorMatrix type="matrix" values="0 0 0 0 1 0 0 0 0 0.603922 0 0 0 0 0.207843 0 0 0 1 0"/>
<feBlend mode="normal" in2="effect1_dropShadow_0_10671" result="effect2_dropShadow_0_10671"/>
<feBlend mode="normal" in="SourceGraphic" in2="effect2_dropShadow_0_10671" result="shape"/>
</filter>
<filter id="filter2_d_0_10671" x="413.858" y="121.093" width="16.373" height="16.373" filterUnits="userSpaceOnUse" color-interpolation-filters="sRGB">
<feFlood flood-opacity="0" result="BackgroundImageFix"/>
<feColorMatrix in="SourceAlpha" type="matrix" values="0 0 0 0 0 0 0 0 0 0 0 0 0 0 0 0 0 0 127 0" result="hardAlpha"/>
<feOffset dy="3.04111"/>
<feGaussianBlur stdDeviation="1.73778"/>
<feComposite in2="hardAlpha" operator="out"/>
<feColorMatrix type="matrix" values="0 0 0 0 0.290196 0 0 0 0 0.227451 0 0 0 0 1 0 0 0 0.13 0"/>
<feBlend mode="normal" in2="BackgroundImageFix" result="effect1_dropShadow_0_10671"/>
<feBlend mode="normal" in="SourceGraphic" in2="effect1_dropShadow_0_10671" result="shape"/>
</filter>
<linearGradient id="paint0_linear_0_10671" x1="422.718" y1="111.95" x2="422.718" y2="186.09" gradientUnits="userSpaceOnUse">
<stop offset="0.65" stop-color="#EC983E"/>
<stop offset="1" stop-color="white" stop-opacity="0.18"/>
</linearGradient>
</defs>
</svg>
