<svg width="44" height="45" viewBox="0 0 44 45" fill="none" xmlns="http://www.w3.org/2000/svg">
<path d="M40.5635 25.3823C40.8153 25.1288 40.9569 24.7857 40.9569 24.4285C40.9569 24.071 40.8153 23.7279 40.5635 23.4744L36.5047 19.4156H36.5043C36.2526 19.1655 35.9122 19.0245 35.5573 19.0232V9.55201C35.5566 8.44892 35.1072 7.39421 34.3126 6.62945C33.561 5.86943 32.5401 5.43672 31.4713 5.42529H7.11751C6.07448 5.42563 5.07142 5.82779 4.3168 6.54815C3.51382 7.31387 3.05928 8.37467 3.05859 9.48412V25.7203C3.06665 26.7804 3.48895 27.7953 4.23551 28.5482C4.99283 29.3276 6.03083 29.771 7.11742 29.7791H24.1382L22.3791 31.5244V31.5248C22.126 31.7799 21.9847 32.1257 21.9867 32.4852V36.5444C21.9884 36.9059 22.1344 37.2517 22.3926 37.5048C22.6447 37.7549 22.9847 37.8959 23.3399 37.8972H27.4937H27.4934C27.8502 37.8922 28.191 37.7462 28.4407 37.4914L40.5635 25.3823ZM37.6816 24.4215L36.8967 25.2198L34.705 23.028L35.1243 22.6221L35.5033 22.2431L37.6816 24.4215ZM30.5784 23.3392L24.2734 17.6025L32.8242 9.83624V21.1069L30.5784 23.3392ZM26.8441 27.0734H7.90176L16.3039 19.429L16.5882 19.6321C17.3324 20.2975 18.2955 20.6657 19.2942 20.6657C20.2925 20.6657 21.256 20.2974 22.0002 19.6321L22.2436 19.4022L28.6433 25.22L26.8441 27.0734ZM5.7645 9.83607L14.2885 17.6023L5.7645 25.3686V9.83607ZM30.6597 8.13141L21.2565 16.6959L20.2011 17.6567V17.6564C19.9516 17.8847 19.626 18.0112 19.288 18.0112C18.9496 18.0112 18.624 17.8847 18.3745 17.6564L17.3056 16.6956L7.90237 8.13142L30.6597 8.13141ZM26.9255 35.1914L24.7066 35.1911V33.04L28.3734 29.3869L32.8243 24.9487L35.0027 27.127L26.9255 35.1914ZM40.9427 37.8971C40.9427 38.2559 40.8004 38.6 40.5466 38.8538C40.2929 39.1076 39.9488 39.2503 39.5899 39.2503H31.4718C30.9884 39.2503 30.5416 38.9921 30.2999 38.5735C30.0582 38.1549 30.0582 37.6393 30.2999 37.2207C30.5416 36.8021 30.9884 36.5443 31.4718 36.5443H39.5899C39.9487 36.5443 40.2928 36.6866 40.5466 36.9404C40.8004 37.1942 40.9427 37.5382 40.9427 37.8971Z" fill="white"/>
</svg>
