<svg width="247" height="34" viewBox="0 0 247 34" fill="none" xmlns="http://www.w3.org/2000/svg">
<path d="M57.3327 5.43701C60.668 1.17608 66.4969 -0.471474 71.7361 0.223642C74.5405 0.599606 77.3029 1.68739 79.3511 3.67583C81.8951 6.13045 83.2141 9.61439 83.5569 13.0733C80.7962 13.09 78.0371 13.0916 75.2798 13.0799C74.7757 11.3789 74.2279 9.54588 72.6922 8.46644C70.0759 6.89241 66.3272 7.38033 64.3025 9.69794C63.1666 10.9077 62.6356 12.5469 62.4256 14.1594C62.2626 16.4887 62.0929 18.935 62.9347 21.1657C63.6001 22.8851 64.6553 24.5978 66.3659 25.45C69.1199 26.882 72.6233 26.7433 75.2613 25.1058C77.6137 23.6404 79.3965 21.4347 80.8113 19.092C84.6793 12.968 88.512 6.82223 92.4103 0.718243C96.3287 0.716572 100.247 0.71323 104.167 0.723256C104.172 11.5811 104.172 22.4389 104.167 33.2985C101.425 33.3051 98.6862 33.3085 95.9456 33.3001C95.9372 31.3117 95.9406 29.3249 95.8818 27.3398C92.1583 27.2947 88.428 27.1844 84.7079 27.3382C83.2729 28.3925 82.1992 29.868 80.697 30.8488C78.2119 32.5616 75.2529 33.5775 72.2385 33.7864C67.7689 34.2776 62.9935 33.3452 59.4112 30.5314C56.9882 28.6799 55.3953 25.9346 54.4997 23.0655C52.8967 17.1821 53.4243 10.3429 57.3327 5.43701ZM88.5238 20.763C90.9938 20.778 93.4622 20.773 95.9339 20.7663C95.9238 16.8446 95.9893 12.9212 95.8801 9.00115C93.3445 12.8677 90.9821 16.8463 88.5238 20.763Z" fill="white" stroke="#3642B8" stroke-width="0.125"/>
<path d="M199.512 0.121707C204.359 -0.214154 209.476 1.34484 212.853 4.92736C216.306 8.60011 217.461 13.8619 217.086 18.7628C216.788 23.6888 214.389 28.695 210.084 31.3535C205.01 34.4915 198.312 34.7171 192.907 32.2808C190.043 30.904 187.62 28.6031 186.17 25.7842C184.455 22.6963 184.072 19.0586 184.169 15.588C184.401 11.3706 186.076 7.15808 189.18 4.21387C191.989 1.66399 195.739 0.312196 199.512 0.121707ZM199.517 7.65435C197.265 7.83148 195.197 9.15821 194.091 11.1065C192.587 13.7717 192.483 17.0083 193.036 19.9542C193.39 21.951 194.365 23.9361 196.094 25.0991C198.388 26.76 201.536 26.7433 204.099 25.7407C206.75 24.6195 208.187 21.7706 208.439 19.0319C208.715 15.8754 208.511 12.2762 206.285 9.78315C204.586 7.96181 201.935 7.30011 199.517 7.65435Z" fill="white" stroke="#3642B8" stroke-width="0.125"/>
<path d="M1.00443 0.721781C5.20515 0.726794 9.40419 0.695046 13.6066 0.721781C18.3719 0.746846 23.3119 2.67178 26.202 6.56343C28.1511 9.20186 29.1207 12.4402 29.3139 15.6852C29.534 19.1591 28.9392 22.7449 27.2539 25.8228C25.7517 28.4245 23.4463 30.6084 20.6571 31.7948C17.9988 33.0647 14.9962 33.2836 12.0926 33.3053C8.39602 33.3187 4.69938 33.2953 1.00443 33.2986C0.999392 22.4408 0.997712 11.5813 1.00443 0.721781ZM9.44115 7.78322C9.34706 13.8939 9.42603 20.0062 9.40586 26.1186C11.1332 26.1236 12.8639 26.1887 14.5912 26.0517C16.6227 25.8362 18.5449 24.5963 19.4624 22.7633C20.7999 20.5226 20.941 17.7889 20.6823 15.2591C20.4554 13.0166 19.6623 10.6639 17.8107 9.23528C15.4633 7.38554 12.2338 7.72307 9.44115 7.78322Z" fill="white" stroke="#3642B8" stroke-width="0.125"/>
<path d="M31.2496 0.72166C38.6243 0.741711 45.9991 0.661505 53.3722 0.763433C53.4444 3.08606 53.4327 5.41035 53.4243 7.73297C48.8321 7.74634 44.2398 7.72629 39.6476 7.73966C39.6443 9.74313 39.6443 11.7449 39.6493 13.7501C43.6803 13.7584 47.713 13.7451 51.7457 13.7534C51.7457 15.924 51.7507 18.0962 51.744 20.2668C47.7113 20.2751 43.6786 20.2618 39.6459 20.2701C39.6443 22.2184 39.6459 24.1651 39.6476 26.1134C44.223 26.1469 48.7985 26.06 53.3739 26.1619C53.4495 28.5229 53.4478 30.8857 53.3806 33.2484C46.0041 33.3687 38.626 33.2735 31.2496 33.2985C31.2445 22.439 31.2428 11.5812 31.2496 0.72166Z" fill="white" stroke="#3642B8" stroke-width="0.125"/>
<path d="M106.357 0.72028C114.646 0.716938 122.933 0.716938 131.222 0.72028C131.225 3.05794 131.227 5.3956 131.222 7.73493C128.476 7.73995 125.734 7.73326 122.991 7.73827C122.981 16.2601 122.997 24.7803 122.988 33.3005C120.187 33.3055 117.389 33.3072 114.592 33.2988C114.58 24.7786 114.595 16.2585 114.587 7.73827C111.841 7.73326 109.099 7.73995 106.357 7.73493C106.35 5.3956 106.35 3.05794 106.357 0.72028Z" fill="white" stroke="#3642B8" stroke-width="0.125"/>
<path d="M133.241 0.720154C136.039 0.71347 138.837 0.713469 141.636 0.721824C141.649 4.84072 141.631 8.96128 141.644 13.0802C145.45 13.0885 149.256 13.0869 153.065 13.0802C153.075 8.96128 153.057 4.84072 153.07 0.720154C155.866 0.71347 158.666 0.713469 161.465 0.721824C161.47 11.5813 161.47 22.4392 161.465 33.2987C158.666 33.307 155.868 33.307 153.072 33.2987C153.035 28.9175 153.122 24.5362 153.028 20.1567C149.251 20.0631 145.472 20.0714 141.696 20.1483C141.577 24.5295 141.671 28.9141 141.638 33.2987C138.855 33.2987 136.074 33.3421 133.293 33.2636C133.169 22.4158 133.271 11.568 133.241 0.720154Z" fill="white" stroke="#3642B8" stroke-width="0.125"/>
<path d="M163.824 0.721598C166.62 0.713243 169.419 0.713243 172.219 0.721598C172.256 9.2234 172.163 17.7269 172.263 26.2303C176.504 26.344 180.748 26.2554 184.992 26.2872C184.997 28.6081 185.009 30.9274 184.947 33.2483C177.907 33.3686 170.865 33.2751 163.824 33.2985C163.817 22.439 163.817 11.5811 163.824 0.721598Z" fill="white" stroke="#3642B8" stroke-width="0.125"/>
<path d="M219.106 0.723255C221.997 0.711558 224.891 0.701533 227.784 0.741635C231.368 6.65847 234.925 12.5937 238.548 18.4888C238.651 12.567 238.562 6.64344 238.597 0.719914C241.28 0.714901 243.969 0.71323 246.657 0.719914C246.659 11.5794 246.662 22.4389 246.656 33.2985C243.917 33.3051 241.181 33.3118 238.447 33.2951C234.719 27.0859 231.027 20.8549 227.198 14.7091C227.126 20.905 227.191 27.1026 227.164 33.3001C224.476 33.3051 221.789 33.3068 219.104 33.3001C219.101 22.4406 219.099 11.5828 219.106 0.723255Z" fill="white" stroke="#3642B8" stroke-width="0.125"/>
</svg>
