<svg width="38" height="35" viewBox="0 0 38 35" fill="none" xmlns="http://www.w3.org/2000/svg">
<path d="M35 29.7727C35 30.0982 34.8703 30.4104 34.6395 30.6405C34.4087 30.8707 34.0956 31 33.7692 31H4.23077C3.90435 31 3.5913 30.8707 3.36048 30.6405C3.12967 30.4104 3 30.0982 3 29.7727V5.22727C3 4.90178 3.12967 4.58962 3.36048 4.35946C3.5913 4.1293 3.90435 4 4.23077 4C4.55719 4 4.87024 4.1293 5.10105 4.35946C5.33187 4.58962 5.46154 4.90178 5.46154 5.22727V21.9013L13.2062 14.1772C13.3205 14.0631 13.4562 13.9725 13.6056 13.9108C13.755 13.849 13.9152 13.8172 14.0769 13.8172C14.2387 13.8172 14.3988 13.849 14.5482 13.9108C14.6976 13.9725 14.8334 14.0631 14.9477 14.1772L19 18.2195L27.1062 10.1364H23.9231C23.5967 10.1364 23.2836 10.0071 23.0528 9.7769C22.822 9.54674 22.6923 9.23458 22.6923 8.90909C22.6923 8.5836 22.822 8.27144 23.0528 8.04128C23.2836 7.81112 23.5967 7.68182 23.9231 7.68182H30.0769C30.4033 7.68182 30.7164 7.81112 30.9472 8.04128C31.178 8.27144 31.3077 8.5836 31.3077 8.90909V15.0455C31.3077 15.3709 31.178 15.6831 30.9472 15.9133C30.7164 16.1434 30.4033 16.2727 30.0769 16.2727C29.7505 16.2727 29.4375 16.1434 29.2066 15.9133C28.9758 15.6831 28.8462 15.3709 28.8462 15.0455V11.8714L19.8708 20.8228C19.7565 20.9369 19.6207 21.0275 19.4713 21.0892C19.3219 21.151 19.1617 21.1828 19 21.1828C18.8383 21.1828 18.6781 21.151 18.5287 21.0892C18.3793 21.0275 18.2435 20.9369 18.1292 20.8228L14.0769 16.7805L5.46154 25.3714V28.5455H33.7692C34.0956 28.5455 34.4087 28.6748 34.6395 28.9049C34.8703 29.1351 35 29.4472 35 29.7727Z" fill="#FF6A00"/>
</svg>
