<svg width="48" height="44" viewBox="0 0 48 44" fill="none" xmlns="http://www.w3.org/2000/svg">
<path d="M13.2636 25.6236H10.9883C10.6865 25.6236 10.3972 25.7459 10.1838 25.9637C9.97045 26.1815 9.85059 26.4769 9.85059 26.7849V34.9144C9.85059 35.2225 9.97045 35.5179 10.1838 35.7357C10.3972 35.9535 10.6865 36.0758 10.9883 36.0758H13.2636C14.6214 36.0758 15.9235 35.5252 16.8836 34.5451C17.8437 33.565 18.3831 32.2357 18.3831 30.8497C18.3831 29.4636 17.8437 28.1343 16.8836 27.1543C15.9235 26.1742 14.6214 25.6236 13.2636 25.6236ZM13.2636 33.7531H12.1259V27.9463H13.2636C14.0179 27.9463 14.7413 28.2522 15.2747 28.7967C15.8081 29.3412 16.1077 30.0797 16.1077 30.8497C16.1077 31.6197 15.8081 32.3582 15.2747 32.9027C14.7413 33.4472 14.0179 33.7531 13.2636 33.7531ZM37.3722 33.0403C37.5901 33.2532 37.7163 33.5458 37.723 33.8537C37.7297 34.1616 37.6162 34.4596 37.4077 34.6822C37.0116 35.1175 36.5325 35.4656 35.9999 35.7053C35.4673 35.9449 34.8924 36.071 34.3104 36.0758C31.8004 36.0758 29.7597 33.7313 29.7597 30.8497C29.7597 27.9681 31.8004 25.6236 34.3104 25.6236C34.8924 25.6284 35.4673 25.7545 35.9999 25.9941C36.5325 26.2337 37.0116 26.5819 37.4077 27.0172C37.6117 27.2406 37.7213 27.537 37.7128 27.8423C37.7042 28.1476 37.5782 28.4372 37.362 28.6483C37.1459 28.8594 36.8569 28.9751 36.5578 28.9703C36.2586 28.9656 35.9734 28.8407 35.7638 28.6228C35.5791 28.4153 35.355 28.2484 35.1052 28.1321C34.8553 28.0158 34.5849 27.9526 34.3104 27.9463C33.0561 27.9463 32.0351 29.2528 32.0351 30.8497C32.0351 32.4466 33.0561 33.7531 34.3104 33.7531C34.5849 33.7468 34.8553 33.6836 35.1052 33.5673C35.355 33.451 35.5791 33.2841 35.7638 33.0766C35.9724 32.8541 36.259 32.7252 36.5606 32.7184C36.8622 32.7116 37.1541 32.8274 37.3722 33.0403ZM24.0714 25.6236C21.5614 25.6236 19.5207 27.9681 19.5207 30.8497C19.5207 33.7313 21.5614 36.0758 24.0714 36.0758C26.5814 36.0758 28.6221 33.7313 28.6221 30.8497C28.6221 27.9681 26.5814 25.6236 24.0714 25.6236ZM24.0714 33.7531C22.8171 33.7531 21.7961 32.4466 21.7961 30.8497C21.7961 29.2528 22.8171 27.9463 24.0714 27.9463C25.3257 27.9463 26.3467 29.2528 26.3467 30.8497C26.3467 32.4466 25.3257 33.7531 24.0714 33.7531ZM12.6948 22.1395C12.9965 22.1395 13.2858 22.0171 13.4992 21.7993C13.7126 21.5815 13.8324 21.2861 13.8324 20.9781V10.5258H26.3467V17.494C26.3467 17.802 26.4666 18.0974 26.68 18.3152C26.8933 18.533 27.1827 18.6554 27.4844 18.6554H34.3104V20.9781C34.3104 21.2861 34.4303 21.5815 34.6436 21.7993C34.857 22.0171 35.1463 22.1395 35.4481 22.1395C35.7498 22.1395 36.0392 22.0171 36.2525 21.7993C36.4659 21.5815 36.5857 21.2861 36.5857 20.9781V17.494C36.5859 17.3415 36.5565 17.1904 36.4994 17.0494C36.4423 16.9084 36.3586 16.7803 36.253 16.6724L28.2893 8.54282C28.1836 8.43501 28.0581 8.34952 27.92 8.29123C27.7819 8.23294 27.6339 8.20301 27.4844 8.20313H13.8324C13.229 8.20313 12.6502 8.44784 12.2235 8.88344C11.7968 9.31903 11.5571 9.90982 11.5571 10.5258V20.9781C11.5571 21.2861 11.6769 21.5815 11.8903 21.7993C12.1037 22.0171 12.393 22.1395 12.6948 22.1395ZM28.6221 12.1677L32.702 16.3327H28.6221V12.1677Z" fill="#FF6A00"/>
</svg>
