<svg width="48" height="44" viewBox="0 0 48 44" fill="none" xmlns="http://www.w3.org/2000/svg">
<path d="M37.3284 20.6533H25.383V17.6802H26.3784C26.9064 17.6802 27.4128 17.4714 27.7862 17.0997C28.1596 16.7279 28.3693 16.2238 28.3693 15.6981V11.734C28.3693 11.2083 28.1596 10.7042 27.7862 10.3325C27.4128 9.96078 26.9064 9.75195 26.3784 9.75195H22.3966C21.8686 9.75195 21.3622 9.96078 20.9888 10.3325C20.6155 10.7042 20.4057 11.2083 20.4057 11.734V15.6981C20.4057 16.2238 20.6155 16.7279 20.9888 17.0997C21.3622 17.4714 21.8686 17.6802 22.3966 17.6802H23.3921V20.6533H11.4466C11.1826 20.6533 10.9294 20.7577 10.7427 20.9435C10.556 21.1294 10.4512 21.3815 10.4512 21.6443C10.4512 21.9071 10.556 22.1592 10.7427 22.3451C10.9294 22.5309 11.1826 22.6353 11.4466 22.6353H15.4284V26.5994H14.433C13.905 26.5994 13.3986 26.8083 13.0252 27.18C12.6518 27.5517 12.4421 28.0558 12.4421 28.5815V32.5456C12.4421 33.0713 12.6518 33.5754 13.0252 33.9471C13.3986 34.3189 13.905 34.5277 14.433 34.5277H18.4148C18.9428 34.5277 19.4492 34.3189 19.8226 33.9471C20.1959 33.5754 20.4057 33.0713 20.4057 32.5456V28.5815C20.4057 28.0558 20.1959 27.5517 19.8226 27.18C19.4492 26.8083 18.9428 26.5994 18.4148 26.5994H17.4193V22.6353H31.3557V26.5994H30.3602C29.8322 26.5994 29.3258 26.8083 28.9525 27.18C28.5791 27.5517 28.3693 28.0558 28.3693 28.5815V32.5456C28.3693 33.0713 28.5791 33.5754 28.9525 33.9471C29.3258 34.3189 29.8322 34.5277 30.3602 34.5277H34.342C34.8701 34.5277 35.3765 34.3189 35.7498 33.9471C36.1232 33.5754 36.333 33.0713 36.333 32.5456V28.5815C36.333 28.0558 36.1232 27.5517 35.7498 27.18C35.3765 26.8083 34.8701 26.5994 34.342 26.5994H33.3466V22.6353H37.3284C37.5924 22.6353 37.8456 22.5309 38.0323 22.3451C38.219 22.1592 38.3239 21.9071 38.3239 21.6443C38.3239 21.3815 38.219 21.1294 38.0323 20.9435C37.8456 20.7577 37.5924 20.6533 37.3284 20.6533ZM22.3966 11.734H26.3784V15.6981H22.3966V11.734ZM18.4148 32.5456H14.433V28.5815H18.4148V32.5456ZM34.342 32.5456H30.3602V28.5815H34.342V32.5456Z" fill="#FF6A00"/>
</svg>
