<svg width="85" height="77" viewBox="0 0 85 77" fill="none" xmlns="http://www.w3.org/2000/svg">
<path opacity="0.17" d="M74.2495 13.4865C58.35 -6.42254 10.6518 -4.08036 2.04661 23.0896C-6.55855 50.2596 28.2342 83.0509 59.2852 75.7901C90.3362 68.5293 90.149 33.3956 74.2495 13.4865Z" fill="#FF6A00"/>
<path d="M72.7689 18.9102V36.1371C72.7689 36.7082 72.542 37.2559 72.1382 37.6597C71.7343 38.0636 71.1866 38.2904 70.6155 38.2904C70.0444 38.2904 69.4967 38.0636 69.0929 37.6597C68.689 37.2559 68.4622 36.7082 68.4622 36.1371V24.1079L46.2987 46.274C46.0987 46.4742 45.8612 46.633 45.5998 46.7414C45.3384 46.8498 45.0582 46.9056 44.7752 46.9056C44.4922 46.9056 44.212 46.8498 43.9506 46.7414C43.6892 46.633 43.4517 46.4742 43.2517 46.274L34.0084 37.028L16.1517 54.8874C15.7476 55.2915 15.1996 55.5185 14.6282 55.5185C14.0568 55.5185 13.5087 55.2915 13.1047 54.8874C12.7006 54.4834 12.4736 53.9354 12.4736 53.3639C12.4736 52.7925 12.7006 52.2445 13.1047 51.8404L32.4849 32.4602C32.6849 32.26 32.9224 32.1012 33.1838 31.9928C33.4452 31.8844 33.7254 31.8287 34.0084 31.8287C34.2914 31.8287 34.5716 31.8844 34.833 31.9928C35.0944 32.1012 35.3319 32.26 35.5319 32.4602L44.7752 41.7062L65.4178 21.0636H53.3886C52.8175 21.0636 52.2698 20.8367 51.866 20.4328C51.4622 20.029 51.2353 19.4813 51.2353 18.9102C51.2353 18.3391 51.4622 17.7914 51.866 17.3875C52.2698 16.9837 52.8175 16.7568 53.3886 16.7568H70.6155C71.1866 16.7568 71.7343 16.9837 72.1382 17.3875C72.542 17.7914 72.7689 18.3391 72.7689 18.9102Z" fill="#FF6A00"/>
</svg>
