<svg width="85" height="78" viewBox="0 0 85 78" fill="none" xmlns="http://www.w3.org/2000/svg">
<path opacity="0.17" d="M74.2495 13.7053C58.35 -6.20379 10.6518 -3.86161 2.04661 23.3084C-6.55855 50.4784 28.2342 83.2697 59.2852 76.0089C90.3362 68.7481 90.149 33.6144 74.2495 13.7053Z" fill="#FF6A00"/>
<path d="M42.6221 14.2711C37.3066 14.2711 32.1104 15.822 27.6907 18.7275C23.2709 21.6331 19.8262 25.7629 17.792 30.5947C15.7578 35.4265 15.2256 40.7432 16.2626 45.8726C17.2996 51.002 19.8593 55.7137 23.618 59.4117C27.3766 63.1098 32.1655 65.6283 37.3789 66.6485C42.5923 67.6688 47.9962 67.1452 52.9071 65.1438C57.8181 63.1424 62.0155 59.7532 64.9687 55.4047C67.9218 51.0562 69.4981 45.9438 69.4981 40.7139C69.4899 33.7033 66.6558 26.9821 61.6173 22.0249C56.5789 17.0677 49.7476 14.2792 42.6221 14.2711ZM42.6221 62.7495C38.1925 62.7495 33.8624 61.4571 30.1792 59.0358C26.4961 56.6145 23.6255 53.173 21.9304 49.1466C20.2352 45.1201 19.7917 40.6894 20.6559 36.415C21.52 32.1405 23.6531 28.2141 26.7853 25.1324C29.9176 22.0506 33.9083 19.9519 38.2528 19.1017C42.5973 18.2514 47.1005 18.6878 51.193 20.3556C55.2854 22.0235 58.7833 24.8478 61.2443 28.4716C63.7052 32.0953 65.0188 36.3557 65.0188 40.7139C65.0121 46.5561 62.6503 52.1571 58.4516 56.2882C54.2528 60.4193 48.56 62.743 42.6221 62.7495ZM24.0497 13.6266L15.0911 22.4409C14.6708 22.8543 14.1009 23.0866 13.5065 23.0866C12.9122 23.0866 12.3422 22.8543 11.922 22.4409C11.5017 22.0274 11.2656 21.4666 11.2656 20.8818C11.2656 20.2971 11.5017 19.7363 11.922 19.3228L20.8806 10.5086C21.3009 10.0951 21.8709 9.86279 22.4652 9.86279C23.0595 9.86279 23.6295 10.0951 24.0497 10.5086C24.47 10.922 24.7061 11.4828 24.7061 12.0676C24.7061 12.6523 24.47 13.2131 24.0497 13.6266ZM73.3223 22.4409C73.1143 22.6457 72.8673 22.8083 72.5954 22.9192C72.3235 23.03 72.0321 23.0871 71.7378 23.0871C71.4434 23.0871 71.152 23.03 70.8801 22.9192C70.6082 22.8083 70.3612 22.6457 70.1532 22.4409L61.1945 13.6266C60.7743 13.2131 60.5382 12.6523 60.5382 12.0676C60.5382 11.4828 60.7743 10.922 61.1945 10.5086C61.6148 10.0951 62.1848 9.86279 62.7791 9.86279C63.3734 9.86279 63.9434 10.0951 64.3637 10.5086L73.3223 19.3228C73.5305 19.5275 73.6957 19.7705 73.8085 20.038C73.9212 20.3055 73.9792 20.5922 73.9792 20.8818C73.9792 21.1714 73.9212 21.4582 73.8085 21.7257C73.6957 21.9932 73.5305 22.2362 73.3223 22.4409ZM58.2998 38.5103C58.8938 38.5103 59.4634 38.7425 59.8835 39.1557C60.3035 39.569 60.5394 40.1295 60.5394 40.7139C60.5394 41.2983 60.3035 41.8588 59.8835 42.272C59.4634 42.6853 58.8938 42.9175 58.2998 42.9175H42.6221C42.0281 42.9175 41.4585 42.6853 41.0385 42.272C40.6184 41.8588 40.3825 41.2983 40.3825 40.7139V25.289C40.3825 24.7045 40.6184 24.1441 41.0385 23.7308C41.4585 23.3176 42.0281 23.0854 42.6221 23.0854C43.2161 23.0854 43.7858 23.3176 44.2058 23.7308C44.6258 24.1441 44.8618 24.7045 44.8618 25.289V38.5103H58.2998Z" fill="#FF6A00"/>
</svg>
