<svg width="48" height="45" viewBox="0 0 48 45" fill="none" xmlns="http://www.w3.org/2000/svg">
<path d="M27.3903 17.9006H20.588C20.2873 17.9006 19.999 18.02 19.7863 18.2326C19.5737 18.4452 19.4543 18.7336 19.4543 19.0343V25.8366C19.4543 26.1372 19.5737 26.4256 19.7863 26.6382C19.999 26.8508 20.2873 26.9703 20.588 26.9703H27.3903C27.6909 26.9703 27.9793 26.8508 28.1919 26.6382C28.4045 26.4256 28.524 26.1372 28.524 25.8366V19.0343C28.524 18.7336 28.4045 18.4452 28.1919 18.2326C27.9793 18.02 27.6909 17.9006 27.3903 17.9006ZM26.2566 24.7028H21.7217V20.168H26.2566V24.7028ZM38.7274 24.7028H36.4599V20.168H38.7274C39.028 20.168 39.3164 20.0486 39.529 19.8359C39.7416 19.6233 39.8611 19.335 39.8611 19.0343C39.8611 18.7336 39.7416 18.4452 39.529 18.2326C39.3164 18.02 39.028 17.9006 38.7274 17.9006H36.4599V12.232C36.4599 11.6307 36.2211 11.0539 35.7958 10.6287C35.3706 10.2035 34.7939 9.96461 34.1925 9.96461H28.524V7.69719C28.524 7.39651 28.4045 7.10814 28.1919 6.89553C27.9793 6.68292 27.6909 6.56348 27.3903 6.56348C27.0896 6.56348 26.8012 6.68292 26.5886 6.89553C26.376 7.10814 26.2566 7.39651 26.2566 7.69719V9.96461H21.7217V7.69719C21.7217 7.39651 21.6023 7.10814 21.3897 6.89553C21.177 6.68292 20.8887 6.56348 20.588 6.56348C20.2873 6.56348 19.999 6.68292 19.7863 6.89553C19.5737 7.10814 19.4543 7.39651 19.4543 7.69719V9.96461H13.7857C13.1844 9.96461 12.6077 10.2035 12.1824 10.6287C11.7572 11.0539 11.5183 11.6307 11.5183 12.232V17.9006H9.2509C8.95022 17.9006 8.66186 18.02 8.44924 18.2326C8.23663 18.4452 8.11719 18.7336 8.11719 19.0343C8.11719 19.335 8.23663 19.6233 8.44924 19.8359C8.66186 20.0486 8.95022 20.168 9.2509 20.168H11.5183V24.7028H9.2509C8.95022 24.7028 8.66186 24.8223 8.44924 25.0349C8.23663 25.2475 8.11719 25.5359 8.11719 25.8366C8.11719 26.1372 8.23663 26.4256 8.44924 26.6382C8.66186 26.8508 8.95022 26.9703 9.2509 26.9703H11.5183V32.6388C11.5183 33.2402 11.7572 33.8169 12.1824 34.2421C12.6077 34.6673 13.1844 34.9062 13.7857 34.9062H19.4543V37.1737C19.4543 37.4743 19.5737 37.7627 19.7863 37.9753C19.999 38.1879 20.2873 38.3074 20.588 38.3074C20.8887 38.3074 21.177 38.1879 21.3897 37.9753C21.6023 37.7627 21.7217 37.4743 21.7217 37.1737V34.9062H26.2566V37.1737C26.2566 37.4743 26.376 37.7627 26.5886 37.9753C26.8012 38.1879 27.0896 38.3074 27.3903 38.3074C27.6909 38.3074 27.9793 38.1879 28.1919 37.9753C28.4045 37.7627 28.524 37.4743 28.524 37.1737V34.9062H34.1925C34.7939 34.9062 35.3706 34.6673 35.7958 34.2421C36.2211 33.8169 36.4599 33.2402 36.4599 32.6388V26.9703H38.7274C39.028 26.9703 39.3164 26.8508 39.529 26.6382C39.7416 26.4256 39.8611 26.1372 39.8611 25.8366C39.8611 25.5359 39.7416 25.2475 39.529 25.0349C39.3164 24.8223 39.028 24.7028 38.7274 24.7028ZM34.1925 32.6388H13.7857V12.232H34.1925V25.8181C34.1925 25.8181 34.1925 25.8309 34.1925 25.8366C34.1925 25.8422 34.1925 25.8493 34.1925 25.855V32.6388Z" fill="#FF6A00"/>
</svg>
