<svg width="85" height="77" viewBox="0 0 85 77" fill="none" xmlns="http://www.w3.org/2000/svg">
<path opacity="0.17" d="M74.0181 13.4865C58.1185 -6.42254 10.4203 -4.08036 1.81516 23.0896C-6.78999 50.2596 28.0027 83.0509 59.0537 75.7901C90.1047 68.5293 89.9176 33.3956 74.0181 13.4865Z" fill="#FF6A00"/>
<path d="M66.5427 27.4389C66.4311 27.1632 66.2544 26.9187 66.0276 26.7263C65.8008 26.534 65.5307 26.3995 65.2405 26.3344C64.9503 26.2693 64.6487 26.2755 64.3615 26.3526C64.0742 26.4297 63.81 26.5753 63.5914 26.777L54.3283 35.3252L50.3679 34.4747L49.5175 30.5144L58.0657 21.2513C58.2673 21.0327 58.4129 20.7684 58.49 20.4812C58.5671 20.194 58.5734 19.8923 58.5083 19.6021C58.4432 19.3119 58.3087 19.0419 58.1163 18.8151C57.9239 18.5883 57.6794 18.4115 57.4037 18.3C54.8913 17.2837 52.1677 16.8999 49.4722 17.1825C46.7768 17.4651 44.192 18.4053 41.9449 19.9206C39.6979 21.4358 37.8574 23.4798 36.5851 25.8728C35.3128 28.2659 34.6478 30.9347 34.6483 33.645C34.6453 35.9336 35.1148 38.1981 36.0274 40.2969L22.188 52.2631C22.1535 52.2906 22.1213 52.3228 22.0891 52.3527C20.7096 53.7322 19.9346 55.6033 19.9346 57.5543C19.9346 58.5203 20.1248 59.4768 20.4945 60.3693C20.8642 61.2618 21.4061 62.0728 22.0891 62.7558C22.7722 63.4389 23.5831 63.9808 24.4756 64.3504C25.3681 64.7201 26.3247 64.9104 27.2907 64.9104C29.2417 64.9104 31.1127 64.1354 32.4923 62.7558C32.5222 62.726 32.5543 62.6915 32.5819 62.6593L44.5458 48.8153C47.0659 49.9215 49.8222 50.3818 52.5651 50.1544C55.308 49.927 57.9509 49.0191 60.2544 47.5129C62.558 46.0067 64.4496 43.9497 65.7579 41.5282C67.0662 39.1068 67.7499 36.3973 67.7471 33.645C67.7507 31.5179 67.3417 29.4103 66.5427 27.4389ZM51.1977 46.5167C49.0212 46.5137 46.8807 45.9602 44.9756 44.9078C44.6065 44.7039 44.1785 44.633 43.7634 44.7071C43.3483 44.7811 42.9712 44.9956 42.6954 45.3146L29.8467 60.1953C29.1514 60.8559 28.2255 61.2187 27.2665 61.2064C26.3075 61.1941 25.3913 60.8077 24.7131 60.1295C24.035 59.4514 23.6485 58.5351 23.6363 57.5761C23.624 56.6171 23.9868 55.6913 24.6474 54.996L39.5166 42.1495C39.8361 41.8736 40.0509 41.4961 40.125 41.0805C40.1991 40.6649 40.1279 40.2364 39.9234 39.8671C38.7512 37.747 38.2011 35.3392 38.3364 32.9204C38.4716 30.5017 39.2866 28.1701 40.6878 26.1939C42.089 24.2177 44.0194 22.6771 46.2572 21.749C48.4949 20.821 50.9491 20.5433 53.3376 20.9479L46.1662 28.7192C45.9667 28.9357 45.822 29.1969 45.7444 29.4809C45.6668 29.7649 45.6586 30.0633 45.7203 30.3512L47.0213 36.4032C47.0957 36.7493 47.2684 37.0666 47.5188 37.317C47.7691 37.5673 48.0864 37.7401 48.4326 37.8145L54.4892 39.1155C54.777 39.1772 55.0755 39.1689 55.3595 39.0913C55.6435 39.0137 55.9047 38.8691 56.1212 38.6695L63.8925 31.4981C64.2023 33.3439 64.1063 35.2349 63.6112 37.0398C63.1161 38.8447 62.2338 40.5201 61.0256 41.9494C59.8175 43.3788 58.3124 44.5278 56.6152 45.3165C54.9179 46.1053 53.0693 46.5148 51.1977 46.5167Z" fill="#FF6A00"/>
</svg>
