<svg width="48" height="48" viewBox="0 0 48 48" fill="none" xmlns="http://www.w3.org/2000/svg">
<path d="M38.01 36.2467L31.3078 29.5458C33.2503 27.2136 34.219 24.2222 34.0123 21.194C33.8055 18.1658 32.4393 15.3339 30.1977 13.2873C27.9562 11.2408 25.0119 10.1372 21.9774 10.2062C18.943 10.2751 16.0519 11.5113 13.9056 13.6576C11.7594 15.8038 10.5232 18.6949 10.4542 21.7294C10.3853 24.7639 11.4888 27.7081 13.5354 29.9497C15.5819 32.1912 18.4138 33.5575 21.4421 33.7642C24.4703 33.971 27.4616 33.0023 29.7938 31.0597L36.4948 37.762C36.5943 37.8615 36.7124 37.9404 36.8424 37.9943C36.9724 38.0481 37.1117 38.0758 37.2524 38.0758C37.3931 38.0758 37.5324 38.0481 37.6624 37.9943C37.7924 37.9404 37.9105 37.8615 38.01 37.762C38.1095 37.6625 38.1885 37.5444 38.2423 37.4144C38.2961 37.2844 38.3239 37.1451 38.3239 37.0044C38.3239 36.8636 38.2961 36.7243 38.2423 36.5943C38.1885 36.4643 38.1095 36.3462 38.01 36.2467ZM12.6225 22.0122C12.6225 20.1061 13.1877 18.2427 14.2468 16.6578C15.3058 15.0728 16.811 13.8375 18.5721 13.1081C20.3331 12.3786 22.271 12.1878 24.1405 12.5596C26.0101 12.9315 27.7274 13.8494 29.0752 15.1973C30.4231 16.5452 31.341 18.2624 31.7129 20.132C32.0848 22.0015 31.8939 23.9394 31.1644 25.7005C30.435 27.4615 29.1997 28.9667 27.6147 30.0258C26.0298 31.0848 24.1665 31.65 22.2603 31.65C19.705 31.6472 17.2553 30.6309 15.4485 28.824C13.6416 27.0172 12.6253 24.5675 12.6225 22.0122Z" fill="#FF6A00"/>
</svg>
