<svg width="48" height="45" viewBox="0 0 48 45" fill="none" xmlns="http://www.w3.org/2000/svg">
<path d="M35.3687 31.3448C35.3687 31.5811 35.2748 31.8077 35.1077 31.9748C34.9407 32.1419 34.7141 32.2357 34.4778 32.2357H13.096C12.8597 32.2357 12.6331 32.1419 12.466 31.9748C12.2989 31.8077 12.2051 31.5811 12.2051 31.3448V13.5266C12.2051 13.2904 12.2989 13.0638 12.466 12.8967C12.6331 12.7296 12.8597 12.6357 13.096 12.6357C13.3323 12.6357 13.5589 12.7296 13.726 12.8967C13.893 13.0638 13.9869 13.2904 13.9869 13.5266V25.6307L19.5929 20.0236C19.6757 19.9408 19.7739 19.875 19.8821 19.8302C19.9902 19.7854 20.1062 19.7623 20.2232 19.7623C20.3403 19.7623 20.4563 19.7854 20.5644 19.8302C20.6726 19.875 20.7708 19.9408 20.8536 20.0236L23.7869 22.958L29.6546 17.0903H27.3505C27.1142 17.0903 26.8876 16.9964 26.7205 16.8293C26.5535 16.6623 26.4596 16.4357 26.4596 16.1994C26.4596 15.9631 26.5535 15.7365 26.7205 15.5694C26.8876 15.4023 27.1142 15.3085 27.3505 15.3085H31.805C32.0413 15.3085 32.2679 15.4023 32.435 15.5694C32.6021 15.7365 32.696 15.9631 32.696 16.1994V20.6539C32.696 20.8902 32.6021 21.1168 32.435 21.2839C32.2679 21.451 32.0413 21.5448 31.805 21.5448C31.5688 21.5448 31.3422 21.451 31.1751 21.2839C31.008 21.1168 30.9141 20.8902 30.9141 20.6539V18.3498L24.4172 24.8479C24.3345 24.9307 24.2362 24.9964 24.128 25.0412C24.0199 25.0861 23.904 25.1092 23.7869 25.1092C23.6698 25.1092 23.5539 25.0861 23.4457 25.0412C23.3376 24.9964 23.2393 24.9307 23.1566 24.8479L20.2232 21.9134L13.9869 28.1498V30.4539H34.4778C34.7141 30.4539 34.9407 30.5478 35.1077 30.7148C35.2748 30.8819 35.3687 31.1085 35.3687 31.3448Z" fill="#FF6A00"/>
</svg>
