<svg width="85" height="78" viewBox="0 0 85 78" fill="none" xmlns="http://www.w3.org/2000/svg">
<path opacity="0.17" d="M74.0171 13.7053C58.1175 -6.20379 10.4193 -3.86161 1.81419 23.3084C-6.79097 50.4784 28.0017 83.2697 59.0527 76.0089C90.1037 68.7481 89.9166 33.6144 74.0171 13.7053Z" fill="#FF6A00"/>
<path d="M66.0421 28.7033C68.8493 34.5745 69.3822 41.2775 67.538 47.5185C65.6937 53.7596 61.603 59.0963 56.0554 62.4986C50.5078 65.901 43.8966 67.1278 37.4976 65.9423C31.0987 64.7568 25.3657 61.243 21.4051 56.0791C17.4445 50.9152 15.5371 44.4673 16.051 37.9798C16.5649 31.4923 19.4637 25.4251 24.1879 20.9492C28.9121 16.4733 35.1268 13.9059 41.6326 13.7427C48.1384 13.5794 54.474 15.8318 59.4168 20.0651L65.1494 14.33C65.529 13.9504 66.0439 13.7371 66.5807 13.7371C67.1175 13.7371 67.6324 13.9504 68.012 14.33C68.3916 14.7095 68.6048 15.2244 68.6048 15.7612C68.6048 16.298 68.3916 16.8129 68.012 17.1925L43.7361 41.4684C43.3565 41.848 42.8416 42.0612 42.3048 42.0612C41.768 42.0612 41.2531 41.848 40.8735 41.4684C40.4939 41.0888 40.2807 40.5739 40.2807 40.0371C40.2807 39.5003 40.4939 38.9854 40.8735 38.6058L47.8832 31.5962C45.9835 30.3398 43.7154 29.7613 41.446 29.9544C39.1766 30.1475 37.0388 31.1008 35.3786 32.6601C33.7185 34.2193 32.6332 36.2933 32.2984 38.5461C31.9636 40.799 32.3989 43.0989 33.5339 45.0735C34.6689 47.0481 36.4371 48.5819 38.5523 49.4266C40.6675 50.2712 43.0058 50.3773 45.1888 49.7276C47.3717 49.0779 49.2715 47.7105 50.5806 45.8468C51.8897 43.983 52.5315 41.7319 52.4021 39.458C52.3871 39.1924 52.4246 38.9264 52.5125 38.6752C52.6004 38.424 52.7368 38.1926 52.9141 37.9942C53.0914 37.7958 53.306 37.6343 53.5458 37.5188C53.7855 37.4033 54.0456 37.3362 54.3113 37.3212C54.8478 37.2911 55.3743 37.4753 55.7751 37.8333C55.9735 38.0106 56.135 38.2252 56.2505 38.4649C56.366 38.7047 56.4331 38.9648 56.448 39.2304C56.6325 42.449 55.7132 45.6341 53.8421 48.2594C51.9711 50.8846 49.2603 52.7929 46.1577 53.6688C43.0552 54.5447 39.7467 54.3358 36.779 53.0765C33.8113 51.8173 31.3621 49.5832 29.8361 46.7434C28.3102 43.9036 27.7989 40.6281 28.3868 37.4584C28.9746 34.2886 30.6264 31.4143 33.0692 29.3105C35.5119 27.2067 38.5994 25.9994 41.8213 25.8881C45.0432 25.7768 48.2066 26.7681 50.7887 28.6982L56.5416 22.9454C52.3257 19.4451 46.9652 17.6258 41.4897 17.837C36.0142 18.0482 30.8097 20.2749 26.8759 24.0895C22.9421 27.9041 20.5564 33.0376 20.1769 38.5041C19.7975 43.9705 21.451 49.3844 24.82 53.706C28.189 58.0275 33.0358 60.952 38.4296 61.9178C43.8235 62.8835 49.3839 61.8223 54.043 58.9381C58.7021 56.0539 62.1314 51.5501 63.6721 46.2915C65.2129 41.033 64.7565 35.3906 62.3906 30.4481C62.1592 29.9639 62.1297 29.4076 62.3084 28.9016C62.4872 28.3956 62.8597 27.9813 63.3439 27.75C63.8281 27.5186 64.3844 27.489 64.8904 27.6678C65.3964 27.8466 65.8107 28.2191 66.0421 28.7033Z" fill="#FF6A00"/>
</svg>
