<svg width="48" height="44" viewBox="0 0 48 44" fill="none" xmlns="http://www.w3.org/2000/svg">
<path d="M35.5708 31.0489C35.5708 31.2852 35.477 31.5118 35.3099 31.6789C35.1428 31.846 34.9162 31.9398 34.6799 31.9398H13.2981C13.0619 31.9398 12.8352 31.846 12.6682 31.6789C12.5011 31.5118 12.4072 31.2852 12.4072 31.0489V13.2308C12.4072 12.9945 12.5011 12.7679 12.6682 12.6008C12.8352 12.4337 13.0619 12.3398 13.2981 12.3398C13.5344 12.3398 13.761 12.4337 13.9281 12.6008C14.0952 12.7679 14.189 12.9945 14.189 13.2308V25.3348L19.7951 19.7277C19.8778 19.6449 19.9761 19.5792 20.0842 19.5343C20.1924 19.4895 20.3083 19.4664 20.4254 19.4664C20.5425 19.4664 20.6584 19.4895 20.7666 19.5343C20.8747 19.5792 20.973 19.6449 21.0557 19.7277L23.989 22.6621L29.8568 16.7944H27.5527C27.3164 16.7944 27.0898 16.7005 26.9227 16.5334C26.7556 16.3664 26.6618 16.1398 26.6618 15.9035C26.6618 15.6672 26.7556 15.4406 26.9227 15.2735C27.0898 15.1064 27.3164 15.0126 27.5527 15.0126H32.0072C32.2435 15.0126 32.4701 15.1064 32.6372 15.2735C32.8042 15.4406 32.8981 15.6672 32.8981 15.9035V20.358C32.8981 20.5943 32.8042 20.8209 32.6372 20.988C32.4701 21.1551 32.2435 21.2489 32.0072 21.2489C31.7709 21.2489 31.5443 21.1551 31.3772 20.988C31.2102 20.8209 31.1163 20.5943 31.1163 20.358V18.0539L24.6193 24.552C24.5366 24.6348 24.4383 24.7005 24.3302 24.7453C24.222 24.7902 24.1061 24.8133 23.989 24.8133C23.8719 24.8133 23.756 24.7902 23.6479 24.7453C23.5397 24.7005 23.4415 24.6348 23.3587 24.552L20.4254 21.6175L14.189 27.8539V30.158H34.6799C34.9162 30.158 35.1428 30.2519 35.3099 30.4189C35.477 30.586 35.5708 30.8126 35.5708 31.0489Z" fill="#FF6A00"/>
</svg>
