<svg width="70" height="70" viewBox="0 0 70 70" fill="none" xmlns="http://www.w3.org/2000/svg">
<path d="M65.471 15.8553V33.0821C65.471 33.6532 65.2442 34.201 64.8403 34.6048C64.4365 35.0086 63.8888 35.2355 63.3177 35.2355C62.7466 35.2355 62.1988 35.0086 61.795 34.6048C61.3912 34.201 61.1643 33.6532 61.1643 33.0821V21.0529L39.0009 43.2191C38.8009 43.4193 38.5634 43.5781 38.302 43.6865C38.0406 43.7948 37.7603 43.8506 37.4774 43.8506C37.1944 43.8506 36.9142 43.7948 36.6528 43.6865C36.3913 43.5781 36.1538 43.4193 35.9539 43.2191L26.7106 33.9731L8.85384 51.8325C8.44978 52.2366 7.90176 52.4636 7.33034 52.4636C6.75891 52.4636 6.21089 52.2366 5.80684 51.8325C5.40278 51.4284 5.17578 50.8804 5.17578 50.309C5.17578 49.7376 5.40278 49.1896 5.80684 48.7855L25.1871 29.4053C25.3871 29.2051 25.6245 29.0462 25.886 28.9379C26.1474 28.8295 26.4276 28.7737 26.7106 28.7737C26.9936 28.7737 27.2738 28.8295 27.5352 28.9379C27.7966 29.0462 28.0341 29.2051 28.2341 29.4053L37.4774 38.6513L58.12 18.0086H46.0908C45.5197 18.0086 44.972 17.7818 44.5681 17.3779C44.1643 16.9741 43.9374 16.4264 43.9374 15.8553C43.9374 15.2842 44.1643 14.7364 44.5681 14.3326C44.972 13.9288 45.5197 13.7019 46.0908 13.7019H63.3177C63.8888 13.7019 64.4365 13.9288 64.8403 14.3326C65.2442 14.7364 65.471 15.2842 65.471 15.8553Z" fill="white"/>
</svg>
