<svg width="48" height="44" viewBox="0 0 48 44" fill="none" xmlns="http://www.w3.org/2000/svg">
<path d="M13.5419 25.1629H11.2666C10.9648 25.1629 10.6755 25.2852 10.4621 25.503C10.2488 25.7208 10.1289 26.0162 10.1289 26.3242V34.4538C10.1289 34.7618 10.2488 35.0572 10.4621 35.275C10.6755 35.4928 10.9648 35.6151 11.2666 35.6151H13.5419C14.8997 35.6151 16.2018 35.0645 17.1619 34.0844C18.122 33.1043 18.6614 31.775 18.6614 30.389C18.6614 29.0029 18.122 27.6736 17.1619 26.6936C16.2018 25.7135 14.8997 25.1629 13.5419 25.1629ZM13.5419 33.2924H12.4042V27.4856H13.5419C14.2962 27.4856 15.0196 27.7915 15.553 28.336C16.0864 28.8805 16.3861 29.619 16.3861 30.389C16.3861 31.159 16.0864 31.8975 15.553 32.442C15.0196 32.9865 14.2962 33.2924 13.5419 33.2924ZM37.6505 32.5796C37.8684 32.7925 37.9946 33.0851 38.0013 33.393C38.008 33.7009 37.8946 33.9989 37.686 34.2215C37.2899 34.6568 36.8108 35.0049 36.2783 35.2446C35.7457 35.4842 35.1707 35.6103 34.5887 35.6151C32.0788 35.6151 30.0381 33.2706 30.0381 30.389C30.0381 27.5074 32.0788 25.1629 34.5887 25.1629C35.1707 25.1677 35.7457 25.2938 36.2783 25.5334C36.8108 25.773 37.2899 26.1212 37.686 26.5565C37.89 26.7799 37.9996 27.0763 37.9911 27.3816C37.9825 27.6869 37.8565 27.9765 37.6404 28.1876C37.4242 28.3987 37.1352 28.5144 36.8361 28.5097C36.537 28.5049 36.2517 28.38 36.0421 28.1621C35.8574 27.9546 35.6334 27.7877 35.3835 27.6714C35.1337 27.5551 34.8633 27.4919 34.5887 27.4856C33.3345 27.4856 32.3134 28.7921 32.3134 30.389C32.3134 31.9859 33.3345 33.2924 34.5887 33.2924C34.8633 33.2861 35.1337 33.2229 35.3835 33.1066C35.6334 32.9903 35.8574 32.8234 36.0421 32.6159C36.2507 32.3934 36.5373 32.2646 36.8389 32.2578C37.1405 32.2509 37.4325 32.3667 37.6505 32.5796ZM24.3497 25.1629C21.8398 25.1629 19.7991 27.5074 19.7991 30.389C19.7991 33.2706 21.8398 35.6151 24.3497 35.6151C26.8597 35.6151 28.9004 33.2706 28.9004 30.389C28.9004 27.5074 26.8597 25.1629 24.3497 25.1629ZM24.3497 33.2924C23.0955 33.2924 22.0744 31.9859 22.0744 30.389C22.0744 28.7921 23.0955 27.4856 24.3497 27.4856C25.604 27.4856 26.6251 28.7921 26.6251 30.389C26.6251 31.9859 25.604 33.2924 24.3497 33.2924ZM12.9731 21.6788C13.2748 21.6788 13.5642 21.5564 13.7775 21.3386C13.9909 21.1208 14.1107 20.8254 14.1107 20.5174V10.0652H26.6251V17.0333C26.6251 17.3413 26.7449 17.6367 26.9583 17.8545C27.1716 18.0723 27.461 18.1947 27.7627 18.1947H34.5887V20.5174C34.5887 20.8254 34.7086 21.1208 34.9219 21.3386C35.1353 21.5564 35.4247 21.6788 35.7264 21.6788C36.0281 21.6788 36.3175 21.5564 36.5308 21.3386C36.7442 21.1208 36.8641 20.8254 36.8641 20.5174V17.0333C36.8642 16.8808 36.8349 16.7297 36.7778 16.5887C36.7207 16.4477 36.6369 16.3196 36.5313 16.2117L28.5676 8.08213C28.4619 7.97432 28.3364 7.88882 28.1983 7.83054C28.0602 7.77225 27.9122 7.74231 27.7627 7.74243H14.1107C13.5073 7.74243 12.9285 7.98715 12.5018 8.42274C12.0751 8.85834 11.8354 9.44913 11.8354 10.0652V20.5174C11.8354 20.8254 11.9553 21.1208 12.1686 21.3386C12.382 21.5564 12.6713 21.6788 12.9731 21.6788ZM28.9004 11.707L32.9804 15.872H28.9004V11.707Z" fill="white"/>
</svg>
