<svg width="48" height="44" viewBox="0 0 48 44" fill="none" xmlns="http://www.w3.org/2000/svg">
<path d="M35.7163 30.5877C35.7163 30.824 35.6225 31.0506 35.4554 31.2177C35.2883 31.3848 35.0617 31.4786 34.8254 31.4786H13.4436C13.2074 31.4786 12.9808 31.3848 12.8137 31.2177C12.6466 31.0506 12.5527 30.824 12.5527 30.5877V12.7696C12.5527 12.5333 12.6466 12.3067 12.8137 12.1396C12.9808 11.9725 13.2074 11.8787 13.4436 11.8787C13.6799 11.8787 13.9065 11.9725 14.0736 12.1396C14.2407 12.3067 14.3345 12.5333 14.3345 12.7696V24.8737L19.9406 19.2665C20.0233 19.1837 20.1216 19.118 20.2297 19.0731C20.3379 19.0283 20.4538 19.0052 20.5709 19.0052C20.688 19.0052 20.8039 19.0283 20.9121 19.0731C21.0202 19.118 21.1185 19.1837 21.2012 19.2665L24.1345 22.2009L30.0023 16.3332H27.6982C27.4619 16.3332 27.2353 16.2393 27.0682 16.0723C26.9011 15.9052 26.8073 15.6786 26.8073 15.4423C26.8073 15.206 26.9011 14.9794 27.0682 14.8123C27.2353 14.6452 27.4619 14.5514 27.6982 14.5514H32.1527C32.389 14.5514 32.6156 14.6452 32.7827 14.8123C32.9498 14.9794 33.0436 15.206 33.0436 15.4423V19.8968C33.0436 20.1331 32.9498 20.3597 32.7827 20.5268C32.6156 20.6939 32.389 20.7877 32.1527 20.7877C31.9164 20.7877 31.6898 20.6939 31.5227 20.5268C31.3557 20.3597 31.2618 20.1331 31.2618 19.8968V17.5927L24.7649 24.0908C24.6821 24.1736 24.5839 24.2393 24.4757 24.2842C24.3675 24.329 24.2516 24.3521 24.1345 24.3521C24.0175 24.3521 23.9015 24.329 23.7934 24.2842C23.6852 24.2393 23.587 24.1736 23.5042 24.0908L20.5709 21.1564L14.3345 27.3927V29.6968H34.8254C35.0617 29.6968 35.2883 29.7907 35.4554 29.9578C35.6225 30.1248 35.7163 30.3514 35.7163 30.5877Z" fill="white"/>
</svg>
