<svg width="64" height="58" viewBox="0 0 64 58" fill="none" xmlns="http://www.w3.org/2000/svg">
<path d="M32.3253 4.6271C27.0097 4.6271 21.8135 6.17794 17.3938 9.08351C12.9741 11.9891 9.52931 16.1189 7.49513 20.9506C5.46095 25.7824 4.92872 31.0992 5.96573 36.2286C7.00275 41.358 9.56243 46.0696 13.3211 49.7677C17.0798 53.4658 21.8686 55.9842 27.082 57.0045C32.2955 58.0248 37.6993 57.5012 42.6102 55.4998C47.5212 53.4984 51.7186 50.1091 54.6718 45.7607C57.625 41.4122 59.2012 36.2997 59.2012 31.0699C59.1931 24.0593 56.3589 17.3381 51.3204 12.3809C46.282 7.42362 39.4507 4.63512 32.3253 4.6271ZM32.3253 53.1055C27.8956 53.1055 23.5655 51.8131 19.8824 49.3918C16.1993 46.9705 13.3286 43.529 11.6335 39.5025C9.93834 35.476 9.49481 31.0454 10.359 26.7709C11.2232 22.4964 13.3562 18.57 16.4885 15.4883C19.6207 12.4066 23.6114 10.3079 27.9559 9.45763C32.3004 8.60738 36.8036 9.04376 40.8961 10.7116C44.9885 12.3794 48.4864 15.2038 50.9474 18.8275C53.4083 22.4513 54.7219 26.7116 54.7219 31.0699C54.7152 36.912 52.3534 42.5131 48.1547 46.6441C43.956 50.7752 38.2632 53.0989 32.3253 53.1055ZM13.7529 3.98256L4.79422 12.7968C4.37397 13.2103 3.80398 13.4426 3.20966 13.4426C2.61533 13.4426 2.04535 13.2103 1.6251 12.7968C1.20485 12.3833 0.96875 11.8225 0.96875 11.2378C0.96875 10.653 1.20485 10.0922 1.6251 9.67877L10.5837 0.864517C11.004 0.451039 11.574 0.21875 12.1683 0.21875C12.7626 0.21875 13.3326 0.451039 13.7529 0.864517C14.1731 1.278 14.4092 1.83879 14.4092 2.42354C14.4092 3.00828 14.1731 3.56908 13.7529 3.98256ZM63.0254 12.7968C62.8174 13.0017 62.5704 13.1642 62.2985 13.2751C62.0266 13.386 61.7352 13.4431 61.4409 13.4431C61.1465 13.4431 60.8551 13.386 60.5832 13.2751C60.3113 13.1642 60.0643 13.0017 59.8563 12.7968L50.8977 3.98256C50.4774 3.56908 50.2413 3.00828 50.2413 2.42354C50.2413 1.83879 50.4774 1.278 50.8977 0.864517C51.3179 0.451039 51.8879 0.21875 52.4822 0.21875C53.0766 0.21875 53.6465 0.451039 54.0668 0.864517L63.0254 9.67877C63.2337 9.88342 63.3989 10.1264 63.5116 10.394C63.6243 10.6615 63.6823 10.9482 63.6823 11.2378C63.6823 11.5274 63.6243 11.8141 63.5116 12.0816C63.3989 12.3491 63.2337 12.5922 63.0254 12.7968ZM48.0029 28.8663C48.5969 28.8663 49.1666 29.0984 49.5866 29.5117C50.0066 29.9249 50.2426 30.4854 50.2426 31.0699C50.2426 31.6543 50.0066 32.2148 49.5866 32.628C49.1666 33.0413 48.5969 33.2734 48.0029 33.2734H32.3253C31.7313 33.2734 31.1616 33.0413 30.7416 32.628C30.3216 32.2148 30.0856 31.6543 30.0856 31.0699V15.6449C30.0856 15.0605 30.3216 14.5 30.7416 14.0868C31.1616 13.6735 31.7313 13.4414 32.3253 13.4414C32.9193 13.4414 33.4889 13.6735 33.9089 14.0868C34.329 14.5 34.5649 15.0605 34.5649 15.6449V28.8663H48.0029Z" fill="white"/>
</svg>
