<svg width="47" height="44" viewBox="0 0 47 44" fill="none" xmlns="http://www.w3.org/2000/svg">
<path d="M26.9313 17.144H20.129C19.8283 17.144 19.54 17.2634 19.3274 17.476C19.1148 17.6887 18.9953 17.977 18.9953 18.2777V25.08C18.9953 25.3806 19.1148 25.669 19.3274 25.8816C19.54 26.0942 19.8283 26.2137 20.129 26.2137H26.9313C27.232 26.2137 27.5203 26.0942 27.7329 25.8816C27.9455 25.669 28.065 25.3806 28.065 25.08V18.2777C28.065 17.977 27.9455 17.6887 27.7329 17.476C27.5203 17.2634 27.232 17.144 26.9313 17.144ZM25.7976 23.9463H21.2627V19.4114H25.7976V23.9463ZM38.2684 23.9463H36.001V19.4114H38.2684C38.5691 19.4114 38.8574 19.292 39.07 19.0794C39.2827 18.8667 39.4021 18.5784 39.4021 18.2777C39.4021 17.977 39.2827 17.6887 39.07 17.476C38.8574 17.2634 38.5691 17.144 38.2684 17.144H36.001V11.4754C36.001 10.8741 35.7621 10.2974 35.3369 9.87213C34.9116 9.4469 34.3349 9.20802 33.7335 9.20802H28.065V6.9406C28.065 6.63992 27.9455 6.35155 27.7329 6.13894C27.5203 5.92633 27.232 5.80688 26.9313 5.80688C26.6306 5.80688 26.3422 5.92633 26.1296 6.13894C25.917 6.35155 25.7976 6.63992 25.7976 6.9406V9.20802H21.2627V6.9406C21.2627 6.63992 21.1433 6.35155 20.9307 6.13894C20.7181 5.92633 20.4297 5.80688 20.129 5.80688C19.8283 5.80688 19.54 5.92633 19.3274 6.13894C19.1148 6.35155 18.9953 6.63992 18.9953 6.9406V9.20802H13.3268C12.7254 9.20802 12.1487 9.4469 11.7234 9.87213C11.2982 10.2974 11.0593 10.8741 11.0593 11.4754V17.144H8.79191C8.49123 17.144 8.20287 17.2634 7.99026 17.476C7.77765 17.6887 7.6582 17.977 7.6582 18.2777C7.6582 18.5784 7.77765 18.8667 7.99026 19.0794C8.20287 19.292 8.49123 19.4114 8.79191 19.4114H11.0593V23.9463H8.79191C8.49123 23.9463 8.20287 24.0657 7.99026 24.2783C7.77765 24.4909 7.6582 24.7793 7.6582 25.08C7.6582 25.3806 7.77765 25.669 7.99026 25.8816C8.20287 26.0942 8.49123 26.2137 8.79191 26.2137H11.0593V31.8822C11.0593 32.4836 11.2982 33.0603 11.7234 33.4855C12.1487 33.9108 12.7254 34.1496 13.3268 34.1496H18.9953V36.4171C18.9953 36.7177 19.1148 37.0061 19.3274 37.2187C19.54 37.4313 19.8283 37.5508 20.129 37.5508C20.4297 37.5508 20.7181 37.4313 20.9307 37.2187C21.1433 37.0061 21.2627 36.7177 21.2627 36.4171V34.1496H25.7976V36.4171C25.7976 36.7177 25.917 37.0061 26.1296 37.2187C26.3422 37.4313 26.6306 37.5508 26.9313 37.5508C27.232 37.5508 27.5203 37.4313 27.7329 37.2187C27.9455 37.0061 28.065 36.7177 28.065 36.4171V34.1496H33.7335C34.3349 34.1496 34.9116 33.9108 35.3369 33.4855C35.7621 33.0603 36.001 32.4836 36.001 31.8822V26.2137H38.2684C38.5691 26.2137 38.8574 26.0942 39.07 25.8816C39.2827 25.669 39.4021 25.3806 39.4021 25.08C39.4021 24.7793 39.2827 24.4909 39.07 24.2783C38.8574 24.0657 38.5691 23.9463 38.2684 23.9463ZM33.7335 31.8822H13.3268V11.4754H33.7335V25.0615C33.7335 25.0615 33.7335 25.0743 33.7335 25.08C33.7335 25.0856 33.7335 25.0927 33.7335 25.0984V31.8822Z" fill="white"/>
</svg>
