<svg width="47" height="44" viewBox="0 0 47 44" fill="none" xmlns="http://www.w3.org/2000/svg">
<path d="M35.0425 30.5877C35.0425 30.824 34.9486 31.0506 34.7816 31.2177C34.6145 31.3848 34.3879 31.4786 34.1516 31.4786H12.7698C12.5335 31.4786 12.3069 31.3848 12.1398 31.2177C11.9728 31.0506 11.8789 30.824 11.8789 30.5877V12.7696C11.8789 12.5333 11.9728 12.3067 12.1398 12.1396C12.3069 11.9725 12.5335 11.8787 12.7698 11.8787C13.0061 11.8787 13.2327 11.9725 13.3998 12.1396C13.5669 12.3067 13.6607 12.5333 13.6607 12.7696V24.8737L19.2668 19.2665C19.3495 19.1837 19.4478 19.118 19.5559 19.0731C19.6641 19.0283 19.78 19.0052 19.8971 19.0052C20.0142 19.0052 20.1301 19.0283 20.2382 19.0731C20.3464 19.118 20.4447 19.1837 20.5274 19.2665L23.4607 22.2009L29.3284 16.3332H27.0243C26.7881 16.3332 26.5614 16.2393 26.3944 16.0723C26.2273 15.9052 26.1334 15.6786 26.1334 15.4423C26.1334 15.206 26.2273 14.9794 26.3944 14.8123C26.5614 14.6452 26.7881 14.5514 27.0243 14.5514H31.4789C31.7152 14.5514 31.9418 14.6452 32.1088 14.8123C32.2759 14.9794 32.3698 15.206 32.3698 15.4423V19.8968C32.3698 20.1331 32.2759 20.3597 32.1088 20.5268C31.9418 20.6939 31.7152 20.7877 31.4789 20.7877C31.2426 20.7877 31.016 20.6939 30.8489 20.5268C30.6818 20.3597 30.588 20.1331 30.588 19.8968V17.5927L24.091 24.0908C24.0083 24.1736 23.91 24.2393 23.8019 24.2842C23.6937 24.329 23.5778 24.3521 23.4607 24.3521C23.3436 24.3521 23.2277 24.329 23.1195 24.2842C23.0114 24.2393 22.9131 24.1736 22.8304 24.0908L19.8971 21.1564L13.6607 27.3927V29.6968H34.1516C34.3879 29.6968 34.6145 29.7907 34.7816 29.9578C34.9486 30.1248 35.0425 30.3514 35.0425 30.5877Z" fill="white"/>
</svg>
