<svg width="48" height="44" viewBox="0 0 48 44" fill="none" xmlns="http://www.w3.org/2000/svg">
<path d="M36.5393 20.1923H24.5939V17.2192H25.5894C26.1174 17.2192 26.6238 17.0104 26.9971 16.6387C27.3705 16.267 27.5803 15.7629 27.5803 15.2372V11.2731C27.5803 10.7474 27.3705 10.2433 26.9971 9.87155C26.6238 9.49984 26.1174 9.29102 25.5894 9.29102H21.6075C21.0795 9.29102 20.5731 9.49984 20.1998 9.87155C19.8264 10.2433 19.6166 10.7474 19.6166 11.2731V15.2372C19.6166 15.7629 19.8264 16.267 20.1998 16.6387C20.5731 17.0104 21.0795 17.2192 21.6075 17.2192H22.603V20.1923H10.6576C10.3936 20.1923 10.1404 20.2967 9.95367 20.4826C9.76699 20.6685 9.66211 20.9205 9.66211 21.1834C9.66211 21.4462 9.76699 21.6983 9.95367 21.8841C10.1404 22.07 10.3936 22.1744 10.6576 22.1744H14.6394V26.1385H13.6439C13.1159 26.1385 12.6095 26.3473 12.2361 26.719C11.8628 27.0907 11.653 27.5949 11.653 28.1206V32.0847C11.653 32.6104 11.8628 33.1145 12.2361 33.4862C12.6095 33.8579 13.1159 34.0667 13.6439 34.0667H17.6257C18.1538 34.0667 18.6601 33.8579 19.0335 33.4862C19.4069 33.1145 19.6166 32.6104 19.6166 32.0847V28.1206C19.6166 27.5949 19.4069 27.0907 19.0335 26.719C18.6601 26.3473 18.1538 26.1385 17.6257 26.1385H16.6303V22.1744H30.5666V26.1385H29.5712C29.0431 26.1385 28.5368 26.3473 28.1634 26.719C27.79 27.0907 27.5803 27.5949 27.5803 28.1206V32.0847C27.5803 32.6104 27.79 33.1145 28.1634 33.4862C28.5368 33.8579 29.0431 34.0667 29.5712 34.0667H33.553C34.081 34.0667 34.5874 33.8579 34.9608 33.4862C35.3341 33.1145 35.5439 32.6104 35.5439 32.0847V28.1206C35.5439 27.5949 35.3341 27.0907 34.9608 26.719C34.5874 26.3473 34.081 26.1385 33.553 26.1385H32.5575V22.1744H36.5393C36.8034 22.1744 37.0566 22.07 37.2432 21.8841C37.4299 21.6983 37.5348 21.4462 37.5348 21.1834C37.5348 20.9205 37.4299 20.6685 37.2432 20.4826C37.0566 20.2967 36.8034 20.1923 36.5393 20.1923ZM21.6075 11.2731H25.5894V15.2372H21.6075V11.2731ZM17.6257 32.0847H13.6439V28.1206H17.6257V32.0847ZM33.553 32.0847H29.5712V28.1206H33.553V32.0847Z" fill="white"/>
</svg>
