<svg width="60" height="60" viewBox="0 0 60 60" fill="none" xmlns="http://www.w3.org/2000/svg">
<path d="M53.0261 16.4228C52.9145 16.1471 52.7378 15.9026 52.511 15.7102C52.2842 15.5178 52.0141 15.3833 51.7239 15.3183C51.4337 15.2532 51.1321 15.2594 50.8449 15.3365C50.5576 15.4136 50.2934 15.5592 50.0748 15.7608L40.8117 24.3091L36.8513 23.4586L36.0009 19.4983L44.5491 10.2352C44.7507 10.0166 44.8963 9.75232 44.9734 9.46509C45.0505 9.17785 45.0568 8.8762 44.9917 8.58601C44.9266 8.29582 44.7921 8.02575 44.5997 7.79896C44.4073 7.57216 44.1628 7.39542 43.8871 7.28387C41.3747 6.26754 38.6511 5.8838 35.9556 6.16637C33.2602 6.44894 30.6754 7.38917 28.4283 8.90445C26.1813 10.4197 24.3408 12.4637 23.0685 14.8567C21.7962 17.2498 21.1312 19.9186 21.1317 22.6289C21.1287 24.9174 21.5982 27.182 22.5108 29.2808L8.67137 41.2469C8.63689 41.2745 8.60471 41.3067 8.57253 41.3366C7.19299 42.7161 6.41797 44.5872 6.41797 46.5381C6.41797 47.5042 6.60824 48.4607 6.97792 49.3532C7.3476 50.2457 7.88945 51.0566 8.57253 51.7397C9.25561 52.4228 10.0665 52.9646 10.959 53.3343C11.8515 53.704 12.8081 53.8943 13.7741 53.8943C15.7251 53.8943 17.5961 53.1193 18.9757 51.7397C19.0056 51.7098 19.0377 51.6754 19.0653 51.6432L31.0292 37.7991C33.5493 38.9054 36.3056 39.3657 39.0485 39.1383C41.7914 38.9109 44.4343 38.003 46.7378 36.4968C49.0414 34.9905 50.933 32.9336 52.2413 30.5121C53.5496 28.0907 54.2333 25.3811 54.2305 22.6289C54.2341 20.5018 53.8251 18.3942 53.0261 16.4228ZM37.6811 35.5006C35.5046 35.4976 33.3641 34.9441 31.459 33.8916C31.0899 33.6877 30.6619 33.6169 30.2468 33.691C29.8317 33.765 29.4546 33.9795 29.1788 34.2985L16.3301 49.1792C15.6348 49.8397 14.7089 50.2026 13.7499 50.1903C12.7909 50.178 11.8747 49.7916 11.1965 49.1134C10.5184 48.4353 10.1319 47.519 10.1197 46.56C10.1074 45.601 10.4702 44.6752 11.1308 43.9799L26 31.1334C26.3195 30.8575 26.5343 30.48 26.6084 30.0644C26.6825 29.6488 26.6113 29.2203 26.4068 28.851C25.2346 26.7309 24.6845 24.3231 24.8198 21.9043C24.955 19.4855 25.77 17.154 27.1712 15.1778C28.5724 13.2016 30.5028 11.6609 32.7406 10.7329C34.9783 9.8049 37.4325 9.52721 39.821 9.93178L32.6496 17.7031C32.4501 17.9196 32.3054 18.1808 32.2278 18.4648C32.1502 18.7487 32.142 19.0472 32.2037 19.3351L33.5047 25.3871C33.5791 25.7332 33.7518 26.0505 34.0022 26.3009C34.2525 26.5512 34.5698 26.724 34.916 26.7984L40.9726 28.0994C41.2604 28.1611 41.5589 28.1528 41.8429 28.0752C42.1269 27.9976 42.3881 27.853 42.6045 27.6534L50.3759 20.482C50.6857 22.3278 50.5897 24.2188 50.0946 26.0237C49.5995 27.8286 48.7172 29.504 47.509 30.9333C46.3009 32.3627 44.7958 33.5117 43.0986 34.3004C41.4013 35.0892 39.5527 35.4987 37.6811 35.5006Z" fill="white"/>
</svg>
