<svg width="48" height="47" viewBox="0 0 48 47" fill="none" xmlns="http://www.w3.org/2000/svg">
<path d="M37.6175 35.4896L30.9152 28.7887C32.8578 26.4565 33.8264 23.4651 33.6197 20.4369C33.4129 17.4087 32.0467 14.5768 29.8051 12.5302C27.5636 10.4837 24.6193 9.38013 21.5849 9.44909C18.5504 9.51806 15.6593 10.7542 13.5131 12.9005C11.3668 15.0468 10.1306 17.9378 10.0616 20.9723C9.99268 24.0068 11.0963 26.9511 13.1428 29.1926C15.1893 31.4341 18.0213 32.8004 21.0495 33.0071C24.0777 33.2139 27.069 32.2452 29.4012 30.3026L36.1022 37.0049C36.2017 37.1044 36.3198 37.1833 36.4498 37.2372C36.5798 37.291 36.7191 37.3187 36.8598 37.3187C37.0005 37.3187 37.1399 37.291 37.2698 37.2372C37.3998 37.1833 37.518 37.1044 37.6175 37.0049C37.717 36.9054 37.7959 36.7873 37.8497 36.6573C37.9036 36.5273 37.9313 36.388 37.9313 36.2473C37.9313 36.1066 37.9036 35.9672 37.8497 35.8372C37.7959 35.7072 37.717 35.5891 37.6175 35.4896ZM12.2299 21.2552C12.2299 19.349 12.7952 17.4856 13.8542 15.9007C14.9132 14.3158 16.4184 13.0805 18.1795 12.351C19.9406 11.6215 21.8784 11.4307 23.7479 11.8026C25.6175 12.1744 27.3348 13.0923 28.6826 14.4402C30.0305 15.7881 30.9484 17.5054 31.3203 19.3749C31.6922 21.2445 31.5013 23.1823 30.7719 24.9434C30.0424 26.7045 28.8071 28.2097 27.2222 29.2687C25.6372 30.3277 23.7739 30.8929 21.8677 30.8929C19.3125 30.8901 16.8627 29.8738 15.0559 28.067C13.2491 26.2601 12.2327 23.8104 12.2299 21.2552Z" fill="white"/>
</svg>
