<svg width="53" height="53" viewBox="0 0 53 53" fill="none" xmlns="http://www.w3.org/2000/svg">
<path d="M50.0733 14.9689C52.8806 20.8402 53.4135 27.5431 51.5692 33.7842C49.725 40.0252 45.6343 45.3619 40.0867 48.7642C34.5391 52.1666 27.9278 53.3934 21.5289 52.2079C15.1299 51.0224 9.39692 47.5086 5.43634 42.3447C1.47575 37.1809 -0.431655 30.7329 0.0822498 24.2454C0.596155 17.7579 3.49494 11.6907 8.21914 7.2148C12.9433 2.73889 19.158 0.171551 25.6638 0.0082921C32.1696 -0.154967 38.5053 2.09742 43.448 6.33075L49.1807 0.595576C49.5603 0.215981 50.0751 0.00272663 50.6119 0.00272663C51.1488 0.00272663 51.6636 0.215981 52.0432 0.595576C52.4228 0.975172 52.6361 1.49001 52.6361 2.02684C52.6361 2.56367 52.4228 3.07851 52.0432 3.45811L27.7673 27.734C27.3877 28.1136 26.8729 28.3268 26.3361 28.3268C25.7992 28.3268 25.2844 28.1136 24.9048 27.734C24.5252 27.3544 24.3119 26.8396 24.3119 26.3027C24.3119 25.7659 24.5252 25.2511 24.9048 24.8715L31.9145 17.8618C30.0147 16.6054 27.7466 16.0269 25.4772 16.22C23.2078 16.4131 21.07 17.3664 19.4099 18.9257C17.7497 20.485 16.6644 22.5589 16.3296 24.8117C15.9948 27.0646 16.4302 29.3645 17.5652 31.3391C18.7002 33.3138 20.4684 34.8476 22.5835 35.6922C24.6987 36.5369 27.0371 36.6429 29.22 35.9933C31.403 35.3436 33.3028 33.9762 34.6119 32.1124C35.921 30.2486 36.5628 27.9976 36.4333 25.7237C36.4184 25.458 36.4559 25.192 36.5438 24.9408C36.6316 24.6897 36.7681 24.4583 36.9454 24.2599C37.1226 24.0614 37.3373 23.8999 37.577 23.7844C37.8167 23.6689 38.0768 23.6018 38.3425 23.5869C38.879 23.5567 39.4056 23.7409 39.8063 24.0989C40.0047 24.2762 40.1663 24.4908 40.2818 24.7306C40.3972 24.9703 40.4643 25.2304 40.4793 25.4961C40.6637 28.7146 39.7444 31.8997 37.8734 34.525C36.0024 37.1503 33.2915 39.0586 30.189 39.9344C27.0865 40.8103 23.7779 40.6014 20.8102 39.3422C17.8425 38.0829 15.3933 35.8488 13.8674 33.009C12.3415 30.1692 11.8302 26.8937 12.418 23.724C13.0059 20.5542 14.6577 17.6799 17.1004 15.5761C19.5432 13.4724 22.6306 12.265 25.8525 12.1537C29.0744 12.0424 32.2378 13.0337 34.82 14.9639L40.5729 9.21099C36.3569 5.7107 30.9964 3.89144 25.5209 4.10262C20.0454 4.31381 14.841 6.54054 10.9072 10.3552C6.97339 14.1698 4.58765 19.3033 4.20818 24.7697C3.82871 30.2361 5.48226 35.6501 8.85124 39.9716C12.2202 44.2932 17.0671 47.2177 22.4609 48.1834C27.8547 49.1491 33.4152 48.0879 38.0743 45.2038C42.7334 42.3196 46.1626 37.8157 47.7034 32.5572C49.2441 27.2986 48.7877 21.6563 46.4218 16.7138C46.1904 16.2295 46.1609 15.6732 46.3397 15.1672C46.5185 14.6612 46.8909 14.247 47.3752 14.0156C47.8594 13.7842 48.4157 13.7547 48.9217 13.9335C49.4277 14.1122 49.8419 14.4847 50.0733 14.9689Z" fill="white"/>
</svg>
