<svg width="965" height="597" viewBox="0 0 965 597" fill="none" xmlns="http://www.w3.org/2000/svg">
<path d="M963.823 123V121.896L962.765 122.211L963 123C962.765 122.211 962.765 122.211 962.764 122.211L962.761 122.212L962.748 122.216L962.694 122.232L962.481 122.295C962.292 122.351 962.01 122.433 961.64 122.541C960.899 122.757 959.804 123.074 958.388 123.477C955.556 124.284 951.44 125.437 946.306 126.82C936.038 129.587 921.7 133.276 905.422 136.965C872.848 144.347 832.573 151.713 801.596 151.713C770.421 151.713 751.559 156.365 734.591 161.008C733.44 161.323 732.298 161.638 731.161 161.952C715.579 166.248 701.082 170.245 679.153 170.245C673.003 170.245 666.936 172.814 660.935 177.197C654.935 181.58 648.944 187.818 642.93 195.255C632.633 207.988 622.179 224.352 611.424 241.187C609.622 244.008 607.811 246.843 605.991 249.676C593.29 269.445 580.139 289.146 566.24 303.906C552.325 318.683 537.805 328.351 522.387 328.351C490.436 328.351 467.941 351.245 447.224 373.79C446.124 374.988 445.029 376.184 443.937 377.376C434.713 387.453 425.762 397.231 416.343 404.76C405.823 413.17 394.812 418.697 382.319 418.697C356.434 418.697 340.452 433.712 326.64 448.494C325.358 449.866 324.096 451.235 322.848 452.589C317.344 458.558 312.099 464.246 306.536 468.721C299.735 474.191 292.55 477.769 283.992 477.769C274.808 477.769 267.752 483.142 261.939 490.95C256.133 498.75 251.46 509.118 247.059 519.387C246.538 520.603 246.02 521.817 245.506 523.026C241.652 532.071 237.932 540.804 233.725 547.545C228.938 555.214 223.703 560.007 217.205 560.007C210.358 560.007 203.776 558.6 197.272 556.727C194.141 555.825 191.04 554.819 187.935 553.812L187.571 553.693C184.349 552.649 181.124 551.607 177.888 550.697C164.923 547.05 151.672 545.474 137.015 554.034C129.904 558.188 125.461 558.709 122.423 557.785C119.357 556.853 117.476 554.394 115.597 551.865L115.518 551.758C114.629 550.561 113.721 549.339 112.699 548.39C111.629 547.397 110.377 546.647 108.802 546.513C107.24 546.381 105.489 546.865 103.431 548.073C101.375 549.28 98.9566 551.243 96.0339 554.163C90.3575 559.833 84.6019 562.35 78.7548 562.734C72.8817 563.119 66.822 561.357 60.5455 558.291C54.269 555.225 47.8407 550.887 41.2367 546.191C39.6263 545.045 38.0051 543.878 36.3738 542.704C31.3609 539.096 26.2536 535.42 21.0794 532.098L2.59506 512.772L1.17658 511.289V513.341V595V595.823H2H963H963.823V595V123Z" fill="url(#paint0_linear_4113_1226)" stroke="url(#paint1_linear_4113_1226)" stroke-width="1.64684"/>
<line x1="667.814" y1="178.598" x2="667.814" y2="507.55" stroke="url(#paint2_linear_4113_1226)" stroke-width="3.29368"/>
<g filter="url(#filter0_di_4113_1226)">
<ellipse cx="668.02" cy="175.122" rx="20.4073" ry="12.7411" fill="#F06400"/>
<path d="M687.604 175.122C687.604 178.254 685.568 181.214 682.014 183.433C678.471 185.645 673.525 187.04 668.02 187.04C662.514 187.04 657.568 185.645 654.026 183.433C650.471 181.214 648.436 178.254 648.436 175.122C648.436 171.991 650.471 169.031 654.026 166.811C657.568 164.599 662.514 163.205 668.02 163.205C673.525 163.205 678.471 164.599 682.014 166.811C685.568 169.031 687.604 171.991 687.604 175.122Z" stroke="#FF9900" stroke-width="1.64684"/>
</g>
<g filter="url(#filter1_b_4113_1226)">
<path d="M424 154.266C424 140.312 435.312 129 449.266 129H559.734C573.688 129 585 140.312 585 154.266V170.734C585 184.688 573.688 196 559.734 196H449.266C435.312 196 424 184.688 424 170.734V154.266Z" fill="#FF9A35" fill-opacity="0.2"/>
<path d="M449.266 129.523H559.734C573.399 129.523 584.477 140.601 584.477 154.266V170.734C584.477 184.399 573.399 195.477 559.734 195.477H449.266C435.601 195.477 424.523 184.399 424.523 170.734V154.266C424.523 140.601 435.601 129.523 449.266 129.523Z" stroke="#FF9A35" stroke-width="1.04684"/>
<path d="M450.488 146.58C450.184 146.58 449.912 146.524 449.672 146.412C449.437 146.3 449.251 146.137 449.112 145.924C448.979 145.711 448.912 145.447 448.912 145.132V144.852H449.696V145.084C449.696 145.377 449.776 145.591 449.936 145.724C450.101 145.857 450.304 145.924 450.544 145.924C450.779 145.924 450.979 145.857 451.144 145.724C451.309 145.585 451.392 145.372 451.392 145.084V141.012H452.232V145.132C452.232 145.452 452.157 145.719 452.008 145.932C451.864 146.145 451.669 146.308 451.424 146.42C451.179 146.527 450.901 146.58 450.592 146.58H450.488ZM454.613 146.58C454.176 146.58 453.824 146.457 453.557 146.212C453.296 145.967 453.165 145.596 453.165 145.1V142.412H453.973V144.948C453.973 145.289 454.05 145.543 454.205 145.708C454.365 145.873 454.586 145.956 454.869 145.956C455.056 145.956 455.221 145.911 455.365 145.82C455.514 145.724 455.629 145.596 455.709 145.436C455.794 145.276 455.837 145.097 455.837 144.9V142.412H456.637V145.764C456.637 145.849 456.656 145.911 456.693 145.948C456.73 145.985 456.786 146.004 456.861 146.004C456.914 146.004 456.968 145.999 457.021 145.988C457.074 145.977 457.13 145.951 457.189 145.908V146.428C457.12 146.476 457.032 146.513 456.925 146.54C456.824 146.567 456.72 146.58 456.613 146.58C456.421 146.58 456.274 146.553 456.173 146.5C456.077 146.441 456.01 146.361 455.973 146.26C455.941 146.159 455.92 146.044 455.909 145.916C455.829 146.06 455.728 146.183 455.605 146.284C455.482 146.38 455.338 146.452 455.173 146.5C455.008 146.553 454.821 146.58 454.613 146.58ZM457.65 146.5V142.412H458.298L458.378 142.996C458.501 142.767 458.674 142.599 458.898 142.492C459.122 142.385 459.37 142.332 459.642 142.332C460.09 142.332 460.447 142.457 460.714 142.708C460.981 142.959 461.114 143.329 461.114 143.82V146.5H460.314V144.052C460.314 143.668 460.234 143.388 460.074 143.212C459.919 143.036 459.701 142.948 459.418 142.948C459.221 142.948 459.05 142.999 458.906 143.1C458.762 143.196 458.65 143.332 458.57 143.508C458.49 143.679 458.45 143.876 458.45 144.1V146.5H457.65ZM467.172 146.5C467.172 146.02 467.23 145.559 467.348 145.116C467.465 144.668 467.62 144.244 467.812 143.844C468.009 143.439 468.222 143.063 468.452 142.716C468.686 142.364 468.918 142.044 469.148 141.756H466.292V141.012H470.164V141.412C469.844 141.807 469.55 142.207 469.284 142.612C469.017 143.017 468.79 143.431 468.604 143.852C468.422 144.273 468.286 144.705 468.196 145.148C468.105 145.585 468.073 146.036 468.1 146.5H467.172ZM472.065 147.66V147.556C472.209 147.391 472.318 147.22 472.393 147.044C472.467 146.868 472.505 146.687 472.505 146.5H472.097V145.412H473.009V146.348C473.009 146.583 472.969 146.812 472.889 147.036C472.814 147.265 472.699 147.473 472.545 147.66H472.065ZM475.029 146.5V146.26C475.029 145.929 475.091 145.647 475.213 145.412C475.336 145.172 475.528 144.964 475.789 144.788L477.397 143.732C477.568 143.615 477.715 143.465 477.837 143.284C477.965 143.097 478.029 142.879 478.029 142.628C478.029 142.319 477.939 142.071 477.757 141.884C477.576 141.697 477.309 141.604 476.957 141.604C476.744 141.604 476.552 141.652 476.381 141.748C476.216 141.839 476.083 141.967 475.981 142.132C475.885 142.292 475.837 142.476 475.837 142.684C475.837 142.727 475.837 142.767 475.837 142.804C475.837 142.836 475.84 142.868 475.845 142.9H475.085C475.08 142.863 475.077 142.836 475.077 142.82C475.077 142.799 475.077 142.777 475.077 142.756C475.077 142.399 475.157 142.084 475.317 141.812C475.477 141.535 475.699 141.319 475.981 141.164C476.269 141.009 476.597 140.932 476.965 140.932H477.053C477.421 140.932 477.739 141.004 478.005 141.148C478.277 141.287 478.485 141.481 478.629 141.732C478.779 141.983 478.853 142.273 478.853 142.604C478.853 142.881 478.805 143.124 478.709 143.332C478.619 143.535 478.493 143.713 478.333 143.868C478.179 144.023 478.003 144.167 477.805 144.3L476.453 145.18C476.336 145.26 476.245 145.337 476.181 145.412C476.117 145.481 476.072 145.548 476.045 145.612C476.019 145.676 476 145.737 475.989 145.796H478.877V146.5H475.029ZM481.266 146.58C480.925 146.58 480.616 146.503 480.338 146.348C480.061 146.188 479.842 145.969 479.682 145.692C479.522 145.415 479.442 145.095 479.442 144.732V142.78C479.442 142.417 479.522 142.097 479.682 141.82C479.848 141.543 480.069 141.327 480.346 141.172C480.629 141.012 480.944 140.932 481.29 140.932H481.434C481.786 140.932 482.098 141.012 482.37 141.172C482.642 141.327 482.856 141.543 483.01 141.82C483.17 142.097 483.25 142.417 483.25 142.78V144.732C483.25 145.095 483.17 145.415 483.01 145.692C482.85 145.969 482.632 146.188 482.354 146.348C482.077 146.503 481.765 146.58 481.418 146.58H481.266ZM481.346 145.94C481.554 145.94 481.741 145.892 481.906 145.796C482.072 145.695 482.2 145.561 482.29 145.396C482.386 145.231 482.434 145.044 482.434 144.836V142.676C482.434 142.463 482.386 142.273 482.29 142.108C482.2 141.943 482.072 141.812 481.906 141.716C481.741 141.62 481.554 141.572 481.346 141.572C481.138 141.572 480.952 141.62 480.786 141.716C480.626 141.812 480.498 141.943 480.402 142.108C480.306 142.273 480.258 142.463 480.258 142.676V144.836C480.258 145.044 480.306 145.231 480.402 145.396C480.498 145.561 480.626 145.695 480.786 145.796C480.952 145.892 481.138 145.94 481.346 145.94ZM483.823 146.5V146.26C483.823 145.929 483.884 145.647 484.007 145.412C484.13 145.172 484.322 144.964 484.583 144.788L486.191 143.732C486.362 143.615 486.508 143.465 486.631 143.284C486.759 143.097 486.823 142.879 486.823 142.628C486.823 142.319 486.732 142.071 486.551 141.884C486.37 141.697 486.103 141.604 485.751 141.604C485.538 141.604 485.346 141.652 485.175 141.748C485.01 141.839 484.876 141.967 484.775 142.132C484.679 142.292 484.631 142.476 484.631 142.684C484.631 142.727 484.631 142.767 484.631 142.804C484.631 142.836 484.634 142.868 484.639 142.9H483.879C483.874 142.863 483.871 142.836 483.871 142.82C483.871 142.799 483.871 142.777 483.871 142.756C483.871 142.399 483.951 142.084 484.111 141.812C484.271 141.535 484.492 141.319 484.775 141.164C485.063 141.009 485.391 140.932 485.759 140.932H485.847C486.215 140.932 486.532 141.004 486.799 141.148C487.071 141.287 487.279 141.481 487.423 141.732C487.572 141.983 487.647 142.273 487.647 142.604C487.647 142.881 487.599 143.124 487.503 143.332C487.412 143.535 487.287 143.713 487.127 143.868C486.972 144.023 486.796 144.167 486.599 144.3L485.247 145.18C485.13 145.26 485.039 145.337 484.975 145.412C484.911 145.481 484.866 145.548 484.839 145.612C484.812 145.676 484.794 145.737 484.783 145.796H487.671V146.5H483.823ZM490.012 146.58C489.633 146.58 489.3 146.513 489.012 146.38C488.729 146.247 488.508 146.063 488.348 145.828C488.188 145.593 488.108 145.327 488.108 145.028V144.884H488.86C488.86 145.252 488.967 145.519 489.18 145.684C489.393 145.849 489.681 145.932 490.044 145.932C490.396 145.932 490.684 145.852 490.908 145.692C491.132 145.527 491.244 145.281 491.244 144.956C491.244 144.732 491.191 144.548 491.084 144.404C490.983 144.26 490.847 144.156 490.676 144.092C490.505 144.023 490.319 143.988 490.116 143.988H489.428V143.404H490.044C490.241 143.404 490.42 143.369 490.58 143.3C490.745 143.231 490.876 143.129 490.972 142.996C491.073 142.857 491.124 142.687 491.124 142.484C491.124 142.281 491.076 142.113 490.98 141.98C490.884 141.847 490.753 141.748 490.588 141.684C490.428 141.62 490.247 141.588 490.044 141.588C489.708 141.588 489.444 141.671 489.252 141.836C489.065 142.001 488.972 142.241 488.972 142.556H488.244V142.42C488.244 142.116 488.321 141.855 488.476 141.636C488.636 141.412 488.852 141.239 489.124 141.116C489.396 140.993 489.703 140.932 490.044 140.932H490.148C490.484 140.932 490.785 140.993 491.052 141.116C491.319 141.233 491.529 141.404 491.684 141.628C491.844 141.847 491.924 142.108 491.924 142.412C491.924 142.625 491.887 142.809 491.812 142.964C491.737 143.119 491.636 143.249 491.508 143.356C491.38 143.463 491.233 143.556 491.068 143.636V143.676C491.356 143.767 491.591 143.924 491.772 144.148C491.959 144.372 492.052 144.665 492.052 145.028C492.052 145.337 491.969 145.609 491.804 145.844C491.644 146.073 491.42 146.255 491.132 146.388C490.844 146.516 490.516 146.58 490.148 146.58H490.012ZM494.049 147.66V147.556C494.193 147.391 494.302 147.22 494.377 147.044C494.452 146.868 494.489 146.687 494.489 146.5H494.081V145.412H494.993V146.348C494.993 146.583 494.953 146.812 494.873 147.036C494.798 147.265 494.684 147.473 494.529 147.66H494.049ZM501.603 146.5V145.836H503.051V141.94H501.603V141.452C501.779 141.436 501.973 141.407 502.187 141.364C502.4 141.316 502.624 141.257 502.859 141.188C503.099 141.113 503.333 141.028 503.563 140.932H503.859V145.836H505.291V146.5H501.603ZM505.808 146.5V146.26C505.808 145.929 505.869 145.647 505.992 145.412C506.114 145.172 506.306 144.964 506.568 144.788L508.176 143.732C508.346 143.615 508.493 143.465 508.616 143.284C508.744 143.097 508.808 142.879 508.808 142.628C508.808 142.319 508.717 142.071 508.536 141.884C508.354 141.697 508.088 141.604 507.736 141.604C507.522 141.604 507.33 141.652 507.16 141.748C506.994 141.839 506.861 141.967 506.76 142.132C506.664 142.292 506.616 142.476 506.616 142.684C506.616 142.727 506.616 142.767 506.616 142.804C506.616 142.836 506.618 142.868 506.624 142.9H505.864C505.858 142.863 505.856 142.836 505.856 142.82C505.856 142.799 505.856 142.777 505.856 142.756C505.856 142.399 505.936 142.084 506.096 141.812C506.256 141.535 506.477 141.319 506.76 141.164C507.048 141.009 507.376 140.932 507.744 140.932H507.832C508.2 140.932 508.517 141.004 508.784 141.148C509.056 141.287 509.264 141.481 509.408 141.732C509.557 141.983 509.632 142.273 509.632 142.604C509.632 142.881 509.584 143.124 509.488 143.332C509.397 143.535 509.272 143.713 509.112 143.868C508.957 144.023 508.781 144.167 508.584 144.3L507.232 145.18C507.114 145.26 507.024 145.337 506.96 145.412C506.896 145.481 506.85 145.548 506.824 145.612C506.797 145.676 506.778 145.737 506.768 145.796H509.656V146.5H505.808ZM511.604 146.5V145.508H512.644V146.5H511.604ZM511.604 143.396V142.404H512.644V143.396H511.604ZM516.537 146.58C516.148 146.58 515.809 146.503 515.521 146.348C515.233 146.188 515.012 145.975 514.857 145.708C514.703 145.436 514.625 145.124 514.625 144.772H515.385C515.385 144.985 515.431 145.18 515.521 145.356C515.617 145.527 515.748 145.663 515.913 145.764C516.084 145.865 516.284 145.916 516.513 145.916C516.753 145.916 516.956 145.863 517.121 145.756C517.292 145.649 517.42 145.505 517.505 145.324C517.596 145.143 517.641 144.948 517.641 144.74C517.641 144.516 517.591 144.316 517.489 144.14C517.393 143.959 517.26 143.817 517.089 143.716C516.919 143.615 516.727 143.564 516.513 143.564C516.305 143.564 516.108 143.617 515.921 143.724C515.74 143.831 515.599 143.967 515.497 144.132L514.817 144.036L515.049 141.012H518.153V141.756H515.713L515.593 143.356C515.732 143.228 515.897 143.124 516.089 143.044C516.281 142.964 516.489 142.924 516.713 142.924C517.06 142.924 517.361 143.001 517.617 143.156C517.879 143.305 518.081 143.519 518.225 143.796C518.375 144.068 518.449 144.388 518.449 144.756C518.449 145.103 518.369 145.412 518.209 145.684C518.049 145.956 517.825 146.175 517.537 146.34C517.255 146.5 516.921 146.58 516.537 146.58ZM520.79 146.58C520.411 146.58 520.078 146.513 519.79 146.38C519.507 146.247 519.286 146.063 519.126 145.828C518.966 145.593 518.886 145.327 518.886 145.028V144.884H519.638C519.638 145.252 519.745 145.519 519.958 145.684C520.171 145.849 520.459 145.932 520.822 145.932C521.174 145.932 521.462 145.852 521.686 145.692C521.91 145.527 522.022 145.281 522.022 144.956C522.022 144.732 521.969 144.548 521.862 144.404C521.761 144.26 521.625 144.156 521.454 144.092C521.283 144.023 521.097 143.988 520.894 143.988H520.206V143.404H520.822C521.019 143.404 521.198 143.369 521.358 143.3C521.523 143.231 521.654 143.129 521.75 142.996C521.851 142.857 521.902 142.687 521.902 142.484C521.902 142.281 521.854 142.113 521.758 141.98C521.662 141.847 521.531 141.748 521.366 141.684C521.206 141.62 521.025 141.588 520.822 141.588C520.486 141.588 520.222 141.671 520.03 141.836C519.843 142.001 519.75 142.241 519.75 142.556H519.022V142.42C519.022 142.116 519.099 141.855 519.254 141.636C519.414 141.412 519.63 141.239 519.902 141.116C520.174 140.993 520.481 140.932 520.822 140.932H520.926C521.262 140.932 521.563 140.993 521.83 141.116C522.097 141.233 522.307 141.404 522.462 141.628C522.622 141.847 522.702 142.108 522.702 142.412C522.702 142.625 522.665 142.809 522.59 142.964C522.515 143.119 522.414 143.249 522.286 143.356C522.158 143.463 522.011 143.556 521.846 143.636V143.676C522.134 143.767 522.369 143.924 522.55 144.148C522.737 144.372 522.83 144.665 522.83 145.028C522.83 145.337 522.747 145.609 522.582 145.844C522.422 146.073 522.198 146.255 521.91 146.388C521.622 146.516 521.294 146.58 520.926 146.58H520.79ZM524.795 146.5V145.508H525.835V146.5H524.795ZM524.795 143.396V142.404H525.835V143.396H524.795ZM529.584 146.58C529.205 146.58 528.872 146.513 528.584 146.38C528.301 146.247 528.08 146.063 527.92 145.828C527.76 145.593 527.68 145.327 527.68 145.028V144.884H528.432C528.432 145.252 528.539 145.519 528.752 145.684C528.965 145.849 529.253 145.932 529.616 145.932C529.968 145.932 530.256 145.852 530.48 145.692C530.704 145.527 530.816 145.281 530.816 144.956C530.816 144.732 530.763 144.548 530.656 144.404C530.555 144.26 530.419 144.156 530.248 144.092C530.077 144.023 529.891 143.988 529.688 143.988H529V143.404H529.616C529.813 143.404 529.992 143.369 530.152 143.3C530.317 143.231 530.448 143.129 530.544 142.996C530.645 142.857 530.696 142.687 530.696 142.484C530.696 142.281 530.648 142.113 530.552 141.98C530.456 141.847 530.325 141.748 530.16 141.684C530 141.62 529.819 141.588 529.616 141.588C529.28 141.588 529.016 141.671 528.824 141.836C528.637 142.001 528.544 142.241 528.544 142.556H527.816V142.42C527.816 142.116 527.893 141.855 528.048 141.636C528.208 141.412 528.424 141.239 528.696 141.116C528.968 140.993 529.275 140.932 529.616 140.932H529.72C530.056 140.932 530.357 140.993 530.624 141.116C530.891 141.233 531.101 141.404 531.256 141.628C531.416 141.847 531.496 142.108 531.496 142.412C531.496 142.625 531.459 142.809 531.384 142.964C531.309 143.119 531.208 143.249 531.08 143.356C530.952 143.463 530.805 143.556 530.64 143.636V143.676C530.928 143.767 531.163 143.924 531.344 144.148C531.531 144.372 531.624 144.665 531.624 145.028C531.624 145.337 531.541 145.609 531.376 145.844C531.216 146.073 530.992 146.255 530.704 146.388C530.416 146.516 530.088 146.58 529.72 146.58H529.584ZM532.381 146.5V145.836H533.829V141.94H532.381V141.452C532.557 141.436 532.751 141.407 532.965 141.364C533.178 141.316 533.402 141.257 533.637 141.188C533.877 141.113 534.111 141.028 534.341 140.932H534.637V145.836H536.069V146.5H532.381ZM542.351 146.58C541.929 146.58 541.604 146.481 541.375 146.284C541.151 146.087 541.039 145.796 541.039 145.412C541.039 145.092 541.124 144.836 541.295 144.644C541.471 144.447 541.751 144.303 542.135 144.212C542.524 144.121 543.036 144.076 543.671 144.076V143.628C543.671 143.372 543.604 143.185 543.471 143.068C543.343 142.951 543.124 142.892 542.815 142.892C542.532 142.892 542.313 142.951 542.159 143.068C542.004 143.185 541.927 143.351 541.927 143.564V143.66H541.191C541.18 143.575 541.172 143.519 541.167 143.492C541.167 143.465 541.167 143.455 541.167 143.46C541.167 143.465 541.167 143.473 541.167 143.484C541.172 143.495 541.175 143.495 541.175 143.484C541.175 143.132 541.324 142.852 541.623 142.644C541.927 142.436 542.332 142.332 542.839 142.332C543.377 142.332 543.783 142.436 544.055 142.644C544.332 142.852 544.471 143.169 544.471 143.596V145.764C544.471 145.849 544.492 145.911 544.535 145.948C544.577 145.985 544.633 146.004 544.703 146.004C544.825 146.004 544.932 145.972 545.023 145.908V146.428C544.953 146.476 544.868 146.513 544.767 146.54C544.665 146.567 544.559 146.58 544.447 146.58C544.287 146.58 544.156 146.559 544.055 146.516C543.953 146.479 543.879 146.412 543.831 146.316C543.783 146.22 543.751 146.087 543.735 145.916C543.644 146.081 543.527 146.215 543.383 146.316C543.239 146.412 543.079 146.479 542.903 146.516C542.727 146.559 542.543 146.58 542.351 146.58ZM542.599 146.012C542.844 146.012 543.044 145.959 543.199 145.852C543.359 145.745 543.476 145.601 543.551 145.42C543.631 145.239 543.671 145.036 543.671 144.812V144.564C543.212 144.564 542.847 144.591 542.575 144.644C542.308 144.692 542.116 144.775 541.999 144.892C541.887 145.004 541.831 145.164 541.831 145.372C541.831 145.585 541.892 145.745 542.015 145.852C542.143 145.959 542.337 146.012 542.599 146.012ZM546.779 146.5V145.508H547.819V146.5H546.779ZM549.72 146.5V142.412H550.192L550.272 142.868C550.352 142.692 550.464 142.559 550.608 142.468C550.758 142.377 550.918 142.332 551.088 142.332C551.27 142.332 551.43 142.38 551.568 142.476C551.712 142.572 551.819 142.713 551.888 142.9C551.984 142.713 552.102 142.572 552.24 142.476C552.384 142.38 552.56 142.332 552.768 142.332C553.062 142.332 553.286 142.425 553.44 142.612C553.6 142.799 553.68 143.065 553.68 143.412V146.5H552.992V143.556C552.992 143.156 552.843 142.956 552.544 142.956C552.4 142.956 552.28 143.012 552.184 143.124C552.088 143.236 552.04 143.38 552.04 143.556V146.5H551.36V143.556C551.36 143.156 551.206 142.956 550.896 142.956C550.752 142.956 550.632 143.012 550.536 143.124C550.446 143.236 550.4 143.38 550.4 143.556V146.5H549.72ZM555.573 146.5V145.508H556.613V146.5H555.573Z" fill="#999999"/>
<path d="M505.377 157.26H492.897V162.78C493.43 162.193 494.177 161.713 495.137 161.34C496.097 160.967 497.137 160.78 498.257 160.78C500.257 160.78 501.91 161.233 503.217 162.14C504.55 163.047 505.523 164.22 506.137 165.66C506.75 167.1 507.057 168.66 507.057 170.34C507.057 173.46 506.177 175.94 504.417 177.78C502.657 179.593 500.177 180.5 496.977 180.5C494.843 180.5 492.99 180.14 491.417 179.42C489.843 178.673 488.63 177.647 487.777 176.34C486.923 175.033 486.457 173.527 486.377 171.82H493.057C493.217 172.647 493.603 173.34 494.217 173.9C494.83 174.433 495.67 174.7 496.737 174.7C497.99 174.7 498.923 174.3 499.537 173.5C500.15 172.7 500.457 171.633 500.457 170.3C500.457 168.993 500.137 167.993 499.497 167.3C498.857 166.607 497.923 166.26 496.697 166.26C495.79 166.26 495.043 166.487 494.457 166.94C493.87 167.367 493.483 167.94 493.297 168.66H486.697V151.26H505.377V157.26ZM510.832 165.5C510.832 160.913 511.712 157.3 513.472 154.66C515.259 152.02 518.126 150.7 522.072 150.7C526.019 150.7 528.872 152.02 530.632 154.66C532.419 157.3 533.312 160.913 533.312 165.5C533.312 170.14 532.419 173.78 530.632 176.42C528.872 179.06 526.019 180.38 522.072 180.38C518.126 180.38 515.259 179.06 513.472 176.42C511.712 173.78 510.832 170.14 510.832 165.5ZM526.592 165.5C526.592 162.807 526.299 160.74 525.712 159.3C525.126 157.833 523.912 157.1 522.072 157.1C520.232 157.1 519.019 157.833 518.432 159.3C517.846 160.74 517.552 162.807 517.552 165.5C517.552 167.313 517.659 168.82 517.872 170.02C518.086 171.193 518.512 172.153 519.152 172.9C519.819 173.62 520.792 173.98 522.072 173.98C523.352 173.98 524.312 173.62 524.952 172.9C525.619 172.153 526.059 171.193 526.272 170.02C526.486 168.82 526.592 167.313 526.592 165.5ZM550.806 180.5L546.526 174.3L542.926 180.5H535.526L542.886 169.1L535.326 158.18H543.006L547.286 164.34L550.886 158.18H558.286L550.806 169.42L558.486 180.5H550.806Z" fill="white"/>
</g>
<defs>
<filter id="filter0_di_4113_1226" x="485.975" y="0.743736" width="364.089" height="348.757" filterUnits="userSpaceOnUse" color-interpolation-filters="sRGB">
<feFlood flood-opacity="0" result="BackgroundImageFix"/>
<feColorMatrix in="SourceAlpha" type="matrix" values="0 0 0 0 0 0 0 0 0 0 0 0 0 0 0 0 0 0 127 0" result="hardAlpha"/>
<feMorphology radius="65.8736" operator="dilate" in="SourceAlpha" result="effect1_dropShadow_4113_1226"/>
<feOffset/>
<feGaussianBlur stdDeviation="47.8819"/>
<feComposite in2="hardAlpha" operator="out"/>
<feColorMatrix type="matrix" values="0 0 0 0 1 0 0 0 0 0.416667 0 0 0 0 0 0 0 0 1 0"/>
<feBlend mode="plus-lighter" in2="BackgroundImageFix" result="effect1_dropShadow_4113_1226"/>
<feBlend mode="normal" in="SourceGraphic" in2="effect1_dropShadow_4113_1226" result="shape"/>
<feColorMatrix in="SourceAlpha" type="matrix" values="0 0 0 0 0 0 0 0 0 0 0 0 0 0 0 0 0 0 127 0" result="hardAlpha"/>
<feMorphology radius="4.1171" operator="erode" in="SourceAlpha" result="effect2_innerShadow_4113_1226"/>
<feOffset dx="0.82342" dy="2.47026"/>
<feGaussianBlur stdDeviation="15.0686"/>
<feComposite in2="hardAlpha" operator="arithmetic" k2="-1" k3="1"/>
<feColorMatrix type="matrix" values="0 0 0 0 0.956863 0 0 0 0 0.564706 0 0 0 0 0.145098 0 0 0 1 0"/>
<feBlend mode="plus-lighter" in2="shape" result="effect2_innerShadow_4113_1226"/>
</filter>
<filter id="filter1_b_4113_1226" x="407.285" y="112.285" width="194.43" height="100.43" filterUnits="userSpaceOnUse" color-interpolation-filters="sRGB">
<feFlood flood-opacity="0" result="BackgroundImageFix"/>
<feGaussianBlur in="BackgroundImageFix" stdDeviation="8.3575"/>
<feComposite in2="SourceAlpha" operator="in" result="effect1_backgroundBlur_4113_1226"/>
<feBlend mode="normal" in="SourceGraphic" in2="effect1_backgroundBlur_4113_1226" result="shape"/>
</filter>
<linearGradient id="paint0_linear_4113_1226" x1="242.25" y1="202.342" x2="623.655" y2="813.237" gradientUnits="userSpaceOnUse">
<stop stop-color="#FF6A00"/>
<stop offset="0.841" stop-opacity="0"/>
</linearGradient>
<linearGradient id="paint1_linear_4113_1226" x1="569.695" y1="321.066" x2="651.76" y2="440.323" gradientUnits="userSpaceOnUse">
<stop stop-color="#FFA600"/>
<stop offset="1" stop-color="#994D00" stop-opacity="0"/>
</linearGradient>
<linearGradient id="paint2_linear_4113_1226" x1="665.579" y1="178.598" x2="663.304" y2="178.655" gradientUnits="userSpaceOnUse">
<stop stop-color="#FFF700"/>
<stop offset="1" stop-opacity="0"/>
</linearGradient>
</defs>
</svg>
