<svg width="634" height="198" viewBox="0 0 634 198" fill="none" xmlns="http://www.w3.org/2000/svg">
<path d="M33.0813 80.3017C32.0729 79.1803 30.9687 77.8873 29.7901 76.5073C27.4802 73.8025 24.8845 70.7632 22.1642 68.0252C20.1176 65.9652 18.0232 64.1008 15.962 62.7081C13.8958 61.3119 11.8997 60.4152 10.0451 60.2401C8.72551 60.1156 7.22184 59.9732 5.85304 59.5771C4.48021 59.1798 3.18255 58.511 2.32373 57.2905C1.15375 55.6277 1.0363 53.4428 2.02129 51.6642L7.70736 41.397C9.38104 38.3749 12.5633 36.4995 16.018 36.4995H332C337.247 36.4995 341.5 40.7528 341.5 45.9995V185.537C341.5 192.018 335.151 196.636 328.93 194.932C318.342 192.031 302.89 188.425 291.542 188.425C281.952 188.425 276.144 186.83 270.931 185.242C270.579 185.135 270.23 185.028 269.883 184.921C265.109 183.456 260.701 182.103 254.023 182.103C252.051 182.103 250.135 181.187 248.274 179.674C246.412 178.16 244.563 176.014 242.715 173.47C239.552 169.117 236.342 163.523 233.047 157.782C232.495 156.82 231.941 155.853 231.384 154.888C227.491 148.143 223.47 141.44 219.226 136.423C214.966 131.387 210.583 128.173 205.986 128.173C201.01 128.173 196.783 126.186 193.017 123.252C189.26 120.325 185.933 116.432 182.755 112.583C182.418 112.174 182.082 111.766 181.748 111.36C178.919 107.92 176.189 104.6 173.317 102.045C170.112 99.1924 166.798 97.356 163.066 97.356C155.443 97.356 150.731 101.025 146.523 104.786C146.139 105.128 145.759 105.473 145.381 105.816C143.692 107.345 142.036 108.845 140.282 110.023C138.118 111.477 135.766 112.47 132.937 112.47C131.455 112.47 129.998 111.897 128.57 110.95C127.142 110.004 125.715 108.664 124.285 107.082C121.866 104.406 119.388 100.977 116.846 97.4612C116.387 96.8257 115.926 96.1874 115.462 95.5502C112.422 91.3696 109.286 87.2269 106.006 84.129C102.719 81.0246 99.3621 79.0425 95.8837 79.0425C84.9253 79.0425 75.476 83.3444 71.4901 85.4628C70.0873 86.2084 68.5475 86.7223 66.9176 86.7701C63.424 86.8728 56.5023 86.9307 49.7099 86.1418C46.3143 85.7474 42.9351 85.1396 40.0261 84.2131C37.1284 83.2901 34.6382 82.0329 33.0813 80.3017Z" fill="url(#paint0_linear_4106_1197)" stroke="url(#paint1_linear_4106_1197)"/>
<line x1="246.852" y1="182.976" x2="249.024" y2="0.975926" stroke="url(#paint2_linear_4106_1197)" stroke-width="4"/>
<path d="M12.496 97.4875V91.4875H26.08V97.4875H12.496ZM41.6098 108.576C39.2738 108.576 36.9538 108.272 34.6498 107.664C32.3778 107.024 30.4258 106.128 28.7938 104.976L31.8658 99.0235C33.1458 99.9515 34.6178 100.688 36.2818 101.232C37.9778 101.776 39.6898 102.048 41.4178 102.048C43.3698 102.048 44.9058 101.664 46.0258 100.896C47.1458 100.128 47.7058 99.0555 47.7058 97.6795C47.7058 96.8155 47.4818 96.0475 47.0338 95.3755C46.5858 94.7035 45.7858 94.1915 44.6338 93.8395C43.5138 93.4875 41.9298 93.3115 39.8818 93.3115H31.2898L33.0178 74.3995H53.5138V80.6395H35.8018L39.8338 77.0875L38.6338 90.5755L34.6018 87.0235H41.7058C45.0338 87.0235 47.7058 87.4875 49.7218 88.4155C51.7698 89.3115 53.2578 90.5435 54.1858 92.1115C55.1138 93.6795 55.5778 95.4555 55.5778 97.4395C55.5778 99.4235 55.0818 101.264 54.0898 102.96C53.0978 104.624 51.5618 105.984 49.4818 107.04C47.4338 108.064 44.8098 108.576 41.6098 108.576ZM72.9308 108.576C70.1788 108.576 67.7148 107.904 65.5388 106.56C63.3628 105.184 61.6508 103.2 60.4028 100.608C59.1548 98.0155 58.5308 94.8795 58.5308 91.1995C58.5308 87.5195 59.1548 84.3835 60.4028 81.7915C61.6508 79.1995 63.3628 77.2315 65.5388 75.8875C67.7148 74.5115 70.1788 73.8235 72.9308 73.8235C75.7148 73.8235 78.1788 74.5115 80.3228 75.8875C82.4988 77.2315 84.2108 79.1995 85.4588 81.7915C86.7068 84.3835 87.3308 87.5195 87.3308 91.1995C87.3308 94.8795 86.7068 98.0155 85.4588 100.608C84.2108 103.2 82.4988 105.184 80.3228 106.56C78.1788 107.904 75.7148 108.576 72.9308 108.576ZM72.9308 102C74.2428 102 75.3788 101.632 76.3388 100.896C77.3308 100.16 78.0988 98.9915 78.6428 97.3915C79.2188 95.7915 79.5068 93.7275 79.5068 91.1995C79.5068 88.6715 79.2188 86.6075 78.6428 85.0075C78.0988 83.4075 77.3308 82.2395 76.3388 81.5035C75.3788 80.7675 74.2428 80.3995 72.9308 80.3995C71.6508 80.3995 70.5148 80.7675 69.5228 81.5035C68.5628 82.2395 67.7948 83.4075 67.2188 85.0075C66.6748 86.6075 66.4028 88.6715 66.4028 91.1995C66.4028 93.7275 66.6748 95.7915 67.2188 97.3915C67.7948 98.9915 68.5628 100.16 69.5228 100.896C70.5148 101.632 71.6508 102 72.9308 102ZM95.755 108L118.699 74.3995H124.411L101.467 108H95.755ZM98.683 92.5435C97.051 92.5435 95.611 92.1755 94.363 91.4395C93.115 90.6715 92.123 89.5995 91.387 88.2235C90.683 86.8155 90.331 85.1675 90.331 83.2795C90.331 81.3915 90.683 79.7595 91.387 78.3835C92.123 77.0075 93.115 75.9355 94.363 75.1675C95.611 74.3995 97.051 74.0155 98.683 74.0155C100.315 74.0155 101.755 74.3995 103.003 75.1675C104.251 75.9355 105.227 77.0075 105.931 78.3835C106.635 79.7595 106.987 81.3915 106.987 83.2795C106.987 85.1675 106.635 86.8155 105.931 88.2235C105.227 89.5995 104.251 90.6715 103.003 91.4395C101.755 92.1755 100.315 92.5435 98.683 92.5435ZM98.683 88.6075C99.739 88.6075 100.587 88.1755 101.227 87.3115C101.867 86.4155 102.187 85.0715 102.187 83.2795C102.187 81.4875 101.867 80.1595 101.227 79.2955C100.587 78.3995 99.739 77.9515 98.683 77.9515C97.659 77.9515 96.811 78.3995 96.139 79.2955C95.499 80.1595 95.179 81.4875 95.179 83.2795C95.179 85.0395 95.499 86.3675 96.139 87.2635C96.811 88.1595 97.659 88.6075 98.683 88.6075ZM121.483 108.384C119.883 108.384 118.443 108.016 117.163 107.28C115.915 106.512 114.939 105.44 114.235 104.064C113.531 102.656 113.179 101.008 113.179 99.1195C113.179 97.2315 113.531 95.5995 114.235 94.2235C114.939 92.8475 115.915 91.7755 117.163 91.0075C118.443 90.2395 119.883 89.8555 121.483 89.8555C123.147 89.8555 124.603 90.2395 125.851 91.0075C127.099 91.7755 128.075 92.8475 128.779 94.2235C129.483 95.5995 129.835 97.2315 129.835 99.1195C129.835 101.008 129.483 102.656 128.779 104.064C128.075 105.44 127.099 106.512 125.851 107.28C124.603 108.016 123.147 108.384 121.483 108.384ZM121.483 104.448C122.539 104.448 123.387 104.016 124.027 103.152C124.667 102.256 124.987 100.912 124.987 99.1195C124.987 97.3595 124.667 96.0315 124.027 95.1355C123.387 94.2395 122.539 93.7915 121.483 93.7915C120.459 93.7915 119.611 94.2395 118.939 95.1355C118.299 95.9995 117.979 97.3275 117.979 99.1195C117.979 100.912 118.299 102.256 118.939 103.152C119.611 104.016 120.459 104.448 121.483 104.448Z" fill="#ECECEC"/>
<defs>
<linearGradient id="paint0_linear_4106_1197" x1="120.147" y1="170.936" x2="255.865" y2="-24.3426" gradientUnits="userSpaceOnUse">
<stop stop-color="#FF6A00"/>
<stop offset="0.841" stop-opacity="0"/>
</linearGradient>
<linearGradient id="paint1_linear_4106_1197" x1="220.483" y1="130.439" x2="249.42" y2="92.6635" gradientUnits="userSpaceOnUse">
<stop stop-color="#FFA600"/>
<stop offset="1" stop-color="#994D00" stop-opacity="0"/>
</linearGradient>
<linearGradient id="paint2_linear_4106_1197" x1="249.439" y1="183.007" x2="251.713" y2="182.93" gradientUnits="userSpaceOnUse">
<stop stop-color="#FFF700"/>
<stop offset="1" stop-opacity="0"/>
</linearGradient>
</defs>
</svg>
