<svg width="383" height="291" viewBox="0 0 383 291" fill="none" xmlns="http://www.w3.org/2000/svg">
<path d="M36.9529 110.065C35.8274 108.407 34.5937 106.494 33.2754 104.449C31.006 100.929 28.4861 97.02 25.8373 93.3594C23.7505 90.4756 21.6012 87.7719 19.4602 85.5715C17.3139 83.3657 15.2046 81.6957 13.2026 80.8423C12.3088 80.4614 11.2971 80.1289 10.2317 79.7845L10.0372 79.7217C9.03876 79.3993 8.00095 79.0641 7.01172 78.6733C4.91909 77.8466 2.92452 76.728 1.89996 74.7991C0.980493 73.0681 0.885724 71.0159 1.64174 69.2075L9.11313 51.3358C10.5908 47.8011 14.0469 45.5 17.878 45.5H373C378.247 45.5 382.5 49.7533 382.5 55V271.222C382.5 278.083 375.436 282.752 369.028 280.41C357.153 276.069 339.487 270.544 326.578 270.544C315.818 270.544 309.3 268.174 303.458 265.816C303.064 265.657 302.673 265.498 302.285 265.34C296.932 263.164 292.003 261.16 284.534 261.16C282.293 261.16 280.143 259.783 278.079 257.56C276.005 255.326 273.943 252.157 271.878 248.392C268.341 241.942 264.751 233.654 261.058 225.13C260.439 223.701 259.817 222.266 259.192 220.831C254.83 210.819 250.316 200.848 245.548 193.381C243.164 189.647 240.732 186.565 238.244 184.421C235.757 182.277 233.251 181.102 230.705 181.102C225.098 181.102 220.358 178.138 216.157 173.802C211.959 169.47 208.241 163.707 204.68 157.993C204.303 157.387 203.927 156.782 203.552 156.178C200.383 151.074 197.315 146.131 194.088 142.327C190.472 138.064 186.759 135.355 182.61 135.355C174.099 135.355 168.818 140.787 164.08 146.396C163.649 146.906 163.222 147.418 162.797 147.928C160.905 150.198 159.056 152.416 157.097 154.159C154.686 156.305 152.044 157.791 148.847 157.791C147.16 157.791 145.519 156.928 143.933 155.535C142.342 154.138 140.751 152.16 139.154 149.82C136.451 145.858 133.681 140.781 130.833 135.561C130.318 134.617 129.8 133.668 129.28 132.721C125.873 126.515 122.35 120.349 118.663 115.735C114.954 111.095 111.19 108.169 107.326 108.169C95.1047 108.169 84.5511 114.508 80.0541 117.668C78.4545 118.792 76.5881 119.579 74.5837 119.652C70.5359 119.798 62.8253 119.853 55.3009 118.665C51.5387 118.071 47.8048 117.163 44.5917 115.791C41.3824 114.421 38.6531 112.57 36.9529 110.065Z" fill="url(#paint0_linear_4106_1197)" stroke="url(#paint1_linear_4106_1197)"/>
<g filter="url(#filter0_d_4106_1197)">
<line x1="276.907" y1="262.733" x2="276.907" y2="46.0005" stroke="url(#paint2_linear_4106_1197)" stroke-width="4" shape-rendering="crispEdges"/>
</g>
<path d="M17.998 203.73V197.73H31.582V203.73H17.998ZM47.1117 214.818C44.7757 214.818 42.4557 214.514 40.1517 213.906C37.8797 213.266 35.9277 212.37 34.2957 211.218L37.3677 205.266C38.6477 206.194 40.1197 206.93 41.7837 207.474C43.4797 208.018 45.1917 208.29 46.9197 208.29C48.8717 208.29 50.4077 207.906 51.5277 207.138C52.6477 206.37 53.2077 205.298 53.2077 203.922C53.2077 203.058 52.9837 202.29 52.5357 201.618C52.0877 200.946 51.2877 200.434 50.1357 200.082C49.0157 199.73 47.4317 199.554 45.3837 199.554H36.7917L38.5197 180.642H59.0157V186.882H41.3037L45.3357 183.33L44.1357 196.818L40.1037 193.266H47.2077C50.5357 193.266 53.2077 193.73 55.2237 194.658C57.2717 195.554 58.7597 196.786 59.6877 198.354C60.6157 199.922 61.0797 201.698 61.0797 203.682C61.0797 205.666 60.5837 207.506 59.5917 209.202C58.5997 210.866 57.0637 212.226 54.9837 213.282C52.9357 214.306 50.3117 214.818 47.1117 214.818ZM78.4327 214.818C75.6807 214.818 73.2167 214.146 71.0407 212.802C68.8647 211.426 67.1527 209.442 65.9047 206.85C64.6567 204.258 64.0327 201.122 64.0327 197.442C64.0327 193.762 64.6567 190.626 65.9047 188.034C67.1527 185.442 68.8647 183.474 71.0407 182.13C73.2167 180.754 75.6807 180.066 78.4327 180.066C81.2167 180.066 83.6807 180.754 85.8247 182.13C88.0007 183.474 89.7127 185.442 90.9607 188.034C92.2087 190.626 92.8327 193.762 92.8327 197.442C92.8327 201.122 92.2087 204.258 90.9607 206.85C89.7127 209.442 88.0007 211.426 85.8247 212.802C83.6807 214.146 81.2167 214.818 78.4327 214.818ZM78.4327 208.242C79.7447 208.242 80.8807 207.874 81.8407 207.138C82.8327 206.402 83.6007 205.234 84.1447 203.634C84.7207 202.034 85.0087 199.97 85.0087 197.442C85.0087 194.914 84.7207 192.85 84.1447 191.25C83.6007 189.65 82.8327 188.482 81.8407 187.746C80.8807 187.01 79.7447 186.642 78.4327 186.642C77.1527 186.642 76.0167 187.01 75.0247 187.746C74.0647 188.482 73.2967 189.65 72.7207 191.25C72.1767 192.85 71.9047 194.914 71.9047 197.442C71.9047 199.97 72.1767 202.034 72.7207 203.634C73.2967 205.234 74.0647 206.402 75.0247 207.138C76.0167 207.874 77.1527 208.242 78.4327 208.242ZM101.257 214.242L124.201 180.642H129.913L106.969 214.242H101.257ZM104.185 198.786C102.553 198.786 101.113 198.418 99.865 197.682C98.617 196.914 97.625 195.842 96.889 194.466C96.185 193.058 95.833 191.41 95.833 189.522C95.833 187.634 96.185 186.002 96.889 184.626C97.625 183.25 98.617 182.178 99.865 181.41C101.113 180.642 102.553 180.258 104.185 180.258C105.817 180.258 107.257 180.642 108.505 181.41C109.753 182.178 110.729 183.25 111.433 184.626C112.137 186.002 112.489 187.634 112.489 189.522C112.489 191.41 112.137 193.058 111.433 194.466C110.729 195.842 109.753 196.914 108.505 197.682C107.257 198.418 105.817 198.786 104.185 198.786ZM104.185 194.85C105.241 194.85 106.089 194.418 106.729 193.554C107.369 192.658 107.689 191.314 107.689 189.522C107.689 187.73 107.369 186.402 106.729 185.538C106.089 184.642 105.241 184.194 104.185 184.194C103.161 184.194 102.313 184.642 101.641 185.538C101.001 186.402 100.681 187.73 100.681 189.522C100.681 191.282 101.001 192.61 101.641 193.506C102.313 194.402 103.161 194.85 104.185 194.85ZM126.985 214.626C125.385 214.626 123.945 214.258 122.665 213.522C121.417 212.754 120.441 211.682 119.737 210.306C119.033 208.898 118.681 207.25 118.681 205.362C118.681 203.474 119.033 201.842 119.737 200.466C120.441 199.09 121.417 198.018 122.665 197.25C123.945 196.482 125.385 196.098 126.985 196.098C128.649 196.098 130.105 196.482 131.353 197.25C132.601 198.018 133.577 199.09 134.281 200.466C134.985 201.842 135.337 203.474 135.337 205.362C135.337 207.25 134.985 208.898 134.281 210.306C133.577 211.682 132.601 212.754 131.353 213.522C130.105 214.258 128.649 214.626 126.985 214.626ZM126.985 210.69C128.041 210.69 128.889 210.258 129.529 209.394C130.169 208.498 130.489 207.154 130.489 205.362C130.489 203.602 130.169 202.274 129.529 201.378C128.889 200.482 128.041 200.034 126.985 200.034C125.961 200.034 125.113 200.482 124.441 201.378C123.801 202.242 123.481 203.57 123.481 205.362C123.481 207.154 123.801 208.498 124.441 209.394C125.113 210.258 125.961 210.69 126.985 210.69Z" fill="#ECECEC"/>
<defs>
<filter id="filter0_d_4106_1197" x="237.907" y="0.000488281" width="78" height="290.733" filterUnits="userSpaceOnUse" color-interpolation-filters="sRGB">
<feFlood flood-opacity="0" result="BackgroundImageFix"/>
<feColorMatrix in="SourceAlpha" type="matrix" values="0 0 0 0 0 0 0 0 0 0 0 0 0 0 0 0 0 0 127 0" result="hardAlpha"/>
<feOffset dy="-9"/>
<feGaussianBlur stdDeviation="18.5"/>
<feComposite in2="hardAlpha" operator="out"/>
<feColorMatrix type="matrix" values="0 0 0 0 1 0 0 0 0 0.416667 0 0 0 0 0 0 0 0 1 0"/>
<feBlend mode="normal" in2="BackgroundImageFix" result="effect1_dropShadow_4106_1197"/>
<feBlend mode="normal" in="SourceGraphic" in2="effect1_dropShadow_4106_1197" result="shape"/>
</filter>
<linearGradient id="paint0_linear_4106_1197" x1="134.515" y1="244.825" x2="348.736" y2="12.148" gradientUnits="userSpaceOnUse">
<stop stop-color="#FF6A00"/>
<stop offset="0.841" stop-opacity="0"/>
</linearGradient>
<linearGradient id="paint1_linear_4106_1197" x1="246.95" y1="184.708" x2="291.436" y2="140.869" gradientUnits="userSpaceOnUse">
<stop stop-color="#FFA600"/>
<stop offset="1" stop-color="#994D00" stop-opacity="0"/>
</linearGradient>
<linearGradient id="paint2_linear_4106_1197" x1="279.495" y1="262.733" x2="281.769" y2="262.647" gradientUnits="userSpaceOnUse">
<stop stop-color="#FFF700"/>
<stop offset="1" stop-opacity="0"/>
</linearGradient>
</defs>
</svg>
