<svg width="1281" height="712" viewBox="0 0 1281 712" fill="none" xmlns="http://www.w3.org/2000/svg">
<path d="M1278.78 111.208L1279 112C1278.78 111.208 1278.77 111.208 1278.77 111.208L1278.77 111.209L1278.75 111.215L1278.68 111.235L1278.4 111.315C1278.15 111.385 1277.77 111.49 1277.28 111.627C1276.29 111.901 1274.84 112.302 1272.96 112.813C1269.19 113.836 1263.72 115.296 1256.9 117.049C1243.25 120.556 1224.19 125.231 1202.56 129.906C1159.27 139.259 1105.72 148.597 1064.52 148.597C1023.13 148.597 998.099 154.484 975.566 160.364C974.035 160.763 972.517 161.163 971.005 161.56C950.299 167.004 930.999 172.077 901.817 172.077C893.734 172.077 885.733 175.297 877.784 180.832C869.836 186.367 861.892 194.251 853.906 203.667C840.232 219.788 826.349 240.508 812.058 261.837C809.662 265.412 807.255 269.005 804.835 272.596C787.96 297.64 770.473 322.618 751.987 341.335C733.488 360.065 714.122 372.389 693.503 372.389C651.197 372.389 621.386 401.29 593.838 429.873C592.376 431.39 590.92 432.906 589.469 434.417C577.214 447.181 565.306 459.584 552.773 469.136C538.772 479.808 524.076 486.853 507.376 486.853C473.12 486.853 451.956 505.79 433.601 524.521C431.901 526.256 430.226 527.987 428.569 529.701C421.254 537.264 414.268 544.488 406.859 550.17C397.797 557.121 388.186 561.694 376.718 561.694C364.653 561.694 355.349 568.42 347.642 578.291C339.945 588.149 333.745 601.262 327.895 614.276C327.203 615.816 326.515 617.354 325.831 618.885C320.712 630.342 315.761 641.423 310.161 649.978C303.8 659.694 296.774 665.886 287.969 665.886C278.83 665.886 270.051 664.095 261.397 661.718C257.234 660.575 253.11 659.299 248.987 658.024L248.496 657.872C244.215 656.548 239.935 655.231 235.642 654.079C218.449 649.468 200.94 647.49 181.563 658.28C172.088 663.556 166.09 664.264 161.931 663.058C157.755 661.847 155.207 658.656 152.722 655.466L152.622 655.339C151.436 653.816 150.242 652.282 148.901 651.095C147.504 649.859 145.898 648.951 143.895 648.789C141.906 648.628 139.642 649.213 136.936 650.727C134.233 652.24 131.037 654.711 127.16 658.403C119.58 665.622 111.869 668.848 104.014 669.34C96.1343 669.832 88.0268 667.578 79.6641 663.682C71.3009 659.787 62.7427 654.28 53.9666 648.33C51.8242 646.877 49.6683 645.397 47.4999 643.909C40.831 639.333 34.0435 634.674 27.1651 630.465L2.58132 605.959L1.17658 604.559V606.542V710V710.823H2H1279H1279.82V710V112V110.91L1278.78 111.208Z" fill="url(#paint0_linear_4113_1226)" stroke="url(#paint1_linear_4113_1226)" stroke-width="1.64684"/>
<line x1="886.208" y1="182.44" x2="886.208" y2="599.205" stroke="url(#paint2_linear_4113_1226)" stroke-width="3.29368"/>
<g filter="url(#filter0_di_4113_1226)">
<ellipse cx="887.023" cy="178.036" rx="27.1178" ry="16.1423" fill="#F06400"/>
<path d="M913.317 178.036C913.317 182.088 910.554 185.899 905.777 188.743C901.018 191.576 894.389 193.355 887.023 193.355C879.657 193.355 873.029 191.576 868.269 188.743C863.492 185.899 860.729 182.088 860.729 178.036C860.729 173.985 863.492 170.173 868.269 167.329C873.029 164.496 879.657 162.717 887.023 162.717C894.389 162.717 901.018 164.496 905.777 167.329C910.554 170.173 913.317 173.985 913.317 178.036Z" stroke="#FF9900" stroke-width="1.64684"/>
</g>
<g filter="url(#filter1_b_4113_1226)">
<path d="M468.417 144.868C468.417 130.914 479.729 119.602 493.683 119.602H751.438C765.392 119.602 776.704 130.914 776.704 144.868V267.908C776.704 281.862 765.392 293.174 751.438 293.174H493.683C479.729 293.174 468.417 281.862 468.417 267.908V144.868Z" fill="#FF9A35" fill-opacity="0.2"/>
<path d="M493.683 120.125H751.438C765.103 120.125 776.181 131.203 776.181 144.868V267.908C776.181 281.573 765.103 292.65 751.438 292.65H493.683C480.018 292.65 468.94 281.573 468.94 267.908V144.868C468.94 131.203 480.018 120.125 493.683 120.125Z" stroke="#FF9A35" stroke-width="1.04684"/>
<path d="M588.272 166.008C587.816 166.008 587.408 165.924 587.048 165.756C586.696 165.588 586.416 165.344 586.208 165.024C586.008 164.704 585.908 164.308 585.908 163.836V163.416H587.084V163.764C587.084 164.204 587.204 164.524 587.444 164.724C587.692 164.924 587.996 165.024 588.356 165.024C588.708 165.024 589.008 164.924 589.256 164.724C589.504 164.516 589.628 164.196 589.628 163.764V157.656H590.888V163.836C590.888 164.316 590.776 164.716 590.552 165.036C590.336 165.356 590.044 165.6 589.676 165.768C589.308 165.928 588.892 166.008 588.428 166.008H588.272ZM594.459 166.008C593.803 166.008 593.275 165.824 592.875 165.456C592.483 165.088 592.287 164.532 592.287 163.788V159.756H593.499V163.56C593.499 164.072 593.615 164.452 593.847 164.7C594.087 164.948 594.419 165.072 594.843 165.072C595.123 165.072 595.371 165.004 595.587 164.868C595.811 164.724 595.983 164.532 596.103 164.292C596.231 164.052 596.295 163.784 596.295 163.488V159.756H597.495V164.784C597.495 164.912 597.523 165.004 597.579 165.06C597.635 165.116 597.719 165.144 597.831 165.144C597.911 165.144 597.991 165.136 598.071 165.12C598.151 165.104 598.235 165.064 598.323 165V165.78C598.219 165.852 598.087 165.908 597.927 165.948C597.775 165.988 597.619 166.008 597.459 166.008C597.171 166.008 596.951 165.968 596.799 165.888C596.655 165.8 596.555 165.68 596.499 165.528C596.451 165.376 596.419 165.204 596.403 165.012C596.283 165.228 596.131 165.412 595.947 165.564C595.763 165.708 595.547 165.816 595.299 165.888C595.051 165.968 594.771 166.008 594.459 166.008ZM599.014 165.888V159.756H599.986L600.106 160.632C600.29 160.288 600.55 160.036 600.886 159.876C601.222 159.716 601.594 159.636 602.002 159.636C602.674 159.636 603.21 159.824 603.61 160.2C604.01 160.576 604.21 161.132 604.21 161.868V165.888H603.01V162.216C603.01 161.64 602.89 161.22 602.65 160.956C602.418 160.692 602.09 160.56 601.666 160.56C601.37 160.56 601.114 160.636 600.898 160.788C600.682 160.932 600.514 161.136 600.394 161.4C600.274 161.656 600.214 161.952 600.214 162.288V165.888H599.014ZM613.297 165.888C613.297 165.168 613.385 164.476 613.561 163.812C613.737 163.14 613.969 162.504 614.257 161.904C614.553 161.296 614.873 160.732 615.217 160.212C615.569 159.684 615.917 159.204 616.261 158.772H611.977V157.656H617.785V158.256C617.305 158.848 616.865 159.448 616.465 160.056C616.065 160.664 615.725 161.284 615.445 161.916C615.173 162.548 614.969 163.196 614.833 163.86C614.697 164.516 614.649 165.192 614.689 165.888H613.297ZM620.636 167.628V167.472C620.852 167.224 621.016 166.968 621.128 166.704C621.24 166.44 621.296 166.168 621.296 165.888H620.684V164.256H622.052V165.66C622.052 166.012 621.992 166.356 621.872 166.692C621.76 167.036 621.588 167.348 621.356 167.628H620.636ZM625.084 165.888V165.528C625.084 165.032 625.176 164.608 625.36 164.256C625.544 163.896 625.832 163.584 626.224 163.32L628.636 161.736C628.892 161.56 629.112 161.336 629.296 161.064C629.488 160.784 629.584 160.456 629.584 160.08C629.584 159.616 629.448 159.244 629.176 158.964C628.904 158.684 628.504 158.544 627.976 158.544C627.656 158.544 627.368 158.616 627.112 158.76C626.864 158.896 626.664 159.088 626.512 159.336C626.368 159.576 626.296 159.852 626.296 160.164C626.296 160.228 626.296 160.288 626.296 160.344C626.296 160.392 626.3 160.44 626.308 160.488H625.168C625.16 160.432 625.156 160.392 625.156 160.368C625.156 160.336 625.156 160.304 625.156 160.272C625.156 159.736 625.276 159.264 625.516 158.856C625.756 158.44 626.088 158.116 626.512 157.884C626.944 157.652 627.436 157.536 627.988 157.536H628.12C628.672 157.536 629.148 157.644 629.548 157.86C629.956 158.068 630.268 158.36 630.484 158.736C630.708 159.112 630.82 159.548 630.82 160.044C630.82 160.46 630.748 160.824 630.604 161.136C630.468 161.44 630.28 161.708 630.04 161.94C629.808 162.172 629.544 162.388 629.248 162.588L627.22 163.908C627.044 164.028 626.908 164.144 626.812 164.256C626.716 164.36 626.648 164.46 626.608 164.556C626.568 164.652 626.54 164.744 626.524 164.832H630.856V165.888H625.084ZM634.439 166.008C633.927 166.008 633.463 165.892 633.047 165.66C632.631 165.42 632.303 165.092 632.063 164.676C631.823 164.26 631.703 163.78 631.703 163.236V160.308C631.703 159.764 631.823 159.284 632.063 158.868C632.311 158.452 632.643 158.128 633.059 157.896C633.483 157.656 633.955 157.536 634.475 157.536H634.691C635.219 157.536 635.687 157.656 636.095 157.896C636.503 158.128 636.823 158.452 637.055 158.868C637.295 159.284 637.415 159.764 637.415 160.308V163.236C637.415 163.78 637.295 164.26 637.055 164.676C636.815 165.092 636.487 165.42 636.071 165.66C635.655 165.892 635.187 166.008 634.667 166.008H634.439ZM634.559 165.048C634.871 165.048 635.151 164.976 635.399 164.832C635.647 164.68 635.839 164.48 635.975 164.232C636.119 163.984 636.191 163.704 636.191 163.392V160.152C636.191 159.832 636.119 159.548 635.975 159.3C635.839 159.052 635.647 158.856 635.399 158.712C635.151 158.568 634.871 158.496 634.559 158.496C634.247 158.496 633.967 158.568 633.719 158.712C633.479 158.856 633.287 159.052 633.143 159.3C632.999 159.548 632.927 159.832 632.927 160.152V163.392C632.927 163.704 632.999 163.984 633.143 164.232C633.287 164.48 633.479 164.68 633.719 164.832C633.967 164.976 634.247 165.048 634.559 165.048ZM638.274 165.888V165.528C638.274 165.032 638.366 164.608 638.55 164.256C638.734 163.896 639.022 163.584 639.414 163.32L641.826 161.736C642.082 161.56 642.302 161.336 642.486 161.064C642.678 160.784 642.774 160.456 642.774 160.08C642.774 159.616 642.638 159.244 642.366 158.964C642.094 158.684 641.694 158.544 641.166 158.544C640.846 158.544 640.558 158.616 640.302 158.76C640.054 158.896 639.854 159.088 639.702 159.336C639.558 159.576 639.486 159.852 639.486 160.164C639.486 160.228 639.486 160.288 639.486 160.344C639.486 160.392 639.49 160.44 639.498 160.488H638.358C638.35 160.432 638.346 160.392 638.346 160.368C638.346 160.336 638.346 160.304 638.346 160.272C638.346 159.736 638.466 159.264 638.706 158.856C638.946 158.44 639.278 158.116 639.702 157.884C640.134 157.652 640.626 157.536 641.178 157.536H641.31C641.862 157.536 642.338 157.644 642.738 157.86C643.146 158.068 643.458 158.36 643.674 158.736C643.898 159.112 644.01 159.548 644.01 160.044C644.01 160.46 643.938 160.824 643.794 161.136C643.658 161.44 643.47 161.708 643.23 161.94C642.998 162.172 642.734 162.388 642.438 162.588L640.41 163.908C640.234 164.028 640.098 164.144 640.002 164.256C639.906 164.36 639.838 164.46 639.798 164.556C639.758 164.652 639.73 164.744 639.714 164.832H644.046V165.888H638.274ZM647.558 166.008C646.99 166.008 646.49 165.908 646.058 165.708C645.634 165.508 645.302 165.232 645.062 164.88C644.822 164.528 644.702 164.128 644.702 163.68V163.464H645.83C645.83 164.016 645.99 164.416 646.31 164.664C646.63 164.912 647.062 165.036 647.606 165.036C648.134 165.036 648.566 164.916 648.902 164.676C649.238 164.428 649.406 164.06 649.406 163.572C649.406 163.236 649.326 162.96 649.166 162.744C649.014 162.528 648.81 162.372 648.554 162.276C648.298 162.172 648.018 162.12 647.714 162.12H646.682V161.244H647.606C647.902 161.244 648.17 161.192 648.41 161.088C648.658 160.984 648.854 160.832 648.998 160.632C649.15 160.424 649.226 160.168 649.226 159.864C649.226 159.56 649.154 159.308 649.01 159.108C648.866 158.908 648.67 158.76 648.422 158.664C648.182 158.568 647.91 158.52 647.606 158.52C647.102 158.52 646.706 158.644 646.418 158.892C646.138 159.14 645.998 159.5 645.998 159.972H644.906V159.768C644.906 159.312 645.022 158.92 645.254 158.592C645.494 158.256 645.818 157.996 646.226 157.812C646.634 157.628 647.094 157.536 647.606 157.536H647.762C648.266 157.536 648.718 157.628 649.118 157.812C649.518 157.988 649.834 158.244 650.066 158.58C650.306 158.908 650.426 159.3 650.426 159.756C650.426 160.076 650.37 160.352 650.258 160.584C650.146 160.816 649.994 161.012 649.802 161.172C649.61 161.332 649.39 161.472 649.142 161.592V161.652C649.574 161.788 649.926 162.024 650.198 162.36C650.478 162.696 650.618 163.136 650.618 163.68C650.618 164.144 650.494 164.552 650.246 164.904C650.006 165.248 649.67 165.52 649.238 165.72C648.806 165.912 648.314 166.008 647.762 166.008H647.558ZM653.613 167.628V167.472C653.829 167.224 653.993 166.968 654.105 166.704C654.217 166.44 654.273 166.168 654.273 165.888H653.661V164.256H655.029V165.66C655.029 166.012 654.969 166.356 654.849 166.692C654.737 167.036 654.565 167.348 654.333 167.628H653.613ZM664.944 165.888V164.892H667.116V159.048H664.944V158.316C665.208 158.292 665.5 158.248 665.82 158.184C666.14 158.112 666.476 158.024 666.828 157.92C667.188 157.808 667.54 157.68 667.884 157.536H668.328V164.892H670.476V165.888H664.944ZM671.251 165.888V165.528C671.251 165.032 671.343 164.608 671.527 164.256C671.711 163.896 671.999 163.584 672.391 163.32L674.803 161.736C675.059 161.56 675.279 161.336 675.463 161.064C675.655 160.784 675.751 160.456 675.751 160.08C675.751 159.616 675.615 159.244 675.343 158.964C675.071 158.684 674.671 158.544 674.143 158.544C673.823 158.544 673.535 158.616 673.279 158.76C673.031 158.896 672.831 159.088 672.679 159.336C672.535 159.576 672.463 159.852 672.463 160.164C672.463 160.228 672.463 160.288 672.463 160.344C672.463 160.392 672.467 160.44 672.475 160.488H671.335C671.327 160.432 671.323 160.392 671.323 160.368C671.323 160.336 671.323 160.304 671.323 160.272C671.323 159.736 671.443 159.264 671.683 158.856C671.923 158.44 672.255 158.116 672.679 157.884C673.111 157.652 673.603 157.536 674.155 157.536H674.287C674.839 157.536 675.315 157.644 675.715 157.86C676.123 158.068 676.435 158.36 676.651 158.736C676.875 159.112 676.987 159.548 676.987 160.044C676.987 160.46 676.915 160.824 676.771 161.136C676.635 161.44 676.447 161.708 676.207 161.94C675.975 162.172 675.711 162.388 675.415 162.588L673.387 163.908C673.211 164.028 673.075 164.144 672.979 164.256C672.883 164.36 672.815 164.46 672.775 164.556C672.735 164.652 672.707 164.744 672.691 164.832H677.023V165.888H671.251ZM679.946 165.888V164.4H681.506V165.888H679.946ZM679.946 161.232V159.744H681.506V161.232H679.946ZM687.345 166.008C686.761 166.008 686.253 165.892 685.821 165.66C685.389 165.42 685.057 165.1 684.825 164.7C684.593 164.292 684.477 163.824 684.477 163.296H685.617C685.617 163.616 685.685 163.908 685.821 164.172C685.965 164.428 686.161 164.632 686.409 164.784C686.665 164.936 686.965 165.012 687.309 165.012C687.669 165.012 687.973 164.932 688.221 164.772C688.477 164.612 688.669 164.396 688.797 164.124C688.933 163.852 689.001 163.56 689.001 163.248C689.001 162.912 688.925 162.612 688.773 162.348C688.629 162.076 688.429 161.864 688.173 161.712C687.917 161.56 687.629 161.484 687.309 161.484C686.997 161.484 686.701 161.564 686.421 161.724C686.149 161.884 685.937 162.088 685.785 162.336L684.765 162.192L685.113 157.656H689.769V158.772H686.109L685.929 161.172C686.137 160.98 686.385 160.824 686.673 160.704C686.961 160.584 687.273 160.524 687.609 160.524C688.129 160.524 688.581 160.64 688.965 160.872C689.357 161.096 689.661 161.416 689.877 161.832C690.101 162.24 690.213 162.72 690.213 163.272C690.213 163.792 690.093 164.256 689.853 164.664C689.613 165.072 689.277 165.4 688.845 165.648C688.421 165.888 687.921 166.008 687.345 166.008ZM693.725 166.008C693.157 166.008 692.657 165.908 692.225 165.708C691.801 165.508 691.469 165.232 691.229 164.88C690.989 164.528 690.869 164.128 690.869 163.68V163.464H691.997C691.997 164.016 692.157 164.416 692.477 164.664C692.797 164.912 693.229 165.036 693.773 165.036C694.301 165.036 694.733 164.916 695.069 164.676C695.405 164.428 695.573 164.06 695.573 163.572C695.573 163.236 695.493 162.96 695.333 162.744C695.181 162.528 694.977 162.372 694.721 162.276C694.465 162.172 694.185 162.12 693.881 162.12H692.849V161.244H693.773C694.069 161.244 694.337 161.192 694.577 161.088C694.825 160.984 695.021 160.832 695.165 160.632C695.317 160.424 695.393 160.168 695.393 159.864C695.393 159.56 695.321 159.308 695.177 159.108C695.033 158.908 694.837 158.76 694.589 158.664C694.349 158.568 694.077 158.52 693.773 158.52C693.269 158.52 692.873 158.644 692.585 158.892C692.305 159.14 692.165 159.5 692.165 159.972H691.073V159.768C691.073 159.312 691.189 158.92 691.421 158.592C691.661 158.256 691.985 157.996 692.393 157.812C692.801 157.628 693.261 157.536 693.773 157.536H693.929C694.433 157.536 694.885 157.628 695.285 157.812C695.685 157.988 696.001 158.244 696.233 158.58C696.473 158.908 696.593 159.3 696.593 159.756C696.593 160.076 696.537 160.352 696.425 160.584C696.313 160.816 696.161 161.012 695.969 161.172C695.777 161.332 695.557 161.472 695.309 161.592V161.652C695.741 161.788 696.093 162.024 696.365 162.36C696.645 162.696 696.785 163.136 696.785 163.68C696.785 164.144 696.661 164.552 696.413 164.904C696.173 165.248 695.837 165.52 695.405 165.72C694.973 165.912 694.481 166.008 693.929 166.008H693.725ZM699.732 165.888V164.4H701.292V165.888H699.732ZM699.732 161.232V159.744H701.292V161.232H699.732ZM706.915 166.008C706.347 166.008 705.847 165.908 705.415 165.708C704.991 165.508 704.659 165.232 704.419 164.88C704.179 164.528 704.059 164.128 704.059 163.68V163.464H705.187C705.187 164.016 705.347 164.416 705.667 164.664C705.987 164.912 706.419 165.036 706.963 165.036C707.491 165.036 707.923 164.916 708.259 164.676C708.595 164.428 708.763 164.06 708.763 163.572C708.763 163.236 708.683 162.96 708.523 162.744C708.371 162.528 708.167 162.372 707.911 162.276C707.655 162.172 707.375 162.12 707.071 162.12H706.039V161.244H706.963C707.259 161.244 707.527 161.192 707.767 161.088C708.015 160.984 708.211 160.832 708.355 160.632C708.507 160.424 708.583 160.168 708.583 159.864C708.583 159.56 708.511 159.308 708.367 159.108C708.223 158.908 708.027 158.76 707.779 158.664C707.539 158.568 707.267 158.52 706.963 158.52C706.459 158.52 706.063 158.644 705.775 158.892C705.495 159.14 705.355 159.5 705.355 159.972H704.263V159.768C704.263 159.312 704.379 158.92 704.611 158.592C704.851 158.256 705.175 157.996 705.583 157.812C705.991 157.628 706.451 157.536 706.963 157.536H707.119C707.623 157.536 708.075 157.628 708.475 157.812C708.875 157.988 709.191 158.244 709.423 158.58C709.663 158.908 709.783 159.3 709.783 159.756C709.783 160.076 709.727 160.352 709.615 160.584C709.503 160.816 709.351 161.012 709.159 161.172C708.967 161.332 708.747 161.472 708.499 161.592V161.652C708.931 161.788 709.283 162.024 709.555 162.36C709.835 162.696 709.975 163.136 709.975 163.68C709.975 164.144 709.851 164.552 709.603 164.904C709.363 165.248 709.027 165.52 708.595 165.72C708.163 165.912 707.671 166.008 707.119 166.008H706.915ZM711.111 165.888V164.892H713.283V159.048H711.111V158.316C711.375 158.292 711.667 158.248 711.987 158.184C712.307 158.112 712.643 158.024 712.995 157.92C713.355 157.808 713.707 157.68 714.051 157.536H714.495V164.892H716.643V165.888H711.111ZM726.065 166.008C725.433 166.008 724.945 165.86 724.601 165.564C724.265 165.268 724.097 164.832 724.097 164.256C724.097 163.776 724.225 163.392 724.481 163.104C724.745 162.808 725.165 162.592 725.741 162.456C726.325 162.32 727.093 162.252 728.045 162.252V161.58C728.045 161.196 727.945 160.916 727.745 160.74C727.553 160.564 727.225 160.476 726.761 160.476C726.337 160.476 726.009 160.564 725.777 160.74C725.545 160.916 725.429 161.164 725.429 161.484V161.628H724.325C724.309 161.5 724.297 161.416 724.289 161.376C724.289 161.336 724.289 161.32 724.289 161.328C724.289 161.336 724.289 161.348 724.289 161.364C724.297 161.38 724.301 161.38 724.301 161.364C724.301 160.836 724.525 160.416 724.973 160.104C725.429 159.792 726.037 159.636 726.797 159.636C727.605 159.636 728.213 159.792 728.621 160.104C729.037 160.416 729.245 160.892 729.245 161.532V164.784C729.245 164.912 729.277 165.004 729.341 165.06C729.405 165.116 729.489 165.144 729.593 165.144C729.777 165.144 729.937 165.096 730.073 165V165.78C729.969 165.852 729.841 165.908 729.689 165.948C729.537 165.988 729.377 166.008 729.209 166.008C728.969 166.008 728.773 165.976 728.621 165.912C728.469 165.856 728.357 165.756 728.285 165.612C728.213 165.468 728.165 165.268 728.141 165.012C728.005 165.26 727.829 165.46 727.613 165.612C727.397 165.756 727.157 165.856 726.893 165.912C726.629 165.976 726.353 166.008 726.065 166.008ZM726.437 165.156C726.805 165.156 727.105 165.076 727.337 164.916C727.577 164.756 727.753 164.54 727.865 164.268C727.985 163.996 728.045 163.692 728.045 163.356V162.984C727.357 162.984 726.809 163.024 726.401 163.104C726.001 163.176 725.713 163.3 725.537 163.476C725.369 163.644 725.285 163.884 725.285 164.196C725.285 164.516 725.377 164.756 725.561 164.916C725.753 165.076 726.045 165.156 726.437 165.156ZM732.709 165.888V164.4H734.269V165.888H732.709ZM737.12 165.888V159.756H737.828L737.948 160.44C738.068 160.176 738.236 159.976 738.452 159.84C738.676 159.704 738.916 159.636 739.172 159.636C739.444 159.636 739.684 159.708 739.892 159.852C740.108 159.996 740.268 160.208 740.372 160.488C740.516 160.208 740.692 159.996 740.9 159.852C741.116 159.708 741.38 159.636 741.692 159.636C742.132 159.636 742.468 159.776 742.7 160.056C742.94 160.336 743.06 160.736 743.06 161.256V165.888H742.028V161.472C742.028 160.872 741.804 160.572 741.356 160.572C741.14 160.572 740.96 160.656 740.816 160.824C740.672 160.992 740.6 161.208 740.6 161.472V165.888H739.58V161.472C739.58 160.872 739.348 160.572 738.884 160.572C738.668 160.572 738.488 160.656 738.344 160.824C738.208 160.992 738.14 161.208 738.14 161.472V165.888H737.12ZM745.899 165.888V164.4H747.459V165.888H745.899Z" fill="#999999"/>
<path d="M622.447 190.112H592.495V203.36C593.775 201.952 595.567 200.8 597.871 199.904C600.175 199.008 602.671 198.56 605.359 198.56C610.159 198.56 614.127 199.648 617.263 201.824C620.463 204 622.799 206.816 624.271 210.272C625.743 213.728 626.479 217.472 626.479 221.504C626.479 228.992 624.367 234.944 620.143 239.36C615.919 243.712 609.967 245.888 602.287 245.888C597.167 245.888 592.719 245.024 588.943 243.296C585.167 241.504 582.255 239.04 580.207 235.904C578.159 232.768 577.039 229.152 576.847 225.056H592.879C593.263 227.04 594.191 228.704 595.663 230.048C597.135 231.328 599.151 231.968 601.711 231.968C604.719 231.968 606.959 231.008 608.431 229.088C609.903 227.168 610.639 224.608 610.639 221.408C610.639 218.272 609.871 215.872 608.335 214.208C606.799 212.544 604.559 211.712 601.615 211.712C599.439 211.712 597.647 212.256 596.239 213.344C594.831 214.368 593.903 215.744 593.455 217.472H577.615V175.712H622.447V190.112ZM635.541 209.888C635.541 198.88 637.653 190.208 641.877 183.872C646.165 177.536 653.045 174.368 662.517 174.368C671.989 174.368 678.837 177.536 683.061 183.872C687.349 190.208 689.493 198.88 689.493 209.888C689.493 221.024 687.349 229.76 683.061 236.096C678.837 242.432 671.989 245.6 662.517 245.6C653.045 245.6 646.165 242.432 641.877 236.096C637.653 229.76 635.541 221.024 635.541 209.888ZM673.365 209.888C673.365 203.424 672.661 198.464 671.253 195.008C669.845 191.488 666.933 189.728 662.517 189.728C658.101 189.728 655.189 191.488 653.781 195.008C652.373 198.464 651.669 203.424 651.669 209.888C651.669 214.24 651.925 217.856 652.437 220.736C652.949 223.552 653.973 225.856 655.509 227.648C657.109 229.376 659.445 230.24 662.517 230.24C665.589 230.24 667.893 229.376 669.429 227.648C671.029 225.856 672.085 223.552 672.597 220.736C673.109 217.856 673.365 214.24 673.365 209.888ZM731.478 245.888L721.206 231.008L712.566 245.888H694.806L712.47 218.528L694.326 192.32H712.758L723.03 207.104L731.67 192.32H749.43L731.478 219.296L749.91 245.888H731.478Z" fill="white"/>
</g>
<defs>
<filter id="filter0_di_4113_1226" x="698.268" y="0.256432" width="377.51" height="355.559" filterUnits="userSpaceOnUse" color-interpolation-filters="sRGB">
<feFlood flood-opacity="0" result="BackgroundImageFix"/>
<feColorMatrix in="SourceAlpha" type="matrix" values="0 0 0 0 0 0 0 0 0 0 0 0 0 0 0 0 0 0 127 0" result="hardAlpha"/>
<feMorphology radius="65.8736" operator="dilate" in="SourceAlpha" result="effect1_dropShadow_4113_1226"/>
<feOffset/>
<feGaussianBlur stdDeviation="47.8819"/>
<feComposite in2="hardAlpha" operator="out"/>
<feColorMatrix type="matrix" values="0 0 0 0 1 0 0 0 0 0.416667 0 0 0 0 0 0 0 0 1 0"/>
<feBlend mode="plus-lighter" in2="BackgroundImageFix" result="effect1_dropShadow_4113_1226"/>
<feBlend mode="normal" in="SourceGraphic" in2="effect1_dropShadow_4113_1226" result="shape"/>
<feColorMatrix in="SourceAlpha" type="matrix" values="0 0 0 0 0 0 0 0 0 0 0 0 0 0 0 0 0 0 127 0" result="hardAlpha"/>
<feMorphology radius="4.1171" operator="erode" in="SourceAlpha" result="effect2_innerShadow_4113_1226"/>
<feOffset dx="0.82342" dy="2.47026"/>
<feGaussianBlur stdDeviation="15.0686"/>
<feComposite in2="hardAlpha" operator="arithmetic" k2="-1" k3="1"/>
<feColorMatrix type="matrix" values="0 0 0 0 0.956863 0 0 0 0 0.564706 0 0 0 0 0.145098 0 0 0 1 0"/>
<feBlend mode="plus-lighter" in2="shape" result="effect2_innerShadow_4113_1226"/>
</filter>
<filter id="filter1_b_4113_1226" x="451.702" y="102.887" width="341.717" height="207.002" filterUnits="userSpaceOnUse" color-interpolation-filters="sRGB">
<feFlood flood-opacity="0" result="BackgroundImageFix"/>
<feGaussianBlur in="BackgroundImageFix" stdDeviation="8.3575"/>
<feComposite in2="SourceAlpha" operator="in" result="effect1_backgroundBlur_4113_1226"/>
<feBlend mode="normal" in="SourceGraphic" in2="effect1_backgroundBlur_4113_1226" result="shape"/>
</filter>
<linearGradient id="paint0_linear_4113_1226" x1="321.25" y1="212.523" x2="794.032" y2="1006.76" gradientUnits="userSpaceOnUse">
<stop stop-color="#FF6A00"/>
<stop offset="0.841" stop-opacity="0"/>
</linearGradient>
<linearGradient id="paint1_linear_4113_1226" x1="756.367" y1="362.94" x2="858.483" y2="518.582" gradientUnits="userSpaceOnUse">
<stop stop-color="#FFA600"/>
<stop offset="1" stop-color="#994D00" stop-opacity="0"/>
</linearGradient>
<linearGradient id="paint2_linear_4113_1226" x1="883.974" y1="182.44" x2="881.698" y2="182.485" gradientUnits="userSpaceOnUse">
<stop stop-color="#FFF700"/>
<stop offset="1" stop-opacity="0"/>
</linearGradient>
</defs>
</svg>
