<svg width="579" height="515" viewBox="0 0 579 515" fill="none" xmlns="http://www.w3.org/2000/svg">
<path d="M207.701 213.084C368.54 213.084 319.265 58.7534 483.203 58.7534" stroke="url(#paint0_linear_4106_1198)" stroke-width="16.7346"/>
<g filter="url(#filter0_di_4106_1198)">
<path d="M517.602 11.1152C522.013 8.5687 527.447 8.5687 531.858 11.1152L562.422 28.7615C566.833 31.308 569.55 36.0141 569.55 41.1071V76.3998C569.55 81.4927 566.833 86.1988 562.422 88.7453L531.858 106.392C527.447 108.938 522.013 108.938 517.602 106.392L487.038 88.7453C482.627 86.1988 479.91 81.4927 479.91 76.3998V41.1071C479.91 36.0141 482.627 31.308 487.038 28.7615L517.602 11.1152Z" fill="url(#paint1_linear_4106_1198)"/>
</g>
<g filter="url(#filter1_di_4106_1198)">
<path d="M545.689 75.3703C545.689 75.7979 545.52 76.208 545.217 76.5104C544.915 76.8127 544.505 76.9826 544.077 76.9826H505.383C504.955 76.9826 504.545 76.8127 504.243 76.5104C503.94 76.208 503.771 75.7979 503.771 75.3703V43.125C503.771 42.6974 503.94 42.2873 504.243 41.9849C504.545 41.6826 504.955 41.5127 505.383 41.5127C505.81 41.5127 506.22 41.6826 506.523 41.9849C506.825 42.2873 506.995 42.6974 506.995 43.125V65.0296L517.14 54.8824C517.29 54.7325 517.468 54.6136 517.664 54.5325C517.859 54.4513 518.069 54.4096 518.281 54.4096C518.493 54.4096 518.703 54.4513 518.898 54.5325C519.094 54.6136 519.272 54.7325 519.422 54.8824L524.73 60.1928L535.349 49.574H531.179C530.751 49.574 530.341 49.4042 530.039 49.1018C529.737 48.7995 529.567 48.3894 529.567 47.9618C529.567 47.5342 529.737 47.1241 530.039 46.8217C530.341 46.5194 530.751 46.3495 531.179 46.3495H539.24C539.668 46.3495 540.078 46.5194 540.38 46.8217C540.683 47.1241 540.853 47.5342 540.853 47.9618V56.0231C540.853 56.4507 540.683 56.8608 540.38 57.1632C540.078 57.4655 539.668 57.6354 539.24 57.6354C538.813 57.6354 538.403 57.4655 538.1 57.1632C537.798 56.8608 537.628 56.4507 537.628 56.0231V51.8534L525.871 63.6129C525.721 63.7628 525.543 63.8817 525.347 63.9628C525.152 64.044 524.942 64.0857 524.73 64.0857C524.518 64.0857 524.308 64.044 524.113 63.9628C523.917 63.8817 523.739 63.7628 523.589 63.6129L518.281 58.3025L506.995 69.5883V73.7581H544.077C544.505 73.7581 544.915 73.9279 545.217 74.2303C545.52 74.5326 545.689 74.9427 545.689 75.3703Z" fill="white"/>
</g>
<path d="M208.092 245.192C368.93 245.192 306.25 191.391 481.034 191.391" stroke="#FF6A00" stroke-width="16.7346"/>
<path d="M208.092 245.192C368.93 245.192 306.25 191.391 481.034 191.391" stroke="url(#paint2_linear_4106_1198)" stroke-width="16.7346"/>
<g filter="url(#filter2_di_4106_1198)">
<path d="M517.602 145.612C522.013 143.066 527.447 143.066 531.858 145.612L562.422 163.259C566.833 165.805 569.55 170.511 569.55 175.604V210.897C569.55 215.99 566.833 220.696 562.422 223.242L531.858 240.889C527.447 243.435 522.013 243.435 517.602 240.889L487.038 223.242C482.627 220.696 479.91 215.99 479.91 210.897V175.604C479.91 170.511 482.627 165.805 487.038 163.259L517.602 145.612Z" fill="url(#paint3_linear_4106_1198)"/>
</g>
<path d="M531.127 185.663H518.817C518.273 185.663 517.751 185.879 517.367 186.264C516.982 186.649 516.766 187.171 516.766 187.715V200.025C516.766 200.569 516.982 201.091 517.367 201.476C517.751 201.86 518.273 202.076 518.817 202.076H531.127C531.671 202.076 532.193 201.86 532.578 201.476C532.963 201.091 533.179 200.569 533.179 200.025V187.715C533.179 187.171 532.963 186.649 532.578 186.264C532.193 185.879 531.671 185.663 531.127 185.663ZM529.076 197.973H520.869V189.766H529.076V197.973ZM551.644 197.973H547.541V189.766H551.644C552.188 189.766 552.71 189.55 553.095 189.166C553.48 188.781 553.696 188.259 553.696 187.715C553.696 187.171 553.48 186.649 553.095 186.264C552.71 185.879 552.188 185.663 551.644 185.663H547.541V175.405C547.541 174.317 547.108 173.273 546.339 172.503C545.569 171.734 544.526 171.301 543.437 171.301H533.179V167.198C533.179 166.654 532.963 166.132 532.578 165.747C532.193 165.363 531.671 165.146 531.127 165.146C530.583 165.146 530.061 165.363 529.677 165.747C529.292 166.132 529.076 166.654 529.076 167.198V171.301H520.869V167.198C520.869 166.654 520.653 166.132 520.268 165.747C519.883 165.363 519.361 165.146 518.817 165.146C518.273 165.146 517.751 165.363 517.367 165.747C516.982 166.132 516.766 166.654 516.766 167.198V171.301H506.507C505.419 171.301 504.375 171.734 503.606 172.503C502.836 173.273 502.404 174.317 502.404 175.405V185.663H498.301C497.757 185.663 497.235 185.879 496.85 186.264C496.465 186.649 496.249 187.171 496.249 187.715C496.249 188.259 496.465 188.781 496.85 189.166C497.235 189.55 497.757 189.766 498.301 189.766H502.404V197.973H498.301C497.757 197.973 497.235 198.189 496.85 198.574C496.465 198.959 496.249 199.481 496.249 200.025C496.249 200.569 496.465 201.091 496.85 201.476C497.235 201.86 497.757 202.076 498.301 202.076H502.404V212.335C502.404 213.423 502.836 214.467 503.606 215.236C504.375 216.006 505.419 216.438 506.507 216.438H516.766V220.541C516.766 221.086 516.982 221.607 517.367 221.992C517.751 222.377 518.273 222.593 518.817 222.593C519.361 222.593 519.883 222.377 520.268 221.992C520.653 221.607 520.869 221.086 520.869 220.541V216.438H529.076V220.541C529.076 221.086 529.292 221.607 529.677 221.992C530.061 222.377 530.583 222.593 531.127 222.593C531.671 222.593 532.193 222.377 532.578 221.992C532.963 221.607 533.179 221.086 533.179 220.541V216.438H543.437C544.526 216.438 545.569 216.006 546.339 215.236C547.108 214.467 547.541 213.423 547.541 212.335V202.076H551.644C552.188 202.076 552.71 201.86 553.095 201.476C553.48 201.091 553.696 200.569 553.696 200.025C553.696 199.481 553.48 198.959 553.095 198.574C552.71 198.189 552.188 197.973 551.644 197.973ZM543.437 212.335H506.507V175.405H543.437V199.991C543.437 199.991 543.437 200.015 543.437 200.025C543.437 200.035 543.437 200.048 543.437 200.058V212.335Z" fill="white"/>
<g filter="url(#filter3_di_4106_1198)">
<path d="M518.134 282.531C522.545 279.984 527.979 279.984 532.39 282.531L562.954 300.177C567.365 302.724 570.082 307.43 570.082 312.523V347.815C570.082 352.908 567.365 357.614 562.954 360.161L532.39 377.807C527.979 380.354 522.545 380.354 518.134 377.807L487.57 360.161C483.16 357.614 480.442 352.908 480.442 347.815V312.523C480.442 307.43 483.16 302.724 487.57 300.177L518.134 282.531Z" fill="url(#paint4_linear_4106_1198)"/>
</g>
<path d="M547.391 326.18H525.774V320.799H527.575C528.531 320.799 529.447 320.421 530.123 319.749C530.799 319.076 531.178 318.164 531.178 317.212V310.039C531.178 309.087 530.799 308.175 530.123 307.502C529.447 306.83 528.531 306.452 527.575 306.452H520.37C519.414 306.452 518.498 306.83 517.822 307.502C517.146 308.175 516.767 309.087 516.767 310.039V317.212C516.767 318.164 517.146 319.076 517.822 319.749C518.498 320.421 519.414 320.799 520.37 320.799H522.171V326.18H500.553C500.076 326.18 499.617 326.369 499.28 326.705C498.942 327.041 498.752 327.497 498.752 327.973C498.752 328.449 498.942 328.905 499.28 329.241C499.617 329.578 500.076 329.767 500.553 329.767H507.759V336.94H505.958C505.002 336.94 504.086 337.318 503.41 337.991C502.734 338.664 502.355 339.576 502.355 340.527V347.701C502.355 348.652 502.734 349.565 503.41 350.237C504.086 350.91 505.002 351.288 505.958 351.288H513.164C514.119 351.288 515.036 350.91 515.711 350.237C516.387 349.565 516.767 348.652 516.767 347.701V340.527C516.767 339.576 516.387 338.664 515.711 337.991C515.036 337.318 514.119 336.94 513.164 336.94H511.362V329.767H536.583V336.94H534.781C533.826 336.94 532.909 337.318 532.234 337.991C531.558 338.664 531.178 339.576 531.178 340.527V347.701C531.178 348.652 531.558 349.565 532.234 350.237C532.909 350.91 533.826 351.288 534.781 351.288H541.987C542.943 351.288 543.859 350.91 544.535 350.237C545.21 349.565 545.59 348.652 545.59 347.701V340.527C545.59 339.576 545.21 338.664 544.535 337.991C543.859 337.318 542.943 336.94 541.987 336.94H540.186V329.767H547.391C547.869 329.767 548.327 329.578 548.665 329.241C549.003 328.905 549.193 328.449 549.193 327.973C549.193 327.497 549.003 327.041 548.665 326.705C548.327 326.369 547.869 326.18 547.391 326.18ZM520.37 310.039H527.575V317.212H520.37V310.039ZM513.164 347.701H505.958V340.527H513.164V347.701ZM541.987 347.701H534.781V340.527H541.987V347.701Z" fill="white"/>
<g filter="url(#filter4_di_4106_1198)">
<path d="M517.143 408.531C521.554 405.984 526.988 405.984 531.399 408.531L561.963 426.177C566.374 428.724 569.091 433.43 569.091 438.523V473.815C569.091 478.908 566.374 483.614 561.963 486.161L531.399 503.807C526.988 506.354 521.554 506.354 517.143 503.807L486.579 486.161C482.168 483.614 479.451 478.908 479.451 473.815V438.523C479.451 433.43 482.168 428.724 486.579 426.177L517.143 408.531Z" fill="url(#paint5_linear_4106_1198)"/>
</g>
<path d="M550.625 478.641L538.496 466.514C542.011 462.293 543.764 456.88 543.39 451.4C543.016 445.92 540.544 440.795 536.487 437.091C532.431 433.388 527.102 431.39 521.611 431.515C516.119 431.64 510.888 433.877 507.003 437.761C503.119 441.645 500.882 446.877 500.757 452.369C500.633 457.86 502.63 463.188 506.333 467.245C510.037 471.301 515.162 473.774 520.642 474.148C526.122 474.522 531.536 472.769 535.756 469.254L547.883 481.383C548.063 481.563 548.277 481.706 548.512 481.803C548.747 481.901 548.999 481.951 549.254 481.951C549.509 481.951 549.761 481.901 549.996 481.803C550.231 481.706 550.445 481.563 550.625 481.383C550.805 481.203 550.948 480.989 551.045 480.754C551.143 480.519 551.193 480.266 551.193 480.012C551.193 479.757 551.143 479.505 551.045 479.27C550.948 479.034 550.805 478.821 550.625 478.641ZM504.681 452.881C504.681 449.431 505.704 446.059 507.621 443.191C509.537 440.322 512.261 438.087 515.448 436.767C518.635 435.447 522.142 435.101 525.525 435.774C528.909 436.447 532.017 438.108 534.456 440.548C536.895 442.987 538.556 446.095 539.229 449.478C539.902 452.861 539.557 456.368 538.237 459.555C536.916 462.742 534.681 465.466 531.813 467.383C528.945 469.299 525.572 470.322 522.123 470.322C517.499 470.317 513.065 468.478 509.796 465.208C506.526 461.938 504.686 457.505 504.681 452.881Z" fill="white"/>
<path d="M208.283 274.692C369.122 274.692 321.126 330.537 481.964 330.537" stroke="#FF6A00" stroke-width="16.7346"/>
<path d="M208.283 274.692C369.122 274.692 321.126 330.537 481.964 330.537" stroke="url(#paint6_linear_4106_1198)" stroke-width="16.7346"/>
<path d="M209.251 303.265C370.089 303.265 284.867 460.385 483.203 460.385" stroke="#FF6A00" stroke-width="16.7346"/>
<path d="M209.251 303.265C370.089 303.265 284.867 460.385 483.203 460.385" stroke="url(#paint7_linear_4106_1198)" stroke-width="16.7346"/>
<g filter="url(#filter5_di_4106_1198)">
<path d="M105.872 149.307C110.283 146.761 115.717 146.761 120.128 149.307L203.733 197.577C208.144 200.123 210.861 204.829 210.861 209.922L210.861 306.462C210.861 311.554 208.144 316.261 203.733 318.807L120.128 367.077C115.717 369.623 110.283 369.623 105.872 367.077L22.2668 318.807C17.8562 316.261 15.1391 311.554 15.1391 306.462L15.1391 209.922C15.1391 204.829 17.8562 200.123 22.2668 197.577L105.872 149.307Z" fill="url(#paint8_linear_4106_1198)"/>
</g>
<path d="M111.334 185.239C111.348 185.741 111.362 186.243 111.376 186.746C111.329 190.068 111.279 193.394 111.226 196.723C111.139 202.838 111.051 208.954 110.961 215.069C110.922 217.932 110.883 220.797 110.841 223.663C110.771 229.473 110.699 235.281 110.625 241.087C110.621 241.418 110.543 241.744 110.395 242.044C106.554 250.043 102.722 258.044 98.8981 266.045C98.7108 266.384 98.4331 266.67 98.0925 266.877L75.0185 283.163L51.1157 300.019C50.9 300.184 50.6607 300.319 50.405 300.421C70.7581 262.049 91.0678 223.655 111.334 185.239Z" fill="white"/>
<path d="M112.877 185.195C115.172 188.95 117.478 192.699 119.763 196.46C139.92 229.627 159.926 262.873 179.781 296.197C179.908 296.385 179.991 296.596 180.025 296.816C179.795 296.681 179.554 296.561 179.329 296.421L141.017 272.582C137.722 270.524 134.414 268.47 131.094 266.421C130.52 266.078 130.053 265.6 129.738 265.036C125.36 257.414 121.216 249.665 116.965 241.989C116.806 241.721 116.709 241.425 116.682 241.119C116.443 237.559 116.182 234 115.932 230.435C115.5 224.364 115.072 218.292 114.648 212.22C114.459 209.506 114.265 206.792 114.081 204.073C113.665 198.032 113.253 191.99 112.843 185.947C112.837 185.7 112.711 185.447 112.92 185.209L112.877 185.195Z" fill="white"/>
<path d="M79.5725 300.977C79.7116 300.757 79.9075 300.576 80.1411 300.45L113.676 275.934L113.936 275.748C114.535 275.343 114.351 275.226 115.107 275.715L134.741 288.439L150.121 298.433C150.358 298.585 150.585 298.752 150.937 298.992L79.5725 300.977Z" fill="white"/>
<defs>
<filter id="filter0_di_4106_1198" x="471.61" y="0.905566" width="106.24" height="115.696" filterUnits="userSpaceOnUse" color-interpolation-filters="sRGB">
<feFlood flood-opacity="0" result="BackgroundImageFix"/>
<feColorMatrix in="SourceAlpha" type="matrix" values="0 0 0 0 0 0 0 0 0 0 0 0 0 0 0 0 0 0 127 0" result="hardAlpha"/>
<feOffset/>
<feGaussianBlur stdDeviation="4.15"/>
<feComposite in2="hardAlpha" operator="out"/>
<feColorMatrix type="matrix" values="0 0 0 0 0 0 0 0 0 0 0 0 0 0 0 0 0 0 0.25 0"/>
<feBlend mode="normal" in2="BackgroundImageFix" result="effect1_dropShadow_4106_1198"/>
<feBlend mode="normal" in="SourceGraphic" in2="effect1_dropShadow_4106_1198" result="shape"/>
<feColorMatrix in="SourceAlpha" type="matrix" values="0 0 0 0 0 0 0 0 0 0 0 0 0 0 0 0 0 0 127 0" result="hardAlpha"/>
<feOffset/>
<feGaussianBlur stdDeviation="11.75"/>
<feComposite in2="hardAlpha" operator="arithmetic" k2="-1" k3="1"/>
<feColorMatrix type="matrix" values="0 0 0 0 1 0 0 0 0 1 0 0 0 0 1 0 0 0 0.25 0"/>
<feBlend mode="normal" in2="shape" result="effect2_innerShadow_4106_1198"/>
</filter>
<filter id="filter1_di_4106_1198" x="476.35" y="14.0919" width="96.7606" height="90.3114" filterUnits="userSpaceOnUse" color-interpolation-filters="sRGB">
<feFlood flood-opacity="0" result="BackgroundImageFix"/>
<feColorMatrix in="SourceAlpha" type="matrix" values="0 0 0 0 0 0 0 0 0 0 0 0 0 0 0 0 0 0 127 0" result="hardAlpha"/>
<feOffset/>
<feGaussianBlur stdDeviation="2.96188"/>
<feComposite in2="hardAlpha" operator="out"/>
<feColorMatrix type="matrix" values="0 0 0 0 0 0 0 0 0 0 0 0 0 0 0 0 0 0 0.25 0"/>
<feBlend mode="normal" in2="BackgroundImageFix" result="effect1_dropShadow_4106_1198"/>
<feBlend mode="normal" in="SourceGraphic" in2="effect1_dropShadow_4106_1198" result="shape"/>
<feColorMatrix in="SourceAlpha" type="matrix" values="0 0 0 0 0 0 0 0 0 0 0 0 0 0 0 0 0 0 127 0" result="hardAlpha"/>
<feOffset/>
<feGaussianBlur stdDeviation="8.38604"/>
<feComposite in2="hardAlpha" operator="arithmetic" k2="-1" k3="1"/>
<feColorMatrix type="matrix" values="0 0 0 0 1 0 0 0 0 1 0 0 0 0 1 0 0 0 0.25 0"/>
<feBlend mode="normal" in2="shape" result="effect2_innerShadow_4106_1198"/>
</filter>
<filter id="filter2_di_4106_1198" x="471.61" y="135.403" width="106.24" height="115.696" filterUnits="userSpaceOnUse" color-interpolation-filters="sRGB">
<feFlood flood-opacity="0" result="BackgroundImageFix"/>
<feColorMatrix in="SourceAlpha" type="matrix" values="0 0 0 0 0 0 0 0 0 0 0 0 0 0 0 0 0 0 127 0" result="hardAlpha"/>
<feOffset/>
<feGaussianBlur stdDeviation="4.15"/>
<feComposite in2="hardAlpha" operator="out"/>
<feColorMatrix type="matrix" values="0 0 0 0 0 0 0 0 0 0 0 0 0 0 0 0 0 0 0.25 0"/>
<feBlend mode="normal" in2="BackgroundImageFix" result="effect1_dropShadow_4106_1198"/>
<feBlend mode="normal" in="SourceGraphic" in2="effect1_dropShadow_4106_1198" result="shape"/>
<feColorMatrix in="SourceAlpha" type="matrix" values="0 0 0 0 0 0 0 0 0 0 0 0 0 0 0 0 0 0 127 0" result="hardAlpha"/>
<feOffset/>
<feGaussianBlur stdDeviation="11.75"/>
<feComposite in2="hardAlpha" operator="arithmetic" k2="-1" k3="1"/>
<feColorMatrix type="matrix" values="0 0 0 0 1 0 0 0 0 1 0 0 0 0 1 0 0 0 0.25 0"/>
<feBlend mode="normal" in2="shape" result="effect2_innerShadow_4106_1198"/>
</filter>
<filter id="filter3_di_4106_1198" x="472.142" y="272.321" width="106.24" height="115.696" filterUnits="userSpaceOnUse" color-interpolation-filters="sRGB">
<feFlood flood-opacity="0" result="BackgroundImageFix"/>
<feColorMatrix in="SourceAlpha" type="matrix" values="0 0 0 0 0 0 0 0 0 0 0 0 0 0 0 0 0 0 127 0" result="hardAlpha"/>
<feOffset/>
<feGaussianBlur stdDeviation="4.15"/>
<feComposite in2="hardAlpha" operator="out"/>
<feColorMatrix type="matrix" values="0 0 0 0 0 0 0 0 0 0 0 0 0 0 0 0 0 0 0.25 0"/>
<feBlend mode="normal" in2="BackgroundImageFix" result="effect1_dropShadow_4106_1198"/>
<feBlend mode="normal" in="SourceGraphic" in2="effect1_dropShadow_4106_1198" result="shape"/>
<feColorMatrix in="SourceAlpha" type="matrix" values="0 0 0 0 0 0 0 0 0 0 0 0 0 0 0 0 0 0 127 0" result="hardAlpha"/>
<feOffset/>
<feGaussianBlur stdDeviation="11.75"/>
<feComposite in2="hardAlpha" operator="arithmetic" k2="-1" k3="1"/>
<feColorMatrix type="matrix" values="0 0 0 0 1 0 0 0 0 1 0 0 0 0 1 0 0 0 0.25 0"/>
<feBlend mode="normal" in2="shape" result="effect2_innerShadow_4106_1198"/>
</filter>
<filter id="filter4_di_4106_1198" x="471.151" y="398.321" width="106.24" height="115.696" filterUnits="userSpaceOnUse" color-interpolation-filters="sRGB">
<feFlood flood-opacity="0" result="BackgroundImageFix"/>
<feColorMatrix in="SourceAlpha" type="matrix" values="0 0 0 0 0 0 0 0 0 0 0 0 0 0 0 0 0 0 127 0" result="hardAlpha"/>
<feOffset/>
<feGaussianBlur stdDeviation="4.15"/>
<feComposite in2="hardAlpha" operator="out"/>
<feColorMatrix type="matrix" values="0 0 0 0 0 0 0 0 0 0 0 0 0 0 0 0 0 0 0.25 0"/>
<feBlend mode="normal" in2="BackgroundImageFix" result="effect1_dropShadow_4106_1198"/>
<feBlend mode="normal" in="SourceGraphic" in2="effect1_dropShadow_4106_1198" result="shape"/>
<feColorMatrix in="SourceAlpha" type="matrix" values="0 0 0 0 0 0 0 0 0 0 0 0 0 0 0 0 0 0 127 0" result="hardAlpha"/>
<feOffset/>
<feGaussianBlur stdDeviation="11.75"/>
<feComposite in2="hardAlpha" operator="arithmetic" k2="-1" k3="1"/>
<feColorMatrix type="matrix" values="0 0 0 0 1 0 0 0 0 1 0 0 0 0 1 0 0 0 0.25 0"/>
<feBlend mode="normal" in2="shape" result="effect2_innerShadow_4106_1198"/>
</filter>
<filter id="filter5_di_4106_1198" x="6.83867" y="139.097" width="212.323" height="238.189" filterUnits="userSpaceOnUse" color-interpolation-filters="sRGB">
<feFlood flood-opacity="0" result="BackgroundImageFix"/>
<feColorMatrix in="SourceAlpha" type="matrix" values="0 0 0 0 0 0 0 0 0 0 0 0 0 0 0 0 0 0 127 0" result="hardAlpha"/>
<feOffset/>
<feGaussianBlur stdDeviation="4.15"/>
<feComposite in2="hardAlpha" operator="out"/>
<feColorMatrix type="matrix" values="0 0 0 0 0 0 0 0 0 0 0 0 0 0 0 0 0 0 0.25 0"/>
<feBlend mode="normal" in2="BackgroundImageFix" result="effect1_dropShadow_4106_1198"/>
<feBlend mode="normal" in="SourceGraphic" in2="effect1_dropShadow_4106_1198" result="shape"/>
<feColorMatrix in="SourceAlpha" type="matrix" values="0 0 0 0 0 0 0 0 0 0 0 0 0 0 0 0 0 0 127 0" result="hardAlpha"/>
<feOffset/>
<feGaussianBlur stdDeviation="11.75"/>
<feComposite in2="hardAlpha" operator="arithmetic" k2="-1" k3="1"/>
<feColorMatrix type="matrix" values="0 0 0 0 1 0 0 0 0 1 0 0 0 0 1 0 0 0 0.25 0"/>
<feBlend mode="normal" in2="shape" result="effect2_innerShadow_4106_1198"/>
</filter>
<linearGradient id="paint0_linear_4106_1198" x1="483.252" y1="48.4155" x2="196.252" y2="213.416" gradientUnits="userSpaceOnUse">
<stop stop-color="#FF6A00"/>
<stop offset="1"/>
</linearGradient>
<linearGradient id="paint1_linear_4106_1198" x1="466.451" y1="47.0746" x2="583.24" y2="47.0746" gradientUnits="userSpaceOnUse">
<stop stop-color="#FF5900"/>
<stop offset="1"/>
</linearGradient>
<linearGradient id="paint2_linear_4106_1198" x1="481.083" y1="187.787" x2="377.985" y2="356.233" gradientUnits="userSpaceOnUse">
<stop stop-color="#FF6A00"/>
<stop offset="1"/>
</linearGradient>
<linearGradient id="paint3_linear_4106_1198" x1="466.451" y1="181.572" x2="583.24" y2="181.572" gradientUnits="userSpaceOnUse">
<stop stop-color="#FF5900"/>
<stop offset="1"/>
</linearGradient>
<linearGradient id="paint4_linear_4106_1198" x1="466.983" y1="318.49" x2="583.772" y2="318.49" gradientUnits="userSpaceOnUse">
<stop stop-color="#FF5900"/>
<stop offset="1"/>
</linearGradient>
<linearGradient id="paint5_linear_4106_1198" x1="465.992" y1="444.49" x2="582.781" y2="444.49" gradientUnits="userSpaceOnUse">
<stop stop-color="#FF5900"/>
<stop offset="1"/>
</linearGradient>
<linearGradient id="paint6_linear_4106_1198" x1="494.752" y1="316.416" x2="343.569" y2="429.958" gradientUnits="userSpaceOnUse">
<stop stop-color="#FF6A00"/>
<stop offset="1"/>
</linearGradient>
<linearGradient id="paint7_linear_4106_1198" x1="505.252" y1="460.416" x2="212.569" y2="297.458" gradientUnits="userSpaceOnUse">
<stop stop-color="#FF6A00"/>
<stop offset="1"/>
</linearGradient>
<linearGradient id="paint8_linear_4106_1198" x1="113.252" y1="105.192" x2="113.252" y2="360.192" gradientUnits="userSpaceOnUse">
<stop stop-color="#FF6A00"/>
<stop offset="1"/>
</linearGradient>
</defs>
</svg>
