<svg width="85" height="77" viewBox="0 0 85 77" fill="none" xmlns="http://www.w3.org/2000/svg">
<path opacity="0.17" d="M74.0171 13.5285C58.1175 -6.38055 10.4193 -4.03836 1.81419 23.1316C-6.79097 50.3016 28.0017 83.0929 59.0527 75.8321C90.1037 68.5713 89.9166 33.4376 74.0171 13.5285Z" fill="#FF6A00"/>
<path d="M64.25 63.6297H21.6872C18.8652 63.6297 16.5693 61.3339 16.5693 58.5118V29.7107C16.5693 26.8886 18.8652 24.5928 21.6872 24.5928H28.911C29.5896 24.5928 30.1404 25.1435 30.1404 25.8221C30.1404 26.5008 29.5896 27.0515 28.911 27.0515H21.6872C20.2212 27.0515 19.0281 28.2446 19.0281 29.7107V58.5112C19.0281 59.9785 20.2212 61.171 21.6872 61.171H64.25C65.7167 61.171 66.9098 59.9785 66.9098 58.5118V29.7107C66.9098 28.2446 65.7167 27.0515 64.25 27.0515H57.0164C56.3378 27.0515 55.787 26.5008 55.787 25.8221C55.787 25.1435 56.3378 24.5928 57.0164 24.5928H64.2506C67.0733 24.5928 69.3692 26.8886 69.3692 29.7107V58.5112C69.3685 61.3339 67.0727 63.6297 64.25 63.6297Z" fill="#FF6A00"/>
<path d="M50.0212 44.1112L62.2799 32.8648C62.7803 32.4057 62.8141 31.6281 62.3549 31.1277C61.8964 30.6274 61.1182 30.5929 60.6184 31.0527L42.9689 47.2448L25.32 31.0533C24.8203 30.5948 24.0421 30.628 23.5829 31.1283C23.1237 31.6287 23.1575 32.4063 23.6579 32.8654L35.9166 44.1118L23.6573 55.3569C23.1569 55.8154 23.1231 56.5936 23.5823 57.0933C23.8251 57.3583 24.1558 57.4917 24.4883 57.4917C24.7852 57.4917 25.0833 57.3847 25.3194 57.1683L37.7342 45.7788L42.1372 49.8185C42.372 50.0343 42.6702 50.1418 42.9683 50.1418C43.2664 50.1418 43.5645 50.0337 43.7993 49.8185L48.203 45.7788L60.6184 57.1683C60.8545 57.3853 61.152 57.4917 61.4489 57.4917C61.7814 57.4917 62.1127 57.3577 62.3555 57.0933C62.8147 56.5936 62.7809 55.8154 62.2805 55.3569L50.0212 44.1112Z" fill="#FF6A00"/>
<path d="M28.911 12.5022C28.2324 12.5022 27.6816 11.9515 27.6816 11.2729V9.53699C27.6816 8.85838 28.2324 8.30762 28.911 8.30762C29.5896 8.30762 30.1404 8.85838 30.1404 9.53699V11.2729C30.1404 11.9515 29.5896 12.5022 28.911 12.5022Z" fill="#FF6A00"/>
<path d="M28.911 21.8374C28.2324 21.8374 27.6816 21.2866 27.6816 20.608V18.8998C27.6816 18.2212 28.2324 17.6704 28.911 17.6704C29.5896 17.6704 30.1404 18.2212 30.1404 18.8998V20.608C30.1404 21.2866 29.5896 21.8374 28.911 21.8374Z" fill="#FF6A00"/>
<path d="M25.0841 16.3015H23.3759C22.6972 16.3015 22.1465 15.7508 22.1465 15.0721C22.1465 14.3935 22.6972 13.8428 23.3759 13.8428H25.0841C25.7627 13.8428 26.3135 14.3935 26.3135 15.0721C26.3135 15.7508 25.7627 16.3015 25.0841 16.3015Z" fill="#FF6A00"/>
<path d="M50.5222 17.7614C46.6736 13.9128 40.5852 13.6455 36.4176 16.9469L33.6742 14.2036C33.6171 14.1464 33.5538 14.0948 33.4861 14.0499C33.4554 14.029 33.4216 14.0149 33.389 13.9971C33.3509 13.9762 33.3146 13.9534 33.2747 13.9368C33.2335 13.9196 33.1905 13.9098 33.1481 13.8975C33.1136 13.8876 33.0804 13.8741 33.0448 13.8667C32.9655 13.8508 32.885 13.8428 32.8038 13.8428H28.911C28.2324 13.8428 27.6816 14.3935 27.6816 15.0721C27.6816 15.7508 28.2324 16.3015 28.911 16.3015H32.2955L34.6792 18.6853C31.3771 22.8529 31.6451 28.9413 35.4937 32.7899C37.5658 34.862 40.2864 35.8978 43.0083 35.8978C45.7295 35.8978 48.4507 34.8614 50.5228 32.7899C52.5304 30.7829 53.635 28.1146 53.635 25.276C53.635 22.4373 52.5298 19.769 50.5222 17.7614ZM48.7839 31.0516C47.241 32.5944 45.1898 33.4439 43.0083 33.4439C40.8267 33.4439 38.7755 32.5944 37.2327 31.0516C34.048 27.8669 34.048 22.6851 37.2327 19.5004C38.8253 17.9083 40.9171 17.1123 43.0083 17.1123C45.1 17.1123 47.1918 17.9083 48.7839 19.5004C50.3267 21.0432 51.1762 23.0944 51.1762 25.276C51.1762 27.4575 50.3267 29.5087 48.7839 31.0516Z" fill="#FF6A00"/>
</svg>
