<svg width="85" height="77" viewBox="0 0 85 77" fill="none" xmlns="http://www.w3.org/2000/svg">
<path opacity="0.17" d="M73.6323 13.3103C57.7328 -6.59881 10.0346 -4.25663 1.42942 22.9134C-7.17573 50.0833 27.617 82.8747 58.668 75.6139C89.719 68.3531 89.5318 33.2194 73.6323 13.3103Z" fill="#FF6A00"/>
<g clip-path="url(#clip0_4104_1170)">
<path d="M58.6988 34.801C61.009 36.043 63.5518 36.7919 66.1663 37.0002V41.8335C62.9442 41.6963 59.7885 40.8723 56.9105 39.4168H56.7172C54.424 38.0989 51.8802 37.2757 49.2497 37.0002C46.8535 37.1599 44.5317 37.8979 42.483 39.151H42.338C40.0091 40.5345 37.4306 41.446 34.7497 41.8335V37.0002C36.703 36.6137 38.5803 35.9117 40.308 34.9218H40.453C43.1145 33.2952 46.1357 32.349 49.2497 32.1668C52.4808 32.3416 55.637 33.2069 58.5055 34.7043L58.6988 34.801ZM58.5055 44.4677C55.6446 42.9366 52.488 42.0382 49.2497 41.8335C46.1482 41.9716 43.1279 42.8677 40.453 44.4435H40.308C38.5895 45.484 36.7117 46.2351 34.7497 46.6668V51.5002C37.4221 51.15 40.0001 50.2797 42.338 48.9385H42.483C44.5205 47.6429 46.8431 46.8631 49.2497 46.6668C51.8642 46.8751 54.4071 47.624 56.7172 48.866H56.9105C59.7759 50.386 62.93 51.2837 66.1663 51.5002V46.6668C63.5518 46.4585 61.009 45.7097 58.6988 44.4677H58.5055ZM58.9163 25.231V17.6668C58.9163 16.3849 58.4071 15.1556 57.5007 14.2491C56.5943 13.3427 55.3649 12.8335 54.083 12.8335H29.9163C28.6345 12.8335 27.4051 13.3427 26.4987 14.2491C25.5922 15.1556 25.083 16.3849 25.083 17.6668V25.3277C22.7771 24.3762 20.3246 23.8285 17.833 23.7085V28.5418C20.025 28.7197 22.1726 29.2587 24.1888 30.1368H24.4305L25.083 30.4268V34.9943C22.7771 34.0428 20.3246 33.4951 17.833 33.3752V38.2085C20.025 38.3864 22.1726 38.9253 24.1888 39.8035H24.4305L25.083 40.021V44.5885C22.7771 43.637 20.3246 43.0893 17.833 42.9693V47.8027C20.025 47.9806 22.1726 48.5195 24.1888 49.3977H24.4305L25.083 49.6152V56.3335C25.083 57.6154 25.5922 58.8447 26.4987 59.7512C27.4051 60.6576 28.6345 61.1668 29.9163 61.1668H54.083C55.3649 61.1668 56.5943 60.6576 57.5007 59.7512C58.4071 58.8447 58.9163 57.6154 58.9163 56.3335V54.666L56.9105 53.9168H56.7172C55.7988 53.506 54.9288 53.1193 54.083 52.8052V56.3335H29.9163V17.6668H54.083V23.2977C52.5207 22.7922 50.8915 22.5234 49.2497 22.5002C46.1482 22.6382 43.1279 23.5344 40.453 25.1102H40.308C38.5895 26.1507 36.7117 26.9018 34.7497 27.3335V32.1668C37.4221 31.8166 40.0001 30.9464 42.338 29.6052H42.483C44.5205 28.3095 46.8431 27.5298 49.2497 27.3335C51.8642 27.5418 54.4071 28.2906 56.7172 29.5327H56.9105C59.7759 31.0527 62.93 31.9503 66.1663 32.1668V27.3335C63.6305 27.1401 61.1622 26.4243 58.9163 25.231Z" fill="#FF6A00"/>
</g>
<defs>
<clipPath id="clip0_4104_1170">
<rect width="58" height="58" fill="white" transform="translate(13 8)"/>
</clipPath>
</defs>
</svg>
