<svg width="85" height="78" viewBox="0 0 85 78" fill="none" xmlns="http://www.w3.org/2000/svg">
<path opacity="0.17" d="M74.2485 13.7473C58.349 -6.1618 10.6508 -3.81961 2.04563 23.3504C-6.55952 50.5203 28.2332 83.3117 59.2842 76.0509C90.3352 68.7901 90.148 33.6564 74.2485 13.7473Z" fill="#FF6A00"/>
<path d="M35.125 54.0938H20.375V20.9062H64.625V31.9688" stroke="#FF6A00" stroke-width="3" stroke-miterlimit="10" stroke-linejoin="round"/>
<path d="M27.75 28.2812L42.5 41.1875L57.25 28.2812" stroke="#FF6A00" stroke-width="4" stroke-miterlimit="10" stroke-linejoin="round"/>
<path d="M38.2594 37.5L27.75 46.7188" stroke="#FF6A00" stroke-width="4" stroke-miterlimit="10" stroke-linejoin="round"/>
<path d="M64.9938 48.0094C64.0719 49.6688 62.5969 50.5906 60.5687 50.775C59.4625 50.9594 58.725 50.2219 58.725 49.3C58.5406 47.2719 58.5406 45.2438 58.1719 43.2156C57.8031 41.0031 56.6969 39.1594 55.2219 37.5C55.2219 37.5 55.0375 37.5 55.0375 37.6844C54.1156 40.0813 52.4563 42.1094 50.9813 44.3219C48.9531 46.9031 48.0312 49.8531 48.0312 53.1719C48.2156 57.5969 52.4563 61.6531 57.25 61.4688C61.675 61.4688 65.5469 58.3344 66.2844 54.2781C66.8375 52.0656 66.4688 49.3 65.5469 47.2719C65.3625 47.6406 65.1781 47.825 64.9938 48.0094Z" stroke="#FF6A00" stroke-width="4" stroke-miterlimit="10" stroke-linejoin="round"/>
</svg>
