<svg width="85" height="77" viewBox="0 0 85 77" fill="none" xmlns="http://www.w3.org/2000/svg">
<path opacity="0.17" d="M74.2485 13.5285C58.349 -6.38055 10.6508 -4.03836 2.04563 23.1316C-6.55952 50.3016 28.2332 83.0929 59.2842 75.8321C90.3352 68.5713 90.148 33.4376 74.2485 13.5285Z" fill="#FF6A00"/>
<path d="M52.2963 26.8408C52.2871 26.8432 52.2685 26.8432 52.25 26.8408H33.25C31.9373 26.8408 30.875 25.7785 30.875 24.4658C30.875 17.9184 36.2026 12.5908 42.75 12.5908C49.1212 12.5908 54.335 17.6329 54.6134 23.9369C54.6528 24.1062 54.6713 24.2848 54.6713 24.4658C54.6713 25.7785 53.6092 26.8408 52.2963 26.8408ZM36.0309 22.0908H49.4691C48.488 19.3261 45.8463 17.3408 42.75 17.3408C39.6537 17.3408 37.012 19.3261 36.0309 22.0908Z" fill="#FF6A00"/>
<path d="M64 30.7461V54.4961C64 57.0341 61.913 59.1211 59.375 59.1211H26.125C23.587 59.1211 21.5 57.0341 21.5 54.4961V30.7461C21.5 28.2081 23.587 26.1211 26.125 26.1211H59.375C61.913 26.1211 64 28.2081 64 30.7461Z" stroke="#FF6A00" stroke-width="5"/>
<path d="M49.875 38.7158H45.125V33.9658C45.125 32.6532 44.0627 31.5908 42.75 31.5908C41.4373 31.5908 40.375 32.6532 40.375 33.9658V38.7158H35.625C34.3123 38.7158 33.25 39.7782 33.25 41.0908C33.25 42.4035 34.3123 43.4658 35.625 43.4658H40.375V48.2158C40.375 49.5285 41.4373 50.5908 42.75 50.5908C44.0627 50.5908 45.125 49.5285 45.125 48.2158V43.4658H49.875C51.1877 43.4658 52.25 42.4035 52.25 41.0908C52.25 39.7782 51.1877 38.7158 49.875 38.7158Z" fill="#FF6A00"/>
</svg>
