<svg width="85" height="78" viewBox="0 0 85 78" fill="none" xmlns="http://www.w3.org/2000/svg">
<path opacity="0.17" d="M74.0171 13.7473C58.1175 -6.1618 10.4193 -3.81961 1.81419 23.3504C-6.79097 50.5203 28.0017 83.3117 59.0527 76.0509C90.1037 68.7901 89.9166 33.6564 74.0171 13.7473Z" fill="#FF6A00"/>
<path d="M66.0421 28.7453C68.8493 34.6165 69.3822 41.3195 67.538 47.5605C65.6937 53.8016 61.603 59.1383 56.0554 62.5406C50.5078 65.9429 43.8966 67.1698 37.4976 65.9842C31.0987 64.7987 25.3657 61.285 21.4051 56.1211C17.4445 50.9572 15.5371 44.5093 16.051 38.0218C16.5649 31.5343 19.4637 25.4671 24.1879 20.9912C28.9121 16.5153 35.1268 13.9479 41.6326 13.7847C48.1384 13.6214 54.474 15.8738 59.4168 20.1071L65.1494 14.3719C65.529 13.9923 66.0439 13.7791 66.5807 13.7791C67.1175 13.7791 67.6324 13.9923 68.012 14.3719C68.3916 14.7515 68.6048 15.2664 68.6048 15.8032C68.6048 16.34 68.3916 16.8549 68.012 17.2345L43.7361 41.5104C43.3565 41.89 42.8416 42.1032 42.3048 42.1032C41.768 42.1032 41.2531 41.89 40.8735 41.5104C40.4939 41.1308 40.2807 40.6159 40.2807 40.0791C40.2807 39.5423 40.4939 39.0274 40.8735 38.6478L47.8832 31.6382C45.9835 30.3818 43.7154 29.8033 41.446 29.9964C39.1766 30.1895 37.0388 31.1428 35.3786 32.7021C33.7185 34.2613 32.6332 36.3353 32.2984 38.5881C31.9636 40.841 32.3989 43.1409 33.5339 45.1155C34.6689 47.0901 36.4371 48.6239 38.5523 49.4686C40.6675 50.3132 43.0058 50.4193 45.1888 49.7696C47.3717 49.1199 49.2715 47.7525 50.5806 45.8887C51.8897 44.025 52.5315 41.7739 52.4021 39.5C52.3871 39.2344 52.4246 38.9683 52.5125 38.7172C52.6004 38.466 52.7368 38.2346 52.9141 38.0362C53.0914 37.8378 53.306 37.6762 53.5458 37.5608C53.7855 37.4453 54.0456 37.3782 54.3113 37.3632C54.8478 37.3331 55.3743 37.5172 55.7751 37.8753C55.9735 38.0526 56.135 38.2672 56.2505 38.5069C56.366 38.7466 56.4331 39.0068 56.448 39.2724C56.6325 42.491 55.7132 45.6761 53.8421 48.3014C51.9711 50.9266 49.2603 52.8349 46.1577 53.7108C43.0552 54.5867 39.7467 54.3778 36.779 53.1185C33.8113 51.8593 31.3621 49.6252 29.8361 46.7854C28.3102 43.9456 27.7989 40.6701 28.3868 37.5003C28.9746 34.3306 30.6264 31.4563 33.0692 29.3525C35.5119 27.2487 38.5994 26.0414 41.8213 25.9301C45.0432 25.8187 48.2066 26.8101 50.7887 28.7402L56.5416 22.9874C52.3257 19.4871 46.9652 17.6678 41.4897 17.879C36.0142 18.0902 30.8097 20.3169 26.8759 24.1315C22.9421 27.9461 20.5564 33.0796 20.1769 38.5461C19.7975 44.0125 21.451 49.4264 24.82 53.748C28.189 58.0695 33.0358 60.994 38.4296 61.9597C43.8235 62.9255 49.3839 61.8643 54.043 58.9801C58.7021 56.0959 62.1314 51.592 63.6721 46.3335C65.2129 41.075 64.7565 35.4326 62.3906 30.4901C62.1592 30.0059 62.1297 29.4496 62.3084 28.9436C62.4872 28.4376 62.8597 28.0233 63.3439 27.792C63.8281 27.5606 64.3844 27.531 64.8904 27.7098C65.3964 27.8886 65.8107 28.2611 66.0421 28.7453Z" fill="#FF6A00"/>
</svg>
