<svg width="58" height="58" viewBox="0 0 58 58" fill="none" xmlns="http://www.w3.org/2000/svg">
<g clip-path="url(#clip0_5_2255)">
<path d="M45.6998 26.8008C48.0099 28.0428 50.5528 28.7916 53.1673 28.9999V33.8333C49.9451 33.696 46.7895 32.8721 43.9115 31.4166H43.7181C41.425 30.0986 38.8812 29.2754 36.2506 28.9999C33.8545 29.1596 31.5326 29.8976 29.484 31.1508H29.339C27.0101 32.5342 24.4316 33.4457 21.7506 33.8333V28.9999C23.704 28.6134 25.5813 27.9115 27.309 26.9216H27.454C30.1155 25.2949 33.1367 24.3487 36.2506 24.1666C39.4818 24.3414 42.6379 25.2066 45.5065 26.7041L45.6998 26.8008ZM45.5065 36.4674C42.6456 34.9363 39.489 34.038 36.2506 33.8333C33.1492 33.9713 30.1289 34.8675 27.454 36.4432H27.309C25.5905 37.4837 23.7127 38.2349 21.7506 38.6666V43.4999C24.4231 43.1497 27.0011 42.2795 29.339 40.9383H29.484C31.5215 39.6426 33.8441 38.8629 36.2506 38.6666C38.8652 38.8749 41.408 39.6237 43.7181 40.8657H43.9115C46.7768 42.3858 49.931 43.2834 53.1673 43.4999V38.6666C50.5528 38.4583 48.0099 37.7094 45.6998 36.4674H45.5065ZM45.9173 17.2308V9.66658C45.9173 8.38471 45.4081 7.15533 44.5017 6.2489C43.5952 5.34248 42.3659 4.83325 41.084 4.83325H16.9173C15.6354 4.83325 14.4061 5.34248 13.4996 6.2489C12.5932 7.15533 12.084 8.38471 12.084 9.66658V17.3274C9.77805 16.3759 7.32562 15.8282 4.83398 15.7083V20.5416C7.02599 20.7195 9.17353 21.2584 11.1898 22.1366H11.4315L12.084 22.4266V26.9941C9.77805 26.0426 7.32562 25.4949 4.83398 25.3749V30.2083C7.02599 30.3862 9.17353 30.9251 11.1898 31.8032H11.4315L12.084 32.0208V36.5883C9.77805 35.6368 7.32562 35.0891 4.83398 34.9691V39.8024C7.02599 39.9803 9.17353 40.5193 11.1898 41.3974H11.4315L12.084 41.6149V48.3332C12.084 49.6151 12.5932 50.8445 13.4996 51.7509C14.4061 52.6574 15.6354 53.1666 16.9173 53.1666H41.084C42.3659 53.1666 43.5952 52.6574 44.5017 51.7509C45.4081 50.8445 45.9173 49.6151 45.9173 48.3332V46.6657L43.9115 45.9166H43.7181C42.7998 45.5057 41.9298 45.1191 41.084 44.8049V48.3332H16.9173V9.66658H41.084V15.2974C39.5217 14.792 37.8925 14.5231 36.2506 14.4999C33.1492 14.638 30.1289 15.5341 27.454 17.1099H27.309C25.5905 18.1504 23.7127 18.9015 21.7506 19.3333V24.1666C24.4231 23.8164 27.0011 22.9461 29.339 21.6049H29.484C31.5215 20.3093 33.8441 19.5296 36.2506 19.3333C38.8652 19.5415 41.408 20.2904 43.7181 21.5324H43.9115C46.7768 23.0525 49.931 23.9501 53.1673 24.1666V19.3333C50.6315 19.1399 48.1631 18.4241 45.9173 17.2308Z" fill="white"/>
</g>
<defs>
<clipPath id="clip0_5_2255">
<rect width="58" height="58" fill="white"/>
</clipPath>
</defs>
</svg>
