<svg width="53" height="56" viewBox="0 0 53 56" fill="none" xmlns="http://www.w3.org/2000/svg">
<path d="M47.6807 55.3219H5.11789C2.29586 55.3219 0 53.026 0 50.204V21.4028C0 18.5808 2.29586 16.2849 5.11789 16.2849H12.3417C13.0203 16.2849 13.5711 16.8357 13.5711 17.5143C13.5711 18.1929 13.0203 18.7437 12.3417 18.7437H5.11789C3.65186 18.7437 2.45875 19.9368 2.45875 21.4028V50.2034C2.45875 51.6706 3.65186 52.8631 5.11789 52.8631H47.6807C49.1473 52.8631 50.3405 51.6706 50.3405 50.204V21.4028C50.3405 19.9368 49.1473 18.7437 47.6807 18.7437H40.4471C39.7684 18.7437 39.2177 18.1929 39.2177 17.5143C39.2177 16.8357 39.7684 16.2849 40.4471 16.2849H47.6813C50.504 16.2849 52.7998 18.5808 52.7998 21.4028V50.2034C52.7992 53.026 50.5033 55.3219 47.6807 55.3219Z" fill="white"/>
<path d="M33.4519 35.8038L45.7106 24.5575C46.2109 24.0983 46.2447 23.3207 45.7856 22.8203C45.327 22.32 44.5488 22.2856 44.0491 22.7454L26.3996 38.9375L8.75066 22.746C8.25092 22.2874 7.47272 22.3206 7.01355 22.821C6.55438 23.3213 6.58819 24.0989 7.08854 24.5581L19.3473 35.8044L7.08793 47.0495C6.58757 47.508 6.55376 48.2862 7.01294 48.786C7.25574 49.0509 7.58644 49.1843 7.91899 49.1843C8.21588 49.1843 8.514 49.0773 8.75004 48.861L21.1649 37.4714L25.5679 41.5111C25.8027 41.7269 26.1008 41.8345 26.3989 41.8345C26.6971 41.8345 26.9952 41.7263 27.23 41.5111L31.6336 37.4714L44.0491 48.861C44.2851 49.078 44.5826 49.1843 44.8795 49.1843C45.2121 49.1843 45.5434 49.0503 45.7862 48.786C46.2454 48.2862 46.2116 47.508 45.7112 47.0495L33.4519 35.8038Z" fill="white"/>
<path d="M12.3427 4.19463C11.664 4.19463 11.1133 3.64387 11.1133 2.96525V1.22938C11.1133 0.55076 11.664 0 12.3427 0C13.0213 0 13.572 0.55076 13.572 1.22938V2.96525C13.572 3.64387 13.0213 4.19463 12.3427 4.19463Z" fill="white"/>
<path d="M12.3427 13.53C11.664 13.53 11.1133 12.9792 11.1133 12.3006V10.5924C11.1133 9.9138 11.664 9.36304 12.3427 9.36304C13.0213 9.36304 13.572 9.9138 13.572 10.5924V12.3006C13.572 12.9792 13.0213 13.53 12.3427 13.53Z" fill="white"/>
<path d="M8.51376 7.99391H6.80555C6.12693 7.99391 5.57617 7.44315 5.57617 6.76453C5.57617 6.08592 6.12693 5.53516 6.80555 5.53516H8.51376C9.19238 5.53516 9.74314 6.08592 9.74314 6.76453C9.74314 7.44315 9.19238 7.99391 8.51376 7.99391Z" fill="white"/>
<path d="M33.9538 9.45379C30.1053 5.60523 24.0168 5.33784 19.8492 8.63933L17.1059 5.89598C17.0487 5.83881 16.9854 5.78718 16.9178 5.74231C16.887 5.72141 16.8532 5.70727 16.8207 5.68944C16.7825 5.66854 16.7463 5.6458 16.7063 5.6292C16.6651 5.61199 16.6221 5.60216 16.5797 5.58986C16.5453 5.58003 16.5121 5.56651 16.4764 5.55913C16.3971 5.54315 16.3166 5.53516 16.2355 5.53516H12.3427C11.664 5.53516 11.1133 6.08592 11.1133 6.76453C11.1133 7.44315 11.664 7.99391 12.3427 7.99391H15.7271L18.1109 10.3777C14.8088 14.5452 15.0768 20.6337 18.9253 24.4823C20.9975 26.5544 23.7181 27.5901 26.4399 27.5901C29.1611 27.5901 31.8823 26.5538 33.9545 24.4823C35.962 22.4753 37.0666 19.807 37.0666 16.9683C37.0666 14.1297 35.9614 11.4614 33.9538 9.45379ZM32.2155 22.7439C30.6726 24.2868 28.6214 25.1363 26.4399 25.1363C24.2584 25.1363 22.2072 24.2868 20.6643 22.7439C17.4796 19.5593 17.4796 14.3774 20.6643 11.1927C22.257 9.6007 24.3487 8.80468 26.4399 8.80468C28.5317 8.80468 30.6235 9.6007 32.2155 11.1927C33.7584 12.7356 34.6079 14.7868 34.6079 16.9683C34.6079 19.1499 33.7584 21.2011 32.2155 22.7439Z" fill="white"/>
</svg>
