<svg width="57" height="57" viewBox="0 0 57 57" fill="none" xmlns="http://www.w3.org/2000/svg">
<path d="M33.2963 18.8406C33.287 18.843 33.2685 18.843 33.25 18.8406H14.25C12.9373 18.8406 11.875 17.7782 11.875 16.4656C11.875 9.91818 17.2026 4.59058 23.75 4.59058C30.1212 4.59058 35.335 9.6327 35.6134 15.9367C35.6528 16.106 35.6713 16.2846 35.6713 16.4656C35.6713 17.7782 34.6092 18.8406 33.2963 18.8406ZM17.0309 14.0906H30.4691C29.488 11.3258 26.8463 9.34058 23.75 9.34058C20.6537 9.34058 18.012 11.3258 17.0309 14.0906Z" fill="white"/>
<path d="M7.125 18.1208H40.375C42.913 18.1209 45 20.2078 45 22.7458V46.4958C45 49.0339 42.913 51.1208 40.375 51.1208H7.125C4.58696 51.1208 2.5 49.0339 2.5 46.4958V22.7458C2.5 20.2078 4.58696 18.1208 7.125 18.1208Z" stroke="white" stroke-width="5"/>
<path d="M30.875 30.7156H26.125V25.9656C26.125 24.6529 25.0627 23.5906 23.75 23.5906C22.4373 23.5906 21.375 24.6529 21.375 25.9656V30.7156H16.625C15.3123 30.7156 14.25 31.7779 14.25 33.0906C14.25 34.4032 15.3123 35.4656 16.625 35.4656H21.375V40.2156C21.375 41.5282 22.4373 42.5906 23.75 42.5906C25.0627 42.5906 26.125 41.5282 26.125 40.2156V35.4656H30.875C32.1877 35.4656 33.25 34.4032 33.25 33.0906C33.25 31.7779 32.1877 30.7156 30.875 30.7156Z" fill="white"/>
</svg>
