<svg width="59" height="59" viewBox="0 0 59 59" fill="none" xmlns="http://www.w3.org/2000/svg">
<path d="M22.125 46.0938H7.375V12.9062H51.625V23.9688" stroke="white" stroke-width="3" stroke-miterlimit="10" stroke-linejoin="round"/>
<path d="M14.75 20.2812L29.5 33.1875L44.25 20.2812" stroke="white" stroke-width="4" stroke-miterlimit="10" stroke-linejoin="round"/>
<path d="M25.2594 29.5L14.75 38.7188" stroke="white" stroke-width="4" stroke-miterlimit="10" stroke-linejoin="round"/>
<path d="M51.9938 40.0094C51.0719 41.6688 49.5969 42.5906 47.5687 42.775C46.4625 42.9594 45.725 42.2219 45.725 41.3C45.5406 39.2719 45.5406 37.2438 45.1719 35.2156C44.8031 33.0031 43.6969 31.1594 42.2219 29.5C42.2219 29.5 42.0375 29.5 42.0375 29.6844C41.1156 32.0813 39.4563 34.1094 37.9813 36.3219C35.9531 38.9031 35.0312 41.8531 35.0312 45.1719C35.2156 49.5969 39.4563 53.6531 44.25 53.4688C48.675 53.4688 52.5469 50.3344 53.2844 46.2781C53.8375 44.0656 53.4688 41.3 52.5469 39.2719C52.3625 39.6406 52.1781 39.825 51.9938 40.0094Z" stroke="white" stroke-width="4" stroke-miterlimit="10" stroke-linejoin="round"/>
</svg>
