<svg width="564" height="498" viewBox="0 0 564 498" fill="none" xmlns="http://www.w3.org/2000/svg">
<mask id="mask0_5_2258" style="mask-type:alpha" maskUnits="userSpaceOnUse" x="204" y="56" width="280" height="399">
<path d="M205 268C365.839 268 317.842 323.845 478.681 323.845" stroke="url(#paint0_linear_5_2258)" stroke-width="2"/>
<path d="M204 211.33C364.838 211.33 315.564 57 479.502 57" stroke="url(#paint1_linear_5_2258)" stroke-width="2"/>
<path d="M210 296C370.838 296 285.616 453.12 483.952 453.12" stroke="url(#paint2_linear_5_2258)" stroke-width="2"/>
<path d="M210 237.801C370.839 237.801 308.158 184 482.943 184" stroke="url(#paint3_linear_5_2258)" stroke-width="2"/>
</mask>
<g mask="url(#mask0_5_2258)">
<rect x="210.5" y="44.5" width="268" height="443" fill="url(#paint4_linear_5_2258)" stroke="url(#paint5_linear_5_2258)"/>
</g>
<g filter="url(#filter0_di_5_2258)">
<path d="M105.872 150.115C110.283 147.569 115.717 147.569 120.128 150.115L203.733 198.385C208.144 200.931 210.861 205.637 210.861 210.73L210.861 307.27C210.861 312.363 208.144 317.069 203.733 319.615L120.128 367.885C115.717 370.431 110.283 370.431 105.872 367.885L22.2668 319.615C17.8562 317.069 15.1391 312.363 15.1391 307.27L15.1391 210.73C15.1391 205.637 17.8562 200.931 22.2668 198.385L105.872 150.115Z" fill="url(#paint6_linear_5_2258)"/>
<path d="M106.622 151.414C110.569 149.136 115.431 149.136 119.378 151.414L202.983 199.684C206.93 201.962 209.361 206.173 209.361 210.73L209.361 307.27C209.361 311.827 206.93 316.038 202.983 318.316L119.378 366.586C115.431 368.864 110.569 368.864 106.622 366.586L23.0166 318.316C19.0701 316.038 16.6387 311.827 16.6387 307.27L16.6387 210.73C16.6387 206.173 19.0701 201.962 23.0166 199.684L106.622 151.414Z" stroke="#CFCFCF" stroke-width="3" style="mix-blend-mode:color-dodge"/>
</g>
<path d="M110.542 194.637C110.554 195.088 110.567 195.539 110.579 195.99C110.538 198.973 110.493 201.96 110.444 204.949C110.367 210.44 110.287 215.931 110.206 221.422C110.172 223.993 110.136 226.566 110.099 229.14C110.036 234.356 109.971 239.572 109.905 244.786C109.902 245.082 109.831 245.375 109.699 245.644C106.249 252.827 102.808 260.011 99.375 267.196C99.2068 267.5 98.9574 267.757 98.6516 267.943L77.9326 282.566L56.4694 297.702C56.2757 297.85 56.0609 297.972 55.8312 298.063C74.107 263.608 92.3439 229.132 110.542 194.637Z" fill="#FF6A00"/>
<path d="M111.927 194.598C113.989 197.97 116.059 201.337 118.111 204.713C136.211 234.495 154.175 264.348 172.004 294.271C172.117 294.44 172.192 294.629 172.223 294.826C172.016 294.705 171.8 294.598 171.597 294.472L137.196 273.066C134.237 271.218 131.267 269.374 128.285 267.533C127.77 267.226 127.35 266.797 127.068 266.29C123.137 259.446 119.415 252.488 115.599 245.596C115.456 245.355 115.369 245.089 115.344 244.814C115.129 241.618 114.895 238.422 114.671 235.221C114.283 229.769 113.899 224.317 113.518 218.865C113.348 216.428 113.174 213.991 113.009 211.55C112.635 206.124 112.265 200.699 111.898 195.274C111.891 195.052 111.778 194.824 111.966 194.61L111.927 194.598Z" fill="#FF6A00"/>
<path d="M82.0203 298.562C82.1452 298.365 82.3211 298.202 82.5309 298.09L112.644 276.075L112.877 275.908C113.414 275.545 113.25 275.44 113.928 275.879L131.558 287.304L145.368 296.278C145.581 296.415 145.785 296.565 146.101 296.781L82.0203 298.562Z" fill="#FF6A00"/>
<g filter="url(#filter1_di_5_2258)">
<path d="M511.378 4.80267C513.31 3.68717 515.69 3.68717 517.622 4.80267L554.246 25.9473C556.178 27.0628 557.368 29.1243 557.368 31.3553L557.368 73.6447C557.368 75.8757 556.178 77.9372 554.246 79.0527L517.622 100.197C515.69 101.313 513.31 101.313 511.378 100.197L474.754 79.0527C472.822 77.9372 471.632 75.8757 471.632 73.6447L471.632 31.3553C471.632 29.1243 472.822 27.0628 474.754 25.9473L511.378 4.80267Z" fill="#0E0E0E"/>
<path d="M511.378 4.80267C513.31 3.68717 515.69 3.68717 517.622 4.80267L554.246 25.9473C556.178 27.0628 557.368 29.1243 557.368 31.3553L557.368 73.6447C557.368 75.8757 556.178 77.9372 554.246 79.0527L517.622 100.197C515.69 101.313 513.31 101.313 511.378 100.197L474.754 79.0527C472.822 77.9372 471.632 75.8757 471.632 73.6447L471.632 31.3553C471.632 29.1243 472.822 27.0628 474.754 25.9473L511.378 4.80267Z" fill="url(#paint7_linear_5_2258)"/>
<path d="M511.628 5.23535C513.405 4.20943 515.595 4.20943 517.372 5.23535L553.996 26.3799C555.773 27.4061 556.868 29.3031 556.868 31.3555L556.868 73.6445C556.868 75.5685 555.906 77.3556 554.321 78.417L553.996 78.6201L517.372 99.7646C515.595 100.791 513.405 100.791 511.628 99.7646L475.004 78.6201C473.227 77.5939 472.132 75.6969 472.132 73.6445L472.132 31.3555C472.132 29.4315 473.094 27.6444 474.679 26.583L475.004 26.3799L511.628 5.23535Z" stroke="#ECECEC" style="mix-blend-mode:color-dodge"/>
</g>
<g filter="url(#filter2_di_5_2258)">
<path d="M533.931 67.1329C533.931 67.5268 533.775 67.9045 533.496 68.1831C533.218 68.4616 532.84 68.6181 532.446 68.6181H496.802C496.408 68.6181 496.03 68.4616 495.751 68.1831C495.473 67.9045 495.316 67.5268 495.316 67.1329V37.4293C495.316 37.0354 495.473 36.6576 495.751 36.3791C496.03 36.1006 496.408 35.9441 496.802 35.9441C497.195 35.9441 497.573 36.1006 497.852 36.3791C498.13 36.6576 498.287 37.0354 498.287 37.4293V57.6073L507.632 48.2599C507.77 48.1219 507.934 48.0123 508.114 47.9376C508.295 47.8628 508.488 47.8244 508.683 47.8244C508.878 47.8244 509.071 47.8628 509.252 47.9376C509.432 48.0123 509.596 48.1219 509.734 48.2599L514.624 53.1518L524.406 43.37H520.564C520.171 43.37 519.793 43.2135 519.514 42.935C519.236 42.6565 519.079 42.2787 519.079 41.8848C519.079 41.4909 519.236 41.1132 519.514 40.8346C519.793 40.5561 520.171 40.3996 520.564 40.3996H527.99C528.384 40.3996 528.762 40.5561 529.041 40.8346C529.319 41.1132 529.476 41.4909 529.476 41.8848V49.3107C529.476 49.7046 529.319 50.0824 529.041 50.3609C528.762 50.6394 528.384 50.7959 527.99 50.7959C527.596 50.7959 527.219 50.6394 526.94 50.3609C526.662 50.0824 526.505 49.7046 526.505 49.3107V45.4697L515.675 56.3022C515.537 56.4403 515.373 56.5498 515.192 56.6246C515.012 56.6993 514.819 56.7378 514.624 56.7378C514.429 56.7378 514.235 56.6993 514.055 56.6246C513.875 56.5498 513.711 56.4403 513.573 56.3022L508.683 51.4104L498.287 61.8066V65.6477H532.446C532.84 65.6477 533.218 65.8042 533.496 66.0827C533.775 66.3612 533.931 66.739 533.931 67.1329Z" fill="#FF5900"/>
</g>
<g filter="url(#filter3_di_5_2258)">
<path d="M511.378 127.803C513.31 126.687 515.69 126.687 517.622 127.803L554.246 148.947C556.178 150.063 557.368 152.124 557.368 154.355L557.368 196.645C557.368 198.876 556.178 200.937 554.246 202.053L517.622 223.197C515.69 224.313 513.31 224.313 511.378 223.197L474.754 202.053C472.822 200.937 471.632 198.876 471.632 196.645L471.632 154.355C471.632 152.124 472.822 150.063 474.754 148.947L511.378 127.803Z" fill="#0E0E0E"/>
<path d="M511.378 127.803C513.31 126.687 515.69 126.687 517.622 127.803L554.246 148.947C556.178 150.063 557.368 152.124 557.368 154.355L557.368 196.645C557.368 198.876 556.178 200.937 554.246 202.053L517.622 223.197C515.69 224.313 513.31 224.313 511.378 223.197L474.754 202.053C472.822 200.937 471.632 198.876 471.632 196.645L471.632 154.355C471.632 152.124 472.822 150.063 474.754 148.947L511.378 127.803Z" fill="url(#paint8_linear_5_2258)"/>
<path d="M511.628 128.235C513.405 127.209 515.595 127.209 517.372 128.235L553.996 149.38C555.773 150.406 556.868 152.303 556.868 154.355L556.868 196.645C556.868 198.569 555.906 200.356 554.321 201.417L553.996 201.62L517.372 222.765C515.595 223.791 513.405 223.791 511.628 222.765L475.004 201.62C473.227 200.594 472.132 198.697 472.132 196.645L472.132 154.355C472.132 152.431 473.094 150.644 474.679 149.583L475.004 149.38L511.628 128.235Z" stroke="#ECECEC" style="mix-blend-mode:color-dodge"/>
</g>
<g filter="url(#filter4_di_5_2258)">
<path d="M537.332 195.464L526.159 184.294C529.398 180.406 531.013 175.419 530.668 170.371C530.323 165.323 528.046 160.602 524.309 157.19C520.572 153.778 515.664 151.939 510.605 152.054C505.547 152.169 500.727 154.229 497.149 157.807C493.571 161.385 491.511 166.205 491.396 171.263C491.281 176.322 493.12 181.23 496.532 184.967C499.944 188.704 504.665 190.981 509.713 191.326C514.761 191.671 519.748 190.056 523.636 186.817L534.806 197.99C534.972 198.156 535.169 198.288 535.386 198.378C535.603 198.467 535.835 198.514 536.069 198.514C536.304 198.514 536.536 198.467 536.753 198.378C536.97 198.288 537.167 198.156 537.332 197.99C537.498 197.824 537.63 197.628 537.72 197.411C537.809 197.194 537.856 196.962 537.856 196.727C537.856 196.493 537.809 196.261 537.72 196.044C537.63 195.827 537.498 195.63 537.332 195.464ZM495.01 171.735C495.01 168.557 495.953 165.451 497.718 162.809C499.483 160.167 501.993 158.107 504.928 156.891C507.864 155.675 511.095 155.357 514.211 155.977C517.328 156.597 520.191 158.127 522.438 160.374C524.685 162.621 526.215 165.484 526.835 168.6C527.455 171.717 527.137 174.947 525.92 177.883C524.704 180.819 522.645 183.328 520.003 185.094C517.361 186.859 514.255 187.801 511.077 187.801C506.817 187.797 502.733 186.102 499.721 183.09C496.709 180.078 495.015 175.995 495.01 171.735Z" fill="#FF5900"/>
</g>
<g filter="url(#filter5_di_5_2258)">
<path d="M511.378 268.803C513.31 267.687 515.69 267.687 517.622 268.803L554.246 289.947C556.178 291.063 557.368 293.124 557.368 295.355L557.368 337.645C557.368 339.876 556.178 341.937 554.246 343.053L517.622 364.197C515.69 365.313 513.31 365.313 511.378 364.197L474.754 343.053C472.822 341.937 471.632 339.876 471.632 337.645L471.632 295.355C471.632 293.124 472.822 291.063 474.754 289.947L511.378 268.803Z" fill="#0E0E0E"/>
<path d="M511.378 268.803C513.31 267.687 515.69 267.687 517.622 268.803L554.246 289.947C556.178 291.063 557.368 293.124 557.368 295.355L557.368 337.645C557.368 339.876 556.178 341.937 554.246 343.053L517.622 364.197C515.69 365.313 513.31 365.313 511.378 364.197L474.754 343.053C472.822 341.937 471.632 339.876 471.632 337.645L471.632 295.355C471.632 293.124 472.822 291.063 474.754 289.947L511.378 268.803Z" fill="url(#paint9_linear_5_2258)"/>
<path d="M511.628 269.235C513.405 268.209 515.595 268.209 517.372 269.235L553.996 290.38C555.773 291.406 556.868 293.303 556.868 295.355L556.868 337.645C556.868 339.569 555.906 341.356 554.321 342.417L553.996 342.62L517.372 363.765C515.595 364.791 513.405 364.791 511.628 363.765L475.004 342.62C473.227 341.594 472.132 339.697 472.132 337.645L472.132 295.355C472.132 293.431 473.094 291.644 474.679 290.583L475.004 290.38L511.628 269.235Z" stroke="#ECECEC" style="mix-blend-mode:color-dodge"/>
</g>
<g filter="url(#filter6_di_5_2258)">
<path d="M497.08 322.089H493.287C492.784 322.089 492.302 322.293 491.946 322.656C491.59 323.019 491.391 323.512 491.391 324.025V337.577C491.391 338.091 491.59 338.583 491.946 338.946C492.302 339.31 492.784 339.514 493.287 339.514H497.08C499.344 339.514 501.514 338.596 503.115 336.962C504.715 335.328 505.615 333.112 505.615 330.801C505.615 328.491 504.715 326.275 503.115 324.641C501.514 323.007 499.344 322.089 497.08 322.089ZM497.08 335.641H495.184V325.961H497.08C498.338 325.961 499.544 326.471 500.433 327.379C501.322 328.287 501.822 329.518 501.822 330.801C501.822 332.085 501.322 333.316 500.433 334.224C499.544 335.131 498.338 335.641 497.08 335.641ZM537.27 334.453C537.634 334.808 537.844 335.296 537.855 335.809C537.866 336.322 537.677 336.819 537.329 337.19C536.669 337.916 535.871 338.496 534.983 338.896C534.095 339.295 533.136 339.505 532.166 339.514C527.982 339.514 524.58 335.605 524.58 330.801C524.58 325.998 527.982 322.089 532.166 322.089C533.136 322.097 534.095 322.307 534.983 322.707C535.871 323.106 536.669 323.687 537.329 324.412C537.67 324.785 537.852 325.279 537.838 325.788C537.824 326.297 537.614 326.78 537.253 327.132C536.893 327.483 536.411 327.676 535.913 327.668C535.414 327.66 534.938 327.452 534.589 327.089C534.281 326.743 533.908 326.465 533.491 326.271C533.075 326.077 532.624 325.972 532.166 325.961C530.075 325.961 528.373 328.139 528.373 330.801C528.373 333.463 530.075 335.641 532.166 335.641C532.624 335.631 533.075 335.526 533.491 335.332C533.908 335.138 534.281 334.86 534.589 334.514C534.937 334.143 535.415 333.928 535.917 333.917C536.42 333.905 536.907 334.098 537.27 334.453ZM515.097 322.089C510.913 322.089 507.511 325.998 507.511 330.801C507.511 335.605 510.913 339.514 515.097 339.514C519.282 339.514 522.683 335.605 522.683 330.801C522.683 325.998 519.282 322.089 515.097 322.089ZM515.097 335.641C513.006 335.641 511.304 333.463 511.304 330.801C511.304 328.139 513.006 325.961 515.097 325.961C517.188 325.961 518.89 328.139 518.89 330.801C518.89 333.463 517.188 335.641 515.097 335.641ZM496.132 316.281C496.635 316.281 497.117 316.077 497.473 315.714C497.829 315.351 498.029 314.858 498.029 314.345V296.921H518.89V308.537C518.89 309.05 519.09 309.543 519.446 309.906C519.802 310.269 520.284 310.473 520.787 310.473H532.166V314.345C532.166 314.858 532.366 315.351 532.722 315.714C533.077 316.077 533.56 316.281 534.063 316.281C534.566 316.281 535.048 316.077 535.404 315.714C535.759 315.351 535.959 314.858 535.959 314.345V308.537C535.959 308.283 535.911 308.031 535.815 307.796C535.72 307.561 535.581 307.347 535.404 307.167L522.129 293.615C521.952 293.435 521.743 293.293 521.513 293.195C521.283 293.098 521.036 293.048 520.787 293.049H498.029C497.023 293.049 496.058 293.457 495.346 294.183C494.635 294.909 494.235 295.894 494.235 296.921V314.345C494.235 314.858 494.435 315.351 494.791 315.714C495.147 316.077 495.629 316.281 496.132 316.281ZM522.683 299.658L529.485 306.601H522.683V299.658Z" fill="#FF5900"/>
</g>
<g filter="url(#filter7_di_5_2258)">
<path d="M511.378 397.803C513.31 396.687 515.69 396.687 517.622 397.803L554.246 418.947C556.178 420.063 557.368 422.124 557.368 424.355L557.368 466.645C557.368 468.876 556.178 470.937 554.246 472.053L517.622 493.197C515.69 494.313 513.31 494.313 511.378 493.197L474.754 472.053C472.822 470.937 471.632 468.876 471.632 466.645L471.632 424.355C471.632 422.124 472.822 420.063 474.754 418.947L511.378 397.803Z" fill="#0E0E0E"/>
<path d="M511.378 397.803C513.31 396.687 515.69 396.687 517.622 397.803L554.246 418.947C556.178 420.063 557.368 422.124 557.368 424.355L557.368 466.645C557.368 468.876 556.178 470.937 554.246 472.053L517.622 493.197C515.69 494.313 513.31 494.313 511.378 493.197L474.754 472.053C472.822 470.937 471.632 468.876 471.632 466.645L471.632 424.355C471.632 422.124 472.822 420.063 474.754 418.947L511.378 397.803Z" fill="url(#paint10_linear_5_2258)"/>
<path d="M511.628 398.235C513.405 397.209 515.595 397.209 517.372 398.235L553.996 419.38C555.773 420.406 556.868 422.303 556.868 424.355L556.868 466.645C556.868 468.569 555.906 470.356 554.321 471.417L553.996 471.62L517.372 492.765C515.595 493.791 513.405 493.791 511.628 492.765L475.004 471.62C473.227 470.594 472.132 468.697 472.132 466.645L472.132 424.355C472.132 422.431 473.094 420.644 474.679 419.583L475.004 419.38L511.628 398.235Z" stroke="#ECECEC" style="mix-blend-mode:color-dodge"/>
</g>
<g filter="url(#filter8_di_5_2258)">
<path d="M536.196 442.803H516.283V437.847H517.942C518.822 437.847 519.666 437.498 520.289 436.879C520.911 436.259 521.261 435.419 521.261 434.542V427.934C521.261 427.058 520.911 426.217 520.289 425.598C519.666 424.978 518.822 424.63 517.942 424.63H511.304C510.424 424.63 509.58 424.978 508.957 425.598C508.335 426.217 507.985 427.058 507.985 427.934V434.542C507.985 435.419 508.335 436.259 508.957 436.879C509.58 437.498 510.424 437.847 511.304 437.847H512.964V442.803H493.05C492.61 442.803 492.188 442.977 491.877 443.287C491.565 443.597 491.391 444.017 491.391 444.455C491.391 444.893 491.565 445.313 491.877 445.623C492.188 445.933 492.61 446.107 493.05 446.107H499.688V452.715H498.028C497.148 452.715 496.304 453.063 495.682 453.683C495.059 454.303 494.71 455.143 494.71 456.02V462.628C494.71 463.504 495.059 464.345 495.682 464.964C496.304 465.584 497.148 465.932 498.028 465.932H504.666C505.547 465.932 506.391 465.584 507.013 464.964C507.636 464.345 507.985 463.504 507.985 462.628V456.02C507.985 455.143 507.636 454.303 507.013 453.683C506.391 453.063 505.547 452.715 504.666 452.715H503.007V446.107H526.239V452.715H524.58C523.7 452.715 522.855 453.063 522.233 453.683C521.611 454.303 521.261 455.143 521.261 456.02V462.628C521.261 463.504 521.611 464.345 522.233 464.964C522.855 465.584 523.7 465.932 524.58 465.932H531.218C532.098 465.932 532.942 465.584 533.565 464.964C534.187 464.345 534.537 463.504 534.537 462.628V456.02C534.537 455.143 534.187 454.303 533.565 453.683C532.942 453.063 532.098 452.715 531.218 452.715H529.558V446.107H536.196C536.636 446.107 537.058 445.933 537.369 445.623C537.681 445.313 537.856 444.893 537.856 444.455C537.856 444.017 537.681 443.597 537.369 443.287C537.058 442.977 536.636 442.803 536.196 442.803ZM511.304 427.934H517.942V434.542H511.304V427.934ZM504.666 462.628H498.028V456.02H504.666V462.628ZM531.218 462.628H524.58V456.02H531.218V462.628Z" fill="#FF5900"/>
</g>
<defs>
<filter id="filter0_di_5_2258" x="6.83867" y="139.905" width="212.323" height="238.189" filterUnits="userSpaceOnUse" color-interpolation-filters="sRGB">
<feFlood flood-opacity="0" result="BackgroundImageFix"/>
<feColorMatrix in="SourceAlpha" type="matrix" values="0 0 0 0 0 0 0 0 0 0 0 0 0 0 0 0 0 0 127 0" result="hardAlpha"/>
<feOffset/>
<feGaussianBlur stdDeviation="4.15"/>
<feComposite in2="hardAlpha" operator="out"/>
<feColorMatrix type="matrix" values="0 0 0 0 0 0 0 0 0 0 0 0 0 0 0 0 0 0 0.25 0"/>
<feBlend mode="normal" in2="BackgroundImageFix" result="effect1_dropShadow_5_2258"/>
<feBlend mode="normal" in="SourceGraphic" in2="effect1_dropShadow_5_2258" result="shape"/>
<feColorMatrix in="SourceAlpha" type="matrix" values="0 0 0 0 0 0 0 0 0 0 0 0 0 0 0 0 0 0 127 0" result="hardAlpha"/>
<feOffset/>
<feGaussianBlur stdDeviation="16.15"/>
<feComposite in2="hardAlpha" operator="arithmetic" k2="-1" k3="1"/>
<feColorMatrix type="matrix" values="0 0 0 0 1 0 0 0 0 1 0 0 0 0 1 0 0 0 0.67 0"/>
<feBlend mode="normal" in2="shape" result="effect2_innerShadow_5_2258"/>
</filter>
<filter id="filter1_di_5_2258" x="467.995" y="0.330224" width="93.01" height="104.34" filterUnits="userSpaceOnUse" color-interpolation-filters="sRGB">
<feFlood flood-opacity="0" result="BackgroundImageFix"/>
<feColorMatrix in="SourceAlpha" type="matrix" values="0 0 0 0 0 0 0 0 0 0 0 0 0 0 0 0 0 0 127 0" result="hardAlpha"/>
<feOffset/>
<feGaussianBlur stdDeviation="1.81792"/>
<feComposite in2="hardAlpha" operator="out"/>
<feColorMatrix type="matrix" values="0 0 0 0 0 0 0 0 0 0 0 0 0 0 0 0 0 0 0.25 0"/>
<feBlend mode="normal" in2="BackgroundImageFix" result="effect1_dropShadow_5_2258"/>
<feBlend mode="normal" in="SourceGraphic" in2="effect1_dropShadow_5_2258" result="shape"/>
<feColorMatrix in="SourceAlpha" type="matrix" values="0 0 0 0 0 0 0 0 0 0 0 0 0 0 0 0 0 0 127 0" result="hardAlpha"/>
<feOffset/>
<feGaussianBlur stdDeviation="6.9"/>
<feComposite in2="hardAlpha" operator="arithmetic" k2="-1" k3="1"/>
<feColorMatrix type="matrix" values="0 0 0 0 1 0 0 0 0 1 0 0 0 0 1 0 0 0 0.67 0"/>
<feBlend mode="normal" in2="shape" result="effect2_innerShadow_5_2258"/>
</filter>
<filter id="filter2_di_5_2258" x="467.868" y="8.49586" width="93.5102" height="87.5703" filterUnits="userSpaceOnUse" color-interpolation-filters="sRGB">
<feFlood flood-opacity="0" result="BackgroundImageFix"/>
<feColorMatrix in="SourceAlpha" type="matrix" values="0 0 0 0 0 0 0 0 0 0 0 0 0 0 0 0 0 0 127 0" result="hardAlpha"/>
<feOffset/>
<feGaussianBlur stdDeviation="3.82287"/>
<feComposite in2="hardAlpha" operator="out"/>
<feColorMatrix type="matrix" values="0 0 0 0 0 0 0 0 0 0 0 0 0 0 0 0 0 0 0.25 0"/>
<feBlend mode="normal" in2="BackgroundImageFix" result="effect1_dropShadow_5_2258"/>
<feBlend mode="normal" in="SourceGraphic" in2="effect1_dropShadow_5_2258" result="shape"/>
<feColorMatrix in="SourceAlpha" type="matrix" values="0 0 0 0 0 0 0 0 0 0 0 0 0 0 0 0 0 0 127 0" result="hardAlpha"/>
<feOffset/>
<feGaussianBlur stdDeviation="10.8238"/>
<feComposite in2="hardAlpha" operator="arithmetic" k2="-1" k3="1"/>
<feColorMatrix type="matrix" values="0 0 0 0 1 0 0 0 0 1 0 0 0 0 1 0 0 0 0.25 0"/>
<feBlend mode="normal" in2="shape" result="effect2_innerShadow_5_2258"/>
</filter>
<filter id="filter3_di_5_2258" x="467.995" y="123.33" width="93.01" height="104.34" filterUnits="userSpaceOnUse" color-interpolation-filters="sRGB">
<feFlood flood-opacity="0" result="BackgroundImageFix"/>
<feColorMatrix in="SourceAlpha" type="matrix" values="0 0 0 0 0 0 0 0 0 0 0 0 0 0 0 0 0 0 127 0" result="hardAlpha"/>
<feOffset/>
<feGaussianBlur stdDeviation="1.81792"/>
<feComposite in2="hardAlpha" operator="out"/>
<feColorMatrix type="matrix" values="0 0 0 0 0 0 0 0 0 0 0 0 0 0 0 0 0 0 0.25 0"/>
<feBlend mode="normal" in2="BackgroundImageFix" result="effect1_dropShadow_5_2258"/>
<feBlend mode="normal" in="SourceGraphic" in2="effect1_dropShadow_5_2258" result="shape"/>
<feColorMatrix in="SourceAlpha" type="matrix" values="0 0 0 0 0 0 0 0 0 0 0 0 0 0 0 0 0 0 127 0" result="hardAlpha"/>
<feOffset/>
<feGaussianBlur stdDeviation="6.9"/>
<feComposite in2="hardAlpha" operator="arithmetic" k2="-1" k3="1"/>
<feColorMatrix type="matrix" values="0 0 0 0 1 0 0 0 0 1 0 0 0 0 1 0 0 0 0.67 0"/>
<feBlend mode="normal" in2="shape" result="effect2_innerShadow_5_2258"/>
</filter>
<filter id="filter4_di_5_2258" x="467.87" y="128.656" width="93.5083" height="93.2502" filterUnits="userSpaceOnUse" color-interpolation-filters="sRGB">
<feFlood flood-opacity="0" result="BackgroundImageFix"/>
<feColorMatrix in="SourceAlpha" type="matrix" values="0 0 0 0 0 0 0 0 0 0 0 0 0 0 0 0 0 0 127 0" result="hardAlpha"/>
<feOffset/>
<feGaussianBlur stdDeviation="3.82287"/>
<feComposite in2="hardAlpha" operator="out"/>
<feColorMatrix type="matrix" values="0 0 0 0 0 0 0 0 0 0 0 0 0 0 0 0 0 0 0.25 0"/>
<feBlend mode="normal" in2="BackgroundImageFix" result="effect1_dropShadow_5_2258"/>
<feBlend mode="normal" in="SourceGraphic" in2="effect1_dropShadow_5_2258" result="shape"/>
<feColorMatrix in="SourceAlpha" type="matrix" values="0 0 0 0 0 0 0 0 0 0 0 0 0 0 0 0 0 0 127 0" result="hardAlpha"/>
<feOffset/>
<feGaussianBlur stdDeviation="10.8238"/>
<feComposite in2="hardAlpha" operator="arithmetic" k2="-1" k3="1"/>
<feColorMatrix type="matrix" values="0 0 0 0 1 0 0 0 0 1 0 0 0 0 1 0 0 0 0.25 0"/>
<feBlend mode="normal" in2="shape" result="effect2_innerShadow_5_2258"/>
</filter>
<filter id="filter5_di_5_2258" x="467.995" y="264.33" width="93.01" height="104.34" filterUnits="userSpaceOnUse" color-interpolation-filters="sRGB">
<feFlood flood-opacity="0" result="BackgroundImageFix"/>
<feColorMatrix in="SourceAlpha" type="matrix" values="0 0 0 0 0 0 0 0 0 0 0 0 0 0 0 0 0 0 127 0" result="hardAlpha"/>
<feOffset/>
<feGaussianBlur stdDeviation="1.81792"/>
<feComposite in2="hardAlpha" operator="out"/>
<feColorMatrix type="matrix" values="0 0 0 0 0 0 0 0 0 0 0 0 0 0 0 0 0 0 0.25 0"/>
<feBlend mode="normal" in2="BackgroundImageFix" result="effect1_dropShadow_5_2258"/>
<feBlend mode="normal" in="SourceGraphic" in2="effect1_dropShadow_5_2258" result="shape"/>
<feColorMatrix in="SourceAlpha" type="matrix" values="0 0 0 0 0 0 0 0 0 0 0 0 0 0 0 0 0 0 127 0" result="hardAlpha"/>
<feOffset/>
<feGaussianBlur stdDeviation="6.9"/>
<feComposite in2="hardAlpha" operator="arithmetic" k2="-1" k3="1"/>
<feColorMatrix type="matrix" values="0 0 0 0 1 0 0 0 0 1 0 0 0 0 1 0 0 0 0.67 0"/>
<feBlend mode="normal" in2="shape" result="effect2_innerShadow_5_2258"/>
</filter>
<filter id="filter6_di_5_2258" x="467.87" y="269.527" width="93.5083" height="93.5076" filterUnits="userSpaceOnUse" color-interpolation-filters="sRGB">
<feFlood flood-opacity="0" result="BackgroundImageFix"/>
<feColorMatrix in="SourceAlpha" type="matrix" values="0 0 0 0 0 0 0 0 0 0 0 0 0 0 0 0 0 0 127 0" result="hardAlpha"/>
<feOffset/>
<feGaussianBlur stdDeviation="3.82287"/>
<feComposite in2="hardAlpha" operator="out"/>
<feColorMatrix type="matrix" values="0 0 0 0 0 0 0 0 0 0 0 0 0 0 0 0 0 0 0.25 0"/>
<feBlend mode="normal" in2="BackgroundImageFix" result="effect1_dropShadow_5_2258"/>
<feBlend mode="normal" in="SourceGraphic" in2="effect1_dropShadow_5_2258" result="shape"/>
<feColorMatrix in="SourceAlpha" type="matrix" values="0 0 0 0 0 0 0 0 0 0 0 0 0 0 0 0 0 0 127 0" result="hardAlpha"/>
<feOffset/>
<feGaussianBlur stdDeviation="10.8238"/>
<feComposite in2="hardAlpha" operator="arithmetic" k2="-1" k3="1"/>
<feColorMatrix type="matrix" values="0 0 0 0 1 0 0 0 0 1 0 0 0 0 1 0 0 0 0.25 0"/>
<feBlend mode="normal" in2="shape" result="effect2_innerShadow_5_2258"/>
</filter>
<filter id="filter7_di_5_2258" x="467.995" y="393.33" width="93.01" height="104.34" filterUnits="userSpaceOnUse" color-interpolation-filters="sRGB">
<feFlood flood-opacity="0" result="BackgroundImageFix"/>
<feColorMatrix in="SourceAlpha" type="matrix" values="0 0 0 0 0 0 0 0 0 0 0 0 0 0 0 0 0 0 127 0" result="hardAlpha"/>
<feOffset/>
<feGaussianBlur stdDeviation="1.81792"/>
<feComposite in2="hardAlpha" operator="out"/>
<feColorMatrix type="matrix" values="0 0 0 0 0 0 0 0 0 0 0 0 0 0 0 0 0 0 0.25 0"/>
<feBlend mode="normal" in2="BackgroundImageFix" result="effect1_dropShadow_5_2258"/>
<feBlend mode="normal" in="SourceGraphic" in2="effect1_dropShadow_5_2258" result="shape"/>
<feColorMatrix in="SourceAlpha" type="matrix" values="0 0 0 0 0 0 0 0 0 0 0 0 0 0 0 0 0 0 127 0" result="hardAlpha"/>
<feOffset/>
<feGaussianBlur stdDeviation="6.9"/>
<feComposite in2="hardAlpha" operator="arithmetic" k2="-1" k3="1"/>
<feColorMatrix type="matrix" values="0 0 0 0 1 0 0 0 0 1 0 0 0 0 1 0 0 0 0.67 0"/>
<feBlend mode="normal" in2="shape" result="effect2_innerShadow_5_2258"/>
</filter>
<filter id="filter8_di_5_2258" x="467.87" y="398.527" width="93.5083" height="93.5076" filterUnits="userSpaceOnUse" color-interpolation-filters="sRGB">
<feFlood flood-opacity="0" result="BackgroundImageFix"/>
<feColorMatrix in="SourceAlpha" type="matrix" values="0 0 0 0 0 0 0 0 0 0 0 0 0 0 0 0 0 0 127 0" result="hardAlpha"/>
<feOffset/>
<feGaussianBlur stdDeviation="3.82287"/>
<feComposite in2="hardAlpha" operator="out"/>
<feColorMatrix type="matrix" values="0 0 0 0 0 0 0 0 0 0 0 0 0 0 0 0 0 0 0.25 0"/>
<feBlend mode="normal" in2="BackgroundImageFix" result="effect1_dropShadow_5_2258"/>
<feBlend mode="normal" in="SourceGraphic" in2="effect1_dropShadow_5_2258" result="shape"/>
<feColorMatrix in="SourceAlpha" type="matrix" values="0 0 0 0 0 0 0 0 0 0 0 0 0 0 0 0 0 0 127 0" result="hardAlpha"/>
<feOffset/>
<feGaussianBlur stdDeviation="10.8238"/>
<feComposite in2="hardAlpha" operator="arithmetic" k2="-1" k3="1"/>
<feColorMatrix type="matrix" values="0 0 0 0 1 0 0 0 0 1 0 0 0 0 1 0 0 0 0.25 0"/>
<feBlend mode="normal" in2="shape" result="effect2_innerShadow_5_2258"/>
</filter>
<linearGradient id="paint0_linear_5_2258" x1="341.84" y1="268" x2="341.84" y2="323.845" gradientUnits="userSpaceOnUse">
<stop stop-color="white"/>
<stop offset="1" stop-color="#999999"/>
</linearGradient>
<linearGradient id="paint1_linear_5_2258" x1="341.751" y1="57" x2="341.751" y2="211.33" gradientUnits="userSpaceOnUse">
<stop stop-color="white"/>
<stop offset="1" stop-color="#999999"/>
</linearGradient>
<linearGradient id="paint2_linear_5_2258" x1="346.976" y1="296" x2="346.976" y2="453.12" gradientUnits="userSpaceOnUse">
<stop stop-color="white"/>
<stop offset="1" stop-color="#999999"/>
</linearGradient>
<linearGradient id="paint3_linear_5_2258" x1="346.471" y1="184" x2="346.471" y2="237.801" gradientUnits="userSpaceOnUse">
<stop stop-color="white"/>
<stop offset="1" stop-color="#999999"/>
</linearGradient>
<linearGradient id="paint4_linear_5_2258" x1="479" y1="241.5" x2="45.5" y2="245" gradientUnits="userSpaceOnUse">
<stop stop-color="#FF6A00"/>
<stop offset="1" stop-opacity="0"/>
</linearGradient>
<linearGradient id="paint5_linear_5_2258" x1="344.5" y1="44" x2="344.5" y2="488" gradientUnits="userSpaceOnUse">
<stop stop-color="white"/>
<stop offset="1" stop-color="#999999"/>
</linearGradient>
<linearGradient id="paint6_linear_5_2258" x1="27.5" y1="139.5" x2="135" y2="317" gradientUnits="userSpaceOnUse">
<stop stop-color="#474747"/>
<stop offset="1"/>
</linearGradient>
<linearGradient id="paint7_linear_5_2258" x1="477.046" y1="0.152654" x2="524.137" y2="77.9071" gradientUnits="userSpaceOnUse">
<stop stop-color="#474747"/>
<stop offset="1"/>
</linearGradient>
<linearGradient id="paint8_linear_5_2258" x1="477.046" y1="123.153" x2="524.137" y2="200.907" gradientUnits="userSpaceOnUse">
<stop stop-color="#474747"/>
<stop offset="1"/>
</linearGradient>
<linearGradient id="paint9_linear_5_2258" x1="477.046" y1="264.153" x2="524.137" y2="341.907" gradientUnits="userSpaceOnUse">
<stop stop-color="#474747"/>
<stop offset="1"/>
</linearGradient>
<linearGradient id="paint10_linear_5_2258" x1="477.046" y1="393.153" x2="524.137" y2="470.907" gradientUnits="userSpaceOnUse">
<stop stop-color="#474747"/>
<stop offset="1"/>
</linearGradient>
</defs>
</svg>
