<svg width="449" height="403" viewBox="0 0 449 403" fill="none" xmlns="http://www.w3.org/2000/svg">
<path d="M329.222 216.008C335.348 217.492 341.5 212.917 341.5 206.538V66.9998C341.5 61.753 337.247 57.4998 332 57.4998H16.0176C12.6711 57.4999 9.57965 59.2595 7.86816 62.1169L7.70703 62.3972L2.02148 72.6648C1.0366 74.4433 1.15427 76.6281 2.32422 78.2908L2.49023 78.5134C3.34545 79.5938 4.56663 80.2045 5.85352 80.5769C7.22215 80.9729 8.72548 81.1154 10.0449 81.24L10.3945 81.282C12.1495 81.5299 14.0249 82.3999 15.9619 83.7087C18.023 85.1014 20.1175 86.9653 22.1641 89.0251C26.2722 93.16 30.0963 97.9824 33.0811 101.302L33.3838 101.621C34.9508 103.189 37.3097 104.348 40.0264 105.214C42.9353 106.14 46.3144 106.748 49.71 107.142C56.5023 107.931 63.4243 107.873 66.918 107.77L67.2217 107.756C68.7391 107.657 70.1749 107.162 71.4902 106.463L72.3008 106.042C76.6634 103.824 85.6104 100.043 95.8838 100.043C99.3621 100.043 102.719 102.025 106.006 105.13C109.286 108.227 112.422 112.37 115.462 116.551C118.489 120.713 121.429 124.923 124.285 128.083C125.715 129.664 127.142 131.004 128.569 131.95C129.997 132.896 131.455 133.47 132.937 133.47C135.765 133.47 138.118 132.477 140.282 131.023C142.429 129.581 144.43 127.656 146.522 125.786C150.73 122.026 155.443 118.356 163.066 118.356C166.798 118.356 170.112 120.192 173.317 123.045C176.528 125.902 179.562 129.715 182.755 133.583C185.933 137.432 189.26 141.326 193.018 144.253C196.783 147.186 201.01 149.174 205.986 149.174C210.583 149.174 214.966 152.387 219.226 157.423C223.469 162.44 227.491 169.143 231.384 175.888C235.265 182.614 239.022 189.387 242.715 194.47C244.562 197.014 246.412 199.16 248.274 200.675C250.135 202.187 252.051 203.103 254.022 203.103C261.186 203.103 265.738 204.661 270.932 206.243C276.144 207.831 281.952 209.425 291.542 209.425C302.889 209.425 318.342 213.03 328.93 215.931L329.222 216.008Z" fill="url(#paint0_linear_5_2226)" stroke="url(#paint1_linear_5_2226)"/>
<line x1="246.852" y1="203.976" x2="249.024" y2="21.9762" stroke="url(#paint2_linear_5_2226)" stroke-width="4"/>
<g filter="url(#filter0_di_5_2226)">
<circle cx="4.5" cy="4.5" r="4.5" transform="matrix(1 0 0 -1 243 206)" fill="white"/>
<circle cx="4.5" cy="4.5" r="4.25" transform="matrix(1 0 0 -1 243 206)" stroke="white" stroke-width="0.5"/>
</g>
<path d="M12.496 178.488V172.488H26.08V178.488H12.496ZM41.6098 189.576C39.2738 189.576 36.9538 189.272 34.6498 188.664C32.3778 188.024 30.4258 187.128 28.7938 185.976L31.8658 180.024C33.1458 180.952 34.6178 181.688 36.2818 182.232C37.9778 182.776 39.6898 183.048 41.4178 183.048C43.3698 183.048 44.9058 182.664 46.0258 181.896C47.1458 181.128 47.7058 180.056 47.7058 178.68C47.7058 177.816 47.4818 177.048 47.0338 176.376C46.5858 175.704 45.7858 175.192 44.6338 174.84C43.5138 174.488 41.9298 174.312 39.8818 174.312H31.2898L33.0178 155.4H53.5138V161.64H35.8018L39.8338 158.088L38.6338 171.576L34.6018 168.024H41.7058C45.0338 168.024 47.7058 168.488 49.7218 169.416C51.7698 170.312 53.2578 171.544 54.1858 173.112C55.1138 174.68 55.5778 176.456 55.5778 178.44C55.5778 180.424 55.0818 182.264 54.0898 183.96C53.0978 185.624 51.5618 186.984 49.4818 188.04C47.4338 189.064 44.8098 189.576 41.6098 189.576ZM72.9308 189.576C70.1788 189.576 67.7148 188.904 65.5388 187.56C63.3628 186.184 61.6508 184.2 60.4028 181.608C59.1548 179.016 58.5308 175.88 58.5308 172.2C58.5308 168.52 59.1548 165.384 60.4028 162.792C61.6508 160.2 63.3628 158.232 65.5388 156.888C67.7148 155.512 70.1788 154.824 72.9308 154.824C75.7148 154.824 78.1788 155.512 80.3228 156.888C82.4988 158.232 84.2108 160.2 85.4588 162.792C86.7068 165.384 87.3308 168.52 87.3308 172.2C87.3308 175.88 86.7068 179.016 85.4588 181.608C84.2108 184.2 82.4988 186.184 80.3228 187.56C78.1788 188.904 75.7148 189.576 72.9308 189.576ZM72.9308 183C74.2428 183 75.3788 182.632 76.3388 181.896C77.3308 181.16 78.0988 179.992 78.6428 178.392C79.2188 176.792 79.5068 174.728 79.5068 172.2C79.5068 169.672 79.2188 167.608 78.6428 166.008C78.0988 164.408 77.3308 163.24 76.3388 162.504C75.3788 161.768 74.2428 161.4 72.9308 161.4C71.6508 161.4 70.5148 161.768 69.5228 162.504C68.5628 163.24 67.7948 164.408 67.2188 166.008C66.6748 167.608 66.4028 169.672 66.4028 172.2C66.4028 174.728 66.6748 176.792 67.2188 178.392C67.7948 179.992 68.5628 181.16 69.5228 181.896C70.5148 182.632 71.6508 183 72.9308 183ZM95.755 189L118.699 155.4H124.411L101.467 189H95.755ZM98.683 173.544C97.051 173.544 95.611 173.176 94.363 172.44C93.115 171.672 92.123 170.6 91.387 169.224C90.683 167.816 90.331 166.168 90.331 164.28C90.331 162.392 90.683 160.76 91.387 159.384C92.123 158.008 93.115 156.936 94.363 156.168C95.611 155.4 97.051 155.016 98.683 155.016C100.315 155.016 101.755 155.4 103.003 156.168C104.251 156.936 105.227 158.008 105.931 159.384C106.635 160.76 106.987 162.392 106.987 164.28C106.987 166.168 106.635 167.816 105.931 169.224C105.227 170.6 104.251 171.672 103.003 172.44C101.755 173.176 100.315 173.544 98.683 173.544ZM98.683 169.608C99.739 169.608 100.587 169.176 101.227 168.312C101.867 167.416 102.187 166.072 102.187 164.28C102.187 162.488 101.867 161.16 101.227 160.296C100.587 159.4 99.739 158.952 98.683 158.952C97.659 158.952 96.811 159.4 96.139 160.296C95.499 161.16 95.179 162.488 95.179 164.28C95.179 166.04 95.499 167.368 96.139 168.264C96.811 169.16 97.659 169.608 98.683 169.608ZM121.483 189.384C119.883 189.384 118.443 189.016 117.163 188.28C115.915 187.512 114.939 186.44 114.235 185.064C113.531 183.656 113.179 182.008 113.179 180.12C113.179 178.232 113.531 176.6 114.235 175.224C114.939 173.848 115.915 172.776 117.163 172.008C118.443 171.24 119.883 170.856 121.483 170.856C123.147 170.856 124.603 171.24 125.851 172.008C127.099 172.776 128.075 173.848 128.779 175.224C129.483 176.6 129.835 178.232 129.835 180.12C129.835 182.008 129.483 183.656 128.779 185.064C128.075 186.44 127.099 187.512 125.851 188.28C124.603 189.016 123.147 189.384 121.483 189.384ZM121.483 185.448C122.539 185.448 123.387 185.016 124.027 184.152C124.667 183.256 124.987 181.912 124.987 180.12C124.987 178.36 124.667 177.032 124.027 176.136C123.387 175.24 122.539 174.792 121.483 174.792C120.459 174.792 119.611 175.24 118.939 176.136C118.299 177 117.979 178.328 117.979 180.12C117.979 181.912 118.299 183.256 118.939 184.152C119.611 185.016 120.459 185.448 121.483 185.448Z" fill="#ECECEC"/>
<defs>
<filter id="filter0_di_5_2226" x="46.7" y="0.699753" width="401.6" height="401.6" filterUnits="userSpaceOnUse" color-interpolation-filters="sRGB">
<feFlood flood-opacity="0" result="BackgroundImageFix"/>
<feColorMatrix in="SourceAlpha" type="matrix" values="0 0 0 0 0 0 0 0 0 0 0 0 0 0 0 0 0 0 127 0" result="hardAlpha"/>
<feMorphology radius="80" operator="dilate" in="SourceAlpha" result="effect1_dropShadow_5_2226"/>
<feOffset/>
<feGaussianBlur stdDeviation="58.15"/>
<feComposite in2="hardAlpha" operator="out"/>
<feColorMatrix type="matrix" values="0 0 0 0 1 0 0 0 0 0.416667 0 0 0 0 0 0 0 0 0.67 0"/>
<feBlend mode="plus-lighter" in2="BackgroundImageFix" result="effect1_dropShadow_5_2226"/>
<feBlend mode="normal" in="SourceGraphic" in2="effect1_dropShadow_5_2226" result="shape"/>
<feColorMatrix in="SourceAlpha" type="matrix" values="0 0 0 0 0 0 0 0 0 0 0 0 0 0 0 0 0 0 127 0" result="hardAlpha"/>
<feMorphology radius="5" operator="erode" in="SourceAlpha" result="effect2_innerShadow_5_2226"/>
<feOffset dx="1" dy="3"/>
<feGaussianBlur stdDeviation="18.3"/>
<feComposite in2="hardAlpha" operator="arithmetic" k2="-1" k3="1"/>
<feColorMatrix type="matrix" values="0 0 0 0 0.956863 0 0 0 0 0.564706 0 0 0 0 0.145098 0 0 0 1 0"/>
<feBlend mode="plus-lighter" in2="shape" result="effect2_innerShadow_5_2226"/>
</filter>
<linearGradient id="paint0_linear_5_2226" x1="120.147" y1="191.936" x2="255.865" y2="-3.34234" gradientUnits="userSpaceOnUse">
<stop stop-color="#C8C8C8"/>
<stop offset="0.841" stop-opacity="0"/>
</linearGradient>
<linearGradient id="paint1_linear_5_2226" x1="220.483" y1="151.439" x2="249.42" y2="113.664" gradientUnits="userSpaceOnUse">
<stop stop-color="white"/>
<stop offset="1" stop-color="#343434" stop-opacity="0"/>
</linearGradient>
<linearGradient id="paint2_linear_5_2226" x1="249.439" y1="204.007" x2="251.713" y2="203.931" gradientUnits="userSpaceOnUse">
<stop stop-color="white"/>
<stop offset="1" stop-opacity="0"/>
</linearGradient>
</defs>
</svg>
