<svg width="766" height="671" viewBox="0 0 766 671" fill="none" xmlns="http://www.w3.org/2000/svg">
<path d="M33.728 220.768C30.6133 220.768 27.52 220.363 24.448 219.552C21.4187 218.699 18.816 217.504 16.64 215.968L20.736 208.032C22.4427 209.269 24.4053 210.251 26.624 210.976C28.8853 211.701 31.168 212.064 33.472 212.064C36.0747 212.064 38.1227 211.552 39.616 210.528C41.1093 209.504 41.856 208.075 41.856 206.24C41.856 205.088 41.5573 204.064 40.96 203.168C40.3627 202.272 39.296 201.589 37.76 201.12C36.2667 200.651 34.1547 200.416 31.424 200.416H19.968L22.272 175.2H49.6V183.52H25.984L31.36 178.784L29.76 196.768L24.384 192.032H33.856C38.2933 192.032 41.856 192.651 44.544 193.888C47.2747 195.083 49.2587 196.725 50.496 198.816C51.7333 200.907 52.352 203.275 52.352 205.92C52.352 208.565 51.6907 211.019 50.368 213.28C49.0453 215.499 46.9973 217.312 44.224 218.72C41.4933 220.085 37.9947 220.768 33.728 220.768ZM75.5566 220.768C71.8873 220.768 68.602 219.872 65.7006 218.08C62.7993 216.245 60.5166 213.6 58.8526 210.144C57.1886 206.688 56.3566 202.507 56.3566 197.6C56.3566 192.693 57.1886 188.512 58.8526 185.056C60.5166 181.6 62.7993 178.976 65.7006 177.184C68.602 175.349 71.8873 174.432 75.5566 174.432C79.2686 174.432 82.554 175.349 85.4126 177.184C88.314 178.976 90.5966 181.6 92.2606 185.056C93.9246 188.512 94.7566 192.693 94.7566 197.6C94.7566 202.507 93.9246 206.688 92.2606 210.144C90.5966 213.6 88.314 216.245 85.4126 218.08C82.554 219.872 79.2686 220.768 75.5566 220.768ZM75.5566 212C77.306 212 78.8206 211.509 80.1006 210.528C81.4233 209.547 82.4473 207.989 83.1726 205.856C83.9406 203.723 84.3246 200.971 84.3246 197.6C84.3246 194.229 83.9406 191.477 83.1726 189.344C82.4473 187.211 81.4233 185.653 80.1006 184.672C78.8206 183.691 77.306 183.2 75.5566 183.2C73.85 183.2 72.3353 183.691 71.0126 184.672C69.7326 185.653 68.7086 187.211 67.9406 189.344C67.2153 191.477 66.8526 194.229 66.8526 197.6C66.8526 200.971 67.2153 203.723 67.9406 205.856C68.7086 207.989 69.7326 209.547 71.0126 210.528C72.3353 211.509 73.85 212 75.5566 212ZM96.7273 220L112.151 199.776L111.959 205.28L97.1753 185.568H108.375L117.719 198.432L113.495 198.56L123.159 185.568H133.783L118.935 205.088V199.712L134.295 220H122.967L113.175 206.304L117.335 206.88L107.607 220H96.7273ZM157.567 220V175.2H179.455C185.087 175.2 189.311 176.267 192.127 178.4C194.986 180.533 196.415 183.349 196.415 186.848C196.415 189.195 195.839 191.243 194.687 192.992C193.535 194.699 191.956 196.021 189.951 196.96C187.946 197.899 185.642 198.368 183.039 198.368L184.255 195.744C187.071 195.744 189.567 196.213 191.743 197.152C193.919 198.048 195.604 199.392 196.799 201.184C198.036 202.976 198.655 205.173 198.655 207.776C198.655 211.616 197.14 214.624 194.111 216.8C191.082 218.933 186.623 220 180.735 220H157.567ZM167.871 212.192H179.967C182.655 212.192 184.682 211.765 186.047 210.912C187.455 210.016 188.159 208.608 188.159 206.688C188.159 204.811 187.455 203.424 186.047 202.528C184.682 201.589 182.655 201.12 179.967 201.12H167.103V193.568H178.175C180.692 193.568 182.612 193.141 183.935 192.288C185.3 191.392 185.983 190.048 185.983 188.256C185.983 186.507 185.3 185.205 183.935 184.352C182.612 183.456 180.692 183.008 178.175 183.008H167.871V212.192ZM221.983 220.512C218.313 220.512 215.049 219.744 212.191 218.208C209.375 216.672 207.135 214.581 205.471 211.936C203.849 209.248 203.039 206.197 203.039 202.784C203.039 199.328 203.849 196.277 205.471 193.632C207.135 190.944 209.375 188.853 212.191 187.36C215.049 185.824 218.313 185.056 221.983 185.056C225.609 185.056 228.852 185.824 231.711 187.36C234.569 188.853 236.809 190.923 238.431 193.568C240.052 196.213 240.863 199.285 240.863 202.784C240.863 206.197 240.052 209.248 238.431 211.936C236.809 214.581 234.569 216.672 231.711 218.208C228.852 219.744 225.609 220.512 221.983 220.512ZM221.983 212.32C223.647 212.32 225.14 211.936 226.463 211.168C227.785 210.4 228.831 209.312 229.599 207.904C230.367 206.453 230.751 204.747 230.751 202.784C230.751 200.779 230.367 199.072 229.599 197.664C228.831 196.256 227.785 195.168 226.463 194.4C225.14 193.632 223.647 193.248 221.983 193.248C220.319 193.248 218.825 193.632 217.503 194.4C216.18 195.168 215.113 196.256 214.303 197.664C213.535 199.072 213.151 200.779 213.151 202.784C213.151 204.747 213.535 206.453 214.303 207.904C215.113 209.312 216.18 210.4 217.503 211.168C218.825 211.936 220.319 212.32 221.983 212.32ZM263.718 220.512C260.049 220.512 256.785 219.744 253.926 218.208C251.11 216.672 248.87 214.581 247.206 211.936C245.585 209.248 244.774 206.197 244.774 202.784C244.774 199.328 245.585 196.277 247.206 193.632C248.87 190.944 251.11 188.853 253.926 187.36C256.785 185.824 260.049 185.056 263.718 185.056C267.345 185.056 270.588 185.824 273.446 187.36C276.305 188.853 278.545 190.923 280.166 193.568C281.788 196.213 282.598 199.285 282.598 202.784C282.598 206.197 281.788 209.248 280.166 211.936C278.545 214.581 276.305 216.672 273.446 218.208C270.588 219.744 267.345 220.512 263.718 220.512ZM263.718 212.32C265.382 212.32 266.876 211.936 268.198 211.168C269.521 210.4 270.566 209.312 271.334 207.904C272.102 206.453 272.486 204.747 272.486 202.784C272.486 200.779 272.102 199.072 271.334 197.664C270.566 196.256 269.521 195.168 268.198 194.4C266.876 193.632 265.382 193.248 263.718 193.248C262.054 193.248 260.561 193.632 259.238 194.4C257.916 195.168 256.849 196.256 256.038 197.664C255.27 199.072 254.886 200.779 254.886 202.784C254.886 204.747 255.27 206.453 256.038 207.904C256.849 209.312 257.916 210.4 259.238 211.168C260.561 211.936 262.054 212.32 263.718 212.32ZM300.654 220.512C297.71 220.512 294.873 220.171 292.142 219.488C289.454 218.763 287.321 217.867 285.742 216.8L289.07 209.632C290.649 210.613 292.505 211.424 294.638 212.064C296.814 212.661 298.947 212.96 301.038 212.96C303.342 212.96 304.963 212.683 305.902 212.128C306.883 211.573 307.374 210.805 307.374 209.824C307.374 209.013 306.99 208.416 306.222 208.032C305.497 207.605 304.515 207.285 303.278 207.072C302.041 206.859 300.675 206.645 299.182 206.432C297.731 206.219 296.259 205.941 294.766 205.6C293.273 205.216 291.907 204.661 290.67 203.936C289.433 203.211 288.43 202.229 287.662 200.992C286.937 199.755 286.574 198.155 286.574 196.192C286.574 194.016 287.193 192.096 288.43 190.432C289.71 188.768 291.545 187.467 293.934 186.528C296.323 185.547 299.182 185.056 302.51 185.056C304.857 185.056 307.246 185.312 309.678 185.824C312.11 186.336 314.137 187.083 315.758 188.064L312.43 195.168C310.766 194.187 309.081 193.525 307.374 193.184C305.71 192.8 304.089 192.608 302.51 192.608C300.291 192.608 298.67 192.907 297.646 193.504C296.622 194.101 296.11 194.869 296.11 195.808C296.11 196.661 296.473 197.301 297.198 197.728C297.966 198.155 298.969 198.496 300.206 198.752C301.443 199.008 302.787 199.243 304.238 199.456C305.731 199.627 307.225 199.904 308.718 200.288C310.211 200.672 311.555 201.227 312.75 201.952C313.987 202.635 314.99 203.595 315.758 204.832C316.526 206.027 316.91 207.605 316.91 209.568C316.91 211.701 316.27 213.6 314.99 215.264C313.71 216.885 311.854 218.165 309.422 219.104C307.033 220.043 304.11 220.512 300.654 220.512ZM336.948 220.512C332.895 220.512 329.737 219.488 327.476 217.44C325.215 215.349 324.084 212.256 324.084 208.16V177.952H334.068V208.032C334.068 209.483 334.452 210.613 335.22 211.424C335.988 212.192 337.033 212.576 338.356 212.576C339.935 212.576 341.279 212.149 342.388 211.296L345.076 218.336C344.052 219.061 342.815 219.616 341.364 220C339.956 220.341 338.484 220.512 336.948 220.512ZM318.772 194.016V186.336H342.644V194.016H318.772Z" fill="#ECECEC"/>
<path d="M13.7173 591.803L12.7254 590.782L12.1012 592.062L2.10123 612.562L1.91057 612.952L2.06644 613.358L23.5664 669.358L23.8128 670H24.5H755.5H756.5V669V155V153.414L755.069 154.098L755.5 155C755.069 154.098 755.069 154.098 755.068 154.098L755.066 154.099L755.057 154.103L755.022 154.12L754.878 154.188C754.751 154.249 754.56 154.338 754.31 154.456C753.809 154.69 753.068 155.034 752.109 155.473C750.192 156.35 747.404 157.603 743.927 159.108C736.971 162.118 727.259 166.13 716.233 170.142C694.145 178.181 666.923 186.164 646.039 186.164C624.768 186.164 611.883 191.268 600.342 196.34C599.564 196.682 598.793 197.023 598.026 197.362C587.453 202.043 577.731 206.346 562.999 206.346C558.533 206.346 554.277 209.329 550.213 214.095C546.121 218.894 542.051 225.704 537.974 233.798C530.991 247.665 523.902 265.484 516.609 283.816C515.386 286.889 514.158 289.976 512.923 293.062C504.309 314.593 495.39 336.046 485.968 352.112C481.256 360.146 476.45 366.779 471.533 371.393C466.614 376.009 461.677 378.52 456.683 378.52C445.57 378.52 436.198 384.917 427.912 394.228C419.625 403.541 412.284 415.929 405.252 428.216C404.506 429.52 403.764 430.822 403.024 432.12C396.766 443.098 390.702 453.733 384.326 461.918C377.17 471.104 369.843 476.906 361.691 476.906C344.926 476.906 334.503 465.25 325.129 453.167C324.277 452.069 323.434 450.967 322.594 449.87C318.858 444.989 315.209 440.221 311.342 436.475C306.587 431.868 301.356 428.654 295.008 428.654C291.64 428.654 288.388 430.528 285.262 433.517C282.123 436.519 278.983 440.769 275.832 445.798C270.495 454.313 265.026 465.228 259.401 476.454C258.384 478.484 257.362 480.525 256.334 482.563C249.604 495.911 242.644 509.178 235.357 519.106C231.714 524.068 228.021 528.152 224.271 530.989C220.524 533.824 216.777 535.372 213 535.372C196.991 535.372 182.416 529.365 171.808 523.317C166.51 520.297 162.22 517.277 159.255 515.013C157.774 513.882 156.624 512.94 155.848 512.284C155.46 511.955 155.165 511.698 154.968 511.524C154.869 511.437 154.795 511.371 154.747 511.327L154.693 511.278L154.68 511.267L154.677 511.264L154.677 511.264L154.425 511.033L154.085 511.004L154 512C154.085 511.004 154.084 511.004 154.084 511.004L154.081 511.003L154.072 511.003L154.036 511L153.896 510.988C153.773 510.979 153.591 510.965 153.355 510.948C152.881 510.914 152.187 510.868 151.299 510.819C149.522 510.72 146.97 510.606 143.859 510.55C137.639 510.437 129.175 510.55 120.21 511.457C111.252 512.362 101.754 514.064 93.4829 517.146C85.2254 520.224 78.0759 524.721 73.9778 531.294C71.7581 534.855 69.3174 538.977 66.7089 543.382C60.0132 554.69 52.2122 567.865 44.2078 578.199C38.6424 585.385 33.081 591.054 27.8444 593.767C25.243 595.115 22.782 595.702 20.471 595.439C18.1746 595.177 15.9128 594.064 13.7173 591.803Z" fill="url(#paint0_linear_3744_572)" stroke="url(#paint1_linear_3744_572)" stroke-width="2"/>
<line x1="558" y1="205" x2="558" y2="570.193" stroke="url(#paint2_linear_3744_572)" stroke-width="4"/>
<g filter="url(#filter0_di_3744_572)">
<ellipse cx="555.84" cy="211.145" rx="13.8399" ry="14.1448" fill="#F06400"/>
<path d="M568.68 211.145C568.68 218.425 562.911 224.29 555.84 224.29C548.769 224.29 543 218.425 543 211.145C543 203.864 548.769 198 555.84 198C562.911 198 568.68 203.864 568.68 211.145Z" stroke="#FF9900" stroke-width="2"/>
</g>
<defs>
<filter id="filter0_di_3744_572" x="345.7" y="0.699997" width="420.28" height="420.89" filterUnits="userSpaceOnUse" color-interpolation-filters="sRGB">
<feFlood flood-opacity="0" result="BackgroundImageFix"/>
<feColorMatrix in="SourceAlpha" type="matrix" values="0 0 0 0 0 0 0 0 0 0 0 0 0 0 0 0 0 0 127 0" result="hardAlpha"/>
<feMorphology radius="80" operator="dilate" in="SourceAlpha" result="effect1_dropShadow_3744_572"/>
<feOffset/>
<feGaussianBlur stdDeviation="58.15"/>
<feComposite in2="hardAlpha" operator="out"/>
<feColorMatrix type="matrix" values="0 0 0 0 1 0 0 0 0 0.416667 0 0 0 0 0 0 0 0 1 0"/>
<feBlend mode="plus-lighter" in2="BackgroundImageFix" result="effect1_dropShadow_3744_572"/>
<feBlend mode="normal" in="SourceGraphic" in2="effect1_dropShadow_3744_572" result="shape"/>
<feColorMatrix in="SourceAlpha" type="matrix" values="0 0 0 0 0 0 0 0 0 0 0 0 0 0 0 0 0 0 127 0" result="hardAlpha"/>
<feMorphology radius="5" operator="erode" in="SourceAlpha" result="effect2_innerShadow_3744_572"/>
<feOffset dx="1" dy="3"/>
<feGaussianBlur stdDeviation="18.3"/>
<feComposite in2="hardAlpha" operator="arithmetic" k2="-1" k3="1"/>
<feColorMatrix type="matrix" values="0 0 0 0 0.956863 0 0 0 0 0.564706 0 0 0 0 0.145098 0 0 0 1 0"/>
<feBlend mode="plus-lighter" in2="shape" result="effect2_innerShadow_3744_572"/>
</filter>
<linearGradient id="paint0_linear_3744_572" x1="266.7" y1="241.402" x2="728.983" y2="702.522" gradientUnits="userSpaceOnUse">
<stop stop-color="#FF6A00"/>
<stop offset="0.841" stop-opacity="0"/>
</linearGradient>
<linearGradient id="paint1_linear_3744_572" x1="488.768" y1="370.691" x2="583.976" y2="456.854" gradientUnits="userSpaceOnUse">
<stop stop-color="#FFA600"/>
<stop offset="1" stop-color="#994D00" stop-opacity="0"/>
</linearGradient>
<linearGradient id="paint2_linear_3744_572" x1="555.412" y1="205" x2="553.136" y2="205.052" gradientUnits="userSpaceOnUse">
<stop stop-color="#FFF700"/>
<stop offset="1" stop-opacity="0"/>
</linearGradient>
</defs>
</svg>
