<svg width="586" height="369" viewBox="0 0 586 369" fill="none" xmlns="http://www.w3.org/2000/svg">
<path d="M586 58.2539C585.57 57.3512 585.57 57.3512 585.569 57.3514L585.568 57.3522L585.561 57.3554L585.533 57.3689L585.419 57.4227C585.318 57.4704 585.167 57.5414 584.968 57.6342C584.57 57.8198 583.982 58.0925 583.221 58.4398C581.698 59.1346 579.483 60.1278 576.721 61.3201C571.195 63.7051 563.479 66.8848 554.721 70.0639C537.167 76.436 515.56 82.7539 499 82.7539C482.054 82.7539 471.783 86.8118 462.598 90.838C461.981 91.1087 461.369 91.3789 460.761 91.6474C452.356 95.3581 444.665 98.7539 433 98.7539C429.358 98.7539 425.923 101.178 422.682 104.969C419.414 108.793 416.17 114.209 412.928 120.631C407.373 131.634 401.734 145.77 395.938 160.303C394.966 162.739 393.99 165.186 393.009 167.632C386.162 184.704 379.078 201.697 371.599 214.419C367.859 220.78 364.05 226.02 360.163 229.659C356.274 233.299 352.397 235.254 348.5 235.254C339.582 235.254 332.082 240.375 325.48 247.776C318.877 255.178 313.033 265.017 307.445 274.756C306.852 275.79 306.262 276.822 305.674 277.85C300.698 286.556 295.887 294.974 290.829 301.451C285.148 308.725 279.378 313.254 273 313.254C259.784 313.254 251.555 304.096 244.102 294.513C243.427 293.646 242.758 292.774 242.092 291.906C239.122 288.035 236.21 284.24 233.125 281.258C229.328 277.589 225.121 275 220 275C214.691 275 210.744 278.888 207.609 284.161C204.454 289.467 201.924 296.503 199.554 303.426C199.273 304.247 198.994 305.067 198.716 305.882C196.637 311.992 194.641 317.858 192.386 322.382C191.11 324.942 189.785 327 188.369 328.406C186.966 329.8 185.533 330.5 184 330.5C180.551 330.5 177.161 328.916 173.688 326.598C171.959 325.444 170.24 324.13 168.505 322.775C168.174 322.517 167.841 322.256 167.508 321.995C166.107 320.896 164.692 319.788 163.277 318.755C159.79 316.21 156.139 314.003 152.297 313.425C148.368 312.835 144.383 313.966 140.317 317.77C136.629 321.219 129.684 324.135 120.921 326.866C114.228 328.951 106.604 330.893 98.7737 332.888C96.4025 333.492 94.0126 334.1 91.6238 334.719C81.3741 337.376 71.1593 340.218 62.7158 343.66C54.3179 347.083 47.4569 351.181 44.1515 356.47C42.3481 359.355 41.9597 362.761 42.5167 366.369C43.0724 369.968 44.5767 373.83 46.6421 377.724C50.6363 385.255 56.825 393.081 62.7483 399.63L62.7468 399.632L4.25434 465.088L2.76528 466.754H5H586H587V465.754V58.2539V56.6695L585.57 57.3512L586 58.2539Z" fill="url(#paint0_linear_3672_494)" stroke="url(#paint1_linear_3672_494)" stroke-width="2"/>
<line x1="428" y1="106.254" x2="428" y2="390.254" stroke="url(#paint2_linear_3672_494)" stroke-width="4"/>
<g filter="url(#filter0_i_3672_494)">
<circle cx="427" cy="103.254" r="11" fill="#F06400"/>
</g>
<circle cx="427" cy="103.254" r="10" stroke="#FF9900" stroke-width="2"/>
<g filter="url(#filter1_b_3672_494)">
<path d="M146 30.6841C146 13.7378 159.738 0 176.684 0H358.883C375.829 0 389.567 13.7378 389.567 30.6841V98.2773C389.567 115.224 375.829 128.961 358.883 128.961H176.684C159.738 128.961 146 115.224 146 98.2773V30.6841Z" fill="#FF9A35" fill-opacity="0.2"/>
<path d="M176.684 0.635669H358.883C375.478 0.635669 388.931 14.0888 388.931 30.6841V98.2773C388.931 114.873 375.478 128.326 358.883 128.326H176.684C160.089 128.326 146.636 114.873 146.636 98.2773V30.6841C146.636 14.0888 160.089 0.635669 176.684 0.635669Z" stroke="#FF9A35" stroke-width="1.27134"/>
<path d="M245.862 35.4961H219.678V47.0776C220.797 45.8467 222.364 44.8396 224.378 44.0564C226.392 43.2731 228.574 42.8814 230.924 42.8814C235.12 42.8814 238.589 43.8326 241.331 45.7348C244.128 47.6371 246.17 50.0989 247.457 53.1201C248.744 56.1414 249.387 59.4144 249.387 62.9392C249.387 69.4853 247.541 74.6885 243.848 78.549C240.156 82.3536 234.952 84.2559 228.238 84.2559C223.762 84.2559 219.874 83.5005 216.573 81.9899C213.272 80.4233 210.726 78.2693 208.936 75.5278C207.146 72.7863 206.166 69.6251 205.999 66.0444H220.014C220.35 67.7788 221.161 69.2335 222.448 70.4084C223.734 71.5274 225.497 72.0869 227.735 72.0869C230.364 72.0869 232.323 71.2477 233.61 69.5692C234.896 67.8907 235.54 65.6527 235.54 62.8553C235.54 60.1138 234.868 58.0157 233.526 56.561C232.183 55.1063 230.225 54.379 227.651 54.379C225.749 54.379 224.182 54.8546 222.951 55.8057C221.72 56.7009 220.909 57.9038 220.517 59.4144H206.67V22.9076H245.862V35.4961ZM257.309 52.7844C257.309 43.1612 259.155 35.5801 262.848 30.0411C266.596 24.5021 272.611 21.7326 280.891 21.7326C289.172 21.7326 295.158 24.5021 298.851 30.0411C302.6 35.5801 304.474 43.1612 304.474 52.7844C304.474 62.5196 302.6 70.1567 298.851 75.6956C295.158 81.2346 289.172 84.0041 280.891 84.0041C272.611 84.0041 266.596 81.2346 262.848 75.6956C259.155 70.1567 257.309 62.5196 257.309 52.7844ZM290.375 52.7844C290.375 47.1336 289.759 42.7975 288.528 39.7762C287.298 36.699 284.752 35.1604 280.891 35.1604C277.031 35.1604 274.485 36.699 273.254 39.7762C272.023 42.7975 271.408 47.1336 271.408 52.7844C271.408 56.589 271.632 59.7501 272.079 62.2678C272.527 64.7296 273.422 66.7438 274.765 68.3103C276.164 69.821 278.206 70.5763 280.891 70.5763C283.577 70.5763 285.591 69.821 286.934 68.3103C288.333 66.7438 289.256 64.7296 289.703 62.2678C290.151 59.7501 290.375 56.589 290.375 52.7844ZM341.178 84.2559L332.198 71.2477L324.645 84.2559H309.119L324.561 60.3376L308.699 37.4264H324.812L333.792 50.3506L341.345 37.4264H356.871L341.178 61.009L357.291 84.2559H341.178Z" fill="white"/>
<path d="M181.917 111.836C181.423 111.836 180.981 111.745 180.591 111.563C180.209 111.381 179.906 111.116 179.681 110.77C179.464 110.423 179.356 109.994 179.356 109.483V109.028H180.63V109.405C180.63 109.881 180.76 110.228 181.02 110.445C181.288 110.661 181.618 110.77 182.008 110.77C182.389 110.77 182.714 110.661 182.983 110.445C183.251 110.219 183.386 109.873 183.386 109.405V102.788H184.751V109.483C184.751 110.003 184.629 110.436 184.387 110.783C184.153 111.129 183.836 111.394 183.438 111.576C183.039 111.749 182.588 111.836 182.086 111.836H181.917ZM188.62 111.836C187.909 111.836 187.337 111.636 186.904 111.238C186.479 110.839 186.267 110.237 186.267 109.431V105.063H187.58V109.184C187.58 109.738 187.705 110.15 187.957 110.419C188.217 110.687 188.576 110.822 189.036 110.822C189.339 110.822 189.608 110.748 189.842 110.601C190.084 110.445 190.271 110.237 190.401 109.977C190.539 109.717 190.609 109.426 190.609 109.106V105.063H191.909V110.51C191.909 110.648 191.939 110.748 192 110.809C192.06 110.869 192.151 110.9 192.273 110.9C192.359 110.9 192.446 110.891 192.533 110.874C192.619 110.856 192.71 110.813 192.806 110.744V111.589C192.693 111.667 192.55 111.727 192.377 111.771C192.212 111.814 192.043 111.836 191.87 111.836C191.558 111.836 191.319 111.792 191.155 111.706C190.999 111.61 190.89 111.48 190.83 111.316C190.778 111.151 190.743 110.965 190.726 110.757C190.596 110.991 190.431 111.19 190.232 111.355C190.032 111.511 189.798 111.628 189.53 111.706C189.261 111.792 188.958 111.836 188.62 111.836ZM193.555 111.706V105.063H194.608L194.738 106.012C194.937 105.639 195.219 105.366 195.583 105.193C195.947 105.019 196.35 104.933 196.792 104.933C197.52 104.933 198.1 105.136 198.534 105.544C198.967 105.951 199.184 106.553 199.184 107.351V111.706H197.884V107.728C197.884 107.104 197.754 106.649 197.494 106.363C197.242 106.077 196.887 105.934 196.428 105.934C196.107 105.934 195.83 106.016 195.596 106.181C195.362 106.337 195.18 106.558 195.05 106.844C194.92 107.121 194.855 107.442 194.855 107.806V111.706H193.555ZM209.027 111.706C209.027 110.926 209.123 110.176 209.313 109.457C209.504 108.729 209.755 108.04 210.067 107.39C210.388 106.731 210.735 106.12 211.107 105.557C211.489 104.985 211.866 104.465 212.238 103.997H207.597V102.788H213.889V103.438C213.369 104.079 212.893 104.729 212.459 105.388C212.026 106.046 211.658 106.718 211.354 107.403C211.06 108.087 210.839 108.789 210.691 109.509C210.544 110.219 210.492 110.952 210.535 111.706H209.027ZM216.978 113.591V113.422C217.212 113.153 217.39 112.876 217.511 112.59C217.633 112.304 217.693 112.009 217.693 111.706H217.03V109.938H218.512V111.459C218.512 111.84 218.447 112.213 218.317 112.577C218.196 112.949 218.01 113.287 217.758 113.591H216.978ZM221.796 111.706V111.316C221.796 110.778 221.896 110.319 222.095 109.938C222.295 109.548 222.607 109.21 223.031 108.924L225.644 107.208C225.922 107.017 226.16 106.774 226.359 106.48C226.567 106.176 226.671 105.821 226.671 105.414C226.671 104.911 226.524 104.508 226.229 104.205C225.935 103.901 225.501 103.75 224.929 103.75C224.583 103.75 224.271 103.828 223.993 103.984C223.725 104.131 223.508 104.339 223.343 104.608C223.187 104.868 223.109 105.167 223.109 105.505C223.109 105.574 223.109 105.639 223.109 105.7C223.109 105.752 223.114 105.804 223.122 105.856H221.887C221.879 105.795 221.874 105.752 221.874 105.726C221.874 105.691 221.874 105.656 221.874 105.622C221.874 105.041 222.004 104.53 222.264 104.088C222.524 103.637 222.884 103.286 223.343 103.035C223.811 102.783 224.344 102.658 224.942 102.658H225.085C225.683 102.658 226.199 102.775 226.632 103.009C227.074 103.234 227.412 103.55 227.646 103.958C227.889 104.365 228.01 104.837 228.01 105.375C228.01 105.825 227.932 106.22 227.776 106.558C227.629 106.887 227.425 107.177 227.165 107.429C226.914 107.68 226.628 107.914 226.307 108.131L224.11 109.561C223.92 109.691 223.772 109.816 223.668 109.938C223.564 110.05 223.491 110.159 223.447 110.263C223.404 110.367 223.374 110.466 223.356 110.562H228.049V111.706H221.796ZM231.931 111.836C231.376 111.836 230.874 111.71 230.423 111.459C229.972 111.199 229.617 110.843 229.357 110.393C229.097 109.942 228.967 109.422 228.967 108.833V105.661C228.967 105.071 229.097 104.551 229.357 104.101C229.626 103.65 229.985 103.299 230.436 103.048C230.895 102.788 231.407 102.658 231.97 102.658H232.204C232.776 102.658 233.283 102.788 233.725 103.048C234.167 103.299 234.514 103.65 234.765 104.101C235.025 104.551 235.155 105.071 235.155 105.661V108.833C235.155 109.422 235.025 109.942 234.765 110.393C234.505 110.843 234.15 111.199 233.699 111.459C233.248 111.71 232.741 111.836 232.178 111.836H231.931ZM232.061 110.796C232.399 110.796 232.702 110.718 232.971 110.562C233.24 110.397 233.448 110.18 233.595 109.912C233.751 109.643 233.829 109.34 233.829 109.002V105.492C233.829 105.145 233.751 104.837 233.595 104.569C233.448 104.3 233.24 104.088 232.971 103.932C232.702 103.776 232.399 103.698 232.061 103.698C231.723 103.698 231.42 103.776 231.151 103.932C230.891 104.088 230.683 104.3 230.527 104.569C230.371 104.837 230.293 105.145 230.293 105.492V109.002C230.293 109.34 230.371 109.643 230.527 109.912C230.683 110.18 230.891 110.397 231.151 110.562C231.42 110.718 231.723 110.796 232.061 110.796ZM236.086 111.706V111.316C236.086 110.778 236.186 110.319 236.385 109.938C236.584 109.548 236.896 109.21 237.321 108.924L239.934 107.208C240.211 107.017 240.45 106.774 240.649 106.48C240.857 106.176 240.961 105.821 240.961 105.414C240.961 104.911 240.814 104.508 240.519 104.205C240.224 103.901 239.791 103.75 239.219 103.75C238.872 103.75 238.56 103.828 238.283 103.984C238.014 104.131 237.798 104.339 237.633 104.608C237.477 104.868 237.399 105.167 237.399 105.505C237.399 105.574 237.399 105.639 237.399 105.7C237.399 105.752 237.403 105.804 237.412 105.856H236.177C236.168 105.795 236.164 105.752 236.164 105.726C236.164 105.691 236.164 105.656 236.164 105.622C236.164 105.041 236.294 104.53 236.554 104.088C236.814 103.637 237.174 103.286 237.633 103.035C238.101 102.783 238.634 102.658 239.232 102.658H239.375C239.973 102.658 240.489 102.775 240.922 103.009C241.364 103.234 241.702 103.55 241.936 103.958C242.179 104.365 242.3 104.837 242.3 105.375C242.3 105.825 242.222 106.22 242.066 106.558C241.919 106.887 241.715 107.177 241.455 107.429C241.204 107.68 240.918 107.914 240.597 108.131L238.4 109.561C238.209 109.691 238.062 109.816 237.958 109.938C237.854 110.05 237.78 110.159 237.737 110.263C237.694 110.367 237.663 110.466 237.646 110.562H242.339V111.706H236.086ZM246.143 111.836C245.528 111.836 244.986 111.727 244.518 111.511C244.059 111.294 243.699 110.995 243.439 110.614C243.179 110.232 243.049 109.799 243.049 109.314V109.08H244.271C244.271 109.678 244.444 110.111 244.791 110.38C245.138 110.648 245.606 110.783 246.195 110.783C246.767 110.783 247.235 110.653 247.599 110.393C247.963 110.124 248.145 109.725 248.145 109.197C248.145 108.833 248.058 108.534 247.885 108.3C247.72 108.066 247.499 107.897 247.222 107.793C246.945 107.68 246.641 107.624 246.312 107.624H245.194V106.675H246.195C246.516 106.675 246.806 106.618 247.066 106.506C247.335 106.393 247.547 106.228 247.703 106.012C247.868 105.786 247.95 105.509 247.95 105.18C247.95 104.85 247.872 104.577 247.716 104.361C247.56 104.144 247.348 103.984 247.079 103.88C246.819 103.776 246.524 103.724 246.195 103.724C245.649 103.724 245.22 103.858 244.908 104.127C244.605 104.395 244.453 104.785 244.453 105.297H243.27V105.076C243.27 104.582 243.396 104.157 243.647 103.802C243.907 103.438 244.258 103.156 244.7 102.957C245.142 102.757 245.64 102.658 246.195 102.658H246.364C246.91 102.658 247.4 102.757 247.833 102.957C248.266 103.147 248.609 103.425 248.86 103.789C249.12 104.144 249.25 104.569 249.25 105.063C249.25 105.409 249.189 105.708 249.068 105.96C248.947 106.211 248.782 106.423 248.574 106.597C248.366 106.77 248.128 106.922 247.859 107.052V107.117C248.327 107.264 248.708 107.52 249.003 107.884C249.306 108.248 249.458 108.724 249.458 109.314C249.458 109.816 249.324 110.258 249.055 110.64C248.795 111.012 248.431 111.307 247.963 111.524C247.495 111.732 246.962 111.836 246.364 111.836H246.143ZM252.703 113.591V113.422C252.937 113.153 253.115 112.876 253.236 112.59C253.357 112.304 253.418 112.009 253.418 111.706H252.755V109.938H254.237V111.459C254.237 111.84 254.172 112.213 254.042 112.577C253.921 112.949 253.734 113.287 253.483 113.591H252.703ZM264.978 111.706V110.627H267.331V104.296H264.978V103.503C265.264 103.477 265.58 103.429 265.927 103.36C266.273 103.282 266.637 103.186 267.019 103.074C267.409 102.952 267.79 102.814 268.163 102.658H268.644V110.627H270.971V111.706H264.978ZM271.811 111.706V111.316C271.811 110.778 271.91 110.319 272.11 109.938C272.309 109.548 272.621 109.21 273.046 108.924L275.659 107.208C275.936 107.017 276.174 106.774 276.374 106.48C276.582 106.176 276.686 105.821 276.686 105.414C276.686 104.911 276.538 104.508 276.244 104.205C275.949 103.901 275.516 103.75 274.944 103.75C274.597 103.75 274.285 103.828 274.008 103.984C273.739 104.131 273.522 104.339 273.358 104.608C273.202 104.868 273.124 105.167 273.124 105.505C273.124 105.574 273.124 105.639 273.124 105.7C273.124 105.752 273.128 105.804 273.137 105.856H271.902C271.893 105.795 271.889 105.752 271.889 105.726C271.889 105.691 271.889 105.656 271.889 105.622C271.889 105.041 272.019 104.53 272.279 104.088C272.539 103.637 272.898 103.286 273.358 103.035C273.826 102.783 274.359 102.658 274.957 102.658H275.1C275.698 102.658 276.213 102.775 276.647 103.009C277.089 103.234 277.427 103.55 277.661 103.958C277.903 104.365 278.025 104.837 278.025 105.375C278.025 105.825 277.947 106.22 277.791 106.558C277.643 106.887 277.44 107.177 277.18 107.429C276.928 107.68 276.642 107.914 276.322 108.131L274.125 109.561C273.934 109.691 273.787 109.816 273.683 109.938C273.579 110.05 273.505 110.159 273.462 110.263C273.418 110.367 273.388 110.466 273.371 110.562H278.064V111.706H271.811ZM281.231 111.706V110.094H282.921V111.706H281.231ZM281.231 106.662V105.05H282.921V106.662H281.231ZM289.247 111.836C288.614 111.836 288.064 111.71 287.596 111.459C287.128 111.199 286.768 110.852 286.517 110.419C286.265 109.977 286.14 109.47 286.14 108.898H287.375C287.375 109.244 287.448 109.561 287.596 109.847C287.752 110.124 287.964 110.345 288.233 110.51C288.51 110.674 288.835 110.757 289.208 110.757C289.598 110.757 289.927 110.67 290.196 110.497C290.473 110.323 290.681 110.089 290.82 109.795C290.967 109.5 291.041 109.184 291.041 108.846C291.041 108.482 290.958 108.157 290.794 107.871C290.638 107.576 290.421 107.346 290.144 107.182C289.866 107.017 289.554 106.935 289.208 106.935C288.87 106.935 288.549 107.021 288.246 107.195C287.951 107.368 287.721 107.589 287.557 107.858L286.452 107.702L286.829 102.788H291.873V103.997H287.908L287.713 106.597C287.938 106.389 288.207 106.22 288.519 106.09C288.831 105.96 289.169 105.895 289.533 105.895C290.096 105.895 290.586 106.02 291.002 106.272C291.426 106.514 291.756 106.861 291.99 107.312C292.232 107.754 292.354 108.274 292.354 108.872C292.354 109.435 292.224 109.938 291.964 110.38C291.704 110.822 291.34 111.177 290.872 111.446C290.412 111.706 289.871 111.836 289.247 111.836ZM296.157 111.836C295.542 111.836 295 111.727 294.532 111.511C294.073 111.294 293.713 110.995 293.453 110.614C293.193 110.232 293.063 109.799 293.063 109.314V109.08H294.285C294.285 109.678 294.459 110.111 294.805 110.38C295.152 110.648 295.62 110.783 296.209 110.783C296.781 110.783 297.249 110.653 297.613 110.393C297.977 110.124 298.159 109.725 298.159 109.197C298.159 108.833 298.073 108.534 297.899 108.3C297.735 108.066 297.514 107.897 297.236 107.793C296.959 107.68 296.656 107.624 296.326 107.624H295.208V106.675H296.209C296.53 106.675 296.82 106.618 297.08 106.506C297.349 106.393 297.561 106.228 297.717 106.012C297.882 105.786 297.964 105.509 297.964 105.18C297.964 104.85 297.886 104.577 297.73 104.361C297.574 104.144 297.362 103.984 297.093 103.88C296.833 103.776 296.539 103.724 296.209 103.724C295.663 103.724 295.234 103.858 294.922 104.127C294.619 104.395 294.467 104.785 294.467 105.297H293.284V105.076C293.284 104.582 293.41 104.157 293.661 103.802C293.921 103.438 294.272 103.156 294.714 102.957C295.156 102.757 295.655 102.658 296.209 102.658H296.378C296.924 102.658 297.414 102.757 297.847 102.957C298.281 103.147 298.623 103.425 298.874 103.789C299.134 104.144 299.264 104.569 299.264 105.063C299.264 105.409 299.204 105.708 299.082 105.96C298.961 106.211 298.796 106.423 298.588 106.597C298.38 106.77 298.142 106.922 297.873 107.052V107.117C298.341 107.264 298.723 107.52 299.017 107.884C299.321 108.248 299.472 108.724 299.472 109.314C299.472 109.816 299.338 110.258 299.069 110.64C298.809 111.012 298.445 111.307 297.977 111.524C297.509 111.732 296.976 111.836 296.378 111.836H296.157ZM302.665 111.706V110.094H304.355V111.706H302.665ZM302.665 106.662V105.05H304.355V106.662H302.665ZM310.447 111.836C309.832 111.836 309.29 111.727 308.822 111.511C308.363 111.294 308.003 110.995 307.743 110.614C307.483 110.232 307.353 109.799 307.353 109.314V109.08H308.575C308.575 109.678 308.749 110.111 309.095 110.38C309.442 110.648 309.91 110.783 310.499 110.783C311.071 110.783 311.539 110.653 311.903 110.393C312.267 110.124 312.449 109.725 312.449 109.197C312.449 108.833 312.363 108.534 312.189 108.3C312.025 108.066 311.804 107.897 311.526 107.793C311.249 107.68 310.946 107.624 310.616 107.624H309.498V106.675H310.499C310.82 106.675 311.11 106.618 311.37 106.506C311.639 106.393 311.851 106.228 312.007 106.012C312.172 105.786 312.254 105.509 312.254 105.18C312.254 104.85 312.176 104.577 312.02 104.361C311.864 104.144 311.652 103.984 311.383 103.88C311.123 103.776 310.829 103.724 310.499 103.724C309.953 103.724 309.524 103.858 309.212 104.127C308.909 104.395 308.757 104.785 308.757 105.297H307.574V105.076C307.574 104.582 307.7 104.157 307.951 103.802C308.211 103.438 308.562 103.156 309.004 102.957C309.446 102.757 309.945 102.658 310.499 102.658H310.668C311.214 102.658 311.704 102.757 312.137 102.957C312.571 103.147 312.913 103.425 313.164 103.789C313.424 104.144 313.554 104.569 313.554 105.063C313.554 105.409 313.494 105.708 313.372 105.96C313.251 106.211 313.086 106.423 312.878 106.597C312.67 106.77 312.432 106.922 312.163 107.052V107.117C312.631 107.264 313.013 107.52 313.307 107.884C313.611 108.248 313.762 108.724 313.762 109.314C313.762 109.816 313.628 110.258 313.359 110.64C313.099 111.012 312.735 111.307 312.267 111.524C311.799 111.732 311.266 111.836 310.668 111.836H310.447ZM314.992 111.706V110.627H317.345V104.296H314.992V103.503C315.278 103.477 315.595 103.429 315.941 103.36C316.288 103.282 316.652 103.186 317.033 103.074C317.423 102.952 317.805 102.814 318.177 102.658H318.658V110.627H320.985V111.706H314.992ZM331.193 111.836C330.508 111.836 329.98 111.675 329.607 111.355C329.243 111.034 329.061 110.562 329.061 109.938C329.061 109.418 329.2 109.002 329.477 108.69C329.763 108.369 330.218 108.135 330.842 107.988C331.475 107.84 332.307 107.767 333.338 107.767V107.039C333.338 106.623 333.23 106.319 333.013 106.129C332.805 105.938 332.45 105.843 331.947 105.843C331.488 105.843 331.132 105.938 330.881 106.129C330.63 106.319 330.504 106.588 330.504 106.935V107.091H329.308C329.291 106.952 329.278 106.861 329.269 106.818C329.269 106.774 329.269 106.757 329.269 106.766C329.269 106.774 329.269 106.787 329.269 106.805C329.278 106.822 329.282 106.822 329.282 106.805C329.282 106.233 329.525 105.778 330.01 105.44C330.504 105.102 331.163 104.933 331.986 104.933C332.861 104.933 333.52 105.102 333.962 105.44C334.413 105.778 334.638 106.293 334.638 106.987V110.51C334.638 110.648 334.673 110.748 334.742 110.809C334.811 110.869 334.902 110.9 335.015 110.9C335.214 110.9 335.388 110.848 335.535 110.744V111.589C335.422 111.667 335.284 111.727 335.119 111.771C334.954 111.814 334.781 111.836 334.599 111.836C334.339 111.836 334.127 111.801 333.962 111.732C333.797 111.671 333.676 111.563 333.598 111.407C333.52 111.251 333.468 111.034 333.442 110.757C333.295 111.025 333.104 111.242 332.87 111.407C332.636 111.563 332.376 111.671 332.09 111.732C331.804 111.801 331.505 111.836 331.193 111.836ZM331.596 110.913C331.995 110.913 332.32 110.826 332.571 110.653C332.831 110.479 333.022 110.245 333.143 109.951C333.273 109.656 333.338 109.327 333.338 108.963V108.56C332.593 108.56 331.999 108.603 331.557 108.69C331.124 108.768 330.812 108.902 330.621 109.093C330.439 109.275 330.348 109.535 330.348 109.873C330.348 110.219 330.448 110.479 330.647 110.653C330.855 110.826 331.171 110.913 331.596 110.913ZM338.39 111.706V110.094H340.08V111.706H338.39ZM343.169 111.706V105.063H343.936L344.066 105.804C344.196 105.518 344.378 105.301 344.612 105.154C344.855 105.006 345.115 104.933 345.392 104.933C345.687 104.933 345.947 105.011 346.172 105.167C346.406 105.323 346.579 105.552 346.692 105.856C346.848 105.552 347.039 105.323 347.264 105.167C347.498 105.011 347.784 104.933 348.122 104.933C348.599 104.933 348.963 105.084 349.214 105.388C349.474 105.691 349.604 106.124 349.604 106.688V111.706H348.486V106.922C348.486 106.272 348.243 105.947 347.758 105.947C347.524 105.947 347.329 106.038 347.173 106.22C347.017 106.402 346.939 106.636 346.939 106.922V111.706H345.834V106.922C345.834 106.272 345.583 105.947 345.08 105.947C344.846 105.947 344.651 106.038 344.495 106.22C344.348 106.402 344.274 106.636 344.274 106.922V111.706H343.169ZM352.68 111.706V110.094H354.37V111.706H352.68Z" fill="#999999"/>
</g>
<defs>
<filter id="filter0_i_3672_494" x="416" y="92.2539" width="23" height="25" filterUnits="userSpaceOnUse" color-interpolation-filters="sRGB">
<feFlood flood-opacity="0" result="BackgroundImageFix"/>
<feBlend mode="normal" in="SourceGraphic" in2="BackgroundImageFix" result="shape"/>
<feColorMatrix in="SourceAlpha" type="matrix" values="0 0 0 0 0 0 0 0 0 0 0 0 0 0 0 0 0 0 127 0" result="hardAlpha"/>
<feMorphology radius="5" operator="erode" in="SourceAlpha" result="effect1_innerShadow_3672_494"/>
<feOffset dx="1" dy="3"/>
<feGaussianBlur stdDeviation="18.3"/>
<feComposite in2="hardAlpha" operator="arithmetic" k2="-1" k3="1"/>
<feColorMatrix type="matrix" values="0 0 0 0 0.956863 0 0 0 0 0.564706 0 0 0 0 0.145098 0 0 0 1 0"/>
<feBlend mode="plus-lighter" in2="shape" result="effect1_innerShadow_3672_494"/>
</filter>
<filter id="filter1_b_3672_494" x="125.701" y="-20.2995" width="284.166" height="169.56" filterUnits="userSpaceOnUse" color-interpolation-filters="sRGB">
<feFlood flood-opacity="0" result="BackgroundImageFix"/>
<feGaussianBlur in="BackgroundImageFix" stdDeviation="10.1497"/>
<feComposite in2="SourceAlpha" operator="in" result="effect1_backgroundBlur_3672_494"/>
<feBlend mode="normal" in="SourceGraphic" in2="effect1_backgroundBlur_3672_494" result="shape"/>
</filter>
<linearGradient id="paint0_linear_3672_494" x1="197.501" y1="126.754" x2="564.001" y2="493.254" gradientUnits="userSpaceOnUse">
<stop stop-color="#FF6A00"/>
<stop offset="0.841" stop-opacity="0"/>
</linearGradient>
<linearGradient id="paint1_linear_3672_494" x1="374.001" y1="229.254" x2="449.501" y2="297.754" gradientUnits="userSpaceOnUse">
<stop stop-color="#FFA600"/>
<stop offset="1" stop-color="#994D00" stop-opacity="0"/>
</linearGradient>
<linearGradient id="paint2_linear_3672_494" x1="425.412" y1="106.254" x2="423.137" y2="106.32" gradientUnits="userSpaceOnUse">
<stop stop-color="#FFF700"/>
<stop offset="1" stop-opacity="0"/>
</linearGradient>
</defs>
</svg>
