<svg width="73" height="73" viewBox="0 0 73 73" fill="none" xmlns="http://www.w3.org/2000/svg">
<rect width="72.8" height="72.8" rx="5.17583" fill="#424242"/>
<path d="M60.5877 34.5393H58.648C58.2015 29.2818 55.9102 24.3516 52.1792 20.6206C48.4482 16.8897 43.518 14.5983 38.2605 14.1518V12.2122C38.2605 11.7187 38.0645 11.2454 37.7156 10.8965C37.3666 10.5476 36.8934 10.3516 36.3999 10.3516C35.9064 10.3516 35.4332 10.5476 35.0843 10.8965C34.7353 11.2454 34.5393 11.7187 34.5393 12.2122V14.1518C29.2818 14.5983 24.3516 16.8897 20.6206 20.6206C16.8897 24.3516 14.5983 29.2818 14.1518 34.5393H12.2122C11.7187 34.5393 11.2454 34.7353 10.8965 35.0843C10.5476 35.4332 10.3516 35.9064 10.3516 36.3999C10.3516 36.8934 10.5476 37.3666 10.8965 37.7156C11.2454 38.0645 11.7187 38.2605 12.2122 38.2605H14.1518C14.5983 43.518 16.8897 48.4482 20.6206 52.1792C24.3516 55.9102 29.2818 58.2015 34.5393 58.648V60.5877C34.5393 61.0811 34.7353 61.5544 35.0843 61.9033C35.4332 62.2522 35.9064 62.4483 36.3999 62.4483C36.8934 62.4483 37.3666 62.2522 37.7156 61.9033C38.0645 61.5544 38.2605 61.0811 38.2605 60.5877V58.648C43.518 58.2015 48.4482 55.9102 52.1792 52.1792C55.9102 48.4482 58.2015 43.518 58.648 38.2605H60.5877C61.0811 38.2605 61.5544 38.0645 61.9033 37.7156C62.2522 37.3666 62.4483 36.8934 62.4483 36.3999C62.4483 35.9064 62.2522 35.4332 61.9033 35.0843C61.5544 34.7353 61.0811 34.5393 60.5877 34.5393ZM38.2605 54.9128V53.1453C38.2605 52.6518 38.0645 52.1786 37.7156 51.8296C37.3666 51.4807 36.8934 51.2847 36.3999 51.2847C35.9064 51.2847 35.4332 51.4807 35.0843 51.8296C34.7353 52.1786 34.5393 52.6518 34.5393 53.1453V54.9128C30.2713 54.4773 26.2841 52.583 23.2505 49.5494C20.2168 46.5157 18.3225 42.5285 17.887 38.2605H19.6545C20.148 38.2605 20.6213 38.0645 20.9702 37.7156C21.3191 37.3666 21.5151 36.8934 21.5151 36.3999C21.5151 35.9064 21.3191 35.4332 20.9702 35.0843C20.6213 34.7353 20.148 34.5393 19.6545 34.5393H17.887C18.3225 30.2713 20.2168 26.2841 23.2505 23.2505C26.2841 20.2168 30.2713 18.3225 34.5393 17.887V19.6545C34.5393 20.148 34.7353 20.6213 35.0843 20.9702C35.4332 21.3191 35.9064 21.5151 36.3999 21.5151C36.8934 21.5151 37.3666 21.3191 37.7156 20.9702C38.0645 20.6213 38.2605 20.148 38.2605 19.6545V17.887C42.5285 18.3225 46.5157 20.2168 49.5494 23.2505C52.583 26.2841 54.4773 30.2713 54.9128 34.5393H53.1453C52.6518 34.5393 52.1786 34.7353 51.8296 35.0843C51.4807 35.4332 51.2847 35.9064 51.2847 36.3999C51.2847 36.8934 51.4807 37.3666 51.8296 37.7156C52.1786 38.0645 52.6518 38.2605 53.1453 38.2605H54.9128C54.4773 42.5285 52.583 46.5157 49.5494 49.5494C46.5157 52.583 42.5285 54.4773 38.2605 54.9128ZM36.3999 27.0969C34.56 27.0969 32.7613 27.6425 31.2315 28.6648C29.7016 29.687 28.5092 31.1399 27.8051 32.8398C27.101 34.5397 26.9167 36.4102 27.2757 38.2148C27.6346 40.0194 28.5207 41.6771 29.8217 42.9781C31.1228 44.2792 32.7804 45.1652 34.585 45.5241C36.3896 45.8831 38.2601 45.6989 39.96 44.9947C41.6599 44.2906 43.1128 43.0982 44.1351 41.5684C45.1573 40.0385 45.7029 38.2399 45.7029 36.3999C45.7029 33.9326 44.7228 31.5664 42.9781 29.8217C41.2335 28.0771 38.8672 27.0969 36.3999 27.0969ZM36.3999 41.9817C35.2959 41.9817 34.2168 41.6543 33.2988 41.041C32.3809 40.4277 31.6655 39.5559 31.243 38.536C30.8205 37.516 30.71 36.3937 30.9254 35.311C31.1407 34.2282 31.6724 33.2336 32.453 32.453C33.2336 31.6724 34.2282 31.1407 35.311 30.9254C36.3937 30.71 37.516 30.8205 38.536 31.243C39.5559 31.6655 40.4277 32.3809 41.041 33.2988C41.6543 34.2168 41.9817 35.2959 41.9817 36.3999C41.9817 37.8803 41.3936 39.3 40.3468 40.3468C39.3 41.3936 37.8803 41.9817 36.3999 41.9817Z" fill="white"/>
</svg>
