<svg width="73" height="68" viewBox="0 0 73 68" fill="none" xmlns="http://www.w3.org/2000/svg">
<path opacity="0.17" d="M61.3627 14.7503C49.0526 -0.664152 12.1227 1.14926 5.46026 22.1854C-1.20221 43.2215 25.7357 68.6099 49.7767 62.9883C73.8177 57.3667 73.6728 30.1647 61.3627 14.7503Z" fill="#FF6A00"/>
<path d="M26.0653 37.4837H23.79C23.4883 37.4837 23.1989 37.606 22.9856 37.8238C22.7722 38.0416 22.6523 38.337 22.6523 38.645V46.7746C22.6523 47.0826 22.7722 47.378 22.9856 47.5958C23.1989 47.8136 23.4883 47.9359 23.79 47.9359H26.0653C27.4231 47.9359 28.7253 47.3853 29.6854 46.4052C30.6455 45.4251 31.1848 44.0958 31.1848 42.7098C31.1848 41.3237 30.6455 39.9944 29.6854 39.0144C28.7253 38.0343 27.4231 37.4837 26.0653 37.4837ZM26.0653 45.6132H24.9277V39.8064H26.0653C26.8197 39.8064 27.5431 40.1123 28.0765 40.6568C28.6099 41.2013 28.9095 41.9398 28.9095 42.7098C28.9095 43.4798 28.6099 44.2183 28.0765 44.7628C27.5431 45.3073 26.8197 45.6132 26.0653 45.6132ZM50.1739 44.9004C50.3919 45.1133 50.5181 45.4059 50.5248 45.7138C50.5314 46.0217 50.418 46.3197 50.2095 46.5423C49.8133 46.9776 49.3343 47.3257 48.8017 47.5654C48.2691 47.805 47.6942 47.9311 47.1122 47.9359C44.6022 47.9359 42.5615 45.5914 42.5615 42.7098C42.5615 39.8282 44.6022 37.4837 47.1122 37.4837C47.6942 37.4885 48.2691 37.6146 48.8017 37.8542C49.3343 38.0938 49.8133 38.442 50.2095 38.8773C50.4135 39.1007 50.5231 39.3971 50.5145 39.7024C50.506 40.0077 50.38 40.2973 50.1638 40.5084C49.9476 40.7195 49.6587 40.8352 49.3595 40.8305C49.0604 40.8257 48.7751 40.7008 48.5655 40.4829C48.3809 40.2754 48.1568 40.1085 47.9069 39.9922C47.6571 39.8759 47.3867 39.8127 47.1122 39.8064C45.8579 39.8064 44.8368 41.1129 44.8368 42.7098C44.8368 44.3067 45.8579 45.6132 47.1122 45.6132C47.3867 45.6069 47.6571 45.5437 47.9069 45.4274C48.1568 45.3111 48.3809 45.1442 48.5655 44.9367C48.7741 44.7142 49.0607 44.5854 49.3624 44.5786C49.664 44.5717 49.9559 44.6875 50.1739 44.9004ZM36.8732 37.4837C34.3632 37.4837 32.3225 39.8282 32.3225 42.7098C32.3225 45.5914 34.3632 47.9359 36.8732 47.9359C39.3831 47.9359 41.4238 45.5914 41.4238 42.7098C41.4238 39.8282 39.3831 37.4837 36.8732 37.4837ZM36.8732 45.6132C35.6189 45.6132 34.5978 44.3067 34.5978 42.7098C34.5978 41.1129 35.6189 39.8064 36.8732 39.8064C38.1274 39.8064 39.1485 41.1129 39.1485 42.7098C39.1485 44.3067 38.1274 45.6132 36.8732 45.6132ZM25.4965 33.9996C25.7982 33.9996 26.0876 33.8772 26.301 33.6594C26.5143 33.4416 26.6342 33.1462 26.6342 32.8382V22.386H39.1485V29.3541C39.1485 29.6621 39.2684 29.9575 39.4817 30.1753C39.6951 30.3931 39.9844 30.5155 40.2862 30.5155H47.1122V32.8382C47.1122 33.1462 47.232 33.4416 47.4454 33.6594C47.6587 33.8772 47.9481 33.9996 48.2498 33.9996C48.5516 33.9996 48.8409 33.8772 49.0543 33.6594C49.2676 33.4416 49.3875 33.1462 49.3875 32.8382V29.3541C49.3876 29.2016 49.3583 29.0505 49.3012 28.9095C49.2441 28.7685 49.1603 28.6404 49.0547 28.5325L41.0911 20.4029C40.9853 20.2951 40.8598 20.2096 40.7217 20.1513C40.5836 20.0931 40.4356 20.0631 40.2862 20.0632H26.6342C26.0307 20.0632 25.452 20.3079 25.0253 20.7435C24.5986 21.1791 24.3588 21.7699 24.3588 22.386V32.8382C24.3588 33.1462 24.4787 33.4416 24.6921 33.6594C24.9054 33.8772 25.1948 33.9996 25.4965 33.9996ZM41.4238 24.0278L45.5038 28.1928H41.4238V24.0278Z" fill="#FF6A00"/>
</svg>
