<svg width="73" height="64" viewBox="0 0 73 64" fill="none" xmlns="http://www.w3.org/2000/svg">
<path opacity="0.17" d="M61.3627 14.5271C49.0526 -0.887297 12.1227 0.926118 5.46026 21.9622C-1.20221 42.9984 25.7357 68.3868 49.7767 62.7652C73.8177 57.1435 73.6728 29.9416 61.3627 14.5271Z" fill="#FF6A00"/>
<path d="M50.2112 35.9738L43.5089 29.2728C45.4515 26.9406 46.4202 23.9493 46.2134 20.9211C46.0067 17.8928 44.6404 15.0609 42.3989 13.0144C40.1574 10.9678 37.2131 9.86426 34.1786 9.93322C31.1441 10.0022 28.2531 11.2384 26.1068 13.3846C23.9605 15.5309 22.7244 18.422 22.6554 21.4564C22.5864 24.4909 23.69 27.4352 25.7365 29.6767C27.7831 31.9183 30.615 33.2845 33.6432 33.4913C36.6714 33.698 39.6628 32.7293 41.995 30.7868L48.6959 37.489C48.7954 37.5885 48.9135 37.6675 49.0435 37.7213C49.1735 37.7751 49.3129 37.8029 49.4536 37.8029C49.5943 37.8029 49.7336 37.7751 49.8636 37.7213C49.9936 37.6675 50.1117 37.5885 50.2112 37.489C50.3107 37.3895 50.3896 37.2714 50.4435 37.1414C50.4973 37.0114 50.525 36.8721 50.525 36.7314C50.525 36.5907 50.4973 36.4514 50.4435 36.3214C50.3896 36.1914 50.3107 36.0733 50.2112 35.9738ZM24.8237 21.7393C24.8237 19.8331 25.3889 17.9697 26.4479 16.3848C27.5069 14.7999 29.0122 13.5646 30.7732 12.8351C32.5343 12.1057 34.4721 11.9148 36.3417 12.2867C38.2112 12.6586 39.9285 13.5765 41.2764 14.9243C42.6243 16.2722 43.5422 17.9895 43.9141 19.859C44.2859 21.7286 44.0951 23.6664 43.3656 25.4275C42.6361 27.1886 41.4008 28.6938 39.8159 29.7528C38.231 30.8118 36.3676 31.3771 34.4615 31.3771C31.9062 31.3742 29.4565 30.3579 27.6496 28.5511C25.8428 26.7443 24.8265 24.2945 24.8237 21.7393Z" fill="#FF6A00"/>
</svg>
