<svg width="73" height="68" viewBox="0 0 73 68" fill="none" xmlns="http://www.w3.org/2000/svg">
<path opacity="0.17" d="M61.7026 14.7503C49.3925 -0.664152 12.4626 1.14926 5.8001 22.1854C-0.862362 43.2215 26.0756 68.6099 50.1166 62.9883C74.1575 57.3667 74.0126 30.1647 61.7026 14.7503Z" fill="#FF6A00"/>
<path d="M40.3297 29.4648H33.5275C33.2268 29.4648 32.9384 29.5842 32.7258 29.7968C32.5132 30.0095 32.3937 30.2978 32.3937 30.5985V37.4008C32.3937 37.7014 32.5132 37.9898 32.7258 38.2024C32.9384 38.415 33.2268 38.5345 33.5275 38.5345H40.3297C40.6304 38.5345 40.9188 38.415 41.1314 38.2024C41.344 37.9898 41.4634 37.7014 41.4634 37.4008V30.5985C41.4634 30.2978 41.344 30.0095 41.1314 29.7968C40.9188 29.5842 40.6304 29.4648 40.3297 29.4648ZM39.196 36.2671H34.6612V31.7322H39.196V36.2671ZM51.6668 36.2671H49.3994V31.7322H51.6668C51.9675 31.7322 52.2559 31.6128 52.4685 31.4002C52.6811 31.1875 52.8005 30.8992 52.8005 30.5985C52.8005 30.2978 52.6811 30.0095 52.4685 29.7968C52.2559 29.5842 51.9675 29.4648 51.6668 29.4648H49.3994V23.7962C49.3994 23.1949 49.1605 22.6182 48.7353 22.1929C48.3101 21.7677 47.7333 21.5288 47.132 21.5288H41.4634V19.2614C41.4634 18.9607 41.344 18.6724 41.1314 18.4597C40.9188 18.2471 40.6304 18.1277 40.3297 18.1277C40.029 18.1277 39.7407 18.2471 39.5281 18.4597C39.3155 18.6724 39.196 18.9607 39.196 19.2614V21.5288H34.6612V19.2614C34.6612 18.9607 34.5417 18.6724 34.3291 18.4597C34.1165 18.2471 33.8281 18.1277 33.5275 18.1277C33.2268 18.1277 32.9384 18.2471 32.7258 18.4597C32.5132 18.6724 32.3937 18.9607 32.3937 19.2614V21.5288H26.7252C26.1238 21.5288 25.5471 21.7677 25.1219 22.1929C24.6967 22.6182 24.4578 23.1949 24.4578 23.7962V29.4648H22.1904C21.8897 29.4648 21.6013 29.5842 21.3887 29.7968C21.1761 30.0095 21.0566 30.2978 21.0566 30.5985C21.0566 30.8992 21.1761 31.1875 21.3887 31.4002C21.6013 31.6128 21.8897 31.7322 22.1904 31.7322H24.4578V36.2671H22.1904C21.8897 36.2671 21.6013 36.3865 21.3887 36.5991C21.1761 36.8117 21.0566 37.1001 21.0566 37.4008C21.0566 37.7014 21.1761 37.9898 21.3887 38.2024C21.6013 38.415 21.8897 38.5345 22.1904 38.5345H24.4578V44.203C24.4578 44.8044 24.6967 45.3811 25.1219 45.8063C25.5471 46.2316 26.1238 46.4704 26.7252 46.4704H32.3937V48.7379C32.3937 49.0385 32.5132 49.3269 32.7258 49.5395C32.9384 49.7521 33.2268 49.8716 33.5275 49.8716C33.8281 49.8716 34.1165 49.7521 34.3291 49.5395C34.5417 49.3269 34.6612 49.0385 34.6612 48.7379V46.4704H39.196V48.7379C39.196 49.0385 39.3155 49.3269 39.5281 49.5395C39.7407 49.7521 40.029 49.8716 40.3297 49.8716C40.6304 49.8716 40.9188 49.7521 41.1314 49.5395C41.344 49.3269 41.4634 49.0385 41.4634 48.7379V46.4704H47.132C47.7333 46.4704 48.3101 46.2316 48.7353 45.8063C49.1605 45.3811 49.3994 44.8044 49.3994 44.203V38.5345H51.6668C51.9675 38.5345 52.2559 38.415 52.4685 38.2024C52.6811 37.9898 52.8005 37.7014 52.8005 37.4008C52.8005 37.1001 52.6811 36.8117 52.4685 36.5991C52.2559 36.3865 51.9675 36.2671 51.6668 36.2671ZM47.132 44.203H26.7252V23.7962H47.132V37.3823C47.132 37.3823 47.132 37.3951 47.132 37.4008C47.132 37.4064 47.132 37.4135 47.132 37.4192V44.203Z" fill="#FF6A00"/>
</svg>
