<svg width="73" height="68" viewBox="0 0 73 68" fill="none" xmlns="http://www.w3.org/2000/svg">
<path opacity="0.17" d="M61.7026 14.5271C49.3925 -0.887297 12.4626 0.926118 5.8001 21.9622C-0.862362 42.9984 26.0756 68.3868 50.1166 62.7652C74.1575 57.1435 74.0126 29.9416 61.7026 14.5271Z" fill="#FF6A00"/>
<path d="M54.7143 47.4581C54.7143 47.821 54.5701 48.169 54.3135 48.4255C54.057 48.6821 53.709 48.8263 53.3461 48.8263H20.5098C20.1469 48.8263 19.7989 48.6821 19.5423 48.4255C19.2857 48.169 19.1416 47.821 19.1416 47.4581V20.0945C19.1416 19.7316 19.2857 19.3836 19.5423 19.127C19.7989 18.8705 20.1469 18.7263 20.5098 18.7263C20.8726 18.7263 21.2206 18.8705 21.4772 19.127C21.7338 19.3836 21.878 19.7316 21.878 20.0945V38.6829L30.4872 30.0719C30.6143 29.9447 30.7652 29.8438 30.9313 29.775C31.0974 29.7061 31.2754 29.6707 31.4552 29.6707C31.635 29.6707 31.8131 29.7061 31.9792 29.775C32.1452 29.8438 32.2961 29.9447 32.4232 30.0719L36.9279 34.5784L45.9391 25.5672H42.4007C42.0378 25.5672 41.6898 25.4231 41.4332 25.1665C41.1766 24.9099 41.0325 24.5619 41.0325 24.199C41.0325 23.8362 41.1766 23.4882 41.4332 23.2316C41.6898 22.975 42.0378 22.8309 42.4007 22.8309H49.2416C49.6044 22.8309 49.9524 22.975 50.209 23.2316C50.4656 23.4882 50.6097 23.8362 50.6097 24.199V31.0399C50.6097 31.4028 50.4656 31.7508 50.209 32.0074C49.9524 32.264 49.6044 32.4081 49.2416 32.4081C48.8787 32.4081 48.5307 32.264 48.2741 32.0074C48.0175 31.7508 47.8734 31.4028 47.8734 31.0399V27.5015L37.8959 37.4806C37.7689 37.6079 37.618 37.7088 37.4519 37.7776C37.2858 37.8465 37.1077 37.8819 36.9279 37.8819C36.7481 37.8819 36.5701 37.8465 36.404 37.7776C36.2379 37.7088 36.087 37.6079 35.96 37.4806L31.4552 32.9742L21.878 42.5515V46.0899H53.3461C53.709 46.0899 54.057 46.2341 54.3135 46.4906C54.5701 46.7472 54.7143 47.0952 54.7143 47.4581Z" fill="#FF6A00"/>
</svg>
