<svg width="570" height="500" viewBox="0 0 570 500" fill="none" xmlns="http://www.w3.org/2000/svg">
<g clip-path="url(#clip0_4_2132)">
<g opacity="0.09">
<circle cx="572.69" cy="499.935" r="92.4797" stroke="white" stroke-width="1.34568"/>
<circle cx="572.691" cy="499.935" r="128.085" stroke="white" stroke-width="1.34568"/>
<path d="M572.691 337.901C661.259 337.901 733.068 410.439 733.068 499.934C733.068 589.429 661.259 661.968 572.691 661.969C484.124 661.969 412.313 589.43 412.313 499.934C412.314 410.439 484.124 337.901 572.691 337.901Z" stroke="white" stroke-width="1.34568"/>
<path d="M572.69 241.023C714.306 241.023 829.119 356.936 829.119 499.935C829.119 642.934 714.306 758.847 572.69 758.847C431.075 758.847 316.263 642.934 316.263 499.935C316.263 356.936 431.075 241.023 572.69 241.023Z" stroke="white" stroke-width="1.34568"/>
<path d="M572.689 294.844C685.038 294.844 776.124 386.661 776.124 499.935C776.124 613.208 685.038 705.026 572.689 705.026C460.341 705.026 369.255 613.208 369.255 499.935C369.255 386.661 460.341 294.844 572.689 294.844Z" stroke="white" stroke-width="1.34568"/>
<path d="M572.69 144.972C766.896 144.972 924.342 303.889 924.342 499.935C924.342 695.982 766.896 854.898 572.69 854.898C378.485 854.898 221.04 695.981 221.04 499.935C221.04 303.889 378.485 144.972 572.69 144.972Z" stroke="white" stroke-width="1.34568"/>
<path d="M572.694 188.029C743.119 188.029 881.288 327.667 881.288 499.934C881.288 672.202 743.119 811.841 572.694 811.841C402.27 811.841 264.101 672.202 264.101 499.934C264.101 327.667 402.27 188.029 572.694 188.029Z" stroke="white" stroke-width="1.34568"/>
<circle cx="-10.9139" cy="7.3149" r="92.4797" stroke="white" stroke-width="1.34568"/>
<circle cx="-10.9124" cy="7.31477" r="128.085" stroke="white" stroke-width="1.34568"/>
<path d="M-10.9121 -154.719C77.6552 -154.719 149.465 -82.1808 149.465 7.31409C149.465 96.8092 77.6553 169.348 -10.9121 169.348C-99.4797 169.348 -171.29 96.8093 -171.29 7.31409C-171.29 -82.1809 -99.4796 -154.719 -10.9121 -154.719Z" stroke="white" stroke-width="1.34568"/>
<path d="M-10.9131 -251.597C130.702 -251.597 245.516 -135.685 245.516 7.3147C245.516 150.314 130.702 266.227 -10.9131 266.227C-152.528 266.227 -267.341 150.314 -267.341 7.3147C-267.341 -135.684 -152.528 -251.597 -10.9131 -251.597Z" stroke="white" stroke-width="1.34568"/>
<path d="M-10.9141 -197.776C101.435 -197.776 192.521 -105.959 192.521 7.3147C192.52 120.588 101.435 212.406 -10.9141 212.406C-123.263 212.405 -214.349 120.588 -214.349 7.3147C-214.349 -105.959 -123.263 -197.776 -10.9141 -197.776Z" stroke="white" stroke-width="1.34568"/>
<path d="M-10.9131 -347.648C183.292 -347.648 340.738 -188.732 340.738 7.31482C340.738 203.361 183.292 362.278 -10.9131 362.278C-205.118 362.277 -362.563 203.361 -362.563 7.31482C-362.563 -188.732 -205.118 -347.648 -10.9131 -347.648Z" stroke="white" stroke-width="1.34568"/>
<path d="M-10.9092 -304.591C159.515 -304.591 297.684 -164.953 297.685 7.31409C297.685 179.582 159.516 319.22 -10.9092 319.22C-181.334 319.22 -319.503 179.582 -319.503 7.31409C-319.503 -164.953 -181.334 -304.591 -10.9092 -304.591Z" stroke="white" stroke-width="1.34568"/>
<g opacity="0.3">
<path d="M56.2266 499.365H1090.01" stroke="white" stroke-width="2.69137"/>
<path d="M43.3906 289.875H1077.18" stroke="white" stroke-width="2.69137"/>
<path d="M24.7637 90.322H1058.55" stroke="white" stroke-width="2.69137"/>
<path d="M364.252 1016.47L364.252 -17.3213" stroke="white" stroke-width="2.69137"/>
<path d="M176.289 1016.47L176.289 -17.3213" stroke="white" stroke-width="2.69137"/>
</g>
</g>
<mask id="mask0_4_2132" style="mask-type:alpha" maskUnits="userSpaceOnUse" x="204" y="53" width="280" height="399">
<path d="M205 265C365.839 265 317.842 320.845 478.681 320.845" stroke="url(#paint0_linear_4_2132)" stroke-width="2"/>
<path d="M204 208.33C364.838 208.33 315.564 54 479.502 54" stroke="url(#paint1_linear_4_2132)" stroke-width="2"/>
<path d="M210 293C370.838 293 285.616 450.12 483.952 450.12" stroke="url(#paint2_linear_4_2132)" stroke-width="2"/>
<path d="M210 234.801C370.839 234.801 308.158 181 482.943 181" stroke="url(#paint3_linear_4_2132)" stroke-width="2"/>
</mask>
<g mask="url(#mask0_4_2132)">
<rect x="210.5" y="41.5" width="268" height="443" fill="url(#paint4_linear_4_2132)" stroke="url(#paint5_linear_4_2132)"/>
</g>
<g clip-path="url(#clip1_4_2132)">
<g filter="url(#filter0_di_4_2132)">
<path d="M105.872 147.115C110.283 144.569 115.717 144.569 120.128 147.115L203.733 195.385C208.144 197.931 210.861 202.637 210.861 207.73L210.861 304.27C210.861 309.363 208.144 314.069 203.733 316.615L120.128 364.885C115.717 367.431 110.283 367.431 105.872 364.885L22.2668 316.615C17.8562 314.069 15.1391 309.363 15.1391 304.27L15.1391 207.73C15.1391 202.637 17.8562 197.931 22.2668 195.385L105.872 147.115Z" fill="url(#paint6_linear_4_2132)"/>
<path d="M106.622 148.414C110.569 146.136 115.431 146.136 119.378 148.414L202.983 196.684C206.93 198.962 209.361 203.173 209.361 207.73L209.361 304.27C209.361 308.827 206.93 313.038 202.983 315.316L119.378 363.586C115.431 365.864 110.569 365.864 106.622 363.586L23.0166 315.316C19.0701 313.038 16.6387 308.827 16.6387 304.27L16.6387 207.73C16.6387 203.173 19.0701 198.962 23.0166 196.684L106.622 148.414Z" stroke="#CFCFCF" stroke-width="3" style="mix-blend-mode:color-dodge"/>
</g>
<path d="M110.542 191.637C110.554 192.088 110.567 192.539 110.579 192.99C110.538 195.973 110.493 198.959 110.444 201.949C110.367 207.44 110.287 212.931 110.206 218.422C110.172 220.993 110.136 223.565 110.099 226.139C110.036 231.356 109.971 236.571 109.905 241.785C109.902 242.082 109.831 242.375 109.699 242.644C106.249 249.827 102.808 257.011 99.375 264.196C99.2068 264.5 98.9574 264.757 98.6516 264.943L77.9326 279.566L56.4694 294.702C56.2757 294.85 56.0609 294.971 55.8312 295.063C74.107 260.607 92.3439 226.132 110.542 191.637Z" fill="white"/>
<path d="M111.927 191.598C113.989 194.969 116.059 198.336 118.111 201.713C136.211 231.495 154.175 261.348 172.004 291.271C172.117 291.439 172.192 291.629 172.223 291.826C172.016 291.705 171.8 291.598 171.597 291.472L137.196 270.065C134.237 268.218 131.267 266.374 128.285 264.533C127.77 264.226 127.35 263.797 127.068 263.29C123.137 256.446 119.415 249.488 115.599 242.595C115.456 242.355 115.369 242.089 115.344 241.814C115.129 238.618 114.895 235.422 114.671 232.221C114.283 226.769 113.899 221.317 113.518 215.864C113.348 213.428 113.174 210.991 113.009 208.549C112.635 203.124 112.265 197.699 111.898 192.273C111.891 192.052 111.778 191.824 111.966 191.61L111.927 191.598Z" fill="white"/>
<path d="M82.0203 295.562C82.1452 295.365 82.3211 295.202 82.5309 295.09L112.644 273.075L112.877 272.908C113.414 272.545 113.25 272.439 113.928 272.879L131.558 284.304L145.368 293.278C145.581 293.414 145.785 293.565 146.101 293.78L82.0203 295.562Z" fill="white"/>
</g>
<g filter="url(#filter1_di_4_2132)">
<path d="M511.378 1.80267C513.31 0.687174 515.69 0.687175 517.622 1.80267L554.246 22.9473C556.178 24.0628 557.368 26.1243 557.368 28.3553L557.368 70.6447C557.368 72.8757 556.178 74.9372 554.246 76.0527L517.622 97.1973C515.69 98.3128 513.31 98.3128 511.378 97.1973L474.754 76.0527C472.822 74.9372 471.632 72.8757 471.632 70.6447L471.632 28.3553C471.632 26.1243 472.822 24.0628 474.754 22.9473L511.378 1.80267Z" fill="#0E0E0E"/>
<path d="M511.378 1.80267C513.31 0.687174 515.69 0.687175 517.622 1.80267L554.246 22.9473C556.178 24.0628 557.368 26.1243 557.368 28.3553L557.368 70.6447C557.368 72.8757 556.178 74.9372 554.246 76.0527L517.622 97.1973C515.69 98.3128 513.31 98.3128 511.378 97.1973L474.754 76.0527C472.822 74.9372 471.632 72.8757 471.632 70.6447L471.632 28.3553C471.632 26.1243 472.822 24.0628 474.754 22.9473L511.378 1.80267Z" fill="url(#paint7_linear_4_2132)"/>
<path d="M511.628 2.23535C513.405 1.20943 515.595 1.20943 517.372 2.23535L553.996 23.3799C555.773 24.4061 556.868 26.3031 556.868 28.3555L556.868 70.6445C556.868 72.5685 555.906 74.3556 554.321 75.417L553.996 75.6201L517.372 96.7646C515.595 97.7906 513.405 97.7906 511.628 96.7646L475.004 75.6201C473.227 74.5939 472.132 72.6969 472.132 70.6445L472.132 28.3555C472.132 26.4315 473.094 24.6444 474.679 23.583L475.004 23.3799L511.628 2.23535Z" stroke="#ECECEC" style="mix-blend-mode:color-dodge"/>
</g>
<g filter="url(#filter2_di_4_2132)">
<path d="M533.931 64.1329C533.931 64.5268 533.775 64.9045 533.496 65.1831C533.218 65.4616 532.84 65.6181 532.446 65.6181H496.802C496.408 65.6181 496.03 65.4616 495.751 65.1831C495.473 64.9045 495.316 64.5268 495.316 64.1329V34.4293C495.316 34.0354 495.473 33.6576 495.751 33.3791C496.03 33.1006 496.408 32.9441 496.802 32.9441C497.195 32.9441 497.573 33.1006 497.852 33.3791C498.13 33.6576 498.287 34.0354 498.287 34.4293V54.6073L507.632 45.2599C507.77 45.1219 507.934 45.0123 508.114 44.9376C508.295 44.8628 508.488 44.8244 508.683 44.8244C508.878 44.8244 509.071 44.8628 509.252 44.9376C509.432 45.0123 509.596 45.1219 509.734 45.2599L514.624 50.1518L524.406 40.37H520.564C520.171 40.37 519.793 40.2135 519.514 39.935C519.236 39.6565 519.079 39.2787 519.079 38.8848C519.079 38.4909 519.236 38.1132 519.514 37.8346C519.793 37.5561 520.171 37.3996 520.564 37.3996H527.99C528.384 37.3996 528.762 37.5561 529.041 37.8346C529.319 38.1132 529.476 38.4909 529.476 38.8848V46.3107C529.476 46.7046 529.319 47.0824 529.041 47.3609C528.762 47.6394 528.384 47.7959 527.99 47.7959C527.596 47.7959 527.219 47.6394 526.94 47.3609C526.662 47.0824 526.505 46.7046 526.505 46.3107V42.4697L515.675 53.3022C515.537 53.4403 515.373 53.5498 515.192 53.6246C515.012 53.6993 514.819 53.7378 514.624 53.7378C514.429 53.7378 514.235 53.6993 514.055 53.6246C513.875 53.5498 513.711 53.4403 513.573 53.3022L508.683 48.4104L498.287 58.8066V62.6477H532.446C532.84 62.6477 533.218 62.8042 533.496 63.0827C533.775 63.3612 533.931 63.739 533.931 64.1329Z" fill="#FF5900"/>
</g>
<g filter="url(#filter3_di_4_2132)">
<path d="M511.378 124.803C513.31 123.687 515.69 123.687 517.622 124.803L554.246 145.947C556.178 147.063 557.368 149.124 557.368 151.355L557.368 193.645C557.368 195.876 556.178 197.937 554.246 199.053L517.622 220.197C515.69 221.313 513.31 221.313 511.378 220.197L474.754 199.053C472.822 197.937 471.632 195.876 471.632 193.645L471.632 151.355C471.632 149.124 472.822 147.063 474.754 145.947L511.378 124.803Z" fill="#0E0E0E"/>
<path d="M511.378 124.803C513.31 123.687 515.69 123.687 517.622 124.803L554.246 145.947C556.178 147.063 557.368 149.124 557.368 151.355L557.368 193.645C557.368 195.876 556.178 197.937 554.246 199.053L517.622 220.197C515.69 221.313 513.31 221.313 511.378 220.197L474.754 199.053C472.822 197.937 471.632 195.876 471.632 193.645L471.632 151.355C471.632 149.124 472.822 147.063 474.754 145.947L511.378 124.803Z" fill="url(#paint8_linear_4_2132)"/>
<path d="M511.628 125.235C513.405 124.209 515.595 124.209 517.372 125.235L553.996 146.38C555.773 147.406 556.868 149.303 556.868 151.355L556.868 193.645C556.868 195.569 555.906 197.356 554.321 198.417L553.996 198.62L517.372 219.765C515.595 220.791 513.405 220.791 511.628 219.765L475.004 198.62C473.227 197.594 472.132 195.697 472.132 193.645L472.132 151.355C472.132 149.431 473.094 147.644 474.679 146.583L475.004 146.38L511.628 125.235Z" stroke="#ECECEC" style="mix-blend-mode:color-dodge"/>
</g>
<g filter="url(#filter4_di_4_2132)">
<path d="M537.332 192.464L526.159 181.294C529.398 177.406 531.013 172.419 530.668 167.371C530.323 162.323 528.046 157.602 524.309 154.19C520.572 150.778 515.664 148.939 510.605 149.054C505.547 149.169 500.727 151.229 497.149 154.807C493.571 158.385 491.511 163.205 491.396 168.263C491.281 173.322 493.12 178.23 496.532 181.967C499.944 185.704 504.665 187.981 509.713 188.326C514.761 188.671 519.748 187.056 523.636 183.817L534.806 194.99C534.972 195.156 535.169 195.288 535.386 195.378C535.603 195.467 535.835 195.514 536.069 195.514C536.304 195.514 536.536 195.467 536.753 195.378C536.97 195.288 537.167 195.156 537.332 194.99C537.498 194.824 537.63 194.628 537.72 194.411C537.809 194.194 537.856 193.962 537.856 193.727C537.856 193.493 537.809 193.261 537.72 193.044C537.63 192.827 537.498 192.63 537.332 192.464ZM495.01 168.735C495.01 165.557 495.953 162.451 497.718 159.809C499.483 157.167 501.993 155.107 504.928 153.891C507.864 152.675 511.095 152.357 514.211 152.977C517.328 153.597 520.191 155.127 522.438 157.374C524.685 159.621 526.215 162.484 526.835 165.6C527.455 168.717 527.137 171.947 525.92 174.883C524.704 177.819 522.645 180.328 520.003 182.094C517.361 183.859 514.255 184.801 511.077 184.801C506.817 184.797 502.733 183.102 499.721 180.09C496.709 177.078 495.015 172.995 495.01 168.735Z" fill="#FF5900"/>
</g>
<g filter="url(#filter5_di_4_2132)">
<path d="M511.378 265.803C513.31 264.687 515.69 264.687 517.622 265.803L554.246 286.947C556.178 288.063 557.368 290.124 557.368 292.355L557.368 334.645C557.368 336.876 556.178 338.937 554.246 340.053L517.622 361.197C515.69 362.313 513.31 362.313 511.378 361.197L474.754 340.053C472.822 338.937 471.632 336.876 471.632 334.645L471.632 292.355C471.632 290.124 472.822 288.063 474.754 286.947L511.378 265.803Z" fill="#0E0E0E"/>
<path d="M511.378 265.803C513.31 264.687 515.69 264.687 517.622 265.803L554.246 286.947C556.178 288.063 557.368 290.124 557.368 292.355L557.368 334.645C557.368 336.876 556.178 338.937 554.246 340.053L517.622 361.197C515.69 362.313 513.31 362.313 511.378 361.197L474.754 340.053C472.822 338.937 471.632 336.876 471.632 334.645L471.632 292.355C471.632 290.124 472.822 288.063 474.754 286.947L511.378 265.803Z" fill="url(#paint9_linear_4_2132)"/>
<path d="M511.628 266.235C513.405 265.209 515.595 265.209 517.372 266.235L553.996 287.38C555.773 288.406 556.868 290.303 556.868 292.355L556.868 334.645C556.868 336.569 555.906 338.356 554.321 339.417L553.996 339.62L517.372 360.765C515.595 361.791 513.405 361.791 511.628 360.765L475.004 339.62C473.227 338.594 472.132 336.697 472.132 334.645L472.132 292.355C472.132 290.431 473.094 288.644 474.679 287.583L475.004 287.38L511.628 266.235Z" stroke="#ECECEC" style="mix-blend-mode:color-dodge"/>
</g>
<g filter="url(#filter6_di_4_2132)">
<path d="M497.08 319.089H493.287C492.784 319.089 492.302 319.293 491.946 319.656C491.59 320.019 491.391 320.512 491.391 321.025V334.577C491.391 335.091 491.59 335.583 491.946 335.946C492.302 336.31 492.784 336.514 493.287 336.514H497.08C499.344 336.514 501.514 335.596 503.115 333.962C504.715 332.328 505.615 330.112 505.615 327.801C505.615 325.491 504.715 323.275 503.115 321.641C501.514 320.007 499.344 319.089 497.08 319.089ZM497.08 332.641H495.184V322.961H497.08C498.338 322.961 499.544 323.471 500.433 324.379C501.322 325.287 501.822 326.518 501.822 327.801C501.822 329.085 501.322 330.316 500.433 331.224C499.544 332.131 498.338 332.641 497.08 332.641ZM537.27 331.453C537.634 331.808 537.844 332.296 537.855 332.809C537.866 333.322 537.677 333.819 537.329 334.19C536.669 334.916 535.871 335.496 534.983 335.896C534.095 336.295 533.136 336.505 532.166 336.514C527.982 336.514 524.58 332.605 524.58 327.801C524.58 322.998 527.982 319.089 532.166 319.089C533.136 319.097 534.095 319.307 534.983 319.707C535.871 320.106 536.669 320.687 537.329 321.412C537.67 321.785 537.852 322.279 537.838 322.788C537.824 323.297 537.614 323.78 537.253 324.132C536.893 324.483 536.411 324.676 535.913 324.668C535.414 324.66 534.938 324.452 534.589 324.089C534.281 323.743 533.908 323.465 533.491 323.271C533.075 323.077 532.624 322.972 532.166 322.961C530.075 322.961 528.373 325.139 528.373 327.801C528.373 330.463 530.075 332.641 532.166 332.641C532.624 332.631 533.075 332.526 533.491 332.332C533.908 332.138 534.281 331.86 534.589 331.514C534.937 331.143 535.415 330.928 535.917 330.917C536.42 330.905 536.907 331.098 537.27 331.453ZM515.097 319.089C510.913 319.089 507.511 322.998 507.511 327.801C507.511 332.605 510.913 336.514 515.097 336.514C519.282 336.514 522.683 332.605 522.683 327.801C522.683 322.998 519.282 319.089 515.097 319.089ZM515.097 332.641C513.006 332.641 511.304 330.463 511.304 327.801C511.304 325.139 513.006 322.961 515.097 322.961C517.188 322.961 518.89 325.139 518.89 327.801C518.89 330.463 517.188 332.641 515.097 332.641ZM496.132 313.281C496.635 313.281 497.117 313.077 497.473 312.714C497.829 312.351 498.029 311.858 498.029 311.345V293.921H518.89V305.537C518.89 306.05 519.09 306.543 519.446 306.906C519.802 307.269 520.284 307.473 520.787 307.473H532.166V311.345C532.166 311.858 532.366 312.351 532.722 312.714C533.077 313.077 533.56 313.281 534.063 313.281C534.566 313.281 535.048 313.077 535.404 312.714C535.759 312.351 535.959 311.858 535.959 311.345V305.537C535.959 305.283 535.911 305.031 535.815 304.796C535.72 304.561 535.581 304.347 535.404 304.167L522.129 290.615C521.952 290.435 521.743 290.293 521.513 290.195C521.283 290.098 521.036 290.048 520.787 290.049H498.029C497.023 290.049 496.058 290.457 495.346 291.183C494.635 291.909 494.235 292.894 494.235 293.921V311.345C494.235 311.858 494.435 312.351 494.791 312.714C495.147 313.077 495.629 313.281 496.132 313.281ZM522.683 296.658L529.485 303.601H522.683V296.658Z" fill="#FF5900"/>
</g>
<g filter="url(#filter7_di_4_2132)">
<path d="M511.378 394.803C513.31 393.687 515.69 393.687 517.622 394.803L554.246 415.947C556.178 417.063 557.368 419.124 557.368 421.355L557.368 463.645C557.368 465.876 556.178 467.937 554.246 469.053L517.622 490.197C515.69 491.313 513.31 491.313 511.378 490.197L474.754 469.053C472.822 467.937 471.632 465.876 471.632 463.645L471.632 421.355C471.632 419.124 472.822 417.063 474.754 415.947L511.378 394.803Z" fill="#0E0E0E"/>
<path d="M511.378 394.803C513.31 393.687 515.69 393.687 517.622 394.803L554.246 415.947C556.178 417.063 557.368 419.124 557.368 421.355L557.368 463.645C557.368 465.876 556.178 467.937 554.246 469.053L517.622 490.197C515.69 491.313 513.31 491.313 511.378 490.197L474.754 469.053C472.822 467.937 471.632 465.876 471.632 463.645L471.632 421.355C471.632 419.124 472.822 417.063 474.754 415.947L511.378 394.803Z" fill="url(#paint10_linear_4_2132)"/>
<path d="M511.628 395.235C513.405 394.209 515.595 394.209 517.372 395.235L553.996 416.38C555.773 417.406 556.868 419.303 556.868 421.355L556.868 463.645C556.868 465.569 555.906 467.356 554.321 468.417L553.996 468.62L517.372 489.765C515.595 490.791 513.405 490.791 511.628 489.765L475.004 468.62C473.227 467.594 472.132 465.697 472.132 463.645L472.132 421.355C472.132 419.431 473.094 417.644 474.679 416.583L475.004 416.38L511.628 395.235Z" stroke="#ECECEC" style="mix-blend-mode:color-dodge"/>
</g>
<g filter="url(#filter8_di_4_2132)">
<path d="M536.196 439.803H516.283V434.847H517.942C518.822 434.847 519.666 434.498 520.289 433.879C520.911 433.259 521.261 432.419 521.261 431.542V424.934C521.261 424.058 520.911 423.217 520.289 422.598C519.666 421.978 518.822 421.63 517.942 421.63H511.304C510.424 421.63 509.58 421.978 508.957 422.598C508.335 423.217 507.985 424.058 507.985 424.934V431.542C507.985 432.419 508.335 433.259 508.957 433.879C509.58 434.498 510.424 434.847 511.304 434.847H512.964V439.803H493.05C492.61 439.803 492.188 439.977 491.877 440.287C491.565 440.597 491.391 441.017 491.391 441.455C491.391 441.893 491.565 442.313 491.877 442.623C492.188 442.933 492.61 443.107 493.05 443.107H499.688V449.715H498.028C497.148 449.715 496.304 450.063 495.682 450.683C495.059 451.303 494.71 452.143 494.71 453.02V459.628C494.71 460.504 495.059 461.345 495.682 461.964C496.304 462.584 497.148 462.932 498.028 462.932H504.666C505.547 462.932 506.391 462.584 507.013 461.964C507.636 461.345 507.985 460.504 507.985 459.628V453.02C507.985 452.143 507.636 451.303 507.013 450.683C506.391 450.063 505.547 449.715 504.666 449.715H503.007V443.107H526.239V449.715H524.58C523.7 449.715 522.855 450.063 522.233 450.683C521.611 451.303 521.261 452.143 521.261 453.02V459.628C521.261 460.504 521.611 461.345 522.233 461.964C522.855 462.584 523.7 462.932 524.58 462.932H531.218C532.098 462.932 532.942 462.584 533.565 461.964C534.187 461.345 534.537 460.504 534.537 459.628V453.02C534.537 452.143 534.187 451.303 533.565 450.683C532.942 450.063 532.098 449.715 531.218 449.715H529.558V443.107H536.196C536.636 443.107 537.058 442.933 537.369 442.623C537.681 442.313 537.856 441.893 537.856 441.455C537.856 441.017 537.681 440.597 537.369 440.287C537.058 439.977 536.636 439.803 536.196 439.803ZM511.304 424.934H517.942V431.542H511.304V424.934ZM504.666 459.628H498.028V453.02H504.666V459.628ZM531.218 459.628H524.58V453.02H531.218V459.628Z" fill="#FF5900"/>
</g>
</g>
<defs>
<filter id="filter0_di_4_2132" x="6.83867" y="136.905" width="212.323" height="238.189" filterUnits="userSpaceOnUse" color-interpolation-filters="sRGB">
<feFlood flood-opacity="0" result="BackgroundImageFix"/>
<feColorMatrix in="SourceAlpha" type="matrix" values="0 0 0 0 0 0 0 0 0 0 0 0 0 0 0 0 0 0 127 0" result="hardAlpha"/>
<feOffset/>
<feGaussianBlur stdDeviation="4.15"/>
<feComposite in2="hardAlpha" operator="out"/>
<feColorMatrix type="matrix" values="0 0 0 0 0 0 0 0 0 0 0 0 0 0 0 0 0 0 0.25 0"/>
<feBlend mode="normal" in2="BackgroundImageFix" result="effect1_dropShadow_4_2132"/>
<feBlend mode="normal" in="SourceGraphic" in2="effect1_dropShadow_4_2132" result="shape"/>
<feColorMatrix in="SourceAlpha" type="matrix" values="0 0 0 0 0 0 0 0 0 0 0 0 0 0 0 0 0 0 127 0" result="hardAlpha"/>
<feOffset/>
<feGaussianBlur stdDeviation="16.15"/>
<feComposite in2="hardAlpha" operator="arithmetic" k2="-1" k3="1"/>
<feColorMatrix type="matrix" values="0 0 0 0 1 0 0 0 0 1 0 0 0 0 1 0 0 0 0.67 0"/>
<feBlend mode="normal" in2="shape" result="effect2_innerShadow_4_2132"/>
</filter>
<filter id="filter1_di_4_2132" x="467.995" y="-2.66978" width="93.01" height="104.34" filterUnits="userSpaceOnUse" color-interpolation-filters="sRGB">
<feFlood flood-opacity="0" result="BackgroundImageFix"/>
<feColorMatrix in="SourceAlpha" type="matrix" values="0 0 0 0 0 0 0 0 0 0 0 0 0 0 0 0 0 0 127 0" result="hardAlpha"/>
<feOffset/>
<feGaussianBlur stdDeviation="1.81792"/>
<feComposite in2="hardAlpha" operator="out"/>
<feColorMatrix type="matrix" values="0 0 0 0 0 0 0 0 0 0 0 0 0 0 0 0 0 0 0.25 0"/>
<feBlend mode="normal" in2="BackgroundImageFix" result="effect1_dropShadow_4_2132"/>
<feBlend mode="normal" in="SourceGraphic" in2="effect1_dropShadow_4_2132" result="shape"/>
<feColorMatrix in="SourceAlpha" type="matrix" values="0 0 0 0 0 0 0 0 0 0 0 0 0 0 0 0 0 0 127 0" result="hardAlpha"/>
<feOffset/>
<feGaussianBlur stdDeviation="6.9"/>
<feComposite in2="hardAlpha" operator="arithmetic" k2="-1" k3="1"/>
<feColorMatrix type="matrix" values="0 0 0 0 1 0 0 0 0 1 0 0 0 0 1 0 0 0 0.67 0"/>
<feBlend mode="normal" in2="shape" result="effect2_innerShadow_4_2132"/>
</filter>
<filter id="filter2_di_4_2132" x="467.868" y="5.49586" width="93.5102" height="87.5703" filterUnits="userSpaceOnUse" color-interpolation-filters="sRGB">
<feFlood flood-opacity="0" result="BackgroundImageFix"/>
<feColorMatrix in="SourceAlpha" type="matrix" values="0 0 0 0 0 0 0 0 0 0 0 0 0 0 0 0 0 0 127 0" result="hardAlpha"/>
<feOffset/>
<feGaussianBlur stdDeviation="3.82287"/>
<feComposite in2="hardAlpha" operator="out"/>
<feColorMatrix type="matrix" values="0 0 0 0 0 0 0 0 0 0 0 0 0 0 0 0 0 0 0.25 0"/>
<feBlend mode="normal" in2="BackgroundImageFix" result="effect1_dropShadow_4_2132"/>
<feBlend mode="normal" in="SourceGraphic" in2="effect1_dropShadow_4_2132" result="shape"/>
<feColorMatrix in="SourceAlpha" type="matrix" values="0 0 0 0 0 0 0 0 0 0 0 0 0 0 0 0 0 0 127 0" result="hardAlpha"/>
<feOffset/>
<feGaussianBlur stdDeviation="10.8238"/>
<feComposite in2="hardAlpha" operator="arithmetic" k2="-1" k3="1"/>
<feColorMatrix type="matrix" values="0 0 0 0 1 0 0 0 0 1 0 0 0 0 1 0 0 0 0.25 0"/>
<feBlend mode="normal" in2="shape" result="effect2_innerShadow_4_2132"/>
</filter>
<filter id="filter3_di_4_2132" x="467.995" y="120.33" width="93.01" height="104.34" filterUnits="userSpaceOnUse" color-interpolation-filters="sRGB">
<feFlood flood-opacity="0" result="BackgroundImageFix"/>
<feColorMatrix in="SourceAlpha" type="matrix" values="0 0 0 0 0 0 0 0 0 0 0 0 0 0 0 0 0 0 127 0" result="hardAlpha"/>
<feOffset/>
<feGaussianBlur stdDeviation="1.81792"/>
<feComposite in2="hardAlpha" operator="out"/>
<feColorMatrix type="matrix" values="0 0 0 0 0 0 0 0 0 0 0 0 0 0 0 0 0 0 0.25 0"/>
<feBlend mode="normal" in2="BackgroundImageFix" result="effect1_dropShadow_4_2132"/>
<feBlend mode="normal" in="SourceGraphic" in2="effect1_dropShadow_4_2132" result="shape"/>
<feColorMatrix in="SourceAlpha" type="matrix" values="0 0 0 0 0 0 0 0 0 0 0 0 0 0 0 0 0 0 127 0" result="hardAlpha"/>
<feOffset/>
<feGaussianBlur stdDeviation="6.9"/>
<feComposite in2="hardAlpha" operator="arithmetic" k2="-1" k3="1"/>
<feColorMatrix type="matrix" values="0 0 0 0 1 0 0 0 0 1 0 0 0 0 1 0 0 0 0.67 0"/>
<feBlend mode="normal" in2="shape" result="effect2_innerShadow_4_2132"/>
</filter>
<filter id="filter4_di_4_2132" x="467.87" y="125.656" width="93.5083" height="93.2502" filterUnits="userSpaceOnUse" color-interpolation-filters="sRGB">
<feFlood flood-opacity="0" result="BackgroundImageFix"/>
<feColorMatrix in="SourceAlpha" type="matrix" values="0 0 0 0 0 0 0 0 0 0 0 0 0 0 0 0 0 0 127 0" result="hardAlpha"/>
<feOffset/>
<feGaussianBlur stdDeviation="3.82287"/>
<feComposite in2="hardAlpha" operator="out"/>
<feColorMatrix type="matrix" values="0 0 0 0 0 0 0 0 0 0 0 0 0 0 0 0 0 0 0.25 0"/>
<feBlend mode="normal" in2="BackgroundImageFix" result="effect1_dropShadow_4_2132"/>
<feBlend mode="normal" in="SourceGraphic" in2="effect1_dropShadow_4_2132" result="shape"/>
<feColorMatrix in="SourceAlpha" type="matrix" values="0 0 0 0 0 0 0 0 0 0 0 0 0 0 0 0 0 0 127 0" result="hardAlpha"/>
<feOffset/>
<feGaussianBlur stdDeviation="10.8238"/>
<feComposite in2="hardAlpha" operator="arithmetic" k2="-1" k3="1"/>
<feColorMatrix type="matrix" values="0 0 0 0 1 0 0 0 0 1 0 0 0 0 1 0 0 0 0.25 0"/>
<feBlend mode="normal" in2="shape" result="effect2_innerShadow_4_2132"/>
</filter>
<filter id="filter5_di_4_2132" x="467.995" y="261.33" width="93.01" height="104.34" filterUnits="userSpaceOnUse" color-interpolation-filters="sRGB">
<feFlood flood-opacity="0" result="BackgroundImageFix"/>
<feColorMatrix in="SourceAlpha" type="matrix" values="0 0 0 0 0 0 0 0 0 0 0 0 0 0 0 0 0 0 127 0" result="hardAlpha"/>
<feOffset/>
<feGaussianBlur stdDeviation="1.81792"/>
<feComposite in2="hardAlpha" operator="out"/>
<feColorMatrix type="matrix" values="0 0 0 0 0 0 0 0 0 0 0 0 0 0 0 0 0 0 0.25 0"/>
<feBlend mode="normal" in2="BackgroundImageFix" result="effect1_dropShadow_4_2132"/>
<feBlend mode="normal" in="SourceGraphic" in2="effect1_dropShadow_4_2132" result="shape"/>
<feColorMatrix in="SourceAlpha" type="matrix" values="0 0 0 0 0 0 0 0 0 0 0 0 0 0 0 0 0 0 127 0" result="hardAlpha"/>
<feOffset/>
<feGaussianBlur stdDeviation="6.9"/>
<feComposite in2="hardAlpha" operator="arithmetic" k2="-1" k3="1"/>
<feColorMatrix type="matrix" values="0 0 0 0 1 0 0 0 0 1 0 0 0 0 1 0 0 0 0.67 0"/>
<feBlend mode="normal" in2="shape" result="effect2_innerShadow_4_2132"/>
</filter>
<filter id="filter6_di_4_2132" x="467.87" y="266.527" width="93.5083" height="93.5076" filterUnits="userSpaceOnUse" color-interpolation-filters="sRGB">
<feFlood flood-opacity="0" result="BackgroundImageFix"/>
<feColorMatrix in="SourceAlpha" type="matrix" values="0 0 0 0 0 0 0 0 0 0 0 0 0 0 0 0 0 0 127 0" result="hardAlpha"/>
<feOffset/>
<feGaussianBlur stdDeviation="3.82287"/>
<feComposite in2="hardAlpha" operator="out"/>
<feColorMatrix type="matrix" values="0 0 0 0 0 0 0 0 0 0 0 0 0 0 0 0 0 0 0.25 0"/>
<feBlend mode="normal" in2="BackgroundImageFix" result="effect1_dropShadow_4_2132"/>
<feBlend mode="normal" in="SourceGraphic" in2="effect1_dropShadow_4_2132" result="shape"/>
<feColorMatrix in="SourceAlpha" type="matrix" values="0 0 0 0 0 0 0 0 0 0 0 0 0 0 0 0 0 0 127 0" result="hardAlpha"/>
<feOffset/>
<feGaussianBlur stdDeviation="10.8238"/>
<feComposite in2="hardAlpha" operator="arithmetic" k2="-1" k3="1"/>
<feColorMatrix type="matrix" values="0 0 0 0 1 0 0 0 0 1 0 0 0 0 1 0 0 0 0.25 0"/>
<feBlend mode="normal" in2="shape" result="effect2_innerShadow_4_2132"/>
</filter>
<filter id="filter7_di_4_2132" x="467.995" y="390.33" width="93.01" height="104.34" filterUnits="userSpaceOnUse" color-interpolation-filters="sRGB">
<feFlood flood-opacity="0" result="BackgroundImageFix"/>
<feColorMatrix in="SourceAlpha" type="matrix" values="0 0 0 0 0 0 0 0 0 0 0 0 0 0 0 0 0 0 127 0" result="hardAlpha"/>
<feOffset/>
<feGaussianBlur stdDeviation="1.81792"/>
<feComposite in2="hardAlpha" operator="out"/>
<feColorMatrix type="matrix" values="0 0 0 0 0 0 0 0 0 0 0 0 0 0 0 0 0 0 0.25 0"/>
<feBlend mode="normal" in2="BackgroundImageFix" result="effect1_dropShadow_4_2132"/>
<feBlend mode="normal" in="SourceGraphic" in2="effect1_dropShadow_4_2132" result="shape"/>
<feColorMatrix in="SourceAlpha" type="matrix" values="0 0 0 0 0 0 0 0 0 0 0 0 0 0 0 0 0 0 127 0" result="hardAlpha"/>
<feOffset/>
<feGaussianBlur stdDeviation="6.9"/>
<feComposite in2="hardAlpha" operator="arithmetic" k2="-1" k3="1"/>
<feColorMatrix type="matrix" values="0 0 0 0 1 0 0 0 0 1 0 0 0 0 1 0 0 0 0.67 0"/>
<feBlend mode="normal" in2="shape" result="effect2_innerShadow_4_2132"/>
</filter>
<filter id="filter8_di_4_2132" x="467.87" y="395.527" width="93.5083" height="93.5076" filterUnits="userSpaceOnUse" color-interpolation-filters="sRGB">
<feFlood flood-opacity="0" result="BackgroundImageFix"/>
<feColorMatrix in="SourceAlpha" type="matrix" values="0 0 0 0 0 0 0 0 0 0 0 0 0 0 0 0 0 0 127 0" result="hardAlpha"/>
<feOffset/>
<feGaussianBlur stdDeviation="3.82287"/>
<feComposite in2="hardAlpha" operator="out"/>
<feColorMatrix type="matrix" values="0 0 0 0 0 0 0 0 0 0 0 0 0 0 0 0 0 0 0.25 0"/>
<feBlend mode="normal" in2="BackgroundImageFix" result="effect1_dropShadow_4_2132"/>
<feBlend mode="normal" in="SourceGraphic" in2="effect1_dropShadow_4_2132" result="shape"/>
<feColorMatrix in="SourceAlpha" type="matrix" values="0 0 0 0 0 0 0 0 0 0 0 0 0 0 0 0 0 0 127 0" result="hardAlpha"/>
<feOffset/>
<feGaussianBlur stdDeviation="10.8238"/>
<feComposite in2="hardAlpha" operator="arithmetic" k2="-1" k3="1"/>
<feColorMatrix type="matrix" values="0 0 0 0 1 0 0 0 0 1 0 0 0 0 1 0 0 0 0.25 0"/>
<feBlend mode="normal" in2="shape" result="effect2_innerShadow_4_2132"/>
</filter>
<linearGradient id="paint0_linear_4_2132" x1="341.84" y1="265" x2="341.84" y2="320.845" gradientUnits="userSpaceOnUse">
<stop stop-color="white"/>
<stop offset="1" stop-color="#999999"/>
</linearGradient>
<linearGradient id="paint1_linear_4_2132" x1="341.751" y1="54" x2="341.751" y2="208.33" gradientUnits="userSpaceOnUse">
<stop stop-color="white"/>
<stop offset="1" stop-color="#999999"/>
</linearGradient>
<linearGradient id="paint2_linear_4_2132" x1="346.976" y1="293" x2="346.976" y2="450.12" gradientUnits="userSpaceOnUse">
<stop stop-color="white"/>
<stop offset="1" stop-color="#999999"/>
</linearGradient>
<linearGradient id="paint3_linear_4_2132" x1="346.471" y1="181" x2="346.471" y2="234.801" gradientUnits="userSpaceOnUse">
<stop stop-color="white"/>
<stop offset="1" stop-color="#999999"/>
</linearGradient>
<linearGradient id="paint4_linear_4_2132" x1="479" y1="238.5" x2="45.5" y2="242" gradientUnits="userSpaceOnUse">
<stop stop-color="white"/>
<stop offset="1" stop-opacity="0"/>
</linearGradient>
<linearGradient id="paint5_linear_4_2132" x1="344.5" y1="41" x2="344.5" y2="485" gradientUnits="userSpaceOnUse">
<stop stop-color="white"/>
<stop offset="1" stop-color="#999999"/>
</linearGradient>
<linearGradient id="paint6_linear_4_2132" x1="27.5" y1="136.5" x2="135" y2="314" gradientUnits="userSpaceOnUse">
<stop stop-color="#474747"/>
<stop offset="1"/>
</linearGradient>
<linearGradient id="paint7_linear_4_2132" x1="477.046" y1="-2.84735" x2="524.137" y2="74.9071" gradientUnits="userSpaceOnUse">
<stop stop-color="#474747"/>
<stop offset="1"/>
</linearGradient>
<linearGradient id="paint8_linear_4_2132" x1="477.046" y1="120.153" x2="524.137" y2="197.907" gradientUnits="userSpaceOnUse">
<stop stop-color="#474747"/>
<stop offset="1"/>
</linearGradient>
<linearGradient id="paint9_linear_4_2132" x1="477.046" y1="261.153" x2="524.137" y2="338.907" gradientUnits="userSpaceOnUse">
<stop stop-color="#474747"/>
<stop offset="1"/>
</linearGradient>
<linearGradient id="paint10_linear_4_2132" x1="477.046" y1="390.153" x2="524.137" y2="467.907" gradientUnits="userSpaceOnUse">
<stop stop-color="#474747"/>
<stop offset="1"/>
</linearGradient>
<clipPath id="clip0_4_2132">
<rect width="569.507" height="499.507" fill="white"/>
</clipPath>
<clipPath id="clip1_4_2132">
<rect width="226" height="226" fill="white" transform="translate(0 143)"/>
</clipPath>
</defs>
</svg>
