<svg width="68" height="69" viewBox="0 0 68 69" fill="none" xmlns="http://www.w3.org/2000/svg">
<rect x="0.484375" y="0.973145" width="67" height="67" rx="33.5" fill="#FF6A00"/>
<path d="M11.6982 12.0686V38.8284C11.7063 40.8613 12.103 42.874 12.8669 44.7578C13.5888 46.6175 14.5599 48.3706 15.7535 49.9689C16.9821 51.5754 18.3586 53.0631 19.865 54.4125C21.2604 55.6923 22.7296 56.8892 24.2652 57.9969C25.617 58.9546 27.018 59.8489 28.4894 60.701C29.9608 61.5531 30.9887 62.1094 31.6083 62.4263C32.2278 62.7432 32.7136 62.9545 33.0868 63.1305C33.3681 63.2729 33.6797 63.3453 33.995 63.3418V5.604L11.6982 12.0686Z" fill="white"/>
<path d="M33.2563 43.5468L33.1155 43.6735C33.3349 43.7917 33.525 43.9578 33.6716 44.1594C33.7544 43.9345 33.7833 43.6933 33.7561 43.4552C33.583 43.4448 33.4104 43.4813 33.2563 43.5608M33.8547 43.4552C33.8221 43.7264 33.8635 44.0014 33.9744 44.251C34.1063 44.0242 34.299 43.8389 34.5306 43.7158L34.3546 43.5608C34.2005 43.4813 34.0278 43.4448 33.8547 43.4552ZM34.425 53.7014C34.5364 53.7622 34.6325 53.8478 34.7057 53.9516C34.7789 54.0554 34.8274 54.1745 34.8474 54.3C34.8839 54.4229 34.8861 54.5535 34.8538 54.6776C34.8216 54.8017 34.7561 54.9146 34.6643 55.0042C34.5094 55.1591 34.3182 55.2728 34.1081 55.3352C34.3623 55.3787 34.6031 55.4799 34.8122 55.6309L34.8967 55.5675C35.0749 55.4256 35.2161 55.2425 35.3081 55.034C35.4001 54.8255 35.4401 54.5978 35.4247 54.3704C35.4131 54.1423 35.3539 53.9192 35.2509 53.7154C35.1478 53.5116 35.0031 53.3317 34.8263 53.1873C34.5028 52.9639 34.1131 52.8571 33.7209 52.8845C33.4293 52.8923 33.1393 52.8395 32.869 52.7296C32.7621 52.6922 32.6678 52.6255 32.5968 52.5371C32.5259 52.4487 32.4812 52.3422 32.4678 52.2296C32.4459 51.9589 32.5319 51.6906 32.7071 51.4832C32.7794 51.4001 32.8681 51.333 32.9676 51.286H32.869C32.6213 51.2186 32.3843 51.1167 32.165 50.9832C31.924 51.3008 31.7842 51.6835 31.7637 52.0817C31.7559 52.3594 31.8346 52.6325 31.989 52.8634C32.1184 53.06 32.2984 53.2181 32.51 53.3211C32.851 53.4811 33.2248 53.5583 33.6012 53.5465C33.8809 53.5024 34.1674 53.5416 34.425 53.6591M34.3475 57.7576C34.2081 57.5756 34.0166 57.4405 33.7984 57.3703C33.6142 57.3117 33.444 57.2158 33.2985 57.0886C33.1605 56.9489 33.0831 56.7604 33.0831 56.564C33.0831 56.3676 33.1605 56.1791 33.2985 56.0394L33.383 55.983C33.2281 55.9196 33.0662 55.8422 32.9043 55.7858C32.7681 55.9696 32.6919 56.191 32.686 56.4196C32.6646 56.7449 32.7706 57.0656 32.9817 57.314C33.383 57.7506 33.8688 57.6661 34.087 57.9055C34.1958 58.0157 34.2754 58.1514 34.3184 58.3003C34.3614 58.4491 34.3666 58.6063 34.3334 58.7576C34.3254 58.8936 34.2728 59.0233 34.1837 59.1264C34.0946 59.2295 33.974 59.3004 33.8406 59.328C33.8406 59.328 33.8899 59.3773 34.0307 59.328C34.1432 59.3044 34.2464 59.2486 34.3277 59.1673C34.4089 59.086 34.4648 58.9828 34.4883 58.8703C34.5417 58.7019 34.5655 58.5256 34.5587 58.3492C34.5567 58.1231 34.4827 57.9036 34.3475 57.7224M33.3126 58.7858C33.281 58.6338 33.2876 58.4765 33.3318 58.3277C33.376 58.179 33.4565 58.0436 33.566 57.9337C33.5839 57.9115 33.6053 57.8924 33.6294 57.8773C33.532 57.8352 33.4378 57.7858 33.3478 57.7295L33.2985 57.7858C33.1696 57.9702 33.0963 58.1877 33.0873 58.4125C33.084 58.5888 33.1078 58.7646 33.1577 58.9336C33.1834 59.0463 33.2408 59.1493 33.3232 59.2304C33.4055 59.3115 33.5093 59.3674 33.6224 59.3914C33.7561 59.3914 33.8195 59.3914 33.8054 59.3914C33.672 59.3637 33.5514 59.2929 33.4623 59.1898C33.3732 59.0866 33.3206 58.957 33.3126 58.821M34.9319 56.4478C34.9328 56.2699 34.8887 56.0946 34.8038 55.9382C34.7188 55.7819 34.5958 55.6495 34.4461 55.5535C34.1845 55.4212 33.9002 55.3399 33.6083 55.314C33.3614 55.266 33.1352 55.143 32.9606 54.9619C32.8689 54.8723 32.8033 54.7594 32.7711 54.6353C32.7388 54.5112 32.741 54.3806 32.7775 54.2577C32.8091 54.0484 32.92 53.8593 33.0873 53.7296H32.9465C32.7846 53.6732 32.6297 53.5887 32.4748 53.5253C32.3214 53.7696 32.2296 54.0476 32.2073 54.3352C32.1919 54.5626 32.2319 54.7903 32.3238 54.9988C32.4158 55.2073 32.557 55.3904 32.7353 55.5323C33.0058 55.7418 33.3308 55.8689 33.6716 55.8985C33.9025 55.8912 34.1303 55.9525 34.3264 56.0746C34.4001 56.1406 34.4591 56.2215 34.4995 56.3119C34.5399 56.4023 34.5608 56.5002 34.5608 56.5992C34.5608 56.6982 34.5399 56.7961 34.4995 56.8865C34.4591 56.9769 34.4001 57.0578 34.3264 57.1238C34.2223 57.2213 34.1004 57.2978 33.9673 57.3492C34.1107 57.4121 34.2495 57.4851 34.3827 57.5675C34.4815 57.5073 34.5715 57.4339 34.6503 57.3492C34.7548 57.2252 34.8336 57.0817 34.8819 56.9269C34.9303 56.7721 34.9473 56.6092 34.9319 56.4478ZM35.3402 50.7367C35.0353 50.451 34.6439 50.2751 34.2278 50.2367C33.8886 50.232 33.55 50.2061 33.214 50.1592C32.5945 50.0677 31.9679 49.6663 32.0242 49.2649C32.028 49.0362 32.1085 48.8154 32.2528 48.6379C32.3971 48.4604 32.5967 48.3365 32.8198 48.2861C32.4369 48.2351 32.0668 48.1133 31.7285 47.9269H31.6933C31.5196 48.1254 31.3872 48.3566 31.3038 48.6069C31.2204 48.8572 31.1876 49.1215 31.2075 49.3846C31.2261 49.6849 31.3259 49.9746 31.4962 50.2226C31.6458 50.4182 31.8294 50.5852 32.0383 50.7156C32.3947 50.9163 32.7869 51.0455 33.1929 51.0958C33.5801 51.1522 33.9744 51.0958 34.249 51.1381C34.5135 51.1634 34.7617 51.2776 34.953 51.462C35.1224 51.6726 35.2077 51.9386 35.1924 52.2085C35.1784 52.3219 35.1326 52.429 35.0604 52.5174C34.9881 52.6059 34.8923 52.6721 34.784 52.7085C34.7026 52.745 34.6177 52.7733 34.5306 52.793C34.7988 52.9331 35.0575 53.0907 35.305 53.2648C35.4457 53.1734 35.5656 53.0534 35.657 52.9127C35.8195 52.6668 35.9007 52.3762 35.8894 52.0817C35.9022 51.8239 35.8627 51.5662 35.7732 51.3241C35.6836 51.082 35.5459 50.8606 35.3684 50.6733M33.8125 44.096L33.5238 44.9411C33.5238 45.5537 33.5238 46.2016 33.5238 46.8706H34.0729C34.0729 46.1664 34.0729 45.5537 34.0729 44.9411L33.8125 44.096ZM33.8125 43.0116L34.1081 42.3707V41.9834C34.1081 41.8074 33.9744 41.737 33.8125 41.737C33.6505 41.737 33.5168 41.7862 33.5168 41.9834V42.3707L33.8125 43.0116ZM33.5238 48.3072C33.5238 48.8776 33.5238 49.455 33.5238 50.0395H34.0166C34.0166 49.455 34.0166 48.8776 34.0166 48.3072H33.5238ZM33.5238 51.2508C33.5238 51.7648 33.5238 52.2719 33.5238 52.7789H33.9533C33.9533 52.2789 33.9533 51.7648 33.9533 51.2508H33.5238ZM33.9251 55.1802C33.9251 54.6873 33.9251 54.1732 33.9251 53.6451H33.5238C33.5238 54.1732 33.5238 54.6873 33.5238 55.1802H33.9251ZM33.8829 57.2928C33.8829 56.8985 33.8829 56.483 33.8829 56.0394H33.559C33.559 56.483 33.559 56.8985 33.559 57.2928H33.8829ZM33.6224 57.9548C33.6076 58.8068 33.6546 59.6588 33.7632 60.504C33.7984 60.504 33.8336 59.49 33.8688 57.9548H33.6224ZM33.7632 39.4976C33.5839 39.4687 33.4001 39.4956 33.2365 39.5747C33.073 39.6537 32.9377 39.781 32.8488 39.9393C32.7599 40.0977 32.7218 40.2796 32.7395 40.4604C32.7573 40.6411 32.8301 40.8121 32.9481 40.9502C33.0661 41.0882 33.2236 41.1868 33.3994 41.2324C33.5751 41.2781 33.7607 41.2687 33.9309 41.2055C34.1012 41.1423 34.2479 41.0284 34.3514 40.8791C34.4549 40.7299 34.51 40.5524 34.5094 40.3708C34.5232 40.1567 34.4529 39.9457 34.3135 39.7826C34.1742 39.6196 33.9767 39.5173 33.7632 39.4976ZM33.7632 41.3285C33.5238 41.3285 33.3126 41.1736 33.2422 41.251C33.1718 41.3285 33.3619 41.7581 33.7632 41.7581C34.1645 41.7581 34.3546 41.3144 34.2842 41.251C34.2138 41.1877 34.0025 41.3426 33.7632 41.3285ZM36.4174 49.3846C36.4 49.6863 36.2974 49.9769 36.1217 50.2226C35.988 50.4007 35.8235 50.5534 35.6359 50.6733C35.3646 50.4001 35.0276 50.2013 34.6573 50.0959C35.1994 49.9621 35.6993 49.6029 35.65 49.2438C35.65 48.6734 35.2135 48.3354 34.6151 48.1875C33.552 47.941 31.7989 48.3917 30.771 46.7791C30.6473 46.5628 30.5706 46.3228 30.5457 46.0749C30.5212 45.8572 30.5212 45.6376 30.5457 45.4199C30.6038 45.0106 30.7913 44.6306 31.0808 44.3355C31.5466 43.9331 32.141 43.7108 32.7564 43.7087C33.0169 43.7087 33.4252 44.0327 33.6012 44.3496C33.6014 44.3996 33.5867 44.4487 33.559 44.4904C33.363 44.6931 33.0946 44.8096 32.8127 44.8143C32.4044 44.8143 32.1721 44.3425 31.644 45.0115C31.5276 45.2104 31.4646 45.436 31.461 45.6664C31.4222 45.8721 31.4519 46.0848 31.5455 46.272C31.6988 46.4712 31.8907 46.6374 32.1096 46.7608C32.3285 46.8842 32.57 46.9622 32.8198 46.9903C33.1223 47.0417 33.4282 47.0699 33.735 47.0748C34.1013 47.0824 34.4654 47.1344 34.8192 47.2298C35.2402 47.3362 35.623 47.5581 35.9246 47.8706C36.109 48.0705 36.2504 48.3061 36.34 48.5629C36.4296 48.8197 36.4655 49.0922 36.4455 49.3635M32.7142 43.9834C32.7142 44.0039 32.7223 44.0236 32.7368 44.0381C32.7514 44.0527 32.7711 44.0608 32.7916 44.0608C32.8121 44.0608 32.8318 44.0527 32.8464 44.0381C32.8609 44.0236 32.869 44.0039 32.869 43.9834C32.869 43.9628 32.8609 43.9431 32.8464 43.9286C32.8318 43.9141 32.8121 43.9059 32.7916 43.9059C32.7711 43.9059 32.7514 43.9141 32.7368 43.9286C32.7223 43.9431 32.7142 43.9628 32.7142 43.9834ZM37.1144 46.096C37.0862 46.3432 37.0097 46.5825 36.8891 46.8002C36.6764 47.1395 36.387 47.4242 36.0442 47.6311C35.8464 47.4871 35.6368 47.3599 35.4176 47.2509C35.235 47.1505 35.0443 47.0657 34.8474 46.9974H34.7699H34.8122C35.0678 46.9657 35.3143 46.8826 35.5369 46.7532C35.7596 46.6237 35.9537 46.4504 36.1076 46.2439C36.2012 46.0566 36.2308 45.8439 36.1921 45.6382C36.1897 45.4067 36.124 45.1802 36.002 44.9833C35.481 44.3143 35.2487 44.8143 34.8403 44.7862C34.5939 44.7862 34.0518 44.6242 34.0518 44.3214C34.1353 44.1592 34.2538 44.0176 34.3987 43.9068C34.5436 43.7959 34.7113 43.7187 34.8896 43.6806C35.5075 43.6809 36.1046 43.9034 36.5723 44.3073C36.883 44.6251 37.0745 45.0406 37.1144 45.4833C37.1425 45.7007 37.1425 45.9208 37.1144 46.1382M34.9319 43.9834C34.9356 43.9708 34.9364 43.9574 34.9341 43.9445C34.9318 43.9315 34.9265 43.9193 34.9186 43.9087C34.9108 43.8982 34.9006 43.8896 34.8888 43.8837C34.877 43.8778 34.8641 43.8747 34.8509 43.8747C34.8377 43.8747 34.8248 43.8778 34.813 43.8837C34.8012 43.8896 34.791 43.8982 34.7832 43.9087C34.7753 43.9193 34.77 43.9315 34.7677 43.9445C34.7654 43.9574 34.7662 43.9708 34.7699 43.9834C34.769 43.9945 34.7702 44.0057 34.7736 44.0163C34.777 44.0269 34.7824 44.0368 34.7896 44.0453C34.7968 44.0538 34.8056 44.0608 34.8155 44.0659C34.8255 44.0709 34.8363 44.074 34.8474 44.0749C34.8591 44.075 34.8707 44.0726 34.8814 44.0679C34.8922 44.0632 34.9018 44.0563 34.9098 44.0477C34.9177 44.0391 34.9238 44.029 34.9276 44.0179C34.9314 44.0068 34.9328 43.995 34.9319 43.9834Z" fill="#231F20"/>
<path d="M34.2282 41.8211C34.4182 42.5253 35.7277 42.0324 35.08 41.2226C34.8336 40.9127 34.6083 40.8352 34.5802 40.3775C34.579 40.1944 34.6167 40.0131 34.6907 39.8456C34.7648 39.678 34.8734 39.5281 35.0096 39.4057C36.1572 38.3494 38.4735 38.8494 39.7126 39.3212C40.693 39.7929 41.7587 40.0612 42.8455 40.1099C43.8144 40.1126 44.7527 39.7707 45.4927 39.1452C45.2251 39.8494 45.4012 40.0958 44.2536 40.8352C43.4688 41.2066 42.5888 41.3271 41.7331 41.1803C40.4236 40.9479 39.5295 40.3071 38.213 40.0606C37.5089 39.9268 35.6362 39.5184 35.6785 40.7648C35.6785 41.3704 35.8545 41.7578 35.3405 42.2155C34.8266 42.6732 34.4394 42.4197 34.207 41.9268" fill="#231F20"/>
<path d="M36.0645 40.279L36.163 40.2438L36.4376 40.1874C36.5853 40.1791 36.7334 40.1791 36.8811 40.1874C37.0733 40.1738 37.2662 40.1738 37.4584 40.1874C37.6954 40.2124 37.9306 40.2524 38.1625 40.3072C38.2924 40.3451 38.4194 40.3921 38.5426 40.448L38.7046 40.5395C38.7662 40.5695 38.8251 40.6048 38.8806 40.6452C39.1059 40.786 39.3241 40.9409 39.5846 41.0888C39.7922 41.2391 40.0138 41.3688 40.2464 41.4761C40.4738 41.5625 40.7098 41.6239 40.9504 41.6592C41.1996 41.6987 41.4515 41.7176 41.7038 41.7156C41.9502 41.7156 42.1895 41.7156 42.4078 41.7156C42.626 41.7156 42.8443 41.6522 43.0414 41.6099C43.3586 41.5383 43.6676 41.4344 43.9637 41.3001L44.2101 41.1663L44.2946 41.117L44.2312 41.1945C44.1819 41.2367 44.1186 41.3071 44.02 41.3846C43.7549 41.604 43.4551 41.7778 43.1329 41.8987C42.9212 41.9879 42.7021 42.0586 42.4782 42.1099C42.2262 42.1701 41.9694 42.2078 41.7108 42.2226C41.4344 42.2471 41.1564 42.2471 40.88 42.2226C40.7322 42.2226 40.5914 42.1803 40.4435 42.1451C40.2966 42.1075 40.153 42.058 40.0141 41.9973C39.7366 41.8672 39.4745 41.7066 39.2326 41.5184L38.6131 41.0325L38.4511 40.8917L38.3103 40.8142C38.2177 40.7603 38.1212 40.7132 38.0217 40.6733C37.8213 40.5982 37.6168 40.5347 37.4092 40.4832C37.212 40.4339 37.029 40.3987 36.867 40.3705C36.7274 40.3441 36.5864 40.3253 36.4446 40.3142H36.163L36.0645 40.279Z" fill="#231F20"/>
<path d="M36.0371 40.5325H36.1146C36.1895 40.527 36.2648 40.527 36.3398 40.5325C36.4593 40.5224 36.5794 40.5224 36.6989 40.5325C36.8555 40.5469 37.0108 40.5728 37.1636 40.61C37.5429 40.7173 37.9021 40.8862 38.2267 41.11C38.4091 41.2342 38.5809 41.3731 38.7406 41.5255C38.8251 41.5959 38.9096 41.6804 38.98 41.7508L39.0363 41.8001L39.0856 41.8424L39.1982 41.9269C39.5338 42.1334 39.9032 42.2788 40.2895 42.3564C40.6383 42.4366 40.9947 42.4791 41.3526 42.4832C41.6119 42.4904 41.8714 42.4715 42.127 42.4269L42.3382 42.3776H42.4156L42.3523 42.4269L42.1622 42.5466C41.9156 42.6706 41.6524 42.7584 41.3807 42.8071C41.1996 42.8413 41.0159 42.8601 40.8316 42.8635C40.6254 42.8807 40.4182 42.8807 40.212 42.8635C39.7484 42.8135 39.3026 42.6568 38.9096 42.4057C38.8553 42.3746 38.8035 42.3393 38.7547 42.3001L38.6772 42.2297L38.6209 42.1733L38.3886 41.941C38.2407 41.8001 38.0999 41.6593 37.945 41.5325C37.7901 41.4058 37.6423 41.2931 37.4945 41.1945C37.3543 41.1032 37.2085 41.0209 37.058 40.948C36.9283 40.8823 36.7942 40.8258 36.6567 40.779L36.3398 40.603L36.1216 40.5466L36.0371 40.5325Z" fill="#231F20"/>
<path d="M35.917 41.1031H35.9874C36.0459 41.0978 36.1049 41.0978 36.1634 41.1031C36.39 41.0958 36.6155 41.1366 36.8252 41.2228C37.1176 41.3448 37.3867 41.5163 37.6207 41.7299C37.8812 41.9482 38.1206 42.1876 38.3811 42.3848C38.5039 42.4849 38.6332 42.5767 38.7683 42.6594C38.9002 42.7336 39.0365 42.7995 39.1767 42.8566C39.3124 42.9053 39.4512 42.9452 39.592 42.9763C39.7243 43.0045 39.8584 43.0233 39.9933 43.0326H40.3383H40.8593L40.634 43.1383L40.3665 43.2298C40.2469 43.2659 40.1244 43.2919 40.0004 43.3073C39.8513 43.3306 39.7007 43.3424 39.5498 43.3425C39.3787 43.3389 39.2085 43.3152 39.0429 43.2721C38.8617 43.2282 38.6867 43.1619 38.5219 43.0749C38.3565 42.9873 38.1987 42.886 38.0502 42.7721C37.787 42.5531 37.5378 42.3179 37.3039 42.0679C37.1159 41.8565 36.9085 41.6632 36.6844 41.4904C36.5937 41.421 36.4971 41.3598 36.3957 41.3073L36.1493 41.2017L35.9804 41.1454L35.917 41.1031Z" fill="#231F20"/>
<path d="M36.1562 41.7296H36.1985C36.2379 41.721 36.2787 41.721 36.3182 41.7296C36.465 41.7717 36.6016 41.8436 36.7195 41.9408C36.8732 42.0767 37.0103 42.2304 37.1278 42.3986L37.3109 42.6521L37.3601 42.7084L37.4165 42.7648L37.4517 42.8L37.684 42.9479L37.9515 43.0676C38.1346 43.145 38.3176 43.2084 38.4725 43.2647L38.6908 43.3352L38.8597 43.3845L39.0146 43.4267C38.9647 43.4498 38.9128 43.4686 38.8597 43.4831C38.723 43.5267 38.5808 43.5504 38.4373 43.5535C38.2295 43.5635 38.0213 43.5469 37.8178 43.5042C37.6994 43.481 37.5838 43.4456 37.4728 43.3985C37.3501 43.3502 37.2342 43.2863 37.1278 43.2084L37.0433 43.2014V43.138L37.0081 43.0887L36.9518 43.0112C36.8884 42.9056 36.8321 42.807 36.7828 42.7084C36.7336 42.6098 36.6209 42.3493 36.5435 42.2084C36.4791 42.095 36.4062 41.9867 36.3252 41.8845L36.2478 41.8L36.1562 41.7296Z" fill="#231F20"/>
<path d="M35.5723 42.3563H35.699C35.75 42.3445 35.8029 42.3445 35.8539 42.3563C35.9215 42.3738 35.9857 42.4023 36.044 42.4408C36.1076 42.4891 36.1666 42.5433 36.22 42.6028C36.2771 42.6665 36.3289 42.7348 36.3749 42.807C36.4734 42.9478 36.5579 43.0957 36.6494 43.2365L36.7973 43.4196C36.8466 43.483 36.9029 43.5253 36.9522 43.5816C37.0015 43.6379 37.0648 43.6661 37.1282 43.6943C37.1915 43.7225 37.2479 43.7647 37.3042 43.7788L37.4732 43.8351H37.6069H37.7266L37.6069 43.8703H37.4591H37.269C37.1917 43.8771 37.1139 43.8771 37.0367 43.8703C36.9482 43.8455 36.8631 43.8101 36.7832 43.7647C36.6982 43.7139 36.6201 43.6524 36.5509 43.5816C36.4802 43.5156 36.4165 43.4424 36.3608 43.3633C36.3115 43.2788 36.2622 43.2013 36.22 43.1168L36.1073 42.8915C36.0721 42.8211 36.044 42.7436 36.0088 42.6873L35.9032 42.5183L35.8468 42.4549C35.8342 42.4351 35.8174 42.4182 35.7976 42.4056C35.7635 42.3751 35.7256 42.349 35.6849 42.3281L35.5723 42.3563Z" fill="#231F20"/>
<path d="M33.5227 41.7155C33.3607 42.4197 32.0301 41.9901 32.6497 41.1521C32.882 40.8352 33.1003 40.7437 33.1143 40.2859C33.1142 40.0968 33.0718 39.9101 32.9902 39.7395C32.9086 39.5689 32.7898 39.4188 32.6426 39.3C31.4528 38.286 29.1647 38.8775 27.9467 39.3986C26.9864 39.9226 25.9306 40.2483 24.842 40.3563C23.8669 40.394 22.9106 40.0818 22.1455 39.4761C22.4412 40.1803 22.2722 40.4197 23.448 41.1169C24.2452 41.4564 25.1276 41.5424 25.9754 41.3634C27.2779 41.0817 28.1439 40.4056 29.4393 40.1099C30.1433 39.9479 31.9949 39.469 31.9949 40.6944C31.9949 41.3 31.8612 41.7014 32.3962 42.138C32.9313 42.5746 33.3044 42.307 33.5156 41.8" fill="#231F20"/>
<path d="M31.6158 40.2441H31.5172C31.4247 40.2223 31.3305 40.2082 31.2356 40.2018C31.088 40.1899 30.9397 40.1899 30.7921 40.2018C30.6011 40.2061 30.4106 40.2225 30.2218 40.2511C29.9832 40.2754 29.7474 40.3225 29.5178 40.392C29.3881 40.4297 29.2629 40.4816 29.1446 40.5469L28.9757 40.6385L28.8067 40.7511L28.159 41.2229C27.9586 41.3822 27.7414 41.5192 27.5113 41.6314C27.2857 41.7309 27.0495 41.8041 26.8072 41.8497C26.5578 41.8914 26.3064 41.9196 26.0539 41.9342C25.8075 41.9342 25.5682 41.9342 25.3499 41.9342C25.1349 41.9183 24.921 41.8901 24.7092 41.8497C24.3922 41.7758 24.085 41.6647 23.794 41.5187C23.7065 41.4856 23.6217 41.4456 23.5405 41.399L23.4561 41.3567L23.5265 41.4272C23.5928 41.4949 23.6634 41.5584 23.7377 41.6173C24.0152 41.819 24.3213 41.9781 24.6459 42.0891C24.86 42.1716 25.0816 42.2329 25.3077 42.2722C25.5606 42.3224 25.8173 42.3506 26.0751 42.3567C26.355 42.3671 26.6354 42.3529 26.9129 42.3145C27.0581 42.2917 27.2016 42.2587 27.3423 42.2159C27.4905 42.1763 27.6344 42.122 27.7718 42.0539C28.0229 41.9199 28.2589 41.7594 28.4758 41.575C28.6941 41.399 28.8912 41.2229 29.0813 41.0751L29.2221 40.9624L29.377 40.8497C29.4652 40.7884 29.5595 40.7364 29.6586 40.6948C29.8555 40.6109 30.0577 40.5404 30.2641 40.4835C30.44 40.4298 30.6186 40.3852 30.7991 40.3497L31.2215 40.2723H31.5031L31.6158 40.2441Z" fill="#231F20"/>
<path d="M31.6509 40.4976H31.5735C31.4986 40.4888 31.423 40.4888 31.3482 40.4976C31.2287 40.4878 31.1086 40.4878 30.9891 40.4976C30.8337 40.5191 30.6806 40.5544 30.5315 40.6032C30.1553 40.7188 29.8026 40.9 29.4895 41.1384C29.3134 41.2701 29.1464 41.4137 28.9897 41.568L28.7573 41.8074L28.701 41.8637L28.6517 41.906L28.5461 41.9905C28.2184 42.2114 27.8535 42.3712 27.469 42.4623C27.1238 42.5554 26.7699 42.612 26.4129 42.6313C26.1553 42.655 25.8961 42.655 25.6385 42.6313L25.4202 42.5891H25.3428L25.4132 42.6384C25.4757 42.6812 25.5417 42.7189 25.6103 42.751C25.8604 42.8667 26.126 42.945 26.3988 42.9834C26.5817 42.9948 26.7651 42.9948 26.948 42.9834C27.1555 42.984 27.3627 42.9675 27.5675 42.9341C28.0292 42.8624 28.4692 42.6893 28.8559 42.4271L29.0037 42.3074L29.0741 42.244L29.1305 42.1806C29.2079 42.1032 29.2783 42.0187 29.3487 41.9412C29.4191 41.8637 29.6374 41.6454 29.7852 41.5187C29.9222 41.389 30.0681 41.269 30.2217 41.1595C30.356 41.0604 30.4972 40.971 30.6441 40.8919L31.0384 40.7088L31.3623 40.5962L31.5735 40.5398L31.6509 40.4976Z" fill="#231F20"/>
<path d="M31.7909 41.0606H31.7275C31.6665 41.0563 31.6054 41.0563 31.5444 41.0606C31.3185 41.059 31.095 41.1071 30.8897 41.2014C30.6044 41.3399 30.343 41.5229 30.1153 41.7437C29.8618 41.969 29.6295 42.2155 29.4112 42.4479C29.2897 42.5508 29.1628 42.6471 29.031 42.7366C28.8898 42.8094 28.744 42.8729 28.5945 42.9267C28.4593 42.9809 28.3205 43.0256 28.1792 43.0605C28.0454 43.0605 27.9116 43.1169 27.7849 43.138H27.4399H27.1654H26.9189L27.1513 43.2296L27.4258 43.3141C27.546 43.345 27.6684 43.3662 27.7919 43.3774C27.9393 43.3953 28.0882 43.3953 28.2355 43.3774C28.4072 43.3693 28.5773 43.341 28.7424 43.2929C28.9215 43.2433 29.0941 43.1724 29.2563 43.0817C29.4171 42.9859 29.5702 42.8776 29.714 42.7577C29.9648 42.5197 30.2 42.2657 30.418 41.9972C30.5957 41.775 30.7963 41.572 31.0164 41.3916C31.1041 41.3228 31.1958 41.2593 31.291 41.2014L31.5304 41.0888L31.6993 41.0254L31.7909 41.0606Z" fill="#231F20"/>
<path d="M31.5802 41.7015H31.5379C31.4981 41.6972 31.458 41.6972 31.4182 41.7015C31.2736 41.7459 31.1411 41.823 31.031 41.9268C30.8797 42.0663 30.7472 42.2249 30.6368 42.3986C30.5734 42.4831 30.5171 42.5747 30.4608 42.6592L30.4185 42.7155C30.4185 42.7155 30.3763 42.7648 30.3622 42.7719H30.327C30.2561 42.8347 30.1781 42.889 30.0947 42.9338C30.0108 42.984 29.9238 43.0287 29.8342 43.0676C29.6582 43.1521 29.4821 43.2226 29.3273 43.2789L29.109 43.3564L28.94 43.4127L28.7852 43.462C28.8373 43.4857 28.8915 43.5045 28.9471 43.5183C29.0886 43.5467 29.2323 43.5632 29.3765 43.5676C29.583 43.5729 29.7892 43.5492 29.9891 43.4972C30.1054 43.4688 30.2187 43.4287 30.327 43.3775C30.4487 43.3256 30.5624 43.2569 30.6649 43.1733L30.7072 43.2085L30.7635 43.1381L30.8057 43.0888V43.0465C30.8262 43.0235 30.8428 42.9973 30.855 42.969C30.9184 42.8634 30.9677 42.7648 31.0169 42.6662C31.0662 42.5676 31.1718 42.3 31.2422 42.1592C31.2963 42.0423 31.3624 41.9314 31.4394 41.8282C31.4394 41.786 31.5027 41.7578 31.5168 41.7367L31.5802 41.7015Z" fill="#231F20"/>
<path d="M32.1859 42.307H32.0592C32.0107 42.2948 31.9599 42.2948 31.9113 42.307C31.8441 42.3288 31.7802 42.3596 31.7212 42.3986C31.6615 42.4513 31.605 42.5078 31.5523 42.5676C31.4951 42.6321 31.4455 42.703 31.4044 42.7788C31.3129 42.9197 31.2284 43.0746 31.1439 43.2154C31.0595 43.3563 31.0524 43.3492 31.0031 43.4056C30.9594 43.4644 30.9099 43.5187 30.8553 43.5675C30.8011 43.6126 30.7447 43.6549 30.6863 43.6943C30.6298 43.7268 30.571 43.755 30.5103 43.7788L30.3484 43.8492C30.304 43.8435 30.259 43.8435 30.2146 43.8492H30.0879L30.2146 43.8844H30.3625H30.5526C30.6318 43.8835 30.7104 43.8693 30.7849 43.8422C30.8731 43.8136 30.958 43.7758 31.0383 43.7295C31.1191 43.6759 31.1924 43.612 31.2566 43.5394C31.3115 43.5039 31.3633 43.4639 31.4115 43.4197L31.5452 43.1732C31.5804 43.0957 31.6156 43.0183 31.6438 42.9408C31.672 42.8633 31.7072 42.7929 31.7424 42.7366C31.7776 42.6802 31.8057 42.6169 31.8339 42.5605L31.8902 42.4972L31.9395 42.4408C31.9747 42.4408 32.0029 42.3774 32.0451 42.3634L32.1859 42.307Z" fill="#231F20"/>
<path d="M22.9632 23.5332H20.9426V20.4629H18.5771V23.5332H16.5283V15.9912H18.5771V18.808H20.9426V15.9912H22.9632V23.5332Z" fill="#231F20"/>
<path d="M25.2939 23.5332V15.9912H27.3356V23.5332H25.2939Z" fill="#231F20"/>
<path d="M35.1061 18.3923C35.1287 18.7519 35.0738 19.1123 34.945 19.4488C34.8163 19.7854 34.6167 20.0903 34.3598 20.343C33.7715 20.8388 33.0158 21.0907 32.2477 21.0472H31.6774V23.5471H29.6357V15.991H32.2407C32.9968 15.9423 33.7455 16.1645 34.3528 16.6177C34.6033 16.8381 34.8011 17.112 34.9315 17.4192C35.0619 17.7263 35.1216 18.0589 35.1061 18.3923ZM31.6704 19.3711H32.0435C32.3029 19.3776 32.5549 19.2844 32.7476 19.1106C32.8381 19.0179 32.9086 18.9075 32.9546 18.7864C33.0007 18.6652 33.0212 18.5359 33.0151 18.4064C33.0151 17.8994 32.7335 17.6458 32.1703 17.6458H31.6422L31.6704 19.3711Z" fill="#231F20"/>
<path d="M41.1619 23.5331L40.7888 22.1247H38.3387L37.9586 23.5331H35.7197L38.1768 15.9629H40.8944L43.3796 23.5331H41.1619ZM40.3663 20.4487L40.0425 19.2093C39.965 18.9346 39.8735 18.5825 39.7679 18.1459C39.6623 17.7093 39.5849 17.3924 39.5497 17.2023C39.5497 17.3783 39.4581 17.6671 39.3666 18.0685C39.2751 18.4699 39.078 19.2656 38.7611 20.4487H40.3663Z" fill="#231F20"/>
<path d="M50.026 23.5331L49.6528 22.1247H47.2098L46.8226 23.5331H44.5908L47.0479 15.9629H49.7655L52.2577 23.5331H50.026ZM49.2304 20.4487L48.9065 19.2093L48.632 18.1459C48.5264 17.7093 48.456 17.3924 48.4208 17.2023C48.4208 17.3783 48.3292 17.6671 48.2377 18.0685C48.1462 18.4699 47.942 19.2656 47.6322 20.4487H49.2304Z" fill="#231F20"/>
<path d="M18.0341 26.6879C17.7852 26.6759 17.5366 26.7181 17.3056 26.8117C17.0746 26.9054 16.8667 27.0481 16.6964 27.2302C16.3544 27.65 16.1812 28.1823 16.2106 28.7231C16.1718 29.2724 16.3373 29.8166 16.6753 30.2512C16.8415 30.4323 17.0458 30.5742 17.2735 30.6667C17.5011 30.7593 17.7465 30.8001 17.9919 30.7864C18.347 30.7903 18.7007 30.7405 19.0409 30.6385V30.9202C18.6788 31.0333 18.3006 31.0857 17.9214 31.0751C17.6418 31.0903 17.3622 31.0432 17.1029 30.9373C16.8436 30.8313 16.611 30.6692 16.4219 30.4625C16.0309 29.9756 15.8352 29.3605 15.8727 28.7372C15.8592 28.3114 15.9485 27.8887 16.1332 27.5048C16.2963 27.1628 16.5589 26.8781 16.8865 26.6879C17.2364 26.4916 17.6331 26.3943 18.0341 26.4063C18.4419 26.3979 18.8463 26.4821 19.2169 26.6527L19.0901 26.9344C18.7623 26.7706 18.4006 26.6862 18.0341 26.6879Z" fill="#231F20"/>
<path d="M24.166 28.7233C24.2116 29.3332 24.0339 29.9388 23.6661 30.4274C23.4811 30.6364 23.2516 30.8011 22.9946 30.9096C22.7375 31.0181 22.4593 31.0675 22.1806 31.0542C21.9019 31.068 21.6236 31.0188 21.3664 30.9103C21.1092 30.8018 20.8798 30.6368 20.6951 30.4274C20.3087 29.9436 20.1133 29.3347 20.146 28.7162C20.1095 28.1028 20.3027 27.4977 20.6881 27.0191C20.8737 26.8114 21.1035 26.648 21.3606 26.5408C21.6176 26.4335 21.8954 26.3852 22.1736 26.3994C22.4507 26.3853 22.7274 26.4336 22.9833 26.5409C23.2392 26.6482 23.4678 26.8116 23.6521 27.0191C24.0248 27.5057 24.2075 28.1116 24.166 28.7233ZM20.4698 28.7233C20.428 29.2674 20.5801 29.8088 20.8993 30.2514C21.0507 30.4318 21.2423 30.5742 21.4587 30.6672C21.6752 30.7601 21.9103 30.801 22.1454 30.7866C22.3804 30.7999 22.6152 30.7585 22.8314 30.6656C23.0477 30.5728 23.2394 30.431 23.3916 30.2514C23.7054 29.8142 23.8572 29.2814 23.821 28.7444C23.8561 28.2097 23.7043 27.6795 23.3916 27.2444C23.2377 27.0701 23.0462 26.9332 22.8314 26.8441C22.6167 26.755 22.3845 26.7161 22.1525 26.7304C21.9181 26.7162 21.6836 26.7565 21.4674 26.8481C21.2512 26.9398 21.0592 27.0802 20.9063 27.2585C20.5952 27.6813 20.4409 28.1991 20.4698 28.7233Z" fill="#231F20"/>
<path d="M27.5108 30.9907L25.8281 26.8148C25.8281 27.0683 25.8281 27.3359 25.8281 27.6035V30.9907H25.5254V26.4697H26.0112L27.6164 30.4485L29.2145 26.4697H29.6933V30.9907H29.3765V27.5612C29.3745 27.3143 29.3862 27.0675 29.4117 26.8218L27.722 30.9907H27.5108Z" fill="#231F20"/>
<path d="M34.0305 27.7655C34.0419 27.9565 34.0076 28.1475 33.9304 28.3226C33.8533 28.4977 33.7355 28.652 33.5869 28.7725C33.2154 29.0274 32.7695 29.1513 32.3197 29.1246H31.6156V30.9907H31.2988V26.4697H32.4112C33.5236 26.4697 34.0305 26.8993 34.0305 27.7655ZM31.6227 28.8429H32.2422C32.628 28.8752 33.0143 28.7866 33.3476 28.5894C33.469 28.4932 33.5643 28.3679 33.6246 28.2251C33.6849 28.0824 33.7083 27.9267 33.6925 27.7725C33.7025 27.6271 33.6785 27.4813 33.6223 27.3469C33.566 27.2124 33.4792 27.0929 33.3687 26.9979C33.0741 26.8007 32.7226 26.7066 32.369 26.7303H31.6227V28.8429Z" fill="#231F20"/>
<path d="M35.332 30.9907V26.4697H35.6348V30.695H37.7891V30.9907H35.332Z" fill="#231F20"/>
<path d="M38.9023 30.9907V26.4697H39.2121V30.9907H38.9023Z" fill="#231F20"/>
<path d="M42.9931 29.3994H41.1556L40.5219 30.9909H40.1699L41.9722 26.4487H42.1694L43.9506 30.9909H43.5986L42.9931 29.3994ZM41.2682 29.1106H42.8875L42.2679 27.4839C42.2187 27.3501 42.1553 27.1741 42.0849 26.9487C42.0368 27.1313 41.9756 27.3101 41.9018 27.4839L41.2682 29.1106Z" fill="#231F20"/>
<path d="M48.2236 30.9907H47.8997L45.2244 26.9768C45.2244 27.4556 45.2666 27.8148 45.2666 28.0612V30.9907H44.9287V26.4697H45.2455L47.9208 30.4767C47.9208 30.1105 47.9208 29.7725 47.9208 29.4203V26.4697H48.2306L48.2236 30.9907Z" fill="#231F20"/>
<path d="M50.9982 30.9907H50.6814V26.7655H49.21V26.4697H52.4696V26.7655H50.9982V30.9907Z" fill="#231F20"/>
<path d="M33.9879 7.80112L54.1585 13.6601V38.8214C54.1503 40.5907 53.8063 42.3423 53.1446 43.9832C52.4901 45.6684 51.6115 47.2578 50.5327 48.7084C49.3835 50.2079 48.0966 51.5966 46.6887 52.8562C45.3508 54.0832 43.9401 55.2284 42.4645 56.2857C41.1902 57.2011 39.8596 58.0743 38.4515 58.8842C37.0434 59.694 36.0155 60.2926 35.4664 60.5391C34.9172 60.7855 34.3892 61.0531 34.0583 61.194H34.002H33.9457C33.6289 61.0531 33.1712 60.8419 32.5376 60.5391C31.904 60.2363 30.9747 59.7081 29.5455 58.8842C28.1163 58.0603 26.7786 57.2011 25.4902 56.3068C24.0132 55.2513 22.6025 54.106 21.266 52.8773C19.8602 51.6203 18.5756 50.234 17.4291 48.7366C16.3475 47.2826 15.4688 45.6882 14.8171 43.9973C14.1548 42.3519 13.8131 40.5951 13.8103 38.8214V13.6601L33.9879 7.80112ZM33.9879 5.604L11.6982 12.0686V38.8284C11.7063 40.8613 12.103 42.874 12.8669 44.7578C13.5888 46.6175 14.5599 48.3706 15.7535 49.9689C16.9821 51.5754 18.3586 53.0631 19.865 54.4125C21.2604 55.6923 22.7297 56.8892 24.2652 57.9969C25.617 58.9546 27.018 59.8489 28.4894 60.701C29.9609 61.5531 30.9887 62.1094 31.6083 62.4263C32.2278 62.7432 32.7136 62.9545 33.0868 63.1305C33.3681 63.2696 33.6776 63.342 33.9914 63.342C34.3052 63.342 34.6148 63.2696 34.8961 63.1305C35.2693 62.9686 35.7621 62.7362 36.3746 62.4263C36.9871 62.1165 38.0361 61.5461 39.4935 60.701C40.9508 59.856 42.3659 58.9546 43.7177 57.9969C45.2532 56.8892 46.7225 55.6923 48.1179 54.4125C49.6193 53.0625 50.9911 51.5748 52.2153 49.9689C53.4097 48.3649 54.383 46.6074 55.1089 44.7437C55.8683 42.8563 56.2625 40.8418 56.2706 38.8073V12.0475L33.9879 5.604Z" fill="#231F20"/>
<path d="M18.9075 35.6593H18.3513V34.5185H17.3304V35.6593H16.7461V33.0186H17.3304V34.0537H18.3513V33.0186H18.9075V35.6593Z" fill="#231F20"/>
<path d="M19.5693 35.6593V33.0186H20.1466V35.6593H19.5693Z" fill="#231F20"/>
<path d="M22.6184 33.8429C22.6257 33.9641 22.6054 34.0853 22.559 34.1975C22.5127 34.3098 22.4415 34.41 22.3508 34.4907C22.1358 34.6557 21.8677 34.7359 21.5975 34.7161H21.3581V35.6597H20.7949V33.0189H21.6398C21.8903 33.0092 22.1373 33.0809 22.3438 33.2232C22.4335 33.2989 22.5049 33.394 22.5524 33.5014C22.6 33.6087 22.6226 33.7255 22.6184 33.8429ZM21.3581 34.2583H21.5553C21.6912 34.2636 21.8256 34.2293 21.9425 34.1598C21.9847 34.1234 22.0181 34.0778 22.0401 34.0265C22.062 33.9753 22.072 33.9197 22.0692 33.864C22.0737 33.81 22.0666 33.7557 22.0484 33.7047C22.0302 33.6537 22.0013 33.6072 21.9636 33.5682C21.8649 33.4996 21.7455 33.4673 21.6257 33.4767H21.3722L21.3581 34.2583Z" fill="#231F20"/>
<path d="M24.7302 35.6597L24.5402 35.026H23.5756L23.3855 35.6597H22.7871L23.7164 33.0049H24.4205L25.3568 35.6597H24.7302ZM24.4064 34.5612L24.1107 33.5964C24.0879 33.5373 24.0714 33.4759 24.0614 33.4133C24.0192 33.5682 23.9065 33.9485 23.7164 34.5612H24.4064Z" fill="#231F20"/>
<path d="M27.2791 35.6597L27.089 35.026H26.1315L25.9344 35.6597H25.3359L26.2653 33.0049H26.9693L27.8916 35.6597H27.2791ZM26.9552 34.5612L26.6595 33.5964C26.64 33.5363 26.6236 33.4751 26.6102 33.4133C26.568 33.5682 26.4553 33.9485 26.2723 34.5612H26.9552Z" fill="#231F20"/>
<path d="M29.236 35.6593H28.6728V33.4833H27.9688V33.0186H29.9612V33.4833H29.2571L29.236 35.6593Z" fill="#231F20"/>
<path d="M31.4116 33.6031C31.4724 33.5952 31.5339 33.5952 31.5947 33.6031L31.5595 34.1172H31.3905C31.2423 34.1083 31.0963 34.1562 30.9821 34.251C30.9318 34.3002 30.8925 34.3595 30.867 34.4251C30.8415 34.4907 30.8304 34.561 30.8343 34.6313V35.6594H30.2852V33.6384H30.7076L30.7921 33.9764C30.8533 33.8658 30.9402 33.7716 31.0455 33.7017C31.1552 33.6335 31.2825 33.5992 31.4116 33.6031Z" fill="#231F20"/>
<path d="M33.2768 35.6593L33.1641 35.3847C33.0906 35.4857 32.994 35.5677 32.8825 35.6241C32.7606 35.677 32.6281 35.7011 32.4953 35.6945C32.4116 35.6988 32.3278 35.686 32.2492 35.657C32.1705 35.6279 32.0986 35.5832 32.0377 35.5255C31.9802 35.4619 31.9362 35.3873 31.9084 35.3062C31.8805 35.2251 31.8694 35.1392 31.8758 35.0537C31.8684 34.9629 31.8846 34.8717 31.9228 34.7891C31.9611 34.7064 32.02 34.635 32.094 34.5819C32.3071 34.4579 32.5519 34.3991 32.798 34.4129H33.143V34.3284C33.1489 34.2863 33.1449 34.2435 33.1314 34.2032C33.1179 34.1629 33.0952 34.1264 33.0652 34.0963C33.0352 34.0663 32.9986 34.0437 32.9584 34.0302C32.9181 34.0167 32.8753 34.0127 32.8332 34.0185C32.6349 34.027 32.4405 34.0774 32.263 34.1664L32.0447 33.772C32.2844 33.6497 32.5501 33.5869 32.8192 33.589C33.0396 33.5766 33.2577 33.6386 33.4387 33.765C33.515 33.832 33.5745 33.9159 33.6125 34.0101C33.6504 34.1043 33.6656 34.2061 33.657 34.3072V35.6523L33.2768 35.6593ZM33.1078 34.7227H32.8966C32.7718 34.7213 32.6486 34.7503 32.5376 34.8072C32.4991 34.8351 32.4685 34.8724 32.4487 34.9156C32.429 34.9588 32.4208 35.0064 32.4249 35.0537C32.4249 35.2086 32.5094 35.2861 32.6924 35.2861C32.8042 35.2894 32.9128 35.2489 32.9952 35.1734C33.0337 35.1348 33.0637 35.0885 33.0831 35.0376C33.1025 34.9866 33.1109 34.9321 33.1078 34.8776V34.7227Z" fill="#231F20"/>
<path d="M34.2275 33.1172C34.2275 32.9341 34.3261 32.8496 34.5303 32.8496C34.7344 32.8496 34.826 32.9341 34.826 33.1172C34.8289 33.1532 34.8242 33.1894 34.8121 33.2234C34.7999 33.2574 34.7807 33.2884 34.7556 33.3144C34.6927 33.3667 34.6117 33.392 34.5303 33.3848C34.2979 33.3848 34.2275 33.3003 34.2275 33.1172ZM34.8048 35.6594H34.2275V33.6383H34.7767L34.8048 35.6594Z" fill="#231F20"/>
<path d="M37.2131 35.6597H36.664V34.4766C36.6705 34.3634 36.6436 34.2507 36.5865 34.1527C36.5592 34.1137 36.522 34.0827 36.4787 34.0628C36.4353 34.043 36.3875 34.0352 36.3401 34.04C36.2763 34.0346 36.2121 34.0461 36.154 34.0732C36.0959 34.1004 36.046 34.1424 36.0092 34.1949C35.9265 34.353 35.8899 34.5311 35.9036 34.709V35.6597H35.3545V33.6386H35.7769L35.8473 33.8992C35.9086 33.8014 35.9965 33.7233 36.1008 33.6738C36.2188 33.6243 36.346 33.6003 36.4739 33.6034C36.5755 33.5882 36.6792 33.5955 36.7778 33.6247C36.8763 33.6539 36.9672 33.7043 37.0442 33.7724C37.172 33.9257 37.2351 34.1227 37.2202 34.3217L37.2131 35.6597Z" fill="#231F20"/>
<path d="M37.7471 33.1172C37.7471 32.9341 37.8527 32.8496 38.0498 32.8496C38.2469 32.8496 38.3525 32.9341 38.3525 33.1172C38.3546 33.1537 38.3488 33.1902 38.3354 33.2243C38.322 33.2583 38.3015 33.289 38.2751 33.3144C38.2122 33.3667 38.1312 33.392 38.0498 33.3848C37.8597 33.3848 37.7471 33.3003 37.7471 33.1172ZM38.3244 35.6594H37.7752V33.6383H38.3244V35.6594Z" fill="#231F20"/>
<path d="M40.7758 35.6594H40.2197V34.4763C40.2294 34.3628 40.2023 34.2492 40.1422 34.1524C40.1149 34.1134 40.0776 34.0824 40.0343 34.0626C39.991 34.0427 39.9432 34.0349 39.8958 34.0397C39.8321 34.0357 39.7684 34.0477 39.7105 34.0748C39.6527 34.1019 39.6026 34.1431 39.5649 34.1947C39.4822 34.3527 39.4456 34.5309 39.4593 34.7087V35.6594H38.9102V33.6383H39.3326L39.403 33.8989C39.4604 33.7979 39.5495 33.7187 39.6564 33.6735C39.7718 33.6233 39.8968 33.5993 40.0225 33.6031C40.1197 33.5921 40.218 33.6014 40.3114 33.6305C40.4047 33.6596 40.491 33.7079 40.5646 33.7721C40.6943 33.9247 40.7599 34.1215 40.7477 34.3214L40.7758 35.6594Z" fill="#231F20"/>
<path d="M43.0984 33.6386V33.9203L42.7816 33.9978C42.838 34.0886 42.8673 34.1937 42.8661 34.3006C42.8705 34.3968 42.8525 34.4927 42.8134 34.5807C42.7743 34.6687 42.7152 34.7464 42.6408 34.8076C42.4564 34.9386 42.233 35.0031 42.0072 34.9907H41.8312C41.8071 35.006 41.7869 35.0267 41.7723 35.0511C41.7576 35.0756 41.7489 35.1031 41.7467 35.1315C41.7467 35.216 41.8453 35.2513 42.0494 35.2513H42.3944C42.5755 35.2396 42.7549 35.292 42.9013 35.3991C42.9595 35.4508 43.0049 35.5151 43.0342 35.5872C43.0635 35.6592 43.0759 35.737 43.0703 35.8146C43.0747 35.9243 43.0496 36.0331 42.9976 36.1297C42.9456 36.2263 42.8685 36.3072 42.7746 36.3639C42.5172 36.5081 42.2243 36.5764 41.9298 36.5611C41.7041 36.5751 41.4792 36.5237 41.282 36.4132C41.2126 36.369 41.1559 36.3074 41.1176 36.2345C41.0793 36.1616 41.0608 36.08 41.0638 35.9977C41.0598 35.8858 41.1003 35.7769 41.1764 35.6949C41.2659 35.6035 41.3815 35.542 41.5073 35.5189C41.4476 35.4939 41.3963 35.4524 41.3595 35.3991C41.3204 35.3513 41.2981 35.2919 41.2961 35.2301C41.2926 35.1577 41.318 35.0868 41.3665 35.033C41.4214 34.9736 41.4856 34.9236 41.5566 34.8851C41.4527 34.8386 41.3646 34.7627 41.3032 34.6668C41.2432 34.5565 41.2118 34.4331 41.2116 34.3076C41.2053 34.2108 41.2217 34.1139 41.2596 34.0246C41.2975 33.9353 41.3558 33.8562 41.4299 33.7935C41.6067 33.6639 41.8238 33.6015 42.0424 33.6175C42.108 33.6112 42.174 33.6112 42.2395 33.6175H42.3944L43.0984 33.6386ZM41.5355 35.9414C41.5354 35.9794 41.5459 36.0166 41.5658 36.0489C41.5857 36.0813 41.6142 36.1074 41.6481 36.1245C41.7419 36.1715 41.8462 36.1933 41.9509 36.1878C42.1102 36.1951 42.269 36.1662 42.4155 36.1033C42.5282 36.047 42.5845 35.9766 42.5845 35.885C42.5872 35.8511 42.5791 35.8172 42.5614 35.7881C42.5437 35.759 42.5173 35.7363 42.4859 35.7231C42.3861 35.6902 42.2811 35.6758 42.1762 35.6808H41.8946C41.8051 35.6794 41.717 35.7038 41.6411 35.7512C41.6089 35.7714 41.5823 35.7995 41.5638 35.8327C41.5454 35.866 41.5356 35.9033 41.5355 35.9414ZM41.7397 34.3006C41.734 34.3928 41.7588 34.4843 41.8101 34.5611C41.8388 34.5937 41.8748 34.6189 41.9152 34.6349C41.9556 34.6508 41.9992 34.6569 42.0424 34.6527C42.0846 34.6569 42.1271 34.6508 42.1664 34.6348C42.2056 34.6189 42.2404 34.5936 42.2677 34.5611C42.319 34.4843 42.3437 34.3928 42.3381 34.3006C42.3381 34.0541 42.2395 33.9344 42.0424 33.9344C41.8453 33.9344 41.7397 34.0541 41.7397 34.3006Z" fill="#231F20"/>
<path d="M43.3794 35.3987C43.376 35.3144 43.4035 35.2317 43.4569 35.1663C43.5244 35.1119 43.6097 35.0843 43.6963 35.0889C43.7387 35.0867 43.7811 35.093 43.821 35.1075C43.8609 35.122 43.8975 35.1444 43.9286 35.1734C43.9572 35.203 43.9789 35.2385 43.9923 35.2774C44.0057 35.3164 44.0104 35.3578 44.006 35.3987C44.009 35.4396 44.0037 35.4806 43.9904 35.5193C43.9771 35.5581 43.9561 35.5937 43.9286 35.6241C43.8975 35.653 43.8609 35.6754 43.821 35.6899C43.7811 35.7044 43.7387 35.7108 43.6963 35.7086C43.6537 35.7121 43.6109 35.7064 43.5708 35.6918C43.5307 35.6772 43.4943 35.6541 43.4639 35.6241C43.4348 35.5945 43.4123 35.5592 43.3977 35.5204C43.3832 35.4816 43.3769 35.4401 43.3794 35.3987Z" fill="#231F20"/>
<path d="M45.3015 35.6947C44.6749 35.6947 44.3581 35.3497 44.3581 34.6595C44.3386 34.3739 44.4293 34.0917 44.6115 33.8708C44.7049 33.7813 44.8154 33.7114 44.9363 33.6655C45.0573 33.6195 45.1862 33.5983 45.3155 33.6032C45.5319 33.5991 45.7463 33.6449 45.9421 33.737L45.7802 34.1666L45.5408 34.0751C45.4661 34.0652 45.3903 34.0652 45.3155 34.0751C45.0269 34.0751 44.8861 34.2793 44.8861 34.6807C44.8861 35.0821 45.0269 35.2722 45.3155 35.2722C45.4157 35.273 45.5153 35.2588 45.6112 35.2299C45.7049 35.198 45.7947 35.1555 45.8788 35.1032V35.568C45.7968 35.6223 45.7064 35.6628 45.6112 35.6877C45.5085 35.7002 45.4047 35.7026 45.3015 35.6947Z" fill="#231F20"/>
<path d="M48.2167 34.6457C48.2339 34.9258 48.1403 35.2014 47.9563 35.4132C47.865 35.5067 47.7553 35.58 47.634 35.6285C47.5128 35.6771 47.3827 35.6997 47.2522 35.6949C47.0728 35.6983 46.8956 35.6546 46.7383 35.5682C46.5917 35.4825 46.474 35.355 46.4003 35.202C46.3188 35.028 46.2779 34.8378 46.2807 34.6457C46.2714 34.5069 46.2897 34.3676 46.3344 34.2359C46.3791 34.1041 46.4493 33.9826 46.5412 33.8781C46.633 33.7859 46.743 33.7138 46.8642 33.6666C46.9855 33.6193 47.1152 33.5978 47.2452 33.6034C47.4224 33.6003 47.5972 33.644 47.7521 33.7302C47.9003 33.8129 48.0204 33.9379 48.0971 34.0893C48.1793 34.2631 48.2203 34.4535 48.2167 34.6457ZM46.8087 34.6457C46.7963 34.8023 46.8306 34.9591 46.9072 35.0963C46.9448 35.1446 46.9928 35.1837 47.0477 35.2105C47.1026 35.2374 47.1629 35.2514 47.2241 35.2514C47.2852 35.2514 47.3455 35.2374 47.4004 35.2105C47.4553 35.1837 47.5034 35.1446 47.5409 35.0963C47.6142 34.9579 47.6483 34.8021 47.6394 34.6457C47.6494 34.4892 47.6152 34.333 47.5409 34.195C47.506 34.1443 47.4583 34.1039 47.4026 34.0779C47.3469 34.0519 47.2853 34.0413 47.2241 34.0471C47.162 34.0421 47.0996 34.0531 47.043 34.079C46.9863 34.1049 46.9371 34.1448 46.9002 34.195C46.8335 34.3352 46.8067 34.4912 46.8228 34.6457H46.8087Z" fill="#231F20"/>
<path d="M50.4773 35.6597H49.9282V34.4767C49.9347 34.3634 49.9078 34.2507 49.8507 34.1527C49.8274 34.1149 49.7939 34.0842 49.7541 34.0643C49.7143 34.0444 49.6698 34.036 49.6255 34.04C49.5647 34.0363 49.5041 34.0486 49.4497 34.0758C49.3953 34.103 49.3491 34.1441 49.3157 34.195C49.2421 34.3558 49.2106 34.5327 49.2242 34.709V35.6597H48.668V33.6387H49.0904L49.1678 33.8992C49.2233 33.8061 49.3038 33.7304 49.4002 33.6809C49.5088 33.625 49.6301 33.5983 49.7522 33.6034C49.8719 33.5885 49.9934 33.6085 50.102 33.661C50.2107 33.7134 50.3019 33.7962 50.3647 33.8992H50.421C50.4752 33.8025 50.5592 33.726 50.6604 33.6809C50.7717 33.6256 50.8952 33.5989 51.0194 33.6034C51.1136 33.5963 51.2083 33.6082 51.2978 33.6385C51.3873 33.6687 51.4698 33.7167 51.5404 33.7795C51.6704 33.9371 51.7336 34.1393 51.7164 34.3429V35.6597H51.1602V34.4767C51.1685 34.3641 51.1441 34.2516 51.0898 34.1527C51.0648 34.1148 51.03 34.0844 50.9891 34.0646C50.9482 34.0448 50.9028 34.0363 50.8575 34.04C50.7986 34.0368 50.7399 34.0486 50.6869 34.0745C50.6339 34.1004 50.5884 34.1395 50.5548 34.1879C50.4787 34.3279 50.4445 34.4868 50.4562 34.6457L50.4773 35.6597Z" fill="#231F20"/>
</svg>
