<svg width="570" height="500" viewBox="0 0 570 500" fill="none" xmlns="http://www.w3.org/2000/svg">
<g clip-path="url(#clip0_4039_899)">
<mask id="mask0_4039_899" style="mask-type:alpha" maskUnits="userSpaceOnUse" x="204" y="53" width="280" height="399">
<path d="M205 265C365.839 265 317.842 320.845 478.681 320.845" stroke="url(#paint0_linear_4039_899)" stroke-width="2"/>
<path d="M204 208.33C364.838 208.33 315.564 54 479.502 54" stroke="url(#paint1_linear_4039_899)" stroke-width="2"/>
<path d="M210 293C370.838 293 285.616 450.12 483.952 450.12" stroke="url(#paint2_linear_4039_899)" stroke-width="2"/>
<path d="M210 234.801C370.839 234.801 308.158 181 482.943 181" stroke="url(#paint3_linear_4039_899)" stroke-width="2"/>
</mask>
<g mask="url(#mask0_4039_899)">
<rect x="210.5" y="41.5" width="268" height="443" fill="url(#paint4_linear_4039_899)" stroke="url(#paint5_linear_4039_899)"/>
</g>
<g clip-path="url(#clip1_4039_899)">
<g filter="url(#filter0_di_4039_899)">
<path d="M105.872 147.115C110.283 144.569 115.717 144.569 120.128 147.115L203.733 195.385C208.144 197.931 210.861 202.637 210.861 207.73L210.861 304.27C210.861 309.363 208.144 314.069 203.733 316.615L120.128 364.885C115.717 367.431 110.283 367.431 105.872 364.885L22.2668 316.615C17.8562 314.069 15.1391 309.363 15.1391 304.27L15.1391 207.73C15.1391 202.637 17.8562 197.931 22.2668 195.385L105.872 147.115Z" fill="url(#paint6_linear_4039_899)"/>
<path d="M119.378 148.414L202.983 196.684C206.93 198.962 209.361 203.173 209.361 207.73L209.361 304.27C209.361 308.827 206.93 313.038 202.983 315.316L119.378 363.586C115.431 365.864 110.569 365.864 106.622 363.586L23.0168 315.316C19.0703 313.038 16.6391 308.827 16.6391 304.27L16.6391 207.73C16.6391 203.173 19.0703 198.962 23.0168 196.684L106.622 148.414C110.569 146.136 115.431 146.136 119.378 148.414Z" stroke="#CFCFCF" stroke-width="3" style="mix-blend-mode:color-dodge"/>
</g>
<path d="M110.542 191.637C110.554 192.088 110.567 192.539 110.579 192.99C110.538 195.973 110.493 198.96 110.444 201.949C110.367 207.44 110.287 212.931 110.206 218.422C110.172 220.993 110.136 223.566 110.099 226.14C110.036 231.356 109.971 236.572 109.905 241.786C109.902 242.082 109.831 242.375 109.699 242.644C106.249 249.827 102.808 257.011 99.375 264.196C99.2068 264.5 98.9574 264.757 98.6516 264.943L77.9326 279.566L56.4694 294.702C56.2757 294.85 56.0609 294.972 55.8312 295.063C74.107 260.608 92.3439 226.132 110.542 191.637Z" fill="#FF6A00"/>
<path d="M111.926 191.598C113.988 194.97 116.058 198.337 118.11 201.713C136.21 231.495 154.174 261.348 172.003 291.271C172.116 291.44 172.191 291.629 172.222 291.826C172.015 291.705 171.799 291.598 171.596 291.472L137.195 270.066C134.236 268.218 131.266 266.374 128.284 264.533C127.769 264.226 127.349 263.797 127.067 263.29C123.136 256.446 119.414 249.488 115.598 242.596C115.455 242.355 115.368 242.089 115.343 241.814C115.128 238.618 114.894 235.422 114.67 232.221C114.282 226.769 113.898 221.317 113.517 215.865C113.347 213.428 113.173 210.991 113.008 208.55C112.634 203.124 112.264 197.699 111.897 192.274C111.89 192.052 111.777 191.824 111.965 191.61L111.926 191.598Z" fill="#FF6A00"/>
<path d="M82.0212 295.562C82.1462 295.365 82.3221 295.202 82.5318 295.09L112.645 273.075L112.878 272.908C113.415 272.545 113.251 272.44 113.929 272.879L131.559 284.304L145.369 293.278C145.582 293.415 145.786 293.565 146.102 293.781L82.0212 295.562Z" fill="#FF6A00"/>
</g>
<g filter="url(#filter1_di_4039_899)">
<path d="M511.378 1.80267C513.31 0.687174 515.69 0.687175 517.622 1.80267L554.246 22.9473C556.178 24.0628 557.368 26.1243 557.368 28.3553L557.368 70.6447C557.368 72.8757 556.178 74.9372 554.246 76.0527L517.622 97.1973C515.69 98.3128 513.31 98.3128 511.378 97.1973L474.754 76.0527C472.822 74.9372 471.632 72.8757 471.632 70.6447L471.632 28.3553C471.632 26.1243 472.822 24.0628 474.754 22.9473L511.378 1.80267Z" fill="#0E0E0E"/>
<path d="M511.378 1.80267C513.31 0.687174 515.69 0.687175 517.622 1.80267L554.246 22.9473C556.178 24.0628 557.368 26.1243 557.368 28.3553L557.368 70.6447C557.368 72.8757 556.178 74.9372 554.246 76.0527L517.622 97.1973C515.69 98.3128 513.31 98.3128 511.378 97.1973L474.754 76.0527C472.822 74.9372 471.632 72.8757 471.632 70.6447L471.632 28.3553C471.632 26.1243 472.822 24.0628 474.754 22.9473L511.378 1.80267Z" fill="url(#paint7_linear_4039_899)"/>
<path d="M517.372 2.23568L553.996 23.3803C555.773 24.4065 556.868 26.303 556.868 28.3553L556.868 70.6447C556.868 72.697 555.773 74.5935 553.996 75.6197L517.372 96.7643C515.595 97.7905 513.405 97.7905 511.628 96.7643L475.004 75.6197C473.227 74.5935 472.132 72.697 472.132 70.6447L472.132 28.3553C472.132 26.303 473.227 24.4065 475.004 23.3803L511.628 2.23568C513.405 1.2095 515.595 1.2095 517.372 2.23568Z" stroke="#ECECEC" style="mix-blend-mode:color-dodge"/>
</g>
<g filter="url(#filter2_di_4039_899)">
<path d="M533.931 64.1326C533.931 64.5265 533.775 64.9043 533.496 65.1828C533.218 65.4613 532.84 65.6178 532.446 65.6178H496.802C496.408 65.6178 496.03 65.4613 495.751 65.1828C495.473 64.9043 495.316 64.5265 495.316 64.1326V34.429C495.316 34.0351 495.473 33.6574 495.751 33.3788C496.03 33.1003 496.408 32.9438 496.802 32.9438C497.195 32.9438 497.573 33.1003 497.852 33.3788C498.13 33.6574 498.287 34.0351 498.287 34.429V54.6071L507.632 45.2597C507.77 45.1216 507.934 45.0121 508.114 44.9373C508.295 44.8626 508.488 44.8241 508.683 44.8241C508.878 44.8241 509.071 44.8626 509.252 44.9373C509.432 45.0121 509.596 45.1216 509.734 45.2597L514.624 50.1515L524.406 40.3697H520.564C520.171 40.3697 519.793 40.2133 519.514 39.9347C519.236 39.6562 519.079 39.2785 519.079 38.8846C519.079 38.4907 519.236 38.1129 519.514 37.8344C519.793 37.5559 520.171 37.3994 520.564 37.3994H527.99C528.384 37.3994 528.762 37.5559 529.041 37.8344C529.319 38.1129 529.476 38.4907 529.476 38.8846V46.3105C529.476 46.7044 529.319 47.0821 529.041 47.3606C528.762 47.6392 528.384 47.7956 527.99 47.7956C527.596 47.7956 527.219 47.6392 526.94 47.3606C526.662 47.0821 526.505 46.7044 526.505 46.3105V42.4694L515.675 53.302C515.537 53.44 515.373 53.5496 515.192 53.6243C515.012 53.6991 514.819 53.7375 514.624 53.7375C514.429 53.7375 514.235 53.6991 514.055 53.6243C513.875 53.5496 513.711 53.44 513.573 53.302L508.683 48.4101L498.287 58.8064V62.6474H532.446C532.84 62.6474 533.218 62.8039 533.496 63.0824C533.775 63.361 533.931 63.7387 533.931 64.1326Z" fill="#FF5900"/>
</g>
<g filter="url(#filter3_di_4039_899)">
<path d="M511.378 124.803C513.31 123.687 515.69 123.687 517.622 124.803L554.246 145.947C556.178 147.063 557.368 149.124 557.368 151.355L557.368 193.645C557.368 195.876 556.178 197.937 554.246 199.053L517.622 220.197C515.69 221.313 513.31 221.313 511.378 220.197L474.754 199.053C472.822 197.937 471.632 195.876 471.632 193.645L471.632 151.355C471.632 149.124 472.822 147.063 474.754 145.947L511.378 124.803Z" fill="#0E0E0E"/>
<path d="M511.378 124.803C513.31 123.687 515.69 123.687 517.622 124.803L554.246 145.947C556.178 147.063 557.368 149.124 557.368 151.355L557.368 193.645C557.368 195.876 556.178 197.937 554.246 199.053L517.622 220.197C515.69 221.313 513.31 221.313 511.378 220.197L474.754 199.053C472.822 197.937 471.632 195.876 471.632 193.645L471.632 151.355C471.632 149.124 472.822 147.063 474.754 145.947L511.378 124.803Z" fill="url(#paint8_linear_4039_899)"/>
<path d="M517.372 125.236L553.996 146.38C555.773 147.407 556.868 149.303 556.868 151.355L556.868 193.645C556.868 195.697 555.773 197.593 553.996 198.62L517.372 219.764C515.595 220.79 513.405 220.79 511.628 219.764L475.004 198.62C473.227 197.593 472.132 195.697 472.132 193.645L472.132 151.355C472.132 149.303 473.227 147.407 475.004 146.38L511.628 125.236C513.405 124.21 515.595 124.21 517.372 125.236Z" stroke="#ECECEC" style="mix-blend-mode:color-dodge"/>
</g>
<g filter="url(#filter4_di_4039_899)">
<path d="M537.332 192.465L526.159 181.294C529.398 177.406 531.013 172.419 530.668 167.371C530.323 162.323 528.046 157.602 524.309 154.19C520.572 150.779 515.664 148.939 510.605 149.054C505.547 149.169 500.727 151.23 497.149 154.808C493.571 158.385 491.511 163.205 491.396 168.264C491.281 173.322 493.12 178.23 496.532 181.967C499.944 185.704 504.665 187.981 509.713 188.326C514.761 188.671 519.748 187.056 523.636 183.818L534.806 194.991C534.972 195.156 535.169 195.288 535.386 195.378C535.603 195.468 535.835 195.514 536.069 195.514C536.304 195.514 536.536 195.468 536.753 195.378C536.97 195.288 537.167 195.156 537.332 194.991C537.498 194.825 537.63 194.628 537.72 194.411C537.809 194.194 537.856 193.962 537.856 193.728C537.856 193.493 537.809 193.261 537.72 193.044C537.63 192.827 537.498 192.63 537.332 192.465ZM495.01 168.735C495.01 165.557 495.953 162.451 497.718 159.809C499.483 157.167 501.993 155.108 504.928 153.892C507.864 152.675 511.095 152.357 514.211 152.977C517.328 153.597 520.191 155.127 522.438 157.374C524.685 159.621 526.215 162.484 526.835 165.601C527.455 168.717 527.137 171.948 525.92 174.884C524.704 177.819 522.645 180.329 520.003 182.094C517.361 183.859 514.255 184.802 511.077 184.802C506.817 184.797 502.733 183.103 499.721 180.091C496.709 177.079 495.015 172.995 495.01 168.735Z" fill="#FF5900"/>
</g>
<g filter="url(#filter5_di_4039_899)">
<path d="M511.378 265.803C513.31 264.687 515.69 264.687 517.622 265.803L554.246 286.947C556.178 288.063 557.368 290.124 557.368 292.355L557.368 334.645C557.368 336.876 556.178 338.937 554.246 340.053L517.622 361.197C515.69 362.313 513.31 362.313 511.378 361.197L474.754 340.053C472.822 338.937 471.632 336.876 471.632 334.645L471.632 292.355C471.632 290.124 472.822 288.063 474.754 286.947L511.378 265.803Z" fill="#0E0E0E"/>
<path d="M511.378 265.803C513.31 264.687 515.69 264.687 517.622 265.803L554.246 286.947C556.178 288.063 557.368 290.124 557.368 292.355L557.368 334.645C557.368 336.876 556.178 338.937 554.246 340.053L517.622 361.197C515.69 362.313 513.31 362.313 511.378 361.197L474.754 340.053C472.822 338.937 471.632 336.876 471.632 334.645L471.632 292.355C471.632 290.124 472.822 288.063 474.754 286.947L511.378 265.803Z" fill="url(#paint9_linear_4039_899)"/>
<path d="M517.372 266.236L553.996 287.38C555.773 288.407 556.868 290.303 556.868 292.355L556.868 334.645C556.868 336.697 555.773 338.593 553.996 339.62L517.372 360.764C515.595 361.79 513.405 361.79 511.628 360.764L475.004 339.62C473.227 338.593 472.132 336.697 472.132 334.645L472.132 292.355C472.132 290.303 473.227 288.407 475.004 287.38L511.628 266.236C513.405 265.21 515.595 265.21 517.372 266.236Z" stroke="#ECECEC" style="mix-blend-mode:color-dodge"/>
</g>
<g filter="url(#filter6_di_4039_899)">
<path d="M497.08 319.089H493.287C492.784 319.089 492.302 319.293 491.946 319.656C491.59 320.019 491.391 320.511 491.391 321.025V334.577C491.391 335.091 491.59 335.583 491.946 335.946C492.302 336.309 492.784 336.513 493.287 336.513H497.08C499.344 336.513 501.514 335.595 503.115 333.962C504.715 332.328 505.615 330.112 505.615 327.801C505.615 325.49 504.715 323.275 503.115 321.641C501.514 320.007 499.344 319.089 497.08 319.089ZM497.08 332.641H495.184V322.961H497.08C498.338 322.961 499.544 323.471 500.433 324.379C501.322 325.286 501.822 326.517 501.822 327.801C501.822 329.085 501.322 330.316 500.433 331.224C499.544 332.131 498.338 332.641 497.08 332.641ZM537.27 331.453C537.634 331.808 537.844 332.296 537.855 332.809C537.866 333.322 537.677 333.819 537.329 334.19C536.669 334.916 535.871 335.496 534.983 335.896C534.095 336.295 533.136 336.505 532.166 336.513C527.982 336.513 524.58 332.605 524.58 327.801C524.58 322.997 527.982 319.089 532.166 319.089C533.136 319.097 534.095 319.307 534.983 319.707C535.871 320.106 536.669 320.686 537.329 321.412C537.67 321.785 537.852 322.279 537.838 322.788C537.824 323.297 537.614 323.779 537.253 324.131C536.893 324.483 536.411 324.676 535.913 324.668C535.414 324.66 534.938 324.452 534.589 324.089C534.281 323.743 533.908 323.465 533.491 323.271C533.075 323.077 532.624 322.971 532.166 322.961C530.075 322.961 528.373 325.139 528.373 327.801C528.373 330.463 530.075 332.641 532.166 332.641C532.624 332.631 533.075 332.525 533.491 332.331C533.908 332.138 534.281 331.859 534.589 331.513C534.937 331.142 535.415 330.928 535.917 330.916C536.42 330.905 536.907 331.098 537.27 331.453ZM515.097 319.089C510.913 319.089 507.511 322.997 507.511 327.801C507.511 332.605 510.913 336.513 515.097 336.513C519.282 336.513 522.683 332.605 522.683 327.801C522.683 322.997 519.282 319.089 515.097 319.089ZM515.097 332.641C513.006 332.641 511.304 330.463 511.304 327.801C511.304 325.139 513.006 322.961 515.097 322.961C517.188 322.961 518.89 325.139 518.89 327.801C518.89 330.463 517.188 332.641 515.097 332.641ZM496.132 313.281C496.635 313.281 497.117 313.077 497.473 312.714C497.829 312.351 498.029 311.858 498.029 311.345V293.92H518.89V305.537C518.89 306.05 519.09 306.543 519.446 306.906C519.802 307.269 520.284 307.473 520.787 307.473H532.166V311.345C532.166 311.858 532.366 312.351 532.722 312.714C533.077 313.077 533.56 313.281 534.063 313.281C534.566 313.281 535.048 313.077 535.404 312.714C535.759 312.351 535.959 311.858 535.959 311.345V305.537C535.959 305.282 535.911 305.03 535.815 304.795C535.72 304.56 535.581 304.347 535.404 304.167L522.129 290.615C521.952 290.435 521.743 290.292 521.513 290.195C521.283 290.098 521.036 290.048 520.787 290.048H498.029C497.023 290.048 496.058 290.456 495.346 291.182C494.635 291.909 494.235 292.893 494.235 293.92V311.345C494.235 311.858 494.435 312.351 494.791 312.714C495.147 313.077 495.629 313.281 496.132 313.281ZM522.683 296.657L529.485 303.601H522.683V296.657Z" fill="#FF5900"/>
</g>
<g filter="url(#filter7_di_4039_899)">
<path d="M511.378 394.803C513.31 393.687 515.69 393.687 517.622 394.803L554.246 415.947C556.178 417.063 557.368 419.124 557.368 421.355L557.368 463.645C557.368 465.876 556.178 467.937 554.246 469.053L517.622 490.197C515.69 491.313 513.31 491.313 511.378 490.197L474.754 469.053C472.822 467.937 471.632 465.876 471.632 463.645L471.632 421.355C471.632 419.124 472.822 417.063 474.754 415.947L511.378 394.803Z" fill="#0E0E0E"/>
<path d="M511.378 394.803C513.31 393.687 515.69 393.687 517.622 394.803L554.246 415.947C556.178 417.063 557.368 419.124 557.368 421.355L557.368 463.645C557.368 465.876 556.178 467.937 554.246 469.053L517.622 490.197C515.69 491.313 513.31 491.313 511.378 490.197L474.754 469.053C472.822 467.937 471.632 465.876 471.632 463.645L471.632 421.355C471.632 419.124 472.822 417.063 474.754 415.947L511.378 394.803Z" fill="url(#paint10_linear_4039_899)"/>
<path d="M517.372 395.236L553.996 416.38C555.773 417.407 556.868 419.303 556.868 421.355L556.868 463.645C556.868 465.697 555.773 467.593 553.996 468.62L517.372 489.764C515.595 490.79 513.405 490.79 511.628 489.764L475.004 468.62C473.227 467.593 472.132 465.697 472.132 463.645L472.132 421.355C472.132 419.303 473.227 417.407 475.004 416.38L511.628 395.236C513.405 394.21 515.595 394.21 517.372 395.236Z" stroke="#ECECEC" style="mix-blend-mode:color-dodge"/>
</g>
<g filter="url(#filter8_di_4039_899)">
<path d="M536.196 439.803H516.283V434.847H517.942C518.822 434.847 519.666 434.498 520.289 433.879C520.911 433.259 521.261 432.419 521.261 431.542V424.934C521.261 424.058 520.911 423.217 520.289 422.598C519.666 421.978 518.822 421.63 517.942 421.63H511.304C510.424 421.63 509.58 421.978 508.957 422.598C508.335 423.217 507.985 424.058 507.985 424.934V431.542C507.985 432.419 508.335 433.259 508.957 433.879C509.58 434.498 510.424 434.847 511.304 434.847H512.964V439.803H493.05C492.61 439.803 492.188 439.977 491.877 440.287C491.565 440.597 491.391 441.017 491.391 441.455C491.391 441.893 491.565 442.313 491.877 442.623C492.188 442.933 492.61 443.107 493.05 443.107H499.688V449.715H498.028C497.148 449.715 496.304 450.063 495.682 450.683C495.059 451.303 494.71 452.143 494.71 453.02V459.628C494.71 460.504 495.059 461.345 495.682 461.964C496.304 462.584 497.148 462.932 498.028 462.932H504.666C505.547 462.932 506.391 462.584 507.013 461.964C507.636 461.345 507.985 460.504 507.985 459.628V453.02C507.985 452.143 507.636 451.303 507.013 450.683C506.391 450.063 505.547 449.715 504.666 449.715H503.007V443.107H526.239V449.715H524.58C523.7 449.715 522.855 450.063 522.233 450.683C521.611 451.303 521.261 452.143 521.261 453.02V459.628C521.261 460.504 521.611 461.345 522.233 461.964C522.855 462.584 523.7 462.932 524.58 462.932H531.218C532.098 462.932 532.942 462.584 533.565 461.964C534.187 461.345 534.537 460.504 534.537 459.628V453.02C534.537 452.143 534.187 451.303 533.565 450.683C532.942 450.063 532.098 449.715 531.218 449.715H529.558V443.107H536.196C536.636 443.107 537.058 442.933 537.369 442.623C537.681 442.313 537.856 441.893 537.856 441.455C537.856 441.017 537.681 440.597 537.369 440.287C537.058 439.977 536.636 439.803 536.196 439.803ZM511.304 424.934H517.942V431.542H511.304V424.934ZM504.666 459.628H498.028V453.02H504.666V459.628ZM531.218 459.628H524.58V453.02H531.218V459.628Z" fill="#FF5900"/>
</g>
</g>
<defs>
<filter id="filter0_di_4039_899" x="6.83867" y="136.906" width="212.323" height="238.189" filterUnits="userSpaceOnUse" color-interpolation-filters="sRGB">
<feFlood flood-opacity="0" result="BackgroundImageFix"/>
<feColorMatrix in="SourceAlpha" type="matrix" values="0 0 0 0 0 0 0 0 0 0 0 0 0 0 0 0 0 0 127 0" result="hardAlpha"/>
<feOffset/>
<feGaussianBlur stdDeviation="4.15"/>
<feComposite in2="hardAlpha" operator="out"/>
<feColorMatrix type="matrix" values="0 0 0 0 0 0 0 0 0 0 0 0 0 0 0 0 0 0 0.25 0"/>
<feBlend mode="normal" in2="BackgroundImageFix" result="effect1_dropShadow_4039_899"/>
<feBlend mode="normal" in="SourceGraphic" in2="effect1_dropShadow_4039_899" result="shape"/>
<feColorMatrix in="SourceAlpha" type="matrix" values="0 0 0 0 0 0 0 0 0 0 0 0 0 0 0 0 0 0 127 0" result="hardAlpha"/>
<feOffset/>
<feGaussianBlur stdDeviation="16.15"/>
<feComposite in2="hardAlpha" operator="arithmetic" k2="-1" k3="1"/>
<feColorMatrix type="matrix" values="0 0 0 0 1 0 0 0 0 1 0 0 0 0 1 0 0 0 0.67 0"/>
<feBlend mode="normal" in2="shape" result="effect2_innerShadow_4039_899"/>
</filter>
<filter id="filter1_di_4039_899" x="467.996" y="-2.67002" width="93.008" height="104.34" filterUnits="userSpaceOnUse" color-interpolation-filters="sRGB">
<feFlood flood-opacity="0" result="BackgroundImageFix"/>
<feColorMatrix in="SourceAlpha" type="matrix" values="0 0 0 0 0 0 0 0 0 0 0 0 0 0 0 0 0 0 127 0" result="hardAlpha"/>
<feOffset/>
<feGaussianBlur stdDeviation="1.81792"/>
<feComposite in2="hardAlpha" operator="out"/>
<feColorMatrix type="matrix" values="0 0 0 0 0 0 0 0 0 0 0 0 0 0 0 0 0 0 0.25 0"/>
<feBlend mode="normal" in2="BackgroundImageFix" result="effect1_dropShadow_4039_899"/>
<feBlend mode="normal" in="SourceGraphic" in2="effect1_dropShadow_4039_899" result="shape"/>
<feColorMatrix in="SourceAlpha" type="matrix" values="0 0 0 0 0 0 0 0 0 0 0 0 0 0 0 0 0 0 127 0" result="hardAlpha"/>
<feOffset/>
<feGaussianBlur stdDeviation="6.9"/>
<feComposite in2="hardAlpha" operator="arithmetic" k2="-1" k3="1"/>
<feColorMatrix type="matrix" values="0 0 0 0 1 0 0 0 0 1 0 0 0 0 1 0 0 0 0.67 0"/>
<feBlend mode="normal" in2="shape" result="effect2_innerShadow_4039_899"/>
</filter>
<filter id="filter2_di_4039_899" x="467.868" y="5.49586" width="93.5112" height="87.5703" filterUnits="userSpaceOnUse" color-interpolation-filters="sRGB">
<feFlood flood-opacity="0" result="BackgroundImageFix"/>
<feColorMatrix in="SourceAlpha" type="matrix" values="0 0 0 0 0 0 0 0 0 0 0 0 0 0 0 0 0 0 127 0" result="hardAlpha"/>
<feOffset/>
<feGaussianBlur stdDeviation="3.82287"/>
<feComposite in2="hardAlpha" operator="out"/>
<feColorMatrix type="matrix" values="0 0 0 0 0 0 0 0 0 0 0 0 0 0 0 0 0 0 0.25 0"/>
<feBlend mode="normal" in2="BackgroundImageFix" result="effect1_dropShadow_4039_899"/>
<feBlend mode="normal" in="SourceGraphic" in2="effect1_dropShadow_4039_899" result="shape"/>
<feColorMatrix in="SourceAlpha" type="matrix" values="0 0 0 0 0 0 0 0 0 0 0 0 0 0 0 0 0 0 127 0" result="hardAlpha"/>
<feOffset/>
<feGaussianBlur stdDeviation="10.8238"/>
<feComposite in2="hardAlpha" operator="arithmetic" k2="-1" k3="1"/>
<feColorMatrix type="matrix" values="0 0 0 0 1 0 0 0 0 1 0 0 0 0 1 0 0 0 0.25 0"/>
<feBlend mode="normal" in2="shape" result="effect2_innerShadow_4039_899"/>
</filter>
<filter id="filter3_di_4039_899" x="467.996" y="120.33" width="93.008" height="104.34" filterUnits="userSpaceOnUse" color-interpolation-filters="sRGB">
<feFlood flood-opacity="0" result="BackgroundImageFix"/>
<feColorMatrix in="SourceAlpha" type="matrix" values="0 0 0 0 0 0 0 0 0 0 0 0 0 0 0 0 0 0 127 0" result="hardAlpha"/>
<feOffset/>
<feGaussianBlur stdDeviation="1.81792"/>
<feComposite in2="hardAlpha" operator="out"/>
<feColorMatrix type="matrix" values="0 0 0 0 0 0 0 0 0 0 0 0 0 0 0 0 0 0 0.25 0"/>
<feBlend mode="normal" in2="BackgroundImageFix" result="effect1_dropShadow_4039_899"/>
<feBlend mode="normal" in="SourceGraphic" in2="effect1_dropShadow_4039_899" result="shape"/>
<feColorMatrix in="SourceAlpha" type="matrix" values="0 0 0 0 0 0 0 0 0 0 0 0 0 0 0 0 0 0 127 0" result="hardAlpha"/>
<feOffset/>
<feGaussianBlur stdDeviation="6.9"/>
<feComposite in2="hardAlpha" operator="arithmetic" k2="-1" k3="1"/>
<feColorMatrix type="matrix" values="0 0 0 0 1 0 0 0 0 1 0 0 0 0 1 0 0 0 0.67 0"/>
<feBlend mode="normal" in2="shape" result="effect2_innerShadow_4039_899"/>
</filter>
<filter id="filter4_di_4039_899" x="467.869" y="125.656" width="93.5073" height="93.2505" filterUnits="userSpaceOnUse" color-interpolation-filters="sRGB">
<feFlood flood-opacity="0" result="BackgroundImageFix"/>
<feColorMatrix in="SourceAlpha" type="matrix" values="0 0 0 0 0 0 0 0 0 0 0 0 0 0 0 0 0 0 127 0" result="hardAlpha"/>
<feOffset/>
<feGaussianBlur stdDeviation="3.82287"/>
<feComposite in2="hardAlpha" operator="out"/>
<feColorMatrix type="matrix" values="0 0 0 0 0 0 0 0 0 0 0 0 0 0 0 0 0 0 0.25 0"/>
<feBlend mode="normal" in2="BackgroundImageFix" result="effect1_dropShadow_4039_899"/>
<feBlend mode="normal" in="SourceGraphic" in2="effect1_dropShadow_4039_899" result="shape"/>
<feColorMatrix in="SourceAlpha" type="matrix" values="0 0 0 0 0 0 0 0 0 0 0 0 0 0 0 0 0 0 127 0" result="hardAlpha"/>
<feOffset/>
<feGaussianBlur stdDeviation="10.8238"/>
<feComposite in2="hardAlpha" operator="arithmetic" k2="-1" k3="1"/>
<feColorMatrix type="matrix" values="0 0 0 0 1 0 0 0 0 1 0 0 0 0 1 0 0 0 0.25 0"/>
<feBlend mode="normal" in2="shape" result="effect2_innerShadow_4039_899"/>
</filter>
<filter id="filter5_di_4039_899" x="467.996" y="261.33" width="93.008" height="104.34" filterUnits="userSpaceOnUse" color-interpolation-filters="sRGB">
<feFlood flood-opacity="0" result="BackgroundImageFix"/>
<feColorMatrix in="SourceAlpha" type="matrix" values="0 0 0 0 0 0 0 0 0 0 0 0 0 0 0 0 0 0 127 0" result="hardAlpha"/>
<feOffset/>
<feGaussianBlur stdDeviation="1.81792"/>
<feComposite in2="hardAlpha" operator="out"/>
<feColorMatrix type="matrix" values="0 0 0 0 0 0 0 0 0 0 0 0 0 0 0 0 0 0 0.25 0"/>
<feBlend mode="normal" in2="BackgroundImageFix" result="effect1_dropShadow_4039_899"/>
<feBlend mode="normal" in="SourceGraphic" in2="effect1_dropShadow_4039_899" result="shape"/>
<feColorMatrix in="SourceAlpha" type="matrix" values="0 0 0 0 0 0 0 0 0 0 0 0 0 0 0 0 0 0 127 0" result="hardAlpha"/>
<feOffset/>
<feGaussianBlur stdDeviation="6.9"/>
<feComposite in2="hardAlpha" operator="arithmetic" k2="-1" k3="1"/>
<feColorMatrix type="matrix" values="0 0 0 0 1 0 0 0 0 1 0 0 0 0 1 0 0 0 0.67 0"/>
<feBlend mode="normal" in2="shape" result="effect2_innerShadow_4039_899"/>
</filter>
<filter id="filter6_di_4039_899" x="467.869" y="266.527" width="93.5073" height="93.5073" filterUnits="userSpaceOnUse" color-interpolation-filters="sRGB">
<feFlood flood-opacity="0" result="BackgroundImageFix"/>
<feColorMatrix in="SourceAlpha" type="matrix" values="0 0 0 0 0 0 0 0 0 0 0 0 0 0 0 0 0 0 127 0" result="hardAlpha"/>
<feOffset/>
<feGaussianBlur stdDeviation="3.82287"/>
<feComposite in2="hardAlpha" operator="out"/>
<feColorMatrix type="matrix" values="0 0 0 0 0 0 0 0 0 0 0 0 0 0 0 0 0 0 0.25 0"/>
<feBlend mode="normal" in2="BackgroundImageFix" result="effect1_dropShadow_4039_899"/>
<feBlend mode="normal" in="SourceGraphic" in2="effect1_dropShadow_4039_899" result="shape"/>
<feColorMatrix in="SourceAlpha" type="matrix" values="0 0 0 0 0 0 0 0 0 0 0 0 0 0 0 0 0 0 127 0" result="hardAlpha"/>
<feOffset/>
<feGaussianBlur stdDeviation="10.8238"/>
<feComposite in2="hardAlpha" operator="arithmetic" k2="-1" k3="1"/>
<feColorMatrix type="matrix" values="0 0 0 0 1 0 0 0 0 1 0 0 0 0 1 0 0 0 0.25 0"/>
<feBlend mode="normal" in2="shape" result="effect2_innerShadow_4039_899"/>
</filter>
<filter id="filter7_di_4039_899" x="467.996" y="390.33" width="93.008" height="104.34" filterUnits="userSpaceOnUse" color-interpolation-filters="sRGB">
<feFlood flood-opacity="0" result="BackgroundImageFix"/>
<feColorMatrix in="SourceAlpha" type="matrix" values="0 0 0 0 0 0 0 0 0 0 0 0 0 0 0 0 0 0 127 0" result="hardAlpha"/>
<feOffset/>
<feGaussianBlur stdDeviation="1.81792"/>
<feComposite in2="hardAlpha" operator="out"/>
<feColorMatrix type="matrix" values="0 0 0 0 0 0 0 0 0 0 0 0 0 0 0 0 0 0 0.25 0"/>
<feBlend mode="normal" in2="BackgroundImageFix" result="effect1_dropShadow_4039_899"/>
<feBlend mode="normal" in="SourceGraphic" in2="effect1_dropShadow_4039_899" result="shape"/>
<feColorMatrix in="SourceAlpha" type="matrix" values="0 0 0 0 0 0 0 0 0 0 0 0 0 0 0 0 0 0 127 0" result="hardAlpha"/>
<feOffset/>
<feGaussianBlur stdDeviation="6.9"/>
<feComposite in2="hardAlpha" operator="arithmetic" k2="-1" k3="1"/>
<feColorMatrix type="matrix" values="0 0 0 0 1 0 0 0 0 1 0 0 0 0 1 0 0 0 0.67 0"/>
<feBlend mode="normal" in2="shape" result="effect2_innerShadow_4039_899"/>
</filter>
<filter id="filter8_di_4039_899" x="467.869" y="395.527" width="93.5073" height="93.5073" filterUnits="userSpaceOnUse" color-interpolation-filters="sRGB">
<feFlood flood-opacity="0" result="BackgroundImageFix"/>
<feColorMatrix in="SourceAlpha" type="matrix" values="0 0 0 0 0 0 0 0 0 0 0 0 0 0 0 0 0 0 127 0" result="hardAlpha"/>
<feOffset/>
<feGaussianBlur stdDeviation="3.82287"/>
<feComposite in2="hardAlpha" operator="out"/>
<feColorMatrix type="matrix" values="0 0 0 0 0 0 0 0 0 0 0 0 0 0 0 0 0 0 0.25 0"/>
<feBlend mode="normal" in2="BackgroundImageFix" result="effect1_dropShadow_4039_899"/>
<feBlend mode="normal" in="SourceGraphic" in2="effect1_dropShadow_4039_899" result="shape"/>
<feColorMatrix in="SourceAlpha" type="matrix" values="0 0 0 0 0 0 0 0 0 0 0 0 0 0 0 0 0 0 127 0" result="hardAlpha"/>
<feOffset/>
<feGaussianBlur stdDeviation="10.8238"/>
<feComposite in2="hardAlpha" operator="arithmetic" k2="-1" k3="1"/>
<feColorMatrix type="matrix" values="0 0 0 0 1 0 0 0 0 1 0 0 0 0 1 0 0 0 0.25 0"/>
<feBlend mode="normal" in2="shape" result="effect2_innerShadow_4039_899"/>
</filter>
<linearGradient id="paint0_linear_4039_899" x1="341.84" y1="265" x2="341.84" y2="320.845" gradientUnits="userSpaceOnUse">
<stop stop-color="white"/>
<stop offset="1" stop-color="#999999"/>
</linearGradient>
<linearGradient id="paint1_linear_4039_899" x1="341.751" y1="54" x2="341.751" y2="208.33" gradientUnits="userSpaceOnUse">
<stop stop-color="white"/>
<stop offset="1" stop-color="#999999"/>
</linearGradient>
<linearGradient id="paint2_linear_4039_899" x1="346.976" y1="293" x2="346.976" y2="450.12" gradientUnits="userSpaceOnUse">
<stop stop-color="white"/>
<stop offset="1" stop-color="#999999"/>
</linearGradient>
<linearGradient id="paint3_linear_4039_899" x1="346.471" y1="181" x2="346.471" y2="234.801" gradientUnits="userSpaceOnUse">
<stop stop-color="white"/>
<stop offset="1" stop-color="#999999"/>
</linearGradient>
<linearGradient id="paint4_linear_4039_899" x1="479" y1="238.5" x2="45.5" y2="242" gradientUnits="userSpaceOnUse">
<stop stop-color="#FF6A00"/>
<stop offset="1" stop-opacity="0"/>
</linearGradient>
<linearGradient id="paint5_linear_4039_899" x1="344.5" y1="41" x2="344.5" y2="485" gradientUnits="userSpaceOnUse">
<stop stop-color="white"/>
<stop offset="1" stop-color="#999999"/>
</linearGradient>
<linearGradient id="paint6_linear_4039_899" x1="27.5" y1="136.5" x2="135" y2="314" gradientUnits="userSpaceOnUse">
<stop stop-color="#474747"/>
<stop offset="1"/>
</linearGradient>
<linearGradient id="paint7_linear_4039_899" x1="477.046" y1="-2.84735" x2="524.137" y2="74.9071" gradientUnits="userSpaceOnUse">
<stop stop-color="#474747"/>
<stop offset="1"/>
</linearGradient>
<linearGradient id="paint8_linear_4039_899" x1="477.046" y1="120.153" x2="524.137" y2="197.907" gradientUnits="userSpaceOnUse">
<stop stop-color="#474747"/>
<stop offset="1"/>
</linearGradient>
<linearGradient id="paint9_linear_4039_899" x1="477.046" y1="261.153" x2="524.137" y2="338.907" gradientUnits="userSpaceOnUse">
<stop stop-color="#474747"/>
<stop offset="1"/>
</linearGradient>
<linearGradient id="paint10_linear_4039_899" x1="477.046" y1="390.153" x2="524.137" y2="467.907" gradientUnits="userSpaceOnUse">
<stop stop-color="#474747"/>
<stop offset="1"/>
</linearGradient>
<clipPath id="clip0_4039_899">
<rect width="569.507" height="499.507" fill="white"/>
</clipPath>
<clipPath id="clip1_4039_899">
<rect width="226" height="226" fill="white" transform="translate(0 143)"/>
</clipPath>
</defs>
</svg>
