<svg width="635" height="573" viewBox="0 0 635 573" fill="none" xmlns="http://www.w3.org/2000/svg">
<path d="M587 571.754H2.76562L4.25391 570.088L62.749 504.628C56.8259 498.079 50.6356 490.255 46.6416 482.725C44.5762 478.831 43.0723 474.967 42.5166 471.368C41.9597 467.761 42.3481 464.355 44.1514 461.47L44.4717 460.978C47.8871 455.926 54.5805 451.977 62.7158 448.66C71.1593 445.218 81.3743 442.376 91.624 439.72C101.901 437.056 112.202 434.582 120.921 431.865C129.684 429.135 136.629 426.219 140.316 422.77L140.697 422.421C144.631 418.897 148.491 417.853 152.297 418.425C156.138 419.002 159.79 421.21 163.277 423.755C165.029 425.033 166.779 426.428 168.505 427.775C170.24 429.13 171.959 430.444 173.688 431.598C177.161 433.916 180.551 435.5 184 435.5C185.533 435.5 186.966 434.801 188.369 433.406C189.785 432 191.109 429.942 192.386 427.382C194.942 422.255 197.165 415.402 199.554 408.426C201.924 401.503 204.454 394.467 207.609 389.161C210.745 383.888 214.692 380 220 380C225.121 380 229.327 382.589 233.124 386.258C236.902 389.909 240.42 394.779 244.102 399.513C251.555 409.096 259.784 418.254 273 418.254C279.378 418.254 285.148 413.725 290.829 406.451C296.485 399.21 301.832 389.54 307.445 379.756C313.033 370.017 318.877 360.177 325.48 352.775C332.082 345.375 339.582 340.254 348.5 340.254C352.398 340.254 356.274 338.299 360.163 334.658C364.05 331.02 367.859 325.78 371.599 319.419C379.078 306.697 386.162 289.704 393.01 272.632C399.842 255.598 406.442 238.477 412.928 225.631C416.17 219.209 419.414 213.793 422.683 209.97C425.923 206.179 429.358 203.754 433 203.754C445.509 203.754 453.449 199.849 462.599 195.838C471.783 191.812 482.054 187.754 499 187.754C515.56 187.754 537.167 181.436 554.722 175.063C563.48 171.884 571.195 168.705 576.721 166.32C579.483 165.128 581.698 164.134 583.221 163.439C583.982 163.092 584.57 162.819 584.968 162.634C585.167 162.541 585.318 162.471 585.419 162.423C585.469 162.399 585.507 162.381 585.532 162.369C585.545 162.363 585.554 162.358 585.561 162.355C585.563 162.354 585.566 162.353 585.567 162.353L585.569 162.352L587 161.67V571.754Z" fill="url(#paint0_linear_1_2767)" stroke="url(#paint1_linear_1_2767)" stroke-width="2"/>
<line x1="428" y1="211.254" x2="428" y2="495.254" stroke="url(#paint2_linear_1_2767)" stroke-width="4"/>
<g filter="url(#filter0_di_1_2767)">
<circle cx="427" cy="208.254" r="11" fill="white"/>
<circle cx="427" cy="208.254" r="10" stroke="white" stroke-width="2"/>
</g>
<path d="M176.685 105.636H358.883C375.478 105.636 388.932 119.089 388.932 135.685V203.277C388.932 219.873 375.478 233.326 358.883 233.326H176.685C160.089 233.326 146.636 219.873 146.636 203.277V135.685C146.636 119.089 160.089 105.636 176.685 105.636Z" fill="#786047" fill-opacity="0.2"/>
<path d="M176.685 105.636H358.883C375.478 105.636 388.932 119.089 388.932 135.685V203.277C388.932 219.873 375.478 233.326 358.883 233.326H176.685C160.089 233.326 146.636 219.873 146.636 203.277V135.685C146.636 119.089 160.089 105.636 176.685 105.636Z" stroke="white" stroke-width="1.27134"/>
<path d="M245.862 140.496H219.678V152.078C220.797 150.847 222.364 149.84 224.378 149.057C226.392 148.273 228.574 147.882 230.924 147.882C235.12 147.882 238.589 148.833 241.331 150.735C244.128 152.637 246.17 155.099 247.457 158.12C248.744 161.142 249.387 164.415 249.387 167.939C249.387 174.486 247.541 179.689 243.848 183.549C240.156 187.354 234.952 189.256 228.238 189.256C223.762 189.256 219.874 188.501 216.573 186.99C213.272 185.424 210.726 183.27 208.936 180.528C207.146 177.787 206.166 174.625 205.999 171.045H220.014C220.35 172.779 221.161 174.234 222.448 175.409C223.734 176.528 225.497 177.087 227.735 177.087C230.364 177.087 232.323 176.248 233.61 174.569C234.896 172.891 235.54 170.653 235.54 167.856C235.54 165.114 234.868 163.016 233.526 161.561C232.183 160.107 230.225 159.379 227.651 159.379C225.749 159.379 224.182 159.855 222.951 160.806C221.72 161.701 220.909 162.904 220.517 164.415H206.67V127.908H245.862V140.496ZM257.309 157.785C257.309 148.161 259.155 140.58 262.848 135.041C266.596 129.502 272.611 126.733 280.891 126.733C289.172 126.733 295.158 129.502 298.851 135.041C302.6 140.58 304.474 148.161 304.474 157.785C304.474 167.52 302.6 175.157 298.851 180.696C295.158 186.235 289.172 189.004 280.891 189.004C272.611 189.004 266.596 186.235 262.848 180.696C259.155 175.157 257.309 167.52 257.309 157.785ZM290.375 157.785C290.375 152.134 289.759 147.798 288.528 144.776C287.298 141.699 284.752 140.161 280.891 140.161C277.031 140.161 274.485 141.699 273.254 144.776C272.023 147.798 271.408 152.134 271.408 157.785C271.408 161.589 271.632 164.75 272.079 167.268C272.527 169.73 273.422 171.744 274.765 173.311C276.164 174.821 278.206 175.577 280.891 175.577C283.577 175.577 285.591 174.821 286.934 173.311C288.333 171.744 289.256 169.73 289.703 167.268C290.151 164.75 290.375 161.589 290.375 157.785ZM341.178 189.256L332.198 176.248L324.645 189.256H309.119L324.561 165.338L308.699 142.427H324.812L333.792 155.351L341.345 142.427H356.871L341.178 166.009L357.291 189.256H341.178Z" fill="white"/>
<path d="M181.917 216.835C181.423 216.835 180.981 216.744 180.591 216.562C180.209 216.38 179.906 216.116 179.681 215.769C179.464 215.423 179.356 214.994 179.356 214.482V214.027H180.63V214.404C180.63 214.881 180.76 215.228 181.02 215.444C181.288 215.661 181.618 215.769 182.008 215.769C182.389 215.769 182.714 215.661 182.983 215.444C183.251 215.219 183.386 214.872 183.386 214.404V207.787H184.751V214.482C184.751 215.002 184.629 215.436 184.387 215.782C184.153 216.129 183.836 216.393 183.438 216.575C183.039 216.749 182.588 216.835 182.086 216.835H181.917ZM188.62 216.835C187.909 216.835 187.337 216.636 186.904 216.237C186.479 215.839 186.267 215.236 186.267 214.43V210.062H187.58V214.183C187.58 214.738 187.705 215.15 187.957 215.418C188.217 215.687 188.576 215.821 189.036 215.821C189.339 215.821 189.608 215.748 189.842 215.6C190.084 215.444 190.271 215.236 190.401 214.976C190.539 214.716 190.609 214.426 190.609 214.105V210.062H191.909V215.509C191.909 215.648 191.939 215.748 192 215.808C192.06 215.869 192.151 215.899 192.273 215.899C192.359 215.899 192.446 215.891 192.533 215.873C192.619 215.856 192.71 215.813 192.806 215.743V216.588C192.693 216.666 192.55 216.727 192.377 216.77C192.212 216.814 192.043 216.835 191.87 216.835C191.558 216.835 191.319 216.792 191.155 216.705C190.999 216.61 190.89 216.48 190.83 216.315C190.778 216.151 190.743 215.964 190.726 215.756C190.596 215.99 190.431 216.19 190.232 216.354C190.032 216.51 189.798 216.627 189.53 216.705C189.261 216.792 188.958 216.835 188.62 216.835ZM193.555 216.705V210.062H194.608L194.738 211.011C194.937 210.639 195.219 210.366 195.583 210.192C195.947 210.019 196.35 209.932 196.792 209.932C197.52 209.932 198.1 210.136 198.534 210.543C198.967 210.951 199.184 211.553 199.184 212.35V216.705H197.884V212.727C197.884 212.103 197.754 211.648 197.494 211.362C197.242 211.076 196.887 210.933 196.428 210.933C196.107 210.933 195.83 211.016 195.596 211.18C195.362 211.336 195.18 211.557 195.05 211.843C194.92 212.121 194.855 212.441 194.855 212.805V216.705H193.555ZM209.027 216.705C209.027 215.925 209.123 215.176 209.313 214.456C209.504 213.728 209.755 213.039 210.067 212.389C210.388 211.731 210.735 211.12 211.107 210.556C211.489 209.984 211.866 209.464 212.238 208.996H207.597V207.787H213.889V208.437C213.369 209.079 212.893 209.729 212.459 210.387C212.026 211.046 211.658 211.718 211.354 212.402C211.06 213.087 210.839 213.789 210.691 214.508C210.544 215.219 210.492 215.951 210.535 216.705H209.027ZM216.978 218.59V218.421C217.212 218.153 217.39 217.875 217.511 217.589C217.633 217.303 217.693 217.009 217.693 216.705H217.03V214.937H218.512V216.458C218.512 216.84 218.447 217.212 218.317 217.576C218.196 217.949 218.01 218.287 217.758 218.59H216.978ZM221.796 216.705V216.315C221.796 215.778 221.896 215.319 222.095 214.937C222.295 214.547 222.607 214.209 223.031 213.923L225.644 212.207C225.922 212.017 226.16 211.774 226.359 211.479C226.567 211.176 226.671 210.821 226.671 210.413C226.671 209.911 226.524 209.508 226.229 209.204C225.935 208.901 225.501 208.749 224.929 208.749C224.583 208.749 224.271 208.827 223.993 208.983C223.725 209.131 223.508 209.339 223.343 209.607C223.187 209.867 223.109 210.166 223.109 210.504C223.109 210.574 223.109 210.639 223.109 210.699C223.109 210.751 223.114 210.803 223.122 210.855H221.887C221.879 210.795 221.874 210.751 221.874 210.725C221.874 210.691 221.874 210.656 221.874 210.621C221.874 210.041 222.004 209.529 222.264 209.087C222.524 208.637 222.884 208.286 223.343 208.034C223.811 207.783 224.344 207.657 224.942 207.657H225.085C225.683 207.657 226.199 207.774 226.632 208.008C227.074 208.234 227.412 208.55 227.646 208.957C227.889 209.365 228.01 209.837 228.01 210.374C228.01 210.825 227.932 211.219 227.776 211.557C227.629 211.887 227.425 212.177 227.165 212.428C226.914 212.68 226.628 212.914 226.307 213.13L224.11 214.56C223.92 214.69 223.772 214.816 223.668 214.937C223.564 215.05 223.491 215.158 223.447 215.262C223.404 215.366 223.374 215.466 223.356 215.561H228.049V216.705H221.796ZM231.931 216.835C231.376 216.835 230.874 216.71 230.423 216.458C229.972 216.198 229.617 215.843 229.357 215.392C229.097 214.942 228.967 214.422 228.967 213.832V210.66C228.967 210.071 229.097 209.551 229.357 209.1C229.626 208.65 229.985 208.299 230.436 208.047C230.895 207.787 231.407 207.657 231.97 207.657H232.204C232.776 207.657 233.283 207.787 233.725 208.047C234.167 208.299 234.514 208.65 234.765 209.1C235.025 209.551 235.155 210.071 235.155 210.66V213.832C235.155 214.422 235.025 214.942 234.765 215.392C234.505 215.843 234.15 216.198 233.699 216.458C233.248 216.71 232.741 216.835 232.178 216.835H231.931ZM232.061 215.795C232.399 215.795 232.702 215.717 232.971 215.561C233.24 215.397 233.448 215.18 233.595 214.911C233.751 214.643 233.829 214.339 233.829 214.001V210.491C233.829 210.145 233.751 209.837 233.595 209.568C233.448 209.3 233.24 209.087 232.971 208.931C232.702 208.775 232.399 208.697 232.061 208.697C231.723 208.697 231.42 208.775 231.151 208.931C230.891 209.087 230.683 209.3 230.527 209.568C230.371 209.837 230.293 210.145 230.293 210.491V214.001C230.293 214.339 230.371 214.643 230.527 214.911C230.683 215.18 230.891 215.397 231.151 215.561C231.42 215.717 231.723 215.795 232.061 215.795ZM236.086 216.705V216.315C236.086 215.778 236.186 215.319 236.385 214.937C236.584 214.547 236.896 214.209 237.321 213.923L239.934 212.207C240.211 212.017 240.45 211.774 240.649 211.479C240.857 211.176 240.961 210.821 240.961 210.413C240.961 209.911 240.814 209.508 240.519 209.204C240.224 208.901 239.791 208.749 239.219 208.749C238.872 208.749 238.56 208.827 238.283 208.983C238.014 209.131 237.798 209.339 237.633 209.607C237.477 209.867 237.399 210.166 237.399 210.504C237.399 210.574 237.399 210.639 237.399 210.699C237.399 210.751 237.403 210.803 237.412 210.855H236.177C236.168 210.795 236.164 210.751 236.164 210.725C236.164 210.691 236.164 210.656 236.164 210.621C236.164 210.041 236.294 209.529 236.554 209.087C236.814 208.637 237.174 208.286 237.633 208.034C238.101 207.783 238.634 207.657 239.232 207.657H239.375C239.973 207.657 240.489 207.774 240.922 208.008C241.364 208.234 241.702 208.55 241.936 208.957C242.179 209.365 242.3 209.837 242.3 210.374C242.3 210.825 242.222 211.219 242.066 211.557C241.919 211.887 241.715 212.177 241.455 212.428C241.204 212.68 240.918 212.914 240.597 213.13L238.4 214.56C238.209 214.69 238.062 214.816 237.958 214.937C237.854 215.05 237.78 215.158 237.737 215.262C237.694 215.366 237.663 215.466 237.646 215.561H242.339V216.705H236.086ZM246.143 216.835C245.528 216.835 244.986 216.727 244.518 216.51C244.059 216.294 243.699 215.995 243.439 215.613C243.179 215.232 243.049 214.799 243.049 214.313V214.079H244.271C244.271 214.677 244.444 215.111 244.791 215.379C245.138 215.648 245.606 215.782 246.195 215.782C246.767 215.782 247.235 215.652 247.599 215.392C247.963 215.124 248.145 214.725 248.145 214.196C248.145 213.832 248.058 213.533 247.885 213.299C247.72 213.065 247.499 212.896 247.222 212.792C246.945 212.68 246.641 212.623 246.312 212.623H245.194V211.674H246.195C246.516 211.674 246.806 211.618 247.066 211.505C247.335 211.393 247.547 211.228 247.703 211.011C247.868 210.786 247.95 210.509 247.95 210.179C247.95 209.85 247.872 209.577 247.716 209.36C247.56 209.144 247.348 208.983 247.079 208.879C246.819 208.775 246.524 208.723 246.195 208.723C245.649 208.723 245.22 208.858 244.908 209.126C244.605 209.395 244.453 209.785 244.453 210.296H243.27V210.075C243.27 209.581 243.396 209.157 243.647 208.801C243.907 208.437 244.258 208.156 244.7 207.956C245.142 207.757 245.64 207.657 246.195 207.657H246.364C246.91 207.657 247.4 207.757 247.833 207.956C248.266 208.147 248.609 208.424 248.86 208.788C249.12 209.144 249.25 209.568 249.25 210.062C249.25 210.409 249.189 210.708 249.068 210.959C248.947 211.211 248.782 211.423 248.574 211.596C248.366 211.77 248.128 211.921 247.859 212.051V212.116C248.327 212.264 248.708 212.519 249.003 212.883C249.306 213.247 249.458 213.724 249.458 214.313C249.458 214.816 249.324 215.258 249.055 215.639C248.795 216.012 248.431 216.307 247.963 216.523C247.495 216.731 246.962 216.835 246.364 216.835H246.143ZM252.703 218.59V218.421C252.937 218.153 253.115 217.875 253.236 217.589C253.357 217.303 253.418 217.009 253.418 216.705H252.755V214.937H254.237V216.458C254.237 216.84 254.172 217.212 254.042 217.576C253.921 217.949 253.734 218.287 253.483 218.59H252.703ZM264.978 216.705V215.626H267.331V209.295H264.978V208.502C265.264 208.476 265.58 208.429 265.927 208.359C266.273 208.281 266.637 208.186 267.019 208.073C267.409 207.952 267.79 207.813 268.163 207.657H268.644V215.626H270.971V216.705H264.978ZM271.811 216.705V216.315C271.811 215.778 271.91 215.319 272.11 214.937C272.309 214.547 272.621 214.209 273.046 213.923L275.659 212.207C275.936 212.017 276.174 211.774 276.374 211.479C276.582 211.176 276.686 210.821 276.686 210.413C276.686 209.911 276.538 209.508 276.244 209.204C275.949 208.901 275.516 208.749 274.944 208.749C274.597 208.749 274.285 208.827 274.008 208.983C273.739 209.131 273.522 209.339 273.358 209.607C273.202 209.867 273.124 210.166 273.124 210.504C273.124 210.574 273.124 210.639 273.124 210.699C273.124 210.751 273.128 210.803 273.137 210.855H271.902C271.893 210.795 271.889 210.751 271.889 210.725C271.889 210.691 271.889 210.656 271.889 210.621C271.889 210.041 272.019 209.529 272.279 209.087C272.539 208.637 272.898 208.286 273.358 208.034C273.826 207.783 274.359 207.657 274.957 207.657H275.1C275.698 207.657 276.213 207.774 276.647 208.008C277.089 208.234 277.427 208.55 277.661 208.957C277.903 209.365 278.025 209.837 278.025 210.374C278.025 210.825 277.947 211.219 277.791 211.557C277.643 211.887 277.44 212.177 277.18 212.428C276.928 212.68 276.642 212.914 276.322 213.13L274.125 214.56C273.934 214.69 273.787 214.816 273.683 214.937C273.579 215.05 273.505 215.158 273.462 215.262C273.418 215.366 273.388 215.466 273.371 215.561H278.064V216.705H271.811ZM281.231 216.705V215.093H282.921V216.705H281.231ZM281.231 211.661V210.049H282.921V211.661H281.231ZM289.247 216.835C288.614 216.835 288.064 216.71 287.596 216.458C287.128 216.198 286.768 215.852 286.517 215.418C286.265 214.976 286.14 214.469 286.14 213.897H287.375C287.375 214.244 287.448 214.56 287.596 214.846C287.752 215.124 287.964 215.345 288.233 215.509C288.51 215.674 288.835 215.756 289.208 215.756C289.598 215.756 289.927 215.67 290.196 215.496C290.473 215.323 290.681 215.089 290.82 214.794C290.967 214.5 291.041 214.183 291.041 213.845C291.041 213.481 290.958 213.156 290.794 212.87C290.638 212.576 290.421 212.346 290.144 212.181C289.866 212.017 289.554 211.934 289.208 211.934C288.87 211.934 288.549 212.021 288.246 212.194C287.951 212.368 287.721 212.589 287.557 212.857L286.452 212.701L286.829 207.787H291.873V208.996H287.908L287.713 211.596C287.938 211.388 288.207 211.219 288.519 211.089C288.831 210.959 289.169 210.894 289.533 210.894C290.096 210.894 290.586 211.02 291.002 211.271C291.426 211.514 291.756 211.861 291.99 212.311C292.232 212.753 292.354 213.273 292.354 213.871C292.354 214.435 292.224 214.937 291.964 215.379C291.704 215.821 291.34 216.177 290.872 216.445C290.412 216.705 289.871 216.835 289.247 216.835ZM296.157 216.835C295.542 216.835 295 216.727 294.532 216.51C294.073 216.294 293.713 215.995 293.453 215.613C293.193 215.232 293.063 214.799 293.063 214.313V214.079H294.285C294.285 214.677 294.459 215.111 294.805 215.379C295.152 215.648 295.62 215.782 296.209 215.782C296.781 215.782 297.249 215.652 297.613 215.392C297.977 215.124 298.159 214.725 298.159 214.196C298.159 213.832 298.073 213.533 297.899 213.299C297.735 213.065 297.514 212.896 297.236 212.792C296.959 212.68 296.656 212.623 296.326 212.623H295.208V211.674H296.209C296.53 211.674 296.82 211.618 297.08 211.505C297.349 211.393 297.561 211.228 297.717 211.011C297.882 210.786 297.964 210.509 297.964 210.179C297.964 209.85 297.886 209.577 297.73 209.36C297.574 209.144 297.362 208.983 297.093 208.879C296.833 208.775 296.539 208.723 296.209 208.723C295.663 208.723 295.234 208.858 294.922 209.126C294.619 209.395 294.467 209.785 294.467 210.296H293.284V210.075C293.284 209.581 293.41 209.157 293.661 208.801C293.921 208.437 294.272 208.156 294.714 207.956C295.156 207.757 295.655 207.657 296.209 207.657H296.378C296.924 207.657 297.414 207.757 297.847 207.956C298.281 208.147 298.623 208.424 298.874 208.788C299.134 209.144 299.264 209.568 299.264 210.062C299.264 210.409 299.204 210.708 299.082 210.959C298.961 211.211 298.796 211.423 298.588 211.596C298.38 211.77 298.142 211.921 297.873 212.051V212.116C298.341 212.264 298.723 212.519 299.017 212.883C299.321 213.247 299.472 213.724 299.472 214.313C299.472 214.816 299.338 215.258 299.069 215.639C298.809 216.012 298.445 216.307 297.977 216.523C297.509 216.731 296.976 216.835 296.378 216.835H296.157ZM302.665 216.705V215.093H304.355V216.705H302.665ZM302.665 211.661V210.049H304.355V211.661H302.665ZM310.447 216.835C309.832 216.835 309.29 216.727 308.822 216.51C308.363 216.294 308.003 215.995 307.743 215.613C307.483 215.232 307.353 214.799 307.353 214.313V214.079H308.575C308.575 214.677 308.749 215.111 309.095 215.379C309.442 215.648 309.91 215.782 310.499 215.782C311.071 215.782 311.539 215.652 311.903 215.392C312.267 215.124 312.449 214.725 312.449 214.196C312.449 213.832 312.363 213.533 312.189 213.299C312.025 213.065 311.804 212.896 311.526 212.792C311.249 212.68 310.946 212.623 310.616 212.623H309.498V211.674H310.499C310.82 211.674 311.11 211.618 311.37 211.505C311.639 211.393 311.851 211.228 312.007 211.011C312.172 210.786 312.254 210.509 312.254 210.179C312.254 209.85 312.176 209.577 312.02 209.36C311.864 209.144 311.652 208.983 311.383 208.879C311.123 208.775 310.829 208.723 310.499 208.723C309.953 208.723 309.524 208.858 309.212 209.126C308.909 209.395 308.757 209.785 308.757 210.296H307.574V210.075C307.574 209.581 307.7 209.157 307.951 208.801C308.211 208.437 308.562 208.156 309.004 207.956C309.446 207.757 309.945 207.657 310.499 207.657H310.668C311.214 207.657 311.704 207.757 312.137 207.956C312.571 208.147 312.913 208.424 313.164 208.788C313.424 209.144 313.554 209.568 313.554 210.062C313.554 210.409 313.494 210.708 313.372 210.959C313.251 211.211 313.086 211.423 312.878 211.596C312.67 211.77 312.432 211.921 312.163 212.051V212.116C312.631 212.264 313.013 212.519 313.307 212.883C313.611 213.247 313.762 213.724 313.762 214.313C313.762 214.816 313.628 215.258 313.359 215.639C313.099 216.012 312.735 216.307 312.267 216.523C311.799 216.731 311.266 216.835 310.668 216.835H310.447ZM314.992 216.705V215.626H317.345V209.295H314.992V208.502C315.278 208.476 315.595 208.429 315.941 208.359C316.288 208.281 316.652 208.186 317.033 208.073C317.423 207.952 317.805 207.813 318.177 207.657H318.658V215.626H320.985V216.705H314.992ZM331.193 216.835C330.508 216.835 329.98 216.675 329.607 216.354C329.243 216.034 329.061 215.561 329.061 214.937C329.061 214.417 329.2 214.001 329.477 213.689C329.763 213.369 330.218 213.135 330.842 212.987C331.475 212.84 332.307 212.766 333.338 212.766V212.038C333.338 211.622 333.23 211.319 333.013 211.128C332.805 210.938 332.45 210.842 331.947 210.842C331.488 210.842 331.132 210.938 330.881 211.128C330.63 211.319 330.504 211.588 330.504 211.934V212.09H329.308C329.291 211.952 329.278 211.861 329.269 211.817C329.269 211.774 329.269 211.757 329.269 211.765C329.269 211.774 329.269 211.787 329.269 211.804C329.278 211.822 329.282 211.822 329.282 211.804C329.282 211.232 329.525 210.777 330.01 210.439C330.504 210.101 331.163 209.932 331.986 209.932C332.861 209.932 333.52 210.101 333.962 210.439C334.413 210.777 334.638 211.293 334.638 211.986V215.509C334.638 215.648 334.673 215.748 334.742 215.808C334.811 215.869 334.902 215.899 335.015 215.899C335.214 215.899 335.388 215.847 335.535 215.743V216.588C335.422 216.666 335.284 216.727 335.119 216.77C334.954 216.814 334.781 216.835 334.599 216.835C334.339 216.835 334.127 216.801 333.962 216.731C333.797 216.671 333.676 216.562 333.598 216.406C333.52 216.25 333.468 216.034 333.442 215.756C333.295 216.025 333.104 216.242 332.87 216.406C332.636 216.562 332.376 216.671 332.09 216.731C331.804 216.801 331.505 216.835 331.193 216.835ZM331.596 215.912C331.995 215.912 332.32 215.826 332.571 215.652C332.831 215.479 333.022 215.245 333.143 214.95C333.273 214.656 333.338 214.326 333.338 213.962V213.559C332.593 213.559 331.999 213.603 331.557 213.689C331.124 213.767 330.812 213.902 330.621 214.092C330.439 214.274 330.348 214.534 330.348 214.872C330.348 215.219 330.448 215.479 330.647 215.652C330.855 215.826 331.171 215.912 331.596 215.912ZM338.39 216.705V215.093H340.08V216.705H338.39ZM343.169 216.705V210.062H343.936L344.066 210.803C344.196 210.517 344.378 210.301 344.612 210.153C344.855 210.006 345.115 209.932 345.392 209.932C345.687 209.932 345.947 210.01 346.172 210.166C346.406 210.322 346.579 210.552 346.692 210.855C346.848 210.552 347.039 210.322 347.264 210.166C347.498 210.01 347.784 209.932 348.122 209.932C348.599 209.932 348.963 210.084 349.214 210.387C349.474 210.691 349.604 211.124 349.604 211.687V216.705H348.486V211.921C348.486 211.271 348.243 210.946 347.758 210.946C347.524 210.946 347.329 211.037 347.173 211.219C347.017 211.401 346.939 211.635 346.939 211.921V216.705H345.834V211.921C345.834 211.271 345.583 210.946 345.08 210.946C344.846 210.946 344.651 211.037 344.495 211.219C344.348 211.401 344.274 211.635 344.274 211.921V216.705H343.169ZM352.68 216.705V215.093H354.37V216.705H352.68Z" fill="#999999"/>
<defs>
<filter id="filter0_di_1_2767" x="219.7" y="0.953903" width="414.6" height="414.6" filterUnits="userSpaceOnUse" color-interpolation-filters="sRGB">
<feFlood flood-opacity="0" result="BackgroundImageFix"/>
<feColorMatrix in="SourceAlpha" type="matrix" values="0 0 0 0 0 0 0 0 0 0 0 0 0 0 0 0 0 0 127 0" result="hardAlpha"/>
<feMorphology radius="80" operator="dilate" in="SourceAlpha" result="effect1_dropShadow_1_2767"/>
<feOffset/>
<feGaussianBlur stdDeviation="58.15"/>
<feComposite in2="hardAlpha" operator="out"/>
<feColorMatrix type="matrix" values="0 0 0 0 1 0 0 0 0 0.416667 0 0 0 0 0 0 0 0 1 0"/>
<feBlend mode="plus-lighter" in2="BackgroundImageFix" result="effect1_dropShadow_1_2767"/>
<feBlend mode="normal" in="SourceGraphic" in2="effect1_dropShadow_1_2767" result="shape"/>
<feColorMatrix in="SourceAlpha" type="matrix" values="0 0 0 0 0 0 0 0 0 0 0 0 0 0 0 0 0 0 127 0" result="hardAlpha"/>
<feMorphology radius="5" operator="erode" in="SourceAlpha" result="effect2_innerShadow_1_2767"/>
<feOffset dx="1" dy="3"/>
<feGaussianBlur stdDeviation="18.3"/>
<feComposite in2="hardAlpha" operator="arithmetic" k2="-1" k3="1"/>
<feColorMatrix type="matrix" values="0 0 0 0 0.956863 0 0 0 0 0.564706 0 0 0 0 0.145098 0 0 0 1 0"/>
<feBlend mode="plus-lighter" in2="shape" result="effect2_innerShadow_1_2767"/>
</filter>
<linearGradient id="paint0_linear_1_2767" x1="197.501" y1="231.754" x2="564.001" y2="598.254" gradientUnits="userSpaceOnUse">
<stop stop-color="#050505"/>
<stop offset="0.841" stop-opacity="0"/>
</linearGradient>
<linearGradient id="paint1_linear_1_2767" x1="374.001" y1="334.254" x2="449.501" y2="402.754" gradientUnits="userSpaceOnUse">
<stop stop-color="#FFFFFE"/>
<stop offset="1" stop-color="#994D00" stop-opacity="0"/>
</linearGradient>
<linearGradient id="paint2_linear_1_2767" x1="425.412" y1="211.254" x2="423.137" y2="211.32" gradientUnits="userSpaceOnUse">
<stop stop-color="white"/>
<stop offset="1" stop-opacity="0"/>
</linearGradient>
</defs>
</svg>
