<svg width="657" height="565" viewBox="0 0 657 565" fill="none" xmlns="http://www.w3.org/2000/svg">
<path opacity="0.22" d="M319.198 11.1606C332.19 4.19012 347.81 4.19014 360.802 11.1606L580.074 128.804C594.358 136.468 603.272 151.365 603.272 167.576V397.424C603.272 413.635 594.358 428.532 580.074 436.196L360.802 553.839C347.81 560.81 332.19 560.81 319.198 553.839L99.9263 436.196C85.6417 428.532 76.7283 413.635 76.7283 397.424V167.576C76.7283 151.365 85.6418 136.468 99.9263 128.804L319.198 11.1606Z" fill="url(#paint0_linear_4241_1470)"/>
<g filter="url(#filter0_di_4241_1470)">
<path d="M165.558 22.5542C171.097 19.356 177.922 19.356 183.462 22.5542L221.849 44.7172C227.389 47.9155 230.801 53.8262 230.801 60.2227V104.549C230.801 110.945 227.389 116.856 221.849 120.054L183.462 142.217C177.922 145.416 171.097 145.416 165.558 142.217L127.17 120.054C121.631 116.856 118.218 110.945 118.218 104.549V60.2227C118.218 53.8262 121.631 47.9155 127.17 44.7172L165.558 22.5542Z" fill="url(#paint1_linear_4241_1470)"/>
<path d="M165.558 22.5542C171.097 19.356 177.922 19.356 183.462 22.5542L221.849 44.7172C227.389 47.9155 230.801 53.8262 230.801 60.2227V104.549C230.801 110.945 227.389 116.856 221.849 120.054L183.462 142.217C177.922 145.416 171.097 145.416 165.558 142.217L127.17 120.054C121.631 116.856 118.218 110.945 118.218 104.549V60.2227C118.218 53.8262 121.631 47.9155 127.17 44.7172L165.558 22.5542Z" fill="url(#paint2_linear_4241_1470)"/>
<path d="M165.752 22.8913C171.171 19.7626 177.848 19.7626 183.267 22.8913L221.655 45.0543C227.074 48.1831 230.412 53.9652 230.412 60.2227V104.549C230.412 110.806 227.074 116.588 221.655 119.717L183.267 141.88C177.848 145.009 171.171 145.009 165.752 141.88L127.365 119.717C121.946 116.588 118.607 110.806 118.607 104.549V60.2227C118.607 53.9652 121.946 48.1831 127.365 45.0543L165.752 22.8913Z" stroke="url(#paint3_linear_4241_1470)" stroke-width="0.778443"/>
<path d="M165.752 22.8913C171.171 19.7626 177.848 19.7626 183.267 22.8913L221.655 45.0543C227.074 48.1831 230.412 53.9652 230.412 60.2227V104.549C230.412 110.806 227.074 116.588 221.655 119.717L183.267 141.88C177.848 145.009 171.171 145.009 165.752 141.88L127.365 119.717C121.946 116.588 118.607 110.806 118.607 104.549V60.2227C118.607 53.9652 121.946 48.1831 127.365 45.0543L165.752 22.8913Z" stroke="url(#paint4_linear_4241_1470)" stroke-width="0.778443"/>
</g>
<g filter="url(#filter1_di_4241_1470)">
<path d="M203.923 79.6276H176.772V72.8701H179.035C180.235 72.8701 181.386 72.3955 182.235 71.5506C183.083 70.7058 183.56 69.5599 183.56 68.3651V59.3551C183.56 58.1603 183.083 57.0144 182.235 56.1696C181.386 55.3247 180.235 54.8501 179.035 54.8501H169.985C168.785 54.8501 167.634 55.3247 166.785 56.1696C165.936 57.0144 165.46 58.1603 165.46 59.3551V68.3651C165.46 69.5599 165.936 70.7058 166.785 71.5506C167.634 72.3955 168.785 72.8701 169.985 72.8701H172.247V79.6276H145.097C144.496 79.6276 143.921 79.8649 143.497 80.2874C143.072 80.7098 142.834 81.2827 142.834 81.8801C142.834 82.4775 143.072 83.0505 143.497 83.4729C143.921 83.8953 144.496 84.1326 145.097 84.1326H154.147V93.1426H151.884C150.684 93.1426 149.533 93.6173 148.684 94.4621C147.836 95.307 147.359 96.4528 147.359 97.6476V106.658C147.359 107.852 147.836 108.998 148.684 109.843C149.533 110.688 150.684 111.163 151.884 111.163H160.934C162.135 111.163 163.286 110.688 164.134 109.843C164.983 108.998 165.46 107.852 165.46 106.658V97.6476C165.46 96.4528 164.983 95.307 164.134 94.4621C163.286 93.6173 162.135 93.1426 160.934 93.1426H158.672V84.1326H190.348V93.1426H188.085C186.885 93.1426 185.734 93.6173 184.885 94.4621C184.037 95.307 183.56 96.4528 183.56 97.6476V106.658C183.56 107.852 184.037 108.998 184.885 109.843C185.734 110.688 186.885 111.163 188.085 111.163H197.135C198.336 111.163 199.486 110.688 200.335 109.843C201.184 108.998 201.66 107.852 201.66 106.658V97.6476C201.66 96.4528 201.184 95.307 200.335 94.4621C199.486 93.6173 198.336 93.1426 197.135 93.1426H194.873V84.1326H203.923C204.523 84.1326 205.099 83.8953 205.523 83.4729C205.947 83.0505 206.186 82.4775 206.186 81.8801C206.186 81.2827 205.947 80.7098 205.523 80.2874C205.099 79.8649 204.523 79.6276 203.923 79.6276ZM169.985 59.3551H179.035V68.3651H169.985V59.3551ZM160.934 106.658H151.884V97.6476H160.934V106.658ZM197.135 106.658H188.085V97.6476H197.135V106.658Z" fill="#FF5900"/>
</g>
<g filter="url(#filter2_di_4241_1470)">
<path d="M503.048 22.5542C508.587 19.356 515.413 19.356 520.952 22.5542L559.34 44.7172C564.879 47.9155 568.292 53.8262 568.292 60.2227V104.549C568.292 110.945 564.879 116.856 559.34 120.054L520.952 142.217C515.413 145.416 508.587 145.416 503.048 142.217L464.66 120.054C459.121 116.856 455.708 110.945 455.708 104.549V60.2227C455.708 53.8262 459.121 47.9155 464.66 44.7172L503.048 22.5542Z" fill="url(#paint5_linear_4241_1470)"/>
<path d="M503.048 22.5542C508.587 19.356 515.413 19.356 520.952 22.5542L559.34 44.7172C564.879 47.9155 568.292 53.8262 568.292 60.2227V104.549C568.292 110.945 564.879 116.856 559.34 120.054L520.952 142.217C515.413 145.416 508.587 145.416 503.048 142.217L464.66 120.054C459.121 116.856 455.708 110.945 455.708 104.549V60.2227C455.708 53.8262 459.121 47.9155 464.66 44.7172L503.048 22.5542Z" fill="url(#paint6_linear_4241_1470)"/>
<path d="M503.243 22.8913C508.662 19.7626 515.338 19.7626 520.757 22.8913L559.145 45.0543C564.564 48.1831 567.902 53.9652 567.902 60.2227V104.549C567.902 110.806 564.564 116.588 559.145 119.717L520.757 141.88C515.338 145.009 508.662 145.009 503.243 141.88L464.855 119.717C459.436 116.588 456.098 110.806 456.098 104.549V60.2227C456.098 53.9652 459.436 48.1831 464.855 45.0543L503.243 22.8913Z" stroke="url(#paint7_linear_4241_1470)" stroke-width="0.778443"/>
<path d="M503.243 22.8913C508.662 19.7626 515.338 19.7626 520.757 22.8913L559.145 45.0543C564.564 48.1831 567.902 53.9652 567.902 60.2227V104.549C567.902 110.806 564.564 116.588 559.145 119.717L520.757 141.88C515.338 145.009 508.662 145.009 503.243 141.88L464.855 119.717C459.436 116.588 456.098 110.806 456.098 104.549V60.2227C456.098 53.9652 459.436 48.1831 464.855 45.0543L503.243 22.8913Z" stroke="url(#paint8_linear_4241_1470)" stroke-width="0.778443"/>
</g>
<g filter="url(#filter3_di_4241_1470)">
<path d="M541.413 80.7438H539.055C538.512 74.3505 535.725 68.3552 531.188 63.8182C526.651 59.2812 520.656 56.4948 514.263 55.9518V53.5931C514.263 52.9931 514.024 52.4176 513.6 51.9933C513.176 51.5689 512.6 51.3306 512 51.3306C511.4 51.3306 510.824 51.5689 510.4 51.9933C509.976 52.4176 509.737 52.9931 509.737 53.5931V55.9518C503.344 56.4948 497.349 59.2812 492.812 63.8182C488.275 68.3552 485.488 74.3505 484.945 80.7438H482.587C481.987 80.7438 481.411 80.9822 480.987 81.4065C480.563 81.8308 480.324 82.4063 480.324 83.0064C480.324 83.6064 480.563 84.1819 480.987 84.6062C481.411 85.0306 481.987 85.2689 482.587 85.2689H484.945C485.488 91.6622 488.275 97.6576 492.812 102.195C497.349 106.732 503.344 109.518 509.737 110.061V112.42C509.737 113.02 509.976 113.595 510.4 114.019C510.824 114.444 511.4 114.682 512 114.682C512.6 114.682 513.176 114.444 513.6 114.019C514.024 113.595 514.263 113.02 514.263 112.42V110.061C520.656 109.518 526.651 106.732 531.188 102.195C535.725 97.6576 538.512 91.6622 539.055 85.2689H541.413C542.013 85.2689 542.589 85.0306 543.013 84.6062C543.437 84.1819 543.676 83.6064 543.676 83.0064C543.676 82.4063 543.437 81.8308 543.013 81.4065C542.589 80.9822 542.013 80.7438 541.413 80.7438ZM514.263 105.519V103.369C514.263 102.769 514.024 102.194 513.6 101.77C513.176 101.345 512.6 101.107 512 101.107C511.4 101.107 510.824 101.345 510.4 101.77C509.976 102.194 509.737 102.769 509.737 103.369V105.519C504.547 104.989 499.699 102.686 496.01 98.9966C492.321 95.3076 490.017 90.459 489.488 85.2689H491.637C492.237 85.2689 492.813 85.0306 493.237 84.6062C493.661 84.1819 493.9 83.6064 493.9 83.0064C493.9 82.4063 493.661 81.8308 493.237 81.4065C492.813 80.9822 492.237 80.7438 491.637 80.7438H489.488C490.017 75.5537 492.321 70.7051 496.01 67.0161C499.699 63.3271 504.547 61.0235 509.737 60.4939V62.6434C509.737 63.2434 509.976 63.8189 510.4 64.2432C510.824 64.6675 511.4 64.9059 512 64.9059C512.6 64.9059 513.176 64.6675 513.6 64.2432C514.024 63.8189 514.263 63.2434 514.263 62.6434V60.4939C519.453 61.0235 524.301 63.3271 527.99 67.0161C531.679 70.7051 533.983 75.5537 534.512 80.7438H532.363C531.763 80.7438 531.187 80.9822 530.763 81.4065C530.339 81.8308 530.1 82.4063 530.1 83.0064C530.1 83.6064 530.339 84.1819 530.763 84.6062C531.187 85.0306 531.763 85.2689 532.363 85.2689H534.512C533.983 90.459 531.679 95.3076 527.99 98.9966C524.301 102.686 519.453 104.989 514.263 105.519ZM512 71.6936C509.763 71.6936 507.575 72.3571 505.715 73.6001C503.855 74.8432 502.405 76.61 501.548 78.6772C500.692 80.7443 500.468 83.0189 500.905 85.2134C501.341 87.4079 502.419 89.4236 504.001 91.0057C505.583 92.5878 507.599 93.6653 509.793 94.1018C511.987 94.5383 514.262 94.3143 516.329 93.458C518.396 92.6018 520.163 91.1518 521.406 89.2914C522.649 87.431 523.313 85.2438 523.313 83.0064C523.313 80.006 522.121 77.1286 519.999 75.007C517.878 72.8855 515 71.6936 512 71.6936ZM512 89.794C510.658 89.794 509.345 89.396 508.229 88.6501C507.113 87.9043 506.243 86.8442 505.729 85.6039C505.215 84.3636 505.081 82.9988 505.343 81.6822C505.605 80.3655 506.251 79.156 507.2 78.2068C508.15 77.2575 509.359 76.611 510.676 76.3491C511.992 76.0872 513.357 76.2216 514.598 76.7354C515.838 77.2491 516.898 78.1191 517.644 79.2353C518.39 80.3516 518.788 81.6639 518.788 83.0064C518.788 84.8066 518.073 86.5331 516.8 87.806C515.527 89.0789 513.8 89.794 512 89.794Z" fill="#FF5900"/>
</g>
<g filter="url(#filter4_di_4241_1470)">
<path d="M581.048 223.554C586.587 220.356 593.413 220.356 598.952 223.554L637.34 245.717C642.879 248.916 646.292 254.826 646.292 261.223V305.549C646.292 311.945 642.879 317.856 637.34 321.054L598.952 343.217C593.413 346.416 586.587 346.416 581.048 343.217L542.66 321.054C537.121 317.856 533.708 311.945 533.708 305.549V261.223C533.708 254.826 537.121 248.916 542.66 245.717L581.048 223.554Z" fill="url(#paint9_linear_4241_1470)"/>
<path d="M581.048 223.554C586.587 220.356 593.413 220.356 598.952 223.554L637.34 245.717C642.879 248.916 646.292 254.826 646.292 261.223V305.549C646.292 311.945 642.879 317.856 637.34 321.054L598.952 343.217C593.413 346.416 586.587 346.416 581.048 343.217L542.66 321.054C537.121 317.856 533.708 311.945 533.708 305.549V261.223C533.708 254.826 537.121 248.916 542.66 245.717L581.048 223.554Z" fill="url(#paint10_linear_4241_1470)"/>
<path d="M598.757 223.891L637.145 246.054C642.564 249.183 645.902 254.965 645.902 261.223V305.549C645.902 311.806 642.564 317.588 637.145 320.717L598.757 342.88C593.338 346.009 586.662 346.009 581.243 342.88L542.855 320.717C537.436 317.588 534.098 311.806 534.098 305.549V261.223C534.098 254.965 537.436 249.183 542.855 246.054L581.243 223.891C586.662 220.763 593.338 220.763 598.757 223.891Z" stroke="url(#paint11_linear_4241_1470)" stroke-width="0.778443"/>
<path d="M598.757 223.891L637.145 246.054C642.564 249.183 645.902 254.965 645.902 261.223V305.549C645.902 311.806 642.564 317.588 637.145 320.717L598.757 342.88C593.338 346.009 586.662 346.009 581.243 342.88L542.855 320.717C537.436 317.588 534.098 311.806 534.098 305.549V261.223C534.098 254.965 537.436 249.183 542.855 246.054L581.243 223.891C586.662 220.763 593.338 220.763 598.757 223.891Z" stroke="url(#paint12_linear_4241_1470)" stroke-width="0.778443"/>
</g>
<g filter="url(#filter5_di_4241_1470)">
<path d="M615.118 286.518H564.879C563.547 286.518 562.269 287.048 561.327 287.99C560.385 288.932 559.855 290.21 559.855 291.542V306.614C559.855 307.946 560.385 309.224 561.327 310.166C562.269 311.108 563.547 311.638 564.879 311.638H615.118C616.45 311.638 617.728 311.108 618.67 310.166C619.612 309.224 620.141 307.946 620.141 306.614V291.542C620.141 290.21 619.612 288.932 618.67 287.99C617.728 287.048 616.45 286.518 615.118 286.518ZM615.118 306.614H564.879V291.542H615.118V306.614ZM615.118 256.375H564.879C563.547 256.375 562.269 256.905 561.327 257.847C560.385 258.789 559.855 260.067 559.855 261.399V276.471C559.855 277.803 560.385 279.081 561.327 280.023C562.269 280.965 563.547 281.495 564.879 281.495H615.118C616.45 281.495 617.728 280.965 618.67 280.023C619.612 279.081 620.141 277.803 620.141 276.471V261.399C620.141 260.067 619.612 258.789 618.67 257.847C617.728 256.905 616.45 256.375 615.118 256.375ZM615.118 276.471H564.879V261.399H615.118V276.471ZM610.094 268.935C610.094 269.68 609.873 270.409 609.459 271.028C609.045 271.648 608.456 272.131 607.768 272.416C607.079 272.701 606.322 272.776 605.591 272.631C604.86 272.485 604.188 272.126 603.662 271.599C603.135 271.072 602.776 270.401 602.63 269.67C602.485 268.939 602.56 268.182 602.845 267.493C603.13 266.805 603.613 266.216 604.233 265.802C604.852 265.388 605.581 265.167 606.326 265.167C607.325 265.167 608.283 265.564 608.99 266.271C609.697 266.977 610.094 267.936 610.094 268.935ZM610.094 299.078C610.094 299.823 609.873 300.552 609.459 301.171C609.045 301.791 608.456 302.274 607.768 302.559C607.079 302.844 606.322 302.919 605.591 302.773C604.86 302.628 604.188 302.269 603.662 301.742C603.135 301.215 602.776 300.544 602.63 299.813C602.485 299.082 602.56 298.325 602.845 297.636C603.13 296.948 603.613 296.359 604.233 295.945C604.852 295.531 605.581 295.31 606.326 295.31C607.325 295.31 608.283 295.707 608.99 296.414C609.697 297.12 610.094 298.079 610.094 299.078Z" fill="#FF6A00"/>
</g>
<g filter="url(#filter6_di_4241_1470)">
<path d="M503.048 424.554C508.587 421.356 515.413 421.356 520.952 424.554L559.34 446.717C564.879 449.916 568.292 455.826 568.292 462.223V506.549C568.292 512.945 564.879 518.856 559.34 522.054L520.952 544.217C515.413 547.416 508.587 547.416 503.048 544.217L464.66 522.054C459.121 518.856 455.708 512.945 455.708 506.549V462.223C455.708 455.826 459.121 449.916 464.66 446.717L503.048 424.554Z" fill="url(#paint13_linear_4241_1470)"/>
<path d="M503.048 424.554C508.587 421.356 515.413 421.356 520.952 424.554L559.34 446.717C564.879 449.916 568.292 455.826 568.292 462.223V506.549C568.292 512.945 564.879 518.856 559.34 522.054L520.952 544.217C515.413 547.416 508.587 547.416 503.048 544.217L464.66 522.054C459.121 518.856 455.708 512.945 455.708 506.549V462.223C455.708 455.826 459.121 449.916 464.66 446.717L503.048 424.554Z" fill="url(#paint14_linear_4241_1470)"/>
<path d="M520.757 424.891L559.145 447.054C564.564 450.183 567.902 455.965 567.902 462.223V506.549C567.902 512.806 564.564 518.588 559.145 521.717L520.757 543.88C515.338 547.009 508.662 547.009 503.243 543.88L464.855 521.717C459.436 518.588 456.098 512.806 456.098 506.549V462.223C456.098 455.965 459.436 450.183 464.855 447.054L503.243 424.891C508.662 421.763 515.338 421.763 520.757 424.891Z" stroke="url(#paint15_linear_4241_1470)" stroke-width="0.778443"/>
<path d="M520.757 424.891L559.145 447.054C564.564 450.183 567.902 455.965 567.902 462.223V506.549C567.902 512.806 564.564 518.588 559.145 521.717L520.757 543.88C515.338 547.009 508.662 547.009 503.243 543.88L464.855 521.717C459.436 518.588 456.098 512.806 456.098 506.549V462.223C456.098 455.965 459.436 450.183 464.855 447.054L503.243 424.891C508.662 421.763 515.338 421.763 520.757 424.891Z" stroke="url(#paint16_linear_4241_1470)" stroke-width="0.778443"/>
</g>
<g filter="url(#filter7_di_4241_1470)">
<path d="M538.324 505.256C538.324 505.793 538.111 506.308 537.731 506.687C537.351 507.067 536.836 507.281 536.299 507.281H487.701C487.164 507.281 486.649 507.067 486.269 506.687C485.889 506.308 485.676 505.793 485.676 505.256V464.757C485.676 464.22 485.889 463.705 486.269 463.325C486.649 462.945 487.164 462.732 487.701 462.732C488.238 462.732 488.753 462.945 489.133 463.325C489.512 463.705 489.726 464.22 489.726 464.757V492.268L502.468 479.524C502.656 479.335 502.879 479.186 503.125 479.084C503.371 478.982 503.634 478.93 503.9 478.93C504.166 478.93 504.43 478.982 504.676 479.084C504.921 479.186 505.145 479.335 505.333 479.524L512 486.193L525.337 472.857H520.1C519.563 472.857 519.048 472.643 518.668 472.264C518.288 471.884 518.075 471.369 518.075 470.832C518.075 470.295 518.288 469.78 518.668 469.4C519.048 469.02 519.563 468.807 520.1 468.807H530.224C530.761 468.807 531.277 469.02 531.656 469.4C532.036 469.78 532.249 470.295 532.249 470.832V480.956C532.249 481.493 532.036 482.008 531.656 482.388C531.277 482.768 530.761 482.981 530.224 482.981C529.687 482.981 529.172 482.768 528.793 482.388C528.413 482.008 528.199 481.493 528.199 480.956V475.719L513.433 490.489C513.245 490.677 513.021 490.826 512.775 490.928C512.53 491.03 512.266 491.083 512 491.083C511.734 491.083 511.47 491.03 511.225 490.928C510.979 490.826 510.755 490.677 510.567 490.489L503.9 483.819L489.726 497.994V503.231H536.299C536.836 503.231 537.351 503.444 537.731 503.824C538.111 504.204 538.324 504.719 538.324 505.256Z" fill="#FF5900"/>
</g>
<g filter="url(#filter8_di_4241_1470)">
<path d="M58.3038 220.554C63.8433 217.356 70.6684 217.356 76.208 220.554L114.595 242.717C120.135 245.916 123.548 251.826 123.548 258.223V302.549C123.548 308.945 120.135 314.856 114.595 318.054L76.208 340.217C70.6684 343.416 63.8433 343.416 58.3038 340.217L19.9163 318.054C14.3767 314.856 10.9642 308.945 10.9642 302.549V258.223C10.9642 251.826 14.3767 245.916 19.9163 242.717L58.3038 220.554Z" fill="url(#paint17_linear_4241_1470)"/>
<path d="M58.3038 220.554C63.8433 217.356 70.6684 217.356 76.208 220.554L114.595 242.717C120.135 245.916 123.548 251.826 123.548 258.223V302.549C123.548 308.945 120.135 314.856 114.595 318.054L76.208 340.217C70.6684 343.416 63.8433 343.416 58.3038 340.217L19.9163 318.054C14.3767 314.856 10.9642 308.945 10.9642 302.549V258.223C10.9642 251.826 14.3767 245.916 19.9163 242.717L58.3038 220.554Z" fill="url(#paint18_linear_4241_1470)"/>
<path d="M58.4984 220.891C63.9175 217.763 70.5942 217.763 76.0133 220.891L114.401 243.054C119.82 246.183 123.158 251.965 123.158 258.223V302.549C123.158 308.806 119.82 314.588 114.401 317.717L76.0133 339.88C70.5942 343.009 63.9175 343.009 58.4984 339.88L20.1109 317.717C14.6918 314.588 11.3534 308.806 11.3534 302.549V258.223C11.3534 251.965 14.6918 246.183 20.1109 243.054L58.4984 220.891Z" stroke="url(#paint19_linear_4241_1470)" stroke-width="0.778443"/>
<path d="M58.4984 220.891C63.9175 217.763 70.5942 217.763 76.0133 220.891L114.401 243.054C119.82 246.183 123.158 251.965 123.158 258.223V302.549C123.158 308.806 119.82 314.588 114.401 317.717L76.0133 339.88C70.5942 343.009 63.9175 343.009 58.4984 339.88L20.1109 317.717C14.6918 314.588 11.3534 308.806 11.3534 302.549V258.223C11.3534 251.965 14.6918 246.183 20.1109 243.054L58.4984 220.891Z" stroke="url(#paint20_linear_4241_1470)" stroke-width="0.778443"/>
</g>
<path d="M60.4682 288.791C60.4682 289.381 60.2298 289.947 59.8055 290.364C59.3812 290.781 58.8057 291.015 58.2057 291.015H46.8929C46.2928 291.015 45.7173 290.781 45.293 290.364C44.8687 289.947 44.6303 289.381 44.6303 288.791C44.6303 288.201 44.8687 287.635 45.293 287.218C45.7173 286.801 46.2928 286.567 46.8929 286.567H58.2057C58.8057 286.567 59.3812 286.801 59.8055 287.218C60.2298 287.635 60.4682 288.201 60.4682 288.791ZM98.9317 278.782V295.464C98.9317 296.643 98.4549 297.775 97.6063 298.609C96.7577 299.443 95.6067 299.912 94.4066 299.912H69.5184V308.809C69.5184 309.399 69.2801 309.965 68.8558 310.382C68.4314 310.799 67.856 311.033 67.2559 311.033C66.6558 311.033 66.0803 310.799 65.656 310.382C65.2317 309.965 64.9933 309.399 64.9933 308.809V299.912H40.1052C38.9051 299.912 37.7541 299.443 36.9055 298.609C36.0568 297.775 35.5801 296.643 35.5801 295.464V278.782C35.5853 274.359 37.3748 270.119 40.556 266.992C43.7372 263.865 48.0504 262.106 52.5493 262.101H74.0436V253.204C74.0436 252.614 74.2819 252.048 74.7062 251.631C75.1306 251.214 75.7061 250.979 76.3061 250.979H85.3563C85.9564 250.979 86.5319 251.214 86.9562 251.631C87.3805 252.048 87.6189 252.614 87.6189 253.204C87.6189 253.794 87.3805 254.359 86.9562 254.776C86.5319 255.194 85.9564 255.428 85.3563 255.428H78.5687V262.101H81.9625C86.4614 262.106 90.7745 263.865 93.9557 266.992C97.137 270.119 98.9265 274.359 98.9317 278.782ZM64.9933 295.464V278.782C64.9933 275.538 63.6823 272.426 61.3485 270.132C59.0148 267.838 55.8496 266.549 52.5493 266.549C49.2489 266.549 46.0837 267.838 43.75 270.132C41.4163 272.426 40.1052 275.538 40.1052 278.782V295.464H64.9933ZM94.4066 278.782C94.4028 275.539 93.0906 272.429 90.7577 270.136C88.4248 267.843 85.2617 266.553 81.9625 266.549H78.5687V286.567C78.5687 287.157 78.3303 287.722 77.906 288.14C77.4817 288.557 76.9062 288.791 76.3061 288.791C75.7061 288.791 75.1306 288.557 74.7062 288.14C74.2819 287.722 74.0436 287.157 74.0436 286.567V266.549H64.0742C65.7916 268.108 67.162 270 68.099 272.105C69.036 274.211 69.5193 276.484 69.5184 278.782V295.464H94.4066V278.782Z" fill="#FF5900"/>
<g filter="url(#filter9_di_4241_1470)">
<path d="M165.558 424.554C171.097 421.356 177.922 421.356 183.462 424.554L221.849 446.717C227.389 449.916 230.801 455.826 230.801 462.223V506.549C230.801 512.945 227.389 518.856 221.849 522.054L183.462 544.217C177.922 547.416 171.097 547.416 165.558 544.217L127.17 522.054C121.631 518.856 118.218 512.945 118.218 506.549V462.223C118.218 455.826 121.631 449.916 127.17 446.717L165.558 424.554Z" fill="url(#paint21_linear_4241_1470)"/>
<path d="M165.558 424.554C171.097 421.356 177.922 421.356 183.462 424.554L221.849 446.717C227.389 449.916 230.801 455.826 230.801 462.223V506.549C230.801 512.945 227.389 518.856 221.849 522.054L183.462 544.217C177.922 547.416 171.097 547.416 165.558 544.217L127.17 522.054C121.631 518.856 118.218 512.945 118.218 506.549V462.223C118.218 455.826 121.631 449.916 127.17 446.717L165.558 424.554Z" fill="url(#paint22_linear_4241_1470)"/>
<path d="M165.752 424.891C171.171 421.763 177.848 421.763 183.267 424.891L221.655 447.054C227.074 450.183 230.412 455.965 230.412 462.223V506.549C230.412 512.806 227.074 518.588 221.655 521.717L183.267 543.88C177.848 547.009 171.171 547.009 165.752 543.88L127.365 521.717C121.946 518.588 118.607 512.806 118.607 506.549V462.223C118.607 455.965 121.946 450.183 127.365 447.054L165.752 424.891Z" stroke="url(#paint23_linear_4241_1470)" stroke-width="0.778443"/>
<path d="M165.752 424.891C171.171 421.763 177.848 421.763 183.267 424.891L221.655 447.054C227.074 450.183 230.412 455.965 230.412 462.223V506.549C230.412 512.806 227.074 518.588 221.655 521.717L183.267 543.88C177.848 547.009 171.171 547.009 165.752 543.88L127.365 521.717C121.946 518.588 118.607 512.806 118.607 506.549V462.223C118.607 455.965 121.946 450.183 127.365 447.054L165.752 424.891Z" stroke="url(#paint24_linear_4241_1470)" stroke-width="0.778443"/>
</g>
<g filter="url(#filter10_di_4241_1470)">
<path d="M199.693 457.308C199.124 456.739 198.413 456.332 197.635 456.13C196.856 455.927 196.037 455.935 195.263 456.154H195.22L140.921 472.625C140.04 472.879 139.256 473.395 138.675 474.104C138.093 474.813 137.741 475.682 137.664 476.596C137.588 477.51 137.791 478.426 138.247 479.222C138.703 480.018 139.39 480.656 140.217 481.053L164.24 492.75L175.924 516.753C176.287 517.528 176.865 518.183 177.589 518.641C178.313 519.098 179.153 519.339 180.009 519.335C180.139 519.335 180.269 519.329 180.399 519.318C181.313 519.244 182.182 518.893 182.89 518.311C183.598 517.729 184.111 516.944 184.36 516.063L200.825 461.779C200.825 461.765 200.825 461.751 200.825 461.737C201.046 460.964 201.058 460.147 200.859 459.369C200.66 458.59 200.258 457.879 199.693 457.308ZM180.035 514.767L180.02 514.807V514.787L168.688 491.512L182.267 477.936C182.673 477.509 182.896 476.939 182.889 476.349C182.881 475.759 182.643 475.195 182.226 474.778C181.809 474.361 181.245 474.123 180.655 474.116C180.065 474.108 179.495 474.331 179.067 474.738L165.488 488.313L142.197 476.983H142.177H142.217L196.491 460.509L180.035 514.767Z" fill="#FF5900"/>
</g>
<g clip-path="url(#clip0_4241_1470)">
<g filter="url(#filter11_di_4241_1470)">
<path d="M336.32 125.843C342.583 122.227 350.298 122.227 356.561 125.843L475.266 194.377C481.528 197.993 485.386 204.675 485.386 211.906L485.386 348.975C485.386 356.206 481.528 362.888 475.266 366.503L356.561 435.038C350.298 438.654 342.583 438.654 336.32 435.038L217.615 366.503C211.353 362.888 207.495 356.206 207.495 348.975L207.495 211.906C207.495 204.675 211.353 197.993 217.615 194.377L336.32 125.843Z" fill="url(#paint25_linear_4241_1470)"/>
<path d="M337.385 127.687C342.989 124.452 349.892 124.452 355.496 127.687L474.201 196.222C479.804 199.457 483.256 205.436 483.256 211.906L483.256 348.975C483.256 355.445 479.804 361.424 474.201 364.659L355.496 433.194C349.892 436.429 342.989 436.429 337.385 433.194L218.68 364.659C213.077 361.424 209.625 355.445 209.625 348.975L209.625 211.906C209.625 205.436 213.077 199.457 218.68 196.222L337.385 127.687Z" stroke="#CFCFCF" stroke-width="4.25948" style="mix-blend-mode:color-dodge"/>
</g>
<path d="M342.699 195.324C342.717 195.964 342.735 196.604 342.753 197.245C342.693 201.481 342.629 205.721 342.561 209.965C342.451 217.762 342.338 225.558 342.223 233.354C342.175 237.005 342.124 240.657 342.071 244.311C341.981 251.718 341.89 259.123 341.796 266.526C341.791 266.947 341.691 267.363 341.502 267.745C336.605 277.944 331.719 288.144 326.844 298.345C326.606 298.776 326.252 299.142 325.817 299.406L296.4 320.168L265.926 341.658C265.651 341.868 265.346 342.041 265.02 342.171C290.968 293.25 316.862 244.301 342.699 195.324Z" fill="white"/>
<path d="M344.667 195.268C347.594 200.056 350.534 204.836 353.447 209.63C379.145 251.916 404.651 294.301 429.965 336.787C430.126 337.026 430.232 337.295 430.276 337.575C429.982 337.404 429.675 337.251 429.388 337.073L380.544 306.679C376.343 304.056 372.125 301.438 367.892 298.824C367.161 298.387 366.565 297.779 366.164 297.059C360.582 287.342 355.298 277.462 349.88 267.676C349.677 267.335 349.554 266.957 349.519 266.567C349.213 262.029 348.881 257.491 348.562 252.946C348.012 245.205 347.466 237.464 346.925 229.723C346.685 226.263 346.437 222.803 346.203 219.337C345.672 211.634 345.146 203.931 344.625 196.228C344.616 195.913 344.456 195.589 344.722 195.286L344.667 195.268Z" fill="white"/>
<path d="M302.204 342.88C302.381 342.6 302.631 342.369 302.929 342.209L345.684 310.952L346.015 310.715C346.778 310.2 346.544 310.05 347.508 310.674L372.539 326.896L392.147 339.637C392.449 339.831 392.739 340.044 393.187 340.35L302.204 342.88Z" fill="#FF6A00"/>
</g>
<defs>
<filter id="filter0_di_4241_1470" x="107.794" y="9.73133" width="133.431" height="145.309" filterUnits="userSpaceOnUse" color-interpolation-filters="sRGB">
<feFlood flood-opacity="0" result="BackgroundImageFix"/>
<feColorMatrix in="SourceAlpha" type="matrix" values="0 0 0 0 0 0 0 0 0 0 0 0 0 0 0 0 0 0 127 0" result="hardAlpha"/>
<feOffset/>
<feGaussianBlur stdDeviation="5.21222"/>
<feComposite in2="hardAlpha" operator="out"/>
<feColorMatrix type="matrix" values="0 0 0 0 0 0 0 0 0 0 0 0 0 0 0 0 0 0 0.25 0"/>
<feBlend mode="normal" in2="BackgroundImageFix" result="effect1_dropShadow_4241_1470"/>
<feBlend mode="normal" in="SourceGraphic" in2="effect1_dropShadow_4241_1470" result="shape"/>
<feColorMatrix in="SourceAlpha" type="matrix" values="0 0 0 0 0 0 0 0 0 0 0 0 0 0 0 0 0 0 127 0" result="hardAlpha"/>
<feOffset/>
<feGaussianBlur stdDeviation="14.7575"/>
<feComposite in2="hardAlpha" operator="arithmetic" k2="-1" k3="1"/>
<feColorMatrix type="matrix" values="0 0 0 0 1 0 0 0 0 1 0 0 0 0 1 0 0 0 0.25 0"/>
<feBlend mode="normal" in2="shape" result="effect2_innerShadow_4241_1470"/>
</filter>
<filter id="filter1_di_4241_1470" x="110.761" y="23.3085" width="127.495" height="119.396" filterUnits="userSpaceOnUse" color-interpolation-filters="sRGB">
<feFlood flood-opacity="0" result="BackgroundImageFix"/>
<feColorMatrix in="SourceAlpha" type="matrix" values="0 0 0 0 0 0 0 0 0 0 0 0 0 0 0 0 0 0 127 0" result="hardAlpha"/>
<feOffset/>
<feGaussianBlur stdDeviation="5.21222"/>
<feComposite in2="hardAlpha" operator="out"/>
<feColorMatrix type="matrix" values="0 0 0 0 0 0 0 0 0 0 0 0 0 0 0 0 0 0 0.25 0"/>
<feBlend mode="normal" in2="BackgroundImageFix" result="effect1_dropShadow_4241_1470"/>
<feBlend mode="normal" in="SourceGraphic" in2="effect1_dropShadow_4241_1470" result="shape"/>
<feColorMatrix in="SourceAlpha" type="matrix" values="0 0 0 0 0 0 0 0 0 0 0 0 0 0 0 0 0 0 127 0" result="hardAlpha"/>
<feOffset/>
<feGaussianBlur stdDeviation="14.7575"/>
<feComposite in2="hardAlpha" operator="arithmetic" k2="-1" k3="1"/>
<feColorMatrix type="matrix" values="0 0 0 0 1 0 0 0 0 1 0 0 0 0 1 0 0 0 0.25 0"/>
<feBlend mode="normal" in2="shape" result="effect2_innerShadow_4241_1470"/>
</filter>
<filter id="filter2_di_4241_1470" x="445.285" y="9.73133" width="133.431" height="145.309" filterUnits="userSpaceOnUse" color-interpolation-filters="sRGB">
<feFlood flood-opacity="0" result="BackgroundImageFix"/>
<feColorMatrix in="SourceAlpha" type="matrix" values="0 0 0 0 0 0 0 0 0 0 0 0 0 0 0 0 0 0 127 0" result="hardAlpha"/>
<feOffset/>
<feGaussianBlur stdDeviation="5.21222"/>
<feComposite in2="hardAlpha" operator="out"/>
<feColorMatrix type="matrix" values="0 0 0 0 0 0 0 0 0 0 0 0 0 0 0 0 0 0 0.25 0"/>
<feBlend mode="normal" in2="BackgroundImageFix" result="effect1_dropShadow_4241_1470"/>
<feBlend mode="normal" in="SourceGraphic" in2="effect1_dropShadow_4241_1470" result="shape"/>
<feColorMatrix in="SourceAlpha" type="matrix" values="0 0 0 0 0 0 0 0 0 0 0 0 0 0 0 0 0 0 127 0" result="hardAlpha"/>
<feOffset/>
<feGaussianBlur stdDeviation="14.7575"/>
<feComposite in2="hardAlpha" operator="arithmetic" k2="-1" k3="1"/>
<feColorMatrix type="matrix" values="0 0 0 0 1 0 0 0 0 1 0 0 0 0 1 0 0 0 0.25 0"/>
<feBlend mode="normal" in2="shape" result="effect2_innerShadow_4241_1470"/>
</filter>
<filter id="filter3_di_4241_1470" x="448.251" y="23.3085" width="127.495" height="119.396" filterUnits="userSpaceOnUse" color-interpolation-filters="sRGB">
<feFlood flood-opacity="0" result="BackgroundImageFix"/>
<feColorMatrix in="SourceAlpha" type="matrix" values="0 0 0 0 0 0 0 0 0 0 0 0 0 0 0 0 0 0 127 0" result="hardAlpha"/>
<feOffset/>
<feGaussianBlur stdDeviation="5.21222"/>
<feComposite in2="hardAlpha" operator="out"/>
<feColorMatrix type="matrix" values="0 0 0 0 0 0 0 0 0 0 0 0 0 0 0 0 0 0 0.25 0"/>
<feBlend mode="normal" in2="BackgroundImageFix" result="effect1_dropShadow_4241_1470"/>
<feBlend mode="normal" in="SourceGraphic" in2="effect1_dropShadow_4241_1470" result="shape"/>
<feColorMatrix in="SourceAlpha" type="matrix" values="0 0 0 0 0 0 0 0 0 0 0 0 0 0 0 0 0 0 127 0" result="hardAlpha"/>
<feOffset/>
<feGaussianBlur stdDeviation="14.7575"/>
<feComposite in2="hardAlpha" operator="arithmetic" k2="-1" k3="1"/>
<feColorMatrix type="matrix" values="0 0 0 0 1 0 0 0 0 1 0 0 0 0 1 0 0 0 0.25 0"/>
<feBlend mode="normal" in2="shape" result="effect2_innerShadow_4241_1470"/>
</filter>
<filter id="filter4_di_4241_1470" x="523.285" y="210.731" width="133.431" height="145.309" filterUnits="userSpaceOnUse" color-interpolation-filters="sRGB">
<feFlood flood-opacity="0" result="BackgroundImageFix"/>
<feColorMatrix in="SourceAlpha" type="matrix" values="0 0 0 0 0 0 0 0 0 0 0 0 0 0 0 0 0 0 127 0" result="hardAlpha"/>
<feOffset/>
<feGaussianBlur stdDeviation="5.21222"/>
<feComposite in2="hardAlpha" operator="out"/>
<feColorMatrix type="matrix" values="0 0 0 0 0 0 0 0 0 0 0 0 0 0 0 0 0 0 0.25 0"/>
<feBlend mode="normal" in2="BackgroundImageFix" result="effect1_dropShadow_4241_1470"/>
<feBlend mode="normal" in="SourceGraphic" in2="effect1_dropShadow_4241_1470" result="shape"/>
<feColorMatrix in="SourceAlpha" type="matrix" values="0 0 0 0 0 0 0 0 0 0 0 0 0 0 0 0 0 0 127 0" result="hardAlpha"/>
<feOffset/>
<feGaussianBlur stdDeviation="14.7575"/>
<feComposite in2="hardAlpha" operator="arithmetic" k2="-1" k3="1"/>
<feColorMatrix type="matrix" values="0 0 0 0 1 0 0 0 0 1 0 0 0 0 1 0 0 0 0.25 0"/>
<feBlend mode="normal" in2="shape" result="effect2_innerShadow_4241_1470"/>
</filter>
<filter id="filter5_di_4241_1470" x="529.236" y="227.293" width="121.526" height="113.427" filterUnits="userSpaceOnUse" color-interpolation-filters="sRGB">
<feFlood flood-opacity="0" result="BackgroundImageFix"/>
<feColorMatrix in="SourceAlpha" type="matrix" values="0 0 0 0 0 0 0 0 0 0 0 0 0 0 0 0 0 0 127 0" result="hardAlpha"/>
<feOffset/>
<feGaussianBlur stdDeviation="3.71999"/>
<feComposite in2="hardAlpha" operator="out"/>
<feColorMatrix type="matrix" values="0 0 0 0 0 0 0 0 0 0 0 0 0 0 0 0 0 0 0.25 0"/>
<feBlend mode="normal" in2="BackgroundImageFix" result="effect1_dropShadow_4241_1470"/>
<feBlend mode="normal" in="SourceGraphic" in2="effect1_dropShadow_4241_1470" result="shape"/>
<feColorMatrix in="SourceAlpha" type="matrix" values="0 0 0 0 0 0 0 0 0 0 0 0 0 0 0 0 0 0 127 0" result="hardAlpha"/>
<feOffset/>
<feGaussianBlur stdDeviation="10.5325"/>
<feComposite in2="hardAlpha" operator="arithmetic" k2="-1" k3="1"/>
<feColorMatrix type="matrix" values="0 0 0 0 1 0 0 0 0 1 0 0 0 0 1 0 0 0 0.25 0"/>
<feBlend mode="normal" in2="shape" result="effect2_innerShadow_4241_1470"/>
</filter>
<filter id="filter6_di_4241_1470" x="445.285" y="411.731" width="133.431" height="145.309" filterUnits="userSpaceOnUse" color-interpolation-filters="sRGB">
<feFlood flood-opacity="0" result="BackgroundImageFix"/>
<feColorMatrix in="SourceAlpha" type="matrix" values="0 0 0 0 0 0 0 0 0 0 0 0 0 0 0 0 0 0 127 0" result="hardAlpha"/>
<feOffset/>
<feGaussianBlur stdDeviation="5.21222"/>
<feComposite in2="hardAlpha" operator="out"/>
<feColorMatrix type="matrix" values="0 0 0 0 0 0 0 0 0 0 0 0 0 0 0 0 0 0 0.25 0"/>
<feBlend mode="normal" in2="BackgroundImageFix" result="effect1_dropShadow_4241_1470"/>
<feBlend mode="normal" in="SourceGraphic" in2="effect1_dropShadow_4241_1470" result="shape"/>
<feColorMatrix in="SourceAlpha" type="matrix" values="0 0 0 0 0 0 0 0 0 0 0 0 0 0 0 0 0 0 127 0" result="hardAlpha"/>
<feOffset/>
<feGaussianBlur stdDeviation="14.7575"/>
<feComposite in2="hardAlpha" operator="arithmetic" k2="-1" k3="1"/>
<feColorMatrix type="matrix" values="0 0 0 0 1 0 0 0 0 1 0 0 0 0 1 0 0 0 0.25 0"/>
<feBlend mode="normal" in2="shape" result="effect2_innerShadow_4241_1470"/>
</filter>
<filter id="filter7_di_4241_1470" x="451.236" y="428.293" width="121.526" height="113.427" filterUnits="userSpaceOnUse" color-interpolation-filters="sRGB">
<feFlood flood-opacity="0" result="BackgroundImageFix"/>
<feColorMatrix in="SourceAlpha" type="matrix" values="0 0 0 0 0 0 0 0 0 0 0 0 0 0 0 0 0 0 127 0" result="hardAlpha"/>
<feOffset/>
<feGaussianBlur stdDeviation="3.71999"/>
<feComposite in2="hardAlpha" operator="out"/>
<feColorMatrix type="matrix" values="0 0 0 0 0 0 0 0 0 0 0 0 0 0 0 0 0 0 0.25 0"/>
<feBlend mode="normal" in2="BackgroundImageFix" result="effect1_dropShadow_4241_1470"/>
<feBlend mode="normal" in="SourceGraphic" in2="effect1_dropShadow_4241_1470" result="shape"/>
<feColorMatrix in="SourceAlpha" type="matrix" values="0 0 0 0 0 0 0 0 0 0 0 0 0 0 0 0 0 0 127 0" result="hardAlpha"/>
<feOffset/>
<feGaussianBlur stdDeviation="10.5325"/>
<feComposite in2="hardAlpha" operator="arithmetic" k2="-1" k3="1"/>
<feColorMatrix type="matrix" values="0 0 0 0 1 0 0 0 0 1 0 0 0 0 1 0 0 0 0.25 0"/>
<feBlend mode="normal" in2="shape" result="effect2_innerShadow_4241_1470"/>
</filter>
<filter id="filter8_di_4241_1470" x="0.540413" y="207.731" width="133.431" height="145.309" filterUnits="userSpaceOnUse" color-interpolation-filters="sRGB">
<feFlood flood-opacity="0" result="BackgroundImageFix"/>
<feColorMatrix in="SourceAlpha" type="matrix" values="0 0 0 0 0 0 0 0 0 0 0 0 0 0 0 0 0 0 127 0" result="hardAlpha"/>
<feOffset/>
<feGaussianBlur stdDeviation="5.21222"/>
<feComposite in2="hardAlpha" operator="out"/>
<feColorMatrix type="matrix" values="0 0 0 0 0 0 0 0 0 0 0 0 0 0 0 0 0 0 0.25 0"/>
<feBlend mode="normal" in2="BackgroundImageFix" result="effect1_dropShadow_4241_1470"/>
<feBlend mode="normal" in="SourceGraphic" in2="effect1_dropShadow_4241_1470" result="shape"/>
<feColorMatrix in="SourceAlpha" type="matrix" values="0 0 0 0 0 0 0 0 0 0 0 0 0 0 0 0 0 0 127 0" result="hardAlpha"/>
<feOffset/>
<feGaussianBlur stdDeviation="14.7575"/>
<feComposite in2="hardAlpha" operator="arithmetic" k2="-1" k3="1"/>
<feColorMatrix type="matrix" values="0 0 0 0 1 0 0 0 0 1 0 0 0 0 1 0 0 0 0.25 0"/>
<feBlend mode="normal" in2="shape" result="effect2_innerShadow_4241_1470"/>
</filter>
<filter id="filter9_di_4241_1470" x="107.794" y="411.731" width="133.431" height="145.309" filterUnits="userSpaceOnUse" color-interpolation-filters="sRGB">
<feFlood flood-opacity="0" result="BackgroundImageFix"/>
<feColorMatrix in="SourceAlpha" type="matrix" values="0 0 0 0 0 0 0 0 0 0 0 0 0 0 0 0 0 0 127 0" result="hardAlpha"/>
<feOffset/>
<feGaussianBlur stdDeviation="5.21222"/>
<feComposite in2="hardAlpha" operator="out"/>
<feColorMatrix type="matrix" values="0 0 0 0 0 0 0 0 0 0 0 0 0 0 0 0 0 0 0.25 0"/>
<feBlend mode="normal" in2="BackgroundImageFix" result="effect1_dropShadow_4241_1470"/>
<feBlend mode="normal" in="SourceGraphic" in2="effect1_dropShadow_4241_1470" result="shape"/>
<feColorMatrix in="SourceAlpha" type="matrix" values="0 0 0 0 0 0 0 0 0 0 0 0 0 0 0 0 0 0 127 0" result="hardAlpha"/>
<feOffset/>
<feGaussianBlur stdDeviation="14.7575"/>
<feComposite in2="hardAlpha" operator="arithmetic" k2="-1" k3="1"/>
<feColorMatrix type="matrix" values="0 0 0 0 1 0 0 0 0 1 0 0 0 0 1 0 0 0 0.25 0"/>
<feBlend mode="normal" in2="shape" result="effect2_innerShadow_4241_1470"/>
</filter>
<filter id="filter10_di_4241_1470" x="105.576" y="427.961" width="127.495" height="119.396" filterUnits="userSpaceOnUse" color-interpolation-filters="sRGB">
<feFlood flood-opacity="0" result="BackgroundImageFix"/>
<feColorMatrix in="SourceAlpha" type="matrix" values="0 0 0 0 0 0 0 0 0 0 0 0 0 0 0 0 0 0 127 0" result="hardAlpha"/>
<feOffset/>
<feGaussianBlur stdDeviation="5.21222"/>
<feComposite in2="hardAlpha" operator="out"/>
<feColorMatrix type="matrix" values="0 0 0 0 0 0 0 0 0 0 0 0 0 0 0 0 0 0 0.25 0"/>
<feBlend mode="normal" in2="BackgroundImageFix" result="effect1_dropShadow_4241_1470"/>
<feBlend mode="normal" in="SourceGraphic" in2="effect1_dropShadow_4241_1470" result="shape"/>
<feColorMatrix in="SourceAlpha" type="matrix" values="0 0 0 0 0 0 0 0 0 0 0 0 0 0 0 0 0 0 127 0" result="hardAlpha"/>
<feOffset/>
<feGaussianBlur stdDeviation="14.7575"/>
<feComposite in2="hardAlpha" operator="arithmetic" k2="-1" k3="1"/>
<feColorMatrix type="matrix" values="0 0 0 0 1 0 0 0 0 1 0 0 0 0 1 0 0 0 0.25 0"/>
<feBlend mode="normal" in2="shape" result="effect2_innerShadow_4241_1470"/>
</filter>
<filter id="filter11_di_4241_1470" x="195.71" y="111.347" width="301.462" height="338.187" filterUnits="userSpaceOnUse" color-interpolation-filters="sRGB">
<feFlood flood-opacity="0" result="BackgroundImageFix"/>
<feColorMatrix in="SourceAlpha" type="matrix" values="0 0 0 0 0 0 0 0 0 0 0 0 0 0 0 0 0 0 127 0" result="hardAlpha"/>
<feOffset/>
<feGaussianBlur stdDeviation="5.89228"/>
<feComposite in2="hardAlpha" operator="out"/>
<feColorMatrix type="matrix" values="0 0 0 0 0 0 0 0 0 0 0 0 0 0 0 0 0 0 0.25 0"/>
<feBlend mode="normal" in2="BackgroundImageFix" result="effect1_dropShadow_4241_1470"/>
<feBlend mode="normal" in="SourceGraphic" in2="effect1_dropShadow_4241_1470" result="shape"/>
<feColorMatrix in="SourceAlpha" type="matrix" values="0 0 0 0 0 0 0 0 0 0 0 0 0 0 0 0 0 0 127 0" result="hardAlpha"/>
<feOffset/>
<feGaussianBlur stdDeviation="22.9302"/>
<feComposite in2="hardAlpha" operator="arithmetic" k2="-1" k3="1"/>
<feColorMatrix type="matrix" values="0 0 0 0 1 0 0 0 0 1 0 0 0 0 1 0 0 0 0.67 0"/>
<feBlend mode="normal" in2="shape" result="effect2_innerShadow_4241_1470"/>
</filter>
<linearGradient id="paint0_linear_4241_1470" x1="340" y1="0" x2="340" y2="565" gradientUnits="userSpaceOnUse">
<stop stop-color="white"/>
<stop offset="0.316" stop-color="#999999" stop-opacity="0.01"/>
<stop offset="0.481" stop-color="#999999" stop-opacity="0.01"/>
<stop offset="0.661" stop-color="#999999" stop-opacity="0.01"/>
<stop offset="1" stop-color="white"/>
</linearGradient>
<linearGradient id="paint1_linear_4241_1470" x1="101.314" y1="67.7176" x2="247.995" y2="67.7176" gradientUnits="userSpaceOnUse">
<stop stop-color="#FF5900"/>
<stop offset="1"/>
</linearGradient>
<linearGradient id="paint2_linear_4241_1470" x1="236.555" y1="138.474" x2="97.8998" y2="121.35" gradientUnits="userSpaceOnUse">
<stop/>
<stop offset="1" stop-color="#2B2B2B"/>
</linearGradient>
<linearGradient id="paint3_linear_4241_1470" x1="186.525" y1="82.3858" x2="260.622" y2="93.0869" gradientUnits="userSpaceOnUse">
<stop stop-color="white" stop-opacity="0"/>
<stop offset="1" stop-color="#999999"/>
</linearGradient>
<linearGradient id="paint4_linear_4241_1470" x1="150.282" y1="90.7728" x2="90.9124" y2="81.1614" gradientUnits="userSpaceOnUse">
<stop stop-color="white" stop-opacity="0"/>
<stop offset="1" stop-color="#999999"/>
</linearGradient>
<linearGradient id="paint5_linear_4241_1470" x1="438.804" y1="67.7176" x2="585.486" y2="67.7176" gradientUnits="userSpaceOnUse">
<stop stop-color="#FF5900"/>
<stop offset="1"/>
</linearGradient>
<linearGradient id="paint6_linear_4241_1470" x1="574.045" y1="138.474" x2="435.39" y2="121.35" gradientUnits="userSpaceOnUse">
<stop/>
<stop offset="1" stop-color="#2B2B2B"/>
</linearGradient>
<linearGradient id="paint7_linear_4241_1470" x1="524.015" y1="82.3858" x2="598.112" y2="93.0869" gradientUnits="userSpaceOnUse">
<stop stop-color="white" stop-opacity="0"/>
<stop offset="1" stop-color="#999999"/>
</linearGradient>
<linearGradient id="paint8_linear_4241_1470" x1="487.773" y1="90.7728" x2="428.403" y2="81.1614" gradientUnits="userSpaceOnUse">
<stop stop-color="white" stop-opacity="0"/>
<stop offset="1" stop-color="#999999"/>
</linearGradient>
<linearGradient id="paint9_linear_4241_1470" x1="516.804" y1="268.718" x2="663.486" y2="268.718" gradientUnits="userSpaceOnUse">
<stop stop-color="#FF5900"/>
<stop offset="1"/>
</linearGradient>
<linearGradient id="paint10_linear_4241_1470" x1="652.045" y1="339.474" x2="513.39" y2="322.35" gradientUnits="userSpaceOnUse">
<stop/>
<stop offset="1" stop-color="#2B2B2B"/>
</linearGradient>
<linearGradient id="paint11_linear_4241_1470" x1="602.015" y1="283.386" x2="676.112" y2="294.087" gradientUnits="userSpaceOnUse">
<stop stop-color="white" stop-opacity="0"/>
<stop offset="1" stop-color="#999999"/>
</linearGradient>
<linearGradient id="paint12_linear_4241_1470" x1="565.773" y1="291.773" x2="506.403" y2="282.161" gradientUnits="userSpaceOnUse">
<stop stop-color="white" stop-opacity="0"/>
<stop offset="1" stop-color="#999999"/>
</linearGradient>
<linearGradient id="paint13_linear_4241_1470" x1="438.804" y1="469.718" x2="585.486" y2="469.718" gradientUnits="userSpaceOnUse">
<stop stop-color="#FF5900"/>
<stop offset="1"/>
</linearGradient>
<linearGradient id="paint14_linear_4241_1470" x1="574.045" y1="540.474" x2="435.39" y2="523.35" gradientUnits="userSpaceOnUse">
<stop/>
<stop offset="1" stop-color="#2B2B2B"/>
</linearGradient>
<linearGradient id="paint15_linear_4241_1470" x1="524.015" y1="484.386" x2="598.112" y2="495.087" gradientUnits="userSpaceOnUse">
<stop stop-color="white" stop-opacity="0"/>
<stop offset="1" stop-color="#999999"/>
</linearGradient>
<linearGradient id="paint16_linear_4241_1470" x1="487.773" y1="492.773" x2="428.403" y2="483.161" gradientUnits="userSpaceOnUse">
<stop stop-color="white" stop-opacity="0"/>
<stop offset="1" stop-color="#999999"/>
</linearGradient>
<linearGradient id="paint17_linear_4241_1470" x1="-5.93992" y1="265.718" x2="140.741" y2="265.718" gradientUnits="userSpaceOnUse">
<stop stop-color="#FF5900"/>
<stop offset="1"/>
</linearGradient>
<linearGradient id="paint18_linear_4241_1470" x1="129.301" y1="336.474" x2="-9.35413" y2="319.35" gradientUnits="userSpaceOnUse">
<stop/>
<stop offset="1" stop-color="#2B2B2B"/>
</linearGradient>
<linearGradient id="paint19_linear_4241_1470" x1="79.271" y1="280.386" x2="153.368" y2="291.087" gradientUnits="userSpaceOnUse">
<stop stop-color="white" stop-opacity="0"/>
<stop offset="1" stop-color="#999999"/>
</linearGradient>
<linearGradient id="paint20_linear_4241_1470" x1="43.0286" y1="288.773" x2="-16.3415" y2="279.161" gradientUnits="userSpaceOnUse">
<stop stop-color="white" stop-opacity="0"/>
<stop offset="1" stop-color="#999999"/>
</linearGradient>
<linearGradient id="paint21_linear_4241_1470" x1="101.314" y1="469.718" x2="247.995" y2="469.718" gradientUnits="userSpaceOnUse">
<stop stop-color="#FF5900"/>
<stop offset="1"/>
</linearGradient>
<linearGradient id="paint22_linear_4241_1470" x1="236.555" y1="540.474" x2="97.8998" y2="523.35" gradientUnits="userSpaceOnUse">
<stop/>
<stop offset="1" stop-color="#2B2B2B"/>
</linearGradient>
<linearGradient id="paint23_linear_4241_1470" x1="186.525" y1="484.386" x2="260.622" y2="495.087" gradientUnits="userSpaceOnUse">
<stop stop-color="white" stop-opacity="0"/>
<stop offset="1" stop-color="#999999"/>
</linearGradient>
<linearGradient id="paint24_linear_4241_1470" x1="150.282" y1="492.773" x2="90.9124" y2="483.161" gradientUnits="userSpaceOnUse">
<stop stop-color="white" stop-opacity="0"/>
<stop offset="1" stop-color="#999999"/>
</linearGradient>
<linearGradient id="paint25_linear_4241_1470" x1="225.045" y1="110.771" x2="377.677" y2="362.79" gradientUnits="userSpaceOnUse">
<stop stop-color="#474747"/>
<stop offset="1"/>
</linearGradient>
<clipPath id="clip0_4241_1470">
<rect width="320.881" height="320.881" fill="white" transform="translate(186 120)"/>
</clipPath>
</defs>
</svg>
