<svg width="74" height="74" viewBox="0 0 74 74" fill="none" xmlns="http://www.w3.org/2000/svg">
<rect x="0.400391" y="0.299805" width="72.8" height="72.8" rx="8.54029" fill="#FF6A00"/>
<path d="M31.3996 42.8929C31.3996 43.3622 31.21 43.8123 30.8724 44.1441C30.5348 44.4759 30.077 44.6624 29.5996 44.6624H20.5996C20.1222 44.6624 19.6644 44.4759 19.3268 44.1441C18.9893 43.8123 18.7996 43.3622 18.7996 42.8929C18.7996 42.4236 18.9893 41.9735 19.3268 41.6417C19.6644 41.3098 20.1222 41.1234 20.5996 41.1234H29.5996C30.077 41.1234 30.5348 41.3098 30.8724 41.6417C31.21 41.9735 31.3996 42.4236 31.3996 42.8929ZM61.9996 34.9302V48.2014C61.9996 49.14 61.6203 50.0401 60.9452 50.7038C60.2701 51.3675 59.3544 51.7403 58.3996 51.7403H38.5996V58.8183C38.5996 59.2876 38.41 59.7377 38.0724 60.0695C37.7348 60.4014 37.277 60.5878 36.7996 60.5878C36.3222 60.5878 35.8644 60.4014 35.5268 60.0695C35.1893 59.7377 34.9996 59.2876 34.9996 58.8183V51.7403H15.1996C14.2448 51.7403 13.3292 51.3675 12.654 50.7038C11.9789 50.0401 11.5996 49.14 11.5996 48.2014V34.9302C11.6038 31.4117 13.0274 28.0385 15.5583 25.5505C18.0891 23.0626 21.5205 21.6631 25.0996 21.659H42.1996V14.581C42.1996 14.1117 42.3892 13.6616 42.7268 13.3298C43.0644 12.998 43.5222 12.8115 43.9996 12.8115H51.1996C51.677 12.8115 52.1348 12.998 52.4724 13.3298C52.81 13.6616 52.9996 14.1117 52.9996 14.581C52.9996 15.0503 52.81 15.5004 52.4724 15.8322C52.1348 16.1641 51.677 16.3505 51.1996 16.3505H45.7996V21.659H48.4996C52.0788 21.6631 55.5101 23.0626 58.0409 25.5505C60.5718 28.0385 61.9954 31.4117 61.9996 34.9302ZM34.9996 48.2014V34.9302C34.9996 32.349 33.9566 29.8736 32.1 28.0485C30.2434 26.2233 27.7253 25.198 25.0996 25.198C22.474 25.198 19.9559 26.2233 18.0993 28.0485C16.2426 29.8736 15.1996 32.349 15.1996 34.9302V48.2014H34.9996ZM58.3996 34.9302C58.3966 32.3499 57.3526 29.8762 55.4967 28.0517C53.6407 26.2272 51.1243 25.2009 48.4996 25.198H45.7996V41.1234C45.7996 41.5927 45.61 42.0428 45.2724 42.3746C44.9348 42.7065 44.477 42.8929 43.9996 42.8929C43.5222 42.8929 43.0644 42.7065 42.7268 42.3746C42.3892 42.0428 42.1996 41.5927 42.1996 41.1234V25.198H34.2684C35.6347 26.4383 36.7249 27.9434 37.4704 29.6183C38.2158 31.2933 38.6003 33.1019 38.5996 34.9302V48.2014H58.3996V34.9302Z" fill="white"/>
</svg>
