<svg width="86" height="79" viewBox="0 0 86 79" fill="none" xmlns="http://www.w3.org/2000/svg">
<rect x="0.878906" y="0.5" width="84.8438" height="78.4" rx="10.7397" fill="#FF6A00"/>
<path d="M64.2424 55.8096C64.2424 56.2369 64.0726 56.6466 63.7705 56.9488C63.4684 57.2509 63.0586 57.4206 62.6314 57.4206H23.9684C23.5411 57.4206 23.1314 57.2509 22.8293 56.9488C22.5271 56.6466 22.3574 56.2369 22.3574 55.8096V23.5905C22.3574 23.1632 22.5271 22.7534 22.8293 22.4513C23.1314 22.1492 23.5411 21.9795 23.9684 21.9795C24.3956 21.9795 24.8054 22.1492 25.1075 22.4513C25.4096 22.7534 25.5793 23.1632 25.5793 23.5905V45.4773L35.7163 35.3384C35.8659 35.1886 36.0436 35.0698 36.2392 34.9887C36.4347 34.9076 36.6443 34.8659 36.8561 34.8659C37.0678 34.8659 37.2774 34.9076 37.473 34.9887C37.6685 35.0698 37.8462 35.1886 37.9958 35.3384L43.2999 40.6445L53.9101 30.0343H49.7437C49.3165 30.0343 48.9067 29.8646 48.6046 29.5624C48.3025 29.2603 48.1328 28.8506 48.1328 28.4233C48.1328 27.9961 48.3025 27.5863 48.6046 27.2842C48.9067 26.9821 49.3165 26.8124 49.7437 26.8124H57.7985C58.2258 26.8124 58.6355 26.9821 58.9376 27.2842C59.2398 27.5863 59.4095 27.9961 59.4095 28.4233V36.4781C59.4095 36.9054 59.2398 37.3151 58.9376 37.6172C58.6355 37.9194 58.2258 38.0891 57.7985 38.0891C57.3713 38.0891 56.9615 37.9194 56.6594 37.6172C56.3573 37.3151 56.1876 36.9054 56.1876 36.4781V32.3118L44.4396 44.0617C44.29 44.2115 44.1124 44.3303 43.9168 44.4114C43.7212 44.4925 43.5116 44.5342 43.2999 44.5342C43.0882 44.5342 42.8786 44.4925 42.683 44.4114C42.4874 44.3303 42.3097 44.2115 42.1601 44.0617L36.8561 38.7556L25.5793 50.0323V54.1987H62.6314C63.0586 54.1987 63.4684 54.3684 63.7705 54.6705C64.0726 54.9726 64.2424 55.3824 64.2424 55.8096Z" fill="white"/>
</svg>
