<svg width="73" height="74" viewBox="0 0 73 74" fill="none" xmlns="http://www.w3.org/2000/svg">
<rect x="0.101562" y="0.299805" width="72.8" height="72.8" rx="8.54029" fill="#FF6A00"/>
<path d="M59.9008 34.9H58.0243C57.5923 29.8137 55.3756 25.0441 51.7661 21.4346C48.1567 17.8252 43.387 15.6084 38.3008 15.1765V13.3C38.3008 12.8226 38.1111 12.3648 37.7736 12.0272C37.436 11.6896 36.9782 11.5 36.5008 11.5C36.0234 11.5 35.5656 11.6896 35.228 12.0272C34.8904 12.3648 34.7008 12.8226 34.7008 13.3V15.1765C29.6145 15.6084 24.8449 17.8252 21.2354 21.4346C17.6259 25.0441 15.4092 29.8137 14.9773 34.9H13.1008C12.6234 34.9 12.1656 35.0896 11.828 35.4272C11.4904 35.7648 11.3008 36.2226 11.3008 36.7C11.3008 37.1774 11.4904 37.6352 11.828 37.9728C12.1656 38.3104 12.6234 38.5 13.1008 38.5H14.9773C15.4092 43.5863 17.6259 48.3559 21.2354 51.9654C24.8449 55.5748 29.6145 57.7916 34.7008 58.2235V60.1C34.7008 60.5774 34.8904 61.0352 35.228 61.3728C35.5656 61.7104 36.0234 61.9 36.5008 61.9C36.9782 61.9 37.436 61.7104 37.7736 61.3728C38.1111 61.0352 38.3008 60.5774 38.3008 60.1V58.2235C43.387 57.7916 48.1567 55.5748 51.7661 51.9654C55.3756 48.3559 57.5923 43.5863 58.0243 38.5H59.9008C60.3782 38.5 60.836 38.3104 61.1736 37.9728C61.5111 37.6352 61.7008 37.1774 61.7008 36.7C61.7008 36.2226 61.5111 35.7648 61.1736 35.4272C60.836 35.0896 60.3782 34.9 59.9008 34.9ZM38.3008 54.61V52.9C38.3008 52.4226 38.1111 51.9648 37.7736 51.6272C37.436 51.2896 36.9782 51.1 36.5008 51.1C36.0234 51.1 35.5656 51.2896 35.228 51.6272C34.8904 51.9648 34.7008 52.4226 34.7008 52.9V54.61C30.5717 54.1887 26.7144 52.356 23.7796 49.4212C20.8448 46.4864 19.0121 42.629 18.5908 38.5H20.3008C20.7782 38.5 21.236 38.3104 21.5736 37.9728C21.9111 37.6352 22.1008 37.1774 22.1008 36.7C22.1008 36.2226 21.9111 35.7648 21.5736 35.4272C21.236 35.0896 20.7782 34.9 20.3008 34.9H18.5908C19.0121 30.771 20.8448 26.9136 23.7796 23.9788C26.7144 21.044 30.5717 19.2113 34.7008 18.79V20.5C34.7008 20.9774 34.8904 21.4352 35.228 21.7728C35.5656 22.1104 36.0234 22.3 36.5008 22.3C36.9782 22.3 37.436 22.1104 37.7736 21.7728C38.1111 21.4352 38.3008 20.9774 38.3008 20.5V18.79C42.4298 19.2113 46.2871 21.044 49.222 23.9788C52.1568 26.9136 53.9895 30.771 54.4108 34.9H52.7008C52.2234 34.9 51.7656 35.0896 51.428 35.4272C51.0904 35.7648 50.9008 36.2226 50.9008 36.7C50.9008 37.1774 51.0904 37.6352 51.428 37.9728C51.7656 38.3104 52.2234 38.5 52.7008 38.5H54.4108C53.9895 42.629 52.1568 46.4864 49.222 49.4212C46.2871 52.356 42.4298 54.1887 38.3008 54.61ZM36.5008 27.7C34.7207 27.7 32.9807 28.2278 31.5006 29.2168C30.0206 30.2057 28.8671 31.6113 28.1859 33.2558C27.5047 34.9004 27.3264 36.71 27.6737 38.4558C28.021 40.2016 28.8781 41.8053 30.1368 43.064C31.3955 44.3226 32.9991 45.1798 34.745 45.5271C36.4908 45.8743 38.3004 45.6961 39.9449 45.0149C41.5895 44.3337 42.9951 43.1802 43.984 41.7001C44.9729 40.2201 45.5008 38.48 45.5008 36.7C45.5008 34.3131 44.5526 32.0239 42.8647 30.336C41.1769 28.6482 38.8877 27.7 36.5008 27.7ZM36.5008 42.1C35.4328 42.1 34.3887 41.7833 33.5007 41.1899C32.6127 40.5966 31.9205 39.7532 31.5118 38.7665C31.1031 37.7798 30.9962 36.694 31.2045 35.6465C31.4129 34.599 31.9272 33.6368 32.6824 32.8816C33.4376 32.1264 34.3998 31.6121 35.4473 31.4038C36.4948 31.1954 37.5806 31.3023 38.5673 31.711C39.554 32.1198 40.3974 32.8119 40.9907 33.6999C41.5841 34.5879 41.9008 35.632 41.9008 36.7C41.9008 38.1322 41.3319 39.5057 40.3192 40.5184C39.3065 41.5311 37.9329 42.1 36.5008 42.1Z" fill="white"/>
</svg>
