<svg width="85" height="79" viewBox="0 0 85 79" fill="none" xmlns="http://www.w3.org/2000/svg">
<g opacity="0.8">
<rect width="84.8438" height="78.4" rx="6.50879" fill="#424242"/>
<path d="M71.8262 63.0022C71.8262 63.6335 71.5879 64.2389 71.1638 64.6853C70.7396 65.1316 70.1643 65.3824 69.5644 65.3824H15.2795C14.6796 65.3824 14.1042 65.1316 13.6801 64.6853C13.2559 64.2389 13.0176 63.6335 13.0176 63.0022V15.3978C13.0176 14.7665 13.2559 14.1611 13.6801 13.7147C14.1042 13.2684 14.6796 13.0176 15.2795 13.0176C15.8793 13.0176 16.4547 13.2684 16.8788 13.7147C17.303 14.1611 17.5413 14.7665 17.5413 15.3978V47.7361L31.7741 32.7555C31.9842 32.5342 32.2337 32.3587 32.5083 32.2389C32.7829 32.1191 33.0772 32.0575 33.3744 32.0575C33.6717 32.0575 33.966 32.1191 34.2406 32.2389C34.5152 32.3587 34.7646 32.5342 34.9747 32.7555L42.4219 40.5954L57.3192 24.9187H51.4694C50.8695 24.9187 50.2942 24.6679 49.87 24.2215C49.4458 23.7751 49.2075 23.1697 49.2075 22.5385C49.2075 21.9072 49.4458 21.3018 49.87 20.8554C50.2942 20.409 50.8695 20.1582 51.4694 20.1582H62.7788C63.3786 20.1582 63.954 20.409 64.3781 20.8554C64.8023 21.3018 65.0406 21.9072 65.0406 22.5385V34.4396C65.0406 35.0708 64.8023 35.6762 64.3781 36.1226C63.954 36.569 63.3786 36.8198 62.7788 36.8198C62.1789 36.8198 61.6036 36.569 61.1794 36.1226C60.7552 35.6762 60.5169 35.0708 60.5169 34.4396V28.2837L44.0222 45.6444C43.8121 45.8657 43.5627 46.0413 43.2881 46.1611C43.0135 46.2809 42.7192 46.3425 42.4219 46.3425C42.1247 46.3425 41.8303 46.2809 41.5558 46.1611C41.2812 46.0413 41.0317 45.8657 40.8216 45.6444L33.3744 37.8046L17.5413 54.4661V60.622H69.5644C70.1643 60.622 70.7396 60.8727 71.1638 61.3191C71.5879 61.7655 71.8262 62.3709 71.8262 63.0022Z" fill="white"/>
</g>
</svg>
