<svg width="73" height="73" viewBox="0 0 73 73" fill="none" xmlns="http://www.w3.org/2000/svg">
<rect width="72.8" height="72.8" rx="5.17583" fill="#424242"/>
<path d="M30.8181 43.1532C30.8181 43.6649 30.6221 44.1557 30.2732 44.5176C29.9242 44.8794 29.451 45.0827 28.9575 45.0827H19.6545C19.1611 45.0827 18.6878 44.8794 18.3389 44.5176C17.99 44.1557 17.7939 43.6649 17.7939 43.1532C17.7939 42.6414 17.99 42.1507 18.3389 41.7888C18.6878 41.427 19.1611 41.2237 19.6545 41.2237H28.9575C29.451 41.2237 29.9242 41.427 30.2732 41.7888C30.6221 42.1507 30.8181 42.6414 30.8181 43.1532ZM62.4483 34.4704V48.9417C62.4483 49.9652 62.0562 50.9467 61.3583 51.6704C60.6605 52.3941 59.714 52.8007 58.7271 52.8007H38.2605V60.5188C38.2605 61.0305 38.0645 61.5213 37.7156 61.8831C37.3666 62.245 36.8934 62.4483 36.3999 62.4483C35.9064 62.4483 35.4332 62.245 35.0843 61.8831C34.7353 61.5213 34.5393 61.0305 34.5393 60.5188V52.8007H14.0728C13.0858 52.8007 12.1393 52.3941 11.4415 51.6704C10.7436 50.9467 10.3516 49.9652 10.3516 48.9417V34.4704C10.3559 30.6337 11.8275 26.9555 14.4435 24.2426C17.0595 21.5297 20.6064 20.0036 24.306 19.9991H41.9817V12.2811C41.9817 11.7693 42.1777 11.2786 42.5267 10.9167C42.8756 10.5548 43.3488 10.3516 43.8423 10.3516H51.2847C51.7781 10.3516 52.2514 10.5548 52.6003 10.9167C52.9493 11.2786 53.1453 11.7693 53.1453 12.2811C53.1453 12.7928 52.9493 13.2836 52.6003 13.6454C52.2514 14.0073 51.7781 14.2106 51.2847 14.2106H45.7029V19.9991H48.4938C52.1934 20.0036 55.7403 21.5297 58.3563 24.2426C60.9724 26.9555 62.444 30.6337 62.4483 34.4704ZM34.5393 48.9417V34.4704C34.5393 31.6558 33.4612 28.9566 31.5421 26.9664C29.6229 24.9762 27.0201 23.8581 24.306 23.8581C21.592 23.8581 18.9891 24.9762 17.07 26.9664C15.1509 28.9566 14.0728 31.6558 14.0728 34.4704V48.9417H34.5393ZM58.7271 34.4704C58.724 31.6568 57.6449 28.9594 55.7264 26.9699C53.808 24.9804 51.2069 23.8613 48.4938 23.8581H45.7029V41.2237C45.7029 41.7354 45.5069 42.2262 45.1579 42.588C44.809 42.9499 44.3358 43.1532 43.8423 43.1532C43.3488 43.1532 42.8756 42.9499 42.5267 42.588C42.1777 42.2262 41.9817 41.7354 41.9817 41.2237V23.8581H33.7834C35.1958 25.2106 36.3227 26.8518 37.0933 28.6782C37.8638 30.5047 38.2612 32.4768 38.2605 34.4704V48.9417H58.7271V34.4704Z" fill="white"/>
</svg>
