<svg width="657" height="565" viewBox="0 0 657 565" fill="none" xmlns="http://www.w3.org/2000/svg">
<path opacity="0.22" d="M318.942 11.1606C331.934 4.19012 347.554 4.19014 360.546 11.1606L579.818 128.804C594.102 136.468 603.016 151.365 603.016 167.576V397.424C603.016 413.635 594.102 428.532 579.818 436.196L360.546 553.839C347.554 560.81 331.934 560.81 318.942 553.839L99.6704 436.196C85.3859 428.532 76.4724 413.635 76.4724 397.424V167.576C76.4724 151.365 85.3859 136.468 99.6705 128.804L318.942 11.1606Z" fill="url(#paint0_linear_8_2700)"/>
<g filter="url(#filter0_di_8_2700)">
<path d="M165.302 22.5542C170.841 19.356 177.666 19.356 183.206 22.5542L221.593 44.7172C227.133 47.9155 230.546 53.8262 230.546 60.2227V104.549C230.546 110.945 227.133 116.856 221.593 120.054L183.206 142.217C177.666 145.416 170.841 145.416 165.302 142.217L126.914 120.054C121.375 116.856 117.962 110.945 117.962 104.549V60.2227C117.962 53.8262 121.375 47.9155 126.914 44.7172L165.302 22.5542Z" fill="url(#paint1_linear_8_2700)"/>
<path d="M165.302 22.5542C170.841 19.356 177.666 19.356 183.206 22.5542L221.593 44.7172C227.133 47.9155 230.546 53.8262 230.546 60.2227V104.549C230.546 110.945 227.133 116.856 221.593 120.054L183.206 142.217C177.666 145.416 170.841 145.416 165.302 142.217L126.914 120.054C121.375 116.856 117.962 110.945 117.962 104.549V60.2227C117.962 53.8262 121.375 47.9155 126.914 44.7172L165.302 22.5542Z" fill="url(#paint2_linear_8_2700)"/>
<path d="M165.496 22.8916C170.915 19.7629 177.593 19.7629 183.012 22.8916L221.398 45.0547C226.818 48.1834 230.156 53.9652 230.156 60.2227V104.549C230.156 110.806 226.818 116.588 221.398 119.717L183.012 141.88C177.593 145.009 170.915 145.009 165.496 141.88L127.109 119.717C121.69 116.588 118.352 110.806 118.352 104.549V60.2227C118.352 53.9652 121.69 48.1834 127.109 45.0547L165.496 22.8916Z" stroke="url(#paint3_linear_8_2700)" stroke-width="0.778443"/>
<path d="M165.496 22.8916C170.915 19.7629 177.593 19.7629 183.012 22.8916L221.398 45.0547C226.818 48.1834 230.156 53.9652 230.156 60.2227V104.549C230.156 110.806 226.818 116.588 221.398 119.717L183.012 141.88C177.593 145.009 170.915 145.009 165.496 141.88L127.109 119.717C121.69 116.588 118.352 110.806 118.352 104.549V60.2227C118.352 53.9652 121.69 48.1834 127.109 45.0547L165.496 22.8916Z" stroke="url(#paint4_linear_8_2700)" stroke-width="0.778443"/>
</g>
<g filter="url(#filter1_di_8_2700)">
<path d="M203.667 79.6279H176.516V72.8704H178.779C179.979 72.8704 181.13 72.3957 181.979 71.5509C182.827 70.706 183.304 69.5602 183.304 68.3654V59.3553C183.304 58.1605 182.827 57.0147 181.979 56.1698C181.13 55.325 179.979 54.8503 178.779 54.8503H169.729C168.529 54.8503 167.378 55.325 166.529 56.1698C165.68 57.0147 165.204 58.1605 165.204 59.3553V68.3654C165.204 69.5602 165.68 70.706 166.529 71.5509C167.378 72.3957 168.529 72.8704 169.729 72.8704H171.991V79.6279H144.841C144.241 79.6279 143.665 79.8652 143.241 80.2876C142.817 80.71 142.578 81.283 142.578 81.8804C142.578 82.4778 142.817 83.0507 143.241 83.4731C143.665 83.8956 144.241 84.1329 144.841 84.1329H153.891V93.1429H151.628C150.428 93.1429 149.277 93.6175 148.429 94.4624C147.58 95.3072 147.103 96.4531 147.103 97.6479V106.658C147.103 107.853 147.58 108.999 148.429 109.843C149.277 110.688 150.428 111.163 151.628 111.163H160.679C161.879 111.163 163.03 110.688 163.878 109.843C164.727 108.999 165.204 107.853 165.204 106.658V97.6479C165.204 96.4531 164.727 95.3072 163.878 94.4624C163.03 93.6175 161.879 93.1429 160.679 93.1429H158.416V84.1329H190.092V93.1429H187.829C186.629 93.1429 185.478 93.6175 184.63 94.4624C183.781 95.3072 183.304 96.4531 183.304 97.6479V106.658C183.304 107.853 183.781 108.999 184.63 109.843C185.478 110.688 186.629 111.163 187.829 111.163H196.88C198.08 111.163 199.231 110.688 200.079 109.843C200.928 108.999 201.405 107.853 201.405 106.658V97.6479C201.405 96.4531 200.928 95.3072 200.079 94.4624C199.231 93.6175 198.08 93.1429 196.88 93.1429H194.617V84.1329H203.667C204.267 84.1329 204.843 83.8956 205.267 83.4731C205.691 83.0507 205.93 82.4778 205.93 81.8804C205.93 81.283 205.691 80.71 205.267 80.2876C204.843 79.8652 204.267 79.6279 203.667 79.6279ZM169.729 59.3553H178.779V68.3654H169.729V59.3553ZM160.679 106.658H151.628V97.6479H160.679V106.658ZM196.88 106.658H187.829V97.6479H196.88V106.658Z" fill="white"/>
</g>
<g filter="url(#filter2_di_8_2700)">
<path d="M502.792 22.5542C508.332 19.356 515.157 19.356 520.696 22.5542L559.084 44.7172C564.623 47.9155 568.036 53.8262 568.036 60.2227V104.549C568.036 110.945 564.623 116.856 559.084 120.054L520.696 142.217C515.157 145.416 508.332 145.416 502.792 142.217L464.405 120.054C458.865 116.856 455.452 110.945 455.452 104.549V60.2227C455.452 53.8262 458.865 47.9155 464.405 44.7172L502.792 22.5542Z" fill="url(#paint5_linear_8_2700)"/>
<path d="M502.792 22.5542C508.332 19.356 515.157 19.356 520.696 22.5542L559.084 44.7172C564.623 47.9155 568.036 53.8262 568.036 60.2227V104.549C568.036 110.945 564.623 116.856 559.084 120.054L520.696 142.217C515.157 145.416 508.332 145.416 502.792 142.217L464.405 120.054C458.865 116.856 455.452 110.945 455.452 104.549V60.2227C455.452 53.8262 458.865 47.9155 464.405 44.7172L502.792 22.5542Z" fill="url(#paint6_linear_8_2700)"/>
<path d="M502.986 22.8916C508.405 19.7629 515.083 19.7629 520.502 22.8916L558.889 45.0547C564.308 48.1834 567.646 53.9652 567.646 60.2227V104.549C567.646 110.806 564.308 116.588 558.889 119.717L520.502 141.88C515.083 145.009 508.405 145.009 502.986 141.88L464.6 119.717C459.18 116.588 455.842 110.806 455.842 104.549V60.2227C455.842 53.9652 459.18 48.1834 464.6 45.0547L502.986 22.8916Z" stroke="url(#paint7_linear_8_2700)" stroke-width="0.778443"/>
<path d="M502.986 22.8916C508.405 19.7629 515.083 19.7629 520.502 22.8916L558.889 45.0547C564.308 48.1834 567.646 53.9652 567.646 60.2227V104.549C567.646 110.806 564.308 116.588 558.889 119.717L520.502 141.88C515.083 145.009 508.405 145.009 502.986 141.88L464.6 119.717C459.18 116.588 455.842 110.806 455.842 104.549V60.2227C455.842 53.9652 459.18 48.1834 464.6 45.0547L502.986 22.8916Z" stroke="url(#paint8_linear_8_2700)" stroke-width="0.778443"/>
</g>
<g filter="url(#filter3_di_8_2700)">
<path d="M541.157 80.7441H538.799C538.256 74.3508 535.469 68.3554 530.932 63.8184C526.395 59.2814 520.4 56.495 514.007 55.9521V53.5934C514.007 52.9933 513.768 52.4178 513.344 51.9935C512.92 51.5692 512.344 51.3308 511.744 51.3308C511.144 51.3308 510.569 51.5692 510.144 51.9935C509.72 52.4178 509.482 52.9933 509.482 53.5934V55.9521C503.088 56.495 497.093 59.2814 492.556 63.8184C488.019 68.3554 485.233 74.3508 484.69 80.7441H482.331C481.731 80.7441 481.155 80.9824 480.731 81.4067C480.307 81.8311 480.068 82.4066 480.068 83.0066C480.068 83.6067 480.307 84.1822 480.731 84.6065C481.155 85.0308 481.731 85.2692 482.331 85.2692H484.69C485.233 91.6625 488.019 97.6578 492.556 102.195C497.093 106.732 503.088 109.518 509.482 110.061V112.42C509.482 113.02 509.72 113.595 510.144 114.02C510.569 114.444 511.144 114.682 511.744 114.682C512.344 114.682 512.92 114.444 513.344 114.02C513.768 113.595 514.007 113.02 514.007 112.42V110.061C520.4 109.518 526.395 106.732 530.932 102.195C535.469 97.6578 538.256 91.6625 538.799 85.2692H541.157C541.757 85.2692 542.333 85.0308 542.757 84.6065C543.182 84.1822 543.42 83.6067 543.42 83.0066C543.42 82.4066 543.182 81.8311 542.757 81.4067C542.333 80.9824 541.757 80.7441 541.157 80.7441ZM514.007 105.519V103.37C514.007 102.77 513.768 102.194 513.344 101.77C512.92 101.345 512.344 101.107 511.744 101.107C511.144 101.107 510.569 101.345 510.144 101.77C509.72 102.194 509.482 102.77 509.482 103.37V105.519C504.292 104.989 499.443 102.686 495.754 98.9969C492.065 95.3078 489.761 90.4593 489.232 85.2692H491.381C491.981 85.2692 492.557 85.0308 492.981 84.6065C493.405 84.1822 493.644 83.6067 493.644 83.0066C493.644 82.4066 493.405 81.8311 492.981 81.4067C492.557 80.9824 491.981 80.7441 491.381 80.7441H489.232C489.761 75.554 492.065 70.7054 495.754 67.0164C499.443 63.3274 504.292 61.0237 509.482 60.4942V62.6436C509.482 63.2437 509.72 63.8192 510.144 64.2435C510.569 64.6678 511.144 64.9062 511.744 64.9062C512.344 64.9062 512.92 64.6678 513.344 64.2435C513.768 63.8192 514.007 63.2437 514.007 62.6436V60.4942C519.197 61.0237 524.045 63.3274 527.734 67.0164C531.423 70.7054 533.727 75.554 534.257 80.7441H532.107C531.507 80.7441 530.932 80.9824 530.507 81.4067C530.083 81.8311 529.845 82.4066 529.845 83.0066C529.845 83.6067 530.083 84.1822 530.507 84.6065C530.932 85.0308 531.507 85.2692 532.107 85.2692H534.257C533.727 90.4593 531.423 95.3078 527.734 98.9969C524.045 102.686 519.197 104.989 514.007 105.519ZM511.744 71.6938C509.507 71.6938 507.319 72.3573 505.459 73.6004C503.599 74.8434 502.149 76.6103 501.293 78.6774C500.436 80.7445 500.212 83.0192 500.649 85.2136C501.085 87.4081 502.163 89.4238 503.745 91.006C505.327 92.5881 507.343 93.6655 509.537 94.102C511.732 94.5385 514.006 94.3145 516.073 93.4583C518.141 92.602 519.907 91.152 521.15 89.2917C522.393 87.4313 523.057 85.2441 523.057 83.0066C523.057 80.0063 521.865 77.1288 519.744 75.0073C517.622 72.8857 514.745 71.6938 511.744 71.6938ZM511.744 89.7943C510.402 89.7943 509.089 89.3962 507.973 88.6504C506.857 87.9045 505.987 86.8444 505.473 85.6041C504.959 84.3639 504.825 82.9991 505.087 81.6824C505.349 80.3657 505.995 79.1563 506.945 78.207C507.894 77.2577 509.103 76.6113 510.42 76.3494C511.737 76.0875 513.101 76.2219 514.342 76.7356C515.582 77.2494 516.642 78.1194 517.388 79.2356C518.134 80.3518 518.532 81.6641 518.532 83.0066C518.532 84.8068 517.817 86.5333 516.544 87.8062C515.271 89.0792 513.544 89.7943 511.744 89.7943Z" fill="white"/>
</g>
<g filter="url(#filter4_di_8_2700)">
<path d="M580.792 223.554C586.332 220.356 593.157 220.356 598.696 223.554L637.084 245.717C642.623 248.916 646.036 254.826 646.036 261.223V305.549C646.036 311.945 642.623 317.856 637.084 321.054L598.696 343.217C593.157 346.416 586.332 346.416 580.792 343.217L542.405 321.054C536.865 317.856 533.452 311.945 533.452 305.549V261.223C533.452 254.826 536.865 248.916 542.405 245.717L580.792 223.554Z" fill="url(#paint9_linear_8_2700)"/>
<path d="M580.792 223.554C586.332 220.356 593.157 220.356 598.696 223.554L637.084 245.717C642.623 248.916 646.036 254.826 646.036 261.223V305.549C646.036 311.945 642.623 317.856 637.084 321.054L598.696 343.217C593.157 346.416 586.332 346.416 580.792 343.217L542.405 321.054C536.865 317.856 533.452 311.945 533.452 305.549V261.223C533.452 254.826 536.865 248.916 542.405 245.717L580.792 223.554Z" fill="url(#paint10_linear_8_2700)"/>
<path d="M580.986 223.892C586.405 220.763 593.083 220.763 598.502 223.892L636.889 246.055C642.308 249.183 645.646 254.965 645.646 261.223V305.549C645.646 311.806 642.308 317.588 636.889 320.717L598.502 342.88C593.083 346.009 586.405 346.009 580.986 342.88L542.6 320.717C537.18 317.588 533.842 311.806 533.842 305.549V261.223C533.842 254.965 537.18 249.183 542.6 246.055L580.986 223.892Z" stroke="url(#paint11_linear_8_2700)" stroke-width="0.778443"/>
<path d="M580.986 223.892C586.405 220.763 593.083 220.763 598.502 223.892L636.889 246.055C642.308 249.183 645.646 254.965 645.646 261.223V305.549C645.646 311.806 642.308 317.588 636.889 320.717L598.502 342.88C593.083 346.009 586.405 346.009 580.986 342.88L542.6 320.717C537.18 317.588 533.842 311.806 533.842 305.549V261.223C533.842 254.965 537.18 249.183 542.6 246.055L580.986 223.892Z" stroke="url(#paint12_linear_8_2700)" stroke-width="0.778443"/>
</g>
<g filter="url(#filter5_di_8_2700)">
<path d="M614.862 286.519H564.623C563.291 286.519 562.013 287.048 561.071 287.99C560.129 288.932 559.6 290.21 559.6 291.542V306.614C559.6 307.946 560.129 309.224 561.071 310.166C562.013 311.108 563.291 311.638 564.623 311.638H614.862C616.194 311.638 617.472 311.108 618.414 310.166C619.356 309.224 619.885 307.946 619.885 306.614V291.542C619.885 290.21 619.356 288.932 618.414 287.99C617.472 287.048 616.194 286.519 614.862 286.519ZM614.862 306.614H564.623V291.542H614.862V306.614ZM614.862 256.376H564.623C563.291 256.376 562.013 256.905 561.071 257.847C560.129 258.789 559.6 260.067 559.6 261.4V276.471C559.6 277.803 560.129 279.081 561.071 280.023C562.013 280.966 563.291 281.495 564.623 281.495H614.862C616.194 281.495 617.472 280.966 618.414 280.023C619.356 279.081 619.885 277.803 619.885 276.471V261.4C619.885 260.067 619.356 258.789 618.414 257.847C617.472 256.905 616.194 256.376 614.862 256.376ZM614.862 276.471H564.623V261.4H614.862V276.471ZM609.838 268.935C609.838 269.681 609.617 270.409 609.203 271.029C608.789 271.648 608.2 272.131 607.512 272.416C606.823 272.702 606.066 272.776 605.335 272.631C604.604 272.485 603.933 272.127 603.406 271.6C602.879 271.073 602.52 270.401 602.374 269.67C602.229 268.939 602.304 268.182 602.589 267.493C602.874 266.805 603.357 266.216 603.977 265.802C604.596 265.388 605.325 265.167 606.07 265.167C607.069 265.167 608.028 265.564 608.734 266.271C609.441 266.978 609.838 267.936 609.838 268.935ZM609.838 299.078C609.838 299.823 609.617 300.552 609.203 301.172C608.789 301.791 608.2 302.274 607.512 302.559C606.823 302.844 606.066 302.919 605.335 302.774C604.604 302.628 603.933 302.269 603.406 301.742C602.879 301.216 602.52 300.544 602.374 299.813C602.229 299.082 602.304 298.325 602.589 297.636C602.874 296.948 603.357 296.359 603.977 295.945C604.596 295.531 605.325 295.31 606.07 295.31C607.069 295.31 608.028 295.707 608.734 296.414C609.441 297.121 609.838 298.079 609.838 299.078Z" fill="white"/>
</g>
<g filter="url(#filter6_di_8_2700)">
<path d="M502.792 424.554C508.332 421.356 515.157 421.356 520.696 424.554L559.084 446.717C564.623 449.916 568.036 455.826 568.036 462.223V506.549C568.036 512.945 564.623 518.856 559.084 522.054L520.696 544.217C515.157 547.416 508.332 547.416 502.792 544.217L464.405 522.054C458.865 518.856 455.452 512.945 455.452 506.549V462.223C455.452 455.826 458.865 449.916 464.405 446.717L502.792 424.554Z" fill="url(#paint13_linear_8_2700)"/>
<path d="M502.792 424.554C508.332 421.356 515.157 421.356 520.696 424.554L559.084 446.717C564.623 449.916 568.036 455.826 568.036 462.223V506.549C568.036 512.945 564.623 518.856 559.084 522.054L520.696 544.217C515.157 547.416 508.332 547.416 502.792 544.217L464.405 522.054C458.865 518.856 455.452 512.945 455.452 506.549V462.223C455.452 455.826 458.865 449.916 464.405 446.717L502.792 424.554Z" fill="url(#paint14_linear_8_2700)"/>
<path d="M502.986 424.892C508.405 421.763 515.083 421.763 520.502 424.892L558.889 447.055C564.308 450.183 567.646 455.965 567.646 462.223V506.549C567.646 512.806 564.308 518.588 558.889 521.717L520.502 543.88C515.083 547.009 508.405 547.009 502.986 543.88L464.6 521.717C459.18 518.588 455.842 512.806 455.842 506.549V462.223C455.842 455.965 459.18 450.183 464.6 447.055L502.986 424.892Z" stroke="url(#paint15_linear_8_2700)" stroke-width="0.778443"/>
<path d="M502.986 424.892C508.405 421.763 515.083 421.763 520.502 424.892L558.889 447.055C564.308 450.183 567.646 455.965 567.646 462.223V506.549C567.646 512.806 564.308 518.588 558.889 521.717L520.502 543.88C515.083 547.009 508.405 547.009 502.986 543.88L464.6 521.717C459.18 518.588 455.842 512.806 455.842 506.549V462.223C455.842 455.965 459.18 450.183 464.6 447.055L502.986 424.892Z" stroke="url(#paint16_linear_8_2700)" stroke-width="0.778443"/>
</g>
<g filter="url(#filter7_di_8_2700)">
<path d="M538.068 505.256C538.068 505.793 537.855 506.308 537.475 506.688C537.095 507.068 536.58 507.281 536.043 507.281H487.445C486.908 507.281 486.393 507.068 486.013 506.688C485.633 506.308 485.42 505.793 485.42 505.256V464.757C485.42 464.22 485.633 463.705 486.013 463.326C486.393 462.946 486.908 462.732 487.445 462.732C487.982 462.732 488.497 462.946 488.877 463.326C489.256 463.705 489.47 464.22 489.47 464.757V492.269L502.212 479.524C502.4 479.336 502.623 479.187 502.869 479.085C503.115 478.983 503.378 478.93 503.644 478.93C503.91 478.93 504.174 478.983 504.42 479.085C504.666 479.187 504.889 479.336 505.077 479.524L511.744 486.194L525.081 472.857H519.844C519.307 472.857 518.792 472.644 518.412 472.264C518.032 471.884 517.819 471.369 517.819 470.832C517.819 470.295 518.032 469.78 518.412 469.4C518.792 469.021 519.307 468.807 519.844 468.807H529.969C530.506 468.807 531.021 469.021 531.4 469.4C531.78 469.78 531.993 470.295 531.993 470.832V480.957C531.993 481.494 531.78 482.009 531.4 482.389C531.021 482.768 530.506 482.982 529.969 482.982C529.432 482.982 528.916 482.768 528.537 482.389C528.157 482.009 527.944 481.494 527.944 480.957V475.72L513.177 490.489C512.989 490.678 512.765 490.827 512.52 490.929C512.274 491.031 512.01 491.083 511.744 491.083C511.478 491.083 511.215 491.031 510.969 490.929C510.723 490.827 510.5 490.678 510.311 490.489L503.644 483.82L489.47 497.994V503.231H536.043C536.58 503.231 537.095 503.445 537.475 503.824C537.855 504.204 538.068 504.719 538.068 505.256Z" fill="white"/>
</g>
<g filter="url(#filter8_di_8_2700)">
<path d="M58.0479 220.554C63.5875 217.356 70.4125 217.356 75.9521 220.554L114.34 242.717C119.879 245.916 123.292 251.826 123.292 258.223V302.549C123.292 308.945 119.879 314.856 114.34 318.054L75.9521 340.217C70.4125 343.416 63.5875 343.416 58.0479 340.217L19.6604 318.054C14.1209 314.856 10.7083 308.945 10.7083 302.549V258.223C10.7083 251.826 14.1209 245.916 19.6604 242.717L58.0479 220.554Z" fill="url(#paint17_linear_8_2700)"/>
<path d="M58.0479 220.554C63.5875 217.356 70.4125 217.356 75.9521 220.554L114.34 242.717C119.879 245.916 123.292 251.826 123.292 258.223V302.549C123.292 308.945 119.879 314.856 114.34 318.054L75.9521 340.217C70.4125 343.416 63.5875 343.416 58.0479 340.217L19.6604 318.054C14.1209 314.856 10.7083 308.945 10.7083 302.549V258.223C10.7083 251.826 14.1209 245.916 19.6604 242.717L58.0479 220.554Z" fill="url(#paint18_linear_8_2700)"/>
<path d="M58.2422 220.892C63.6613 217.763 70.3387 217.763 75.7578 220.892L114.145 243.055C119.564 246.183 122.902 251.965 122.902 258.223V302.549C122.902 308.806 119.564 314.588 114.145 317.717L75.7578 339.88C70.3387 343.009 63.6613 343.009 58.2422 339.88L19.8555 317.717C14.4363 314.588 11.0977 308.806 11.0977 302.549V258.223C11.0977 251.965 14.4363 246.183 19.8555 243.055L58.2422 220.892Z" stroke="url(#paint19_linear_8_2700)" stroke-width="0.778443"/>
<path d="M58.2422 220.892C63.6613 217.763 70.3387 217.763 75.7578 220.892L114.145 243.055C119.564 246.183 122.902 251.965 122.902 258.223V302.549C122.902 308.806 119.564 314.588 114.145 317.717L75.7578 339.88C70.3387 343.009 63.6613 343.009 58.2422 339.88L19.8555 317.717C14.4363 314.588 11.0977 308.806 11.0977 302.549V258.223C11.0977 251.965 14.4363 246.183 19.8555 243.055L58.2422 220.892Z" stroke="url(#paint20_linear_8_2700)" stroke-width="0.778443"/>
</g>
<g filter="url(#filter9_di_8_2700)">
<path d="M60.2124 288.791C60.2124 289.381 59.974 289.947 59.5497 290.364C59.1254 290.781 58.5499 291.016 57.9498 291.016H46.637C46.0369 291.016 45.4614 290.781 45.0371 290.364C44.6128 289.947 44.3744 289.381 44.3744 288.791C44.3744 288.201 44.6128 287.636 45.0371 287.219C45.4614 286.801 46.0369 286.567 46.637 286.567H57.9498C58.5499 286.567 59.1254 286.801 59.5497 287.219C59.974 287.636 60.2124 288.201 60.2124 288.791ZM98.6758 278.782V295.464C98.6758 296.644 98.1991 297.775 97.3505 298.609C96.5018 299.444 95.3509 299.912 94.1507 299.912H69.2626V308.809C69.2626 309.399 69.0242 309.965 68.5999 310.382C68.1756 310.799 67.6001 311.033 67 311.033C66.4 311.033 65.8245 310.799 65.4002 310.382C64.9758 309.965 64.7375 309.399 64.7375 308.809V299.912H39.8493C38.6492 299.912 37.4982 299.444 36.6496 298.609C35.801 297.775 35.3242 296.644 35.3242 295.464V278.782C35.3295 274.36 37.119 270.12 40.3002 266.992C43.4814 263.865 47.7945 262.106 52.2934 262.101H73.7877V253.204C73.7877 252.614 74.0261 252.048 74.4504 251.631C74.8747 251.214 75.4502 250.98 76.0503 250.98H85.1005C85.7006 250.98 86.276 251.214 86.7004 251.631C87.1247 252.048 87.363 252.614 87.363 253.204C87.363 253.794 87.1247 254.36 86.7004 254.777C86.276 255.194 85.7006 255.428 85.1005 255.428H78.3128V262.101H81.7067C86.2056 262.106 90.5187 263.865 93.6999 266.992C96.8811 270.12 98.6706 274.36 98.6758 278.782ZM64.7375 295.464V278.782C64.7375 275.538 63.4264 272.426 61.0927 270.132C58.759 267.838 55.5938 266.549 52.2934 266.549C48.993 266.549 45.8278 267.838 43.4941 270.132C41.1604 272.426 39.8493 275.538 39.8493 278.782V295.464H64.7375ZM94.1507 278.782C94.147 275.539 92.8347 272.43 90.5018 270.136C88.1689 267.843 85.0059 266.553 81.7067 266.549H78.3128V286.567C78.3128 287.157 78.0744 287.723 77.6501 288.14C77.2258 288.557 76.6503 288.791 76.0503 288.791C75.4502 288.791 74.8747 288.557 74.4504 288.14C74.0261 287.723 73.7877 287.157 73.7877 286.567V266.549H63.8183C65.5358 268.108 66.9062 270 67.8432 272.105C68.7802 274.211 69.2635 276.484 69.2626 278.782V295.464H94.1507V278.782Z" fill="white"/>
</g>
<g filter="url(#filter10_di_8_2700)">
<path d="M165.302 424.554C170.841 421.356 177.666 421.356 183.206 424.554L221.593 446.717C227.133 449.916 230.546 455.826 230.546 462.223V506.549C230.546 512.945 227.133 518.856 221.593 522.054L183.206 544.217C177.666 547.416 170.841 547.416 165.302 544.217L126.914 522.054C121.375 518.856 117.962 512.945 117.962 506.549V462.223C117.962 455.826 121.375 449.916 126.914 446.717L165.302 424.554Z" fill="url(#paint21_linear_8_2700)"/>
<path d="M165.302 424.554C170.841 421.356 177.666 421.356 183.206 424.554L221.593 446.717C227.133 449.916 230.546 455.826 230.546 462.223V506.549C230.546 512.945 227.133 518.856 221.593 522.054L183.206 544.217C177.666 547.416 170.841 547.416 165.302 544.217L126.914 522.054C121.375 518.856 117.962 512.945 117.962 506.549V462.223C117.962 455.826 121.375 449.916 126.914 446.717L165.302 424.554Z" fill="url(#paint22_linear_8_2700)"/>
<path d="M165.496 424.892C170.915 421.763 177.593 421.763 183.012 424.892L221.398 447.055C226.818 450.183 230.156 455.965 230.156 462.223V506.549C230.156 512.806 226.818 518.588 221.398 521.717L183.012 543.88C177.593 547.009 170.915 547.009 165.496 543.88L127.109 521.717C121.69 518.588 118.352 512.806 118.352 506.549V462.223C118.352 455.965 121.69 450.183 127.109 447.055L165.496 424.892Z" stroke="url(#paint23_linear_8_2700)" stroke-width="0.778443"/>
<path d="M165.496 424.892C170.915 421.763 177.593 421.763 183.012 424.892L221.398 447.055C226.818 450.183 230.156 455.965 230.156 462.223V506.549C230.156 512.806 226.818 518.588 221.398 521.717L183.012 543.88C177.593 547.009 170.915 547.009 165.496 543.88L127.109 521.717C121.69 518.588 118.352 512.806 118.352 506.549V462.223C118.352 455.965 121.69 450.183 127.109 447.055L165.496 424.892Z" stroke="url(#paint24_linear_8_2700)" stroke-width="0.778443"/>
</g>
<g filter="url(#filter11_di_8_2700)">
<path d="M199.437 457.308C198.868 456.739 198.157 456.332 197.379 456.13C196.6 455.927 195.781 455.935 195.007 456.154H194.964L140.665 472.625C139.784 472.879 139 473.395 138.419 474.104C137.837 474.813 137.485 475.682 137.408 476.596C137.332 477.51 137.535 478.426 137.991 479.222C138.447 480.018 139.134 480.656 139.961 481.053L163.985 492.75L175.668 516.753C176.032 517.528 176.609 518.183 177.333 518.641C178.057 519.098 178.897 519.339 179.753 519.335C179.883 519.335 180.013 519.329 180.144 519.318C181.057 519.244 181.926 518.893 182.634 518.311C183.342 517.729 183.855 516.944 184.104 516.063L200.569 461.779C200.569 461.765 200.569 461.751 200.569 461.737C200.79 460.964 200.802 460.147 200.603 459.369C200.405 458.59 200.002 457.879 199.437 457.308ZM179.779 514.767L179.765 514.807V514.787L168.432 491.512L182.011 477.936C182.417 477.509 182.64 476.939 182.633 476.349C182.625 475.759 182.388 475.195 181.97 474.778C181.553 474.361 180.989 474.123 180.399 474.116C179.809 474.108 179.239 474.331 178.811 474.738L165.232 488.313L141.941 476.983H141.922H141.961L196.235 460.509L179.779 514.767Z" fill="white"/>
</g>
<g clip-path="url(#clip0_8_2700)">
<g filter="url(#filter12_di_8_2700)">
<path d="M336.064 125.843C342.327 122.227 350.042 122.227 356.305 125.843L475.01 194.377C481.272 197.993 485.13 204.675 485.13 211.906L485.13 348.975C485.13 356.206 481.272 362.888 475.01 366.504L356.305 435.038C350.042 438.654 342.327 438.654 336.064 435.038L217.359 366.504C211.097 362.888 207.239 356.206 207.239 348.975L207.239 211.906C207.239 204.675 211.097 197.993 217.359 194.377L336.064 125.843Z" fill="url(#paint25_linear_8_2700)"/>
<path d="M337.129 127.688C342.557 124.553 349.206 124.455 354.711 127.394L355.24 127.688L473.945 196.222C479.549 199.457 483 205.436 483 211.906L483 348.975C483 355.445 479.549 361.424 473.945 364.659L355.24 433.193C349.637 436.428 342.732 436.428 337.129 433.193L218.424 364.659C212.821 361.424 209.369 355.445 209.369 348.975L209.369 211.906C209.369 205.436 212.821 199.457 218.424 196.222L337.129 127.688Z" stroke="#CFCFCF" stroke-width="4.25948" style="mix-blend-mode:color-dodge"/>
</g>
<path d="M342.444 195.324C342.461 195.964 342.479 196.605 342.497 197.245C342.437 201.481 342.374 205.721 342.305 209.966C342.195 217.762 342.082 225.559 341.967 233.355C341.919 237.005 341.868 240.657 341.815 244.312C341.726 251.719 341.634 259.124 341.54 266.526C341.535 266.948 341.435 267.363 341.246 267.746C336.349 277.944 331.463 288.144 326.589 298.346C326.35 298.777 325.996 299.142 325.561 299.406L296.144 320.169L265.67 341.659C265.395 341.869 265.09 342.041 264.764 342.171C290.712 293.251 316.606 244.302 342.444 195.324Z" fill="white"/>
<path d="M344.411 195.269C347.338 200.056 350.278 204.836 353.191 209.63C378.889 251.916 404.395 294.302 429.709 336.787C429.87 337.027 429.976 337.295 430.02 337.576C429.726 337.404 429.419 337.251 429.132 337.073L380.288 306.679C376.087 304.056 371.869 301.438 367.636 298.825C366.905 298.388 366.309 297.779 365.908 297.059C360.326 287.342 355.043 277.462 349.624 267.676C349.421 267.335 349.298 266.957 349.263 266.567C348.958 262.029 348.625 257.491 348.306 252.947C347.756 245.206 347.21 237.464 346.669 229.723C346.429 226.263 346.181 222.804 345.947 219.337C345.417 211.634 344.89 203.931 344.369 196.228C344.36 195.913 344.2 195.59 344.467 195.286L344.411 195.269Z" fill="white"/>
<path d="M301.948 342.88C302.125 342.6 302.375 342.369 302.673 342.209L345.428 310.952L345.759 310.715C346.522 310.2 346.288 310.05 347.252 310.674L372.283 326.896L391.891 339.637C392.194 339.831 392.483 340.044 392.931 340.35L301.948 342.88Z" fill="#FF6A00"/>
</g>
<defs>
<filter id="filter0_di_8_2700" x="107.538" y="9.73109" width="133.431" height="145.309" filterUnits="userSpaceOnUse" color-interpolation-filters="sRGB">
<feFlood flood-opacity="0" result="BackgroundImageFix"/>
<feColorMatrix in="SourceAlpha" type="matrix" values="0 0 0 0 0 0 0 0 0 0 0 0 0 0 0 0 0 0 127 0" result="hardAlpha"/>
<feOffset/>
<feGaussianBlur stdDeviation="5.21222"/>
<feComposite in2="hardAlpha" operator="out"/>
<feColorMatrix type="matrix" values="0 0 0 0 0 0 0 0 0 0 0 0 0 0 0 0 0 0 0.25 0"/>
<feBlend mode="normal" in2="BackgroundImageFix" result="effect1_dropShadow_8_2700"/>
<feBlend mode="normal" in="SourceGraphic" in2="effect1_dropShadow_8_2700" result="shape"/>
<feColorMatrix in="SourceAlpha" type="matrix" values="0 0 0 0 0 0 0 0 0 0 0 0 0 0 0 0 0 0 127 0" result="hardAlpha"/>
<feOffset/>
<feGaussianBlur stdDeviation="14.7575"/>
<feComposite in2="hardAlpha" operator="arithmetic" k2="-1" k3="1"/>
<feColorMatrix type="matrix" values="0 0 0 0 1 0 0 0 0 1 0 0 0 0 1 0 0 0 0.25 0"/>
<feBlend mode="normal" in2="shape" result="effect2_innerShadow_8_2700"/>
</filter>
<filter id="filter1_di_8_2700" x="110.505" y="23.3087" width="127.495" height="119.396" filterUnits="userSpaceOnUse" color-interpolation-filters="sRGB">
<feFlood flood-opacity="0" result="BackgroundImageFix"/>
<feColorMatrix in="SourceAlpha" type="matrix" values="0 0 0 0 0 0 0 0 0 0 0 0 0 0 0 0 0 0 127 0" result="hardAlpha"/>
<feOffset/>
<feGaussianBlur stdDeviation="5.21222"/>
<feComposite in2="hardAlpha" operator="out"/>
<feColorMatrix type="matrix" values="0 0 0 0 0 0 0 0 0 0 0 0 0 0 0 0 0 0 0.25 0"/>
<feBlend mode="normal" in2="BackgroundImageFix" result="effect1_dropShadow_8_2700"/>
<feBlend mode="normal" in="SourceGraphic" in2="effect1_dropShadow_8_2700" result="shape"/>
<feColorMatrix in="SourceAlpha" type="matrix" values="0 0 0 0 0 0 0 0 0 0 0 0 0 0 0 0 0 0 127 0" result="hardAlpha"/>
<feOffset/>
<feGaussianBlur stdDeviation="14.7575"/>
<feComposite in2="hardAlpha" operator="arithmetic" k2="-1" k3="1"/>
<feColorMatrix type="matrix" values="0 0 0 0 1 0 0 0 0 1 0 0 0 0 1 0 0 0 0.25 0"/>
<feBlend mode="normal" in2="shape" result="effect2_innerShadow_8_2700"/>
</filter>
<filter id="filter2_di_8_2700" x="445.029" y="9.73109" width="133.431" height="145.309" filterUnits="userSpaceOnUse" color-interpolation-filters="sRGB">
<feFlood flood-opacity="0" result="BackgroundImageFix"/>
<feColorMatrix in="SourceAlpha" type="matrix" values="0 0 0 0 0 0 0 0 0 0 0 0 0 0 0 0 0 0 127 0" result="hardAlpha"/>
<feOffset/>
<feGaussianBlur stdDeviation="5.21222"/>
<feComposite in2="hardAlpha" operator="out"/>
<feColorMatrix type="matrix" values="0 0 0 0 0 0 0 0 0 0 0 0 0 0 0 0 0 0 0.25 0"/>
<feBlend mode="normal" in2="BackgroundImageFix" result="effect1_dropShadow_8_2700"/>
<feBlend mode="normal" in="SourceGraphic" in2="effect1_dropShadow_8_2700" result="shape"/>
<feColorMatrix in="SourceAlpha" type="matrix" values="0 0 0 0 0 0 0 0 0 0 0 0 0 0 0 0 0 0 127 0" result="hardAlpha"/>
<feOffset/>
<feGaussianBlur stdDeviation="14.7575"/>
<feComposite in2="hardAlpha" operator="arithmetic" k2="-1" k3="1"/>
<feColorMatrix type="matrix" values="0 0 0 0 1 0 0 0 0 1 0 0 0 0 1 0 0 0 0.25 0"/>
<feBlend mode="normal" in2="shape" result="effect2_innerShadow_8_2700"/>
</filter>
<filter id="filter3_di_8_2700" x="447.995" y="23.3087" width="127.495" height="119.396" filterUnits="userSpaceOnUse" color-interpolation-filters="sRGB">
<feFlood flood-opacity="0" result="BackgroundImageFix"/>
<feColorMatrix in="SourceAlpha" type="matrix" values="0 0 0 0 0 0 0 0 0 0 0 0 0 0 0 0 0 0 127 0" result="hardAlpha"/>
<feOffset/>
<feGaussianBlur stdDeviation="5.21222"/>
<feComposite in2="hardAlpha" operator="out"/>
<feColorMatrix type="matrix" values="0 0 0 0 0 0 0 0 0 0 0 0 0 0 0 0 0 0 0.25 0"/>
<feBlend mode="normal" in2="BackgroundImageFix" result="effect1_dropShadow_8_2700"/>
<feBlend mode="normal" in="SourceGraphic" in2="effect1_dropShadow_8_2700" result="shape"/>
<feColorMatrix in="SourceAlpha" type="matrix" values="0 0 0 0 0 0 0 0 0 0 0 0 0 0 0 0 0 0 127 0" result="hardAlpha"/>
<feOffset/>
<feGaussianBlur stdDeviation="14.7575"/>
<feComposite in2="hardAlpha" operator="arithmetic" k2="-1" k3="1"/>
<feColorMatrix type="matrix" values="0 0 0 0 1 0 0 0 0 1 0 0 0 0 1 0 0 0 0.25 0"/>
<feBlend mode="normal" in2="shape" result="effect2_innerShadow_8_2700"/>
</filter>
<filter id="filter4_di_8_2700" x="523.029" y="210.731" width="133.431" height="145.309" filterUnits="userSpaceOnUse" color-interpolation-filters="sRGB">
<feFlood flood-opacity="0" result="BackgroundImageFix"/>
<feColorMatrix in="SourceAlpha" type="matrix" values="0 0 0 0 0 0 0 0 0 0 0 0 0 0 0 0 0 0 127 0" result="hardAlpha"/>
<feOffset/>
<feGaussianBlur stdDeviation="5.21222"/>
<feComposite in2="hardAlpha" operator="out"/>
<feColorMatrix type="matrix" values="0 0 0 0 0 0 0 0 0 0 0 0 0 0 0 0 0 0 0.25 0"/>
<feBlend mode="normal" in2="BackgroundImageFix" result="effect1_dropShadow_8_2700"/>
<feBlend mode="normal" in="SourceGraphic" in2="effect1_dropShadow_8_2700" result="shape"/>
<feColorMatrix in="SourceAlpha" type="matrix" values="0 0 0 0 0 0 0 0 0 0 0 0 0 0 0 0 0 0 127 0" result="hardAlpha"/>
<feOffset/>
<feGaussianBlur stdDeviation="14.7575"/>
<feComposite in2="hardAlpha" operator="arithmetic" k2="-1" k3="1"/>
<feColorMatrix type="matrix" values="0 0 0 0 1 0 0 0 0 1 0 0 0 0 1 0 0 0 0.25 0"/>
<feBlend mode="normal" in2="shape" result="effect2_innerShadow_8_2700"/>
</filter>
<filter id="filter5_di_8_2700" x="528.98" y="227.293" width="121.526" height="113.427" filterUnits="userSpaceOnUse" color-interpolation-filters="sRGB">
<feFlood flood-opacity="0" result="BackgroundImageFix"/>
<feColorMatrix in="SourceAlpha" type="matrix" values="0 0 0 0 0 0 0 0 0 0 0 0 0 0 0 0 0 0 127 0" result="hardAlpha"/>
<feOffset/>
<feGaussianBlur stdDeviation="3.71999"/>
<feComposite in2="hardAlpha" operator="out"/>
<feColorMatrix type="matrix" values="0 0 0 0 0 0 0 0 0 0 0 0 0 0 0 0 0 0 0.25 0"/>
<feBlend mode="normal" in2="BackgroundImageFix" result="effect1_dropShadow_8_2700"/>
<feBlend mode="normal" in="SourceGraphic" in2="effect1_dropShadow_8_2700" result="shape"/>
<feColorMatrix in="SourceAlpha" type="matrix" values="0 0 0 0 0 0 0 0 0 0 0 0 0 0 0 0 0 0 127 0" result="hardAlpha"/>
<feOffset/>
<feGaussianBlur stdDeviation="10.5325"/>
<feComposite in2="hardAlpha" operator="arithmetic" k2="-1" k3="1"/>
<feColorMatrix type="matrix" values="0 0 0 0 1 0 0 0 0 1 0 0 0 0 1 0 0 0 0.25 0"/>
<feBlend mode="normal" in2="shape" result="effect2_innerShadow_8_2700"/>
</filter>
<filter id="filter6_di_8_2700" x="445.029" y="411.731" width="133.431" height="145.309" filterUnits="userSpaceOnUse" color-interpolation-filters="sRGB">
<feFlood flood-opacity="0" result="BackgroundImageFix"/>
<feColorMatrix in="SourceAlpha" type="matrix" values="0 0 0 0 0 0 0 0 0 0 0 0 0 0 0 0 0 0 127 0" result="hardAlpha"/>
<feOffset/>
<feGaussianBlur stdDeviation="5.21222"/>
<feComposite in2="hardAlpha" operator="out"/>
<feColorMatrix type="matrix" values="0 0 0 0 0 0 0 0 0 0 0 0 0 0 0 0 0 0 0.25 0"/>
<feBlend mode="normal" in2="BackgroundImageFix" result="effect1_dropShadow_8_2700"/>
<feBlend mode="normal" in="SourceGraphic" in2="effect1_dropShadow_8_2700" result="shape"/>
<feColorMatrix in="SourceAlpha" type="matrix" values="0 0 0 0 0 0 0 0 0 0 0 0 0 0 0 0 0 0 127 0" result="hardAlpha"/>
<feOffset/>
<feGaussianBlur stdDeviation="14.7575"/>
<feComposite in2="hardAlpha" operator="arithmetic" k2="-1" k3="1"/>
<feColorMatrix type="matrix" values="0 0 0 0 1 0 0 0 0 1 0 0 0 0 1 0 0 0 0.25 0"/>
<feBlend mode="normal" in2="shape" result="effect2_innerShadow_8_2700"/>
</filter>
<filter id="filter7_di_8_2700" x="447.995" y="425.309" width="127.495" height="119.396" filterUnits="userSpaceOnUse" color-interpolation-filters="sRGB">
<feFlood flood-opacity="0" result="BackgroundImageFix"/>
<feColorMatrix in="SourceAlpha" type="matrix" values="0 0 0 0 0 0 0 0 0 0 0 0 0 0 0 0 0 0 127 0" result="hardAlpha"/>
<feOffset/>
<feGaussianBlur stdDeviation="5.21222"/>
<feComposite in2="hardAlpha" operator="out"/>
<feColorMatrix type="matrix" values="0 0 0 0 0 0 0 0 0 0 0 0 0 0 0 0 0 0 0.25 0"/>
<feBlend mode="normal" in2="BackgroundImageFix" result="effect1_dropShadow_8_2700"/>
<feBlend mode="normal" in="SourceGraphic" in2="effect1_dropShadow_8_2700" result="shape"/>
<feColorMatrix in="SourceAlpha" type="matrix" values="0 0 0 0 0 0 0 0 0 0 0 0 0 0 0 0 0 0 127 0" result="hardAlpha"/>
<feOffset/>
<feGaussianBlur stdDeviation="14.7575"/>
<feComposite in2="hardAlpha" operator="arithmetic" k2="-1" k3="1"/>
<feColorMatrix type="matrix" values="0 0 0 0 1 0 0 0 0 1 0 0 0 0 1 0 0 0 0.25 0"/>
<feBlend mode="normal" in2="shape" result="effect2_innerShadow_8_2700"/>
</filter>
<filter id="filter8_di_8_2700" x="0.284554" y="207.731" width="133.431" height="145.309" filterUnits="userSpaceOnUse" color-interpolation-filters="sRGB">
<feFlood flood-opacity="0" result="BackgroundImageFix"/>
<feColorMatrix in="SourceAlpha" type="matrix" values="0 0 0 0 0 0 0 0 0 0 0 0 0 0 0 0 0 0 127 0" result="hardAlpha"/>
<feOffset/>
<feGaussianBlur stdDeviation="5.21222"/>
<feComposite in2="hardAlpha" operator="out"/>
<feColorMatrix type="matrix" values="0 0 0 0 0 0 0 0 0 0 0 0 0 0 0 0 0 0 0.25 0"/>
<feBlend mode="normal" in2="BackgroundImageFix" result="effect1_dropShadow_8_2700"/>
<feBlend mode="normal" in="SourceGraphic" in2="effect1_dropShadow_8_2700" result="shape"/>
<feColorMatrix in="SourceAlpha" type="matrix" values="0 0 0 0 0 0 0 0 0 0 0 0 0 0 0 0 0 0 127 0" result="hardAlpha"/>
<feOffset/>
<feGaussianBlur stdDeviation="14.7575"/>
<feComposite in2="hardAlpha" operator="arithmetic" k2="-1" k3="1"/>
<feColorMatrix type="matrix" values="0 0 0 0 1 0 0 0 0 1 0 0 0 0 1 0 0 0 0.25 0"/>
<feBlend mode="normal" in2="shape" result="effect2_innerShadow_8_2700"/>
</filter>
<filter id="filter9_di_8_2700" x="3.25135" y="221.309" width="127.495" height="119.396" filterUnits="userSpaceOnUse" color-interpolation-filters="sRGB">
<feFlood flood-opacity="0" result="BackgroundImageFix"/>
<feColorMatrix in="SourceAlpha" type="matrix" values="0 0 0 0 0 0 0 0 0 0 0 0 0 0 0 0 0 0 127 0" result="hardAlpha"/>
<feOffset/>
<feGaussianBlur stdDeviation="5.21222"/>
<feComposite in2="hardAlpha" operator="out"/>
<feColorMatrix type="matrix" values="0 0 0 0 0 0 0 0 0 0 0 0 0 0 0 0 0 0 0.25 0"/>
<feBlend mode="normal" in2="BackgroundImageFix" result="effect1_dropShadow_8_2700"/>
<feBlend mode="normal" in="SourceGraphic" in2="effect1_dropShadow_8_2700" result="shape"/>
<feColorMatrix in="SourceAlpha" type="matrix" values="0 0 0 0 0 0 0 0 0 0 0 0 0 0 0 0 0 0 127 0" result="hardAlpha"/>
<feOffset/>
<feGaussianBlur stdDeviation="14.7575"/>
<feComposite in2="hardAlpha" operator="arithmetic" k2="-1" k3="1"/>
<feColorMatrix type="matrix" values="0 0 0 0 1 0 0 0 0 1 0 0 0 0 1 0 0 0 0.25 0"/>
<feBlend mode="normal" in2="shape" result="effect2_innerShadow_8_2700"/>
</filter>
<filter id="filter10_di_8_2700" x="107.538" y="411.731" width="133.431" height="145.309" filterUnits="userSpaceOnUse" color-interpolation-filters="sRGB">
<feFlood flood-opacity="0" result="BackgroundImageFix"/>
<feColorMatrix in="SourceAlpha" type="matrix" values="0 0 0 0 0 0 0 0 0 0 0 0 0 0 0 0 0 0 127 0" result="hardAlpha"/>
<feOffset/>
<feGaussianBlur stdDeviation="5.21222"/>
<feComposite in2="hardAlpha" operator="out"/>
<feColorMatrix type="matrix" values="0 0 0 0 0 0 0 0 0 0 0 0 0 0 0 0 0 0 0.25 0"/>
<feBlend mode="normal" in2="BackgroundImageFix" result="effect1_dropShadow_8_2700"/>
<feBlend mode="normal" in="SourceGraphic" in2="effect1_dropShadow_8_2700" result="shape"/>
<feColorMatrix in="SourceAlpha" type="matrix" values="0 0 0 0 0 0 0 0 0 0 0 0 0 0 0 0 0 0 127 0" result="hardAlpha"/>
<feOffset/>
<feGaussianBlur stdDeviation="14.7575"/>
<feComposite in2="hardAlpha" operator="arithmetic" k2="-1" k3="1"/>
<feColorMatrix type="matrix" values="0 0 0 0 1 0 0 0 0 1 0 0 0 0 1 0 0 0 0.25 0"/>
<feBlend mode="normal" in2="shape" result="effect2_innerShadow_8_2700"/>
</filter>
<filter id="filter11_di_8_2700" x="105.32" y="427.961" width="127.495" height="119.396" filterUnits="userSpaceOnUse" color-interpolation-filters="sRGB">
<feFlood flood-opacity="0" result="BackgroundImageFix"/>
<feColorMatrix in="SourceAlpha" type="matrix" values="0 0 0 0 0 0 0 0 0 0 0 0 0 0 0 0 0 0 127 0" result="hardAlpha"/>
<feOffset/>
<feGaussianBlur stdDeviation="5.21222"/>
<feComposite in2="hardAlpha" operator="out"/>
<feColorMatrix type="matrix" values="0 0 0 0 0 0 0 0 0 0 0 0 0 0 0 0 0 0 0.25 0"/>
<feBlend mode="normal" in2="BackgroundImageFix" result="effect1_dropShadow_8_2700"/>
<feBlend mode="normal" in="SourceGraphic" in2="effect1_dropShadow_8_2700" result="shape"/>
<feColorMatrix in="SourceAlpha" type="matrix" values="0 0 0 0 0 0 0 0 0 0 0 0 0 0 0 0 0 0 127 0" result="hardAlpha"/>
<feOffset/>
<feGaussianBlur stdDeviation="14.7575"/>
<feComposite in2="hardAlpha" operator="arithmetic" k2="-1" k3="1"/>
<feColorMatrix type="matrix" values="0 0 0 0 1 0 0 0 0 1 0 0 0 0 1 0 0 0 0.25 0"/>
<feBlend mode="normal" in2="shape" result="effect2_innerShadow_8_2700"/>
</filter>
<filter id="filter12_di_8_2700" x="195.454" y="111.347" width="301.462" height="338.188" filterUnits="userSpaceOnUse" color-interpolation-filters="sRGB">
<feFlood flood-opacity="0" result="BackgroundImageFix"/>
<feColorMatrix in="SourceAlpha" type="matrix" values="0 0 0 0 0 0 0 0 0 0 0 0 0 0 0 0 0 0 127 0" result="hardAlpha"/>
<feOffset/>
<feGaussianBlur stdDeviation="5.89228"/>
<feComposite in2="hardAlpha" operator="out"/>
<feColorMatrix type="matrix" values="0 0 0 0 0 0 0 0 0 0 0 0 0 0 0 0 0 0 0.25 0"/>
<feBlend mode="normal" in2="BackgroundImageFix" result="effect1_dropShadow_8_2700"/>
<feBlend mode="normal" in="SourceGraphic" in2="effect1_dropShadow_8_2700" result="shape"/>
<feColorMatrix in="SourceAlpha" type="matrix" values="0 0 0 0 0 0 0 0 0 0 0 0 0 0 0 0 0 0 127 0" result="hardAlpha"/>
<feOffset/>
<feGaussianBlur stdDeviation="22.9302"/>
<feComposite in2="hardAlpha" operator="arithmetic" k2="-1" k3="1"/>
<feColorMatrix type="matrix" values="0 0 0 0 1 0 0 0 0 1 0 0 0 0 1 0 0 0 0.67 0"/>
<feBlend mode="normal" in2="shape" result="effect2_innerShadow_8_2700"/>
</filter>
<linearGradient id="paint0_linear_8_2700" x1="339.744" y1="0" x2="339.744" y2="565" gradientUnits="userSpaceOnUse">
<stop stop-color="white"/>
<stop offset="0.316" stop-color="#999999" stop-opacity="0.01"/>
<stop offset="0.481" stop-color="#999999" stop-opacity="0.01"/>
<stop offset="0.661" stop-color="#999999" stop-opacity="0.01"/>
<stop offset="1" stop-color="white"/>
</linearGradient>
<linearGradient id="paint1_linear_8_2700" x1="101.058" y1="67.7176" x2="247.74" y2="67.7176" gradientUnits="userSpaceOnUse">
<stop stop-color="#FF5900"/>
<stop offset="1"/>
</linearGradient>
<linearGradient id="paint2_linear_8_2700" x1="236.299" y1="138.474" x2="97.6439" y2="121.35" gradientUnits="userSpaceOnUse">
<stop/>
<stop offset="1" stop-color="#2B2B2B"/>
</linearGradient>
<linearGradient id="paint3_linear_8_2700" x1="186.269" y1="82.3858" x2="260.366" y2="93.0869" gradientUnits="userSpaceOnUse">
<stop stop-color="white" stop-opacity="0"/>
<stop offset="1" stop-color="#999999"/>
</linearGradient>
<linearGradient id="paint4_linear_8_2700" x1="150.027" y1="90.7728" x2="90.6565" y2="81.1614" gradientUnits="userSpaceOnUse">
<stop stop-color="white" stop-opacity="0"/>
<stop offset="1" stop-color="#999999"/>
</linearGradient>
<linearGradient id="paint5_linear_8_2700" x1="438.548" y1="67.7176" x2="585.23" y2="67.7176" gradientUnits="userSpaceOnUse">
<stop stop-color="#FF5900"/>
<stop offset="1"/>
</linearGradient>
<linearGradient id="paint6_linear_8_2700" x1="573.79" y1="138.474" x2="435.134" y2="121.35" gradientUnits="userSpaceOnUse">
<stop/>
<stop offset="1" stop-color="#2B2B2B"/>
</linearGradient>
<linearGradient id="paint7_linear_8_2700" x1="523.759" y1="82.3858" x2="597.857" y2="93.0869" gradientUnits="userSpaceOnUse">
<stop stop-color="white" stop-opacity="0"/>
<stop offset="1" stop-color="#999999"/>
</linearGradient>
<linearGradient id="paint8_linear_8_2700" x1="487.517" y1="90.7728" x2="428.147" y2="81.1614" gradientUnits="userSpaceOnUse">
<stop stop-color="white" stop-opacity="0"/>
<stop offset="1" stop-color="#999999"/>
</linearGradient>
<linearGradient id="paint9_linear_8_2700" x1="516.548" y1="268.718" x2="663.23" y2="268.718" gradientUnits="userSpaceOnUse">
<stop stop-color="#FF5900"/>
<stop offset="1"/>
</linearGradient>
<linearGradient id="paint10_linear_8_2700" x1="651.79" y1="339.474" x2="513.134" y2="322.35" gradientUnits="userSpaceOnUse">
<stop/>
<stop offset="1" stop-color="#2B2B2B"/>
</linearGradient>
<linearGradient id="paint11_linear_8_2700" x1="601.759" y1="283.386" x2="675.857" y2="294.087" gradientUnits="userSpaceOnUse">
<stop stop-color="white" stop-opacity="0"/>
<stop offset="1" stop-color="#999999"/>
</linearGradient>
<linearGradient id="paint12_linear_8_2700" x1="565.517" y1="291.773" x2="506.147" y2="282.161" gradientUnits="userSpaceOnUse">
<stop stop-color="white" stop-opacity="0"/>
<stop offset="1" stop-color="#999999"/>
</linearGradient>
<linearGradient id="paint13_linear_8_2700" x1="438.548" y1="469.718" x2="585.23" y2="469.718" gradientUnits="userSpaceOnUse">
<stop stop-color="#FF5900"/>
<stop offset="1"/>
</linearGradient>
<linearGradient id="paint14_linear_8_2700" x1="573.79" y1="540.474" x2="435.134" y2="523.35" gradientUnits="userSpaceOnUse">
<stop/>
<stop offset="1" stop-color="#2B2B2B"/>
</linearGradient>
<linearGradient id="paint15_linear_8_2700" x1="523.759" y1="484.386" x2="597.857" y2="495.087" gradientUnits="userSpaceOnUse">
<stop stop-color="white" stop-opacity="0"/>
<stop offset="1" stop-color="#999999"/>
</linearGradient>
<linearGradient id="paint16_linear_8_2700" x1="487.517" y1="492.773" x2="428.147" y2="483.161" gradientUnits="userSpaceOnUse">
<stop stop-color="white" stop-opacity="0"/>
<stop offset="1" stop-color="#999999"/>
</linearGradient>
<linearGradient id="paint17_linear_8_2700" x1="-6.19578" y1="265.718" x2="140.486" y2="265.718" gradientUnits="userSpaceOnUse">
<stop stop-color="#FF5900"/>
<stop offset="1"/>
</linearGradient>
<linearGradient id="paint18_linear_8_2700" x1="129.045" y1="336.474" x2="-9.60999" y2="319.35" gradientUnits="userSpaceOnUse">
<stop/>
<stop offset="1" stop-color="#2B2B2B"/>
</linearGradient>
<linearGradient id="paint19_linear_8_2700" x1="79.0151" y1="280.386" x2="153.112" y2="291.087" gradientUnits="userSpaceOnUse">
<stop stop-color="white" stop-opacity="0"/>
<stop offset="1" stop-color="#999999"/>
</linearGradient>
<linearGradient id="paint20_linear_8_2700" x1="42.7727" y1="288.773" x2="-16.5974" y2="279.161" gradientUnits="userSpaceOnUse">
<stop stop-color="white" stop-opacity="0"/>
<stop offset="1" stop-color="#999999"/>
</linearGradient>
<linearGradient id="paint21_linear_8_2700" x1="101.058" y1="469.718" x2="247.74" y2="469.718" gradientUnits="userSpaceOnUse">
<stop stop-color="#FF5900"/>
<stop offset="1"/>
</linearGradient>
<linearGradient id="paint22_linear_8_2700" x1="236.299" y1="540.474" x2="97.6439" y2="523.35" gradientUnits="userSpaceOnUse">
<stop/>
<stop offset="1" stop-color="#2B2B2B"/>
</linearGradient>
<linearGradient id="paint23_linear_8_2700" x1="186.269" y1="484.386" x2="260.366" y2="495.087" gradientUnits="userSpaceOnUse">
<stop stop-color="white" stop-opacity="0"/>
<stop offset="1" stop-color="#999999"/>
</linearGradient>
<linearGradient id="paint24_linear_8_2700" x1="150.027" y1="492.773" x2="90.6565" y2="483.161" gradientUnits="userSpaceOnUse">
<stop stop-color="white" stop-opacity="0"/>
<stop offset="1" stop-color="#999999"/>
</linearGradient>
<linearGradient id="paint25_linear_8_2700" x1="224.789" y1="110.771" x2="377.421" y2="362.79" gradientUnits="userSpaceOnUse">
<stop stop-color="#474747"/>
<stop offset="1"/>
</linearGradient>
<clipPath id="clip0_8_2700">
<rect width="320.881" height="320.881" fill="white" transform="translate(185.744 120)"/>
</clipPath>
</defs>
</svg>
