<svg width="23" height="11" viewBox="0 0 23 11" fill="none" xmlns="http://www.w3.org/2000/svg">
<path d="M13.7663 1.91046L5.36628 10.1605C5.226 10.2984 5.03712 10.3758 4.84035 10.3758C4.64358 10.3758 4.45469 10.2984 4.31441 10.1605L0.714409 6.62514C0.644172 6.55608 0.588227 6.47385 0.549768 6.38316C0.511308 6.29248 0.491088 6.1951 0.490261 6.0966C0.489434 5.9981 0.508016 5.90039 0.544948 5.80907C0.581879 5.71775 0.636436 5.6346 0.705503 5.56436C0.77457 5.49413 0.856795 5.43818 0.947483 5.39972C1.03817 5.36126 1.13555 5.34104 1.23405 5.34021C1.33255 5.33939 1.43025 5.35797 1.52157 5.3949C1.61289 5.43183 1.69605 5.48639 1.76628 5.55546L4.84035 8.57421L12.7153 0.839831C12.8573 0.700344 13.0489 0.622968 13.2479 0.624726C13.3465 0.625597 13.4439 0.645869 13.5346 0.684385C13.6253 0.722901 13.7075 0.778907 13.7766 0.849206C13.8457 0.919504 13.9002 1.00272 13.9371 1.0941C13.974 1.18547 13.9926 1.28323 13.9917 1.38177C13.9908 1.48032 13.9706 1.57773 13.932 1.66844C13.8935 1.75915 13.8366 1.84139 13.7663 1.91046ZM22.7757 0.849206C22.7066 0.778855 22.6244 0.722802 22.5337 0.684252C22.443 0.645702 22.3455 0.625412 22.247 0.624541C22.1484 0.62367 22.0506 0.642236 21.9593 0.679177C21.8679 0.716118 21.7847 0.77071 21.7144 0.839831L13.8394 8.57421L12.0741 6.83983C11.9321 6.70047 11.7406 6.62321 11.5417 6.62506C11.3427 6.6269 11.1527 6.7077 11.0133 6.84968C10.874 6.99165 10.7967 7.18317 10.7985 7.3821C10.8004 7.58104 10.8812 7.77109 11.0232 7.91046L13.3135 10.1605C13.4538 10.2984 13.6426 10.3758 13.8394 10.3758C14.0362 10.3758 14.2251 10.2984 14.3653 10.1605L22.7653 1.91046C22.8358 1.84148 22.8919 1.7593 22.9305 1.66862C22.9691 1.57794 22.9895 1.48053 22.9905 1.38197C22.9914 1.28341 22.973 1.18562 22.9361 1.0942C22.8992 1.00279 22.8447 0.919536 22.7757 0.849206Z" fill="#FF6A00"/>
</svg>
