<svg width="735" height="131" viewBox="0 0 735 131" fill="none" xmlns="http://www.w3.org/2000/svg">
<g filter="url(#filter0_bdi_4430_1920)">
<rect x="28" y="23" width="679" height="75" rx="31.1311" fill="url(#paint0_linear_4430_1920)" fill-opacity="0.22" shape-rendering="crispEdges"/>
<rect x="28" y="23" width="679" height="75" rx="31.1311" fill="url(#paint1_linear_4430_1920)" shape-rendering="crispEdges"/>
<rect x="28.5" y="23.5" width="678" height="74" rx="30.6311" stroke="url(#paint2_linear_4430_1920)" shape-rendering="crispEdges"/>
</g>
<path d="M662.5 32C646.76 32 634 44.7598 634 60.4999C634 76.24 646.76 88.9998 662.5 88.9998C678.24 88.9998 691 76.24 691 60.4999C691 44.7598 678.24 32 662.5 32Z" fill="#F16C4F"/>
<path d="M680.104 52.4994V47.0536C680.104 45.871 679.087 44.8335 677.929 44.8335H671.308C670.15 44.8335 669.134 45.871 669.134 47.0536V59.7478C669.134 60.9299 670.149 61.9667 671.306 61.9667L675.988 61.9657V72.0489H673.004V66.132L669.134 66.1388V73.9741C669.134 75.1412 670.15 76.1647 671.308 76.1647H677.929C679.087 76.1647 680.104 75.1141 680.104 73.9164V60.3998C680.104 59.2523 679.1 57.8507 677.929 57.8507L673.004 57.8495V48.9495H675.988V52.4994H680.104Z" fill="white"/>
<path fill-rule="evenodd" clip-rule="evenodd" d="M665.417 76.1664H658.647C657.465 76.1664 656.428 75.1482 656.428 73.9875V47.1261C656.428 45.927 657.457 44.835 658.587 44.835H665.417C666.599 44.835 667.635 45.8658 667.635 47.0409V52.5009H663.519V48.9511H660.535V57.851H665.417C666.599 57.851 667.635 58.8823 667.635 60.0581V73.932C667.635 75.1222 666.599 76.1664 665.417 76.1664ZM663.52 61.967H660.537V72.0503H663.52V61.967Z" fill="white"/>
<path d="M652.562 57.851V61.967H649.012V76.1663H644.896V44.835H654.928V48.9511H649.012V57.851H652.562Z" fill="white"/>
<path d="M65.216 39.76H69.952L58.784 82H54.048L65.216 39.76ZM77.728 39.76H82.432L71.264 82H66.56L77.728 39.76ZM56.288 51.536H84.992L83.584 56.144H54.88L56.288 51.536ZM52.96 65.552H81.664L80.256 70.16H51.552L52.96 65.552ZM97.541 48.208L90.405 52.176V45.68L100.741 39.76H104.293V82H97.541V48.208Z" fill="#F16C4F"/>
<path d="M155.9 39.614H151.266V36.52H164.02V39.614H159.4V55H155.9V39.614ZM169.797 55.336C168.575 55.336 167.483 55.0747 166.521 54.552C165.569 54.0293 164.823 53.3153 164.281 52.41C163.74 51.4953 163.469 50.4547 163.469 49.288C163.469 48.1213 163.74 47.0807 164.281 46.166C164.823 45.242 165.569 44.514 166.521 43.982C167.483 43.4407 168.575 43.17 169.797 43.17C171.029 43.17 172.117 43.4407 173.059 43.982C174.002 44.514 174.739 45.242 175.271 46.166C175.803 47.0807 176.069 48.1213 176.069 49.288C176.069 50.4547 175.803 51.4953 175.271 52.41C174.739 53.3153 174.002 54.0293 173.059 54.552C172.117 55.0747 171.029 55.336 169.797 55.336ZM169.797 52.382C170.385 52.382 170.894 52.2513 171.323 51.99C171.762 51.7193 172.098 51.3507 172.331 50.884C172.574 50.408 172.695 49.8713 172.695 49.274C172.695 48.6767 172.574 48.14 172.331 47.664C172.098 47.188 171.762 46.8147 171.323 46.544C170.894 46.264 170.385 46.124 169.797 46.124C169.209 46.124 168.696 46.264 168.257 46.544C167.828 46.8147 167.492 47.188 167.249 47.664C167.007 48.14 166.885 48.6767 166.885 49.274C166.885 49.8713 167.007 50.408 167.249 50.884C167.492 51.3507 167.828 51.7193 168.257 51.99C168.696 52.2513 169.209 52.382 169.797 52.382ZM181.984 60.824H178.456V43.506H182.026V45.368C182.138 45.0973 182.381 44.7893 182.754 44.444C183.127 44.0987 183.613 43.8 184.21 43.548C184.817 43.296 185.507 43.17 186.282 43.17C187.374 43.17 188.326 43.436 189.138 43.968C189.95 44.5 190.575 45.228 191.014 46.152C191.462 47.0667 191.686 48.1027 191.686 49.26C191.686 50.4173 191.453 51.458 190.986 52.382C190.519 53.2967 189.871 54.02 189.04 54.552C188.209 55.0747 187.243 55.336 186.142 55.336C185.311 55.336 184.597 55.1867 184 54.888C183.403 54.5893 182.936 54.2533 182.6 53.88C182.264 53.5067 182.059 53.2127 181.984 52.998V60.824ZM188.2 49.26C188.2 48.616 188.06 48.0513 187.78 47.566C187.509 47.0713 187.145 46.6887 186.688 46.418C186.231 46.138 185.722 45.998 185.162 45.998C184.574 45.998 184.042 46.138 183.566 46.418C183.09 46.698 182.712 47.0853 182.432 47.58C182.161 48.0653 182.026 48.6253 182.026 49.26C182.026 49.8947 182.161 50.4593 182.432 50.954C182.712 51.4393 183.09 51.822 183.566 52.102C184.042 52.3727 184.574 52.508 185.162 52.508C185.722 52.508 186.231 52.3727 186.688 52.102C187.145 51.8313 187.509 51.4533 187.78 50.968C188.06 50.4733 188.2 49.904 188.2 49.26ZM209.731 44.78H219.111V45.886C219.111 47.202 218.887 48.434 218.439 49.582C218.001 50.7207 217.371 51.724 216.549 52.592C215.728 53.4507 214.753 54.1227 213.623 54.608C212.503 55.0933 211.267 55.336 209.913 55.336C208.523 55.336 207.253 55.0887 206.105 54.594C204.957 54.0993 203.968 53.4133 203.137 52.536C202.307 51.6587 201.663 50.6413 201.205 49.484C200.757 48.3173 200.533 47.0713 200.533 45.746C200.533 44.43 200.757 43.1933 201.205 42.036C201.663 40.8693 202.307 39.852 203.137 38.984C203.968 38.1067 204.957 37.4207 206.105 36.926C207.253 36.4313 208.523 36.184 209.913 36.184C210.987 36.184 211.943 36.3007 212.783 36.534C213.623 36.7673 214.356 37.0847 214.981 37.486C215.616 37.878 216.162 38.3167 216.619 38.802C217.086 39.278 217.473 39.7587 217.781 40.244L214.505 41.84C214.057 41.1867 213.46 40.6267 212.713 40.16C211.976 39.6933 211.043 39.46 209.913 39.46C209.073 39.46 208.299 39.628 207.589 39.964C206.889 40.2907 206.283 40.7433 205.769 41.322C205.265 41.9007 204.873 42.5727 204.593 43.338C204.313 44.094 204.173 44.8967 204.173 45.746C204.173 46.6047 204.313 47.412 204.593 48.168C204.873 48.924 205.265 49.596 205.769 50.184C206.283 50.7627 206.889 51.2153 207.589 51.542C208.299 51.8687 209.073 52.032 209.913 52.032C210.679 52.032 211.374 51.92 211.999 51.696C212.625 51.472 213.166 51.1547 213.623 50.744C214.09 50.3333 214.459 49.8527 214.729 49.302C215 48.742 215.154 48.14 215.191 47.496H209.731V44.78ZM224.278 50.044C224.306 50.5667 224.446 51.0333 224.698 51.444C224.95 51.8547 225.314 52.1767 225.79 52.41C226.275 52.6433 226.854 52.76 227.526 52.76C228.132 52.76 228.664 52.6853 229.122 52.536C229.588 52.3867 229.98 52.2047 230.298 51.99C230.624 51.766 230.867 51.5513 231.026 51.346L232.496 53.53C232.234 53.8567 231.884 54.16 231.446 54.44C231.016 54.7107 230.466 54.9253 229.794 55.084C229.131 55.252 228.3 55.336 227.302 55.336C226.042 55.336 224.936 55.0887 223.984 54.594C223.032 54.0993 222.29 53.3853 221.758 52.452C221.226 51.5187 220.96 50.408 220.96 49.12C220.96 48 221.198 46.992 221.674 46.096C222.15 45.1907 222.84 44.4767 223.746 43.954C224.66 43.4313 225.757 43.17 227.036 43.17C228.24 43.17 229.28 43.4033 230.158 43.87C231.044 44.3273 231.73 44.9993 232.216 45.886C232.701 46.7727 232.944 47.8553 232.944 49.134C232.944 49.2087 232.939 49.3627 232.93 49.596C232.93 49.82 232.92 49.9693 232.902 50.044H224.278ZM229.612 47.846C229.602 47.5473 229.509 47.2253 229.332 46.88C229.164 46.5347 228.898 46.2407 228.534 45.998C228.17 45.7553 227.684 45.634 227.078 45.634C226.471 45.634 225.972 45.7507 225.58 45.984C225.197 46.2173 224.908 46.5067 224.712 46.852C224.516 47.188 224.404 47.5193 224.376 47.846H229.612ZM242.667 43.17C243.451 43.17 244.216 43.3333 244.963 43.66C245.71 43.9773 246.321 44.486 246.797 45.186C247.282 45.886 247.525 46.8007 247.525 47.93V55H243.955V48.546C243.955 47.6033 243.731 46.9033 243.283 46.446C242.844 45.9887 242.266 45.76 241.547 45.76C241.08 45.76 240.632 45.8907 240.203 46.152C239.783 46.404 239.438 46.7587 239.167 47.216C238.906 47.664 238.775 48.1773 238.775 48.756V55H235.219V43.506H238.775V45.34C238.878 45.0227 239.111 44.696 239.475 44.36C239.839 44.024 240.301 43.744 240.861 43.52C241.421 43.2867 242.023 43.17 242.667 43.17ZM252.934 50.044C252.962 50.5667 253.102 51.0333 253.354 51.444C253.606 51.8547 253.97 52.1767 254.446 52.41C254.931 52.6433 255.51 52.76 256.182 52.76C256.789 52.76 257.321 52.6853 257.778 52.536C258.245 52.3867 258.637 52.2047 258.954 51.99C259.281 51.766 259.523 51.5513 259.682 51.346L261.152 53.53C260.891 53.8567 260.541 54.16 260.102 54.44C259.673 54.7107 259.122 54.9253 258.45 55.084C257.787 55.252 256.957 55.336 255.958 55.336C254.698 55.336 253.592 55.0887 252.64 54.594C251.688 54.0993 250.946 53.3853 250.414 52.452C249.882 51.5187 249.616 50.408 249.616 49.12C249.616 48 249.854 46.992 250.33 46.096C250.806 45.1907 251.497 44.4767 252.402 43.954C253.317 43.4313 254.413 43.17 255.692 43.17C256.896 43.17 257.937 43.4033 258.814 43.87C259.701 44.3273 260.387 44.9993 260.872 45.886C261.357 46.7727 261.6 47.8553 261.6 49.134C261.6 49.2087 261.595 49.3627 261.586 49.596C261.586 49.82 261.577 49.9693 261.558 50.044H252.934ZM258.268 47.846C258.259 47.5473 258.165 47.2253 257.988 46.88C257.82 46.5347 257.554 46.2407 257.19 45.998C256.826 45.7553 256.341 45.634 255.734 45.634C255.127 45.634 254.628 45.7507 254.236 45.984C253.853 46.2173 253.564 46.5067 253.368 46.852C253.172 47.188 253.06 47.5193 253.032 47.846H258.268ZM267.305 55H263.749V43.506H267.305V45.368H267.235C267.301 45.144 267.478 44.8593 267.767 44.514C268.066 44.1687 268.477 43.8607 268.999 43.59C269.522 43.31 270.152 43.17 270.889 43.17C271.421 43.17 271.902 43.2493 272.331 43.408C272.77 43.5573 273.083 43.7067 273.269 43.856L271.869 46.768C271.748 46.6187 271.519 46.4647 271.183 46.306C270.857 46.1473 270.446 46.068 269.951 46.068C269.363 46.068 268.873 46.2313 268.481 46.558C268.089 46.8753 267.795 47.2673 267.599 47.734C267.403 48.1913 267.305 48.6207 267.305 49.022V55ZM283.367 55V52.998C283.283 53.2033 283.068 53.4927 282.723 53.866C282.378 54.2393 281.911 54.58 281.323 54.888C280.744 55.1867 280.063 55.336 279.279 55.336C278.178 55.336 277.202 55.0747 276.353 54.552C275.504 54.02 274.836 53.2967 274.351 52.382C273.875 51.458 273.637 50.4173 273.637 49.26C273.637 48.1027 273.875 47.0667 274.351 46.152C274.836 45.228 275.504 44.5 276.353 43.968C277.202 43.436 278.178 43.17 279.279 43.17C280.044 43.17 280.707 43.3007 281.267 43.562C281.836 43.814 282.294 44.1127 282.639 44.458C282.994 44.794 283.222 45.0973 283.325 45.368V43.506H286.853V55H283.367ZM277.123 49.26C277.123 49.904 277.268 50.4733 277.557 50.968C277.846 51.4533 278.229 51.8313 278.705 52.102C279.181 52.3727 279.699 52.508 280.259 52.508C280.847 52.508 281.37 52.3727 281.827 52.102C282.284 51.822 282.644 51.4393 282.905 50.954C283.176 50.4593 283.311 49.8947 283.311 49.26C283.311 48.6253 283.176 48.0653 282.905 47.58C282.644 47.0853 282.284 46.698 281.827 46.418C281.37 46.138 280.847 45.998 280.259 45.998C279.699 45.998 279.181 46.138 278.705 46.418C278.229 46.6887 277.846 47.0713 277.557 47.566C277.268 48.0513 277.123 48.616 277.123 49.26ZM288.792 43.506H290.864V38.788H294.392V43.506H297.108V46.46H294.392V50.618C294.392 51.1687 294.481 51.598 294.658 51.906C294.836 52.2047 295.116 52.354 295.498 52.354C295.788 52.354 296.026 52.298 296.212 52.186C296.399 52.0647 296.511 51.9807 296.548 51.934L297.808 54.482C297.752 54.538 297.57 54.636 297.262 54.776C296.964 54.916 296.576 55.042 296.1 55.154C295.634 55.2753 295.106 55.336 294.518 55.336C293.464 55.336 292.591 55.0327 291.9 54.426C291.21 53.81 290.864 52.858 290.864 51.57V46.46H288.792V43.506ZM299.785 55V43.506H303.327V55H299.785ZM301.605 40.538C301.017 40.538 300.517 40.3327 300.107 39.922C299.705 39.5113 299.505 39.0213 299.505 38.452C299.505 37.8827 299.71 37.388 300.121 36.968C300.531 36.548 301.026 36.338 301.605 36.338C301.987 36.338 302.337 36.436 302.655 36.632C302.972 36.8187 303.229 37.0707 303.425 37.388C303.621 37.7053 303.719 38.06 303.719 38.452C303.719 39.0213 303.509 39.5113 303.089 39.922C302.678 40.3327 302.183 40.538 301.605 40.538ZM305.483 43.506H309.291L312.441 51.752L315.591 43.506H319.385L314.527 55H310.355L305.483 43.506ZM323.973 50.044C324.001 50.5667 324.141 51.0333 324.393 51.444C324.645 51.8547 325.009 52.1767 325.485 52.41C325.97 52.6433 326.549 52.76 327.221 52.76C327.828 52.76 328.36 52.6853 328.817 52.536C329.284 52.3867 329.676 52.2047 329.993 51.99C330.32 51.766 330.562 51.5513 330.721 51.346L332.191 53.53C331.93 53.8567 331.58 54.16 331.141 54.44C330.712 54.7107 330.161 54.9253 329.489 55.084C328.826 55.252 327.996 55.336 326.997 55.336C325.737 55.336 324.631 55.0887 323.679 54.594C322.727 54.0993 321.985 53.3853 321.453 52.452C320.921 51.5187 320.655 50.408 320.655 49.12C320.655 48 320.893 46.992 321.369 46.096C321.845 45.1907 322.536 44.4767 323.441 43.954C324.356 43.4313 325.452 43.17 326.731 43.17C327.935 43.17 328.976 43.4033 329.853 43.87C330.74 44.3273 331.426 44.9993 331.911 45.886C332.396 46.7727 332.639 47.8553 332.639 49.134C332.639 49.2087 332.634 49.3627 332.625 49.596C332.625 49.82 332.616 49.9693 332.597 50.044H323.973ZM329.307 47.846C329.298 47.5473 329.204 47.2253 329.027 46.88C328.859 46.5347 328.593 46.2407 328.229 45.998C327.865 45.7553 327.38 45.634 326.773 45.634C326.166 45.634 325.667 45.7507 325.275 45.984C324.892 46.2173 324.603 46.5067 324.407 46.852C324.211 47.188 324.099 47.5193 324.071 47.846H329.307ZM348.138 36.52H351.652L358.764 55H355.04L353.598 51.01H346.206L344.736 55H340.998L348.138 36.52ZM347.354 47.916H352.45L349.916 40.748H349.874L347.354 47.916ZM360.625 36.52H364.125V55H360.625V36.52ZM381.25 36.184C382.361 36.184 383.327 36.31 384.148 36.562C384.979 36.8047 385.637 37.066 386.122 37.346C386.617 37.626 386.915 37.808 387.018 37.892L385.31 40.734C385.161 40.6127 384.904 40.4447 384.54 40.23C384.185 40.006 383.756 39.81 383.252 39.642C382.748 39.4647 382.202 39.376 381.614 39.376C380.765 39.376 380.083 39.5393 379.57 39.866C379.066 40.1833 378.814 40.6453 378.814 41.252C378.814 41.6627 378.949 42.0313 379.22 42.358C379.491 42.6753 379.887 42.974 380.41 43.254C380.942 43.534 381.591 43.828 382.356 44.136C383.028 44.3973 383.667 44.7007 384.274 45.046C384.89 45.3913 385.436 45.7973 385.912 46.264C386.397 46.7307 386.78 47.272 387.06 47.888C387.349 48.504 387.494 49.2087 387.494 50.002C387.494 50.8887 387.312 51.6633 386.948 52.326C386.593 52.9887 386.099 53.544 385.464 53.992C384.839 54.44 384.12 54.776 383.308 55C382.496 55.224 381.642 55.336 380.746 55.336C379.533 55.336 378.441 55.196 377.47 54.916C376.509 54.6267 375.729 54.3187 375.132 53.992C374.535 53.6653 374.185 53.4553 374.082 53.362L375.874 50.408C375.986 50.492 376.196 50.6273 376.504 50.814C376.821 51.0007 377.204 51.192 377.652 51.388C378.109 51.584 378.604 51.752 379.136 51.892C379.677 52.032 380.228 52.102 380.788 52.102C381.796 52.102 382.557 51.892 383.07 51.472C383.583 51.052 383.84 50.506 383.84 49.834C383.84 49.33 383.677 48.8867 383.35 48.504C383.023 48.1213 382.561 47.7713 381.964 47.454C381.376 47.1273 380.671 46.796 379.85 46.46C379.029 46.1147 378.263 45.7133 377.554 45.256C376.854 44.7893 376.289 44.22 375.86 43.548C375.431 42.8667 375.216 42.0313 375.216 41.042C375.216 40.062 375.491 39.208 376.042 38.48C376.602 37.752 377.339 37.1873 378.254 36.786C379.178 36.3847 380.177 36.184 381.25 36.184ZM389.226 43.506H391.298V38.788H394.826V43.506H397.542V46.46H394.826V50.618C394.826 51.1687 394.915 51.598 395.092 51.906C395.269 52.2047 395.549 52.354 395.932 52.354C396.221 52.354 396.459 52.298 396.646 52.186C396.833 52.0647 396.945 51.9807 396.982 51.934L398.242 54.482C398.186 54.538 398.004 54.636 397.696 54.776C397.397 54.916 397.01 55.042 396.534 55.154C396.067 55.2753 395.54 55.336 394.952 55.336C393.897 55.336 393.025 55.0327 392.334 54.426C391.643 53.81 391.298 52.858 391.298 51.57V46.46H389.226V43.506ZM409.066 55V52.998C408.982 53.2033 408.768 53.4927 408.422 53.866C408.077 54.2393 407.61 54.58 407.022 54.888C406.444 55.1867 405.762 55.336 404.978 55.336C403.877 55.336 402.902 55.0747 402.052 54.552C401.203 54.02 400.536 53.2967 400.05 52.382C399.574 51.458 399.336 50.4173 399.336 49.26C399.336 48.1027 399.574 47.0667 400.05 46.152C400.536 45.228 401.203 44.5 402.052 43.968C402.902 43.436 403.877 43.17 404.978 43.17C405.744 43.17 406.406 43.3007 406.966 43.562C407.536 43.814 407.993 44.1127 408.338 44.458C408.693 44.794 408.922 45.0973 409.024 45.368V43.506H412.552V55H409.066ZM402.822 49.26C402.822 49.904 402.967 50.4733 403.256 50.968C403.546 51.4533 403.928 51.8313 404.404 52.102C404.88 52.3727 405.398 52.508 405.958 52.508C406.546 52.508 407.069 52.3727 407.526 52.102C407.984 51.822 408.343 51.4393 408.604 50.954C408.875 50.4593 409.01 49.8947 409.01 49.26C409.01 48.6253 408.875 48.0653 408.604 47.58C408.343 47.0853 407.984 46.698 407.526 46.418C407.069 46.138 406.546 45.998 405.958 45.998C405.398 45.998 404.88 46.138 404.404 46.418C403.928 46.6887 403.546 47.0713 403.256 47.566C402.967 48.0513 402.822 48.616 402.822 49.26ZM418.79 55H415.234V43.506H418.79V45.368H418.72C418.785 45.144 418.962 44.8593 419.252 44.514C419.55 44.1687 419.961 43.8607 420.484 43.59C421.006 43.31 421.636 43.17 422.374 43.17C422.906 43.17 423.386 43.2493 423.816 43.408C424.254 43.5573 424.567 43.7067 424.754 43.856L423.354 46.768C423.232 46.6187 423.004 46.4647 422.668 46.306C422.341 46.1473 421.93 46.068 421.436 46.068C420.848 46.068 420.358 46.2313 419.966 46.558C419.574 46.8753 419.28 47.2673 419.084 47.734C418.888 48.1913 418.79 48.6207 418.79 49.022V55ZM425.374 43.506H427.446V38.788H430.974V43.506H433.69V46.46H430.974V50.618C430.974 51.1687 431.063 51.598 431.24 51.906C431.418 52.2047 431.698 52.354 432.08 52.354C432.37 52.354 432.608 52.298 432.794 52.186C432.981 52.0647 433.093 51.9807 433.13 51.934L434.39 54.482C434.334 54.538 434.152 54.636 433.844 54.776C433.546 54.916 433.158 55.042 432.682 55.154C432.216 55.2753 431.688 55.336 431.1 55.336C430.046 55.336 429.173 55.0327 428.482 54.426C427.792 53.81 427.446 52.858 427.446 51.57V46.46H425.374V43.506ZM439.531 49.008C439.531 50.0347 439.736 50.856 440.147 51.472C440.557 52.0787 441.22 52.382 442.135 52.382C443.059 52.382 443.726 52.0787 444.137 51.472C444.547 50.856 444.753 50.0347 444.753 49.008V43.506H448.253V49.414C448.253 50.5993 448.015 51.64 447.539 52.536C447.063 53.4227 446.367 54.1133 445.453 54.608C444.547 55.0933 443.441 55.336 442.135 55.336C440.837 55.336 439.731 55.0933 438.817 54.608C437.911 54.1133 437.221 53.4227 436.745 52.536C436.269 51.64 436.031 50.5993 436.031 49.414V43.506H439.531V49.008ZM454.656 60.824H451.128V43.506H454.698V45.368C454.81 45.0973 455.053 44.7893 455.426 44.444C455.799 44.0987 456.285 43.8 456.882 43.548C457.489 43.296 458.179 43.17 458.954 43.17C460.046 43.17 460.998 43.436 461.81 43.968C462.622 44.5 463.247 45.228 463.686 46.152C464.134 47.0667 464.358 48.1027 464.358 49.26C464.358 50.4173 464.125 51.458 463.658 52.382C463.191 53.2967 462.543 54.02 461.712 54.552C460.881 55.0747 459.915 55.336 458.814 55.336C457.983 55.336 457.269 55.1867 456.672 54.888C456.075 54.5893 455.608 54.2533 455.272 53.88C454.936 53.5067 454.731 53.2127 454.656 52.998V60.824ZM460.872 49.26C460.872 48.616 460.732 48.0513 460.452 47.566C460.181 47.0713 459.817 46.6887 459.36 46.418C458.903 46.138 458.394 45.998 457.834 45.998C457.246 45.998 456.714 46.138 456.238 46.418C455.762 46.698 455.384 47.0853 455.104 47.58C454.833 48.0653 454.698 48.6253 454.698 49.26C454.698 49.8947 454.833 50.4593 455.104 50.954C455.384 51.4393 455.762 51.822 456.238 52.102C456.714 52.3727 457.246 52.508 457.834 52.508C458.394 52.508 458.903 52.3727 459.36 52.102C459.817 51.8313 460.181 51.4533 460.452 50.968C460.732 50.4733 460.872 49.904 460.872 49.26ZM471.489 43.17C472.18 43.17 472.819 43.2353 473.407 43.366C473.995 43.4873 474.49 43.6273 474.891 43.786C475.302 43.9447 475.572 44.08 475.703 44.192L474.485 46.334C474.298 46.1847 473.962 46.0073 473.477 45.802C473.001 45.5967 472.469 45.494 471.881 45.494C471.349 45.494 470.901 45.5873 470.537 45.774C470.173 45.9513 469.991 46.222 469.991 46.586C469.991 46.95 470.187 47.2393 470.579 47.454C470.971 47.6687 471.517 47.8553 472.217 48.014C472.805 48.1353 473.384 48.322 473.953 48.574C474.522 48.8167 474.994 49.1713 475.367 49.638C475.74 50.0953 475.927 50.7067 475.927 51.472C475.927 52.228 475.764 52.858 475.437 53.362C475.12 53.8567 474.695 54.2487 474.163 54.538C473.631 54.8273 473.048 55.0327 472.413 55.154C471.778 55.2753 471.148 55.336 470.523 55.336C469.711 55.336 468.997 55.2567 468.381 55.098C467.765 54.9487 467.256 54.776 466.855 54.58C466.463 54.3747 466.183 54.202 466.015 54.062L467.233 51.682C467.476 51.8967 467.872 52.1347 468.423 52.396C468.983 52.648 469.585 52.774 470.229 52.774C470.901 52.774 471.428 52.6573 471.811 52.424C472.203 52.1907 472.399 51.878 472.399 51.486C472.399 51.1967 472.306 50.9633 472.119 50.786C471.932 50.5993 471.676 50.4453 471.349 50.324C471.022 50.2027 470.64 50.0953 470.201 50.002C469.8 49.918 469.389 49.7967 468.969 49.638C468.549 49.47 468.157 49.2507 467.793 48.98C467.429 48.7093 467.135 48.3733 466.911 47.972C466.687 47.5613 466.575 47.0713 466.575 46.502C466.575 45.774 466.808 45.1673 467.275 44.682C467.742 44.1873 468.348 43.814 469.095 43.562C469.842 43.3007 470.64 43.17 471.489 43.17Z" fill="#DBDBDB"/>
<path d="M153.29 71.9L153.35 71.91V84H152.23V70.8H153.88L161.42 82.89L161.37 82.9V70.8H162.48V84H160.82L153.29 71.9ZM168.915 84.24C168.095 84.24 167.365 84.05 166.725 83.67C166.091 83.2833 165.591 82.7633 165.225 82.11C164.865 81.4567 164.685 80.7267 164.685 79.92C164.685 79.1133 164.865 78.38 165.225 77.72C165.591 77.0533 166.091 76.5267 166.725 76.14C167.365 75.7467 168.095 75.55 168.915 75.55C169.735 75.55 170.458 75.7467 171.085 76.14C171.718 76.5267 172.215 77.0533 172.575 77.72C172.935 78.38 173.115 79.1133 173.115 79.92C173.115 80.7267 172.935 81.4567 172.575 82.11C172.215 82.7633 171.718 83.2833 171.085 83.67C170.458 84.05 169.735 84.24 168.915 84.24ZM168.915 83.21C169.535 83.21 170.075 83.0667 170.535 82.78C171.001 82.4933 171.361 82.1 171.615 81.6C171.875 81.1 172.005 80.54 172.005 79.92C172.005 79.2933 171.875 78.73 171.615 78.23C171.361 77.7233 171.001 77.3233 170.535 77.03C170.075 76.73 169.535 76.58 168.915 76.58C168.288 76.58 167.741 76.73 167.275 77.03C166.808 77.3233 166.445 77.7233 166.185 78.23C165.925 78.73 165.795 79.2933 165.795 79.92C165.795 80.54 165.925 81.1 166.185 81.6C166.445 82.1 166.808 82.4933 167.275 82.78C167.741 83.0667 168.288 83.21 168.915 83.21ZM174.327 75.79H175.547L178.557 82.92L181.557 75.79H182.777L179.227 84H177.887L174.327 75.79ZM185.121 80.03C185.128 80.6033 185.241 81.14 185.461 81.64C185.688 82.14 186.028 82.5433 186.481 82.85C186.934 83.1567 187.504 83.31 188.191 83.31C188.751 83.31 189.218 83.22 189.591 83.04C189.971 82.8533 190.271 82.64 190.491 82.4C190.718 82.1533 190.878 81.9333 190.971 81.74L191.681 82.44C191.434 82.82 191.148 83.1467 190.821 83.42C190.501 83.6867 190.121 83.89 189.681 84.03C189.248 84.17 188.731 84.24 188.131 84.24C187.258 84.24 186.511 84.0467 185.891 83.66C185.278 83.2667 184.808 82.7333 184.481 82.06C184.161 81.3867 184.001 80.63 184.001 79.79C184.001 78.99 184.161 78.27 184.481 77.63C184.801 76.99 185.261 76.4833 185.861 76.11C186.468 75.7367 187.198 75.55 188.051 75.55C188.824 75.55 189.494 75.72 190.061 76.06C190.634 76.4 191.078 76.8733 191.391 77.48C191.711 78.08 191.871 78.78 191.871 79.58C191.871 79.64 191.868 79.7167 191.861 79.81C191.861 79.9033 191.858 79.9767 191.851 80.03H185.121ZM190.731 79.08C190.724 78.72 190.634 78.34 190.461 77.94C190.294 77.5333 190.018 77.19 189.631 76.91C189.251 76.6233 188.728 76.48 188.061 76.48C187.368 76.48 186.814 76.62 186.401 76.9C185.994 77.1733 185.698 77.51 185.511 77.91C185.324 78.31 185.211 78.7 185.171 79.08H190.731ZM203.127 75.55C203.734 75.55 204.244 75.6833 204.657 75.95C205.07 76.2167 205.38 76.6233 205.587 77.17C205.8 77.71 205.907 78.4 205.907 79.24V84H204.777V79.54C204.777 78.5067 204.637 77.7467 204.357 77.26C204.077 76.7733 203.577 76.53 202.857 76.53C202.49 76.53 202.127 76.6333 201.767 76.84C201.414 77.04 201.12 77.36 200.887 77.8C200.654 78.24 200.537 78.82 200.537 79.54V84H199.447V79.54C199.447 78.5067 199.267 77.7467 198.907 77.26C198.547 76.7733 198.074 76.53 197.487 76.53C197.114 76.53 196.75 76.6267 196.397 76.82C196.05 77.0133 195.764 77.3333 195.537 77.78C195.317 78.22 195.207 78.8067 195.207 79.54V84H194.077V75.79H195.207V77.09C195.274 76.8833 195.424 76.66 195.657 76.42C195.897 76.18 196.204 75.9767 196.577 75.81C196.95 75.6367 197.377 75.55 197.857 75.55C198.364 75.55 198.784 75.6633 199.117 75.89C199.45 76.1167 199.71 76.3867 199.897 76.7C200.084 77.0133 200.2 77.3 200.247 77.56C200.347 77.2467 200.527 76.9367 200.787 76.63C201.047 76.3233 201.377 76.0667 201.777 75.86C202.177 75.6533 202.627 75.55 203.127 75.55ZM208.565 84V70.24H209.725V77.49C209.759 77.27 209.915 77.01 210.195 76.71C210.475 76.4033 210.859 76.1333 211.345 75.9C211.832 75.6667 212.395 75.55 213.035 75.55C213.782 75.55 214.452 75.7233 215.045 76.07C215.645 76.4167 216.122 76.9167 216.475 77.57C216.829 78.2167 217.005 78.9933 217.005 79.9C217.005 80.8067 216.829 81.5867 216.475 82.24C216.122 82.8867 215.645 83.3833 215.045 83.73C214.452 84.07 213.782 84.24 213.035 84.24C212.409 84.24 211.852 84.12 211.365 83.88C210.879 83.64 210.489 83.3667 210.195 83.06C209.902 82.7533 209.735 82.4933 209.695 82.28V84H208.565ZM215.855 79.9C215.855 79.2067 215.715 78.61 215.435 78.11C215.162 77.61 214.799 77.2267 214.345 76.96C213.899 76.6867 213.412 76.55 212.885 76.55C212.312 76.55 211.785 76.69 211.305 76.97C210.825 77.2433 210.442 77.63 210.155 78.13C209.869 78.63 209.725 79.22 209.725 79.9C209.725 80.58 209.869 81.17 210.155 81.67C210.442 82.17 210.825 82.5567 211.305 82.83C211.785 83.1033 212.312 83.24 212.885 83.24C213.412 83.24 213.899 83.1067 214.345 82.84C214.799 82.5733 215.162 82.19 215.435 81.69C215.715 81.19 215.855 80.5933 215.855 79.9ZM219.262 80.03C219.268 80.6033 219.382 81.14 219.602 81.64C219.828 82.14 220.168 82.5433 220.622 82.85C221.075 83.1567 221.645 83.31 222.332 83.31C222.892 83.31 223.358 83.22 223.732 83.04C224.112 82.8533 224.412 82.64 224.632 82.4C224.858 82.1533 225.018 81.9333 225.112 81.74L225.822 82.44C225.575 82.82 225.288 83.1467 224.962 83.42C224.642 83.6867 224.262 83.89 223.822 84.03C223.388 84.17 222.872 84.24 222.272 84.24C221.398 84.24 220.652 84.0467 220.032 83.66C219.418 83.2667 218.948 82.7333 218.622 82.06C218.302 81.3867 218.142 80.63 218.142 79.79C218.142 78.99 218.302 78.27 218.622 77.63C218.942 76.99 219.402 76.4833 220.002 76.11C220.608 75.7367 221.338 75.55 222.192 75.55C222.965 75.55 223.635 75.72 224.202 76.06C224.775 76.4 225.218 76.8733 225.532 77.48C225.852 78.08 226.012 78.78 226.012 79.58C226.012 79.64 226.008 79.7167 226.002 79.81C226.002 79.9033 225.998 79.9767 225.992 80.03H219.262ZM224.872 79.08C224.865 78.72 224.775 78.34 224.602 77.94C224.435 77.5333 224.158 77.19 223.772 76.91C223.392 76.6233 222.868 76.48 222.202 76.48C221.508 76.48 220.955 76.62 220.542 76.9C220.135 77.1733 219.838 77.51 219.652 77.91C219.465 78.31 219.352 78.7 219.312 79.08H224.872ZM229.298 84H228.178V75.79H229.298V77.27H229.248C229.274 77.0967 229.394 76.8767 229.608 76.61C229.828 76.3367 230.124 76.0933 230.498 75.88C230.871 75.66 231.311 75.55 231.818 75.55C232.204 75.55 232.534 75.6 232.808 75.7C233.088 75.7933 233.281 75.89 233.388 75.99L232.888 76.96C232.801 76.8733 232.638 76.7867 232.398 76.7C232.164 76.6133 231.881 76.57 231.548 76.57C231.088 76.57 230.688 76.7233 230.348 77.03C230.014 77.3367 229.754 77.7033 229.568 78.13C229.388 78.55 229.298 78.9367 229.298 79.29V84ZM243.604 71.6C243.01 71.6 242.487 71.7133 242.034 71.94C241.587 72.1667 241.214 72.4333 240.914 72.74C240.62 73.0467 240.397 73.3233 240.244 73.57C240.09 73.8167 240.007 73.9533 239.994 73.98L238.974 73.55C238.987 73.5033 239.05 73.3733 239.164 73.16C239.277 72.9467 239.45 72.6967 239.684 72.41C239.917 72.1167 240.214 71.83 240.574 71.55C240.934 71.2633 241.364 71.0267 241.864 70.84C242.37 70.6533 242.95 70.56 243.604 70.56C244.237 70.56 244.794 70.6467 245.274 70.82C245.754 70.9867 246.16 71.2367 246.494 71.57C246.827 71.8967 247.08 72.3033 247.254 72.79C247.427 73.2767 247.514 73.8367 247.514 74.47C247.514 75.0233 247.37 75.6067 247.084 76.22C246.804 76.8267 246.437 77.4333 245.984 78.04C245.53 78.64 245.044 79.2133 244.524 79.76C244.004 80.3067 243.497 80.8033 243.004 81.25C242.51 81.6967 242.084 82.07 241.724 82.37C241.364 82.6633 241.124 82.8567 241.004 82.95H247.404V84H239.184V83.04C239.437 82.8333 239.784 82.55 240.224 82.19C240.67 81.8233 241.164 81.4 241.704 80.92C242.25 80.44 242.794 79.9267 243.334 79.38C243.874 78.8333 244.374 78.2767 244.834 77.71C245.294 77.1367 245.66 76.5733 245.934 76.02C246.214 75.4667 246.354 74.95 246.354 74.47C246.354 73.4033 246.114 72.66 245.634 72.24C245.16 71.8133 244.484 71.6 243.604 71.6ZM249.758 77.41C249.758 76.2233 249.895 75.2 250.168 74.34C250.448 73.4733 250.818 72.7633 251.278 72.21C251.745 71.65 252.262 71.2367 252.828 70.97C253.402 70.6967 253.982 70.56 254.568 70.56C255.155 70.56 255.732 70.6967 256.298 70.97C256.872 71.2367 257.388 71.65 257.848 72.21C258.308 72.7633 258.675 73.4733 258.948 74.34C259.222 75.2 259.358 76.2233 259.358 77.41C259.358 78.5967 259.222 79.62 258.948 80.48C258.675 81.3333 258.308 82.04 257.848 82.6C257.388 83.1533 256.872 83.5667 256.298 83.84C255.732 84.1067 255.155 84.24 254.568 84.24C253.982 84.24 253.402 84.1067 252.828 83.84C252.262 83.5667 251.745 83.1533 251.278 82.6C250.818 82.04 250.448 81.3333 250.168 80.48C249.895 79.62 249.758 78.5967 249.758 77.41ZM250.918 77.41C250.918 78.6967 251.088 79.77 251.428 80.63C251.775 81.4833 252.225 82.1233 252.778 82.55C253.332 82.97 253.928 83.18 254.568 83.18C255.215 83.18 255.812 82.97 256.358 82.55C256.912 82.1233 257.355 81.4833 257.688 80.63C258.028 79.77 258.198 78.6967 258.198 77.41C258.198 76.1167 258.028 75.0433 257.688 74.19C257.355 73.33 256.912 72.6867 256.358 72.26C255.812 71.8333 255.215 71.62 254.568 71.62C253.928 71.62 253.332 71.8333 252.778 72.26C252.225 72.6867 251.775 73.33 251.428 74.19C251.088 75.05 250.918 76.1233 250.918 77.41ZM265.752 71.6C265.159 71.6 264.636 71.7133 264.182 71.94C263.736 72.1667 263.362 72.4333 263.062 72.74C262.769 73.0467 262.546 73.3233 262.392 73.57C262.239 73.8167 262.156 73.9533 262.142 73.98L261.122 73.55C261.136 73.5033 261.199 73.3733 261.312 73.16C261.426 72.9467 261.599 72.6967 261.832 72.41C262.066 72.1167 262.362 71.83 262.722 71.55C263.082 71.2633 263.512 71.0267 264.012 70.84C264.519 70.6533 265.099 70.56 265.752 70.56C266.386 70.56 266.942 70.6467 267.422 70.82C267.902 70.9867 268.309 71.2367 268.642 71.57C268.976 71.8967 269.229 72.3033 269.402 72.79C269.576 73.2767 269.662 73.8367 269.662 74.47C269.662 75.0233 269.519 75.6067 269.232 76.22C268.952 76.8267 268.586 77.4333 268.132 78.04C267.679 78.64 267.192 79.2133 266.672 79.76C266.152 80.3067 265.646 80.8033 265.152 81.25C264.659 81.6967 264.232 82.07 263.872 82.37C263.512 82.6633 263.272 82.8567 263.152 82.95H269.552V84H261.332V83.04C261.586 82.8333 261.932 82.55 262.372 82.19C262.819 81.8233 263.312 81.4 263.852 80.92C264.399 80.44 264.942 79.9267 265.482 79.38C266.022 78.8333 266.522 78.2767 266.982 77.71C267.442 77.1367 267.809 76.5733 268.082 76.02C268.362 75.4667 268.502 74.95 268.502 74.47C268.502 73.4033 268.262 72.66 267.782 72.24C267.309 71.8133 266.632 71.6 265.752 71.6ZM278.307 70.8V80.17H279.807V81.22H278.307V84H277.177V81.22H271.567V80.24L277.177 70.8H278.307ZM277.177 80.17V72.82L272.827 80.17H277.177Z" fill="#DDDDDD"/>
<rect x="133" y="35" width="1" height="54" fill="#D9D9D9" fill-opacity="0.72"/>
<defs>
<filter id="filter0_bdi_4430_1920" x="0.4" y="0.4" width="734.2" height="130.2" filterUnits="userSpaceOnUse" color-interpolation-filters="sRGB">
<feFlood flood-opacity="0" result="BackgroundImageFix"/>
<feGaussianBlur in="BackgroundImageFix" stdDeviation="3.35363"/>
<feComposite in2="SourceAlpha" operator="in" result="effect1_backgroundBlur_4430_1920"/>
<feColorMatrix in="SourceAlpha" type="matrix" values="0 0 0 0 0 0 0 0 0 0 0 0 0 0 0 0 0 0 127 0" result="hardAlpha"/>
<feOffset dy="5"/>
<feGaussianBlur stdDeviation="13.8"/>
<feComposite in2="hardAlpha" operator="out"/>
<feColorMatrix type="matrix" values="0 0 0 0 1 0 0 0 0 0.416667 0 0 0 0 0 0 0 0 0.24 0"/>
<feBlend mode="normal" in2="effect1_backgroundBlur_4430_1920" result="effect2_dropShadow_4430_1920"/>
<feBlend mode="normal" in="SourceGraphic" in2="effect2_dropShadow_4430_1920" result="shape"/>
<feColorMatrix in="SourceAlpha" type="matrix" values="0 0 0 0 0 0 0 0 0 0 0 0 0 0 0 0 0 0 127 0" result="hardAlpha"/>
<feOffset dy="-4"/>
<feComposite in2="hardAlpha" operator="arithmetic" k2="-1" k3="1"/>
<feColorMatrix type="matrix" values="0 0 0 0 1 0 0 0 0 0.716667 0 0 0 0 0 0 0 0 0.05 0"/>
<feBlend mode="normal" in2="shape" result="effect3_innerShadow_4430_1920"/>
</filter>
<linearGradient id="paint0_linear_4430_1920" x1="28" y1="60.5" x2="707" y2="60.5" gradientUnits="userSpaceOnUse">
<stop stop-color="#532200"/>
<stop offset="0.46" stop-color="#854509"/>
<stop offset="1" stop-color="#9B1C00"/>
</linearGradient>
<linearGradient id="paint1_linear_4430_1920" x1="61.4247" y1="27.1628" x2="65.9969" y2="113.894" gradientUnits="userSpaceOnUse">
<stop stop-color="#797583" stop-opacity="0.2"/>
<stop offset="1" stop-color="#363567" stop-opacity="0.2"/>
</linearGradient>
<linearGradient id="paint2_linear_4430_1920" x1="28" y1="17.3103" x2="28.1648" y2="101.414" gradientUnits="userSpaceOnUse">
<stop stop-color="white" stop-opacity="0.6"/>
<stop offset="1" stop-color="white" stop-opacity="0"/>
</linearGradient>
</defs>
</svg>
