<svg width="1488" height="1388" viewBox="0 0 1488 1388" fill="none" xmlns="http://www.w3.org/2000/svg">
<rect width="1488" height="1388" fill="#101010"/>
<line x1="198" y1="1033.5" x2="1280.86" y2="1033.5" stroke="#594D4D"/>
<line x1="198" y1="842.75" x2="1280.86" y2="842.75" stroke="#594D4D"/>
<line x1="198" y1="652" x2="1280.86" y2="652" stroke="#594D4D"/>
<line x1="198" y1="461.25" x2="1280.86" y2="461.25" stroke="#594D4D"/>
<line x1="198" y1="270.5" x2="1280.86" y2="270.5" stroke="#594D4D"/>
<g filter="url(#filter0_d_34_73)">
<line x1="207.147" y1="252" x2="207.147" y2="1034.44" stroke="#464646"/>
</g>
<g filter="url(#filter1_d_34_73)">
<line x1="206.647" y1="1033.94" x2="1302" y2="1033.94" stroke="#464646"/>
</g>
<g filter="url(#filter2_dii_34_73)">
<rect x="304" y="625" width="111" height="409" rx="5" fill="url(#paint0_linear_34_73)"/>
</g>
<g filter="url(#filter3_dii_34_73)">
<path d="M560 614C560 611.239 562.239 609 565 609H664C666.761 609 669 611.239 669 614V1029C669 1031.76 666.761 1034 664 1034H565C562.239 1034 560 1031.76 560 1029V614Z" fill="url(#paint1_linear_34_73)"/>
</g>
<g filter="url(#filter4_dii_34_73)">
<path d="M820 548C820 545.239 822.239 543 825 543H924C926.761 543 929 545.239 929 548V1029C929 1031.76 926.761 1034 924 1034H825C822.239 1034 820 1031.76 820 1029V548Z" fill="url(#paint2_linear_34_73)"/>
</g>
<g filter="url(#filter5_dii_34_73)">
<path d="M1070 386C1070 383.239 1072.24 381 1075 381H1175C1177.76 381 1180 383.239 1180 386V1029C1180 1031.76 1177.76 1034 1175 1034H1075C1072.24 1034 1070 1031.76 1070 1029V386Z" fill="url(#paint3_linear_34_73)"/>
</g>
<g filter="url(#filter6_d_34_73)">
<path d="M342.693 610.754C339.633 610.754 337.613 608.794 337.613 605.834H340.153C340.153 607.494 341.133 608.474 342.753 608.474C344.473 608.474 345.573 607.354 345.573 605.574C345.573 603.874 344.553 602.714 342.793 602.714C341.673 602.714 340.653 603.274 340.133 604.034L337.873 603.554L339.673 595.894H347.293V598.254H341.513L340.733 601.294C341.433 600.834 342.313 600.574 343.313 600.574C346.233 600.574 348.173 602.554 348.173 605.434C348.173 608.594 345.953 610.754 342.693 610.754ZM360.965 607.734H359.185V610.514H356.765V607.734H349.345V605.494L355.965 595.894H359.185V605.494H360.965V607.734ZM352.065 605.494H356.765V598.654L352.065 605.494ZM364.302 610.754C363.422 610.754 362.682 610.034 362.682 609.174C362.682 608.294 363.422 607.574 364.302 607.574C365.182 607.574 365.922 608.294 365.922 609.174C365.922 610.034 365.182 610.754 364.302 610.754ZM376.214 606.214L373.054 610.514H370.134L373.634 605.854C373.274 605.954 372.894 606.014 372.534 606.014C369.514 606.014 367.474 603.894 367.474 600.934C367.474 597.814 369.794 595.634 372.914 595.634C376.074 595.634 378.434 597.954 378.434 600.954C378.434 602.714 377.854 603.994 376.214 606.214ZM375.814 600.934C375.814 599.154 374.634 597.914 372.914 597.914C371.234 597.914 370.054 599.154 370.054 600.934C370.054 602.694 371.234 603.914 372.914 603.914C374.654 603.914 375.814 602.694 375.814 600.934Z" fill="white"/>
</g>
<g filter="url(#filter7_d_34_73)">
<path d="M598.871 594.667C595.811 594.667 593.791 592.707 593.791 589.747H596.331C596.331 591.407 597.311 592.387 598.931 592.387C600.651 592.387 601.751 591.267 601.751 589.487C601.751 587.787 600.731 586.627 598.971 586.627C597.851 586.627 596.831 587.187 596.311 587.947L594.051 587.467L595.851 579.807H603.471V582.167H597.691L596.911 585.207C597.611 584.747 598.491 584.487 599.491 584.487C602.411 584.487 604.351 586.467 604.351 589.347C604.351 592.507 602.131 594.667 598.871 594.667ZM610.863 594.667C607.803 594.667 605.783 592.707 605.783 589.747H608.323C608.323 591.407 609.303 592.387 610.923 592.387C612.643 592.387 613.743 591.267 613.743 589.487C613.743 587.787 612.723 586.627 610.963 586.627C609.843 586.627 608.823 587.187 608.303 587.947L606.043 587.467L607.843 579.807H615.463V582.167H609.683L608.903 585.207C609.603 584.747 610.483 584.487 611.483 584.487C614.403 584.487 616.343 586.467 616.343 589.347C616.343 592.507 614.123 594.667 610.863 594.667ZM619.543 594.667C618.663 594.667 617.923 593.947 617.923 593.087C617.923 592.207 618.663 591.487 619.543 591.487C620.423 591.487 621.163 592.207 621.163 593.087C621.163 593.947 620.423 594.667 619.543 594.667ZM623.186 590.287C623.186 588.547 624.166 587.147 625.686 586.567C624.406 585.987 623.706 584.887 623.706 583.467C623.706 581.147 625.766 579.547 628.786 579.547C631.786 579.547 633.806 581.127 633.806 583.507C633.806 584.927 633.086 586.027 631.786 586.567C633.326 587.107 634.326 588.527 634.326 590.287C634.326 592.927 632.146 594.667 628.746 594.667C625.366 594.667 623.186 592.947 623.186 590.287ZM626.026 583.687C626.026 584.907 627.086 585.687 628.746 585.687C630.386 585.687 631.426 584.927 631.426 583.707C631.426 582.487 630.386 581.727 628.746 581.727C627.086 581.727 626.026 582.487 626.026 583.687ZM625.686 590.107C625.686 591.527 626.866 592.407 628.766 592.407C630.626 592.407 631.806 591.527 631.806 590.107C631.806 588.687 630.626 587.807 628.746 587.807C626.866 587.807 625.686 588.687 625.686 590.107Z" fill="white"/>
</g>
<g filter="url(#filter8_d_34_73)">
<path d="M851.709 517.661L854.869 513.361H857.789L854.289 518.021C854.649 517.921 855.029 517.861 855.389 517.861C858.409 517.861 860.449 519.981 860.449 522.941C860.449 526.061 858.129 528.241 855.009 528.241C851.849 528.241 849.489 525.921 849.489 522.921C849.489 521.161 850.069 519.881 851.709 517.661ZM852.109 522.941C852.109 524.721 853.289 525.961 855.009 525.961C856.669 525.961 857.869 524.721 857.869 522.941C857.869 521.181 856.689 519.961 855.009 519.961C853.269 519.961 852.109 521.181 852.109 522.941ZM873.351 525.201H871.571V527.981H869.151V525.201H861.731V522.961L868.351 513.361H871.571V522.961H873.351V525.201ZM864.451 522.961H869.151V516.121L864.451 522.961ZM876.688 528.221C875.808 528.221 875.068 527.501 875.068 526.641C875.068 525.761 875.808 525.041 876.688 525.041C877.568 525.041 878.308 525.761 878.308 526.641C878.308 527.501 877.568 528.221 876.688 528.221ZM888.6 523.681L885.44 527.981H882.52L886.02 523.321C885.66 523.421 885.28 523.481 884.92 523.481C881.9 523.481 879.86 521.361 879.86 518.401C879.86 515.281 882.18 513.101 885.3 513.101C888.46 513.101 890.82 515.421 890.82 518.421C890.82 520.181 890.24 521.461 888.6 523.681ZM888.2 518.401C888.2 516.621 887.02 515.381 885.3 515.381C883.62 515.381 882.44 516.621 882.44 518.401C882.44 520.161 883.62 521.381 885.3 521.381C887.04 521.381 888.2 520.161 888.2 518.401Z" fill="white"/>
</g>
<g filter="url(#filter9_d_34_73)">
<path d="M1105.97 360.53C1105.97 358.79 1106.95 357.39 1108.47 356.81C1107.19 356.23 1106.49 355.13 1106.49 353.71C1106.49 351.39 1108.55 349.79 1111.57 349.79C1114.57 349.79 1116.59 351.37 1116.59 353.75C1116.59 355.17 1115.87 356.27 1114.57 356.81C1116.11 357.35 1117.11 358.77 1117.11 360.53C1117.11 363.17 1114.93 364.91 1111.53 364.91C1108.15 364.91 1105.97 363.19 1105.97 360.53ZM1108.81 353.93C1108.81 355.15 1109.87 355.93 1111.53 355.93C1113.17 355.93 1114.21 355.17 1114.21 353.95C1114.21 352.73 1113.17 351.97 1111.53 351.97C1109.87 351.97 1108.81 352.73 1108.81 353.93ZM1108.47 360.35C1108.47 361.77 1109.65 362.65 1111.55 362.65C1113.41 362.65 1114.59 361.77 1114.59 360.35C1114.59 358.93 1113.41 358.05 1111.53 358.05C1109.65 358.05 1108.47 358.93 1108.47 360.35ZM1123.76 364.91C1120.7 364.91 1118.68 362.95 1118.68 359.99H1121.22C1121.22 361.65 1122.2 362.63 1123.82 362.63C1125.54 362.63 1126.64 361.51 1126.64 359.73C1126.64 358.03 1125.62 356.87 1123.86 356.87C1122.74 356.87 1121.72 357.43 1121.2 358.19L1118.94 357.71L1120.74 350.05H1128.36V352.41H1122.58L1121.8 355.45C1122.5 354.99 1123.38 354.73 1124.38 354.73C1127.3 354.73 1129.24 356.71 1129.24 359.59C1129.24 362.75 1127.02 364.91 1123.76 364.91ZM1132.44 364.91C1131.56 364.91 1130.82 364.19 1130.82 363.33C1130.82 362.45 1131.56 361.73 1132.44 361.73C1133.32 361.73 1134.06 362.45 1134.06 363.33C1134.06 364.19 1133.32 364.91 1132.44 364.91ZM1137.27 352.35H1134.07V350.05H1139.73V364.67H1137.27V352.35Z" fill="white"/>
</g>
<g filter="url(#filter10_d_34_73)">
<path d="M307.208 1075.46C307.208 1072.9 309.328 1071.12 312.408 1071.12C315.368 1071.12 317.248 1072.76 317.328 1075.4H314.768C314.708 1074.14 313.808 1073.4 312.368 1073.4C310.788 1073.4 309.768 1074.16 309.768 1075.38C309.768 1076.42 310.328 1077 311.548 1077.28L313.848 1077.78C316.348 1078.32 317.568 1079.6 317.568 1081.78C317.568 1084.5 315.448 1086.26 312.228 1086.26C309.108 1086.26 307.068 1084.6 307.008 1081.98H309.568C309.588 1083.22 310.588 1083.96 312.228 1083.96C313.928 1083.96 315.008 1083.22 315.008 1082C315.008 1081.02 314.508 1080.44 313.308 1080.18L310.988 1079.66C308.508 1079.12 307.208 1077.7 307.208 1075.46ZM323.944 1086.26C321.004 1086.26 318.944 1084.12 318.944 1081.06C318.944 1077.96 320.964 1075.82 323.864 1075.82C326.824 1075.82 328.704 1077.8 328.704 1080.88V1081.62L321.264 1081.64C321.444 1083.38 322.364 1084.26 323.984 1084.26C325.324 1084.26 326.204 1083.74 326.484 1082.8H328.744C328.324 1084.96 326.524 1086.26 323.944 1086.26ZM323.884 1077.82C322.444 1077.82 321.564 1078.6 321.324 1080.08H326.284C326.284 1078.72 325.344 1077.82 323.884 1077.82ZM333.116 1086H330.696V1071.12H333.116V1086ZM334.696 1076.12H336.116V1074.92C336.116 1072.24 337.536 1071.12 339.676 1071.12C340.056 1071.12 340.516 1071.14 340.936 1071.22V1073.3H340.076C338.836 1073.3 338.536 1073.94 338.536 1074.92V1076.12H340.896V1078.16H338.536V1086H336.116V1078.16H334.696V1076.12ZM345.373 1086H342.813V1071.38H348.393C351.713 1071.38 353.653 1073.06 353.653 1075.94C353.653 1077.9 352.733 1079.3 351.013 1080L353.793 1086H350.993L348.513 1080.54H345.373V1086ZM345.373 1073.66V1078.28H348.393C350.013 1078.28 350.973 1077.42 350.973 1075.94C350.973 1074.48 350.013 1073.66 348.393 1073.66H345.373ZM357.472 1086H354.812L360.092 1071.38H362.712L367.992 1086H365.292L364.112 1082.62H358.652L357.472 1086ZM361.072 1075.74L359.412 1080.46H363.372L361.692 1075.74C361.572 1075.36 361.432 1074.92 361.392 1074.62C361.332 1074.9 361.212 1075.34 361.072 1075.74ZM375.502 1073.54C372.602 1073.54 370.942 1075.64 370.942 1078.8C370.942 1082.06 372.822 1083.84 375.522 1083.84C378.062 1083.84 379.602 1082.44 379.602 1080.1V1080.04H375.182V1077.78H381.982V1086H379.822L379.662 1084.32C378.862 1085.44 377.202 1086.22 375.222 1086.22C371.122 1086.22 368.262 1083.24 368.262 1078.74C368.262 1074.3 371.162 1071.14 375.562 1071.14C378.902 1071.14 381.482 1073.08 381.902 1076.06H379.202C378.742 1074.34 377.262 1073.54 375.502 1073.54ZM384.367 1081.74V1079.58H390.807V1081.74H384.367ZM391.568 1071.38H402.068V1073.74L396.768 1086H394.108L399.508 1073.74H391.568V1071.38ZM405.709 1086H403.449V1071.12H405.889V1077.56C406.529 1076.46 407.849 1075.8 409.349 1075.8C412.169 1075.8 413.889 1078 413.889 1081.12C413.889 1084.16 412.029 1086.26 409.189 1086.26C407.709 1086.26 406.449 1085.6 405.869 1084.46L405.709 1086ZM405.909 1081.02C405.909 1082.8 407.009 1084.02 408.689 1084.02C410.409 1084.02 411.429 1082.78 411.429 1081.02C411.429 1079.26 410.409 1078 408.689 1078C407.009 1078 405.909 1079.24 405.909 1081.02Z" fill="white"/>
</g>
<g filter="url(#filter11_d_34_73)">
<path d="M555.821 1075.46C555.821 1072.9 557.941 1071.12 561.021 1071.12C563.981 1071.12 565.861 1072.76 565.941 1075.4H563.381C563.321 1074.14 562.421 1073.4 560.981 1073.4C559.401 1073.4 558.381 1074.16 558.381 1075.38C558.381 1076.42 558.941 1077 560.161 1077.28L562.461 1077.78C564.961 1078.32 566.181 1079.6 566.181 1081.78C566.181 1084.5 564.061 1086.26 560.841 1086.26C557.721 1086.26 555.681 1084.6 555.621 1081.98H558.181C558.201 1083.22 559.201 1083.96 560.841 1083.96C562.541 1083.96 563.621 1083.22 563.621 1082C563.621 1081.02 563.121 1080.44 561.921 1080.18L559.601 1079.66C557.121 1079.12 555.821 1077.7 555.821 1075.46ZM572.557 1086.26C569.617 1086.26 567.557 1084.12 567.557 1081.06C567.557 1077.96 569.577 1075.82 572.477 1075.82C575.437 1075.82 577.317 1077.8 577.317 1080.88V1081.62L569.877 1081.64C570.057 1083.38 570.977 1084.26 572.597 1084.26C573.937 1084.26 574.817 1083.74 575.097 1082.8H577.357C576.937 1084.96 575.137 1086.26 572.557 1086.26ZM572.497 1077.82C571.057 1077.82 570.177 1078.6 569.937 1080.08H574.897C574.897 1078.72 573.957 1077.82 572.497 1077.82ZM581.73 1086H579.31V1071.12H581.73V1086ZM583.309 1076.12H584.729V1074.92C584.729 1072.24 586.149 1071.12 588.289 1071.12C588.669 1071.12 589.129 1071.14 589.549 1071.22V1073.3H588.689C587.449 1073.3 587.149 1073.94 587.149 1074.92V1076.12H589.509V1078.16H587.149V1086H584.729V1078.16H583.309V1076.12ZM593.987 1086H591.427V1071.38H597.007C600.327 1071.38 602.267 1073.06 602.267 1075.94C602.267 1077.9 601.347 1079.3 599.627 1080L602.407 1086H599.607L597.127 1080.54H593.987V1086ZM593.987 1073.66V1078.28H597.007C598.627 1078.28 599.587 1077.42 599.587 1075.94C599.587 1074.48 598.627 1073.66 597.007 1073.66H593.987ZM606.085 1086H603.425L608.705 1071.38H611.325L616.605 1086H613.905L612.725 1082.62H607.265L606.085 1086ZM609.685 1075.74L608.025 1080.46H611.985L610.305 1075.74C610.185 1075.36 610.045 1074.92 610.005 1074.62C609.945 1074.9 609.825 1075.34 609.685 1075.74ZM624.116 1073.54C621.216 1073.54 619.556 1075.64 619.556 1078.8C619.556 1082.06 621.436 1083.84 624.136 1083.84C626.676 1083.84 628.216 1082.44 628.216 1080.1V1080.04H623.796V1077.78H630.596V1086H628.436L628.276 1084.32C627.476 1085.44 625.816 1086.22 623.836 1086.22C619.736 1086.22 616.876 1083.24 616.876 1078.74C616.876 1074.3 619.776 1071.14 624.176 1071.14C627.516 1071.14 630.096 1073.08 630.516 1076.06H627.816C627.356 1074.34 625.876 1073.54 624.116 1073.54ZM632.98 1081.74V1079.58H639.42V1081.74H632.98ZM643.101 1073.68H639.901V1071.38H645.561V1086H643.101V1073.68ZM652.369 1078.76H650.589V1077.1L654.349 1073.64H648.269V1071.38H657.549V1073.42L653.989 1076.7C656.229 1077.14 657.969 1078.78 657.969 1081.36C657.969 1084.36 655.629 1086.26 652.669 1086.26C649.809 1086.26 647.589 1084.5 647.589 1081.34H650.109C650.109 1083.02 651.149 1083.98 652.709 1083.98C654.309 1083.98 655.369 1082.94 655.369 1081.32C655.369 1079.84 654.409 1078.76 652.369 1078.76ZM662.096 1086H659.836V1071.12H662.276V1077.56C662.916 1076.46 664.236 1075.8 665.736 1075.8C668.556 1075.8 670.276 1078 670.276 1081.12C670.276 1084.16 668.416 1086.26 665.576 1086.26C664.096 1086.26 662.836 1085.6 662.256 1084.46L662.096 1086ZM662.296 1081.02C662.296 1082.8 663.396 1084.02 665.076 1084.02C666.796 1084.02 667.816 1082.78 667.816 1081.02C667.816 1079.26 666.796 1078 665.076 1078C663.396 1078 662.296 1079.24 662.296 1081.02Z" fill="white"/>
</g>
<g filter="url(#filter12_d_34_73)">
<path d="M823.806 1086.24C819.546 1086.24 816.786 1083.28 816.786 1078.7C816.786 1074.16 819.646 1071.14 823.926 1071.14C827.386 1071.14 829.966 1073.16 830.466 1076.3H827.766C827.266 1074.6 825.806 1073.6 823.866 1073.6C821.166 1073.6 819.466 1075.56 819.466 1078.68C819.466 1081.78 821.186 1083.78 823.866 1083.78C825.846 1083.78 827.366 1082.74 827.846 1081.12H830.506C829.946 1084.2 827.266 1086.24 823.806 1086.24ZM834.784 1086H832.344V1071.12H834.804V1077.4C835.424 1076.44 836.584 1075.82 838.004 1075.82C840.444 1075.82 841.724 1077.36 841.724 1079.92V1086H839.284V1080.5C839.284 1078.84 838.464 1078.04 837.224 1078.04C835.684 1078.04 834.784 1079.12 834.784 1080.6V1086ZM850.821 1076.12H853.261V1086H851.001L850.821 1084.68C850.221 1085.62 848.941 1086.26 847.621 1086.26C845.341 1086.26 844.001 1084.72 844.001 1082.3V1076.12H846.441V1081.44C846.441 1083.32 847.181 1084.08 848.541 1084.08C850.081 1084.08 850.821 1083.18 850.821 1081.3V1076.12ZM858.221 1086H855.781V1076.12H858.041L858.241 1077.4C858.861 1076.4 860.061 1075.82 861.401 1075.82C863.881 1075.82 865.161 1077.36 865.161 1079.92V1086H862.721V1080.5C862.721 1078.84 861.901 1078.04 860.641 1078.04C859.141 1078.04 858.221 1079.08 858.221 1080.68V1086ZM870.019 1086H867.599V1071.12H870.019V1080.26L873.859 1076.12H876.919L873.159 1080.04L876.839 1086H874.039L871.459 1081.84L870.019 1083.34V1086ZM881.241 1086H878.681V1071.38H884.261C887.581 1071.38 889.521 1073.06 889.521 1075.94C889.521 1077.9 888.601 1079.3 886.881 1080L889.661 1086H886.861L884.381 1080.54H881.241V1086ZM881.241 1073.66V1078.28H884.261C885.881 1078.28 886.841 1077.42 886.841 1075.94C886.841 1074.48 885.881 1073.66 884.261 1073.66H881.241ZM893.339 1086H890.679L895.959 1071.38H898.579L903.859 1086H901.159L899.979 1082.62H894.519L893.339 1086ZM896.939 1075.74L895.279 1080.46H899.239L897.559 1075.74C897.439 1075.36 897.299 1074.92 897.259 1074.62C897.199 1074.9 897.079 1075.34 896.939 1075.74ZM911.37 1073.54C908.47 1073.54 906.81 1075.64 906.81 1078.8C906.81 1082.06 908.69 1083.84 911.39 1083.84C913.93 1083.84 915.47 1082.44 915.47 1080.1V1080.04H911.05V1077.78H917.85V1086H915.69L915.53 1084.32C914.73 1085.44 913.07 1086.22 911.09 1086.22C906.99 1086.22 904.13 1083.24 904.13 1078.74C904.13 1074.3 907.03 1071.14 911.43 1071.14C914.77 1071.14 917.35 1073.08 917.77 1076.06H915.07C914.61 1074.34 913.13 1073.54 911.37 1073.54Z" fill="white"/>
</g>
<g filter="url(#filter13_d_34_73)">
<path d="M1079.15 1086H1076.49L1081.77 1071.38H1084.39L1089.67 1086H1086.97L1085.79 1082.62H1080.33L1079.15 1086ZM1082.75 1075.74L1081.09 1080.46H1085.05L1083.37 1075.74C1083.25 1075.36 1083.11 1074.92 1083.07 1074.62C1083.01 1074.9 1082.89 1075.34 1082.75 1075.74ZM1093.6 1086H1091.18V1071.12H1093.6V1086ZM1095.58 1081.04C1095.58 1077.98 1097.6 1075.82 1100.52 1075.82C1103.22 1075.82 1105.06 1077.32 1105.32 1079.7H1102.88C1102.6 1078.58 1101.78 1078 1100.62 1078C1099.06 1078 1098.02 1079.18 1098.02 1081.04C1098.02 1082.9 1098.98 1084.06 1100.54 1084.06C1101.76 1084.06 1102.62 1083.46 1102.88 1082.38H1105.34C1105.04 1084.68 1103.12 1086.26 1100.54 1086.26C1097.54 1086.26 1095.58 1084.18 1095.58 1081.04ZM1109.6 1086H1107.16V1071.12H1109.62V1077.4C1110.24 1076.44 1111.4 1075.82 1112.82 1075.82C1115.26 1075.82 1116.54 1077.36 1116.54 1079.92V1086H1114.1V1080.5C1114.1 1078.84 1113.28 1078.04 1112.04 1078.04C1110.5 1078.04 1109.6 1079.12 1109.6 1080.6V1086ZM1123.35 1086.26C1120.41 1086.26 1118.35 1084.12 1118.35 1081.06C1118.35 1077.96 1120.37 1075.82 1123.27 1075.82C1126.23 1075.82 1128.11 1077.8 1128.11 1080.88V1081.62L1120.67 1081.64C1120.85 1083.38 1121.77 1084.26 1123.39 1084.26C1124.73 1084.26 1125.61 1083.74 1125.89 1082.8H1128.15C1127.73 1084.96 1125.93 1086.26 1123.35 1086.26ZM1123.29 1077.82C1121.85 1077.82 1120.97 1078.6 1120.73 1080.08H1125.69C1125.69 1078.72 1124.75 1077.82 1123.29 1077.82ZM1132.51 1086H1130.07V1076.12H1132.31L1132.51 1077.28C1133.01 1076.46 1134.01 1075.82 1135.43 1075.82C1136.93 1075.82 1137.97 1076.56 1138.49 1077.7C1138.99 1076.56 1140.15 1075.82 1141.65 1075.82C1144.05 1075.82 1145.37 1077.26 1145.37 1079.54V1086H1142.95V1080.18C1142.95 1078.76 1142.19 1078.02 1141.03 1078.02C1139.85 1078.02 1138.95 1078.78 1138.95 1080.4V1086H1136.51V1080.16C1136.51 1078.78 1135.77 1078.04 1134.61 1078.04C1133.45 1078.04 1132.51 1078.8 1132.51 1080.4V1086ZM1146.71 1090.58V1088.54H1148.17C1149.13 1088.54 1149.73 1088.32 1150.15 1087.16L1150.43 1086.42L1146.45 1076.12H1149.03L1151.57 1083.32L1154.25 1076.12H1156.77L1151.93 1088.2C1151.19 1090.04 1150.15 1090.8 1148.53 1090.8C1147.85 1090.8 1147.25 1090.72 1146.71 1090.58ZM1157.18 1083H1159.5C1159.52 1083.86 1160.16 1084.4 1161.28 1084.4C1162.42 1084.4 1163.04 1083.94 1163.04 1083.22C1163.04 1082.72 1162.78 1082.36 1161.9 1082.16L1160.12 1081.74C1158.34 1081.34 1157.48 1080.5 1157.48 1078.92C1157.48 1076.98 1159.12 1075.82 1161.4 1075.82C1163.62 1075.82 1165.12 1077.1 1165.14 1079.02H1162.82C1162.8 1078.18 1162.24 1077.64 1161.3 1077.64C1160.34 1077.64 1159.78 1078.08 1159.78 1078.82C1159.78 1079.38 1160.22 1079.74 1161.06 1079.94L1162.84 1080.36C1164.5 1080.74 1165.34 1081.5 1165.34 1083.02C1165.34 1085.02 1163.64 1086.26 1161.2 1086.26C1158.74 1086.26 1157.18 1084.94 1157.18 1083ZM1170.56 1086H1168.12V1078.16H1166.22V1076.12H1168.12V1073.04H1170.56V1076.12H1172.48V1078.16H1170.56V1086ZM1078.34 1100.74V1098.38H1089.46V1100.74H1085.18V1113H1082.62V1100.74H1078.34ZM1093.49 1113H1091.05V1098.12H1093.51V1104.4C1094.13 1103.44 1095.29 1102.82 1096.71 1102.82C1099.15 1102.82 1100.43 1104.36 1100.43 1106.92V1113H1097.99V1107.5C1097.99 1105.84 1097.17 1105.04 1095.93 1105.04C1094.39 1105.04 1093.49 1106.12 1093.49 1107.6V1113ZM1104.05 1101.14C1103.21 1101.14 1102.55 1100.48 1102.55 1099.66C1102.55 1098.84 1103.21 1098.2 1104.05 1098.2C1104.85 1098.2 1105.51 1098.84 1105.51 1099.66C1105.51 1100.48 1104.85 1101.14 1104.05 1101.14ZM1102.83 1113V1103.12H1105.27V1113H1102.83ZM1110.23 1113H1107.79V1103.12H1110.05L1110.25 1104.4C1110.87 1103.4 1112.07 1102.82 1113.41 1102.82C1115.89 1102.82 1117.17 1104.36 1117.17 1106.92V1113H1114.73V1107.5C1114.73 1105.84 1113.91 1105.04 1112.65 1105.04C1111.15 1105.04 1110.23 1106.08 1110.23 1107.68V1113ZM1122.03 1113H1119.61V1098.12H1122.03V1107.26L1125.87 1103.12H1128.93L1125.17 1107.04L1128.85 1113H1126.05L1123.47 1108.84L1122.03 1110.34V1113ZM1133.25 1113H1130.69V1098.38H1136.27C1139.59 1098.38 1141.53 1100.06 1141.53 1102.94C1141.53 1104.9 1140.61 1106.3 1138.89 1107L1141.67 1113H1138.87L1136.39 1107.54H1133.25V1113ZM1133.25 1100.66V1105.28H1136.27C1137.89 1105.28 1138.85 1104.42 1138.85 1102.94C1138.85 1101.48 1137.89 1100.66 1136.27 1100.66H1133.25ZM1145.35 1113H1142.69L1147.97 1098.38H1150.59L1155.87 1113H1153.17L1151.99 1109.62H1146.53L1145.35 1113ZM1148.95 1102.74L1147.29 1107.46H1151.25L1149.57 1102.74C1149.45 1102.36 1149.31 1101.92 1149.27 1101.62C1149.21 1101.9 1149.09 1102.34 1148.95 1102.74ZM1163.38 1100.54C1160.48 1100.54 1158.82 1102.64 1158.82 1105.8C1158.82 1109.06 1160.7 1110.84 1163.4 1110.84C1165.94 1110.84 1167.48 1109.44 1167.48 1107.1V1107.04H1163.06V1104.78H1169.86V1113H1167.7L1167.54 1111.32C1166.74 1112.44 1165.08 1113.22 1163.1 1113.22C1159 1113.22 1156.14 1110.24 1156.14 1105.74C1156.14 1101.3 1159.04 1098.14 1163.44 1098.14C1166.78 1098.14 1169.36 1100.08 1169.78 1103.06H1167.08C1166.62 1101.34 1165.14 1100.54 1163.38 1100.54Z" fill="white"/>
</g>
<path d="M149.976 261.76H146.328V259.648H152.232V277H149.976V261.76ZM155.406 268.336C155.406 262.96 158.19 259.312 162.558 259.312C166.902 259.312 169.686 262.96 169.686 268.336C169.686 273.736 167.022 277.312 162.558 277.312C158.07 277.312 155.406 273.736 155.406 268.336ZM157.734 268.336C157.734 272.608 159.51 275.2 162.558 275.2C165.606 275.2 167.358 272.608 167.358 268.336C167.358 264.016 165.606 261.424 162.558 261.424C159.51 261.424 157.734 264.016 157.734 268.336ZM172.047 268.336C172.047 262.96 174.831 259.312 179.199 259.312C183.543 259.312 186.327 262.96 186.327 268.336C186.327 273.736 183.663 277.312 179.199 277.312C174.711 277.312 172.047 273.736 172.047 268.336ZM174.375 268.336C174.375 272.608 176.151 275.2 179.199 275.2C182.247 275.2 183.999 272.608 183.999 268.336C183.999 264.016 182.247 261.424 179.199 261.424C176.151 261.424 174.375 264.016 174.375 268.336Z" fill="white"/>
<path d="M149.555 451.648H161.675V453.808L155.099 469H152.651L159.299 453.808H149.555V451.648ZM168.465 469.288C164.913 469.288 162.609 467.032 162.609 463.576H164.937C164.937 465.808 166.305 467.176 168.513 467.176C170.865 467.176 172.377 465.616 172.377 463.264C172.377 461.032 170.961 459.376 168.537 459.376C167.073 459.376 165.729 460.072 164.937 461.056L162.945 460.552L165.057 451.648H173.745V453.808H166.761L165.609 458.416C166.521 457.72 167.673 457.36 168.969 457.36C172.497 457.36 174.777 459.832 174.777 463.168C174.777 466.768 172.209 469.288 168.465 469.288Z" fill="white"/>
<path d="M154.098 657.288C150.546 657.288 148.242 655.032 148.242 651.576H150.57C150.57 653.808 151.938 655.176 154.146 655.176C156.498 655.176 158.01 653.616 158.01 651.264C158.01 649.032 156.594 647.376 154.17 647.376C152.706 647.376 151.362 648.072 150.57 649.056L148.578 648.552L150.69 639.648H159.378V641.808H152.394L151.242 646.416C152.154 645.72 153.306 645.36 154.602 645.36C158.13 645.36 160.41 647.832 160.41 651.168C160.41 654.768 157.842 657.288 154.098 657.288ZM162.446 648.336C162.446 642.96 165.23 639.312 169.598 639.312C173.942 639.312 176.726 642.96 176.726 648.336C176.726 653.736 174.062 657.312 169.598 657.312C165.11 657.312 162.446 653.736 162.446 648.336ZM164.774 648.336C164.774 652.608 166.55 655.2 169.598 655.2C172.646 655.2 174.398 652.608 174.398 648.336C174.398 644.016 172.646 641.424 169.598 641.424C166.55 641.424 164.774 644.016 164.774 648.336Z" fill="white"/>
<path d="M160.906 850.976L149.194 851V849.2L154.786 844.376C157.594 841.952 158.386 840.776 158.386 838.928C158.386 836.744 157.138 835.448 155.05 835.448C152.914 835.448 151.522 837.008 151.474 839.48H149.122C149.194 835.76 151.546 833.336 155.074 833.336C158.554 833.336 160.786 835.448 160.786 838.784C160.786 841.256 159.562 843.008 156.49 845.672L152.89 848.792H160.906V850.976ZM168.738 851.288C165.186 851.288 162.882 849.032 162.882 845.576H165.21C165.21 847.808 166.578 849.176 168.786 849.176C171.138 849.176 172.65 847.616 172.65 845.264C172.65 843.032 171.234 841.376 168.81 841.376C167.346 841.376 166.002 842.072 165.21 843.056L163.218 842.552L165.33 833.648H174.018V835.808H167.034L165.882 840.416C166.794 839.72 167.946 839.36 169.242 839.36C172.77 839.36 175.05 841.832 175.05 845.168C175.05 848.768 172.482 851.288 168.738 851.288Z" fill="white"/>
<path d="M146.535 1024.34C146.535 1018.96 149.319 1015.31 153.687 1015.31C158.031 1015.31 160.815 1018.96 160.815 1024.34C160.815 1029.74 158.151 1033.31 153.687 1033.31C149.199 1033.31 146.535 1029.74 146.535 1024.34ZM148.863 1024.34C148.863 1028.61 150.639 1031.2 153.687 1031.2C156.735 1031.2 158.487 1028.61 158.487 1024.34C158.487 1020.02 156.735 1017.42 153.687 1017.42C150.639 1017.42 148.863 1020.02 148.863 1024.34ZM163.176 1024.34C163.176 1018.96 165.96 1015.31 170.328 1015.31C174.672 1015.31 177.456 1018.96 177.456 1024.34C177.456 1029.74 174.792 1033.31 170.328 1033.31C165.84 1033.31 163.176 1029.74 163.176 1024.34ZM165.504 1024.34C165.504 1028.61 167.28 1031.2 170.328 1031.2C173.376 1031.2 175.128 1028.61 175.128 1024.34C175.128 1020.02 173.376 1017.42 170.328 1017.42C167.28 1017.42 165.504 1020.02 165.504 1024.34Z" fill="white"/>
<path d="M462.909 188.124C462.899 183.004 467.132 179.435 473.292 179.423C479.212 179.411 482.978 182.683 483.149 187.963L478.029 187.973C477.904 185.453 476.101 183.977 473.221 183.983C470.061 183.989 468.024 185.513 468.029 187.953C468.033 190.033 469.156 191.191 471.597 191.746L476.199 192.737C481.201 193.807 483.646 196.362 483.655 200.722C483.666 206.162 479.434 209.69 472.994 209.703C466.754 209.716 462.667 206.404 462.536 201.165L467.656 201.154C467.701 203.634 469.704 205.11 472.984 205.103C476.384 205.096 478.541 203.612 478.536 201.172C478.532 199.212 477.53 198.054 475.129 197.539L470.487 196.508C465.524 195.439 462.919 192.604 462.909 188.124ZM494.304 209.14L489.424 209.15L489.392 193.47L485.592 193.478L485.584 189.398L489.384 189.39L489.371 183.23L494.251 183.22L494.264 189.38L498.104 189.372L498.112 193.452L494.272 193.46L494.304 209.14ZM506.942 209.634C502.742 209.643 500.177 207.208 500.169 203.488C500.162 199.848 502.797 197.563 507.477 197.193L513.396 196.741L513.395 196.301C513.389 193.621 511.787 192.544 509.307 192.549C506.427 192.555 504.829 193.758 504.834 195.838L500.674 195.847C500.665 191.567 504.179 188.76 509.539 188.749C514.859 188.738 518.145 191.611 518.156 197.091L518.181 209.091L513.901 209.1L513.535 206.181C512.699 208.222 510.022 209.628 506.942 209.634ZM508.534 205.951C511.534 205.945 513.451 204.141 513.444 201.101L513.442 200.061L509.323 200.389C506.284 200.675 505.126 201.678 505.129 203.278C505.133 205.078 506.334 205.955 508.534 205.951ZM529.421 209.068L524.541 209.078L524.509 193.398L520.709 193.406L520.701 189.326L524.501 189.318L524.489 183.158L529.369 183.148L529.381 189.308L533.221 189.3L533.229 193.38L529.389 193.388L529.421 209.068ZM544.941 209.557C539.061 209.569 534.932 205.297 534.92 199.177C534.907 192.977 538.938 188.689 544.738 188.677C550.658 188.665 554.426 192.617 554.439 198.777L554.442 200.257L539.562 200.327C539.929 203.807 541.773 205.563 545.013 205.556C547.693 205.551 549.451 204.507 550.007 202.626L554.527 202.617C553.696 206.939 550.101 209.546 544.941 209.557ZM544.786 192.677C541.906 192.683 540.15 194.246 539.676 197.207L549.596 197.187C549.59 194.467 547.706 192.671 544.786 192.677ZM558.308 200.489L558.299 196.169L571.179 196.143L571.188 200.463L558.308 200.489ZM603.548 194.277C603.566 203.157 597.739 209.409 589.339 209.426C580.979 209.443 575.206 203.255 575.188 194.335C575.17 185.455 580.957 179.203 589.317 179.186C597.677 179.169 603.53 185.357 603.548 194.277ZM598.148 194.288C598.135 188.048 594.687 184.095 589.327 184.106C583.967 184.117 580.535 188.084 580.548 194.324C580.561 200.564 584.009 204.517 589.369 204.506C594.729 204.495 598.161 200.448 598.148 194.288ZM605.623 189.153L608.463 189.147L608.458 186.747C608.447 181.387 611.282 179.141 615.562 179.132C616.322 179.131 617.242 179.169 618.083 179.327L618.091 183.487L616.371 183.491C613.891 183.496 613.294 184.777 613.298 186.737L613.303 189.137L618.023 189.127L618.031 193.207L613.311 193.217L613.343 208.897L608.503 208.907L608.471 193.227L605.631 193.233L605.623 189.153ZM619.675 200.364L619.666 196.044L632.546 196.018L632.555 200.338L619.675 200.364ZM632.686 184.337L632.677 179.617L654.916 179.572L654.926 184.292L646.366 184.309L646.416 208.829L641.296 208.84L641.246 184.32L632.686 184.337ZM663.05 208.795L658.17 208.805L658.109 179.045L663.029 179.035L663.055 191.595C664.291 189.673 666.608 188.428 669.448 188.422C674.328 188.412 676.895 191.487 676.905 196.607L676.93 208.767L672.05 208.777L672.027 197.777C672.021 194.457 670.377 192.86 667.897 192.866C664.817 192.872 663.022 195.035 663.028 197.995L663.05 208.795ZM690.566 209.259C684.686 209.271 680.557 205 680.544 198.88C680.532 192.68 684.563 188.391 690.363 188.38C696.283 188.368 700.051 192.32 700.064 198.48L700.067 199.96L685.187 200.03C685.554 203.51 687.397 205.266 690.637 205.259C693.317 205.254 695.075 204.21 695.631 202.329L700.151 202.32C699.32 206.641 695.726 209.249 690.566 209.259ZM690.411 192.38C687.531 192.385 685.774 193.949 685.3 196.91L695.22 196.89C695.215 194.17 693.331 192.374 690.411 192.38ZM703.933 200.192L703.924 195.872L716.804 195.846L716.813 200.166L703.933 200.192ZM724.261 208.671L718.941 208.681L729.442 179.42L734.682 179.409L745.301 208.628L739.901 208.639L737.527 201.883L726.608 201.906L724.261 208.671ZM731.419 188.136L728.119 197.583L736.039 197.566L732.659 188.133C732.418 187.374 732.136 186.494 732.055 185.895C731.936 186.455 731.698 187.335 731.419 188.136ZM760.607 188.756L760.617 193.276L758.817 193.28C755.297 193.287 753.1 195.172 753.108 199.012L753.128 208.612L748.248 208.622L748.208 188.902L752.808 188.892L753.093 191.772C753.929 189.81 755.807 188.486 758.447 188.481C759.127 188.479 759.807 188.558 760.607 188.756ZM771.452 208.574L766.572 208.584L766.54 192.904L762.74 192.912L762.732 188.832L766.532 188.824L766.519 182.664L771.399 182.654L771.412 188.814L775.252 188.806L775.26 192.886L771.42 192.894L771.452 208.574ZM801.367 198.433L794.927 198.446L794.947 208.526L789.827 208.537L789.767 179.297L801.327 179.273C807.207 179.261 811.015 183.093 811.027 188.813C811.038 194.453 807.207 198.421 801.367 198.433ZM800.337 183.835L794.897 183.846L794.917 193.886L800.277 193.875C803.797 193.868 805.673 191.984 805.667 188.784C805.66 185.584 803.737 183.828 800.337 183.835ZM822.518 208.99C816.638 209.002 812.51 204.73 812.497 198.61C812.485 192.41 816.516 188.122 822.316 188.11C828.236 188.098 832.004 192.051 832.016 198.211L832.019 199.691L817.14 199.761C817.507 203.24 819.35 204.996 822.59 204.99C825.27 204.984 827.028 203.941 827.584 202.06L832.104 202.05C831.273 206.372 827.678 208.979 822.518 208.99ZM822.364 192.11C819.484 192.116 817.727 193.68 817.253 196.641L827.173 196.62C827.168 193.9 825.284 192.104 822.364 192.11ZM848.302 188.577L848.312 193.097L846.512 193.101C842.992 193.108 840.796 194.993 840.803 198.833L840.823 208.433L835.943 208.443L835.903 188.723L840.503 188.713L840.789 191.593C841.625 189.631 843.502 188.307 846.142 188.302C846.822 188.3 847.502 188.379 848.302 188.577ZM850.427 188.653L853.267 188.647L853.262 186.247C853.251 180.887 856.087 178.641 860.367 178.633C861.127 178.631 862.047 178.669 862.887 178.827L862.895 182.987L861.175 182.991C858.695 182.996 858.098 184.277 858.102 186.237L858.107 188.637L862.827 188.628L862.835 192.708L858.115 192.717L858.147 208.397L853.307 208.407L853.275 192.727L850.435 192.733L850.427 188.653ZM864.216 198.465C864.203 192.305 868.635 188.056 874.755 188.043C880.875 188.031 885.323 192.262 885.336 198.422C885.348 204.582 880.917 208.831 874.797 208.843C868.677 208.856 864.228 204.625 864.216 198.465ZM869.096 198.455C869.103 202.055 871.428 204.49 874.788 204.483C878.148 204.476 880.463 202.032 880.456 198.432C880.448 194.832 878.123 192.396 874.763 192.403C871.403 192.41 869.088 194.855 869.096 198.455ZM901.584 188.469L901.593 192.989L899.793 192.992C896.273 192.999 894.077 194.884 894.084 198.724L894.104 208.324L889.224 208.334L889.184 188.614L893.784 188.604L894.07 191.484C894.906 189.522 896.783 188.198 899.423 188.193C900.103 188.192 900.783 188.27 901.584 188.469ZM909.807 208.292L904.927 208.302L904.887 188.542L909.367 188.533L909.772 190.852C910.768 189.21 912.766 187.926 915.606 187.92C918.606 187.914 920.689 189.39 921.733 191.667C922.729 189.385 925.046 187.901 928.046 187.895C932.846 187.885 935.491 190.759 935.501 195.319L935.527 208.239L930.687 208.249L930.663 196.609C930.658 193.769 929.135 192.292 926.815 192.297C924.455 192.302 922.658 193.826 922.664 197.066L922.687 208.265L917.807 208.275L917.783 196.595C917.778 193.835 916.295 192.359 913.975 192.363C911.655 192.368 909.778 193.892 909.784 197.092L909.807 208.292ZM946.199 208.738C941.999 208.746 939.434 206.311 939.426 202.591C939.419 198.951 942.054 196.666 946.733 196.296L952.652 195.844L952.652 195.404C952.646 192.724 951.044 191.648 948.564 191.653C945.684 191.659 944.086 192.862 944.091 194.942L939.931 194.95C939.922 190.67 943.436 187.863 948.796 187.852C954.116 187.841 957.402 190.715 957.413 196.195L957.438 208.195L953.158 208.203L952.792 205.284C951.956 207.326 949.279 208.731 946.199 208.738ZM947.791 205.054C950.791 205.048 952.708 203.244 952.701 200.204L952.699 199.164L948.58 199.493C945.541 199.779 944.383 200.781 944.386 202.381C944.389 204.181 945.591 205.059 947.791 205.054ZM967.112 208.175L962.232 208.185L962.191 188.425L966.711 188.416L967.117 190.975C968.353 188.972 970.75 187.807 973.43 187.802C978.39 187.792 980.956 190.867 980.967 195.987L980.992 208.146L976.112 208.156L976.089 197.156C976.083 193.836 974.439 192.24 971.919 192.245C968.919 192.251 967.084 194.335 967.09 197.535L967.112 208.175ZM984.606 198.219C984.594 192.099 988.625 187.771 994.465 187.759C999.865 187.748 1003.55 190.74 1004.08 195.499L999.201 195.509C998.636 193.27 996.994 192.114 994.674 192.119C991.554 192.125 989.479 194.489 989.486 198.209C989.494 201.929 991.418 204.245 994.538 204.239C996.978 204.234 998.696 203.03 999.212 200.869L1004.13 200.859C1003.54 205.46 999.707 208.628 994.547 208.639C988.547 208.651 984.619 204.499 984.606 198.219ZM1016.62 208.594C1010.74 208.606 1006.61 204.334 1006.6 198.214C1006.59 192.014 1010.62 187.726 1016.42 187.714C1022.34 187.702 1026.11 191.654 1026.12 197.814L1026.12 199.294L1011.24 199.365C1011.61 202.844 1013.45 204.6 1016.69 204.594C1019.37 204.588 1021.13 203.545 1021.69 201.663L1026.21 201.654C1025.37 205.976 1021.78 208.583 1016.62 208.594ZM1016.47 191.714C1013.59 191.72 1011.83 193.284 1011.35 196.244L1021.27 196.224C1021.27 193.504 1019.39 191.708 1016.47 191.714Z" fill="white"/>
<path d="M410.168 1178.86V1202H407.032V1178.86H410.168ZM418.059 1202H415.051V1186.35H417.771L418.091 1188.75C419.083 1186.96 421.067 1185.9 423.275 1185.9C427.403 1185.9 429.291 1188.43 429.291 1192.43V1202H426.283V1193.1C426.283 1189.94 424.811 1188.66 422.507 1188.66C419.691 1188.66 418.059 1190.67 418.059 1193.71V1202ZM431.793 1186.35H434.097V1183.86C434.097 1180.02 436.209 1178.45 439.057 1178.45C439.633 1178.45 440.305 1178.48 440.913 1178.58V1181.17H439.569C437.617 1181.17 437.105 1182.16 437.105 1183.86V1186.35H440.817V1188.88H437.105V1202H434.097V1188.88H431.793V1186.35ZM442.121 1194.16C442.121 1189.33 445.577 1185.94 450.281 1185.94C454.953 1185.94 458.409 1189.33 458.409 1194.16C458.409 1198.99 454.953 1202.38 450.281 1202.38C445.577 1202.38 442.121 1198.99 442.121 1194.16ZM445.161 1194.16C445.161 1197.42 447.241 1199.7 450.281 1199.7C453.289 1199.7 455.401 1197.42 455.401 1194.16C455.401 1190.9 453.289 1188.62 450.281 1188.62C447.241 1188.62 445.161 1190.9 445.161 1194.16ZM470.699 1186.22V1188.98H469.355C466.507 1188.98 464.747 1190.7 464.747 1193.71V1202H461.739V1186.38H464.555L464.747 1188.75C465.387 1187.12 466.955 1186.03 469.099 1186.03C469.643 1186.03 470.091 1186.1 470.699 1186.22ZM476.528 1202H473.52V1186.35H476.208L476.496 1188.4C477.296 1186.93 478.96 1185.9 481.168 1185.9C483.6 1185.9 485.328 1187.12 486.128 1189.07C486.864 1187.12 488.752 1185.9 491.184 1185.9C494.768 1185.9 496.944 1188.14 496.944 1191.76V1202H494V1192.5C494 1190.03 492.624 1188.62 490.512 1188.62C488.24 1188.62 486.736 1190.22 486.736 1192.72V1202H483.76V1192.46C483.76 1190 482.416 1188.66 480.304 1188.66C478.032 1188.66 476.528 1190.22 476.528 1192.72V1202ZM505.69 1202.38C502.33 1202.38 500.346 1200.5 500.346 1197.65C500.346 1194.77 502.49 1192.98 506.17 1192.69L511.098 1192.3V1191.86C511.098 1189.23 509.53 1188.3 507.418 1188.3C504.89 1188.3 503.45 1189.42 503.45 1191.31H500.826C500.826 1188.05 503.514 1185.9 507.546 1185.9C511.418 1185.9 514.042 1187.95 514.042 1192.18V1202H511.482L511.162 1199.47C510.362 1201.26 508.218 1202.38 505.69 1202.38ZM506.554 1200.05C509.402 1200.05 511.13 1198.19 511.13 1195.25V1194.42L507.13 1194.74C504.474 1194.99 503.386 1196.02 503.386 1197.55C503.386 1199.22 504.602 1200.05 506.554 1200.05ZM522.373 1202H519.365V1188.88H516.293V1186.35H519.365V1181.46H522.373V1186.35H525.445V1188.88H522.373V1202ZM529.617 1182.64C528.529 1182.64 527.633 1181.74 527.633 1180.66C527.633 1179.54 528.529 1178.67 529.617 1178.67C530.705 1178.67 531.601 1179.54 531.601 1180.66C531.601 1181.74 530.705 1182.64 529.617 1182.64ZM528.145 1202V1186.35H531.153V1202H528.145ZM534.496 1194.16C534.496 1189.33 537.952 1185.94 542.656 1185.94C547.328 1185.94 550.784 1189.33 550.784 1194.16C550.784 1198.99 547.328 1202.38 542.656 1202.38C537.952 1202.38 534.496 1198.99 534.496 1194.16ZM537.536 1194.16C537.536 1197.42 539.616 1199.7 542.656 1199.7C545.664 1199.7 547.776 1197.42 547.776 1194.16C547.776 1190.9 545.664 1188.62 542.656 1188.62C539.616 1188.62 537.536 1190.9 537.536 1194.16ZM557.122 1202H554.114V1186.35H556.834L557.154 1188.75C558.146 1186.96 560.13 1185.9 562.338 1185.9C566.466 1185.9 568.354 1188.43 568.354 1192.43V1202H565.346V1193.1C565.346 1189.94 563.874 1188.66 561.57 1188.66C558.754 1188.66 557.122 1190.67 557.122 1193.71V1202ZM584.918 1202H581.782V1178.86H590.518C595.478 1178.86 598.422 1181.49 598.422 1185.81C598.422 1189.01 596.822 1191.31 593.942 1192.24L598.646 1202H595.158L590.838 1192.85H584.918V1202ZM584.918 1181.68V1190.06H590.55C593.462 1190.06 595.126 1188.5 595.126 1185.84C595.126 1183.15 593.398 1181.68 590.518 1181.68H584.918ZM607.834 1202.38C603.226 1202.38 600.058 1199.06 600.058 1194.19C600.058 1189.3 603.162 1185.9 607.706 1185.9C612.154 1185.9 615.066 1188.98 615.066 1193.62V1194.74L602.97 1194.77C603.194 1198.06 604.922 1199.89 607.898 1199.89C610.234 1199.89 611.77 1198.93 612.282 1197.14H615.098C614.33 1200.5 611.706 1202.38 607.834 1202.38ZM607.706 1188.43C605.082 1188.43 603.418 1190 603.034 1192.75H612.058C612.058 1190.16 610.362 1188.43 607.706 1188.43ZM622.686 1202H619.678V1188.88H616.606V1186.35H619.678V1181.46H622.686V1186.35H625.758V1188.88H622.686V1202ZM637.417 1186.22V1188.98H636.073C633.225 1188.98 631.465 1190.7 631.465 1193.71V1202H628.457V1186.38H631.273L631.465 1188.75C632.105 1187.12 633.673 1186.03 635.817 1186.03C636.361 1186.03 636.809 1186.1 637.417 1186.22ZM641.711 1182.64C640.623 1182.64 639.727 1181.74 639.727 1180.66C639.727 1179.54 640.623 1178.67 641.711 1178.67C642.799 1178.67 643.695 1179.54 643.695 1180.66C643.695 1181.74 642.799 1182.64 641.711 1182.64ZM640.239 1202V1186.35H643.247V1202H640.239ZM654.366 1202.38C649.758 1202.38 646.59 1199.06 646.59 1194.19C646.59 1189.3 649.694 1185.9 654.238 1185.9C658.686 1185.9 661.597 1188.98 661.597 1193.62V1194.74L649.502 1194.77C649.726 1198.06 651.454 1199.89 654.43 1199.89C656.766 1199.89 658.302 1198.93 658.814 1197.14H661.63C660.862 1200.5 658.238 1202.38 654.366 1202.38ZM654.238 1188.43C651.614 1188.43 649.95 1190 649.566 1192.75H658.59C658.59 1190.16 656.894 1188.43 654.238 1188.43ZM668.81 1202L662.506 1186.35H665.706L669.13 1195.09C669.674 1196.56 670.122 1197.87 670.378 1198.83C670.634 1197.81 671.146 1196.46 671.69 1195.09L675.178 1186.35H678.314L671.786 1202H668.81ZM684.565 1202.38C681.205 1202.38 679.221 1200.5 679.221 1197.65C679.221 1194.77 681.365 1192.98 685.045 1192.69L689.973 1192.3V1191.86C689.973 1189.23 688.405 1188.3 686.293 1188.3C683.765 1188.3 682.325 1189.42 682.325 1191.31H679.701C679.701 1188.05 682.389 1185.9 686.421 1185.9C690.293 1185.9 692.917 1187.95 692.917 1192.18V1202H690.357L690.037 1199.47C689.237 1201.26 687.093 1202.38 684.565 1202.38ZM685.429 1200.05C688.277 1200.05 690.005 1198.19 690.005 1195.25V1194.42L686.005 1194.74C683.349 1194.99 682.261 1196.02 682.261 1197.55C682.261 1199.22 683.477 1200.05 685.429 1200.05ZM700.154 1202H697.146V1178.45H700.154V1202ZM712.5 1185.1C712.5 1181.14 715.7 1178.45 720.468 1178.45C724.884 1178.45 727.732 1180.91 727.988 1184.91H724.82C724.66 1182.61 723.028 1181.26 720.436 1181.26C717.524 1181.26 715.636 1182.74 715.636 1185.01C715.636 1186.86 716.692 1187.98 718.868 1188.5L722.676 1189.39C726.452 1190.26 728.372 1192.3 728.372 1195.57C728.372 1199.73 725.14 1202.38 720.212 1202.38C715.508 1202.38 712.372 1199.92 712.18 1195.95H715.38C715.444 1198.16 717.3 1199.57 720.212 1199.57C723.284 1199.57 725.236 1198.13 725.236 1195.82C725.236 1194 724.244 1192.85 722.036 1192.34L718.228 1191.47C714.452 1190.61 712.5 1188.43 712.5 1185.1ZM730.777 1194.19C730.777 1189.3 733.881 1185.9 738.457 1185.9C742.393 1185.9 745.145 1188.14 745.689 1191.63H742.681C742.169 1189.65 740.569 1188.59 738.553 1188.59C735.705 1188.59 733.753 1190.77 733.753 1194.16C733.753 1197.52 735.577 1199.7 738.425 1199.7C740.569 1199.7 742.169 1198.58 742.713 1196.72H745.721C745.113 1200.11 742.201 1202.38 738.425 1202.38C733.817 1202.38 730.777 1199.12 730.777 1194.19ZM747.871 1194.16C747.871 1189.33 751.327 1185.94 756.031 1185.94C760.703 1185.94 764.159 1189.33 764.159 1194.16C764.159 1198.99 760.703 1202.38 756.031 1202.38C751.327 1202.38 747.871 1198.99 747.871 1194.16ZM750.911 1194.16C750.911 1197.42 752.991 1199.7 756.031 1199.7C759.039 1199.7 761.151 1197.42 761.151 1194.16C761.151 1190.9 759.039 1188.62 756.031 1188.62C752.991 1188.62 750.911 1190.9 750.911 1194.16ZM776.449 1186.22V1188.98H775.105C772.257 1188.98 770.497 1190.7 770.497 1193.71V1202H767.489V1186.38H770.305L770.497 1188.75C771.137 1187.12 772.705 1186.03 774.849 1186.03C775.393 1186.03 775.841 1186.1 776.449 1186.22ZM785.459 1202.38C780.851 1202.38 777.683 1199.06 777.683 1194.19C777.683 1189.3 780.787 1185.9 785.331 1185.9C789.779 1185.9 792.691 1188.98 792.691 1193.62V1194.74L780.595 1194.77C780.819 1198.06 782.547 1199.89 785.523 1199.89C787.859 1199.89 789.395 1198.93 789.907 1197.14H792.723C791.955 1200.5 789.331 1202.38 785.459 1202.38ZM785.331 1188.43C782.707 1188.43 781.043 1190 780.659 1192.75H789.683C789.683 1190.16 787.987 1188.43 785.331 1188.43ZM794.771 1197.46H797.651C797.651 1199.06 798.867 1200.02 800.851 1200.02C802.963 1200.02 804.179 1199.15 804.179 1197.71C804.179 1196.66 803.667 1196.02 802.035 1195.6L799.283 1194.96C796.499 1194.29 795.187 1192.91 795.187 1190.61C795.187 1187.73 797.619 1185.9 801.075 1185.9C804.499 1185.9 806.739 1187.82 806.803 1190.8H803.923C803.859 1189.23 802.803 1188.24 800.979 1188.24C799.091 1188.24 798.035 1189.07 798.035 1190.51C798.035 1191.57 798.803 1192.27 800.339 1192.66L803.091 1193.33C805.747 1193.97 807.059 1195.18 807.059 1197.52C807.059 1200.5 804.499 1202.38 800.787 1202.38C797.107 1202.38 794.771 1200.43 794.771 1197.46ZM818.121 1194.16C818.121 1189.33 821.577 1185.94 826.281 1185.94C830.953 1185.94 834.409 1189.33 834.409 1194.16C834.409 1198.99 830.953 1202.38 826.281 1202.38C821.577 1202.38 818.121 1198.99 818.121 1194.16ZM821.161 1194.16C821.161 1197.42 823.241 1199.7 826.281 1199.7C829.289 1199.7 831.401 1197.42 831.401 1194.16C831.401 1190.9 829.289 1188.62 826.281 1188.62C823.241 1188.62 821.161 1190.9 821.161 1194.16ZM840.747 1202H837.739V1186.35H840.459L840.779 1188.75C841.771 1186.96 843.755 1185.9 845.963 1185.9C850.091 1185.9 851.979 1188.43 851.979 1192.43V1202H848.971V1193.1C848.971 1189.94 847.499 1188.66 845.195 1188.66C842.379 1188.66 840.747 1190.67 840.747 1193.71V1202ZM874.399 1193.74H868.543V1202H865.407V1178.86H874.399C878.943 1178.86 881.855 1181.84 881.855 1186.29C881.855 1190.61 878.911 1193.74 874.399 1193.74ZM873.855 1181.68H868.543V1190.93H873.727C876.831 1190.93 878.559 1189.1 878.559 1186.26C878.559 1183.34 876.799 1181.68 873.855 1181.68ZM883.152 1194.16C883.152 1189.33 886.608 1185.94 891.312 1185.94C895.984 1185.94 899.44 1189.33 899.44 1194.16C899.44 1198.99 895.984 1202.38 891.312 1202.38C886.608 1202.38 883.152 1198.99 883.152 1194.16ZM886.192 1194.16C886.192 1197.42 888.272 1199.7 891.312 1199.7C894.32 1199.7 896.432 1197.42 896.432 1194.16C896.432 1190.9 894.32 1188.62 891.312 1188.62C888.272 1188.62 886.192 1190.9 886.192 1194.16ZM902.77 1209.01V1186.35H905.49L905.714 1189.17C906.77 1187.02 908.882 1185.9 911.378 1185.9C915.858 1185.9 918.642 1189.26 918.642 1194.06C918.642 1198.83 916.018 1202.42 911.378 1202.42C908.882 1202.42 906.802 1201.36 905.778 1199.44V1209.01H902.77ZM905.81 1194.19C905.81 1197.39 907.666 1199.7 910.738 1199.7C913.81 1199.7 915.634 1197.39 915.634 1194.19C915.634 1190.96 913.81 1188.66 910.738 1188.66C907.666 1188.66 905.81 1190.93 905.81 1194.19ZM940.709 1203.54L938.213 1200.72C936.485 1201.78 934.437 1202.38 932.165 1202.38C925.637 1202.38 921.093 1197.46 921.093 1190.42C921.093 1183.41 925.669 1178.45 932.197 1178.45C938.757 1178.45 943.333 1183.38 943.333 1190.42C943.333 1193.87 942.213 1196.82 940.325 1198.93L942.757 1201.68L940.709 1203.54ZM940.037 1190.42C940.037 1185.04 936.901 1181.49 932.197 1181.49C927.493 1181.49 924.389 1185.04 924.389 1190.42C924.389 1195.79 927.493 1199.38 932.197 1199.38C933.669 1199.38 934.981 1199.02 936.101 1198.35L933.061 1194.93L935.109 1193.07L938.181 1196.53C939.365 1194.99 940.037 1192.88 940.037 1190.42ZM947.617 1202H944.353L952.801 1178.86H956.289L964.769 1202H961.473L959.393 1196.24H949.665L947.617 1202ZM954.145 1183.86L950.625 1193.52H958.465L954.913 1183.86C954.753 1183.41 954.593 1182.86 954.529 1182.51C954.465 1182.83 954.305 1183.38 954.145 1183.86ZM984.242 1202H976.594V1178.86H984.114C991.026 1178.86 995.698 1183.54 995.698 1190.45C995.698 1197.33 991.09 1202 984.242 1202ZM983.89 1181.74H979.73V1199.09H984.018C989.17 1199.09 992.434 1195.76 992.434 1190.45C992.434 1185.07 989.17 1181.74 983.89 1181.74ZM1003.75 1202.38C1000.39 1202.38 998.408 1200.5 998.408 1197.65C998.408 1194.77 1000.55 1192.98 1004.23 1192.69L1009.16 1192.3V1191.86C1009.16 1189.23 1007.59 1188.3 1005.48 1188.3C1002.95 1188.3 1001.51 1189.42 1001.51 1191.31H998.888C998.888 1188.05 1001.58 1185.9 1005.61 1185.9C1009.48 1185.9 1012.1 1187.95 1012.1 1192.18V1202H1009.54L1009.22 1199.47C1008.42 1201.26 1006.28 1202.38 1003.75 1202.38ZM1004.62 1200.05C1007.46 1200.05 1009.19 1198.19 1009.19 1195.25V1194.42L1005.19 1194.74C1002.54 1194.99 1001.45 1196.02 1001.45 1197.55C1001.45 1199.22 1002.66 1200.05 1004.62 1200.05ZM1020.44 1202H1017.43V1188.88H1014.36V1186.35H1017.43V1181.46H1020.44V1186.35H1023.51V1188.88H1020.44V1202ZM1030.6 1202.38C1027.24 1202.38 1025.25 1200.5 1025.25 1197.65C1025.25 1194.77 1027.4 1192.98 1031.08 1192.69L1036 1192.3V1191.86C1036 1189.23 1034.44 1188.3 1032.32 1188.3C1029.8 1188.3 1028.36 1189.42 1028.36 1191.31H1025.73C1025.73 1188.05 1028.42 1185.9 1032.45 1185.9C1036.32 1185.9 1038.95 1187.95 1038.95 1192.18V1202H1036.39L1036.07 1199.47C1035.27 1201.26 1033.12 1202.38 1030.6 1202.38ZM1031.46 1200.05C1034.31 1200.05 1036.04 1198.19 1036.04 1195.25V1194.42L1032.04 1194.74C1029.38 1194.99 1028.29 1196.02 1028.29 1197.55C1028.29 1199.22 1029.51 1200.05 1031.46 1200.05ZM1041.83 1197.46H1044.71C1044.71 1199.06 1045.93 1200.02 1047.91 1200.02C1050.03 1200.02 1051.24 1199.15 1051.24 1197.71C1051.24 1196.66 1050.73 1196.02 1049.1 1195.6L1046.35 1194.96C1043.56 1194.29 1042.25 1192.91 1042.25 1190.61C1042.25 1187.73 1044.68 1185.9 1048.14 1185.9C1051.56 1185.9 1053.8 1187.82 1053.87 1190.8H1050.99C1050.92 1189.23 1049.87 1188.24 1048.04 1188.24C1046.15 1188.24 1045.1 1189.07 1045.1 1190.51C1045.1 1191.57 1045.87 1192.27 1047.4 1192.66L1050.15 1193.33C1052.81 1193.97 1054.12 1195.18 1054.12 1197.52C1054.12 1200.5 1051.56 1202.38 1047.85 1202.38C1044.17 1202.38 1041.83 1200.43 1041.83 1197.46ZM1064.21 1202.38C1059.6 1202.38 1056.43 1199.06 1056.43 1194.19C1056.43 1189.3 1059.54 1185.9 1064.08 1185.9C1068.53 1185.9 1071.44 1188.98 1071.44 1193.62V1194.74L1059.35 1194.77C1059.57 1198.06 1061.3 1199.89 1064.27 1199.89C1066.61 1199.89 1068.15 1198.93 1068.66 1197.14H1071.47C1070.71 1200.5 1068.08 1202.38 1064.21 1202.38ZM1064.08 1188.43C1061.46 1188.43 1059.79 1190 1059.41 1192.75H1068.43C1068.43 1190.16 1066.74 1188.43 1064.08 1188.43ZM1079.06 1202H1076.05V1188.88H1072.98V1186.35H1076.05V1181.46H1079.06V1186.35H1082.13V1188.88H1079.06V1202Z" fill="white"/>
<path d="M1206.26 516.077L1206.88 516.859L1206.26 516.077ZM1258.21 512.207C1258.6 511.817 1258.6 511.183 1258.21 510.793L1251.84 504.429C1251.45 504.038 1250.82 504.038 1250.43 504.429C1250.04 504.819 1250.04 505.453 1250.43 505.843L1256.09 511.5L1250.43 517.157C1250.04 517.547 1250.04 518.181 1250.43 518.571C1250.82 518.962 1251.45 518.962 1251.84 518.571L1258.21 512.207ZM1148 562.5L1148.62 563.282L1206.88 516.859L1206.26 516.077L1205.63 515.295L1147.38 561.718L1148 562.5ZM1219.34 511.5V512.5H1257.5V511.5V510.5H1219.34V511.5ZM1206.26 516.077L1206.88 516.859C1210.42 514.037 1214.82 512.5 1219.34 512.5V511.5V510.5C1214.36 510.5 1209.53 512.19 1205.63 515.295L1206.26 516.077Z" fill="url(#paint4_linear_34_73)"/>
<path d="M1265.91 504.214C1265.9 499.606 1269.71 496.394 1275.25 496.383C1280.58 496.372 1283.97 499.317 1284.12 504.069L1279.51 504.078C1279.4 501.811 1277.78 500.482 1275.19 500.487C1272.34 500.493 1270.51 501.865 1270.51 504.061C1270.52 505.933 1271.53 506.975 1273.72 507.474L1277.87 508.366C1282.37 509.329 1284.57 511.628 1284.58 515.552C1284.59 520.448 1280.78 523.624 1274.98 523.636C1269.37 523.647 1265.69 520.667 1265.57 515.951L1270.18 515.941C1270.22 518.173 1272.02 519.502 1274.97 519.496C1278.03 519.489 1279.97 518.153 1279.97 515.957C1279.97 514.193 1279.06 513.151 1276.9 512.688L1272.73 511.76C1268.26 510.797 1265.91 508.246 1265.91 504.214ZM1312.75 509.914C1312.76 517.906 1307.52 523.533 1299.96 523.549C1292.43 523.564 1287.24 517.995 1287.22 509.967C1287.21 501.975 1292.41 496.348 1299.94 496.333C1307.46 496.317 1312.73 501.887 1312.75 509.914ZM1307.89 509.924C1307.87 504.308 1304.77 500.751 1299.95 500.761C1295.12 500.77 1292.03 504.341 1292.05 509.957C1292.06 515.573 1295.16 519.13 1299.98 519.121C1304.81 519.111 1307.9 515.468 1307.89 509.924ZM1313.8 501.02L1313.79 496.772L1333.81 496.731L1333.81 500.979L1326.11 500.995L1326.16 523.063L1321.55 523.073L1321.5 501.005L1313.8 501.02ZM1337.29 523.04L1332.51 523.05L1341.96 496.715L1346.67 496.705L1356.23 523.002L1351.37 523.012L1349.23 516.932L1339.41 516.952L1337.29 523.04ZM1343.74 504.559L1340.77 513.061L1347.89 513.047L1344.85 504.557C1344.64 503.873 1344.38 503.082 1344.31 502.542C1344.2 503.046 1343.99 503.839 1343.74 504.559Z" fill="white"/>
<defs>
<filter id="filter0_d_34_73" x="185.647" y="235" width="43" height="824.437" filterUnits="userSpaceOnUse" color-interpolation-filters="sRGB">
<feFlood flood-opacity="0" result="BackgroundImageFix"/>
<feColorMatrix in="SourceAlpha" type="matrix" values="0 0 0 0 0 0 0 0 0 0 0 0 0 0 0 0 0 0 127 0" result="hardAlpha"/>
<feMorphology radius="1" operator="dilate" in="SourceAlpha" result="effect1_dropShadow_34_73"/>
<feOffset dy="4"/>
<feGaussianBlur stdDeviation="10"/>
<feComposite in2="hardAlpha" operator="out"/>
<feColorMatrix type="matrix" values="0 0 0 0 0.894118 0 0 0 0 0.403922 0 0 0 0 0.00784314 0 0 0 1 0"/>
<feBlend mode="normal" in2="BackgroundImageFix" result="effect1_dropShadow_34_73"/>
<feBlend mode="normal" in="SourceGraphic" in2="effect1_dropShadow_34_73" result="shape"/>
</filter>
<filter id="filter1_d_34_73" x="185.647" y="1016.44" width="1137.35" height="43" filterUnits="userSpaceOnUse" color-interpolation-filters="sRGB">
<feFlood flood-opacity="0" result="BackgroundImageFix"/>
<feColorMatrix in="SourceAlpha" type="matrix" values="0 0 0 0 0 0 0 0 0 0 0 0 0 0 0 0 0 0 127 0" result="hardAlpha"/>
<feMorphology radius="1" operator="dilate" in="SourceAlpha" result="effect1_dropShadow_34_73"/>
<feOffset dy="4"/>
<feGaussianBlur stdDeviation="10"/>
<feComposite in2="hardAlpha" operator="out"/>
<feColorMatrix type="matrix" values="0 0 0 0 0.894118 0 0 0 0 0.403922 0 0 0 0 0.00784314 0 0 0 1 0"/>
<feBlend mode="normal" in2="BackgroundImageFix" result="effect1_dropShadow_34_73"/>
<feBlend mode="normal" in="SourceGraphic" in2="effect1_dropShadow_34_73" result="shape"/>
</filter>
<filter id="filter2_dii_34_73" x="298.5" y="615.2" width="120.5" height="426.8" filterUnits="userSpaceOnUse" color-interpolation-filters="sRGB">
<feFlood flood-opacity="0" result="BackgroundImageFix"/>
<feColorMatrix in="SourceAlpha" type="matrix" values="0 0 0 0 0 0 0 0 0 0 0 0 0 0 0 0 0 0 127 0" result="hardAlpha"/>
<feOffset dy="4"/>
<feGaussianBlur stdDeviation="2"/>
<feComposite in2="hardAlpha" operator="out"/>
<feColorMatrix type="matrix" values="0 0 0 0 0 0 0 0 0 0 0 0 0 0 0 0 0 0 0.25 0"/>
<feBlend mode="normal" in2="BackgroundImageFix" result="effect1_dropShadow_34_73"/>
<feBlend mode="normal" in="SourceGraphic" in2="effect1_dropShadow_34_73" result="shape"/>
<feColorMatrix in="SourceAlpha" type="matrix" values="0 0 0 0 0 0 0 0 0 0 0 0 0 0 0 0 0 0 127 0" result="hardAlpha"/>
<feMorphology radius="13" operator="dilate" in="SourceAlpha" result="effect2_innerShadow_34_73"/>
<feOffset dx="-17" dy="18"/>
<feGaussianBlur stdDeviation="9.25"/>
<feComposite in2="hardAlpha" operator="arithmetic" k2="-1" k3="1"/>
<feColorMatrix type="matrix" values="0 0 0 0 1 0 0 0 0 1 0 0 0 0 1 0 0 0 0.17 0"/>
<feBlend mode="normal" in2="shape" result="effect2_innerShadow_34_73"/>
<feColorMatrix in="SourceAlpha" type="matrix" values="0 0 0 0 0 0 0 0 0 0 0 0 0 0 0 0 0 0 127 0" result="hardAlpha"/>
<feOffset dx="3" dy="-10"/>
<feGaussianBlur stdDeviation="4.9"/>
<feComposite in2="hardAlpha" operator="arithmetic" k2="-1" k3="1"/>
<feColorMatrix type="matrix" values="0 0 0 0 0.040064 0 0 0 0 0.0362942 0 0 0 0 0.0312679 0 0 0 0.4 0"/>
<feBlend mode="normal" in2="effect2_innerShadow_34_73" result="effect3_innerShadow_34_73"/>
</filter>
<filter id="filter3_dii_34_73" x="554.5" y="599.2" width="118.5" height="442.8" filterUnits="userSpaceOnUse" color-interpolation-filters="sRGB">
<feFlood flood-opacity="0" result="BackgroundImageFix"/>
<feColorMatrix in="SourceAlpha" type="matrix" values="0 0 0 0 0 0 0 0 0 0 0 0 0 0 0 0 0 0 127 0" result="hardAlpha"/>
<feOffset dy="4"/>
<feGaussianBlur stdDeviation="2"/>
<feComposite in2="hardAlpha" operator="out"/>
<feColorMatrix type="matrix" values="0 0 0 0 0 0 0 0 0 0 0 0 0 0 0 0 0 0 0.25 0"/>
<feBlend mode="normal" in2="BackgroundImageFix" result="effect1_dropShadow_34_73"/>
<feBlend mode="normal" in="SourceGraphic" in2="effect1_dropShadow_34_73" result="shape"/>
<feColorMatrix in="SourceAlpha" type="matrix" values="0 0 0 0 0 0 0 0 0 0 0 0 0 0 0 0 0 0 127 0" result="hardAlpha"/>
<feMorphology radius="13" operator="dilate" in="SourceAlpha" result="effect2_innerShadow_34_73"/>
<feOffset dx="-17" dy="18"/>
<feGaussianBlur stdDeviation="9.25"/>
<feComposite in2="hardAlpha" operator="arithmetic" k2="-1" k3="1"/>
<feColorMatrix type="matrix" values="0 0 0 0 1 0 0 0 0 1 0 0 0 0 1 0 0 0 0.17 0"/>
<feBlend mode="normal" in2="shape" result="effect2_innerShadow_34_73"/>
<feColorMatrix in="SourceAlpha" type="matrix" values="0 0 0 0 0 0 0 0 0 0 0 0 0 0 0 0 0 0 127 0" result="hardAlpha"/>
<feOffset dx="3" dy="-10"/>
<feGaussianBlur stdDeviation="4.9"/>
<feComposite in2="hardAlpha" operator="arithmetic" k2="-1" k3="1"/>
<feColorMatrix type="matrix" values="0 0 0 0 0.040064 0 0 0 0 0.0362942 0 0 0 0 0.0312679 0 0 0 0.4 0"/>
<feBlend mode="normal" in2="effect2_innerShadow_34_73" result="effect3_innerShadow_34_73"/>
</filter>
<filter id="filter4_dii_34_73" x="814.5" y="533.2" width="118.5" height="508.8" filterUnits="userSpaceOnUse" color-interpolation-filters="sRGB">
<feFlood flood-opacity="0" result="BackgroundImageFix"/>
<feColorMatrix in="SourceAlpha" type="matrix" values="0 0 0 0 0 0 0 0 0 0 0 0 0 0 0 0 0 0 127 0" result="hardAlpha"/>
<feOffset dy="4"/>
<feGaussianBlur stdDeviation="2"/>
<feComposite in2="hardAlpha" operator="out"/>
<feColorMatrix type="matrix" values="0 0 0 0 0 0 0 0 0 0 0 0 0 0 0 0 0 0 0.25 0"/>
<feBlend mode="normal" in2="BackgroundImageFix" result="effect1_dropShadow_34_73"/>
<feBlend mode="normal" in="SourceGraphic" in2="effect1_dropShadow_34_73" result="shape"/>
<feColorMatrix in="SourceAlpha" type="matrix" values="0 0 0 0 0 0 0 0 0 0 0 0 0 0 0 0 0 0 127 0" result="hardAlpha"/>
<feMorphology radius="13" operator="dilate" in="SourceAlpha" result="effect2_innerShadow_34_73"/>
<feOffset dx="-17" dy="18"/>
<feGaussianBlur stdDeviation="9.25"/>
<feComposite in2="hardAlpha" operator="arithmetic" k2="-1" k3="1"/>
<feColorMatrix type="matrix" values="0 0 0 0 1 0 0 0 0 1 0 0 0 0 1 0 0 0 0.17 0"/>
<feBlend mode="normal" in2="shape" result="effect2_innerShadow_34_73"/>
<feColorMatrix in="SourceAlpha" type="matrix" values="0 0 0 0 0 0 0 0 0 0 0 0 0 0 0 0 0 0 127 0" result="hardAlpha"/>
<feOffset dx="3" dy="-10"/>
<feGaussianBlur stdDeviation="4.9"/>
<feComposite in2="hardAlpha" operator="arithmetic" k2="-1" k3="1"/>
<feColorMatrix type="matrix" values="0 0 0 0 0.040064 0 0 0 0 0.0362942 0 0 0 0 0.0312679 0 0 0 0.4 0"/>
<feBlend mode="normal" in2="effect2_innerShadow_34_73" result="effect3_innerShadow_34_73"/>
</filter>
<filter id="filter5_dii_34_73" x="1064.5" y="371.2" width="119.5" height="670.8" filterUnits="userSpaceOnUse" color-interpolation-filters="sRGB">
<feFlood flood-opacity="0" result="BackgroundImageFix"/>
<feColorMatrix in="SourceAlpha" type="matrix" values="0 0 0 0 0 0 0 0 0 0 0 0 0 0 0 0 0 0 127 0" result="hardAlpha"/>
<feOffset dy="4"/>
<feGaussianBlur stdDeviation="2"/>
<feComposite in2="hardAlpha" operator="out"/>
<feColorMatrix type="matrix" values="0 0 0 0 0 0 0 0 0 0 0 0 0 0 0 0 0 0 0.25 0"/>
<feBlend mode="normal" in2="BackgroundImageFix" result="effect1_dropShadow_34_73"/>
<feBlend mode="normal" in="SourceGraphic" in2="effect1_dropShadow_34_73" result="shape"/>
<feColorMatrix in="SourceAlpha" type="matrix" values="0 0 0 0 0 0 0 0 0 0 0 0 0 0 0 0 0 0 127 0" result="hardAlpha"/>
<feMorphology radius="13" operator="dilate" in="SourceAlpha" result="effect2_innerShadow_34_73"/>
<feOffset dx="-17" dy="18"/>
<feGaussianBlur stdDeviation="9.25"/>
<feComposite in2="hardAlpha" operator="arithmetic" k2="-1" k3="1"/>
<feColorMatrix type="matrix" values="0 0 0 0 1 0 0 0 0 1 0 0 0 0 1 0 0 0 0.17 0"/>
<feBlend mode="normal" in2="shape" result="effect2_innerShadow_34_73"/>
<feColorMatrix in="SourceAlpha" type="matrix" values="0 0 0 0 0 0 0 0 0 0 0 0 0 0 0 0 0 0 127 0" result="hardAlpha"/>
<feOffset dx="3" dy="-10"/>
<feGaussianBlur stdDeviation="4.9"/>
<feComposite in2="hardAlpha" operator="arithmetic" k2="-1" k3="1"/>
<feColorMatrix type="matrix" values="0 0 0 0 0.040064 0 0 0 0 0.0362942 0 0 0 0 0.0312679 0 0 0 0.4 0"/>
<feBlend mode="normal" in2="effect2_innerShadow_34_73" result="effect3_innerShadow_34_73"/>
</filter>
<filter id="filter6_d_34_73" x="325.413" y="587.434" width="65.2203" height="39.5201" filterUnits="userSpaceOnUse" color-interpolation-filters="sRGB">
<feFlood flood-opacity="0" result="BackgroundImageFix"/>
<feColorMatrix in="SourceAlpha" type="matrix" values="0 0 0 0 0 0 0 0 0 0 0 0 0 0 0 0 0 0 127 0" result="hardAlpha"/>
<feOffset dy="4"/>
<feGaussianBlur stdDeviation="6.1"/>
<feComposite in2="hardAlpha" operator="out"/>
<feColorMatrix type="matrix" values="0 0 0 0 0.341346 0 0 0 0 0.341346 0 0 0 0 0.341346 0 0 0 0.9 0"/>
<feBlend mode="normal" in2="BackgroundImageFix" result="effect1_dropShadow_34_73"/>
<feBlend mode="normal" in="SourceGraphic" in2="effect1_dropShadow_34_73" result="shape"/>
</filter>
<filter id="filter7_d_34_73" x="581.591" y="571.347" width="64.9352" height="39.5201" filterUnits="userSpaceOnUse" color-interpolation-filters="sRGB">
<feFlood flood-opacity="0" result="BackgroundImageFix"/>
<feColorMatrix in="SourceAlpha" type="matrix" values="0 0 0 0 0 0 0 0 0 0 0 0 0 0 0 0 0 0 127 0" result="hardAlpha"/>
<feOffset dy="4"/>
<feGaussianBlur stdDeviation="6.1"/>
<feComposite in2="hardAlpha" operator="out"/>
<feColorMatrix type="matrix" values="0 0 0 0 0.341346 0 0 0 0 0.341346 0 0 0 0 0.341346 0 0 0 0.9 0"/>
<feBlend mode="normal" in2="BackgroundImageFix" result="effect1_dropShadow_34_73"/>
<feBlend mode="normal" in="SourceGraphic" in2="effect1_dropShadow_34_73" result="shape"/>
</filter>
<filter id="filter8_d_34_73" x="837.288" y="504.902" width="65.7311" height="39.5396" filterUnits="userSpaceOnUse" color-interpolation-filters="sRGB">
<feFlood flood-opacity="0" result="BackgroundImageFix"/>
<feColorMatrix in="SourceAlpha" type="matrix" values="0 0 0 0 0 0 0 0 0 0 0 0 0 0 0 0 0 0 127 0" result="hardAlpha"/>
<feOffset dy="4"/>
<feGaussianBlur stdDeviation="6.1"/>
<feComposite in2="hardAlpha" operator="out"/>
<feColorMatrix type="matrix" values="0 0 0 0 0.341346 0 0 0 0 0.341346 0 0 0 0 0.341346 0 0 0 0.9 0"/>
<feBlend mode="normal" in2="BackgroundImageFix" result="effect1_dropShadow_34_73"/>
<feBlend mode="normal" in="SourceGraphic" in2="effect1_dropShadow_34_73" result="shape"/>
</filter>
<filter id="filter9_d_34_73" x="1093.77" y="341.59" width="58.1617" height="39.5201" filterUnits="userSpaceOnUse" color-interpolation-filters="sRGB">
<feFlood flood-opacity="0" result="BackgroundImageFix"/>
<feColorMatrix in="SourceAlpha" type="matrix" values="0 0 0 0 0 0 0 0 0 0 0 0 0 0 0 0 0 0 127 0" result="hardAlpha"/>
<feOffset dy="4"/>
<feGaussianBlur stdDeviation="6.1"/>
<feComposite in2="hardAlpha" operator="out"/>
<feColorMatrix type="matrix" values="0 0 0 0 0.341346 0 0 0 0 0.341346 0 0 0 0 0.341346 0 0 0 0.9 0"/>
<feBlend mode="normal" in2="BackgroundImageFix" result="effect1_dropShadow_34_73"/>
<feBlend mode="normal" in="SourceGraphic" in2="effect1_dropShadow_34_73" result="shape"/>
</filter>
<filter id="filter10_d_34_73" x="294.808" y="1062.92" width="131.282" height="39.5396" filterUnits="userSpaceOnUse" color-interpolation-filters="sRGB">
<feFlood flood-opacity="0" result="BackgroundImageFix"/>
<feColorMatrix in="SourceAlpha" type="matrix" values="0 0 0 0 0 0 0 0 0 0 0 0 0 0 0 0 0 0 127 0" result="hardAlpha"/>
<feOffset dy="4"/>
<feGaussianBlur stdDeviation="6.1"/>
<feComposite in2="hardAlpha" operator="out"/>
<feColorMatrix type="matrix" values="0 0 0 0 0.341346 0 0 0 0 0.341346 0 0 0 0 0.341346 0 0 0 0.9 0"/>
<feBlend mode="normal" in2="BackgroundImageFix" result="effect1_dropShadow_34_73"/>
<feBlend mode="normal" in="SourceGraphic" in2="effect1_dropShadow_34_73" result="shape"/>
</filter>
<filter id="filter11_d_34_73" x="543.421" y="1062.92" width="139.055" height="39.5396" filterUnits="userSpaceOnUse" color-interpolation-filters="sRGB">
<feFlood flood-opacity="0" result="BackgroundImageFix"/>
<feColorMatrix in="SourceAlpha" type="matrix" values="0 0 0 0 0 0 0 0 0 0 0 0 0 0 0 0 0 0 127 0" result="hardAlpha"/>
<feOffset dy="4"/>
<feGaussianBlur stdDeviation="6.1"/>
<feComposite in2="hardAlpha" operator="out"/>
<feColorMatrix type="matrix" values="0 0 0 0 0.341346 0 0 0 0 0.341346 0 0 0 0 0.341346 0 0 0 0.9 0"/>
<feBlend mode="normal" in2="BackgroundImageFix" result="effect1_dropShadow_34_73"/>
<feBlend mode="normal" in="SourceGraphic" in2="effect1_dropShadow_34_73" result="shape"/>
</filter>
<filter id="filter12_d_34_73" x="804.586" y="1062.92" width="125.463" height="39.5396" filterUnits="userSpaceOnUse" color-interpolation-filters="sRGB">
<feFlood flood-opacity="0" result="BackgroundImageFix"/>
<feColorMatrix in="SourceAlpha" type="matrix" values="0 0 0 0 0 0 0 0 0 0 0 0 0 0 0 0 0 0 127 0" result="hardAlpha"/>
<feOffset dy="4"/>
<feGaussianBlur stdDeviation="6.1"/>
<feComposite in2="hardAlpha" operator="out"/>
<feColorMatrix type="matrix" values="0 0 0 0 0.341346 0 0 0 0 0.341346 0 0 0 0 0.341346 0 0 0 0.9 0"/>
<feBlend mode="normal" in2="BackgroundImageFix" result="effect1_dropShadow_34_73"/>
<feBlend mode="normal" in="SourceGraphic" in2="effect1_dropShadow_34_73" result="shape"/>
</filter>
<filter id="filter13_d_34_73" x="1064.29" y="1062.92" width="120.388" height="66.5001" filterUnits="userSpaceOnUse" color-interpolation-filters="sRGB">
<feFlood flood-opacity="0" result="BackgroundImageFix"/>
<feColorMatrix in="SourceAlpha" type="matrix" values="0 0 0 0 0 0 0 0 0 0 0 0 0 0 0 0 0 0 127 0" result="hardAlpha"/>
<feOffset dy="4"/>
<feGaussianBlur stdDeviation="6.1"/>
<feComposite in2="hardAlpha" operator="out"/>
<feColorMatrix type="matrix" values="0 0 0 0 0.341346 0 0 0 0 0.341346 0 0 0 0 0.341346 0 0 0 0.9 0"/>
<feBlend mode="normal" in2="BackgroundImageFix" result="effect1_dropShadow_34_73"/>
<feBlend mode="normal" in="SourceGraphic" in2="effect1_dropShadow_34_73" result="shape"/>
</filter>
<linearGradient id="paint0_linear_34_73" x1="358.362" y1="1034" x2="365.715" y2="625.091" gradientUnits="userSpaceOnUse">
<stop stop-color="#0B0601"/>
<stop offset="0.485577" stop-color="#5A5145"/>
<stop offset="1" stop-color="#C9C9C8"/>
</linearGradient>
<linearGradient id="paint1_linear_34_73" x1="613.383" y1="1034" x2="621.467" y2="609.111" gradientUnits="userSpaceOnUse">
<stop stop-color="#0B0601"/>
<stop offset="0.485577" stop-color="#5A5145"/>
<stop offset="1" stop-color="#C9C9C8"/>
</linearGradient>
<linearGradient id="paint2_linear_34_73" x1="873.383" y1="1034" x2="884.172" y2="543.188" gradientUnits="userSpaceOnUse">
<stop stop-color="#0B0601"/>
<stop offset="0.485577" stop-color="#5A5145"/>
<stop offset="1" stop-color="#C9C9C8"/>
</linearGradient>
<linearGradient id="paint3_linear_34_73" x1="1123.87" y1="1034" x2="1142.78" y2="381.482" gradientUnits="userSpaceOnUse">
<stop stop-color="#0B0601"/>
<stop offset="0.485577" stop-color="#73CD76"/>
<stop offset="1" stop-color="#93FF98"/>
</linearGradient>
<linearGradient id="paint4_linear_34_73" x1="1169.26" y1="511.5" x2="1257.5" y2="511.5" gradientUnits="userSpaceOnUse">
<stop stop-color="#3A3A3A"/>
<stop offset="1" stop-color="white"/>
</linearGradient>
</defs>
</svg>
